<svg xmlns="http://www.w3.org/2000/svg" width="2351" height="2351">
    <path d="M0 0h2351v2351H0V0zm2154.15 1604.13c6.92-9.42 14.3-15.45 23.64-18.73 8.45-2.96 17.03-5.64 25.68-7.97 22.47-6.04 45-11.85 67.53-17.69 7.72-2 15.68-3.29 23.18-5.92 4.83-1.7 9.77-4.5 13.29-8.13 5.17-5.35 3.28-11.1-3.98-12.37-6.78-1.19-13.96-1.63-20.77-.83-13.84 1.62-27.58 4.18-41.32 6.57-34.89 6.07-67.53 18.06-96.07 39.29-14.89 11.08-29.04 11.91-45.52 3.79-21.45-10.58-43.33-20.47-65.64-29.06-17.73-6.83-35.25-13.87-52.18-22.49-16.02-8.16-32.39-15.63-50.04-19.68-7.37-1.69-13.54-5.15-19.05-10.26-12.83-11.89-27.39-21.38-43.77-27.35-16.22-5.92-32.95-10.43-49.42-15.64-8.86-2.8-17.87-5.29-26.45-8.79-13.24-5.4-26.23-11.43-39.23-17.4-13.9-6.38-27.72-12.95-41.54-19.5-14.42-6.84-28.53-14.41-43.25-20.5-22.43-9.29-45.19-17.8-67.99-26.16-5.8-2.13-12.36-3.78-18.41-3.36-14.27 1-27.79-1.26-41.21-5.72-20.51-6.81-41.08-13.45-61.71-19.89-31.5-9.84-62.67-20.41-90.7-38.45-1.92-1.24-4.21-1.95-6.4-2.7-54.54-18.51-107.98-39.83-160.79-62.77-5.78-2.51-11.78-5.22-17.92-5.98-7.43-.93-15.24-.68-22.63.57-5.43.92-9.27 5.62-9.81 11.39-.57 6.06 4.34 8.44 8.94 10.65.9.43 1.85.75 2.77 1.13 27.42 11.16 54.88 22.25 82.26 33.51 58.45 24.03 117.1 47.59 175.22 72.4 46.1 19.68 93.16 35.94 142.6 44.34 18.61 3.16 36.03 8.91 53.16 16.44 48.43 21.29 96.92 42.45 145.48 63.43 44.62 19.28 89.06 38.88 130.28 64.96 2.23 1.41 4.69 2.57 7.19 3.44 58.2 20.25 114.55 45 170.83 69.93 4.25 1.88 8.49 3.93 12.39 6.43 7.56 4.85 11.46 11.28 9.91 20.98-1.41 8.83-2.08 17.93-1.63 26.85.35 6.81 2.7 13.59 4.64 20.24 1.21 4.16 5.05 5.08 8.9 4.82 3.68-.24 4.87-3.07 5.3-6.25.49-3.63.73-7.29 1.28-10.9 1.7-11.09 3.49-22.17 5.35-33.88 5.03.31 9.03.15 12.87.85 13.74 2.5 27.43 5.22 41.12 8.01 10.75 2.19 21.44 4.64 32.17 6.94 4.61.99 8.84.23 11.34-4.1 2.47-4.26 1.46-8.77-1.81-11.96-5.19-5.05-10.58-10.11-16.65-13.99-6.11-3.91-13.13-6.41-19.77-9.47-13.53-6.22-27.09-12.41-41.65-19.07zM132.29 989.66c-1.08 3.07-1.65 4.97-2.41 6.8-14.37 34.75-28.77 69.48-43.13 104.23-1.01 2.44-2.55 5.01-2.47 7.47.09 2.66 1.09 6.33 2.99 7.61 1.88 1.26 5.54.57 8.14-.21 2.08-.63 3.87-2.53 5.57-4.1 19.78-18.35 32.86-41.14 40.77-66.47 6.52-20.89 18.21-37.36 34.42-51.45 9.76-8.49 20.45-10.69 32.47-7.08 41.73 12.53 83.75 24.2 125.05 38.03 99.44 33.29 199.01 65.94 302.6 84.24 29.82 5.27 59.56 11.18 89.56 15.16 33.77 4.48 67.02 10.52 99.14 22.08 18.15 6.53 36.12 13.67 54.55 19.26 21.32 6.47 43.17 11.16 64.6 17.31 35.68 10.23 68.87 26.44 101.82 43.23 8.86 4.51 18.1 8.37 27.45 11.77 6.68 2.43 15.29-2.24 17.99-8.67 2.19-5.21-.07-10.96-6.22-15.35-1.59-1.14-3.52-1.81-5.28-2.71-14.8-7.56-30.28-14.06-44.25-22.93-25.27-16.06-52.04-28.05-80.97-35.56-19.95-5.18-39.56-11.87-59.72-15.98-16.11-3.28-31.65-7.42-46.58-14.24-18.83-8.59-38.41-15.25-58.8-18.76-25.89-4.46-51.92-8.19-77.95-11.78-19.48-2.68-38.79-5.52-57.33-12.71-7.96-3.09-16.7-4.42-25.21-5.73-16.08-2.46-32.67-2.73-48.29-6.78-29.25-7.59-57.96-17.28-86.91-26.02-53.18-16.06-104.8-36.93-158.88-50.3-50.15-12.4-97.89-32.34-146.66-49.08-12.43-4.27-18.42-13.62-20-26.19-2.86-22.79-5.59-45.6-8.48-68.38-1.93-15.19-3.87-30.39-6.11-45.53-1.65-11.13-6.16-15.46-17.36-17.45-2.89-.52-5.85-.63-8.4-.9-4.01 3.88-3.92 8.04-3.38 12.5 1.31 10.9 2.43 21.83 3.54 32.75 3.09 30.47 5.92 60.95 13.04 90.88 2.37 9.95 2.95 20.44 3.29 30.72.31 9.42-4.79 14.08-14.12 14.3-3.97.1-7.98-.37-11.93-.89-15.51-2.04-31-4.31-46.52-6.25-5.27-.66-10.62-.66-15.94-.87-1.65-.06-3.35 0-4.97.32-5.05.98-8.47 4.37-8.5 8.42-.05 5.43 4.06 6.11 8.08 6.97 21.47 4.64 42.93 9.3 64.38 14.03 5.46 1.2 10.87 2.69 17.35 4.31zm1004.8 236.93c4.69 1.85 7.36 4.04 8.35-.17.4-1.7-.95-3.8-1.5-5.72-1.92 1.65-3.83 3.3-6.85 5.89z"
          fill="transparent"/>
    <path d="M2154.15 1604.13c14.56 6.66 28.11 12.85 41.65 19.07 6.65 3.06 13.66 5.56 19.77 9.47 6.06 3.88 11.46 8.94 16.65 13.99 3.27 3.19 4.28 7.7 1.81 11.96-2.51 4.33-6.73 5.08-11.34 4.1-10.73-2.3-21.42-4.74-32.17-6.94-13.68-2.79-27.38-5.5-41.12-8.01-3.85-.7-7.85-.55-12.87-.85-1.86 11.71-3.65 22.79-5.35 33.88-.55 3.62-.79 7.28-1.28 10.9-.43 3.18-1.62 6.01-5.3 6.25-3.85.25-7.69-.66-8.9-4.82-1.94-6.65-4.29-13.42-4.64-20.24-.45-8.91.22-18.02 1.63-26.85 1.55-9.7-2.35-16.13-9.91-20.98-3.9-2.5-8.14-4.55-12.39-6.43-56.28-24.93-112.64-49.68-170.83-69.93-2.5-.87-4.96-2.03-7.19-3.44-41.23-26.08-85.66-45.68-130.28-64.96-48.56-20.98-97.05-42.14-145.48-63.43-17.13-7.53-34.55-13.28-53.16-16.44-49.44-8.4-96.5-24.66-142.6-44.34-58.12-24.81-116.77-48.37-175.22-72.4-27.39-11.26-54.84-22.35-82.26-33.51-.92-.38-1.88-.69-2.77-1.13-4.6-2.21-9.51-4.58-8.94-10.65.54-5.77 4.38-10.48 9.81-11.39 7.39-1.25 15.2-1.49 22.63-.57 6.13.77 12.14 3.47 17.92 5.98 52.81 22.94 106.25 44.27 160.79 62.77 2.19.74 4.48 1.46 6.4 2.7 28.03 18.04 59.2 28.61 90.7 38.45 20.63 6.45 41.2 13.09 61.71 19.89 13.43 4.46 26.94 6.72 41.21 5.72 6.05-.42 12.6 1.23 18.41 3.36 22.8 8.36 45.56 16.87 67.99 26.16 14.72 6.1 28.84 13.66 43.25 20.5 13.82 6.56 27.64 13.12 41.54 19.5 13 5.96 25.99 12 39.23 17.4 8.59 3.5 17.59 5.98 26.45 8.79 16.48 5.21 33.21 9.72 49.42 15.64 16.38 5.98 30.94 15.46 43.77 27.35 5.51 5.11 11.68 8.57 19.05 10.26 17.64 4.04 34.01 11.51 50.04 19.68 16.93 8.62 34.45 15.66 52.18 22.49 22.31 8.59 44.19 18.49 65.64 29.06 16.49 8.13 30.63 7.29 45.52-3.79 28.55-21.24 61.18-33.23 96.07-39.29 13.74-2.39 27.48-4.95 41.32-6.57 6.82-.8 13.99-.36 20.77.83 7.26 1.27 9.15 7.03 3.98 12.37-3.52 3.64-8.46 6.44-13.29 8.13-7.5 2.63-15.45 3.92-23.18 5.92-22.52 5.84-45.06 11.65-67.53 17.69-8.65 2.33-17.23 5-25.68 7.97-9.34 3.27-16.72 9.31-23.64 18.73zM132.29 989.66c-6.49-1.62-11.89-3.1-17.35-4.31-21.45-4.73-42.91-9.39-64.38-14.03-4.02-.87-8.13-1.54-8.08-6.97.03-4.05 3.45-7.44 8.5-8.42 1.62-.31 3.32-.38 4.97-.32 5.32.21 10.67.21 15.94.87 15.52 1.94 31.01 4.21 46.52 6.25 3.95.52 7.96.99 11.93.89 9.33-.23 14.43-4.89 14.12-14.3-.33-10.28-.92-20.77-3.29-30.72-7.12-29.94-9.95-60.41-13.04-90.88-1.11-10.92-2.23-21.85-3.54-32.75-.54-4.46-.63-8.61 3.38-12.5 2.55.26 5.51.38 8.4.9 11.21 2 15.71 6.32 17.36 17.45 2.24 15.15 4.18 30.34 6.11 45.53 2.89 22.79 5.62 45.59 8.48 68.38 1.58 12.58 7.58 21.93 20 26.19 48.76 16.74 96.51 36.68 146.66 49.08 54.08 13.37 105.7 34.24 158.88 50.3 28.96 8.74 57.66 18.43 86.91 26.02 15.63 4.06 32.22 4.32 48.29 6.78 8.51 1.3 17.26 2.64 25.21 5.73 18.54 7.19 37.85 10.03 57.33 12.71 26.03 3.58 52.06 7.32 77.95 11.78 20.39 3.51 39.97 10.17 58.8 18.76 14.93 6.81 30.47 10.96 46.58 14.24 20.15 4.11 39.77 10.8 59.72 15.98 28.93 7.51 55.7 19.5 80.97 35.56 13.97 8.87 29.45 15.37 44.25 22.93 1.76.9 3.69 1.58 5.28 2.71 6.15 4.39 8.41 10.14 6.22 15.35-2.7 6.43-11.31 11.1-17.99 8.67-9.35-3.4-18.59-7.26-27.45-11.77-32.94-16.79-66.14-33-101.82-43.23-21.43-6.14-43.28-10.84-64.6-17.31-18.43-5.59-36.4-12.73-54.55-19.26-32.12-11.56-65.37-17.6-99.14-22.08-29.99-3.98-59.74-9.89-89.56-15.16-103.59-18.3-203.16-50.95-302.6-84.24-41.3-13.82-83.32-25.5-125.05-38.03-12.02-3.61-22.7-1.4-32.47 7.08-16.21 14.09-27.9 30.56-34.42 51.45-7.91 25.33-20.98 48.12-40.77 66.47-1.7 1.57-3.48 3.48-5.57 4.1-2.6.78-6.26 1.46-8.14.21-1.91-1.28-2.91-4.94-2.99-7.61-.08-2.46 1.46-5.03 2.47-7.47 14.36-34.75 28.76-69.48 43.13-104.23.76-1.83 1.33-3.73 2.41-6.8zM1137.08 1226.59c3.02-2.59 4.93-4.24 6.85-5.89.55 1.92 1.9 4.03 1.5 5.72-.99 4.21-3.66 2.02-8.35.17z"/>
</svg>