<svg xmlns="http://www.w3.org/2000/svg" width="2351" height="2351">
    <path d="M2351 2351H0V0h2351v2351zm-160.84-1326.13c-9.23 4.84-18.69 9.5-27.87 14.67-16.81 9.47-33.42 19.29-50.16 28.89-7.48 4.29-15.57 5.53-24.1 4.5-7.6-.92-15.21-1.92-22.84-2.36-25.47-1.47-49.68 2.55-71.91 16.09-6.14 3.74-13.44 5.52-19.87 8.85-7.61 3.94-15.74 7.58-22.04 13.16-7.39 6.54-13.24 14.87-19.42 22.69-8.35 10.56-12.03 22.76-12.23 36.23-.18 11.98-.77 23.97-1.45 35.94-.63 11.08-1.49 11.69-12.51 14.5-56.27 14.31-113.36 22.98-171.38 25.57-14.3.64-28.61 1.45-42.85 2.92-23.18 2.38-46.24 6.44-69.46 7.8-23.54 1.37-47.23.51-70.85.26-9.92-.1-17.13-5-20.46-14.64-8.86-25.67-23.08-48.63-36.4-72.03-5.87-10.32-9.5-11.64-21.34-8.9-2.59.6-5.11 1.46-7.67 2.2-12.14 3.5-24.15 7.53-36.44 10.4-25.91 6.06-51.97 11.49-77.95 17.25-39.98 8.86-80.02 17.23-120.75 22.07-10.82 1.28-21.48 4.33-32.03 7.24-3.99 1.1-7.9 3.58-11.06 6.34-5.56 4.87-6.34 11.74-2.81 17.11 2.93 4.46 6.57 4.91 14.3 3.03 11.6-2.83 23.25-5.67 35.02-7.59 16.09-2.62 32.45-3.7 48.46-6.67 33.35-6.18 66.66-12.71 99.8-19.96 25.31-5.54 51.11-9.24 75.55-18.44 1.83-.69 3.91-.8 5.89-1.02 10-1.12 16.78 2.34 21.26 11.3 1.92 3.84 2.98 8.1 4.7 12.06 8.73 20.11 17.01 40.44 26.51 60.17 6.85 14.23 14.49 17.28 30.29 14.06 18.79-3.83 37.77-4.78 56.66-2.65 19.1 2.15 37.64.7 56.56-2.34 50.32-8.08 101-13.47 152-14.64 27.18-.62 53.61-4.47 79.57-12.63 13.97-4.39 28.32-7.26 43.27-5.86 13.92 1.31 20.81-6.18 18.07-20.07-2.05-10.4-4.15-21.15-8.55-30.66-11.98-25.9 2.78-60.78 27.06-71.29 20.72-8.97 41.68-17.47 62.89-25.21 6.95-2.54 15.08-3.06 22.57-2.67 13.95.73 25.24 7.52 34.3 18.19 9.95 11.71 20.56 22.68 34.54 29.83 21.93 11.22 43.72 22.71 65.6 34.03 5.62 2.9 11.2 5.96 17.08 8.23 9.43 3.64 17.27-2.45 15.59-12.35-.87-5.08-3.38-9.99-5.72-14.68-3.35-6.71-2.45-8.74 4.8-9.99 4.87-.84 9.91-1.61 14.41-3.5 6.06-2.55 8.73-7.85 8.7-14.49-.03-6.45-3.38-10.64-8.94-13.22-2.7-1.25-5.6-2.1-8.46-2.98-23.52-7.23-47.08-14.35-70.57-21.68-5.84-1.82-11.67-3.96-16.48-9.2 6.91-5.23 13.18-10.15 19.64-14.82 8.62-6.24 17.65-11.95 26.03-18.49 10.11-7.88 11.3-18.75 3.49-30.54zm-2041.79 55.97c-1.8-3.62-3.05-5.95-4.14-8.36-4.37-9.71-8.57-19.5-13.05-29.16-3.79-8.18-7.47-8.5-12.48-.83-2.31 3.53-3.92 7.64-5.17 11.7-2.97 9.66-.58 19.11 1.9 28.49.76 2.89 2.03 5.72 2.3 8.65.65 7.12-3.3 10.36-9.77 7.53-5.12-2.23-9.73-5.69-14.47-8.74-3.91-2.52-7.4-5.87-11.57-7.76-8.38-3.78-15.96 1.79-14.79 10.82 1.77 13.61 7.59 24.51 20.85 30.7 7.81 3.64 15.2 8.28 22.51 12.89 8.5 5.35 12.82 13.12 12.68 23.42-.15 11.29-.19 22.61.36 33.89.8 16.43-.1 32.36-5.89 48.16-2.88 7.86-3.21 17.02-2.92 25.53.16 4.87 2.75 10.74 6.2 14.22 13.11 13.22 26.55 26.19 43.44 34.84 39.83 20.41 82.36 6.98 102.65-32.57 1.06-2.07 2-4.21 3.12-6.26 4.32-7.88 8.36-15.93 13.12-23.54 5.45-8.72 13.08-11.94 22.24-8.56 15.89 5.86 31.47 12.57 47.15 19 11.66 4.78 23.06 10.27 34.95 14.37 13.77 4.75 28.31 6.8 41.75 13.13 19.83 9.34 40.17 17.62 60.46 25.95 19.68 8.07 39.58 15.6 59.37 23.41 8.04 3.17 15.98 6.62 24.07 9.65 12.93 4.84 19.69 2.95 27.91-7.88 3.82-5.03 7.29-10.35 10.72-15.66 21.69-33.55 43.41-67.09 64.91-100.76 5.4-8.45 12.58-11.86 22.54-11.81 25.3.11 50.61-.84 75.91-.57 31.95.33 63.91 1.21 95.84 2.3 22.94.79 45.84 2.57 68.78 3.44 25.94.98 51.97.47 77.84 2.37 33.52 2.46 66.88 6.94 100.37 9.95 11.56 1.04 23.3.9 34.9.23 12.74-.73 14.77-6.19 15.83-14.41.93-7.27-5.35-12.23-15.73-13.06-11.29-.89-22.59-1.63-33.9-2.16-18.96-.9-38.21.2-56.84-2.74-32.76-5.17-65.57-5.98-98.55-6.53-28.27-.47-56.67-.8-84.75-3.71-28.9-3-57.62-5.46-86.67-3.52-21.93 1.47-43.86 2.65-65.88.65-12.24-1.11-24.6-.99-36.9-1.54-11.39-.51-20.39 3.78-25.68 13.9-19.56 37.44-46.43 70.59-63.84 109.3-4.52 10.04-9.13 12.15-20.01 8.9-10.46-3.12-20.59-7.39-30.72-11.5-11.38-4.62-22.49-9.93-33.94-14.38-9.27-3.61-19.03-5.98-28.29-9.64-43.28-17.1-86.49-34.38-129.67-51.74-20.37-8.19-40.59-16.75-58.71-29.47-1.06-.74-2.33-1.2-3.69-1.88-10.32 8.89-18.77 19.26-24.87 31.11-6.05 11.75-11.52 23.96-15.71 36.48-5.83 17.42-17 27.42-35.15 29.39-6.6.72-13.33 1.16-19.93.75-25.46-1.57-44.47-13.85-58.14-35.64 9.96-16.54 10.37-34.17 7.77-52.4-2.37-16.63-.4-32.89 9.88-46.69 7.22-9.69 10.04-19.91 9.23-31.72-1.11-16.05-.53-31.98 5.89-47.14 1.78-4.2.73-7.71-2.94-11.21-7.23 2.68-14.6 5.41-22.73 8.42z"
          fill="transparent"/>
    <path d="M2190.16 1024.87c7.81 11.79 6.61 22.66-3.49 30.54-8.38 6.54-17.4 12.25-26.03 18.49-6.45 4.67-12.73 9.59-19.64 14.82 4.81 5.24 10.64 7.38 16.48 9.2 23.49 7.33 47.05 14.45 70.57 21.68 2.86.88 5.76 1.72 8.46 2.98 5.56 2.58 8.91 6.77 8.94 13.22.03 6.64-2.64 11.94-8.7 14.49-4.5 1.89-9.54 2.66-14.41 3.5-7.25 1.25-8.15 3.28-4.8 9.99 2.35 4.7 4.86 9.6 5.72 14.68 1.69 9.91-6.15 15.99-15.59 12.35-5.88-2.27-11.47-5.33-17.08-8.23-21.88-11.31-43.67-22.81-65.6-34.03-13.98-7.15-24.59-18.12-34.54-29.83-9.07-10.67-20.35-17.46-34.3-18.19-7.49-.39-15.61.13-22.57 2.67-21.21 7.73-42.16 16.24-62.89 25.21-24.28 10.5-39.04 45.39-27.06 71.29 4.4 9.52 6.5 20.26 8.55 30.66 2.73 13.89-4.16 21.38-18.07 20.07-14.94-1.4-29.3 1.47-43.27 5.86-25.96 8.15-52.39 12-79.57 12.63-51 1.17-101.68 6.57-152 14.64-18.92 3.04-37.46 4.49-56.56 2.34-18.89-2.13-37.87-1.18-56.66 2.65-15.8 3.22-23.43.17-30.29-14.06-9.5-19.74-17.78-40.07-26.51-60.17-1.72-3.96-2.78-8.22-4.7-12.06-4.48-8.96-11.25-12.42-21.26-11.3-1.98.22-4.06.33-5.89 1.02-24.44 9.2-50.23 12.9-75.55 18.44-33.14 7.25-66.44 13.78-99.8 19.96-16.02 2.97-32.37 4.05-48.46 6.67-11.78 1.92-23.42 4.76-35.02 7.59-7.72 1.88-11.37 1.43-14.3-3.03-3.53-5.37-2.75-12.24 2.81-17.11 3.15-2.76 7.07-5.24 11.06-6.34 10.55-2.91 21.21-5.96 32.03-7.24 40.73-4.84 80.78-13.21 120.75-22.07 25.98-5.76 52.04-11.18 77.95-17.25 12.29-2.88 24.3-6.9 36.44-10.4 2.55-.74 5.08-1.6 7.67-2.2 11.84-2.74 15.47-1.41 21.34 8.9 13.31 23.41 27.53 46.36 36.4 72.03 3.33 9.64 10.55 14.53 20.46 14.64 23.62.25 47.31 1.11 70.85-.26 23.22-1.36 46.28-5.41 69.46-7.8 14.23-1.46 28.55-2.28 42.85-2.92 58.02-2.59 115.11-11.26 171.38-25.57 11.03-2.8 11.88-3.41 12.51-14.5.68-11.97 1.27-23.95 1.45-35.94.2-13.46 3.88-25.66 12.23-36.23 6.18-7.82 12.04-16.15 19.42-22.69 6.3-5.58 14.43-9.22 22.04-13.16 6.43-3.33 13.73-5.11 19.87-8.85 22.23-13.54 46.45-17.56 71.91-16.09 7.63.44 15.24 1.44 22.84 2.36 8.54 1.03 16.62-.21 24.1-4.5 16.74-9.6 33.35-19.41 50.16-28.89 9.17-5.17 18.64-9.83 27.87-14.67zm-2041.78 55.97c8.12-3.01 15.5-5.74 22.73-8.42 3.67 3.5 4.71 7.02 2.94 11.21-6.42 15.15-7.01 31.08-5.89 47.14.82 11.82-2.01 22.03-9.23 31.72-10.28 13.8-12.25 30.06-9.88 46.69 2.6 18.23 2.19 35.86-7.77 52.4 13.67 21.79 32.69 34.07 58.14 35.64 6.61.41 13.33-.04 19.93-.75 18.15-1.97 29.32-11.97 35.15-29.39 4.19-12.52 9.65-24.73 15.71-36.48 6.1-11.85 14.55-22.21 24.87-31.11 1.36.68 2.63 1.14 3.69 1.88 18.12 12.71 38.34 21.27 58.71 29.47 43.18 17.36 86.39 34.64 129.67 51.74 9.25 3.66 19.02 6.03 28.29 9.64 11.44 4.46 22.55 9.76 33.94 14.38 10.13 4.11 20.27 8.39 30.72 11.5 10.88 3.24 15.49 1.14 20.01-8.9 17.42-38.71 44.29-71.86 63.84-109.3 5.29-10.13 14.29-14.41 25.68-13.9 12.3.55 24.65.43 36.9 1.54 22.01 2 43.95.81 65.88-.65 29.05-1.94 57.77.52 86.67 3.52 28.08 2.91 56.48 3.24 84.75 3.71 32.98.55 65.8 1.37 98.55 6.53 18.62 2.94 37.88 1.85 56.84 2.74 11.31.53 22.61 1.26 33.9 2.16 10.38.82 16.66 5.78 15.73 13.06-1.06 8.22-3.09 13.69-15.83 14.41-11.6.66-23.35.81-34.9-.23-33.48-3.02-66.85-7.5-100.37-9.95-25.86-1.9-51.9-1.38-77.84-2.37-22.94-.87-45.84-2.65-68.78-3.44-31.94-1.09-63.89-1.97-95.84-2.3-25.3-.26-50.61.69-75.91.57-9.96-.04-17.14 3.36-22.54 11.81-21.5 33.67-43.23 67.2-64.91 100.76-3.43 5.31-6.9 10.63-10.72 15.66-8.22 10.83-14.98 12.72-27.91 7.88-8.09-3.03-16.03-6.47-24.07-9.65-19.79-7.81-39.69-15.34-59.37-23.41-20.29-8.32-40.63-16.61-60.46-25.95-13.45-6.33-27.98-8.38-41.75-13.13-11.89-4.1-23.29-9.59-34.95-14.37-15.68-6.43-31.26-13.14-47.15-19-9.17-3.38-16.79-.16-22.24 8.56-4.75 7.61-8.8 15.66-13.12 23.54-1.12 2.04-2.06 4.18-3.12 6.26-20.29 39.55-62.82 52.97-102.65 32.57-16.89-8.65-30.33-21.63-43.44-34.84-3.45-3.48-6.03-9.35-6.2-14.22-.29-8.51.04-17.67 2.92-25.53 5.79-15.8 6.69-31.73 5.89-48.16-.55-11.28-.51-22.59-.36-33.89.13-10.3-4.19-18.07-12.68-23.42-7.32-4.61-14.7-9.24-22.51-12.89-13.26-6.19-19.09-17.09-20.85-30.7-1.17-9.03 6.42-14.6 14.79-10.82 4.17 1.88 7.66 5.24 11.57 7.76 4.74 3.06 9.35 6.51 14.47 8.74 6.47 2.82 10.42-.41 9.77-7.53-.27-2.93-1.54-5.76-2.3-8.65-2.48-9.38-4.87-18.82-1.9-28.49 1.25-4.06 2.87-8.17 5.17-11.7 5.01-7.67 8.69-7.35 12.48.83 4.47 9.66 8.68 19.44 13.05 29.16 1.08 2.41 2.34 4.74 4.14 8.36z"/>
</svg>