<svg xmlns="http://www.w3.org/2000/svg" width="2351" height="2351">
    <path d="M0 0h2351v2351H0V0zm1876.59 1261.81c-8.64-3.38-16.95-6.68-25.3-9.9-29.12-11.25-54.14-28.23-74.1-52.47-18.61-22.6-36.89-45.51-56.39-67.33-10.34-11.58-22.62-21.52-34.64-31.46-9-7.45-19.87-10.33-31.77-9.54-4.88.32-9.89-.48-14.77-1.23-10.84-1.68-21.72-5.55-32.43-5.1-21.24.89-42.67 2.6-63.48 6.73-27.03 5.37-53.65 12.99-80.21 20.46-37.84 10.64-74.9 23.42-109.62 42.35-19.85 10.83-40.02 21.08-60.24 31.22-16.66 8.35-33.72 15.88-50.33 24.33-5.51 2.8-10.55 6.89-15.06 11.18-3.55 3.38-4.25 8.37-2.12 13.03 2.28 4.98 6.61 7.52 11.99 7.52 2.9 0 5.95-.72 8.69-1.77 9.62-3.7 19.28-7.37 28.67-11.61 45.5-20.53 90.89-41.29 136.37-61.84 6.96-3.14 14-6.4 21.35-8.34 46.34-12.22 93.08-22.69 140.45-30.17 16.3-2.57 32.58-3.29 48.62.65 18.73 4.6 37.27 9.98 55.81 15.31 8.72 2.51 17 6.41 22.88 13.56 12.89 15.68 25.47 31.61 38.03 47.56 10.28 13.05 19.66 26.86 30.65 39.26 14.33 16.17 33.22 26.42 51.95 36.71a579.58 579.58 0 0132.58 19.3c9.78 6.24 20.25 8.61 31.47 6.62 16.48-2.93 33.03-3.94 49.73-3.42 10.21.32 19.83-1.71 28.49-7.5 5.51-3.68 11.53-4.85 18.08-3.44 11.26 2.42 22.55 2.05 33.68-.67 27.46-6.7 55.01-13.13 82.25-20.65 14.27-3.94 27.49-4.24 41.92.2 32.02 9.84 65.99 12.85 96.73 27.56 3.24 1.55 9.56 1 12.14-1.23 7.26-6.3 13.64-5.31 20.88-.77 2.82 1.77 6.32 2.99 9.1-.23 2.96-3.43 1.75-7.23-.77-10.01-12.26-13.52-23.68-28.16-44.2-29.89-7.08-.6-10.62-6.48-12.04-13.07-1.32-6.12.65-11.75 6.06-14.72 11.04-6.07 22.49-11.42 33.81-16.98 5.61-2.75 11.5-4.98 16.92-8.04 6.17-3.48 12.01-7.14 19.64-4.91 1.6.47 4.04-.17 5.48-1.17 5.6-3.93 9.17-15.07 7.39-21.63-1.17-4.32-3.39-6.64-8.35-6.82-21.26-.76-41.76 1.45-61.06 11.51-19.17 10-38.78 19.17-58.16 28.78-5.7 2.83-11.53 4.76-17.99 4.2-.29-8.66.53-12.31 4.49-19.04 6.27-10.65 15.28-18.39 26.38-23.55 15.78-7.33 28.3-18.7 39.13-31.89 3.9-4.75 6.2-10.91 8.74-16.65 1.93-4.34.93-8.93-2.72-11.8-3.64-2.86-8.11-2.55-12.07.18-3.29 2.26-6.52 4.61-9.74 6.97-11 8.05-21.85 16.31-33.01 24.13-25.55 17.91-46.57 39.53-58.69 68.91-4.02 9.75-11.43 16.07-21.93 18.69-22.91 5.71-45.65 12.18-68.7 17.22-14.56 3.19-29.54 5.88-44.38 6.11-27.26.42-54.56-1.05-81.83-1.93-12.67-.41-24.6 1.28-34.45 10.55zm-1657.4 3.48c2.32 8.24 3.75 15.04 6.14 21.49 14.03 37.91 33.92 72.99 52.71 108.6 2.78 5.26 5.25 10.79 7.03 16.46 2.13 6.77-.41 12.46-6.12 16.59-1.87 1.35-4.03 2.31-6.07 3.42-14.75 7.99-30.23 6.23-45.8 3.44-4.24-.76-8.52-1.86-12.77-1.83-6.62.04-9.41 4.25-6.13 9.9 2 3.44 5.71 6.65 9.39 8.23 17.51 7.52 35.45 8.86 53.31 1.09 9.14-3.97 18.19-8.25 26.96-12.99 14.45-7.81 29.64-11.67 46.07-10.31 4.97.41 9.93 1.02 14.91 1.25 53.43 2.49 98.88-15.54 134.98-54.89 16.72-18.22 34.29-35.29 52.99-51.4 20.33-17.51 37.6-37.63 50.2-61.6 4-7.6 8.64-15.05 14.07-21.68 10.97-13.39 22.86-26.01 34.04-39.23 10.01-11.84 21.35-22.07 35.03-29.31 25.45-13.48 52.15-24.3 80.94-27.06 27.45-2.63 55.14-2.84 82.73-3.77 3.43-.12 7.05 1.59 10.39 2.92 14.21 5.67 28.32 11.55 42.5 17.28 19.11 7.72 38.59 14.61 57.29 23.23 26.27 12.11 51.96 25.47 77.88 38.33 4.47 2.21 8.73 4.88 13.33 6.78 10.14 4.18 15.14 2.4 20.35-7 2.25-4.07 4.43-8.23 6.04-12.57 4.89-13.25 2.02-19.42-10.9-25.35-14.51-6.65-29.11-13.15-43.31-20.43-23.7-12.14-47.16-24.73-72.9-32.21-1.58-.46-3.08-1.27-4.55-2.03-30.67-16.02-63.06-26.2-97.62-29.59-35.28-3.47-69.93-.89-103.4 10.91-25.45 8.98-51.04 18.8-71.05 37.55-24.49 22.96-49.09 46.1-67.14 74.92-24.75 39.52-57.03 71.94-94.57 99.14-12.07 8.74-25.13 16.31-38.37 23.21-18.17 9.49-34.94 19.69-46.81 37.56-12.23 18.43-37.66 22.97-56.13 12.38-6.55-3.76-11.42-9.18-10.52-16.79 1.56-13.12-3.68-23.2-11.54-32.8-20.87-25.53-34.79-55.08-47.61-85.08-4.67-10.93-11.21-19.45-20.65-26.15-6.62-4.7-11.87-5.72-15.43-2.46-4.7 4.31-3.46 9.63-1.75 14.85.52 1.58 1.28 3.09 1.71 4.69 1.37 5.13 3.25 10.21 3.84 15.43 1.81 15.94 8.05 30.02 16.25 43.6 5.83 9.66 10.74 19.87 15.96 29.88 1.07 2.05 2.46 4.37 2.33 6.48-.17 2.67-1.12 5.83-2.87 7.73-2.6 2.82-5.73 1-7.73-1.41-3.38-4.07-6.61-8.32-9.49-12.76-13.94-21.49-27.67-43.12-41.65-64.6-3.46-5.32-7.8-9.93-16.48-12.04z"
          fill="transparent"/>
    <path d="M1876.59 1261.81c9.85-9.27 21.78-10.95 34.45-10.55 27.27.88 54.57 2.35 81.83 1.93 14.83-.23 29.81-2.92 44.38-6.11 23.05-5.04 45.79-11.52 68.7-17.22 10.5-2.62 17.91-8.94 21.93-18.69 12.13-29.38 33.15-51 58.69-68.91 11.16-7.82 22.01-16.08 33.01-24.13 3.22-2.36 6.45-4.7 9.74-6.97 3.96-2.72 8.43-3.04 12.07-.18 3.65 2.87 4.65 7.46 2.72 11.8-2.55 5.73-4.84 11.9-8.74 16.65-10.84 13.19-23.35 24.56-39.13 31.89-11.1 5.16-20.11 12.9-26.38 23.55-3.96 6.73-4.78 10.38-4.49 19.04 6.46.56 12.28-1.37 17.99-4.2 19.38-9.61 38.98-18.78 58.16-28.78 19.31-10.07 39.81-12.28 61.06-11.51 4.97.18 7.18 2.5 8.35 6.82 1.78 6.56-1.79 17.7-7.39 21.63-1.44 1.01-3.87 1.64-5.48 1.17-7.63-2.23-13.47 1.42-19.64 4.91-5.43 3.06-11.31 5.29-16.92 8.04-11.32 5.56-22.76 10.91-33.81 16.98-5.4 2.97-7.37 8.6-6.06 14.72 1.42 6.59 4.96 12.48 12.04 13.07 20.51 1.73 31.93 16.38 44.2 29.89 2.52 2.78 3.73 6.58.77 10.01-2.78 3.23-6.28 2-9.1.23-7.24-4.53-13.62-5.53-20.88.77-2.58 2.24-8.9 2.78-12.14 1.23-30.74-14.71-64.71-17.72-96.73-27.56-14.43-4.44-27.65-4.14-41.92-.2-27.24 7.52-54.78 13.95-82.25 20.65-11.12 2.71-22.41 3.09-33.68.67-6.55-1.41-12.58-.24-18.08 3.44-8.65 5.78-18.28 7.82-28.49 7.5-16.7-.53-33.24.49-49.73 3.42-11.22 2-21.69-.38-31.47-6.62a585.686 585.686 0 00-32.58-19.3c-18.73-10.29-37.62-20.55-51.95-36.71-10.99-12.4-20.38-26.21-30.65-39.26-12.56-15.95-25.14-31.88-38.03-47.56-5.88-7.15-14.16-11.05-22.88-13.56-18.54-5.33-37.09-10.71-55.81-15.31-16.04-3.94-32.32-3.22-48.62-.65-47.38 7.47-94.11 17.94-140.45 30.17-7.34 1.94-14.39 5.2-21.35 8.34-45.48 20.56-90.88 41.31-136.37 61.84-9.39 4.24-19.04 7.91-28.67 11.61-2.73 1.05-5.78 1.77-8.69 1.77-5.38 0-9.71-2.54-11.99-7.52-2.13-4.66-1.43-9.65 2.12-13.03 4.51-4.29 9.55-8.38 15.06-11.18 16.61-8.45 33.67-15.98 50.33-24.33 20.22-10.14 40.39-20.39 60.24-31.22 34.71-18.93 71.77-31.71 109.62-42.35 26.57-7.47 53.19-15.08 80.21-20.46 20.8-4.13 42.24-5.84 63.48-6.73 10.72-.45 21.59 3.42 32.43 5.1 4.88.75 9.89 1.56 14.77 1.23 11.89-.79 22.76 2.09 31.77 9.54 12.02 9.94 24.3 19.89 34.64 31.46 19.49 21.82 37.78 44.73 56.39 67.33 19.96 24.24 44.97 41.23 74.1 52.47 8.35 3.22 16.67 6.52 25.3 9.9zM219.19 1265.29c8.68 2.11 13.02 6.72 16.48 12.04 13.98 21.47 27.71 43.1 41.65 64.6 2.88 4.44 6.11 8.69 9.49 12.76 2 2.41 5.14 4.22 7.73 1.41 1.75-1.9 2.7-5.06 2.87-7.73.13-2.11-1.26-4.43-2.33-6.48-5.22-10.02-10.14-20.23-15.96-29.88-8.19-13.57-14.43-27.66-16.25-43.6-.59-5.22-2.47-10.31-3.84-15.43-.43-1.6-1.19-3.11-1.71-4.69-1.71-5.22-2.95-10.54 1.75-14.85 3.56-3.26 8.81-2.24 15.43 2.46 9.44 6.7 15.98 15.22 20.65 26.15 12.82 29.99 26.74 59.54 47.61 85.08 7.85 9.61 13.09 19.69 11.54 32.8-.9 7.6 3.97 13.03 10.52 16.79 18.46 10.59 43.89 6.05 56.13-12.38 11.86-17.87 28.63-28.07 46.81-37.56 13.23-6.91 26.3-14.47 38.37-23.21 37.55-27.2 69.82-59.62 94.57-99.14 18.05-28.82 42.65-51.96 67.14-74.92 20.01-18.75 45.6-28.57 71.05-37.55 33.47-11.81 68.13-14.38 103.4-10.91 34.56 3.4 66.94 13.57 97.62 29.59 1.47.77 2.97 1.57 4.55 2.03 25.74 7.49 49.2 20.08 72.9 32.21 14.2 7.27 28.8 13.77 43.31 20.43 12.92 5.92 15.79 12.1 10.9 25.35-1.6 4.34-3.79 8.51-6.04 12.57-5.2 9.4-10.21 11.18-20.35 7-4.59-1.89-8.86-4.56-13.33-6.78-25.92-12.85-51.62-26.22-77.88-38.33-18.69-8.62-38.18-15.51-57.29-23.23-14.18-5.73-28.3-11.61-42.5-17.28-3.34-1.33-6.96-3.04-10.39-2.92-27.59.93-55.28 1.14-82.73 3.77-28.79 2.76-55.48 13.58-80.94 27.06-13.68 7.24-25.02 17.48-35.03 29.31-11.18 13.22-23.07 25.85-34.04 39.23-5.43 6.63-10.07 14.08-14.07 21.68-12.6 23.96-29.87 44.09-50.2 61.6-18.7 16.1-36.27 33.17-52.99 51.4-36.1 39.35-81.55 57.37-134.98 54.89-4.98-.23-9.94-.84-14.91-1.25-16.43-1.36-31.62 2.5-46.07 10.31-8.77 4.74-17.81 9.02-26.96 12.99-17.86 7.76-35.8 6.42-53.31-1.09-3.68-1.58-7.39-4.79-9.39-8.23-3.28-5.65-.5-9.86 6.13-9.9 4.25-.03 8.53 1.07 12.77 1.83 15.57 2.79 31.04 4.55 45.8-3.44 2.04-1.11 4.2-2.07 6.07-3.42 5.7-4.13 8.25-9.82 6.12-16.59-1.78-5.67-4.25-11.19-7.03-16.46-18.79-35.61-38.68-70.69-52.71-108.6-2.39-6.45-3.81-13.25-6.14-21.49z"/>
</svg>