<svg xmlns="http://www.w3.org/2000/svg" width="2351" height="2351">
    <path d="M2351 2351H0V0h2351v2351zm-317.27-1278.53c1.83-8.84 5.92-15.59 10.52-22.12 11.69-16.56 23.44-33.08 35.03-49.71 5.21-7.48 8.72-15.57 8.59-25.05-.06-4.65-1.88-7.66-5.87-9.46-3.98-1.8-7.85-1.59-10.96 1.85-4.68 5.16-9.69 10.1-13.81 15.69-11.04 15.02-21.49 30.49-32.54 45.5-11.63 15.8-23.04 31.84-35.72 46.78-17.78 20.95-40.07 35.14-67.99 38.16-11.85 1.28-23.9.71-35.85.99-16.3.39-32.8-.74-48.84 1.48-39.33 5.45-78.75 8.51-118.43 8.62-6.65.02-13.3.57-19.94 1.06-13.93 1.03-27.84 2.26-41.77 3.27-13.93 1.01-27.92 1.43-41.81 2.84-47.68 4.85-95.34 9.89-142.97 15.14-26.79 2.95-53.52 6.38-80.26 9.78-14.85 1.89-29.65 4.11-44.46 6.28-16.11 2.36-32.37 4.03-48.26 7.43-24.06 5.16-47.84 11.65-71.78 17.37-11.32 2.7-22.77 4.87-34.13 7.41-9.28 2.07-17.68 6.07-24.43 12.84-7.93 7.97-6.06 20.18 4.05 23.72 3.95 1.38 9.24.62 13.42-.73 8.2-2.65 15.81-7.28 24.09-9.51 17.97-4.84 36.07-9.44 54.36-12.78 32.73-5.97 65.55-11.64 98.51-16.15 38.88-5.32 77.92-9.59 116.95-13.71 31.11-3.29 62.48-4.49 93.44-8.7 57.16-7.78 114.56-11.3 172.14-13.32 64.87-2.28 129.77-4.35 194.34-11.71 3.96-.45 7.98-.49 11.97-.57 15.17-.31 28.38 4.95 38.37 16.13 9.73 10.89 18.36 22.77 27.25 34.38 4.31 5.62 8.43 11.21 15.92 12.79 7.73 1.63 12.04-1.87 10.35-9.65-1.31-6.06-3.72-12.14-6.83-17.52-8.81-15.28-18.28-30.17-27.38-45.28-1.88-3.12-3.79-6.36-4.8-9.81-1.42-4.86 1.22-8.32 6.15-9.1 20.04-3.19 40.12-6.15 60.12-9.62 13.44-2.33 26.8-5.18 40.1-8.21 5.87-1.34 11.74-3.45 12.5-10.98.64-6.38-2.97-11.91-10.72-15.03-4.57-1.84-9.52-3.65-14.34-3.77-9.59-.23-19.25.31-28.81 1.28-11.5 1.17-22.81 5.07-35.48 1.71zm-1787.7 149.87c14.15 13.94 32.94 13.25 44.84-1.66 15.46-19.37 33.5-36 52.53-51.68 2.31-1.9 4.79-3.66 6.77-5.87 6.56-7.33 4.26-14.78-5.17-16.96-5.63-1.3-11.3-2.37-16.96-3.54-.32-.87-.64-1.75-.95-2.62 1.2-.55 2.54-.93 3.59-1.69 9.58-6.89 20.2-5.99 30.75-3.74 18.61 3.97 37.35 6.74 56.39 7.05 16.98.28 33.96.24 50.93.49 14.64.22 29.33 1.56 43.91.77 22.58-1.23 45.08-4 67.64-5.84 51.11-4.18 101.1 1.2 149.32 19.16 26.5 9.87 52.68 20.61 78.98 31 49.11 19.4 100.11 32 151.85 41.76 8.64 1.63 17.89 1.13 26.72.21 6.85-.71 13.24-3.95 16.82-10.69-.76-1.16-1.19-2.08-1.84-2.79-8.29-9.04-19.39-11.03-30.8-12.19-23.59-2.4-46.81-6.68-69.25-14.45-38.37-13.27-76.97-25.96-114.87-40.47-43.52-16.65-87.89-28.76-134.49-31.92-38.95-2.64-77.88-2.24-116.72 1.86-23.84 2.51-47.58 5.43-71.69 2.82-40.05-4.33-80.16-8.17-120.28-11.82-19.2-1.75-19.24-1.33-23.58-19.88-.45-1.94-.83-3.91-1.12-5.89-1.54-10.54-2.25-21.27-4.69-31.6-8.63-36.6-17.73-73.08-26.9-109.55-3.74-14.88-12.49-19.02-27.12-13.6-8.94 3.32-9.48 4.06-9.44 13.8.01 3.66-.12 7.36.36 10.98 2.67 20.46 5.78 40.86 8.23 61.34 3.27 27.46 7.35 54.75 13.88 81.65 2.42 9.95 4.2 20.06 6.21 29.8-6.63 5.97-14.35 6.89-21.61 9.19-15.18 4.82-30.14 10.33-45.23 15.45-4.82 1.64-5.91 5.23-4.93 9.49 1.08 4.71 4.95 4.8 8.79 4.12 12.11-2.14 24.23-4.24 36.31-6.59 9.14-1.78 18.15-4.29 27.33-5.75 5.01-.8 10.47-1.92 15.84 1.6-10.61 16.94-21.6 33.2-36.21 46.45-6.73 6.1-10.68 13.33-14.14 21.8z"
          fill="transparent"/>
    <path d="M2033.73 1072.47c12.67 3.36 23.98-.54 35.48-1.71 9.56-.97 19.22-1.51 28.81-1.28 4.82.12 9.77 1.93 14.34 3.77 7.75 3.12 11.36 8.65 10.72 15.03-.75 7.53-6.63 9.64-12.5 10.98-13.3 3.03-26.66 5.88-40.1 8.21-19.99 3.47-40.07 6.43-60.12 9.62-4.93.78-7.57 4.24-6.15 9.1 1.01 3.45 2.92 6.7 4.8 9.81 9.1 15.11 18.56 30.01 27.38 45.28 3.11 5.39 5.52 11.46 6.83 17.52 1.68 7.77-2.62 11.27-10.35 9.65-7.48-1.58-11.61-7.17-15.92-12.79-8.89-11.61-17.53-23.5-27.25-34.38-9.99-11.18-23.2-16.44-38.37-16.13-3.99.08-8.01.12-11.97.57-64.57 7.36-129.47 9.43-194.34 11.71-57.58 2.03-114.97 5.54-172.14 13.32-30.97 4.22-62.33 5.42-93.44 8.7-39.03 4.12-78.07 8.4-116.95 13.71-32.96 4.51-65.78 10.18-98.51 16.15-18.29 3.34-36.39 7.94-54.36 12.78-8.28 2.23-15.89 6.86-24.09 9.51-4.17 1.35-9.47 2.11-13.42.73-10.11-3.54-11.98-15.75-4.05-23.72 6.74-6.77 15.15-10.77 24.43-12.84 11.36-2.53 22.81-4.7 34.13-7.41 23.95-5.72 47.72-12.21 71.78-17.37 15.89-3.4 32.15-5.08 48.26-7.43 14.81-2.17 29.61-4.39 44.46-6.28 26.73-3.4 53.47-6.83 80.26-9.78 47.63-5.25 95.29-10.29 142.97-15.14 13.89-1.41 27.88-1.83 41.81-2.84 13.93-1.01 27.84-2.24 41.77-3.27 6.64-.49 13.29-1.04 19.94-1.06 39.68-.11 79.09-3.17 118.43-8.62 16.04-2.22 32.55-1.09 48.84-1.48 11.96-.28 24 .29 35.85-.99 27.91-3.03 50.21-17.21 67.99-38.16 12.68-14.94 24.09-30.98 35.72-46.78 11.05-15.02 21.5-30.48 32.54-45.5 4.11-5.59 9.12-10.53 13.81-15.69 3.12-3.44 6.98-3.65 10.96-1.85 3.99 1.8 5.81 4.81 5.87 9.46.13 9.48-3.38 17.57-8.59 25.05-11.59 16.63-23.34 33.15-35.03 49.71-4.61 6.53-8.7 13.28-10.52 22.12zM246.03 1222.34c3.46-8.47 7.41-15.7 14.14-21.8 14.61-13.25 25.6-29.51 36.21-46.45-5.37-3.52-10.83-2.4-15.84-1.6-9.18 1.46-18.19 3.97-27.33 5.75-12.07 2.35-24.19 4.45-36.31 6.59-3.84.68-7.71.59-8.79-4.12-.98-4.26.11-7.86 4.93-9.49 15.09-5.13 30.05-10.64 45.23-15.45 7.26-2.3 14.97-3.22 21.61-9.19-2.01-9.74-3.79-19.84-6.21-29.8-6.54-26.9-10.61-54.19-13.88-81.65-2.44-20.48-5.55-40.89-8.23-61.34-.47-3.61-.34-7.31-.36-10.98-.03-9.74.5-10.49 9.44-13.8 14.63-5.43 23.38-1.28 27.12 13.6 9.18 36.46 18.27 72.95 26.9 109.55 2.44 10.33 3.15 21.06 4.69 31.6.29 1.98.66 3.95 1.12 5.89 4.34 18.55 4.38 18.14 23.58 19.88 40.12 3.65 80.23 7.49 120.28 11.82 24.11 2.61 47.85-.31 71.69-2.82 38.84-4.09 77.77-4.5 116.72-1.86 46.6 3.16 90.97 15.27 134.49 31.92 37.9 14.5 76.5 27.19 114.87 40.47 22.44 7.76 45.66 12.05 69.25 14.45 11.41 1.16 22.51 3.15 30.8 12.19.66.71 1.09 1.63 1.84 2.79-3.59 6.74-9.97 9.98-16.82 10.69-8.83.92-18.08 1.42-26.72-.21-51.73-9.76-102.74-22.37-151.85-41.76-26.31-10.39-52.48-21.13-78.98-31-48.23-17.96-98.21-23.33-149.32-19.16-22.56 1.84-45.05 4.61-67.64 5.84-14.58.79-29.27-.55-43.91-.77-16.98-.25-33.96-.2-50.93-.49-19.04-.32-37.78-3.08-56.39-7.05-10.55-2.25-21.17-3.15-30.75 3.74-1.06.76-2.39 1.13-3.59 1.69.32.87.64 1.75.95 2.62 5.65 1.17 11.33 2.24 16.96 3.54 9.43 2.18 11.73 9.63 5.17 16.96-1.98 2.21-4.46 3.97-6.77 5.87-19.04 15.67-37.08 32.31-52.53 51.68-11.9 14.91-30.7 15.59-44.84 1.66z"/>
</svg>