<svg xmlns="http://www.w3.org/2000/svg" width="2351" height="2351">
    <path d="M2351 2351H0V0h2351v2351zm-210.74-1191.7c11.2-9.12 21.08-16.96 30.7-25.12 2.71-2.3 5.21-5.23 6.83-8.37 2.89-5.63 1.05-13.88-3.19-17.49-4.14-3.53-7.26-3.2-14.5 1.14-7.13 4.28-14.38 8.34-21.52 12.59-14.89 8.88-29.76 17.84-39.63 32.75-2.29 3.46-5.41 4.47-9.29 4.75-10.08.72-18.09-4.02-25.49-9.81-5.4-4.23-10.12-4.94-16.16-1.14-17.48 10.99-35.96 20.02-54.98 28.15-19.7 8.42-38.38 7.64-56.05-4.24-13.43-9.02-28.4-12.72-43.94-15.18-15.64-2.48-27.17 3.56-35.47 16.75-7.52 11.96-13.26 24.53-15.17 38.71-1.91 14.18-10.01 23.59-23.27 28.66-2.8 1.07-5.67 1.94-8.48 2.96-7.29 2.64-14.18 2.55-20.97-1.88-5-3.27-10.47-5.82-15.71-8.73-14.26-7.91-24.23-19.38-29.75-34.87-6.1-17.13-16.42-31.92-27.23-46.31-2.21-2.94-5.89-5.62-9.4-6.57-10.25-2.78-20.74-4.75-31.17-6.83-23.25-4.63-41.67 2.67-55.83 21.89-15.93 21.62-36.9 34.25-64.59 33.46-6.99-.2-14.01-.37-20.94-1.16-12.34-1.4-23.56-5.84-30.89-16.28-9.1-12.98-20.17-24.06-32.38-33.77-10.61-8.43-22.36-15.54-34.11-22.38-3.99-2.32-10.18-3.98-14.19-2.58-16.25 5.67-33.18 6.92-49.91 9.57-12.07 1.92-22.96 6.31-31.95 15.09-7.38 7.2-15.42 13.72-22.99 20.74-14.83 13.73-22.02 31.44-25.56 50.82-.62 3.38.02 7.38 1.3 10.61 1.88 4.76 5.04 5.24 9.58 2.36 6.13-3.9 10.69-9.37 12.7-16.2 3.4-11.6 11.05-19.43 20.53-26.12 3.78-2.66 7.64-5.5 10.6-8.99 8.84-10.43 20.21-16.24 33.3-18.63 11.45-2.08 23.13-2.86 34.58-4.93 17.69-3.18 32.32 2.17 44.13 15.18 11.39 12.56 22.48 25.41 33.33 38.45 16.47 19.8 36.28 30.97 62.92 25.9 4.9-.93 9.87-1.53 14.79-2.35 27.97-4.65 49.95-17.62 62.16-44.4 3.4-7.46 9.72-11.87 17.41-13.85 21.92-5.65 41.04-.69 55.95 16.73 5.58 6.52 10.13 14 14.64 21.36 8.86 14.46 16.81 29.5 26.15 43.63 11.21 16.96 27.27 27.17 47.78 29.27 19.92 2.04 36.22-4.57 46.8-22.1 4.62-7.65 8.49-15.87 11.67-24.22 3.3-8.67 5.45-17.79 7.91-26.76 3.07-11.23 8.02-15.32 19.72-16.2 14.61-1.11 28.44 1.28 41.58 8.04 7.98 4.11 16.18 7.85 24.51 11.21 12.64 5.1 25.27 5.25 37.58-1.46 2.32-1.26 4.87-2.1 7.34-3.05 16.75-6.4 33.62-12.24 48.99-22.05 22.59-14.41 49.78-6.75 62.24 16.95 3.36 6.39 4.92 13.72 7.35 20.6 2.75 7.83 5.28 15.75 8.42 23.42 1.96 4.78 5.58 8.71 11.27 8.29 5.61-.42 7.03-5.46 8.61-9.86 2.84-7.94 1.1-15.78-.59-23.63-1.24-5.73-2.39-11.48-3.53-17.01 9.17-3.31 10.15-3.71 16.55-2.23 9.72 2.25 19.3 5.1 29 7.43 8.39 2.01 16.8 4.42 25.33 5.25 10.39 1.01 14.08-3.76 12.48-13.85-1.85-11.68-7.78-19.2-19.88-22.03-8.69-2.03-17.42-4.76-25.41-8.66-10.2-4.98-20.1-10.33-32.59-11.45zM331.87 1344.45c11.7 6.54 18.29 5.03 23.09-6.52 5.08-12.23 9.82-24.73 13.16-37.52 2.75-10.53 3.62-21.62 4.66-32.53 1.25-13.12 8.26-21.53 20.14-25.99a81.766 81.766 0 0117.34-4.43c23.07-3.23 46.19-6.08 69.3-9.05 10.63-1.37 20.55.94 29.69 6.34 4.86 2.87 9.23 6.63 14.2 9.27 5.22 2.77 10.77 5.05 16.39 6.88 6.92 2.26 14.21 3.4 21.07 5.81 8.46 2.97 16.51 7.11 24.96 10.1 26.95 9.52 52.37 7.23 75.51-10.68 2.9-2.24 6.03-4.2 8.78-6.6 26.88-23.57 59.14-32.02 93.88-34.01 31.33-1.8 61.63 3.99 91.8 11.29 11.62 2.81 21.63 8.24 29.91 17 13.65 14.46 30.62 20.71 50.38 19.6 13.63-.77 27.26-1.67 40.89-2.38 21.02-1.1 40.61-6.41 58.24-18.43 6.85-4.68 14.3-8.51 21.61-12.47 21.73-11.73 42.8-24.44 61.56-40.65 2.5-2.16 5.36-4.28 6.87-7.06 1-1.84.66-5.29-.5-7.14-.84-1.34-4.18-2.02-6.07-1.57-2.81.67-5.39 2.49-7.96 4.01-20.31 12.08-40.48 24.4-60.92 36.26-17.39 10.09-35.81 18.07-55.85 20.65-15.16 1.95-30.55 2-45.83 2.98-21.08 1.35-39.75-4.31-57.2-16.59-24.81-17.45-53.25-25.93-83.35-27.08-19.92-.77-40.05-.15-59.88 1.91-29.34 3.05-56.39 11.85-76.97 35.31-15.01 17.11-34.57 21.46-56.43 15.59-9.95-2.67-19.84-5.53-29.81-8.11-24.23-6.27-47.94-13.65-69.04-27.82-7.6-5.11-16.73-7.64-25.72-6.72-20.83 2.13-41.67 4.66-62.27 8.35-15.33 2.75-30.28 7.63-45.43 11.44-18.21 4.57-34.25.2-48.2-12.16-3.74-3.31-7.24-6.89-10.95-10.24-10.06-9.07-21.68-15.39-34.64-19.2-8.71-2.56-14.64.99-16.31 9.5-2.05 10.46 2.78 20.21 12.48 24.79 2.7 1.28 5.67 1.96 8.39 3.19 10.87 4.87 18.29 12.69 21.22 24.14-11.16 11.95-29.45 18.37-26.63 39.84 13.18-2.26 24.47-6.79 35.47-12.3 3.83-1.92 7.81-3.98 11.95-4.76 8.11-1.52 12.23 1.61 12.62 9.71.35 7.27.23 14.68-.74 21.88-2.21 16.23-8.24 31.35-14.84 46.2z"
          fill="transparent"/>
    <path d="M2140.26 1159.3c12.49 1.11 22.39 6.46 32.59 11.45 7.99 3.9 16.72 6.63 25.41 8.66 12.1 2.83 18.03 10.35 19.88 22.03 1.6 10.09-2.09 14.86-12.48 13.85-8.54-.83-16.94-3.24-25.33-5.25-9.7-2.33-19.28-5.17-29-7.43-6.4-1.48-7.38-1.08-16.55 2.23 1.14 5.53 2.29 11.28 3.53 17.01 1.7 7.85 3.44 15.69.59 23.63-1.58 4.4-3 9.44-8.61 9.86-5.69.42-9.31-3.51-11.27-8.29-3.14-7.67-5.67-15.59-8.42-23.42-2.42-6.88-3.99-14.21-7.35-20.6-12.47-23.7-39.65-31.36-62.24-16.95-15.37 9.8-32.24 15.65-48.99 22.05-2.48.95-5.03 1.79-7.34 3.05-12.31 6.7-24.94 6.55-37.58 1.46-8.33-3.36-16.53-7.1-24.51-11.21-13.14-6.76-26.97-9.15-41.58-8.04-11.7.89-16.65 4.98-19.72 16.2-2.45 8.98-4.61 18.09-7.91 26.76-3.18 8.35-7.06 16.57-11.67 24.22-10.58 17.53-26.88 24.14-46.8 22.1-20.51-2.1-36.57-12.31-47.78-29.27-9.34-14.13-17.29-29.17-26.15-43.63-4.51-7.36-9.06-14.84-14.64-21.36-14.91-17.42-34.02-22.38-55.95-16.73-7.68 1.98-14.01 6.4-17.41 13.85-12.21 26.78-34.2 39.75-62.16 44.4-4.93.82-9.89 1.42-14.79 2.35-26.64 5.07-46.44-6.1-62.92-25.9-10.85-13.04-21.93-25.89-33.33-38.45-11.81-13.01-26.43-18.36-44.13-15.18-11.45 2.06-23.13 2.84-34.58 4.93-13.09 2.38-24.46 8.2-33.3 18.63-2.96 3.49-6.82 6.32-10.6 8.99-9.48 6.68-17.13 14.51-20.53 26.12-2 6.83-6.57 12.3-12.7 16.2-4.54 2.88-7.7 2.39-9.58-2.36-1.28-3.23-1.91-7.24-1.3-10.61 3.54-19.38 10.73-37.09 25.56-50.82 7.57-7.01 15.61-13.53 22.99-20.74 8.99-8.78 19.89-13.17 31.95-15.09 16.73-2.66 33.66-3.9 49.91-9.57 4.01-1.4 10.2.26 14.19 2.58 11.75 6.84 23.5 13.94 34.11 22.38 12.21 9.71 23.28 20.79 32.38 33.77 7.32 10.45 18.55 14.89 30.89 16.28 6.94.79 13.95.96 20.94 1.16 27.69.8 48.66-11.84 64.59-33.46 14.16-19.22 32.58-26.52 55.83-21.89 10.43 2.08 20.92 4.05 31.17 6.83 3.51.95 7.19 3.63 9.4 6.57 10.81 14.38 21.13 29.17 27.23 46.31 5.51 15.49 15.49 26.95 29.75 34.87 5.24 2.91 10.7 5.46 15.71 8.73 6.79 4.43 13.68 4.52 20.97 1.88 2.81-1.02 5.69-1.89 8.48-2.96 13.26-5.07 21.36-14.47 23.27-28.66 1.91-14.18 7.65-26.75 15.17-38.71 8.3-13.2 19.83-19.23 35.47-16.75 15.55 2.46 30.51 6.16 43.94 15.18 17.67 11.87 36.35 12.66 56.05 4.24 19.01-8.13 37.5-17.16 54.98-28.15 6.05-3.81 10.76-3.09 16.16 1.14 7.4 5.79 15.41 10.53 25.49 9.81 3.89-.28 7-1.29 9.29-4.75 9.87-14.92 24.74-23.88 39.63-32.75 7.14-4.26 14.4-8.32 21.52-12.59 7.24-4.34 10.36-4.66 14.5-1.14 4.24 3.62 6.08 11.86 3.19 17.49-1.61 3.14-4.11 6.07-6.83 8.37-9.62 8.16-19.5 16-30.7 25.12zM331.88 1344.45c6.6-14.84 12.63-29.97 14.84-46.2.98-7.2 1.1-14.61.74-21.88-.39-8.1-4.51-11.23-12.62-9.71-4.14.77-8.12 2.83-11.95 4.76-11 5.52-22.29 10.04-35.47 12.3-2.81-21.48 15.48-27.89 26.63-39.84-2.93-11.45-10.35-19.27-21.22-24.14-2.73-1.22-5.7-1.91-8.39-3.19-9.69-4.59-14.53-14.33-12.48-24.79 1.67-8.5 7.6-12.05 16.31-9.5 12.96 3.81 24.59 10.12 34.64 19.2 3.71 3.35 7.21 6.92 10.95 10.24 13.95 12.36 29.99 16.73 48.2 12.16 15.15-3.8 30.1-8.69 45.43-11.44 20.6-3.69 41.44-6.23 62.27-8.35 8.99-.92 18.12 1.61 25.72 6.72 21.1 14.17 44.82 21.55 69.04 27.82 9.97 2.58 19.86 5.44 29.81 8.11 21.86 5.86 41.42 1.52 56.43-15.59 20.58-23.47 47.63-32.27 76.97-35.31 19.82-2.06 39.96-2.67 59.88-1.91 30.1 1.16 58.54 9.63 83.35 27.08 17.46 12.28 36.12 17.95 57.2 16.59 15.28-.98 30.68-1.04 45.83-2.98 20.04-2.58 38.47-10.56 55.85-20.65 20.44-11.86 40.61-24.18 60.92-36.26 2.56-1.52 5.14-3.34 7.96-4.01 1.89-.45 5.23.24 6.07 1.57 1.16 1.85 1.5 5.3.5 7.14-1.52 2.78-4.37 4.9-6.87 7.06-18.76 16.21-39.83 28.91-61.56 40.65-7.32 3.95-14.76 7.79-21.61 12.47-17.63 12.03-37.22 17.33-58.24 18.43-13.63.71-27.26 1.61-40.89 2.38-19.76 1.11-36.73-5.14-50.38-19.6-8.28-8.77-18.29-14.19-29.91-17-30.17-7.3-60.47-13.09-91.8-11.29-34.75 1.99-67 10.44-93.88 34.01-2.75 2.41-5.88 4.36-8.78 6.6-23.15 17.91-48.56 20.2-75.51 10.68-8.45-2.99-16.5-7.13-24.96-10.1-6.86-2.41-14.15-3.55-21.07-5.81-5.62-1.83-11.17-4.11-16.39-6.88-4.97-2.64-9.34-6.39-14.2-9.27-9.14-5.41-19.05-7.71-29.69-6.34-23.11 2.98-46.23 5.83-69.3 9.05-5.88.82-11.78 2.34-17.34 4.43-11.88 4.46-18.89 12.87-20.14 25.99-1.04 10.91-1.9 21.99-4.66 32.53-3.34 12.79-8.08 25.29-13.16 37.52-4.8 11.55-11.39 13.06-23.09 6.52z"/>
</svg>