<svg xmlns="http://www.w3.org/2000/svg" width="2351" height="2351">
    <path d="M0 0h2351v2351H0V0zm1271.64 1227.22c3.86-2.64 6.78-4.1 9.03-6.27 16.31-15.67 36.28-24.59 57.58-30.63 23.39-6.63 46.48-13.95 68.71-23.85 26.18-11.66 53.02-21.4 80.96-27.89 34.36-7.98 68.51-8.79 102.4 2.77 7.84 2.67 15.95 4.69 24.08 6.3 35.93 7.12 68.56 21.1 96.39 45.4 9.53 8.32 19.02 16.72 28.89 24.62 16.53 13.22 30.56 28.66 42.75 45.89 8.08 11.41 16 22.96 24.63 33.94 15.34 19.51 33.32 36.28 54.49 49.41 12.42 7.71 25.93 12.75 40.64 11.5 9.11-.77 17.82-.24 26.7 1.37 5.87 1.07 11.88 1.75 17.84 1.85 17.31.31 34.63.33 51.95.29 13.1-.03 25.9-2.32 37.89-7.57 13.69-6 27.37-12.16 40.46-19.33 9.83-5.38 18.38-5.23 28.18-.08 16.77 8.83 34.03 16.73 51.11 24.95 4.7 2.26 9.67 3.35 14.14-.24 5.03-4.04 5.86-9.99 3.97-15.47-1.54-4.48-4.52-8.87-7.95-12.17-4.01-3.87-9.24-6.47-13.85-9.75-1.61-1.15-2.93-2.69-4.38-4.05.28-.66.56-1.32.84-1.97 10.5 1.38 20.98 2.87 31.49 4.11 5.6.66 11.29 1.43 16.88 1.14 6.89-.36 11.23-6 11.77-13.81.46-6.53-2.05-9.9-9.37-11.99-3.19-.91-6.59-1.06-9.8-1.9-6.95-1.84-13.88-3.84-20.79-10 5.97-2.4 10.65-4.92 15.64-6.15 7.09-1.74 14.43-2.41 21.62-3.76 3.57-.67 7.24-1.43 10.54-2.9 5.78-2.57 8.8-9.86 7.16-15.99-1.75-6.57-5.5-9.11-13.66-8.05-16.81 2.18-33.79 3.8-50.31 7.43-18.79 4.13-36.96 11.01-56.22 13.35-1.62.2-3.17.99-4.75 1.51-6.99 2.3-11.1 7.15-12.27 14.34-.75 4.59-1.21 9.24-1.6 13.88-.6 7.23-3.93 12.58-10.46 15.85-10.41 5.21-20.62 10.87-31.28 15.49-22.06 9.56-45.32 13.79-69.23 11.52-23.17-2.21-46.29-5.36-69.27-9.1-28.75-4.67-52.28-18.3-69.93-42.17-14.05-19-29.15-37.23-44.08-55.56-5.02-6.17-10.27-12.52-16.57-17.23-16.38-12.24-30.4-26.88-44.81-41.2-19.08-18.96-41.65-31.82-68.02-37.83-20.43-4.65-40.77-9.54-60.35-17.35-7.94-3.17-16.68-4.47-25.14-6.2-11.73-2.4-23.52-4.49-35.32-6.53-3.21-.56-6.7-1.21-9.78-.54-21.44 4.65-42.92 9.2-64.17 14.63-34.19 8.73-66.57 22.8-99.65 34.81-13.4 4.87-26.88 10.23-40.79 12.83-20.96 3.92-36.84 14.75-49.57 30.92-5.69 7.22-8.34 15.72-5.37 27.41zM87.66 1326.11c3.57 10.65 8.93 13.74 18.84 10.54 16.09-5.2 29.88-14.13 42.49-25.46 12.61-11.32 26.03-21.75 39.33-32.27 6.15-4.87 13.56-7.93 21.37-7.12 16.22 1.7 31.75-2.02 47.56-4.24 51.82-7.28 102.76-18.32 153.34-31.76 42.67-11.34 83.76-26.17 123.11-46.08 10.37-5.24 21.14-9.74 31.87-14.21 9.21-3.83 18.76-6.84 27.94-10.76 16.94-7.23 34.56-11.96 52.59-15.35 31.78-5.98 63.87-9.51 96.11-11.75 17.25-1.2 34.56-4.54 51.69-3.73 28.88 1.38 57.7 4.88 86.43 8.39 8.39 1.02 16.5 4.86 24.58 7.84 9.63 3.55 18.98 7.83 28.64 11.3 23.77 8.53 48.52 14.91 71.29 25.56 38.57 18.04 79.61 30.35 116.86 51.31 6.36 3.58 13.44 3.47 20.4 1.19 4.04-1.32 7.21-3.49 7.83-8.09.55-4.13-1.4-7.03-4.68-9.23-2.21-1.48-4.42-2.97-6.68-4.39a237.066 237.066 0 00-50.38-23.93c-20.22-6.82-39.74-15.11-58.83-24.6-16.41-8.16-33.57-14.03-51.59-18.12-14.47-3.28-28.98-8.22-42.13-15.01-15.96-8.24-32.69-13.08-49.93-16.66-8.74-1.82-17.77-2.65-26.7-3.07-16.63-.8-33.29-1.3-49.94-1.31-15.63 0-31.29.34-46.88 1.32-24.24 1.52-48.45 3.67-72.66 5.64-5.3.43-11.42-.25-15.7 2.17-13.43 7.6-28.42 6.13-42.62 9.05-2.28.47-4.58.84-6.83 1.41-33.95 8.73-66.28 21.99-98.54 35.43-4.58 1.91-8.91 4.54-13.11 7.22-17.83 11.34-37.18 19.26-57.07 26.11-34.4 11.85-69.87 19.07-105.47 26.25-33.31 6.72-66.26 14.5-100.51 15.23-14.56.31-24.69-4.39-32.24-17.04-8.85-14.84-19.04-28.89-28.53-43.36-7.65-11.67-15.12-23.46-22.7-35.19-4.33-6.7-8.58-13.47-13.12-20.03-2.45-3.54-5.99-5.21-10.46-3.95-6.44 1.82-11.7 11.95-9.38 18.41 8.01 22.32 17.18 44.05 32.08 62.88 2.59 3.27 4.69 6.93 7.81 11.59-4.11.47-6.63.93-9.16 1-8.33.23-16.72-.28-24.96.63-7.17.79-14.34 2.63-21.15 5.02-2.46.87-5.14 4.54-5.47 7.22-.47 3.82 3.25 5.14 6.81 5.77 10.49 1.85 20.95 3.81 31.41 5.81 9.76 1.86 19.77 2.94 29.71 8.97-5.12 4.85-9.77 9.45-14.63 13.82-5.43 4.9-11.53 9.15-16.49 14.48-15.38 16.54-33.25 29.67-53.07 40.3-2.9 1.55-5.71 3.26-8.47 4.85z"
          fill="transparent"/>
    <path d="M1271.64 1227.22c-2.97-11.7-.32-20.19 5.37-27.41 12.73-16.17 28.61-27 49.57-30.92 13.92-2.6 27.39-7.97 40.79-12.83 33.08-12.01 65.46-26.08 99.65-34.81 21.25-5.43 42.73-9.97 64.17-14.63 3.08-.67 6.57-.02 9.78.54 11.8 2.04 23.59 4.13 35.32 6.53 8.46 1.73 17.2 3.03 25.14 6.2 19.58 7.81 39.92 12.7 60.35 17.35 26.37 6.01 48.94 18.87 68.02 37.83 14.41 14.32 28.43 28.96 44.81 41.2 6.3 4.71 11.55 11.06 16.57 17.23 14.92 18.33 30.03 36.56 44.08 55.56 17.65 23.87 41.18 37.5 69.93 42.17 22.98 3.73 46.1 6.89 69.27 9.1 23.91 2.28 47.17-1.95 69.23-11.52 10.66-4.62 20.87-10.29 31.28-15.49 6.53-3.27 9.85-8.62 10.46-15.85.39-4.64.85-9.29 1.6-13.88 1.17-7.19 5.28-12.04 12.27-14.34 1.58-.52 3.13-1.31 4.75-1.51 19.26-2.34 37.43-9.22 56.22-13.35 16.52-3.63 33.49-5.25 50.31-7.43 8.16-1.06 11.91 1.47 13.66 8.05 1.64 6.13-1.38 13.42-7.16 15.99-3.29 1.46-6.96 2.22-10.54 2.9-7.19 1.35-14.53 2.03-21.62 3.76-4.99 1.22-9.67 3.74-15.64 6.15 6.91 6.16 13.84 8.16 20.79 10 3.21.85 6.61 1 9.8 1.9 7.32 2.09 9.82 5.46 9.37 11.99-.55 7.81-4.88 13.44-11.77 13.81-5.59.3-11.28-.48-16.88-1.14-10.51-1.23-21-2.72-31.49-4.11-.28.66-.56 1.32-.84 1.97 1.45 1.36 2.77 2.91 4.38 4.05 4.61 3.28 9.84 5.88 13.85 9.75 3.43 3.31 6.41 7.7 7.95 12.17 1.89 5.48 1.05 11.44-3.97 15.47-4.47 3.59-9.44 2.51-14.14.24-17.08-8.22-34.34-16.12-51.11-24.95-9.8-5.16-18.35-5.31-28.18.08-13.09 7.17-26.77 13.33-40.46 19.33-11.99 5.26-24.79 7.54-37.89 7.57-17.32.04-34.63.02-51.95-.29-5.96-.11-11.97-.79-17.84-1.85-8.88-1.61-17.59-2.15-26.7-1.37-14.71 1.24-28.21-3.8-40.64-11.5-21.17-13.13-39.15-29.9-54.49-49.41-8.63-10.98-16.55-22.53-24.63-33.94-12.19-17.23-26.23-32.67-42.75-45.89-9.88-7.9-19.36-16.3-28.89-24.62-27.83-24.3-60.46-38.27-96.39-45.4-8.13-1.61-16.25-3.63-24.08-6.3-33.89-11.56-68.04-10.74-102.4-2.77-27.95 6.49-54.79 16.24-80.96 27.89-22.23 9.9-45.32 17.22-68.71 23.85-21.3 6.04-41.27 14.95-57.58 30.63-2.25 2.16-5.17 3.62-9.03 6.27zM87.66 1326.11c2.76-1.59 5.57-3.3 8.47-4.85 19.82-10.63 37.69-23.75 53.07-40.3 4.95-5.33 11.05-9.58 16.49-14.48 4.85-4.38 9.51-8.97 14.63-13.82-9.94-6.03-19.94-7.1-29.71-8.97-10.46-2-20.93-3.96-31.41-5.81-3.56-.63-7.28-1.95-6.81-5.77.33-2.67 3.01-6.35 5.47-7.22 6.81-2.4 13.98-4.23 21.15-5.02 8.24-.91 16.64-.4 24.96-.63 2.53-.07 5.05-.54 9.16-1-3.11-4.66-5.22-8.31-7.81-11.59-14.9-18.83-24.07-40.56-32.08-62.88-2.32-6.46 2.94-16.59 9.38-18.41 4.47-1.26 8.01.41 10.46 3.95 4.54 6.56 8.79 13.32 13.12 20.03 7.58 11.72 15.04 23.52 22.7 35.19 9.49 14.47 19.68 28.52 28.53 43.36 7.55 12.65 17.67 17.35 32.24 17.04 34.24-.72 67.2-8.5 100.51-15.23 35.6-7.18 71.07-14.4 105.47-26.25 19.89-6.85 39.24-14.78 57.07-26.11 4.21-2.67 8.53-5.31 13.11-7.22 32.26-13.44 64.58-26.71 98.54-35.43 2.25-.58 4.56-.94 6.83-1.41 14.2-2.92 29.19-1.45 42.62-9.05 4.28-2.42 10.4-1.73 15.7-2.17 24.21-1.97 48.42-4.12 72.66-5.64 15.6-.98 31.25-1.33 46.88-1.32 16.65 0 33.31.51 49.94 1.31 8.94.43 17.96 1.26 26.7 3.07 17.24 3.58 33.97 8.42 49.93 16.66 13.15 6.79 27.66 11.73 42.13 15.01 18.02 4.09 35.18 9.96 51.59 18.12 19.09 9.49 38.61 17.78 58.83 24.6a237.066 237.066 0 0150.38 23.93c2.25 1.42 4.46 2.91 6.68 4.39 3.28 2.2 5.23 5.1 4.68 9.23-.61 4.6-3.79 6.76-7.83 8.09-6.96 2.28-14.04 2.39-20.4-1.19-37.25-20.96-78.29-33.28-116.86-51.31-22.77-10.65-47.52-17.02-71.29-25.56-9.65-3.46-19.01-7.75-28.64-11.3-8.08-2.97-16.18-6.82-24.58-7.84-28.73-3.51-57.55-7.01-86.43-8.39-17.13-.82-34.44 2.53-51.69 3.73-32.25 2.24-64.33 5.77-96.11 11.75-18.02 3.39-35.65 8.12-52.59 15.35-9.17 3.91-18.73 6.92-27.94 10.76-10.74 4.47-21.5 8.96-31.87 14.21-39.36 19.9-80.45 34.74-123.11 46.08-50.58 13.44-101.53 24.48-153.34 31.76-15.81 2.22-31.34 5.94-47.56 4.24-7.81-.82-15.22 2.25-21.37 7.12-13.3 10.53-26.73 20.95-39.33 32.27-12.61 11.33-26.4 20.26-42.49 25.46-9.91 3.2-15.27.11-18.84-10.54z"/>
</svg>