<svg xmlns="http://www.w3.org/2000/svg" width="2351" height="2351">
    <path d="M0 0h2351v2351H0V0zm2039.81 1242.64c-8.78-17.01-16.67-31.97-24.26-47.08-9.22-18.34-23.25-29.46-44.27-30.88-14.95-1.01-29.85-2.59-44.81-3.51-27.63-1.7-55.16-3.69-81.41-13.73-4.24-1.62-9.15-2.13-13.74-2.08-34.28.32-68.56.81-102.84 1.44-31.61.58-63.21 1.36-94.81 2.14-3.96.1-7.9.88-11.87 1.17-10.9.77-21.83 2.29-32.69 1.93-10.58-.35-21.13-2.48-31.64-4.18-9.17-1.49-17.8-.79-26.19 3.57-5.29 2.75-10.88 5.05-16.52 7-20.47 7.07-41.64 8.26-63.05 7.01-31.57-1.84-63.14-3.9-94.72-5.57-7.27-.38-14.64.15-21.91.82-2.77.26-5.77 1.59-8.01 3.29-5.71 4.37-8.62 10.55-6.99 17.59 1.89 8.17 8.14 12.79 15.99 14.77 5.46 1.38 11.16 1.82 16.74 2.76 25.28 4.25 50.55 8.6 76.29 9.05 14.3.25 28.71-.46 42.86 1.12 31.62 3.53 63.12 3.53 94.64-.35 43.91-5.4 87.72-11.61 131.69-16.42 41.45-4.54 83.11-5.65 124.64-1.13 26.12 2.85 52.07 7.22 78.1 10.91 22.73 3.22 45.46 6.48 68.2 9.63 8.96 1.24 15.41 6.27 19.85 13.67 2.34 3.89 3.44 8.56 4.86 12.96 5.29 16.33 4.4 32.14-4.52 47.09-6.96 11.68-12.96 23.92-23.24 33.46-5.83 5.41-6.38 16.08-1.97 20.91 12.58 13.78 27.34 22.03 46.9 17.8 24.03-5.21 48.16-9.92 72.13-15.39 24.38-5.56 48.65-11.37 73.95-7.51 1.64.25 3.33.26 4.99.23 37.25-.59 74.52-3.93 111.73.81 4.51.57 7.68-1.48 10.35-4.71 5.4-6.54 5.51-15.22.59-22.19-4.74-6.72-11.42-9.87-19.25-11.28-18.44-3.32-37.01-4.42-55.69-3.04-13.33.99-26.5 1.3-39.62-2.54-6.31-1.85-13.11-2.21-19.74-2.74-10.29-.82-20.61-1.18-30.91-1.77-13.94-.79-21.78-7.21-25.71-20.71-1.67-5.73-3.5-11.42-5.54-17.02-6.2-17.02-11.35-19.06-28.67-12.63-6.42 2.38-13.28 3.59-19.9 5.33zm-892.74-68.83c-6.45-4.03-13.37-5.9-20.89-5.85-4.65.03-9.32-.06-13.96-.37-25.73-1.73-50.53-8.15-75.18-15.21-13.69-3.92-27.35-4.88-41.31-1.22-26.91 7.05-54.17 7.11-80.91.3-20.93-5.33-41.75-7.18-63.17-6.06-46.78 2.44-93.03-2.09-138.76-11.96-47.51-10.26-94.88-20.92-141.14-36.24-40.6-13.44-83.16-13.78-125.38-15.68-6.4-.29-11.6 2.52-15.9 7.08-3.65 3.87-7.05 8.01-10.88 11.69-4.24 4.08-6.5 4.07-11.25.47-8.45-6.39-16.82-12.89-25.25-19.33-11.11-8.49-24.61-7.71-35.7 1.03-6.88 5.42-12.34 11.77-17.6 18.68-8.39 11.01-16.44 13.22-28.84 7.54-10.21-4.67-19.64-11.02-29.64-16.19-7.32-3.79-14.75-7.69-22.58-10.05-8.17-2.46-17.83 3.17-21.48 10.85-3.81 8.03-2.23 14.87 4.9 21.4 5.16 4.72 10.04 9.78 15.51 14.12 6.2 4.92 12.64 9.66 19.45 13.66 18.02 10.6 36.61 20.25 54.4 31.2 26.07 16.06 52.79 30.81 80.88 42.96 6.65 2.88 13.85 4.89 21 6.11 11.1 1.9 20.45-4.69 22.76-15.7 4.5-21.47 9.99-42.8 10.31-64.95.03-2.29.64-4.61 1.2-6.86 2.16-8.68 6.33-12.36 15.09-13.24 2.31-.23 4.68-.36 6.98-.1 19.46 2.22 39.08 3.62 58.31 7.12 15.65 2.85 30.72 8.73 46.25 12.4 36.27 8.57 72.62 16.84 109.02 24.83 54.15 11.89 109.12 16.22 164.45 16.85 24.99.29 49.79 2.69 74.41 7.11 4.21.76 8.6 1.13 12.86.85 33.66-2.21 67.13 0 100.59 3.51 30.76 3.23 61.19 9.61 92.27 9.88 2.88.03 5.76 0 9.19 0v-30.64z"
          fill="transparent"/>
    <path d="M2039.81 1242.64c6.62-1.74 13.48-2.95 19.9-5.33 17.32-6.43 22.47-4.39 28.67 12.63 2.04 5.6 3.87 11.3 5.54 17.02 3.93 13.5 11.78 19.92 25.71 20.71 10.31.59 20.63.95 30.91 1.77 6.62.53 13.43.89 19.74 2.74 13.11 3.84 26.29 3.53 39.62 2.54 18.69-1.39 37.25-.29 55.69 3.04 7.83 1.41 14.51 4.56 19.25 11.28 4.92 6.98 4.81 15.65-.59 22.19-2.67 3.23-5.84 5.28-10.35 4.71-37.21-4.74-74.48-1.4-111.73-.81-1.66.03-3.35.02-4.99-.23-25.3-3.86-49.57 1.95-73.95 7.51-23.97 5.46-48.1 10.18-72.13 15.39-19.56 4.24-34.32-4.01-46.9-17.8-4.41-4.83-3.86-15.51 1.97-20.91 10.28-9.54 16.28-21.78 23.24-33.46 8.92-14.96 9.81-30.76 4.52-47.09-1.42-4.4-2.52-9.07-4.86-12.96-4.44-7.4-10.89-12.43-19.85-13.67-22.74-3.15-45.47-6.41-68.2-9.63-26.03-3.69-51.98-8.06-78.1-10.91-41.53-4.53-83.2-3.41-124.64 1.13-43.97 4.81-87.78 11.03-131.69 16.42-31.51 3.87-63.02 3.87-94.64.35-14.15-1.58-28.56-.87-42.86-1.12-25.74-.46-51.01-4.8-76.29-9.05-5.58-.94-11.27-1.38-16.74-2.76-7.85-1.98-14.1-6.61-15.99-14.77-1.63-7.03 1.28-13.22 6.99-17.59 2.23-1.71 5.24-3.04 8.01-3.29 7.27-.67 14.63-1.21 21.91-.82 31.58 1.67 63.15 3.72 94.72 5.57 21.41 1.25 42.59.06 63.05-7.01 5.65-1.95 11.23-4.25 16.52-7 8.39-4.36 17.02-5.06 26.19-3.57 10.5 1.71 21.05 3.83 31.64 4.18 10.86.36 21.79-1.15 32.69-1.93 3.96-.28 7.9-1.07 11.87-1.17 31.6-.79 63.21-1.57 94.81-2.14 34.28-.63 68.56-1.12 102.84-1.44 4.59-.04 9.5.46 13.74 2.08 26.25 10.04 53.78 12.03 81.41 13.73 14.95.92 29.86 2.5 44.81 3.51 21.02 1.42 35.05 12.54 44.27 30.88 7.6 15.11 15.48 30.08 24.26 47.08zM1147.07 1173.81v30.64c-3.43 0-6.31.02-9.19 0-31.08-.27-61.51-6.65-92.27-9.88-33.46-3.51-66.93-5.72-100.59-3.51-4.26.28-8.65-.1-12.86-.85-24.61-4.42-49.41-6.82-74.41-7.11-55.33-.63-110.29-4.96-164.45-16.85-36.4-7.99-72.75-16.26-109.02-24.83-15.53-3.67-30.6-9.56-46.25-12.4-19.23-3.5-38.85-4.9-58.31-7.12-2.29-.26-4.67-.13-6.98.1-8.75.88-12.93 4.56-15.09 13.24-.56 2.25-1.16 4.57-1.2 6.86-.32 22.15-5.81 43.48-10.31 64.95-2.31 11.02-11.66 17.61-22.76 15.7-7.15-1.23-14.35-3.23-21-6.11-28.09-12.16-54.81-26.91-80.88-42.96-17.79-10.96-36.38-20.61-54.4-31.2-6.81-4.01-13.25-8.74-19.45-13.66-5.46-4.33-10.35-9.4-15.51-14.12-7.13-6.53-8.71-13.37-4.9-21.4 3.64-7.68 13.31-13.31 21.48-10.85 7.83 2.36 15.26 6.27 22.58 10.05 10 5.18 19.43 11.52 29.64 16.19 12.41 5.68 20.45 3.47 28.84-7.54 5.26-6.9 10.72-13.25 17.6-18.68 11.09-8.74 24.59-9.52 35.7-1.03 8.42 6.43 16.79 12.93 25.25 19.33 4.75 3.59 7.01 3.61 11.25-.47 3.83-3.69 7.23-7.82 10.88-11.69 4.3-4.56 9.5-7.37 15.9-7.08 42.21 1.9 84.78 2.24 125.38 15.68 46.27 15.32 93.64 25.98 141.14 36.24 45.73 9.87 91.98 14.4 138.76 11.96 21.42-1.12 42.24.73 63.17 6.06 26.74 6.81 54.01 6.76 80.91-.3 13.97-3.66 27.62-2.7 41.31 1.22 24.65 7.06 49.45 13.48 75.18 15.21 4.64.31 9.31.4 13.96.37 7.52-.05 14.44 1.83 20.89 5.85z"/>
</svg>