<svg xmlns="http://www.w3.org/2000/svg" width="2351" height="2351">
    <path d="M0 0h2351v2351H0V0zm428.83 827.7c-17.72-1.62-30.07-10.18-41.53-20.73-11.75-10.81-23.72-21.38-35.72-31.91-6.7-5.89-13.69-5.6-19.08 1.2-14.08 17.75-16.71 45.84 7.9 60.51 14.85 8.85 28.92 19.02 43.6 28.18 14.16 8.83 28.79 17.05 45.66 19.31 15.08 2.01 27.53 9.72 39.94 17.4 4 2.48 7.1 6.9 9.71 11.01 3.17 4.96 1.58 8.23-4.37 9.11-4.53.67-9.47.95-13.84-.14-8.98-2.23-18.26-4.4-26.41-8.56-14.49-7.41-28.4-16.02-42.23-24.65-8.95-5.58-18.15-7.14-27.47-2.58-7.07 3.46-13.62 8.16-19.94 12.92-8.05 6.07-11.15 14.59-10.3 24.63 2.12 24.95-2.77 48.99-9.25 72.89-1.81 6.67-2.72 13.71-3.09 20.63-1.05 19.35 6.69 22.83 24.79 20.27.65-.09 1.28-.34 1.91-.56 10.63-3.73 21.68-6.58 31.79-11.4 20.33-9.7 40.02-20.74 60.22-30.72 14.83-7.33 29.93-14.14 45.13-20.67 22.23-9.54 44.73-18.48 66.95-28.04 3.85-1.66 6.95-1.27 10.47-.04 18.36 6.41 35 16.12 51.36 26.43 20.56 12.95 40.96 26.17 61.87 38.54 15.16 8.97 31.06 16.68 46.56 25.1 21.41 11.63 41.03 25.95 60.73 40.21 24.81 17.96 50.35 34.89 75.12 52.9 8.81 6.4 17.01 14.01 24.19 22.2 12.74 14.56 26.03 28.52 41.23 40.41 36.43 28.51 73.03 56.81 109.86 84.79 21.53 16.35 45.35 29.05 69.2 41.66 5.09 2.69 9.75 3.1 15.27 1.42 9.25-2.82 15.62-8.68 19.78-17.05 5.2-10.46 2.97-20.43-6.2-27.57-21.02-16.34-42.13-32.52-65.11-46.19-35.35-21.03-67.17-46.58-95.94-76.06-42.22-43.27-88.31-81.93-140.06-113.42-27-16.43-54.69-31.72-81.87-47.86-21.46-12.75-42.59-26.05-63.91-39.02-15.9-9.68-31.83-19.3-47.84-28.8-10.57-6.28-21.17-12.52-31.98-18.36-9.1-4.91-12.9-12.66-11.56-23.11 1.31-10.19 2.32-20.48 2.44-30.74.11-9.62-.78-19.3-1.82-28.89-3.16-29.11-6.87-58.17-9.78-87.31-.96-9.6-5.23-17.27-11.55-23.59-7.7-7.69-17.52-9.69-27.6-4.94-6.5 3.06-12.58 7.1-18.55 11.14-19.53 13.21-39.39 25.99-58.21 40.16-14.79 11.14-28.18 24.14-42.26 36.23-6.97 5.98-6.75 13.23-3.92 20.89 1.48 4 3.48 7.81 5.73 12.77zm1062.72 437.45c14.2.4 31.44.08 47.99-6.29 9.62-3.71 19.38-7.06 29.09-10.54 14.7-5.27 29.48-10.34 44.1-15.83 11.51-4.33 22.74-9.4 34.25-13.72 25.63-9.62 52.02-16.19 79.29-19.24 10.9-1.22 22.08-2.42 31.34-9.06 13.1-9.39 27.62-15.91 42.23-22.44 16.13-7.2 31.87-15.1 43.52-29.24 2.13-2.59 6.04-3.97 9.39-5.27 17.68-6.84 35.43-13.47 53.17-20.16 29.95-11.3 58.81-24.87 86.48-41 16.58-9.66 33.5-9.68 50.43-.99 6.78 3.48 13.12 7.83 19.96 11.14 18.32 8.86 33.3 21.76 45.54 37.76 6.77 8.84 13.76 16.68 24.57 20.93 4.85 1.91 8.7 3.05 12.85-.34 4.23-3.45 4.47-8.11 2.76-12.75-5.23-14.19-12.3-27.29-24.3-37.03-6.95-5.64-14.15-10.97-21.11-16.6-8.24-6.67-16.81-13.02-24.38-20.38-12.12-11.78-10.33-27.64 3.57-37.44 11.52-8.12 24.2-13.89 37.53-18.36 13.86-4.65 27.77-9.23 41.45-14.39 22.08-8.33 43.98-16.95 67.02-22.64 17.41-4.3 24.4-21.86 17.3-35.87-7.95-15.69-25.99-22.85-42.33-16.56-6.2 2.39-12.23 5.25-18.35 7.84-16.01 6.78-32.35 12.02-49.96 13.04-7.22.42-14.43 2.4-21.47 4.32-15.72 4.29-29.09 12.87-41.18 23.61-7.68 6.83-16.76 10.82-26.83 12.34-9.34 1.4-14.51-2.8-15.41-12.11-.81-8.28-1.55-16.56-2.19-24.85-1.79-23.18-3.91-46.35-5.11-69.57-.69-13.37-2.12-16.7-14.26-22.04-8.89-3.91-17.92-.55-21.18 8.52-2.69 7.49-4.71 15.23-6.66 22.96-2.33 9.23-1.45 18.34.85 27.61 2.88 11.58 5.28 23.35 6.86 35.17 2.86 21.4 2.96 43.14 8.5 64.24 2.77 10.58-1.13 18.94-10.98 24.33-7.85 4.3-16.07 8.08-24.47 11.18-54.74 20.23-107.5 44.58-158.42 73.19-36.72 20.63-75.78 35.67-117.56 43.03-10.78 1.9-21.54 4.5-31.9 8-22.36 7.55-44.44 15.94-66.66 23.9-28.26 10.12-57.25 17.48-86.92 21.92-20.05 3-40.27 4.91-60.31 7.98-25.1 3.85-49.31 10.98-72.31 21.95-8.39 4-16.59 8.72-25.4 11.41-10.19 3.11-17.52 8.9-23.43 17.39-4.92 7.07-10.51 13.66-15.42 20.73-2.05 2.94-3.53 6.44-4.57 9.89-3.99 13.27 7.19 26.31 20.64 23.91 6.52-1.17 13.21-2.52 19.21-5.19 16.41-7.29 33.09-14.3 48.58-23.28 31.56-18.27 65.62-24.88 104.61-25.11z"
          fill="transparent"/>
    <path d="M428.83 827.7c-2.25-4.96-4.25-8.77-5.73-12.77-2.83-7.66-3.05-14.91 3.92-20.89 14.08-12.09 27.47-25.08 42.26-36.23 18.81-14.17 38.68-26.95 58.21-40.16 5.97-4.04 12.06-8.08 18.55-11.14 10.09-4.76 19.91-2.75 27.6 4.94 6.33 6.32 10.59 13.99 11.55 23.59 2.91 29.14 6.63 58.19 9.78 87.31 1.04 9.59 1.93 19.27 1.82 28.89-.12 10.26-1.13 20.55-2.44 30.74-1.34 10.45 2.47 18.19 11.56 23.11 10.81 5.84 21.41 12.08 31.98 18.36 16 9.5 31.94 19.13 47.84 28.8 21.32 12.98 42.45 26.28 63.91 39.02 27.18 16.14 54.87 31.43 81.87 47.86 51.75 31.48 97.84 70.15 140.06 113.42 28.77 29.49 60.58 55.04 95.94 76.06 22.98 13.66 44.09 29.84 65.11 46.19 9.18 7.13 11.41 17.11 6.2 27.57-4.16 8.36-10.53 14.23-19.78 17.05-5.51 1.68-10.17 1.27-15.27-1.42-23.85-12.6-47.68-25.31-69.2-41.66-36.84-27.98-73.43-56.29-109.86-84.79-15.2-11.9-28.49-25.86-41.23-40.41-7.18-8.2-15.38-15.8-24.19-22.2-24.77-18.01-50.32-34.94-75.12-52.9-19.7-14.26-39.32-28.58-60.73-40.21-15.49-8.41-31.4-16.12-46.56-25.1-20.9-12.37-41.31-25.58-61.87-38.54-16.36-10.31-33-20.02-51.36-26.43-3.52-1.23-6.61-1.62-10.47.04-22.22 9.57-44.72 18.5-66.95 28.04-15.2 6.53-30.3 13.34-45.13 20.67-20.2 9.98-39.89 21.02-60.22 30.72-10.11 4.82-21.16 7.67-31.79 11.4-.63.22-1.26.47-1.91.56-18.1 2.55-25.84-.92-24.79-20.27.37-6.92 1.29-13.95 3.09-20.63 6.48-23.9 11.37-47.93 9.25-72.89-.85-10.04 2.25-18.55 10.3-24.63 6.31-4.77 12.87-9.46 19.94-12.92 9.32-4.57 18.52-3.01 27.47 2.58 13.83 8.63 27.74 17.24 42.23 24.65 8.15 4.17 17.43 6.33 26.41 8.56 4.37 1.09 9.31.81 13.84.14 5.95-.88 7.54-4.14 4.37-9.11-2.62-4.1-5.71-8.53-9.71-11.01-12.41-7.68-24.86-15.39-39.94-17.4-16.87-2.25-31.5-10.48-45.66-19.31-14.68-9.15-28.75-19.32-43.6-28.18-24.6-14.67-21.98-42.76-7.9-60.51 5.39-6.8 12.38-7.08 19.08-1.2 12 10.53 23.98 21.1 35.72 31.91 11.46 10.55 23.81 19.1 41.53 20.73zm115.4 18.33c.29-1.9.73-3.16.63-4.37-1.14-13.94-1.97-27.92-3.73-41.78-.82-6.48-2.66-13.13-5.51-18.98-4.34-8.91-14.38-11.89-22.93-6.89-4.7 2.75-9 6.92-12.08 11.42-1.93 2.82-2.48 7.77-1.53 11.17 6.15 21.95 20.24 37.61 40.16 48.24 1.33.71 3.01.74 4.99 1.2zM392.3 979.76c6.2-.8 12.51-4.09 16.86-10.42 3.48-5.06 2.79-9.88-1.45-14.3-7.1-7.39-20.39-6.67-26.13 1.79-3.51 5.17-4.25 10.93-.97 16.82 2.31 4.13 5.43 6.54 11.69 6.12zM1491.55 1265.15c-38.99.23-73.05 6.84-104.61 25.11-15.5 8.97-32.17 15.98-48.58 23.28-5.99 2.66-12.69 4.02-19.21 5.19-13.45 2.41-24.63-10.64-20.64-23.91 1.04-3.45 2.52-6.95 4.57-9.89 4.92-7.07 10.51-13.66 15.42-20.73 5.91-8.49 13.24-14.28 23.43-17.39 8.81-2.69 17.01-7.41 25.4-11.41 23-10.97 47.2-18.1 72.31-21.95 20.04-3.08 40.26-4.98 60.31-7.98 29.67-4.44 58.66-11.8 86.92-21.92 22.22-7.96 44.3-16.35 66.66-23.9 10.36-3.5 21.12-6.1 31.9-8 41.78-7.36 80.84-22.4 117.56-43.03 50.92-28.61 103.68-52.96 158.42-73.19 8.39-3.1 16.62-6.89 24.47-11.18 9.85-5.39 13.75-13.75 10.98-24.33-5.54-21.1-5.64-42.84-8.5-64.24-1.58-11.82-3.99-23.59-6.86-35.17-2.3-9.27-3.19-18.37-.85-27.61 1.95-7.72 3.97-15.47 6.66-22.96 3.26-9.07 12.28-12.43 21.18-8.52 12.15 5.34 13.57 8.67 14.26 22.04 1.2 23.22 3.32 46.38 5.11 69.57.64 8.29 1.38 16.58 2.19 24.85.91 9.31 6.08 13.51 15.41 12.11 10.08-1.51 19.15-5.51 26.83-12.34 12.09-10.74 25.45-19.32 41.18-23.61 7.04-1.92 14.25-3.9 21.47-4.32 17.6-1.02 33.94-6.26 49.96-13.04 6.13-2.59 12.15-5.45 18.35-7.84 16.34-6.3 34.38.86 42.33 16.56 7.1 14.01.11 31.57-17.3 35.87-23.04 5.69-44.94 14.31-67.02 22.64-13.68 5.16-27.58 9.74-41.45 14.39-13.33 4.47-26.01 10.24-37.53 18.36-13.89 9.8-15.69 25.66-3.57 37.44 7.57 7.36 16.14 13.72 24.38 20.38 6.96 5.63 14.16 10.95 21.11 16.6 12.01 9.75 19.07 22.84 24.3 37.03 1.71 4.63 1.47 9.29-2.76 12.75-4.15 3.39-7.99 2.24-12.85.34-10.81-4.25-17.8-12.09-24.57-20.93-12.24-15.99-27.22-28.89-45.54-37.76-6.85-3.31-13.19-7.66-19.96-11.14-16.93-8.7-33.85-8.67-50.43.99-27.67 16.12-56.53 29.7-86.48 41-17.73 6.69-35.49 13.33-53.17 20.16-3.34 1.29-7.25 2.68-9.39 5.27-11.65 14.13-27.39 22.04-43.52 29.24-14.61 6.52-29.12 13.04-42.23 22.44-9.26 6.64-20.44 7.83-31.34 9.06-27.27 3.05-53.65 9.63-79.29 19.24-11.51 4.32-22.74 9.4-34.25 13.72-14.62 5.49-29.4 10.56-44.1 15.83-9.71 3.48-19.47 6.84-29.09 10.54-16.55 6.37-33.79 6.69-47.99 6.29z"/>
    <path d="M544.23 846.02c-1.98-.46-3.66-.49-4.99-1.2-19.92-10.63-34-26.29-40.16-48.24-.95-3.4-.4-8.35 1.53-11.17 3.08-4.5 7.38-8.67 12.08-11.42 8.55-5 18.59-2.02 22.93 6.89 2.85 5.85 4.68 12.5 5.51 18.98 1.76 13.86 2.59 27.85 3.73 41.78.1 1.22-.34 2.48-.63 4.37zM392.3 979.75c-6.25.43-9.38-1.98-11.69-6.12-3.28-5.89-2.54-11.64.97-16.82 5.74-8.46 19.03-9.18 26.13-1.79 4.24 4.41 4.93 9.24 1.45 14.3-4.35 6.33-10.66 9.63-16.86 10.42z"
          fill="transparent"/>
</svg>