<svg xmlns="http://www.w3.org/2000/svg" width="2351" height="2351">
    <path d="M0 0h2351v2351H0V0zm1966.77 1650.72c-8.23 4.02-15.69 7.67-23.16 11.32-20.75 10.16-39.6 23.2-57.45 37.79-6.17 5.05-10.28 11.23-11.45 19.25-1.37 9.37 4.19 14.07 12.93 10.63 3.69-1.45 7.29-3.26 10.7-5.3 17.71-10.6 35.22-21.55 53.06-31.94 13.61-7.92 21.58-4.98 29.02 9.07 5.99 11.32 5.28 23.09 3.68 35.09-.97 7.24-1.74 14.51-2.61 21.77-.39 3.25.12 6.15 3.71 7.19 3.78 1.1 7.31.82 9.44-3.22 2.17-4.12 4.73-8.09 6.41-12.41 4.93-12.7 9.62-25.5 14.17-38.35 2.16-6.1 4.44-11.99 10.83-14.84 12.5-5.57 25.13-10.63 39.21-10.31 4.32.1 8.67-.13 12.97-.58 3.9-.41 8.13-.55 9.62-5.51 1.46-4.86-.5-8.32-3.96-11.46-6.59-5.97-14.65-7.91-23.1-7.84-13.31.1-26.64.47-39.91 1.38-16.37 1.11-22.55-3.83-23.81-20.22-.13-1.66.05-3.34-.06-4.99-.81-11.93-.83-23.99-2.63-35.78-7.33-48.03-15.88-95.84-30.97-142.18-9.61-29.49-20.11-58.78-38.42-84.16-10.88-15.07-23.64-28.79-35.69-43-26.05-30.73-51.98-61.53-81.22-89.43-35.04-33.43-74.71-55.93-124.08-59.84-33.84-2.68-67.61-5.76-101.6-4.67-16.67.53-33.27 1-49.45-4.41-4.67-1.56-9.77-1.96-14.72-2.58-15.16-1.9-30.36-3.52-45.52-5.48-23.08-2.98-45.11-.81-65.37 11.88-3.61 2.26-7.86 3.61-11.94 4.98-11.35 3.82-22.81 7.31-34.14 11.19-5.65 1.93-11.29 4.07-16.6 6.77-7.2 3.66-11.79 9.7-13.18 17.8-1.51 8.84 5.32 14.95 13.98 12.55 1.91-.53 3.66-1.59 5.51-2.34 19.74-7.99 39.3-16.5 59.33-23.7 9.24-3.32 19.35-4.54 29.18-5.82 7.16-.93 9.68 3.56 6.22 9.91-1.59 2.91-4 5.43-5.22 8.45-1.84 4.54-1.44 9.27 1.71 13.23 3.05 3.84 7.18 2.97 10.98 1.47 24.62-9.69 50.54-14.17 76.3-19.3 18.36-3.66 35.36-1.16 51.68 9 12.08 7.52 25.14 13.75 38.38 19.02 14.49 5.77 28.15 3 39.29-8.71 2.53-2.65 4.92-5.44 7.51-8.02 5.78-5.77 12.62-8.41 20.87-6.87 5.23.98 10.51 1.67 15.73 2.67 20.11 3.86 39.27 10.13 56.2 22.15 20.98 14.9 40.73 31.28 57.83 50.5 19.7 22.13 38.87 44.73 57.8 67.52 11.67 14.05 23.64 28.09 33.42 43.45 23.74 37.29 36.74 78.96 45.09 122 5.44 28.05 9.7 56.38 13.25 84.74 1.63 13.07.28 26.51.28 40.49zM419.68 1540.93c.72-17.78 1.22-34.72 2.16-51.65.68-12.26.75-24.73 3.21-36.68 5.56-26.99 16.09-52.04 33.18-74.03 4.08-5.25 7.78-10.8 11.7-16.18 11.95-16.4 23.68-32.97 35.96-49.11 6.98-9.17 15.84-15.66 27.9-17.71 16.14-2.74 29.95-10.7 42.08-21.62 2.2-1.98 4.49-4 7.07-5.38 30.79-16.5 61.86-32.48 92.39-49.43 22.35-12.41 45.87-19.02 71.38-19.39 9.61-.14 19.24-1.18 28.81-2.26 8.9-1.01 17.68-3.05 26.59-3.9 18.84-1.8 37.73-3.2 56.6-4.62 19.56-1.48 39.1-3.41 58.69-4.05 29.68-.96 59.14 2.56 88.3 7.55 25.11 4.29 51 5.8 74.2 18.21 4.12 2.2 8.62 1.4 11.73-2.52 3.48-4.4 5.73-9.72 2.41-14.73-2.83-4.27-6.78-8.35-11.17-10.89-5.37-3.11-11.61-4.95-17.67-6.61-30.84-8.42-62.28-13.94-93.96-17.76-15.13-1.83-30.58-2.97-45.76-2.14-26.51 1.45-52.88 5.14-79.37 7.01-36.79 2.6-73.66 4.24-110.47 6.57-21.9 1.39-42.21 7.14-60.9 19.68-15.4 10.34-32.11 18.85-48.7 27.27-15.11 7.67-31 13.81-46.22 21.3-5.84 2.87-11.76 6.76-15.89 11.66-6.69 7.94-14.8 12.32-24.66 13.55-13.37 1.66-25.09 7.12-34.9 15.86-8.4 7.48-16.03 15.94-23.23 24.61-10.18 12.25-17.67 26.63-29.82 37.38-2.68 2.37-4.61 5.69-6.52 8.8-30.53 49.71-49.53 102.92-48.95 162.04.04 3.66-.29 7.31-.3 10.97-.03 18.95-.28 37.91.05 56.85.37 20.93 1.5 41.85 1.9 62.78.17 8.89-4.63 12.55-13.35 11.09-8.85-1.48-17.61-3.7-26.52-4.53-5.81-.54-12 .05-17.65 1.52-9.03 2.34-11.29 10.79-4.74 17.56 3.08 3.18 7.39 5.62 11.6 7.16 14.13 5.16 27.89 10.85 39.98 20.06 3.65 2.78 4.82 5.46 3.51 10.17-2.49 8.95-4.03 18.15-6.07 27.23-1.12 4.98-.72 9.85 4.17 12.13 5.15 2.4 8.7-1.39 11.69-5.2 3.5-4.45 6.7-9.16 10.52-13.31 8.09-8.79 16.13-10.25 26.94-5.22 6.04 2.81 11.96 5.86 17.93 8.79 3.76 1.84 7.64 2.95 11.21-.15 3.91-3.39 2.91-7.44 1.67-11.89-3.13-11.16-10.56-19.06-18.89-26.38-15.91-13.98-23.83-32.33-25.35-52.69-2.44-32.8-3.11-65.74-4.49-97.8z"
          fill="transparent"/>
    <path d="M1966.77 1650.72c0-13.98 1.35-27.43-.28-40.49-3.54-28.36-7.8-56.69-13.25-84.74-8.35-43.04-21.35-84.7-45.09-122-9.77-15.36-21.74-29.39-33.42-43.45-18.93-22.79-38.11-45.39-57.8-67.52-17.1-19.22-36.85-35.6-57.83-50.5-16.94-12.02-36.09-18.29-56.2-22.15-5.22-1-10.5-1.69-15.73-2.67-8.25-1.54-15.09 1.1-20.87 6.87-2.59 2.59-4.98 5.37-7.51 8.02-11.14 11.7-24.81 14.47-39.29 8.71-13.24-5.27-26.3-11.5-38.38-19.02-16.32-10.16-33.33-12.65-51.68-9-25.76 5.13-51.68 9.62-76.3 19.3-3.8 1.5-7.93 2.37-10.98-1.47-3.15-3.97-3.55-8.69-1.71-13.23 1.23-3.03 3.64-5.55 5.22-8.45 3.47-6.36.95-10.84-6.22-9.91-9.83 1.28-19.94 2.5-29.18 5.82-20.03 7.2-39.58 15.71-59.33 23.7-1.85.75-3.6 1.81-5.51 2.34-8.65 2.4-15.49-3.71-13.98-12.55 1.38-8.1 5.97-14.14 13.18-17.8 5.31-2.7 10.95-4.84 16.6-6.77 11.33-3.88 22.79-7.37 34.14-11.19 4.09-1.38 8.33-2.72 11.94-4.98 20.26-12.69 42.29-14.86 65.37-11.88 15.16 1.96 30.36 3.58 45.52 5.48 4.94.62 10.05 1.01 14.72 2.58 16.19 5.42 32.79 4.95 49.45 4.41 33.99-1.09 67.75 1.99 101.6 4.67 49.37 3.9 89.05 26.41 124.08 59.84 29.24 27.9 55.16 58.7 81.22 89.43 12.05 14.21 24.82 27.93 35.69 43 18.31 25.38 28.82 54.67 38.42 84.16 15.09 46.34 23.64 94.15 30.97 142.18 1.8 11.79 1.82 23.84 2.63 35.78.11 1.66-.06 3.34.06 4.99 1.26 16.4 7.44 21.34 23.81 20.22 13.28-.9 26.6-1.28 39.91-1.38 8.45-.06 16.51 1.87 23.1 7.84 3.47 3.14 5.43 6.61 3.96 11.46-1.49 4.96-5.72 5.1-9.62 5.51-4.3.45-8.65.68-12.97.58-14.08-.32-26.71 4.74-39.21 10.31-6.39 2.85-8.67 8.74-10.83 14.84-4.56 12.84-9.24 25.64-14.17 38.35-1.68 4.32-4.24 8.29-6.41 12.41-2.12 4.04-5.65 4.32-9.44 3.22-3.59-1.04-4.09-3.95-3.71-7.19.87-7.26 1.64-14.53 2.61-21.77 1.6-12 2.32-23.78-3.68-35.09-7.44-14.06-15.41-16.99-29.02-9.07-17.84 10.38-35.34 21.34-53.06 31.94-3.41 2.04-7.01 3.85-10.7 5.3-8.74 3.44-14.3-1.26-12.93-10.63 1.17-8.02 5.28-14.2 11.45-19.25 17.84-14.58 36.69-27.63 57.45-37.79 7.46-3.65 14.93-7.3 23.16-11.32zM419.68 1540.92c1.38 32.06 2.05 65 4.49 97.8 1.51 20.36 9.43 38.71 25.35 52.69 8.33 7.32 15.76 15.22 18.89 26.38 1.25 4.44 2.24 8.5-1.67 11.89-3.57 3.1-7.45 1.99-11.21.15-5.98-2.93-11.9-5.99-17.93-8.79-10.81-5.02-18.85-3.57-26.94 5.22-3.82 4.15-7.02 8.87-10.52 13.31-2.99 3.81-6.54 7.6-11.69 5.2-4.89-2.28-5.28-7.15-4.17-12.13 2.03-9.08 3.58-18.28 6.07-27.23 1.31-4.71.14-7.39-3.51-10.17-12.1-9.21-25.86-14.9-39.98-20.06-4.21-1.54-8.52-3.98-11.6-7.16-6.56-6.76-4.3-15.21 4.74-17.56 5.66-1.47 11.85-2.06 17.65-1.52 8.9.83 17.67 3.04 26.52 4.53 8.72 1.46 13.52-2.2 13.35-11.09-.4-20.93-1.52-41.85-1.9-62.78-.34-18.95-.09-37.9-.05-56.85 0-3.66.34-7.31.3-10.97-.58-59.12 18.42-112.33 48.95-162.04 1.91-3.11 3.84-6.43 6.52-8.8 12.15-10.75 19.64-25.13 29.82-37.38 7.2-8.67 14.83-17.13 23.23-24.61 9.81-8.74 21.53-14.2 34.9-15.86 9.87-1.23 17.97-5.61 24.66-13.55 4.13-4.9 10.05-8.79 15.89-11.66 15.22-7.48 31.1-13.63 46.22-21.3 16.59-8.42 33.29-16.93 48.7-27.27 18.68-12.54 39-18.29 60.9-19.68 36.81-2.34 73.68-3.98 110.47-6.57 26.49-1.87 52.87-5.56 79.37-7.01 15.18-.83 30.62.31 45.76 2.14 31.68 3.82 63.12 9.35 93.96 17.76 6.06 1.65 12.3 3.5 17.67 6.61 4.39 2.54 8.34 6.62 11.17 10.89 3.32 5.01 1.07 10.34-2.41 14.73-3.11 3.92-7.6 4.72-11.73 2.52-23.2-12.41-49.09-13.92-74.2-18.21-29.17-4.99-58.63-8.51-88.3-7.55-19.59.64-39.13 2.57-58.69 4.05-18.88 1.43-37.76 2.82-56.6 4.62-8.91.85-17.69 2.89-26.59 3.9-9.57 1.09-19.19 2.12-28.81 2.26-25.51.37-49.03 6.98-71.38 19.39-30.53 16.95-61.61 32.93-92.39 49.43-2.58 1.38-4.87 3.4-7.07 5.38-12.14 10.92-25.94 18.88-42.08 21.62-12.06 2.04-20.91 8.53-27.9 17.71-12.29 16.14-24.02 32.71-35.96 49.11-3.92 5.38-7.62 10.93-11.7 16.18-17.09 21.99-27.61 47.05-33.18 74.03-2.46 11.94-2.53 24.42-3.21 36.68-.94 16.92-1.44 33.87-2.16 51.65z"/>
</svg>