<svg xmlns="http://www.w3.org/2000/svg" width="2351" height="2351">
    <path d="M2351 2351H0V0h2351v2351zM272.17 1254.31c-11.87 2.34-13.19 3.19-18.04 12.44-2 3.82-4.2 7.74-5.14 11.88-3.75 16.55-8.22 32.8-15.08 48.41-2.44 5.56.04 11.52 4.54 13.71 4.86 2.37 8.16-.44 11.32-3.69 12.32-12.64 24.85-25.09 33.89-40.5 1.33-2.27 3.03-4.41 4.91-6.25 5.65-5.53 11.42-4.68 13.72 2.7 3.75 12.03 7.39 24.21 9.57 36.59 2.3 13.06 2.67 26.44 4.18 39.65.93 8.13 6.02 10.72 13.28 7.28 4.02-1.9 6.19-5.09 6.19-9.45 0-5.31-.03-10.66-.63-15.93-2.35-20.53-6.26-40.73-12.28-60.55-3.02-9.92 1.15-16.05 11.26-18.1 1.95-.4 3.94-.66 5.91-.91 9.25-1.14 18.47-2.62 27.76-3.31 23.21-1.73 46.44-3.22 69.67-4.59 14.23-.84 28.5-1.08 42.73-1.95 19.25-1.18 38.46-3 57.71-3.96 7.88-.4 15.13-1.58 21.57-6.41 5.78-4.33 12.5-6.68 19.61-6.28 15.24.86 30.47 2.21 45.67 3.64 5.28.5 10.44 2.32 15.72 2.7 10.92.79 21.88 1.46 32.82 1.39 16.84-.1 33.04 3.42 49.2 7.49 6.78 1.71 13.52 3.62 20.61 1.37 10.19-3.24 20.36-1.75 30.62.07 7.82 1.39 15.8 2.54 23.72 2.59 18.63.13 37.27-.5 55.91-.76 8.66-.12 17.34.2 25.97-.27 4.18-.22 9.48-.51 12.21-3.01 7.3-6.69 14.82-6.26 23.23-3.7 9.35 2.85 18.9 2.87 28.66 2.43 21.58-.98 43.21-1.14 64.81-1.62 5.66-.12 11.42.52 16.95-.34 25.22-3.92 50.45-1.68 75.72-1.09 26.92.63 53.87.15 80.8-.14 12.86-.14 25.68-3.76 38.59.61 3.23 1.09 7.35.46 10.83-.34 5.16-1.19 6.99-6.3 4.38-10.92-3.37-5.96-8.73-8.36-15.34-9.78-21.13-4.54-42.51-2.76-63.5-1.07-13.1 1.05-26.13 2.57-39.36 2.9-8.78.22-17.14 1.2-25.07-3.65-1.88-1.15-4.47-1.65-6.73-1.63-14.27.13-28.74-.9-42.74 1.18-12.27 1.83-24.36 2.55-36.65 2.4-4.98-.06-9.96.54-14.94.9-14.27 1.03-28.54 2-42.79 3.21-3.59.31-7.38.85-10.59 2.33-4.22 1.96-7.39 1.09-11.19-1-3.32-1.82-7.22-2.95-10.99-3.48-11.75-1.64-23.26.06-34.33 4.11-11.9 4.36-24.15 4.22-36.49 3.76-5.65-.21-11.34-.79-16.94-.36-19.78 1.52-39.14.32-58.23-5.73-5.47-1.73-12.45-2.74-17.53-.83-13.55 5.08-26.21 3.24-38.86-1.82-14.36-5.75-29.17-5.97-44.23-4.63-4.29.38-8.68.83-12.92.38-25.8-2.75-51.57-5.8-77.37-8.65-7.44-.82-14.6-.17-20.77 4.89-12.31 10.08-26.83 12.54-42.21 12.14-6.65-.18-13.3-.1-19.95-.03-21.95.23-43.91 1.2-65.83.54-15.77-.47-31.09.04-46.43 4.23-21.36 5.83-43.36 6.58-65.4 6.14-3.91-.08-7.14-.62-9.27-4.38-3.42-6.04-8.83-9.83-15.07-12.58-6.32-2.78-10.94-7.3-14.29-13.38-4.17-7.58-8.68-14.97-13.09-22.42-6.68-11.28-15.13-21.06-25.05-29.61-3.1-2.67-6.5-3.5-10.1-1.47-3.96 2.23-4.1 6.14-2.57 9.64 3.18 7.25 6.37 14.6 10.53 21.3 6.49 10.45 14.2 20.15 20.61 30.64 4.77 7.81 8.31 16.38 12.57 24.94zm1665.05-5.93c-11.1-11.33-23.44-11.92-37.19-6.93-4.77 1.73-10.58 2.05-15.63 1.23-11.42-1.85-22.55-1.19-33.68 1.39-10.63 2.47-21.03 1.84-31.56-.97-6.69-1.79-13.68-3.15-20.57-3.33-9.62-.24-19.26.87-28.9 1.3-14.97.67-29.88 1.24-44.77-1.79-8.4-1.71-17.14-3.11-25.64-2.73-14.9.67-29.72 2.95-44.6 4.28-4.59.41-9.47.79-13.84-.32-9.03-2.28-17.88-2.18-26.64.3-24.13 6.84-48.26 4.55-72.12-.6-10.72-2.32-20.11-1.76-29.85 3.24-11.44 5.88-23.62 5.97-35.95 2.5-5.42-1.53-11-3.43-16.52-3.45-10.25-.03-20.53.87-30.74 1.98-16.53 1.8-32.99 4.79-49.66 1.24-2.23-.48-4.67-.38-6.96-.13-4.84.52-7.78 3.52-9.09 8.06-1.32 4.58.73 7.87 4.67 9.89 3.2 1.64 6.56 3.61 10.02 4 9.56 1.08 19.21 2.02 28.81 1.93 38.6-.38 77.2-1.45 115.8-1.72 21.95-.16 43.92.83 65.88 1.08 5.29.06 10.64-.45 15.88-1.24 21.11-3.18 42.25-5.06 63.63-3.14 10.93.98 22.09 2.92 32.83 1.65 24.37-2.88 48.53-.91 72.73.72 9.27.62 17.87.59 25.42-5.76 2.76-2.32 6.23-3.09 8.78.37 4.88 6.65 11.69 6.3 18.86 6.29 20.3-.02 40.59.62 60.89.67 16.3.04 32.61-.43 48.91-.61 11.64-.13 23.28-.35 34.91-.11 5.62.11 11.39 2.36 16.79 1.57 14.78-2.15 29.39-4.16 44.47-2.83 11.85 1.05 23.88 0 35.81.27 8.96.21 17.9 1.29 26.86 1.55 10.93.32 21.88.5 32.8.14 9.25-.31 14.81 4.28 19.07 11.81 7.2 12.75 14.61 25.37 22.06 37.97 2.19 3.71 4.51 7.44 7.35 10.64 3.43 3.88 8.89 2.65 9.73-2.38.75-4.44.93-9.56-.59-13.66-3.78-10.26-8.5-20.18-13.17-30.09-3.26-6.91-7.32-13.44-10.55-20.36-3.59-7.68-3.05-9.04 4.31-13.65 9.15-5.73 18.89-9.45 29.94-9.93 7.88-.34 11.24-6.17 7.76-13.18-1.83-3.68-4.71-8.06-8.2-9.49-13.25-5.43-26.81-7.98-40.03.93-3.22 2.17-7.03 3.82-10.8 4.74-7.86 1.93-11.42-1.86-9.31-9.82 1.19-4.47 2.95-8.85 4.91-13.05 4.51-9.65 9.28-19.17 13.98-28.72 3.02-6.13 3.15-12.24-.4-18.12-3.98-6.58-11.83-7.53-16.66-1.58-3.29 4.06-5.88 8.86-7.98 13.68-4.12 9.43-8.07 18.98-11.37 28.72-3.39 10.04-6.53 20.24-8.66 30.6-2.35 11.46-5.32 15.93-17.01 17.44-9.51 1.23-19.23 1.09-28.86 1.07-19.95-.03-39.9-.56-59.85-.52-11.3.03-22.7 1.93-33.86.9-11.38-1.06-21.84-.25-32.68 6.07z"
          fill="transparent"/>
    <path d="M272.17 1254.31c-4.25-8.56-7.79-17.13-12.57-24.94-6.41-10.49-14.12-20.19-20.61-30.64-4.16-6.7-7.35-14.05-10.53-21.3-1.53-3.5-1.39-7.41 2.57-9.64 3.6-2.03 7-1.2 10.1 1.47 9.92 8.55 18.37 18.33 25.05 29.61 4.41 7.45 8.92 14.84 13.09 22.42 3.35 6.08 7.97 10.6 14.29 13.38 6.24 2.75 11.65 6.53 15.07 12.58 2.13 3.76 5.36 4.3 9.27 4.38 22.05.45 44.04-.3 65.4-6.14 15.34-4.19 30.66-4.7 46.43-4.23 21.92.66 43.88-.31 65.83-.54 6.65-.07 13.3-.14 19.95.03 15.37.41 29.9-2.06 42.21-12.14 6.18-5.06 13.33-5.71 20.77-4.89 25.79 2.85 51.56 5.9 77.37 8.65 4.25.45 8.63 0 12.92-.38 15.06-1.33 29.86-1.12 44.23 4.63 12.65 5.07 25.3 6.9 38.86 1.82 5.08-1.9 12.06-.9 17.53.83 19.09 6.05 38.46 7.26 58.23 5.73 5.6-.43 11.29.15 16.94.36 12.34.46 24.58.6 36.49-3.76 11.06-4.05 22.58-5.75 34.33-4.11 3.77.53 7.67 1.66 10.99 3.48 3.8 2.08 6.98 2.95 11.19 1 3.21-1.49 7-2.03 10.59-2.33 14.25-1.21 28.52-2.18 42.79-3.21 4.98-.36 9.96-.96 14.94-.9 12.29.15 24.38-.57 36.65-2.4 14-2.09 28.47-1.06 42.74-1.18 2.26-.02 4.84.48 6.73 1.63 7.93 4.86 16.29 3.87 25.07 3.65 13.23-.33 26.26-1.85 39.36-2.9 20.99-1.69 42.37-3.47 63.5 1.07 6.61 1.42 11.97 3.82 15.34 9.78 2.61 4.62.79 9.74-4.38 10.92-3.49.8-7.61 1.44-10.83.34-12.91-4.37-25.73-.75-38.59-.61-26.93.29-53.88.77-80.8.14-25.27-.59-50.5-2.83-75.72 1.09-5.53.86-11.3.21-16.95.34-21.61.47-43.23.64-64.81 1.62-9.76.44-19.31.42-28.66-2.43-8.41-2.56-15.94-2.99-23.23 3.7-2.73 2.5-8.02 2.79-12.21 3.01-8.64.46-17.31.14-25.97.27-18.64.26-37.27.88-55.91.76-7.92-.05-15.9-1.2-23.72-2.59-10.26-1.82-20.42-3.31-30.62-.07-7.09 2.25-13.83.34-20.61-1.37-16.16-4.07-32.35-7.59-49.2-7.49-10.94.07-21.9-.6-32.82-1.39-5.28-.38-10.44-2.21-15.72-2.7-15.2-1.44-30.42-2.78-45.67-3.64-7.11-.4-13.83 1.95-19.61 6.28-6.44 4.82-13.69 6.01-21.57 6.41-19.26.97-38.47 2.78-57.71 3.96-14.23.87-28.5 1.11-42.73 1.95-23.23 1.37-46.46 2.86-69.67 4.59-9.28.69-18.51 2.17-27.76 3.31-1.98.24-3.96.51-5.91.91-10.11 2.05-14.28 8.18-11.26 18.1 6.02 19.81 9.93 40.02 12.28 60.55.6 5.27.63 10.62.63 15.93 0 4.36-2.17 7.54-6.19 9.45-7.26 3.44-12.35.85-13.28-7.28-1.51-13.21-1.89-26.59-4.18-39.65-2.18-12.38-5.81-24.56-9.57-36.59-2.3-7.38-8.07-8.23-13.72-2.7-1.88 1.84-3.58 3.98-4.91 6.25-9.04 15.4-21.57 27.85-33.89 40.5-3.17 3.25-6.47 6.06-11.32 3.69-4.5-2.19-6.98-8.15-4.54-13.71 6.86-15.6 11.33-31.86 15.08-48.41.94-4.14 3.14-8.06 5.14-11.88 4.85-9.25 6.18-10.1 18.04-12.44zM1937.22 1248.38c10.84-6.32 21.3-7.12 32.68-6.07 11.16 1.03 22.56-.87 33.86-.9 19.95-.04 39.9.49 59.85.52 9.63.01 19.35.15 28.86-1.07 11.69-1.51 14.66-5.98 17.01-17.44 2.13-10.36 5.26-20.56 8.66-30.6 3.29-9.74 7.25-19.29 11.37-28.72 2.1-4.82 4.69-9.62 7.98-13.68 4.83-5.95 12.68-5 16.66 1.58 3.55 5.88 3.42 11.99.4 18.12-4.71 9.55-9.48 19.08-13.98 28.72-1.96 4.2-3.72 8.58-4.91 13.05-2.11 7.95 1.45 11.74 9.31 9.82 3.77-.93 7.58-2.57 10.8-4.74 13.22-8.91 26.78-6.36 40.03-.93 3.49 1.43 6.37 5.81 8.2 9.49 3.49 7.01.12 12.84-7.76 13.18-11.05.47-20.78 4.2-29.94 9.93-7.36 4.6-7.9 5.97-4.31 13.65 3.24 6.92 7.29 13.45 10.55 20.36 4.67 9.9 9.39 19.83 13.17 30.09 1.51 4.1 1.33 9.23.59 13.66-.85 5.03-6.3 6.26-9.73 2.38-2.84-3.21-5.16-6.94-7.35-10.64-7.45-12.6-14.86-25.23-22.06-37.97-4.26-7.54-9.82-12.12-19.07-11.81-10.92.36-21.88.18-32.8-.14-8.96-.26-17.9-1.34-26.86-1.55-11.94-.28-23.96.77-35.81-.27-15.09-1.33-29.69.68-44.47 2.83-5.4.79-11.17-1.46-16.79-1.57-11.63-.23-23.27-.01-34.91.11-16.3.18-32.61.65-48.91.61-20.3-.05-40.59-.69-60.89-.67-7.18 0-13.98.35-18.86-6.29-2.55-3.47-6.02-2.69-8.78-.37-7.56 6.35-16.15 6.39-25.42 5.76-24.2-1.63-48.36-3.59-72.73-.72-10.73 1.27-21.9-.67-32.83-1.65-21.38-1.91-42.52-.04-63.63 3.14-5.24.79-10.59 1.3-15.88 1.24-21.96-.25-43.92-1.24-65.88-1.08-38.6.27-77.2 1.34-115.8 1.72-9.6.1-19.25-.85-28.81-1.93-3.45-.39-6.82-2.35-10.02-4-3.94-2.02-5.99-5.31-4.67-9.89 1.31-4.54 4.24-7.53 9.09-8.06 2.3-.25 4.73-.34 6.96.13 16.67 3.55 33.12.56 49.66-1.24 10.21-1.11 20.49-2.01 30.74-1.98 5.51.02 11.1 1.92 16.52 3.45 12.33 3.47 24.51 3.38 35.95-2.5 9.74-5 19.12-5.56 29.85-3.24 23.87 5.15 47.99 7.44 72.12.6 8.76-2.48 17.61-2.59 26.64-.3 4.37 1.1 9.25.73 13.84.32 14.88-1.33 29.7-3.61 44.6-4.28 8.5-.38 17.24 1.02 25.64 2.73 14.89 3.03 29.8 2.46 44.77 1.79 9.64-.43 19.28-1.54 28.9-1.3 6.89.17 13.88 1.54 20.57 3.33 10.53 2.81 20.94 3.44 31.56.97 11.12-2.58 22.25-3.24 33.68-1.39 5.05.82 10.86.5 15.63-1.23 13.75-4.99 26.09-4.4 37.19 6.93z"/>
</svg>