<svg xmlns="http://www.w3.org/2000/svg" width="2351" height="2351">
    <path d="M2351 2351H0V0h2351v2351zM267.76 1333.52c-1.73 18.69 11.06 37.38 30.35 41.15 6.83 1.34 13.81 2.33 20.76 2.58 12.02.43 16.91-2.9 21.31-13.97 4.64-11.7 13.3-17.52 25.44-19.74 18.31-3.36 36.51-7.29 54.71-11.22 13.32-2.88 27.28-4.42 39.69-9.58 28.28-11.75 55.77-25.39 80.65-43.63 12.86-9.42 22.97-21.01 29.79-35.6 7.19-15.38 15.58-30.21 22.53-45.68 6.13-13.63 12.12-27.51 16.16-41.85 5.59-19.84 15.71-36.69 29.62-51.33 4.14-4.36 10.14-7.65 15.91-9.62 9.72-3.32 19.94-5.14 29.92-7.71 11.65-3 23.17-2.18 34.4 1.63 18.28 6.19 36.64 12.25 54.53 19.43 7.85 3.15 15.46 8.05 21.68 13.78 6.42 5.92 13.08 11.1 20.46 15.69 42.7 26.53 85.17 53.43 127.97 79.8 24.37 15.02 49.97 28.14 73.63 44.17 28.09 19.02 58.49 29.7 91.89 33.28 16.28 1.75 32.5 1.71 48.65-.61 5.15-.74 10.33-2.66 15-5.01 5.62-2.83 6.05-7.32 2.06-12.27-3.45-4.28-8.16-5.37-13.38-5.35-15.66.05-31.32.3-46.97-.06-19.31-.45-37.44-5.38-53.98-15.69-9.88-6.16-19.59-12.68-29.9-18.05-33.37-17.37-62.09-42.32-96.15-58.54-2.97-1.41-5.55-3.65-8.32-5.49-16.08-10.69-32.11-21.46-48.25-32.05-20.86-13.69-42.66-25.9-61.58-42.51-6.62-5.81-14.86-10.22-23-13.8-26.61-11.71-55-17.89-82.99-25.23-3.48-.91-7.26-.8-10.92-.95-17.26-.71-33.55 4.45-50 8.52-18.84 4.66-32.69 16.34-42.02 32.8-13.79 24.33-25.67 49.66-35.86 75.72-3.14 8.03-5.7 16.34-7.8 24.7-3.22 12.8-8.3 24.58-16.65 34.84-2.52 3.1-4.92 6.38-7.9 8.98-27.94 24.35-59.01 43.29-95 53.19-21.16 5.82-42.53 10.86-63.79 16.27-27.7 7.05-55.17 9.12-81.95-3.73-.3-.14-.61-.28-.92-.38-16.09-5.13-28.01 2.61-29.73 19.37-.2 1.98-.03 3.99-.03 3.79zm1945.54-183.57c15.74.35 23.08-7.91 29.71-16.85 5.05-6.8 5.18-14.46.74-21.58-7.64-12.26-18.15-21.51-32.24-25.31-14.58-3.93-33.13.88-35.84 20.15-1.17 8.31-6.9 14.38-13.81 18.81-5.86 3.76-11.94 7.36-18.33 10.08-11.31 4.83-22.85 9.14-34.43 13.31-32.53 11.73-65.88 18.55-100.7 17.21-19.29-.74-38.61-.45-57.91-1.05-27.21-.85-53.65-5.87-78.21-17.93-45.47-22.32-89.6-47.07-130.71-76.78-23.11-16.7-48.02-29.76-74.41-40.28-16.26-6.48-33.31-10.15-50.59-9.74-18.62.44-37.06 4.23-54.25 11.88-5.9 2.62-11.89 6.51-16 11.37-8.35 9.88-16.75 20.13-22.8 31.47-10.93 20.5-21.83 41.3-29.69 63.08-13.1 36.3-30.41 70.13-51.74 102.1-14.98 22.46-35.96 34.43-62.89 34.22-16.57-.13-33.11-2.46-49.68-3.59-14.75-1-28.66-5.46-42.72-9.49-9.55-2.74-19.15-5.57-29.39-3.61-4.29.82-7.73 2.42-8.99 6.74-1.27 4.35.67 8.12 4.04 10.51 3.75 2.65 7.91 5.05 12.25 6.45 12.65 4.1 25.43 7.84 38.26 11.35 5.42 1.49 11.06 2.56 16.66 2.97 13.59 1 27.21 1.89 40.82 2.08 10.28.14 20.83.43 30.81-1.59 39.58-8.02 67.77-31.53 85.44-67.27 18.13-36.68 35.31-73.84 52.62-110.92 7.77-16.64 16.08-32.89 27.43-47.42 13.64-17.46 31.33-26.87 53.67-25.1 34.25 2.72 65.67 13.28 92.63 35.46 6.9 5.67 14.19 11.04 21.89 15.55 27.85 16.33 55.9 32.32 83.97 48.26 13.88 7.88 27.55 16.31 42.06 22.82 28.91 12.98 59.57 18.5 91.26 18.42 14.65-.04 29.38-.64 43.92.67 24.67 2.22 49.17 2.23 73.55-2.09 38.96-6.9 75.63-20.86 111.2-37.68 9.43-4.46 17.71-6.16 27.36-1.6 5.61 2.65 11.88 3.91 15.03 4.91z"
          fill="transparent"/>
    <path d="M267.76 1333.52c0 .2-.17-1.81.03-3.79 1.72-16.75 13.64-24.5 29.73-19.37.32.1.62.24.92.38 26.79 12.86 54.26 10.78 81.95 3.73 21.27-5.41 42.64-10.45 63.79-16.27 35.99-9.9 67.06-28.83 95-53.19 2.98-2.6 5.39-5.89 7.9-8.98 8.35-10.27 13.44-22.05 16.65-34.84 2.1-8.36 4.66-16.67 7.8-24.7 10.19-26.06 22.07-51.39 35.86-75.72 9.33-16.46 23.18-28.15 42.02-32.8 16.45-4.07 32.74-9.22 50-8.52 3.65.15 7.43.04 10.92.95 27.99 7.34 56.37 13.51 82.99 25.23 8.14 3.58 16.38 7.99 23 13.8 18.92 16.61 40.73 28.83 61.58 42.51 16.14 10.59 32.17 21.36 48.25 32.05 2.77 1.84 5.35 4.08 8.32 5.49 34.06 16.21 62.78 41.16 96.15 58.54 10.31 5.37 20.02 11.89 29.9 18.05 16.54 10.32 34.66 15.24 53.98 15.69 15.65.36 31.31.11 46.97.06 5.22-.02 9.93 1.07 13.38 5.35 3.99 4.94 3.56 9.43-2.06 12.27-4.67 2.36-9.85 4.27-15 5.01-16.15 2.32-32.37 2.36-48.65.61-33.4-3.59-63.8-14.26-91.89-33.28-23.66-16.03-49.26-29.15-73.63-44.17-42.8-26.37-85.27-53.27-127.97-79.8-7.38-4.58-14.04-9.77-20.46-15.69-6.22-5.73-13.83-10.63-21.68-13.78-17.89-7.18-36.25-13.24-54.53-19.43-11.23-3.8-22.75-4.63-34.4-1.63-9.98 2.57-20.21 4.39-29.92 7.71-5.77 1.97-11.76 5.26-15.91 9.62-13.91 14.64-24.03 31.49-29.62 51.33-4.04 14.34-10.03 28.22-16.16 41.85-6.96 15.48-15.34 30.3-22.53 45.68-6.82 14.6-16.93 26.18-29.79 35.6-24.88 18.23-52.37 31.87-80.65 43.63-12.42 5.16-26.37 6.7-39.69 9.58-18.2 3.93-36.4 7.86-54.71 11.22-12.14 2.23-20.8 8.05-25.44 19.74-4.4 11.08-9.29 14.4-21.31 13.97-6.95-.25-13.93-1.24-20.76-2.58-19.29-3.77-32.08-22.46-30.35-41.15zM2213.3 1149.95c-3.15-.99-9.42-2.25-15.03-4.91-9.65-4.56-17.92-2.86-27.36 1.6-35.57 16.82-72.24 30.78-111.2 37.68-24.38 4.32-48.88 4.31-73.55 2.09-14.54-1.31-29.27-.71-43.92-.67-31.7.09-62.36-5.44-91.26-18.42-14.51-6.52-28.19-14.94-42.06-22.82-28.07-15.94-56.12-31.93-83.97-48.26-7.7-4.51-14.99-9.88-21.89-15.55-26.97-22.18-58.38-32.74-92.63-35.46-22.34-1.77-40.04 7.64-53.67 25.1-11.35 14.53-19.66 30.78-27.43 47.42-17.31 37.08-34.49 74.24-52.62 110.92-17.67 35.74-45.85 59.25-85.44 67.27-9.98 2.02-20.53 1.73-30.81 1.59-13.62-.19-27.24-1.08-40.82-2.08-5.6-.41-11.24-1.48-16.66-2.97-12.83-3.52-25.61-7.25-38.26-11.35-4.34-1.41-8.51-3.8-12.25-6.45-3.37-2.38-5.31-6.16-4.04-10.51 1.26-4.33 4.71-5.92 8.99-6.74 10.24-1.96 19.84.88 29.39 3.61 14.06 4.03 27.98 8.49 42.72 9.49 16.57 1.12 33.11 3.46 49.68 3.59 26.92.21 47.9-11.75 62.89-34.22 21.33-31.97 38.64-65.81 51.74-102.1 7.86-21.78 18.76-42.58 29.69-63.08 6.04-11.34 14.44-21.59 22.8-31.47 4.11-4.86 10.1-8.74 16-11.37 17.19-7.64 35.63-11.44 54.25-11.88 17.28-.41 34.33 3.26 50.59 9.74 26.39 10.51 51.3 23.58 74.41 40.28 41.12 29.71 85.24 54.46 130.71 76.78 24.57 12.06 51.01 17.07 78.21 17.93 19.29.61 38.62.31 57.91 1.05 34.82 1.34 68.18-5.49 100.7-17.21 11.57-4.17 23.12-8.48 34.43-13.31 6.39-2.73 12.47-6.33 18.33-10.08 6.91-4.43 12.64-10.5 13.81-18.81 2.71-19.27 21.26-24.08 35.84-20.15 14.09 3.79 24.6 13.05 32.24 25.31 4.44 7.12 4.31 14.78-.74 21.58-6.63 8.94-13.97 17.2-29.71 16.85z"/>
</svg>