<svg xmlns="http://www.w3.org/2000/svg" width="2351" height="2351">
    <path d="M0 0h2351v2351H0V0zm429.52 1575.39c1.7-3.93 3.21-6.79 4.2-9.81 4.74-14.53 4.98-29.44 3.37-44.46-.75-6.95-1.7-13.88-2.32-20.85-.78-8.78 1.52-16.26 8.72-22.17 7.45-6.12 14.33-12.94 21.55-19.35 12.47-11.07 25.33-21.6 40.41-29.08 4.75-2.36 9.37-5 13.98-7.64 25.72-14.7 50.5-31.44 77.31-43.74 47.42-21.75 95.55-42.22 144.38-60.59 47.9-18.02 96.78-33.6 145.71-48.71 53.06-16.38 106.58-31.3 160.08-46.23 25.62-7.15 51.64-12.84 77.47-19.25 7.75-1.92 15.55-3.71 23.14-6.16 3.29-1.06 7.11-2.94 8.92-5.63 4.87-7.24-.66-15.94-10.02-15.18-9.89.8-19.79 2.62-29.44 4.97-34.89 8.5-69.49 18.32-104.57 25.91-33.83 7.32-67.27 15.9-100.42 25.69-18.81 5.55-37.41 11.82-56.08 17.82-10.75 3.46-21.9 6.08-32.1 10.74-28.34 12.95-58.15 20.97-88.29 28.02-18.54 4.34-36.51 9.4-52.51 20.75-7.61 5.4-17.59 7.48-26.54 10.96-7.71 2.99-15.67 5.43-23.18 8.83-13.33 6.04-26.17 13.19-39.64 18.88-35.91 15.16-71.88 30.07-103.45 53.58-12.25 9.13-26.13 16.67-36.51 27.57-14.38 15.09-30.3 27.93-46.8 40.33-4.88 3.67-10.04 6.09-17.09 5.8 1.41-2.66 2.47-4.65 3.52-6.65 3.88-7.35 3.47-10.9-1.99-17.12-6.62-7.55-15.93-9.83-25.3-5.16-8.42 4.2-16.99 7.47-26.25 9.16-3.23.59-6.37 1.95-9.39 3.31-24.32 10.95-44.04 28.52-64.41 45.12-3.76 3.06-3.51 6.72-.93 11.54 3.83-.77 7.86-.97 11.39-2.41 10.45-4.26 20.65-9.12 31.04-13.55 18.04-7.69 36.04-15.49 54.27-22.71 8.4-3.33 17.25-4.22 25.76.46-3.27 9.5-4.56 11.42-12.21 16.78-9.93 6.95-18.44 15.22-25.13 25.39-2.36 3.59-5.25 6.86-8.03 10.16-14.17 16.77-28.47 33.42-42.52 50.29-2.5 3-4.08 6.77-5.96 10.25-2.01 3.71-1.29 7.27 1.62 10.02 3.37 3.2 7.06 1.6 9.92-.85 5.8-4.97 11.55-10.06 16.81-15.58 16.77-17.59 33.17-35.52 49.98-53.07 8.05-8.41 16.49-16.48 25.15-24.27 6.34-5.69 12.53-4.16 16.03 3.46 1.24 2.7 2.27 5.62 2.69 8.55 1.83 12.47 3.54 24.97 4.99 37.49.75 6.46-.03 13.36 8.67 18.37zm1553.79-181.07c-1.13-.35-2.34-.97-3.58-1.05-3.65-.23-7.31-.42-10.96-.32-26.62.73-53.23 1.46-79.84 2.36-10.8.37-18.3-3.89-23.28-13.71-3.43-6.77-7.82-13.15-12.45-19.19-4.09-5.34-9.47-8.13-16.64-4.94-8.97 4-18.24 3.33-27.33.35-15.49-5.08-31.07-9.93-46.32-15.66-62.6-23.5-125.06-47.34-187.61-70.96-46.2-17.45-94.14-28.81-142.15-39.79-37.93-8.67-76.04-16.58-114.05-24.91-5.79-1.27-10.53 1.1-14.88 4.15-3.65 2.56-3.63 6.69.12 9.05 3.88 2.43 8.2 4.54 12.61 5.67 27.07 6.96 54.21 13.62 81.33 20.35 46.5 11.53 93.24 22.46 138.14 39.36 78.45 29.53 156.52 60.07 234.89 89.85 7.22 2.74 11.64 6.81 14.36 13.72 3.64 9.23 9.29 17.23 18.41 21.52 6.52 3.07 13.65 5.15 20.72 6.69 8.51 1.85 14.75 6.35 18.34 13.94 3.26 6.88 6.29 14.05 8.04 21.42 2.28 9.59 7.83 14.18 17.27 14.97 2.98.25 6.1.32 8.86 1.3 2.95 1.06 6.33 2.49 8.18 4.83 10.33 13.04 20.22 26.43 30.34 39.63 7.48 9.76 14.99 19.5 22.7 29.08 1.6 1.99 3.92 3.66 6.26 4.72 4.64 2.11 7.88-.3 7.54-5.46-.15-2.3-.87-4.58-1.47-6.83-3.02-11.39-8.69-21.45-14.69-31.53-4.53-7.61-7.93-16.04-10.74-24.47-1.97-5.92.96-8.5 7.36-8.27 25.6.94 51.2 2 76.81 2.67 4.14.11 8.5-1.17 12.42-2.67 1.72-.66 3.63-3.51 3.58-5.31-.04-1.56-2.5-3.93-4.3-4.41-9.93-2.63-19.88-5.89-30.03-6.91-26.61-2.68-52.81-6.91-77.9-16.44-4.92-1.87-9.63-4.49-14.05-7.35-1.94-1.26-4.47-4.53-3.98-5.94.81-2.34 3.66-4.19 6-5.71 1.25-.81 3.23-.51 4.89-.68 14.24-1.45 28.52-2.58 42.7-4.45 8.55-1.13 17.06-2.96 25.36-5.29 7.11-2 8.98-5.48 8.99-13.37z"
          fill="transparent"/>
    <path d="M429.52 1575.39c-8.7-5.01-7.92-11.91-8.67-18.37-1.45-12.52-3.17-25.02-4.99-37.49-.43-2.92-1.45-5.85-2.69-8.55-3.5-7.61-9.69-9.15-16.03-3.46-8.66 7.78-17.1 15.86-25.15 24.27-16.81 17.55-33.22 35.48-49.98 53.07-5.26 5.52-11.01 10.61-16.81 15.58-2.86 2.45-6.54 4.05-9.92.85-2.9-2.75-3.63-6.32-1.62-10.02 1.89-3.48 3.47-7.25 5.96-10.25 14.05-16.87 28.35-33.53 42.52-50.29 2.79-3.3 5.67-6.57 8.03-10.16 6.69-10.17 15.2-18.44 25.13-25.39 7.65-5.36 8.93-7.28 12.21-16.78-8.52-4.68-17.36-3.79-25.76-.46-18.23 7.22-36.23 15.02-54.27 22.71-10.39 4.43-20.59 9.29-31.04 13.55-3.53 1.44-7.56 1.64-11.39 2.41-2.58-4.82-2.83-8.48.93-11.54 20.38-16.6 40.09-34.17 64.41-45.12 3.02-1.36 6.16-2.72 9.39-3.31 9.26-1.69 17.83-4.96 26.25-9.16 9.37-4.68 18.68-2.4 25.3 5.16 5.46 6.23 5.87 9.77 1.99 17.12-1.05 2-2.11 3.99-3.52 6.65 7.05.29 12.21-2.13 17.09-5.8 16.49-12.41 32.42-25.24 46.8-40.33 10.38-10.89 24.25-18.44 36.51-27.57 31.57-23.51 67.54-38.43 103.45-53.58 13.47-5.69 26.31-12.84 39.64-18.88 7.52-3.41 15.47-5.84 23.18-8.83 8.95-3.48 18.93-5.56 26.54-10.96 16.01-11.34 33.98-16.41 52.51-20.75 30.14-7.05 59.95-15.07 88.29-28.02 10.21-4.66 21.35-7.28 32.1-10.74 18.67-6 37.27-12.27 56.08-17.82 33.15-9.79 66.59-18.37 100.42-25.69 35.08-7.59 69.68-17.41 104.57-25.91 9.66-2.35 19.55-4.17 29.44-4.97 9.36-.76 14.88 7.93 10.02 15.18-1.81 2.69-5.63 4.57-8.92 5.63-7.59 2.44-15.39 4.23-23.14 6.16-25.83 6.4-51.85 12.09-77.47 19.25-53.5 14.93-107.02 29.85-160.08 46.23-48.93 15.11-97.81 30.69-145.71 48.71-48.83 18.37-96.95 38.84-144.38 60.59-26.82 12.3-51.6 29.03-77.31 43.74-4.61 2.64-9.23 5.28-13.98 7.64-15.08 7.48-27.94 18.01-40.41 29.08-7.22 6.41-14.1 13.23-21.55 19.35-7.2 5.91-9.51 13.39-8.72 22.17.62 6.96 1.57 13.89 2.32 20.85 1.61 15.03 1.38 29.93-3.37 44.46-.99 3.03-2.5 5.88-4.2 9.81zM1983.31 1394.32c-.01 7.9-1.88 11.37-8.99 13.37-8.3 2.34-16.82 4.17-25.36 5.29-14.18 1.87-28.46 3-42.7 4.45-1.65.17-3.64-.13-4.89.68-2.34 1.52-5.19 3.37-6 5.71-.49 1.41 2.04 4.68 3.98 5.94 4.42 2.86 9.13 5.48 14.05 7.35 25.09 9.53 51.29 13.76 77.9 16.44 10.15 1.02 20.1 4.28 30.03 6.91 1.8.48 4.25 2.86 4.3 4.41.05 1.8-1.86 4.65-3.58 5.31-3.93 1.5-8.28 2.77-12.42 2.67-25.61-.66-51.21-1.73-76.81-2.67-6.4-.23-9.33 2.35-7.36 8.27 2.8 8.43 6.21 16.86 10.74 24.47 6 10.07 11.67 20.14 14.69 31.53.6 2.25 1.32 4.53 1.47 6.83.33 5.16-2.9 7.57-7.54 5.46-2.33-1.06-4.66-2.74-6.26-4.72-7.71-9.58-15.22-19.32-22.7-29.08-10.12-13.21-20.01-26.6-30.34-39.63-1.85-2.33-5.22-3.77-8.18-4.83-2.76-.99-5.88-1.06-8.86-1.3-9.44-.78-14.99-5.38-17.27-14.97-1.75-7.37-4.78-14.54-8.04-21.42-3.6-7.59-9.84-12.09-18.34-13.94-7.07-1.54-14.2-3.62-20.72-6.69-9.12-4.29-14.78-12.3-18.41-21.52-2.73-6.92-7.14-10.98-14.36-13.72-78.36-29.77-156.43-60.31-234.89-89.85-44.9-16.9-91.64-27.83-138.14-39.36-27.12-6.73-54.27-13.39-81.33-20.35-4.41-1.13-8.74-3.24-12.61-5.67-3.75-2.35-3.77-6.49-.12-9.05 4.35-3.05 9.09-5.42 14.88-4.15 38.01 8.32 76.12 16.23 114.05 24.91 48.01 10.98 95.94 22.34 142.15 39.79 62.55 23.62 125.02 47.46 187.61 70.96 15.25 5.73 30.83 10.58 46.32 15.66 9.1 2.98 18.36 3.65 27.33-.35 7.16-3.19 12.54-.4 16.64 4.94 4.63 6.04 9.02 12.42 12.45 19.19 4.98 9.82 12.49 14.07 23.28 13.71 26.61-.9 53.23-1.63 79.84-2.36 3.65-.1 7.32.09 10.96.32 1.24.08 2.45.7 3.58 1.05z"/>
</svg>