<svg xmlns="http://www.w3.org/2000/svg" width="2351" height="2351">
    <path d="M2351 2351H0V0h2351v2351zM1092.33 1197.92c-.17.54-.4.88-.32 1.11 1.33 3.74 2.67 7.48 4.05 11.2 7.78 20.9 5.74 40.65-7.76 58.58-5.98 7.95-12.57 15.57-19.69 22.51-9.77 9.52-20.65 17.89-30.44 27.39-18.86 18.28-41.49 28.58-67.06 32.92-25.91 4.4-51.88 8.51-77.82 12.76-11.61 1.9-23.19 2.19-34.69-.7-7.73-1.94-15.44-3.98-23.15-6.01-18-4.73-36.57-7.97-53.86-14.56-31.97-12.19-63.14-26.08-91.24-46.52-18.59-13.52-34.94-29-48.28-47.2-23.41-31.95-45.71-64.74-67.74-97.67-14.54-21.74-31.33-41.33-50.11-59.42-12.56-12.09-25.97-22.92-41.46-30.97-17.71-9.2-35.44-18.36-53.31-27.24-5.32-2.64-10.98-4.97-16.75-6.28-18.55-4.22-37.38-6.33-56.44-6.23-13.99.07-27.99.26-41.97-.2-35.04-1.15-65.22 11.1-91.81 33.04-14.98 12.36-24.43 28.39-26.32 47.76-2.78 28.48-6.1 57.07-6.22 85.62-.18 45.33-11.65 87.42-30.43 128.08-1.97 4.27-4.66 6.95-8.84 8.72-9.8 4.15-19.48 8.59-29.28 12.74-30.09 12.74-59.52 26.61-86.07 46.05-5.19 3.8-12.1 5.18-18.13 7.9-3.54 1.59-7.39 3.06-10.2 5.59-2.85 2.56-5.45 6.11-3.31 10.62 2.33 4.92 6.5 4.86 11.06 4.23 10.82-1.49 20.41-5.99 29.3-12.02 23.79-16.11 49.15-29.27 75.54-40.5 4.29-1.82 8.44-4.11 12.88-5.38 8.9-2.55 12.57 1.01 10.95 10.12-2.22 12.5-6.71 24.26-11.55 35.94-2.41 5.82-4.55 11.8-6.15 17.89-1.33 5.04 1.05 9.2 5.39 11.89 4.19 2.6 7.99.35 10.81-2.36 3.04-2.93 5.72-6.52 7.6-10.29 2.8-5.63 4.77-11.68 7.09-17.55 6.97-17.62 13.83-35.28 20.95-52.84 3.18-7.83 9.28-9.25 15.8-4.02 1.28 1.03 2.31 2.38 3.48 3.55 8.25 8.19 16.06 16.89 24.85 24.45 19.94 17.15 40.32 33.81 60.65 50.51 3.83 3.15 8.07 5.95 12.47 8.22 8.72 4.49 18.96 2.77 25.87-3.94 7.96-7.74 6.63-14.9-1.6-19.45-25.32-13.99-46.65-33.06-66.94-53.39-4.23-4.24-9.67-7.78-12.49-12.8-3.86-6.86-9.42-10.78-15.81-14.55-19.36-11.41-29.89-36.57-22.21-56.52 8.97-23.29 10.08-47.16 9.95-71.61-.13-23.59.69-47.24 2.4-70.77.71-9.76 5.24-19.19 7.28-28.92 4.22-20.07 16.54-33.39 33.71-43.45 17.43-10.21 36.75-11.18 55.99-12.23 27.38-1.49 54.57.02 81.12 7.83 25.24 7.43 49.68 15.72 71.57 31.66 38.55 28.08 69.47 62.74 96.33 101.7 7.68 11.14 17.71 20.66 26.63 30.96 3.03 3.5 6.29 6.86 8.83 10.7 4.58 6.93 8.77 14.12 12.99 21.28 3.88 6.58 8.24 12.98 11.18 19.97 3.09 7.37 7.59 13.15 13.8 17.93 9.24 7.11 18.74 13.94 27.47 21.63 17.27 15.23 34.53 30.32 56.26 39.1 1.82.74 3.32 2.25 5.11 3.12 8.34 4.05 16.42 8.96 25.16 11.8 25.92 8.41 52.06 16.15 78.2 23.83 20.62 6.05 41.69 8.94 63.16 6.19 14.17-1.82 28.42-3.59 42.33-6.73 24.33-5.49 48.46-11.88 72.58-18.22 4.07-1.07 8.01-3.36 11.51-5.8 25.44-17.71 50.02-36.52 72.73-57.69 14.53-13.55 26.8-28.68 34.16-47.37 2.43-6.18 4.62-12.46 7.39-18.48 4.06-8.82 4.53-17.12-1.44-25.39-2.1-2.91-3.32-6.47-4.88-9.61-10.49-.74-20.69-1.45-30.83-2.17zm223.82-10.03c0 10.51.63 20.14-.15 29.66-1.09 13.23.87 25.82 4.92 38.33 2.98 9.2 8.19 16.62 15.84 22.45 14.57 11.09 29.09 22.25 43.68 33.32 2.11 1.6 4.43 2.95 6.75 4.24 27 15.12 54.07 30.12 81.02 45.34 20.1 11.35 40.8 21.02 63.68 25.43 21.56 4.16 43.06 8.66 64.6 12.92 10.1 2 20.28 5.49 30.37 5.32 20.93-.35 41.97-1.62 62.7-4.47 38.39-5.26 73.74-19.98 107.24-38.89 12.08-6.82 23.82-14.99 33.9-24.47 22.3-20.97 43.89-42.74 64.96-64.96 25.7-27.1 47.63-57.36 69.98-87.2 13.21-17.62 24.18-36.71 32.83-56.99 4.51-10.57 10.81-19.76 18.04-28.57 10.46-12.76 23.34-16.35 39.23-12.78 24.63 5.53 47.28 15.55 69.19 27.83 12.79 7.17 18.27 17.73 18.27 31.91 0 5.98.16 12 .82 17.93 1.26 11.44-.23 22.53-3.14 33.56-1.86 7.06-3.89 14.12-5.06 21.3-2.1 12.92-1.55 25.87 1.48 38.64.94 3.98 2.55 8.27 7.05 8.72 4.34.43 7.29-2.81 8.87-6.83 1.94-4.93 4.35-9.78 5.51-14.9 4.48-19.8 8.66-39.66 12.7-59.55 2.06-10.12 5.64-19.09 14.59-25.19 4.38-2.99 8.75-4.56 13.99-2.49 8.03 3.16 16.39 5.64 24.14 9.36 18.6 8.93 36.86 18.56 55.42 27.57 4.71 2.29 9.95 3.71 15.11 4.8 5.12 1.08 9.29-1.53 11.61-5.97 2.13-4.06 1.68-8.52-1.22-12.24-2.03-2.61-4.24-5.28-6.91-7.15-9.79-6.85-19.39-14.15-29.84-19.87-21.89-11.97-44.32-22.96-66.43-34.53-8.03-4.2-8.25-7.47-1.56-13.19 9.35-7.99 18.31-16.48 28.06-23.95 15.84-12.14 32.19-23.62 48.3-35.42 2.85-2.09 5.57-4.34 8.32-6.49-5.86-8.03-11.67-10.59-19.14-8.03-4 1.37-7.85 3.68-11.23 6.26-18.25 13.95-36.3 28.18-54.5 42.2-11.93 9.19-24.68 16.96-38.94 22.08-5.21 1.87-9.96 2.05-15.13-.99-9.17-5.39-18.75-10.09-28.21-14.97-18.69-9.64-37.98-17.72-58.52-22.55-14.82-3.48-29.54-3.36-42.27 5.65-17.4 12.32-31.75 27.71-37.77 48.85-5.18 18.21-13.42 34.78-24.39 49.99-17.52 24.3-35.38 48.36-53.2 72.44-2.56 3.46-5.68 6.51-8.66 9.64-19.97 20.96-40.15 41.71-59.89 62.89-11.7 12.56-24.43 23.63-40.03 30.97-17.16 8.07-34.42 15.97-51.83 23.49-5.72 2.47-11.99 3.77-18.11 5.13-6.15 1.37-12.4 2.38-18.66 3.12-18.16 2.15-36.3 4.64-54.53 5.96-23.82 1.73-47.14-3.11-70.02-8.74-19.97-4.92-39.46-11.88-59.04-18.32-19.05-6.27-36.92-15.11-53.8-25.97-3.31-2.13-6.98-3.89-10.73-5.09-13.77-4.41-26.24-11.21-38.12-19.36-7.11-4.88-14.69-9.07-22.12-13.47-12.02-7.12-24.31-13.81-36.09-21.31-13.6-8.66-21.98-21.29-24.45-37.26-1.37-8.85-1.73-17.88-2.13-26.85-.33-7.44-.07-14.91-.07-23.21l-17.26 4.93zm648.87 217.24c-2.15-1.2-3.36-2.38-4.07-2.13-.84.29-1.45 1.76-1.75 2.83-.08.29 1.36 1.45 2.03 1.39.94-.08 1.81-.94 3.79-2.09z"
          fill="transparent"/>
    <path d="M1092.33 1197.92c10.14.71 20.35 1.43 30.83 2.17 1.56 3.14 2.78 6.69 4.88 9.61 5.97 8.27 5.49 16.57 1.44 25.39-2.77 6.02-4.96 12.31-7.39 18.48-7.36 18.7-19.62 33.83-34.16 47.37-22.71 21.17-47.29 39.98-72.73 57.69-3.5 2.44-7.44 4.73-11.51 5.8-24.13 6.34-48.25 12.74-72.58 18.22-13.91 3.14-28.16 4.91-42.33 6.73-21.47 2.75-42.55-.14-63.16-6.19-26.15-7.68-52.29-15.42-78.2-23.83-8.74-2.84-16.82-7.75-25.16-11.8-1.79-.87-3.29-2.38-5.11-3.12-21.73-8.78-38.99-23.87-56.26-39.1-8.73-7.7-18.23-14.52-27.47-21.63-6.21-4.78-10.7-10.56-13.8-17.93-2.94-6.99-7.3-13.4-11.18-19.97-4.22-7.16-8.41-14.35-12.99-21.28-2.54-3.84-5.8-7.2-8.83-10.7-8.92-10.3-18.94-19.82-26.63-30.96-26.86-38.97-57.78-73.63-96.33-101.7-21.89-15.94-46.33-24.23-71.57-31.66-26.55-7.81-53.74-9.32-81.12-7.83-19.24 1.04-38.55 2.02-55.99 12.23-17.17 10.06-29.49 23.38-33.71 43.45-2.05 9.73-6.57 19.16-7.28 28.92-1.71 23.53-2.53 47.18-2.4 70.77.13 24.45-.99 48.32-9.95 71.61-7.68 19.96 2.85 45.11 22.21 56.52 6.39 3.77 11.96 7.68 15.81 14.55 2.82 5.02 8.26 8.56 12.49 12.8 20.29 20.33 41.61 39.4 66.94 53.39 8.23 4.55 9.56 11.71 1.6 19.45-6.91 6.71-17.15 8.43-25.87 3.94-4.4-2.27-8.64-5.07-12.47-8.22-20.33-16.7-40.71-33.35-60.65-50.51-8.79-7.56-16.6-16.26-24.85-24.45-1.18-1.17-2.2-2.52-3.48-3.55-6.52-5.22-12.62-3.81-15.8 4.02-7.12 17.56-13.98 35.22-20.95 52.84-2.32 5.87-4.29 11.92-7.09 17.55-1.88 3.78-4.56 7.37-7.6 10.29-2.82 2.72-6.62 4.97-10.81 2.36-4.34-2.7-6.72-6.85-5.39-11.89 1.6-6.08 3.74-12.07 6.15-17.89 4.84-11.68 9.32-23.44 11.55-35.94 1.62-9.11-2.05-12.66-10.95-10.12-4.44 1.27-8.6 3.56-12.88 5.38-26.4 11.23-51.75 24.39-75.54 40.5-8.89 6.02-18.48 10.52-29.3 12.02-4.57.63-8.73.7-11.06-4.23-2.14-4.51.46-8.07 3.31-10.62 2.81-2.52 6.66-3.99 10.2-5.59 6.02-2.71 12.94-4.1 18.13-7.9 26.55-19.44 55.98-33.31 86.07-46.05 9.8-4.15 19.48-8.59 29.28-12.74 4.18-1.77 6.87-4.45 8.84-8.72 18.78-40.66 30.25-82.75 30.43-128.08.11-28.55 3.44-57.14 6.22-85.62 1.89-19.37 11.34-35.41 26.32-47.76 26.6-21.94 56.77-34.19 91.81-33.04 13.98.46 27.98.27 41.97.2 19.06-.1 37.89 2.02 56.44 6.23 5.77 1.31 11.43 3.64 16.75 6.28 17.87 8.88 35.6 18.04 53.31 27.24 15.5 8.05 28.91 18.88 41.46 30.97 18.79 18.08 35.57 37.68 50.11 59.42 22.03 32.93 44.33 65.72 67.74 97.67 13.33 18.2 29.68 33.68 48.28 47.2 28.1 20.43 59.27 34.32 91.24 46.52 17.29 6.59 35.86 9.83 53.86 14.56 7.71 2.03 15.42 4.07 23.15 6.01 11.5 2.89 23.08 2.61 34.69.7 25.94-4.25 51.9-8.36 77.82-12.76 25.56-4.34 48.2-14.64 67.06-32.92 9.8-9.49 20.68-17.87 30.44-27.39 7.12-6.94 13.71-14.56 19.69-22.51 13.5-17.93 15.54-37.68 7.76-58.58a651 651 0 01-4.05-11.2c-.08-.22.15-.56.32-1.11zM1316.15 1187.89l17.26-4.93c0 8.3-.27 15.77.07 23.21.4 8.97.76 18 2.13 26.85 2.47 15.97 10.86 28.6 24.45 37.26 11.78 7.5 24.07 14.2 36.09 21.31 7.43 4.4 15.01 8.59 22.12 13.47 11.88 8.16 24.35 14.95 38.12 19.36 3.74 1.2 7.42 2.96 10.73 5.09 16.88 10.87 34.75 19.71 53.8 25.97 19.58 6.44 39.07 13.4 59.04 18.32 22.89 5.64 46.2 10.48 70.02 8.74 18.22-1.33 36.37-3.81 54.53-5.96 6.26-.74 12.51-1.76 18.66-3.12 6.12-1.36 12.4-2.67 18.11-5.13 17.41-7.52 34.66-15.41 51.83-23.49 15.59-7.33 28.32-18.41 40.03-30.97 19.73-21.18 39.92-41.93 59.89-62.89 2.98-3.13 6.11-6.18 8.66-9.64 17.83-24.08 35.68-48.14 53.2-72.44 10.97-15.21 19.21-31.78 24.39-49.99 6.01-21.14 20.37-36.52 37.77-48.85 12.72-9.01 27.45-9.14 42.27-5.65 20.55 4.83 39.84 12.91 58.52 22.55 9.46 4.88 19.04 9.58 28.21 14.97 5.17 3.04 9.92 2.86 15.13.99 14.26-5.12 27.01-12.89 38.94-22.08 18.2-14.02 36.25-28.25 54.5-42.2 3.38-2.58 7.23-4.89 11.23-6.26 7.47-2.56 13.28 0 19.14 8.03-2.74 2.15-5.47 4.41-8.32 6.49-16.11 11.79-32.46 23.27-48.3 35.42-9.75 7.47-18.71 15.96-28.06 23.95-6.68 5.71-6.47 8.99 1.56 13.19 22.12 11.57 44.54 22.56 66.43 34.53 10.45 5.71 20.04 13.01 29.84 19.87 2.67 1.87 4.88 4.55 6.91 7.15 2.9 3.72 3.35 8.18 1.22 12.24-2.33 4.44-6.49 7.05-11.61 5.97-5.15-1.09-10.4-2.51-15.11-4.8-18.56-9.01-36.82-18.64-55.42-27.57-7.76-3.72-16.11-6.2-24.14-9.36-5.24-2.06-9.61-.49-13.99 2.49-8.94 6.1-12.53 15.08-14.59 25.19-4.04 19.89-8.23 39.76-12.7 59.55-1.16 5.12-3.57 9.97-5.51 14.9-1.58 4.02-4.53 7.26-8.87 6.83-4.5-.45-6.11-4.73-7.05-8.72-3.03-12.77-3.58-25.72-1.48-38.64 1.17-7.19 3.2-14.24 5.06-21.3 2.9-11.03 4.4-22.12 3.14-33.56-.65-5.94-.82-11.95-.82-17.93 0-14.18-5.49-24.74-18.27-31.91-21.91-12.28-44.56-22.3-69.19-27.83-15.89-3.57-28.77.02-39.23 12.78-7.23 8.81-13.53 18.01-18.04 28.57-8.65 20.28-19.63 39.37-32.83 56.99-22.36 29.84-44.29 60.09-69.98 87.2-21.06 22.22-42.66 43.99-64.96 64.96-10.08 9.48-21.82 17.65-33.9 24.47-33.5 18.91-68.86 33.63-107.24 38.89-20.73 2.84-41.77 4.11-62.7 4.47-10.09.17-20.27-3.32-30.37-5.32-21.54-4.26-43.04-8.76-64.6-12.92-22.88-4.41-43.58-14.08-63.68-25.43-26.95-15.22-54.02-30.22-81.02-45.34-2.32-1.3-4.64-2.64-6.75-4.24-14.59-11.07-29.11-22.22-43.68-33.32-7.65-5.83-12.86-13.25-15.84-22.45-4.05-12.5-6.01-25.1-4.92-38.33.78-9.51.15-19.14.15-29.66zM1965.03 1405.13c-1.98 1.16-2.85 2.01-3.79 2.09-.67.06-2.11-1.1-2.03-1.39.3-1.07.9-2.54 1.75-2.83.71-.25 1.92.93 4.07 2.13z"/>
</svg>