<svg xmlns="http://www.w3.org/2000/svg" width="2351" height="2351">
    <path d="M0 0h2351v2351H0V0zm2047.43 809.79c1.28-3.93 2.2-7.72 3.74-11.23 2.67-6.08 5.92-11.92 8.59-18 3.38-7.68.2-13.79-7.93-15.86-6.87-1.75-12.99 1.06-17.13 8.85-9.51 17.9-18.94 35.85-27.86 54.05-2.73 5.57-5.06 11.95-5.24 18.03-.59 19.8-7.03 37.83-14.87 55.55-7.16 16.2-12.53 32.93-15.9 50.33-5.06 26.13-10.61 52.18-15.35 78.37-2.28 12.61-5.47 20.91-25.56 24.75-9.46 1.81-18.9 3.81-28.21 6.26-18.98 4.99-37.95 10.06-56.76 15.68-7.58 2.26-14.73 5.99-22.05 9.14-4.25 1.83-8.26 4.39-12.66 5.65-21.41 6.13-42.91 11.96-64.39 17.83-1.58.43-3.35.15-4.94.57-8 2.12-16.43 3.38-23.84 6.81-9.84 4.54-19.85 7.44-30.5 8.88-4.56.62-8.98 2.25-13.44 3.5-7.98 2.24-15.98 4.46-23.92 6.84-7.28 2.19-14.56 4.41-21.72 6.95-6.23 2.21-12.21 5.13-18.46 7.27-7.86 2.68-15.9 4.8-23.82 7.31-10.15 3.22-20.04 7.76-30.42 9.61-14.86 2.66-28.89 7.52-43.11 12.19-26.53 8.71-53.21 17.04-80.06 24.7-30.07 8.57-60.58 15.6-90.55 24.49-22.38 6.63-44.59 13.34-67.96 15.55-6.21.59-12.47 2.27-18.33 4.45-5.49 2.05-7.23 6.89-5.77 12.23 1.57 5.75 5.91 8.75 11.86 7.79 11.49-1.85 23.07-3.4 34.41-5.97 18.8-4.27 37.42-9.28 56.14-13.91 50.03-12.38 100.48-23 149.55-39.26 33.45-11.09 67.67-19.87 101.45-29.97 70.76-21.15 141.52-42.31 212.16-63.84 28.01-8.54 55.67-18.09 84.58-23.57 17.61-3.34 34.91-8.38 52.23-13.09 14.88-4.04 23.94-14.51 27.31-29.07 4.88-21.05 8.76-42.34 12.88-63.57 1.52-7.82 1.2-16.24 3.98-23.51 7.49-19.55 16.11-38.67 24.56-57.84.9-2.04 3.61-4.57 5.47-4.56 1.88.01 4.54 2.53 5.48 4.58 3.03 6.65 5.16 13.71 8.15 20.37 2.17 4.82 4.88 9.47 7.93 13.79 1.1 1.55 4.32 3.07 5.8 2.52 2.07-.77 3.9-3.26 4.92-5.44.74-1.6.4-3.99-.12-5.84-2.9-10.21-5.71-20.47-9.13-30.52-2.79-8.17-6.79-15.92-9.56-24.1-3.09-9.13-1.75-13.85 6.28-18.82 8.71-5.39 18.16-9.56 27.24-14.34 7.61-4 15.5-7.61 22.64-12.35 5.74-3.81 6.91-10.36 4.42-15.92-2.46-5.51-6.52-7.49-14.1-6.4-5.59.81-11.09 2.32-16.69 3.01-6.78.83-13.69 2.37-21.45-.95zm-951.21 435.29c-5.46-8.5-6.01-9.04-12.89-7.94-10.19 1.62-20.55 2.83-30.41 5.66-44.8 12.89-90.59 14.1-136.66 12.57-22.29-.74-44.57-2.15-66.87-2.65-15.29-.34-30.76-.93-45.85.95-15.93 1.99-31.68 3.19-47.72 2.71-12.25-.37-24.54.89-36.81 1.43-9.63.43-19.3 1.61-28.88 1.13-15.28-.77-30.58-2.12-45.75-4.17-41.74-5.65-83.62-6.16-125.63-4.79-12.96.42-25.96-.19-38.93-.77-6.27-.28-12.26-2.68-13.99-9.35-4.34-16.71-8.74-33.46-11.83-50.43-3.22-17.65-4.27-35.69-7.44-53.35-7.11-39.67-13.92-79.33-15.78-119.7-.45-9.87 2.53-17.66 10.09-23.68 7.02-5.6 14.26-10.91 21.4-16.34 3.18-2.41 6.63-4.54 9.52-7.25 6-5.63 4.45-12.98-3.37-15.5-3.05-.98-6.69-1.45-9.76-.78-5.8 1.27-11.54 3.16-17.02 5.46-7.03 2.96-13.76 6.64-20.66 9.91-8.5 4.02-16.09 2.8-22.74-4.06-5.1-5.26-10.09-10.67-15.63-15.43-3.16-2.72-7.12-5.16-11.11-6.1-5.19-1.22-10.88-.61-14.52 4.21-3.57 4.73-.04 8.77 2.14 12.81.16.29.34.57.51.86 7.57 13.26 7.15 13.93-7.65 17.05-2.88.61-6.84 2.56-7.7 4.86-1.5 4.02 2.29 6.73 5.72 8.1 5.21 2.08 10.6 3.91 16.07 5.05 4.52.94 9.27.75 13.92 1 10.18.54 12.53 2.52 12.84 12.44 1.19 38.57 9.58 75.76 20.97 112.42.79 2.53 1.3 5.19 1.52 7.83 1.49 17.25 3.51 34.48 4.12 51.76.76 21.5 3.52 42.41 12.45 62.19 2.31 5.12 2.36 10.26.15 15.49-1.03 2.43-1.75 5.03-2.28 7.63-.91 4.51.76 8.39 5.09 9.64 14.68 4.24 29.39 9 44.86 2.85 3.93-1.56 8.31-2.6 12.52-2.76 19.63-.74 39.32-2.18 58.89-1.3 25.9 1.17 51.74 3.96 77.55 6.61 41.58 4.27 83.17 1.88 124.74.44 14.94-.52 29.8-3.3 44.73-3.66 22.63-.55 45.29-.05 67.93.32 25.63.42 51.26 1.52 76.89 1.71 36.91.26 72.59-8.62 108.42-15.94 9.38-1.92 18.6-5.16 27.48-8.79 5.97-2.43 11.22-6.61 17.35-10.36z"
          fill="transparent"/>
    <path d="M2047.43 809.79c7.76 3.33 14.67 1.79 21.45.95 5.6-.69 11.1-2.21 16.69-3.01 7.58-1.09 11.64.89 14.1 6.4 2.49 5.56 1.31 12.11-4.42 15.92-7.14 4.73-15.03 8.34-22.64 12.35-9.09 4.78-18.54 8.96-27.24 14.34-8.03 4.97-9.37 9.69-6.28 18.82 2.77 8.17 6.77 15.93 9.56 24.1 3.43 10.04 6.23 20.3 9.13 30.52.52 1.85.87 4.24.12 5.84-1.02 2.18-2.85 4.67-4.92 5.44-1.48.55-4.7-.97-5.8-2.52-3.05-4.32-5.76-8.97-7.93-13.79-2.99-6.67-5.12-13.72-8.15-20.37-.93-2.05-3.59-4.57-5.48-4.58-1.86-.01-4.57 2.51-5.47 4.56-8.45 19.17-17.07 38.29-24.56 57.84-2.79 7.28-2.47 15.7-3.98 23.51-4.12 21.22-7.99 42.51-12.88 63.57-3.38 14.55-12.44 25.02-27.31 29.07-17.32 4.71-34.62 9.75-52.23 13.09-28.91 5.48-56.57 15.03-84.58 23.57-70.65 21.53-141.4 42.69-212.16 63.84-33.79 10.1-68 18.88-101.45 29.97-49.06 16.26-99.52 26.89-149.55 39.26-18.72 4.63-37.34 9.65-56.14 13.91-11.34 2.57-22.91 4.12-34.41 5.97-5.95.96-10.29-2.04-11.86-7.79-1.46-5.35.28-10.18 5.77-12.23 5.86-2.19 12.12-3.87 18.33-4.45 23.37-2.21 45.58-8.92 67.96-15.55 29.97-8.88 60.48-15.91 90.55-24.49 26.85-7.66 53.53-15.99 80.06-24.7 14.23-4.67 28.25-9.53 43.11-12.19 10.38-1.85 20.27-6.39 30.42-9.61 7.92-2.51 15.96-4.63 23.82-7.31 6.25-2.14 12.23-5.06 18.46-7.27 7.16-2.54 14.44-4.76 21.72-6.95 7.94-2.39 15.93-4.6 23.92-6.84 4.46-1.25 8.89-2.88 13.44-3.5 10.65-1.44 20.66-4.34 30.5-8.88 7.42-3.42 15.84-4.69 23.84-6.81 1.59-.42 3.36-.14 4.94-.57 21.48-5.87 42.98-11.7 64.39-17.83 4.4-1.26 8.41-3.82 12.66-5.65 7.31-3.15 14.46-6.87 22.05-9.14 18.8-5.61 37.77-10.69 56.76-15.68 9.31-2.45 18.75-4.45 28.21-6.26 20.08-3.84 23.27-12.14 25.56-24.75 4.74-26.19 10.28-52.23 15.35-78.37 3.37-17.4 8.73-34.13 15.9-50.33 7.83-17.72 14.28-35.75 14.87-55.55.18-6.08 2.51-12.47 5.24-18.03 8.92-18.2 18.35-36.15 27.86-54.05 4.14-7.79 10.25-10.6 17.13-8.85 8.13 2.07 11.31 8.18 7.93 15.86-2.68 6.08-5.92 11.91-8.59 18-1.54 3.51-2.45 7.29-3.74 11.23zM1096.22 1245.08c-6.13 3.74-11.39 7.92-17.35 10.36-8.89 3.63-18.1 6.88-27.48 8.79-35.83 7.32-71.51 16.2-108.42 15.94-25.63-.18-51.26-1.29-76.89-1.71-22.64-.37-45.3-.86-67.93-.32-14.93.36-29.8 3.14-44.73 3.66-41.57 1.44-83.16 3.82-124.74-.44-25.81-2.65-51.65-5.44-77.55-6.61-19.57-.88-39.27.56-58.89 1.3-4.21.16-8.59 1.2-12.52 2.76-15.47 6.14-30.17 1.39-44.86-2.85-4.34-1.25-6-5.13-5.09-9.64.52-2.59 1.25-5.19 2.28-7.63 2.21-5.24 2.16-10.38-.15-15.49-8.94-19.78-11.7-40.69-12.45-62.19-.61-17.28-2.63-34.52-4.12-51.76-.23-2.64-.74-5.31-1.52-7.83-11.39-36.65-19.78-73.85-20.97-112.42-.31-9.93-2.66-11.9-12.84-12.44-4.65-.25-9.41-.06-13.92-1-5.48-1.14-10.86-2.98-16.07-5.05-3.43-1.37-7.22-4.08-5.72-8.1.86-2.3 4.82-4.25 7.7-4.86 14.8-3.12 15.22-3.79 7.65-17.05-.17-.29-.35-.57-.51-.86-2.17-4.04-5.71-8.07-2.14-12.81 3.63-4.82 9.33-5.43 14.52-4.21 3.98.94 7.94 3.38 11.11 6.1 5.54 4.76 10.54 10.17 15.63 15.43 6.65 6.86 14.23 8.08 22.74 4.06 6.91-3.27 13.63-6.95 20.66-9.91 5.48-2.31 11.22-4.2 17.02-5.46 3.07-.67 6.71-.21 9.76.78 7.81 2.52 9.37 9.88 3.37 15.5-2.89 2.71-6.34 4.84-9.52 7.25-7.15 5.43-14.39 10.75-21.4 16.34-7.56 6.03-10.54 13.81-10.09 23.68 1.86 40.37 8.67 80.03 15.78 119.7 3.17 17.66 4.22 35.7 7.44 53.35 3.09 16.97 7.49 33.72 11.83 50.43 1.73 6.67 7.73 9.07 13.99 9.35 12.96.58 25.97 1.19 38.93.77 42-1.37 83.88-.86 125.63 4.79 15.17 2.05 30.47 3.4 45.75 4.17 9.58.49 19.25-.7 28.88-1.13 12.27-.54 24.57-1.8 36.81-1.43 16.04.48 31.79-.72 47.72-2.71 15.09-1.88 30.57-1.3 45.85-.95 22.3.5 44.57 1.91 66.87 2.65 46.06 1.53 91.86.31 136.66-12.57 9.87-2.84 20.23-4.04 30.41-5.66 6.88-1.09 7.43-.56 12.89 7.94z"/>
</svg>