<svg xmlns="http://www.w3.org/2000/svg" width="2351" height="2351">
    <path d="M2351 2351H0V0h2351v2351zm-757.68-1238.96h-1.02c0-22.29.46-44.6-.13-66.87-.56-21.02-3.2-41.79-12.52-61.14-1.27-2.64-1.64-5.75-2.22-8.68-3.45-17.29-6.71-34.62-10.28-51.88-4.06-19.66-9.69-38.63-22.44-54.88-7.58-9.66-14.39-19.94-21.12-30.23-5-7.64-10.49-14.83-18.53-19.21-12.25-6.69-24.86-12.7-35.63-21.83-1.7-1.44-4.23-1.88-6.29-2.94-9.43-4.88-19.39-9-28.1-14.94-13.7-9.34-28.33-16.26-44.34-19.85-25.63-5.74-51.39-10.9-77.16-15.92-9.11-1.77-18.66-4.26-27.61-3.16-17.49 2.13-34.49-.64-51.66-1.97-27.6-2.13-55.13-3.42-82.68.8-15.77 2.42-31.61 4.91-47.51 5.86-17.53 1.05-32.97 6.44-47.34 16.34-4.42 3.05-10.26 5.55-15.48 5.61-10.97.14-20.97 2.86-30.82 7.18-10.35 4.54-20.82 8.81-31.25 13.17-17.69 7.41-32.36 18.6-42.08 35.31-5.71 9.81-10.95 19.76-19.75 27.32-1.92 1.64-2.92 4.38-4.26 6.66-2.87 4.87-5.3 10.04-8.58 14.62-22.27 31.09-31.67 67.1-39.36 103.65-3.13 14.88-2.5 30.54-9.27 44.7-.41.85-.28 1.96-.39 2.96-3.1 27.74-6.39 55.47-9.23 83.24-1.62 15.85-2.95 31.89-.14 47.66 2.28 12.76 1.31 25-.97 37.57-3.06 16.92-7.07 33.87-3.71 51.36.93 4.86.91 9.94.91 14.92.02 29.73-6.15 58.12-19.59 84.69-3.09 6.12-3.28 11.38-1.38 17.97 2.25 7.84 2.91 16.27 3.3 24.49.48 10.26-.23 20.57-.05 30.85.34 18.93 1.07 37.85 1.36 56.78.05 3.58-.81 7.3-1.93 10.73-1.86 5.65-.04 9.62 4.42 13.04 8.07 6.2 16.81 10.71 27.11 11.72 8.6.85 17.2 1.67 25.78 2.64 35.37 3.97 70.64 9.21 106.42 7.61 6.27-.28 12.6.32 18.88.86 18.55 1.6 37.08 3.47 55.64 5.04 12.63 1.07 25.05 2.68 36.73 8.21 3.84 1.82 8.21 2.96 12.45 3.39 15.18 1.55 30.38 3.01 45.62 3.86 17.27.96 34.59.97 51.86 1.86 16.92.87 33.87 1.81 50.7 3.68 15.18 1.69 30.16 5.17 45.33 6.98 14.5 1.73 29.15 2.14 43.71 3.44 34.14 3.07 67.95 7.75 101.14 17.02 19.4 5.42 39.44 4.68 59.23-.37 10.88-2.77 15.74-9.97 18.16-20.14 1.84-7.73 4.36-15.31 6.69-22.92 3.4-11.09 6.84-22.17 10.38-33.22.9-2.81 2.18-5.52 3.45-8.19 7.7-16.26 15.12-32.66 18.28-50.51 1.38-7.82 1.42-15.86 2.53-23.73 2.52-17.78 5.42-35.51 7.97-53.29 1.08-7.53.52-15.5 2.76-22.63 4.72-15.02 8.17-30.15 9.17-45.85 1.29-20.23 2.82-40.45 3.74-60.7.42-9.28-.7-18.62-.57-27.92.43-30.28 1.11-60.56 1.7-90.84z"
          fill="transparent"/>
    <path d="M1593.32 1112.04c-.59 30.28-1.27 60.56-1.7 90.84-.13 9.3.99 18.64.57 27.92-.92 20.25-2.45 40.47-3.74 60.7-1 15.7-4.45 30.83-9.17 45.85-2.24 7.12-1.67 15.09-2.76 22.63-2.55 17.78-5.45 35.51-7.97 53.29-1.11 7.87-1.15 15.92-2.53 23.73-3.16 17.85-10.58 34.25-18.28 50.51-1.27 2.68-2.54 5.38-3.45 8.19-3.55 11.05-6.99 22.12-10.38 33.22-2.33 7.61-4.85 15.19-6.69 22.92-2.42 10.17-7.28 17.37-18.16 20.14-19.79 5.05-39.83 5.79-59.23.37-33.19-9.27-67-13.96-101.14-17.02-14.56-1.31-29.21-1.72-43.71-3.44-15.17-1.81-30.15-5.29-45.33-6.98-16.83-1.88-33.78-2.81-50.7-3.68-17.27-.89-34.59-.9-51.86-1.86-15.23-.85-30.44-2.3-45.62-3.86-4.23-.43-8.61-1.57-12.45-3.39-11.67-5.53-24.09-7.13-36.73-8.21-18.56-1.58-37.09-3.44-55.64-5.04-6.27-.54-12.61-1.14-18.88-.86-35.78 1.6-71.05-3.64-106.42-7.61-8.58-.96-17.18-1.79-25.78-2.64-10.29-1.02-19.04-5.53-27.11-11.72-4.46-3.42-6.28-7.39-4.42-13.04 1.13-3.43 1.99-7.15 1.93-10.73-.29-18.93-1.02-37.85-1.36-56.78-.18-10.28.53-20.59.05-30.85-.39-8.22-1.04-16.65-3.3-24.49-1.89-6.59-1.71-11.85 1.38-17.97 13.44-26.58 19.61-54.96 19.59-84.69 0-4.98.02-10.07-.91-14.92-3.36-17.49.64-34.44 3.71-51.36 2.28-12.58 3.24-24.81.97-37.57-2.81-15.77-1.48-31.8.14-47.66 2.84-27.77 6.13-55.5 9.23-83.24.11-.99-.02-2.1.39-2.96 6.78-14.16 6.14-29.82 9.27-44.7 7.69-36.55 17.09-72.56 39.36-103.65 3.28-4.57 5.71-9.75 8.58-14.62 1.34-2.28 2.35-5.01 4.26-6.66 8.81-7.56 14.05-17.51 19.75-27.32 9.72-16.71 24.39-27.9 42.08-35.31 10.43-4.36 20.9-8.63 31.25-13.17 9.85-4.32 19.84-7.04 30.82-7.18 5.22-.07 11.06-2.57 15.48-5.61 14.36-9.9 29.81-15.28 47.34-16.34 15.9-.96 31.73-3.45 47.51-5.86 27.55-4.22 55.09-2.94 82.68-.8 17.17 1.33 34.17 4.1 51.66 1.97 8.95-1.09 18.51 1.39 27.61 3.16 25.78 5.02 51.54 10.18 77.16 15.92 16.01 3.59 30.65 10.51 44.34 19.85 8.71 5.94 18.67 10.05 28.1 14.94 2.06 1.07 4.59 1.5 6.29 2.94 10.77 9.13 23.37 15.15 35.63 21.83 8.04 4.39 13.53 11.57 18.53 19.21 6.73 10.28 13.54 20.57 21.12 30.23 12.75 16.25 18.38 35.22 22.44 54.88 3.57 17.26 6.83 34.59 10.28 51.88.58 2.93.95 6.04 2.22 8.68 9.33 19.35 11.96 40.12 12.52 61.14.6 22.28.13 44.58.13 66.87h1.02zm-725.34 39.65v35.63c-.58 8.95-.8 17.94-1.82 26.84-2 17.47-5.8 34.76-4.41 52.51.54 6.93 1.71 13.88 1.51 20.79-.47 16.44-3.21 32.45-13.28 46.14-4.78 6.49-6.54 13.4-6.14 21.47.88 17.91 2.58 35.97 1.15 53.74-1.59 19.68-1.04 39.09.65 58.61.75 8.66 3.9 15.15 13.77 16.42 5.23.67 10.29 2.8 15.52 3.42 20.08 2.39 40.16 5.1 60.33 6.4 16.14 1.04 32.4.19 48.6.21 7.31.01 14.71-.56 21.93.32 16.77 2.05 33.5 4.55 50.17 7.36 15.01 2.54 30.06 5.14 44.8 8.87 8.33 2.1 16.29 4.76 25.06 5.59 29.77 2.81 59.52 5.46 89.44 5.36 21.62-.07 43.33.57 64.45 4.82 26.74 5.38 53.68 8.86 80.75 10.75 31.57 2.2 62.47 8.07 93.48 13.6 11.08 1.98 22.26 3.39 33.43 4.81 7.51.95 12.71-2.29 15.92-9.26 4.57-9.93 10.72-19.26 10.34-30.88-.06-1.86 1.15-3.77 1.8-5.65 9.82-28.57 19.83-57.08 29.37-85.75 2.92-8.77 5.13-17.87 6.59-26.99 1.83-11.45 2.72-23.07 3.68-34.64.41-4.95-.08-9.97-.08-14.96 0-3.55-.48-7.24.31-10.62 2.59-11.05 4.63-22.11 4.14-33.54-.14-3.3.31-6.64.6-9.95 1.11-12.56 3.18-25.11 3.24-37.67.33-65.94.16-131.88.14-197.82 0-7.33.55-14.75-.44-21.96-3.6-26.26-6.66-52.67-11.96-78.6-5.93-28.97-13.55-57.64-31-82.51-4.95-7.06-8.74-14.92-13.31-22.25-5.69-9.13-12.75-17.08-21.92-22.88-12.93-8.18-25.82-16.44-38.99-24.22-32.81-19.38-66.81-34.97-105.34-40.31-28.69-3.97-57.45-4.99-86.19-7.18-11.25-.86-22.54-1.3-33.74-2.62-16.26-1.91-32.37-2.66-48.65.15-9.11 1.57-18.48 1.77-27.75 2.23-15.92.78-31.85 1.34-47.78 1.85-5.04.16-9.26 1.1-10.55 7.59 2.57 2.64 5.73 5.18 7.91 8.39 1.28 1.89 1.84 5.14 1.12 7.23-.51 1.51-3.59 2.76-5.64 2.97-2.54.26-5.26-.46-7.8-1.15-11.75-3.2-23.01-2.36-33.54 4.02-4.89 2.97-9.29 3.83-14.9.99-7.22-3.65-14.88-3.17-21.7 1.81-7.65 5.58-16.13 9.07-25.31 11.29-7.89 1.9-14.34 6.24-20.5 11.73-14.23 12.69-22.17 29.77-32.53 45.11-5.52 8.18-8.17 18.3-13.66 26.5-13.59 20.29-20.91 42.84-26.32 66.28-2.24 9.7-4.24 19.48-7.2 28.96-2.97 9.52-5.6 18.87-6.61 28.97-2.47 24.71-6.27 49.29-9.46 73.93-.77 5.91-1.76 11.85-1.82 17.79-.18 16.65.07 33.3.15 49.96z"
          fill="#050504"/>
    <path d="M867.98 1151.69c-.08-16.65-.33-33.31-.15-49.96.06-5.94 1.05-11.88 1.82-17.79 3.2-24.64 6.99-49.22 9.46-73.93 1.01-10.1 3.64-19.45 6.61-28.97 2.96-9.48 4.97-19.27 7.2-28.96 5.41-23.43 12.73-45.99 26.32-66.28 5.49-8.21 8.14-18.33 13.66-26.5 10.36-15.34 18.3-32.42 32.53-45.11 6.15-5.49 12.6-9.83 20.5-11.73 9.17-2.21 17.66-5.71 25.31-11.29 6.82-4.97 14.47-5.46 21.7-1.81 5.61 2.83 10.01 1.98 14.9-.99 10.53-6.39 21.79-7.22 33.54-4.02 2.54.69 5.26 1.41 7.8 1.15 2.05-.21 5.13-1.46 5.64-2.97.71-2.09.16-5.34-1.12-7.23-2.17-3.21-5.34-5.75-7.91-8.39 1.29-6.49 5.51-7.43 10.55-7.59 15.93-.51 31.86-1.07 47.78-1.85 9.27-.45 18.64-.65 27.75-2.23 16.29-2.81 32.4-2.06 48.65-.15 11.19 1.31 22.49 1.76 33.74 2.62 28.74 2.19 57.51 3.21 86.19 7.18 38.54 5.34 72.54 20.93 105.34 40.31 13.17 7.78 26.06 16.04 38.99 24.22 9.16 5.8 16.23 13.75 21.92 22.88 4.57 7.34 8.36 15.2 13.31 22.25 17.45 24.87 25.07 53.54 31 82.51 5.31 25.93 8.37 52.34 11.96 78.6.99 7.2.44 14.63.44 21.96.02 65.94.19 131.88-.14 197.82-.06 12.56-2.13 25.11-3.24 37.67-.29 3.31-.74 6.65-.6 9.95.49 11.43-1.55 22.48-4.14 33.54-.79 3.38-.31 7.07-.31 10.62 0 4.99.49 10.01.08 14.96-.96 11.57-1.85 23.19-3.68 34.64-1.46 9.12-3.67 18.22-6.59 26.99-9.53 28.67-19.54 57.18-29.37 85.75-.65 1.88-1.86 3.79-1.8 5.65.38 11.63-5.77 20.95-10.34 30.88-3.21 6.97-8.41 10.22-15.92 9.26-11.17-1.42-22.35-2.83-33.43-4.81-31.02-5.53-61.91-11.4-93.48-13.6-27.07-1.89-54.01-5.37-80.75-10.75-21.12-4.25-42.83-4.89-64.45-4.82-29.92.1-59.67-2.55-89.44-5.36-8.78-.83-16.74-3.49-25.06-5.59-14.74-3.73-29.79-6.33-44.8-8.87-16.66-2.81-33.39-5.32-50.17-7.36-7.21-.88-14.61-.3-21.93-.32-16.2-.03-32.46.82-48.6-.21-20.16-1.3-40.25-4.01-60.33-6.4-5.24-.62-10.29-2.75-15.52-3.42-9.88-1.27-13.02-7.76-13.77-16.42-1.69-19.52-2.24-38.93-.65-58.61 1.44-17.77-.27-35.83-1.15-53.74-.4-8.07 1.37-14.98 6.14-21.47 10.07-13.69 12.81-29.7 13.28-46.14.2-6.91-.97-13.86-1.51-20.79-1.38-17.75 2.42-35.05 4.41-52.51 1.02-8.9 1.24-17.89 1.81-26.84.53-1.16 1.55-2.34 1.51-3.49-.4-10.72-.98-21.43-1.51-32.15z"
          fill="replace"/>
</svg>