<svg xmlns="http://www.w3.org/2000/svg" width="2351" height="2351">
    <path d="M0 0h2351v2351H0V0zm1131.84 806.29l-.06-1.42c-1 0-2 .04-3 0-25.03-1.25-49.81.94-74.61 4.43-39.16 5.51-78.46 9.99-117.68 15.07-54.66 7.09-109.3 14.28-163.93 21.61-5.88.79-11.76 2.38-17.31 4.48-5.87 2.22-8.01 6.01-6.86 11.68 3.9 19.17-.97 36.88-8.12 54.38-2.37 5.81-4.2 11.89-5.8 17.97-2.38 9-4.42 18.09-6.45 27.17-3.26 14.6-7.33 29.09-9.38 43.86-5.58 40.15-9.48 80.49-11.78 120.99-1.51 26.58-4.44 52.99-12.27 78.63-3.36 10.99-2.76 22.34-2.73 33.66.02 6.86-.61 13.78-1.56 20.58-1.24 8.88-3.47 17.62-4.61 26.5-3.51 27.38-5.75 54.86-5.67 82.51.02 5.24-1.68 10.46-2.19 15.73-.6 6.2-1.05 12.44-1.04 18.67.01 4.63 1.06 9.25 1.33 13.89 1.38 23.55 2.48 47.12 4.01 70.66 1.47 22.67 18.48 42.98 40.5 47.48 14.65 3 29.47 3.66 44.59 1.62 30.97-4.19 61.97-8.28 93.38-7.97 9.93.1 19.88-1.46 29.83-2.23 23.53-1.82 47.03-4.57 70.59-5.18 29.61-.76 59.27.13 88.91.57 7.95.12 15.9 1.09 23.83 1.85 9.93.96 19.81 2.44 29.75 3.09 14.93.98 30.04.37 44.82 2.36 24.16 3.24 48.37 3.78 72.64 4.66 25.55.93 51.13 2.61 76.54 5.35 38 4.09 75.87 9.13 114.23 9.06 12.2-.02 24.4 2.26 36.59 3.56 10.54 1.13 21.06 3.39 31.59 3.38 42.92-.05 85.85-.62 128.77-1.3 28.03-.45 55.53-5.01 82.62-12.1 9.52-2.49 11.99-5.51 12.19-15.45.79-37.62 6.33-74.76 11-112 1.9-15.17 3.9-30.37 4.71-45.61 1.2-22.55.85-45.18 2.16-67.72 1.49-25.53 4.18-51 6.16-76.5 1.08-13.91 1.94-27.85 2.61-41.79.77-15.92 2.89-32.01 1.49-47.76-3.79-42.8-4.61-85.65-5.42-128.55-.19-10.24-1.72-20.47-2.72-30.69-.64-6.61-2.03-13.21-2.07-19.82-.18-33.65-5.19-66.91-8.08-100.33-1.05-12.17-6.55-22.62-17.33-28.92-29.07-17-59.56-29.63-94.18-28.67-6.63.18-13.46.29-19.89-1.07-18.75-3.96-37.7-5.62-56.57-3.03-31.48 4.33-63.03 4.42-94.67 4.06-15.29-.17-30.6-.42-45.85.37-7.48.39-14.6.29-21.54-2.41-7.07-2.76-14.44-3.46-21.57-1.61-19.92 5.17-40.18 5.12-60.49 5.01-26.65-.15-53.19 1.4-79.74 3.7-23.16 2.01-46.45 2.43-69.69 3.55z"
          fill="transparent"/>
    <path d="M1131.84 806.29c23.24-1.12 46.53-1.54 69.69-3.55 26.56-2.31 53.1-3.86 79.74-3.7 20.31.12 40.57.16 60.49-5.01 7.13-1.85 14.5-1.15 21.57 1.61 6.93 2.7 14.06 2.8 21.54 2.41 15.25-.79 30.57-.54 45.85-.37 31.63.36 63.18.27 94.67-4.06 18.86-2.59 37.81-.93 56.57 3.03 6.42 1.36 13.26 1.25 19.89 1.07 34.63-.95 65.12 11.67 94.18 28.67 10.78 6.31 16.28 16.75 17.33 28.92 2.89 33.42 7.9 66.67 8.08 100.33.04 6.61 1.42 13.21 2.07 19.82 1 10.22 2.52 20.45 2.72 30.69.81 42.89 1.63 85.75 5.42 128.55 1.4 15.75-.72 31.84-1.49 47.76-.67 13.94-1.53 27.88-2.61 41.79-1.98 25.51-4.67 50.97-6.16 76.5-1.31 22.54-.95 45.17-2.16 67.72-.81 15.24-2.81 30.44-4.71 45.61-4.67 37.24-10.22 74.37-11 112-.21 9.94-2.68 12.96-12.19 15.45-27.08 7.09-54.58 11.66-82.62 12.1-42.92.68-85.85 1.26-128.77 1.3-10.53.01-21.05-2.25-31.59-3.38-12.19-1.31-24.4-3.58-36.59-3.56-38.36.06-76.22-4.97-114.23-9.06-25.42-2.74-50.99-4.42-76.54-5.35-24.27-.88-48.48-1.41-72.64-4.66-14.78-1.98-29.88-1.38-44.82-2.36-9.94-.65-19.83-2.14-29.75-3.09-7.93-.76-15.88-1.73-23.83-1.85-29.64-.44-59.3-1.33-88.91-.57-23.56.61-47.07 3.36-70.59 5.18-9.94.77-19.89 2.33-29.83 2.23-31.4-.31-62.41 3.78-93.38 7.97-15.12 2.04-29.94 1.38-44.59-1.62-22.02-4.5-39.04-24.81-40.5-47.48-1.52-23.54-2.63-47.11-4.01-70.66-.27-4.64-1.31-9.26-1.33-13.89-.02-6.22.44-12.47 1.04-18.67.51-5.27 2.2-10.49 2.19-15.73-.09-27.65 2.16-55.13 5.67-82.51 1.14-8.88 3.37-17.63 4.61-26.5.95-6.81 1.58-13.72 1.56-20.58-.03-11.32-.62-22.68 2.73-33.66 7.83-25.64 10.76-52.05 12.27-78.63 2.29-40.5 6.2-80.84 11.78-120.99 2.05-14.77 6.12-29.26 9.38-43.86 2.03-9.09 4.07-18.18 6.45-27.17 1.61-6.08 3.43-12.15 5.8-17.97 7.15-17.5 12.02-35.21 8.12-54.38-1.15-5.67.99-9.46 6.86-11.68 5.55-2.1 11.43-3.69 17.31-4.48 54.62-7.34 109.27-14.52 163.93-21.61 39.22-5.09 78.53-9.56 117.68-15.07 24.8-3.49 49.58-5.68 74.61-4.43 1 .05 2 0 3 0l.06 1.42zm555.91 144.62c.4-.05.8-.11 1.19-.16 0-10.63 1.15-21.42-.24-31.87-2.98-22.37-7.35-44.56-11-66.84-1.58-9.67-6.36-17.35-15.59-20.33-18.31-5.91-36.66-12.83-55.54-15.6-28.96-4.24-58.43-2.86-87.68-1.42-28.21 1.38-56.39 2.75-84.65 1.52-44.6-1.94-89.17-.25-133.74 1.44-8.64.33-17.37-.08-25.92.95-20.46 2.47-41.01 2.09-61.53 2.85-11.62.43-23.24 1.01-34.83 1.96-17.57 1.44-35.04 2.36-52.69.2-9.41-1.15-19.16-.41-28.68.35-9.57.76-19.03 2.79-28.58 3.92-22.41 2.64-44.88 4.81-67.26 7.69-11.51 1.48-22.8 4.86-34.33 6.04-34.33 3.5-68.8 5.13-102.89 11.64-22.12 4.22-44.87 5.25-67.37 7.36-4.81.45-7.93 2.35-10.62 6.12-8.43 11.8-14.58 24.72-18.1 38.69-7.15 28.37-13.21 57.02-20.81 85.27-5.56 20.66-9.15 41.58-10.61 62.77-2.22 32.14-2.26 64.4-6.55 96.43-2.07 15.45-2.59 31.11-4.24 46.62-.74 6.91-2.95 13.66-3.77 20.57-2.45 20.44-4.2 40.96-6.83 61.37-6.47 50.14-11.62 100.38-11.09 151.02.21 20.02 3 39.76 8.24 59.12 2.83 10.43 9.17 17.54 19.39 21.1 15.58 5.42 31.51 7.7 48.05 6.23 33.77-3 67.57-5.64 101.35-8.48 13.57-1.14 27.12-2.64 40.7-3.56 16.91-1.15 33.96-3.56 50.73-2.37 26.01 1.85 51.81-.31 77.7-.71 3.62-.06 7.27-1.09 10.85-.84 11.26.8 22.49 1.98 33.73 3.06 25.8 2.49 51.55 5.51 77.39 7.39 26.51 1.93 53.1 2.76 79.66 4.07 15.28.75 30.65.68 45.82 2.39 43.97 4.96 87.9 9.82 132.26 9.47 9.25-.07 18.56 1.28 27.76 2.56 13.15 1.84 26.18 5.55 39.35 6.12 33.56 1.44 67.18 2.37 100.76 1.92 18.84-.26 37.67-3.43 56.44-5.76 14.83-1.84 16.98-4.52 18.31-19.67.15-1.66.65-3.36.44-4.96-2.4-18.06 2.03-35.02 8.24-51.69 2.37-6.37 3.36-12.59 1.47-19.47-1.2-4.33-.71-9.2-.59-13.82.2-7.63 1.82-15.4.79-22.82-1.01-7.23-.21-13.66 1.71-20.5 4.99-17.8 5.32-36.05 4.31-54.38-.38-6.95-.85-13.97-.27-20.87 1.3-15.53 4.13-30.94 1.57-46.64-1.21-7.45.69-14.56 4.68-21.01 3.36-5.44 3.26-11.16 2.51-17.33-.87-7.17-1.03-14.51-.7-21.74.53-11.6 2.36-23.17 2.45-34.76.12-15.61-1.3-31.23-1.32-46.85-.02-17.93 1.48-35.88.99-53.79-.45-16.56-2.46-33.08-4.13-49.59-2.04-20.14-4.44-40.25-6.69-60.37z"
          fill="#060406"/>
    <path d="M1687.75 950.91c2.25 20.12 4.65 40.22 6.69 60.37 1.67 16.5 3.68 33.03 4.13 49.59.49 17.91-1.01 35.86-.99 53.79.02 15.62 1.44 31.24 1.32 46.85-.09 11.59-1.92 23.16-2.45 34.76-.33 7.23-.17 14.57.7 21.74.75 6.17.85 11.88-2.51 17.33-3.99 6.45-5.89 13.56-4.68 21.01 2.56 15.7-.26 31.11-1.57 46.64-.58 6.9-.11 13.93.27 20.87 1.01 18.34.69 36.59-4.31 54.38-1.92 6.84-2.72 13.28-1.71 20.5 1.04 7.42-.59 15.2-.79 22.82-.12 4.62-.61 9.48.59 13.82 1.9 6.88.91 13.1-1.47 19.47-6.21 16.67-10.64 33.63-8.24 51.69.21 1.61-.29 3.3-.44 4.96-1.33 15.15-3.48 17.83-18.31 19.67-18.78 2.32-37.6 5.5-56.44 5.76-33.58.46-67.2-.48-100.76-1.92-13.18-.56-26.2-4.28-39.35-6.12-9.2-1.29-18.51-2.63-27.76-2.56-44.36.34-88.29-4.52-132.26-9.47-15.17-1.71-30.54-1.64-45.82-2.39-26.56-1.31-53.15-2.14-79.66-4.07-25.84-1.88-51.6-4.9-77.39-7.39-11.24-1.09-22.47-2.26-33.73-3.06-3.58-.26-7.23.78-10.85.84-25.89.4-51.69 2.56-77.7.71-16.77-1.19-33.83 1.22-50.73 2.37-13.58.92-27.13 2.42-40.7 3.56-33.78 2.84-67.58 5.48-101.35 8.48-16.54 1.47-32.47-.8-48.05-6.23-10.22-3.56-16.57-10.66-19.39-21.1-5.24-19.37-8.04-39.11-8.24-59.12-.53-50.64 4.62-100.87 11.09-151.02 2.63-20.41 4.38-40.93 6.83-61.37.83-6.91 3.04-13.66 3.77-20.57 1.65-15.52 2.17-31.17 4.24-46.62 4.29-32.03 4.33-64.29 6.55-96.43 1.46-21.19 5.05-42.11 10.61-62.77 7.6-28.24 13.66-56.9 20.81-85.27 3.52-13.97 9.67-26.89 18.1-38.69 2.69-3.77 5.81-5.67 10.62-6.12 22.5-2.1 45.25-3.13 67.37-7.36 34.08-6.51 68.55-8.13 102.89-11.64 11.53-1.18 22.82-4.55 34.33-6.04 22.38-2.88 44.85-5.05 67.26-7.69 9.55-1.12 19.01-3.16 28.58-3.92 9.53-.76 19.27-1.5 28.68-.35 17.65 2.16 35.12 1.24 52.69-.2 11.59-.95 23.21-1.53 34.83-1.96 20.52-.75 41.06-.37 61.53-2.85 8.55-1.03 17.28-.62 25.92-.95 44.57-1.69 89.14-3.38 133.74-1.44 28.25 1.23 56.44-.14 84.65-1.52 29.25-1.43 58.72-2.82 87.68 1.42 18.88 2.77 37.23 9.69 55.54 15.6 9.23 2.98 14.01 10.66 15.59 20.33 3.65 22.29 8.02 44.47 11 66.84 1.39 10.45.24 21.23.24 31.87-.4.05-.8.11-1.19.16z"
          fill="replace"/>
</svg>