<svg xmlns="http://www.w3.org/2000/svg" width="2351" height="2351">
    <path d="M2351 2351H0V0h2351v2351zM1265.66 745.72v.61c-20.31 0-40.62-.26-60.92.1-11.61.21-23.22 1.14-34.79 2.24-23.48 2.24-46.93 4.73-70.37 7.3-12.89 1.41-25.75 3.08-38.59 4.81-28.66 3.86-57.3 7.86-85.96 11.74-21.41 2.9-42.94 5-64.21 8.67-41.64 7.17-83.47 12.66-125.55 16.36-10.56.93-20.27 4.03-28.98 9.78-12.55 8.27-23.94 17.98-33.57 29.65-16.18 19.6-21.69 41.06-14.18 66.12 6.03 20.11 9.44 40.92 6.94 62.13-1.29 10.89-3.71 21.68-4.54 32.59-1.61 21.18-3.56 42.42-3.33 63.62.26 22.9 3.87 45.77 4.18 68.67.41 30.27 6.79 59.33 14.01 88.42 4.16 16.75 8.05 33.62 10.82 50.63 2.12 13.05 3.61 26.47 3.04 39.62-1.29 29.87-3.61 59.71-6.3 89.49-2.32 25.65 5.93 47.08 23.34 65.45 10.08 10.63 20.81 20.69 30.21 31.89 13.74 16.36 30.76 27.07 50.78 33.83 11.63 3.93 22.86 9.03 34.47 13.05 22.28 7.71 44.37 16.29 67.15 22.14 25.14 6.46 51.24 7.73 77.2 8.26 38.14.77 75.45-6.21 112.86-12.41 37.05-6.14 74.13-12.07 111.26-17.73 15.42-2.35 31.09-3.13 46.43-5.83 15.1-2.65 30.03-5.67 45.49-4.76 3.92.23 7.91-.87 11.87-1.29 5.61-.59 11.22-1.3 16.84-1.64 16.57-1 33.14-.8 49.65-3.89 29.2-5.46 58.96-4.41 88.5-5.58 12.86-.51 25.38-2.05 36.81-7.72 19.04-9.45 37.91-19.32 56.26-30.04 6.01-3.52 11.14-9.61 14.94-15.62 6.57-10.37 12.66-21.22 17.4-32.52 11.3-26.98 22.5-54.05 32.24-81.62 9.83-27.81 20.79-55.2 26.94-84.4 6.04-28.64 13.04-57.08 16.44-86.18 3.01-25.8 4.7-51.76.29-77.61-3.24-19.02-7.19-37.92-10.33-56.95-3.04-18.38-5.91-36.76-11.64-54.58-1.62-5.04-2.51-10.35-3.43-15.59-3.16-18.01-5.5-36.16-11.66-53.56-3.51-9.91-3.26-20.38-1.62-30.64 2.1-13.13 4.99-26.14 7.03-39.28 1.06-6.79 3.56-11.38 10.37-14.23 6.73-2.82 7.31-5.61 4.61-12.9-2.42-6.54-4.93-13.12-8.15-19.28-6.59-12.6-15.01-24.09-28.55-29.63-23.44-9.59-47.57-17.37-72.95-19.74-27.47-2.56-55.18-3.02-82.48-6.67-50.66-6.78-101.6-5.15-152.41-6.76-24.57-.78-49.22.9-73.84 1.46z"
          fill="transparent"/>
    <path d="M1265.66 745.72c24.62-.56 49.27-2.24 73.84-1.46 50.82 1.61 101.75-.03 152.41 6.76 27.3 3.65 55.01 4.11 82.48 6.67 25.38 2.36 49.51 10.15 72.95 19.74 13.54 5.54 21.96 17.03 28.55 29.63 3.22 6.16 5.73 12.74 8.15 19.28 2.7 7.3 2.12 10.09-4.61 12.9-6.81 2.85-9.31 7.44-10.37 14.23-2.05 13.14-4.93 26.15-7.03 39.28-1.64 10.27-1.89 20.73 1.62 30.64 6.16 17.4 8.51 35.55 11.66 53.56.92 5.24 1.81 10.55 3.43 15.59 5.73 17.82 8.6 36.19 11.64 54.58 3.15 19.03 7.09 37.93 10.33 56.95 4.41 25.86 2.72 51.81-.29 77.61-3.39 29.09-10.4 57.53-16.44 86.18-6.15 29.2-17.11 56.59-26.94 84.4-9.74 27.57-20.94 54.64-32.24 81.62-4.74 11.3-10.83 22.16-17.4 32.52-3.81 6.01-8.93 12.1-14.94 15.62-18.34 10.72-37.22 20.59-56.26 30.04-11.42 5.67-23.94 7.22-36.81 7.72-29.54 1.17-59.3.12-88.5 5.58-16.51 3.09-33.08 2.89-49.65 3.89-5.63.34-11.23 1.05-16.84 1.64-3.96.42-7.95 1.52-11.87 1.29-15.46-.91-30.39 2.1-45.49 4.76-15.34 2.7-31.01 3.47-46.43 5.83-37.12 5.67-74.21 11.59-111.26 17.73-37.4 6.2-74.72 13.18-112.86 12.41-25.96-.53-52.06-1.79-77.2-8.26-22.78-5.86-44.87-14.44-67.15-22.14-11.6-4.01-22.84-9.12-34.47-13.05-20.02-6.76-37.05-17.47-50.78-33.83-9.4-11.19-20.14-21.26-30.21-31.89-17.41-18.37-25.66-39.8-23.34-65.45 2.7-29.78 5.01-59.63 6.3-89.49.57-13.15-.92-26.57-3.04-39.62-2.76-17.02-6.66-33.89-10.82-50.63-7.22-29.09-13.6-58.15-14.01-88.42-.31-22.91-3.93-45.77-4.18-68.67-.24-21.19 1.71-42.44 3.33-63.62.83-10.92 3.25-21.7 4.54-32.59 2.51-21.21-.91-42.02-6.94-62.13-7.52-25.06-2-46.52 14.18-66.12 9.63-11.66 21.01-21.37 33.57-29.65 8.71-5.74 18.42-8.85 28.98-9.78 42.07-3.7 83.91-9.19 125.55-16.36 21.27-3.66 42.81-5.77 64.21-8.67 28.66-3.88 57.3-7.88 85.96-11.74 12.85-1.73 25.71-3.4 38.59-4.81 23.44-2.57 46.89-5.06 70.37-7.3 11.56-1.1 23.18-2.04 34.79-2.24 20.3-.36 40.61-.1 60.92-.1v-.61zm11.49 17.37l-.07-1.39c-36.2 1.85-72.43 3.25-108.59 5.7-28.84 1.96-57.65 4.8-86.38 8.01-26.76 2.98-53.42 6.94-80.11 10.49-29.33 3.9-58.75 7.22-87.95 11.93-23.64 3.81-47.13 8.37-71.13 9.41-5.29.23-10.61.98-15.8 2.02-16.55 3.31-32.73 7.77-49.69 9.96-34.9 4.5-59.6 46.54-49.14 80.12 6.8 21.83 10.65 44.12 8.3 66.92-3.24 31.4-9.26 62.51-9.58 94.21-.11 11.61-1.92 23.47-.16 34.77 2.32 14.87 4.03 29.62 3.72 44.64-.3 15.04 1.56 29.82 4.99 44.5 5.38 22.99 9.95 46.17 15.42 69.14 8.15 34.19 8.01 68.42 3.25 103.07-2.58 18.73-2.97 37.77-4.13 56.68-.76 12.36 4.06 22.66 12.33 31.63 8.35 9.05 16.81 18.02 24.7 27.47 17.9 21.45 38.23 38.97 66.96 43.78.32.05.61.27.92.37 18.88 6.41 37.65 13.19 56.68 19.14 21.92 6.85 44.17 12.59 67.2 14.25 17.21 1.24 34.48 2.98 51.69 2.62 13.87-.29 27.72-3.21 41.52-5.29 37.47-5.64 74.91-11.44 112.37-17.19 15.44-2.37 30.86-4.92 46.33-7.07 13.48-1.87 27.18-2.5 40.52-5.06 37.03-7.11 74.17-12.06 112.01-11.13 10.23.25 20.52-1.51 30.77-2.5 9.26-.89 18.48-2.45 27.76-2.89 15.29-.72 30.6-1.13 45.9-1.04 23.91.14 46.09-5.53 66.41-18.21 3.67-2.29 7.19-4.98 11.14-6.62 17.02-7.06 28.16-20.05 35.54-36.19 12.59-27.52 24.88-55.19 36.43-83.16 7.86-19.06 15.16-38.45 21.03-58.2 7-23.58 11.53-47.9 18.36-71.54 9.58-33.16 9.54-67 8.62-100.9-.3-10.88-3.01-21.71-4.84-32.53-2.73-16.07-6.49-32.02-8.22-48.19-1.29-11.99-3.28-23.63-6.6-35.19-2.84-9.88-5.6-19.91-6.91-30.07-1.92-14.97-5.39-29.36-10.68-43.48-6.62-17.67-6.66-35.73-2.2-54.02 1.95-8.03 3.31-16.29 3.95-24.53 1.75-22.28-4.81-42.65-14.76-62.34-4.2-8.3-10.22-12.67-19.15-13.91-16.13-2.25-32.21-4.99-48.38-6.93-26.4-3.16-52.8-7.05-79.31-8.4-28.83-1.47-57.46-7.04-86.5-4.59-1.63.14-3.3-.42-4.95-.44-12.28-.11-24.56-.49-36.82-.13-11.61.34-23.19 1.9-34.8 2.18-15.98.39-31.98.1-47.97.1z"
          fill="#060609"/>
    <path d="M1277.15 763.08c15.99 0 31.99.3 47.97-.1 11.61-.29 23.19-1.84 34.8-2.18 12.26-.36 24.55.02 36.82.13 1.65.01 3.33.58 4.95.44 29.03-2.45 57.67 3.12 86.5 4.59 26.51 1.35 52.91 5.24 79.31 8.4 16.17 1.94 32.24 4.68 48.38 6.93 8.93 1.25 14.95 5.61 19.15 13.91 9.95 19.68 16.51 40.05 14.76 62.34-.65 8.23-2 16.5-3.95 24.53-4.46 18.3-4.42 36.36 2.2 54.02 5.29 14.12 8.76 28.51 10.68 43.48 1.3 10.16 4.06 20.19 6.91 30.07 3.33 11.56 5.32 23.2 6.6 35.19 1.74 16.17 5.5 32.12 8.22 48.19 1.83 10.82 4.55 21.65 4.84 32.53.92 33.9.96 67.74-8.62 100.9-6.83 23.64-11.35 47.96-18.36 71.54-5.86 19.75-13.16 39.14-21.03 58.2-11.54 27.97-23.84 55.64-36.43 83.16-7.38 16.14-18.52 29.13-35.54 36.19-3.95 1.64-7.47 4.33-11.14 6.62-20.33 12.68-42.5 18.35-66.41 18.21-15.3-.09-30.62.32-45.9 1.04-9.28.44-18.5 1.99-27.76 2.89-10.25.99-20.54 2.75-30.77 2.5-37.84-.92-74.98 4.03-112.01 11.13-13.34 2.56-27.03 3.19-40.52 5.06-15.47 2.15-30.89 4.7-46.33 7.07-37.45 5.74-74.9 11.55-112.37 17.19-13.81 2.08-27.65 5-41.52 5.29-17.21.36-34.48-1.38-51.69-2.62-23.03-1.66-45.28-7.4-67.2-14.25-19.03-5.94-37.8-12.72-56.68-19.14-.31-.11-.6-.32-.92-.37-28.72-4.8-49.05-22.33-66.96-43.78-7.89-9.45-16.35-18.42-24.7-27.47-8.27-8.97-13.09-19.28-12.33-31.63 1.16-18.91 1.56-37.95 4.13-56.68 4.77-34.65 4.9-68.88-3.25-103.07-5.47-22.97-10.04-46.15-15.42-69.14-3.44-14.68-5.3-29.45-4.99-44.5.3-15.02-1.4-29.77-3.72-44.64-1.76-11.31.04-23.16.16-34.77.31-31.7 6.34-62.81 9.58-94.21 2.35-22.81-1.5-45.1-8.3-66.92-10.46-33.59 14.24-75.62 49.14-80.12 16.96-2.19 33.13-6.65 49.69-9.96 5.2-1.04 10.51-1.79 15.8-2.02 24-1.04 47.49-5.6 71.13-9.41 29.2-4.71 58.62-8.03 87.95-11.93 26.7-3.55 53.35-7.51 80.11-10.49 28.74-3.2 57.54-6.05 86.38-8.01 36.16-2.45 72.39-3.85 108.59-5.7l.07 1.39z"
          fill="replace"/>
</svg>