<svg xmlns="http://www.w3.org/2000/svg" width="2351" height="2351">
    <path d="M0 0h2351v2351H0V0zm1085.86 1587.36c6.93-1.55 13.66-2.28 19.81-4.59 12.6-4.73 25.27-8.27 38.87-7.62 1.63.08 3.29-.48 4.94-.58 7.27-.41 14.54-.79 21.81-1.12 11.6-.52 23.32-.16 34.79-1.66 17.5-2.28 34.86-4.87 52.63-4.88 10.85 0 21.99-1.58 32.5-4.35 22.32-5.88 44.97-9.09 67.85-11.32 17.88-1.74 35.77-3.37 53.6-5.56 18.8-2.32 37.54-5.2 56.29-7.94 3.93-.57 8.04-1.02 11.65-2.53 9.38-3.91 19.26-5.02 29.17-5.95 19.55-1.85 39.11-3.58 58.68-5.1 10.44-.81 16.31-6.82 19.2-16.16 1.06-3.41 1.09-7.2 1.25-10.83.64-13.96.49-27.99 1.83-41.89 2.36-24.5 5.82-48.89 8.42-73.37 3.74-35.14 4.93-70.44 3.85-105.72-1-32.96-.69-65.81 1.58-98.72 1.16-16.86-.42-33.91-.45-50.87-.05-26.28-1.12-52.66.65-78.83 1.6-23.64 3.39-47.09.46-70.68-.37-2.95-.4-6.3-1.86-8.69-4.21-6.92-7.37-13.66-4.77-22.13.67-2.18-1.04-5.09-1.61-7.67-1.65-7.44-3.46-14.85-4.87-22.34-1.71-9.12-2.83-18.35-4.65-27.45-1.69-8.48-3.56-16.96-6.09-25.22-3.49-11.4-7.2-22.79-11.77-33.79-2.09-5.05-5.68-10.12-9.94-13.49-10.63-8.44-22-15.96-33.13-23.75-15.17-10.62-33.19-13.72-50.62-16.76-20.54-3.59-40.75-9.68-61.91-9.79-6.24-.03-12.58-1.47-18.68-3.02-13.29-3.38-26.67-5.65-40.43-5.65-13.99 0-28 .16-41.96-.45-8.57-.38-17.19-1.59-25.61-3.31-8.29-1.7-16.35-2.32-24.7-.67-11.57 2.28-23.11 2.3-34.55-1.38-3.74-1.2-7.82-1.83-11.75-1.87-25.3-.26-50.63-.71-75.72 3.68-5.31.93-10.33.91-15.14-2.8-5.98-4.62-12.93-4.65-19.92-1.95-1.85.71-3.75 1.54-5.69 1.72-12.25 1.18-24.84 4.43-36.67 2.66-12.39-1.86-25.12 3.91-37.08-2.63-1.98-1.08-5.2.03-7.84.26-4.63.39-9.25.96-13.89 1.29-9.9.7-19.99.32-29.65 2.2-11.07 2.15-21.47 1.98-32.42-.77-12.43-3.12-27.93 4.02-32.85 15.44-4.42 10.27-9.12 21.4-9.44 32.28-.98 33.87-5.19 67.72-1.07 101.73 2.5 20.71-2.83 41.03-5.93 61.43-1.29 8.45-1.36 17.22-.86 25.77.75 12.61 2.87 25.14 3.75 37.75 1.18 16.9.97 33.93 2.72 50.76 3.35 32.16 5.71 64.33 4.46 96.66-.89 22.94-3.13 45.85-3.38 68.79-.45 40.29-.52 80.44-5.61 120.62-6.27 49.52-11.35 99.18-19.73 148.43-3.41 20.02-6.58 40.18-4.73 60.58.65 7.14 2.21 14.55 5.11 21.05 3.47 7.76 7.1 8.1 15.56 5.67 6.66-1.91 13.51-3.32 20.37-4.25 5.21-.71 10.6-.01 15.87-.46 14.25-1.21 28.47-3.64 42.72-3.81 14.92-.18 30.04.6 44.75 2.98 20.18 3.27 38.82-3.74 58.12-6.24 1.73-.22 3.24-2.19 4.84-3.36 1.82-1.33 3.63-2.67 6.11-4.5.94 2.32 1.59 3.96 2.7 6.71z"
          fill="transparent"/>
    <path d="M1085.86 1587.36c-1.11-2.76-1.77-4.39-2.7-6.71-2.48 1.83-4.29 3.17-6.11 4.5-1.6 1.17-3.11 3.14-4.84 3.36-19.3 2.5-37.95 9.51-58.12 6.24-14.71-2.38-29.83-3.16-44.75-2.98-14.25.17-28.47 2.6-42.72 3.81-5.27.45-10.66-.25-15.87.46-6.86.93-13.72 2.34-20.37 4.25-8.45 2.42-12.09 2.09-15.56-5.67-2.9-6.5-4.46-13.91-5.11-21.05-1.86-20.4 1.32-40.57 4.73-60.58 8.38-49.25 13.46-98.91 19.73-148.43 5.09-40.18 5.16-80.34 5.61-120.62.26-22.94 2.5-45.85 3.38-68.79 1.25-32.33-1.11-64.5-4.46-96.66-1.75-16.83-1.54-33.85-2.72-50.76-.88-12.61-3.01-25.14-3.75-37.75-.51-8.56-.43-17.32.86-25.77 3.1-20.4 8.43-40.72 5.93-61.43-4.11-34.01.1-67.86 1.07-101.73.31-10.88 5.01-22.01 9.44-32.28 4.92-11.42 20.41-18.56 32.85-15.44 10.96 2.75 21.35 2.92 32.42.77 9.66-1.88 19.75-1.49 29.65-2.2 4.64-.33 9.26-.91 13.89-1.29 2.64-.22 5.86-1.34 7.84-.26 11.95 6.54 24.69.77 37.08 2.63 11.83 1.78 24.42-1.48 36.67-2.66 1.94-.19 3.84-1.01 5.69-1.72 6.99-2.7 13.94-2.67 19.92 1.95 4.8 3.71 9.82 3.74 15.14 2.8 25.09-4.4 50.41-3.94 75.72-3.68 3.93.04 8.01.67 11.75 1.87 11.44 3.68 22.98 3.66 34.55 1.38 8.36-1.65 16.42-1.02 24.7.67 8.42 1.72 17.03 2.94 25.61 3.31 13.97.61 27.97.46 41.96.45 13.76 0 27.14 2.27 40.43 5.65 6.1 1.55 12.44 2.98 18.68 3.02 21.16.11 41.37 6.2 61.91 9.79 17.43 3.04 35.45 6.14 50.62 16.76 11.14 7.79 22.5 15.31 33.13 23.75 4.25 3.37 7.84 8.45 9.94 13.49 4.57 11 8.28 22.39 11.77 33.79 2.53 8.26 4.39 16.74 6.09 25.22 1.82 9.09 2.94 18.33 4.65 27.45 1.4 7.49 3.22 14.9 4.87 22.34.57 2.58 2.28 5.48 1.61 7.67-2.6 8.47.55 15.22 4.77 22.13 1.46 2.39 1.49 5.74 1.86 8.69 2.93 23.58 1.15 47.04-.46 70.68-1.78 26.17-.7 52.54-.65 78.83.03 16.96 1.62 34 .45 50.87-2.27 32.91-2.59 65.76-1.58 98.72 1.07 35.28-.11 70.58-3.85 105.72-2.61 24.48-6.06 48.87-8.42 73.37-1.34 13.89-1.2 27.92-1.83 41.89-.17 3.63-.2 7.41-1.25 10.83-2.89 9.35-8.76 15.35-19.2 16.16-19.58 1.53-39.14 3.25-58.68 5.1-9.91.94-19.79 2.05-29.17 5.95-3.61 1.5-7.72 1.95-11.65 2.53-18.75 2.74-37.49 5.62-56.29 7.94-17.82 2.19-35.72 3.82-53.6 5.56-22.88 2.23-45.53 5.44-67.85 11.32-10.51 2.77-21.65 4.35-32.5 4.35-17.77 0-35.13 2.59-52.63 4.88-11.47 1.5-23.19 1.14-34.79 1.66-7.27.32-14.55.71-21.81 1.12-1.65.09-3.31.65-4.94.58-13.6-.64-26.27 2.89-38.87 7.62-6.15 2.31-12.88 3.04-19.81 4.59zm503.25-539.99l.65-.05c0-2.67-.1-5.33.02-7.99.58-13.39-2.03-25.68-10.76-36.48-2.57-3.18-3.85-7.79-4.65-11.95-3.06-16.01-5.9-32.07-8.42-48.17-5.7-36.44-10.28-73.06-20.34-108.72-3.09-10.96-8.41-19.4-18.43-24.75-14.43-7.69-29.21-14.67-45.32-17.9-16.62-3.33-33.32-6.65-50.14-8.57-31.73-3.64-63.53-7.16-95.4-9.08-35.87-2.16-71.87-1.97-107.76-3.82-30.59-1.58-61.1-4.37-91.78-1.81-5.57.46-11.27-.8-16.91-1.03-6.23-.25-12.47-.22-18.7-.35-20.26-.43-40.52-.81-60.78-1.35-9.58-.25-19.19-1.54-28.72-1.06-13.6.68-27.11 3.14-40.71 3.75-13.55.61-27.14 3.13-40.78-.01-2.01-.46-5.51 1.08-6.79 2.82-3.68 5.02-7.9 10.27-9.46 16.08-2.39 8.9-3.25 18.31-3.83 27.56-.65 10.27.71 20.73-.52 30.9-2.27 18.67-1.16 37.19-.42 55.84.52 12.9-.98 25.86-1.2 38.81-.11 6.61.47 13.24.96 19.84.59 7.91 1.75 15.79 2.1 23.71.83 18.94 1.39 37.89 1.92 56.84.12 4.3-.29 8.62-.54 12.93-.83 14.27-3.53 28.72-2.17 42.77 2.73 28.26 1.17 56.52 2.15 84.76.72 20.89-1.8 41.88-2.34 62.84-.95 36.9 1.85 73.88-4.32 110.67-3.3 19.66-3.41 39.87-6.82 59.5-2.9 16.75-5.56 33.45-7.07 50.37-.98 10.94-2.28 21.86-3.77 32.74-2.35 17.15-5.3 34.22-7.36 51.39-.95 7.88-.9 15.97-.39 23.91.49 7.66 3.5 9.94 11.04 9.62 3.97-.17 7.92-.98 11.87-1.58 31.45-4.78 62.96-4.26 94.63-2.27 16.5 1.03 33.5 4.93 49.68-2.99 2.58-1.26 5.85-1.13 8.81-1.59 8.22-1.26 16.44-2.55 24.67-3.71 5.26-.74 10.56-1.21 15.83-1.89 5.18-.67 10.35-1.53 15.53-2.17 6.52-.81 13.04-1.61 19.58-2.17 4.22-.36 8.64.36 12.7-.55 15.05-3.38 30.04-5.92 45.45-2.33 1.65.39 4.13-.2 5.42-1.29 5.04-4.24 10.85-4.57 16.96-4.35 2.96.11 6.38.63 8.83-.59 10.06-5 19.84-4.43 29.88-.19 4.98 2.1 10.07 1.77 13.73-2.59 5.87-6.97 13.09-8.26 21.59-6.72 4.56.83 9.3 1.04 13.94.92 3.86-.1 7.72-.99 11.55-1.73 15.28-2.96 30.54-6 45.81-8.99 4.48-.88 8.96-1.73 13.46-2.53 5.51-.98 11.36-3.5 16.5-2.48 11.05 2.19 21.02.09 31.21-3.54 5.93-2.12 12.15-3.52 18.32-4.81 2.84-.59 6.3-1.04 8.78.05 4.61 2.01 8.37.76 12.39-1.04 17.09-7.64 34.77-10.73 53.53-8.07 4.97.7 10.71-.32 15.38-2.27 5.18-2.17 9.89-2.61 15.39-2.18 7.55.59 15.3.31 22.81-.72 8.31-1.14 12.3-5.6 13.45-13.81 1.16-8.23 1.78-16.55 2.57-24.83 1.65-17.22 2.95-34.48 4.93-51.67 3.33-28.77 7.54-57.44 6.29-86.56-.46-10.64.33-21.34-.18-31.97-.54-11.26-1.97-22.48-2.99-33.71-.45-4.97-1.45-9.98-1.13-14.91 1.15-17.93 2.7-35.84 4.2-53.74 1.86-22.25 4.14-44.54-1.34-66.6-3.2-12.87-2.71-25.7-1.11-38.69.73-5.91.96-11.94.74-17.89-.31-8.62-1.22-17.22-1.88-25.83z"
          fill="#060a08"/>
    <path d="M1589.11 1047.38c.66 8.61 1.57 17.21 1.88 25.83.21 5.95-.01 11.98-.74 17.89-1.6 12.98-2.09 25.81 1.11 38.69 5.48 22.06 3.2 44.35 1.34 66.6-1.5 17.91-3.05 35.81-4.2 53.74-.32 4.92.69 9.94 1.13 14.91 1.02 11.24 2.44 22.45 2.99 33.71.51 10.64-.27 21.33.18 31.97 1.25 29.12-2.97 57.79-6.29 86.56-1.99 17.18-3.29 34.44-4.93 51.67-.79 8.28-1.42 16.6-2.57 24.83-1.15 8.21-5.14 12.67-13.45 13.81-7.51 1.03-15.26 1.31-22.81.72-5.5-.43-10.21.01-15.39 2.18-4.67 1.95-10.42 2.98-15.38 2.27-18.76-2.66-36.44.43-53.53 8.07-4.02 1.8-7.79 3.05-12.39 1.04-2.48-1.08-5.94-.64-8.78-.05-6.18 1.29-12.39 2.69-18.32 4.81-10.19 3.63-20.16 5.73-31.21 3.54-5.13-1.02-10.98 1.51-16.5 2.48-4.49.8-8.98 1.65-13.46 2.53-15.27 2.99-30.53 6.03-45.81 8.99-3.82.74-7.68 1.63-11.55 1.73-4.64.12-9.38-.09-13.94-.92-8.5-1.54-15.72-.26-21.59 6.72-3.67 4.36-8.75 4.69-13.73 2.59-10.04-4.25-19.82-4.81-29.88.19-2.44 1.21-5.87.69-8.83.59-6.11-.22-11.92.11-16.96 4.35-1.29 1.09-3.77 1.68-5.42 1.29-15.41-3.6-30.4-1.06-45.45 2.33-4.07.92-8.48.19-12.7.55-6.54.56-13.06 1.36-19.58 2.17-5.19.64-10.35 1.5-15.53 2.17-5.27.68-10.57 1.16-15.83 1.89-8.23 1.16-16.45 2.45-24.67 3.71-2.96.45-6.23.32-8.81 1.59-16.18 7.91-33.19 4.02-49.68 2.99-31.67-1.99-63.18-2.5-94.63 2.27-3.95.6-7.9 1.41-11.87 1.58-7.54.32-10.55-1.97-11.04-9.62-.51-7.94-.55-16.03.39-23.91 2.07-17.18 5.01-34.25 7.36-51.39 1.49-10.88 2.79-21.8 3.77-32.74 1.52-16.92 4.17-33.62 7.07-50.37 3.4-19.64 3.52-39.84 6.82-59.5 6.17-36.78 3.37-73.76 4.32-110.67.54-20.96 3.06-41.95 2.34-62.84-.98-28.24.59-56.5-2.15-84.76-1.36-14.06 1.34-28.5 2.17-42.77.25-4.31.66-8.63.54-12.93-.53-18.95-1.09-37.9-1.92-56.84-.35-7.92-1.51-15.8-2.1-23.71-.5-6.6-1.08-13.23-.96-19.84.22-12.94 1.71-25.91 1.2-38.81-.74-18.64-1.85-37.17.42-55.84 1.24-10.17-.12-20.62.52-30.9.58-9.25 1.43-18.67 3.83-27.56 1.56-5.81 5.78-11.06 9.46-16.08 1.27-1.74 4.78-3.28 6.79-2.82 13.64 3.14 27.23.62 40.78.01 13.6-.61 27.11-3.07 40.71-3.75 9.53-.48 19.14.81 28.72 1.06 20.26.54 40.52.92 60.78 1.35 6.23.13 12.48.09 18.7.35 5.65.23 11.34 1.49 16.91 1.03 30.68-2.56 61.19.23 91.78 1.81 35.89 1.85 71.89 1.65 107.76 3.82 31.87 1.92 63.66 5.45 95.4 9.08 16.82 1.93 33.52 5.24 50.14 8.57 16.11 3.23 30.9 10.21 45.32 17.9 10.02 5.34 15.33 13.78 18.43 24.75 10.06 35.66 14.64 72.28 20.34 108.72 2.52 16.1 5.36 32.16 8.42 48.17.79 4.16 2.08 8.77 4.65 11.95 8.73 10.8 11.35 23.08 10.76 36.48-.12 2.66-.02 5.33-.02 7.99l-.65.05z"
          fill="replace"/>
</svg>