<svg xmlns="http://www.w3.org/2000/svg" width="2351" height="2351">
    <path d="M0 0h2351v2351H0V0zm869.62 762.69l-.11 1.39c-9.3.55-18.62.88-27.89 1.75-4.93.46-9.91 1.42-14.6 2.97-6.01 1.98-8.35 5.1-7.47 11.31 1.89 13.3-1.71 24.94-8.63 36.04-3.48 5.59-4.54 11.96-2.39 18.24 1.8 5.26 1.16 9.77-1.96 14.12-2.73 3.82-3.24 7.65-1.27 12.13 2.66 6.03 1.98 12.2.27 18.53-4.63 17.15-6.6 34.59-5.13 52.39.32 3.9.18 8.18-1.1 11.8-3.14 8.88-2.79 17.59-.62 26.5 3.71 15.2 6.77 30.44 4.65 46.29-.65 4.9-.62 10.06.11 14.95 1.35 8.95 5.1 17.44 2.66 26.98-1.26 4.93-.13 10.43-.38 15.66-.21 4.32-1.04 8.6-1.27 12.92-.69 12.69 2.86 23.64 13.35 31.67 1.84 1.41 3.43 3.15 5.06 4.81 7.19 7.34 13.88 15.24 21.6 21.98 34.09 29.79 69.09 58.63 93.44 97.75 4.39 7.05 9.79 13.46 14.43 20.36 18.8 27.96 39.81 53.95 63.41 78.19 27.85 28.6 53.58 59.25 80.59 88.67 22.99 25.04 45.52 50.28 63.09 79.7 5.14 8.61 13 16.12 21.01 22.35 12.29 9.56 25.69 17.71 38.79 26.19 10.37 6.71 17.03 15.43 18.46 28.1.45 4.04 2.41 8.33 4.86 11.62 3.74 5.04 6.7 4.97 11.98 1.61 6.04-3.85 8.53-9.82 10.65-16.31 2.04-6.26 4.37-12.52 7.45-18.31 5.93-11.15 12.88-21.75 18.7-32.96 12.43-23.95 25.59-47.34 42.15-68.82 13.6-17.64 26.31-36.01 34.46-57.05 1.31-3.38 3.25-6.55 5.1-9.7 14.15-24.1 27.75-48.54 42.68-72.14 17.09-27.03 32.83-54.71 46.93-83.4 14.52-29.55 28.91-59.23 50.54-84.58 4.37-5.13 4.9-11.4 4.54-17.92-.56-9.96-1.43-19.97-1.1-29.92 1.05-32.25 2.48-64.49 3.98-96.72.91-19.61 1.56-39.26 3.52-58.78 2.09-20.84 5.95-41.49 8.36-62.3 2.14-18.48 3.34-37.07 4.98-55.6.58-6.63 1.34-13.24 1.78-19.88.49-7.34-2.04-12.89-9.42-15.79-2.69-1.06-4.78-3.56-7.41-4.86-4.7-2.32-9.44-5.31-14.47-6.13-18.38-3.01-36.8-6-55.58-5.09-5.29.26-10.63-.51-15.94-.76-17.6-.83-35.19-1.75-52.8-2.42-17.92-.68-35.93-.29-53.76-1.86-24.85-2.2-49.53-5.93-74.64-4.36-10.23.64-20.68.37-30.84-.95-17.92-2.32-35.77-3.07-53.77-1.73-14.59 1.09-29.21 1.83-43.81 2.8-20.54 1.36-41.04-2.73-61.63-.4-3.44.39-7.23-.92-10.65-2.06-4.91-1.64-9.46-1.63-14.59-.46-7.37 1.68-15.22 3.41-22.58 2.59-14.14-1.57-28.07-3.67-42.44-2.68-8.53.58-17.22-1.22-25.84-1.85-9.62-.7-19.26-1.14-28.87-1.95-16.87-1.42-33.73-3.04-50.59-4.58z"
          fill="transparent"/>
    <path d="M869.62 762.69c16.86 1.54 33.72 3.16 50.59 4.58 9.61.81 19.25 1.25 28.87 1.95 8.62.63 17.31 2.44 25.84 1.85 14.37-.98 28.3 1.11 42.44 2.68 7.36.82 15.2-.91 22.58-2.59 5.13-1.17 9.69-1.18 14.59.46 3.42 1.14 7.21 2.45 10.65 2.06 20.58-2.33 41.08 1.76 61.63.4 14.6-.97 29.22-1.71 43.81-2.8 18-1.35 35.86-.59 53.77 1.73 10.16 1.32 20.61 1.59 30.84.95 25.11-1.57 49.79 2.16 74.64 4.36 17.84 1.58 35.84 1.18 53.76 1.86 17.6.67 35.2 1.59 52.8 2.42 5.32.25 10.65 1.02 15.94.76 18.78-.92 37.2 2.07 55.58 5.09 5.03.82 9.76 3.81 14.47 6.13 2.63 1.3 4.72 3.8 7.41 4.86 7.38 2.9 9.91 8.45 9.42 15.79-.45 6.64-1.2 13.25-1.78 19.88-1.63 18.54-2.84 37.13-4.98 55.6-2.41 20.81-6.27 41.47-8.36 62.3-1.96 19.51-2.6 39.17-3.52 58.78-1.5 32.23-2.93 64.47-3.98 96.72-.32 9.95.54 19.95 1.1 29.92.37 6.52-.16 12.79-4.54 17.92-21.62 25.35-36.02 55.03-50.54 84.58-14.1 28.7-29.84 56.38-46.93 83.4-14.92 23.61-28.53 48.05-42.68 72.14-1.85 3.15-3.79 6.31-5.1 9.7-8.15 21.04-20.87 39.41-34.46 57.05-16.56 21.48-29.72 44.87-42.15 68.82-5.82 11.2-12.77 21.81-18.7 32.96-3.08 5.79-5.42 12.06-7.45 18.31-2.11 6.49-4.61 12.46-10.65 16.31-5.28 3.37-8.23 3.43-11.98-1.61-2.45-3.3-4.4-7.58-4.86-11.62-1.43-12.68-8.09-21.39-18.46-28.1-13.1-8.48-26.5-16.63-38.79-26.19-8.01-6.23-15.87-13.75-21.01-22.35-17.57-29.42-40.1-54.66-63.09-79.7-27.01-29.42-52.75-60.07-80.59-88.67-23.59-24.23-44.6-50.22-63.41-78.19-4.64-6.9-10.04-13.31-14.43-20.36-24.35-39.12-59.35-67.96-93.44-97.75-7.71-6.74-14.41-14.64-21.6-21.98-1.63-1.66-3.22-3.4-5.06-4.81-10.49-8.04-14.04-18.99-13.35-31.67.23-4.32 1.06-8.6 1.27-12.92.25-5.23-.88-10.73.38-15.66 2.44-9.54-1.32-18.03-2.66-26.98-.74-4.89-.77-10.05-.11-14.95 2.11-15.85-.95-31.08-4.65-46.29-2.17-8.91-2.53-17.61.62-26.5 1.28-3.62 1.42-7.9 1.1-11.8-1.47-17.8.51-35.24 5.13-52.39 1.71-6.33 2.38-12.5-.27-18.53-1.98-4.48-1.47-8.31 1.27-12.13 3.11-4.35 3.76-8.86 1.96-14.12-2.15-6.28-1.09-12.65 2.39-18.24 6.92-11.1 10.52-22.74 8.63-36.04-.88-6.21 1.46-9.33 7.47-11.31 4.69-1.55 9.68-2.5 14.6-2.97 9.27-.87 18.59-1.19 27.89-1.75l.11-1.39zm384.29 793.07c8.89-12.23 16.31-25.08 23.36-38.25 6.9-12.87 14.03-25.73 22.35-37.69 9.24-13.27 21.37-24.53 27.37-40.05.46-1.2 1.56-2.14 2.3-3.25 3.46-5.26 7.14-10.4 10.31-15.84 10.56-18.1 20.98-36.28 31.34-54.49 3.62-6.36 6.8-12.97 10.37-19.35 6.34-11.3 12.53-22.7 19.31-33.72 11.66-18.96 25.56-36.63 32.21-58.38.85-2.78 3-5.14 4.47-7.74 11-19.38 22.71-38.41 32.64-58.33 4.37-8.77 8.75-16.82 15.99-23.47 7.83-7.19 10.19-16.26 9.84-27.07-.65-20.27-1.3-40.73.8-60.83 1.39-13.25 3.22-26.36 2.3-39.64-2.15-31.16 1.55-62.02 7.15-92.38 3.7-20.03 6.41-40.03 8.09-60.23 1.1-13.28 1.98-26.52 6.55-39.22.75-2.08.41-4.59.35-6.9-.22-8.29-.71-16.57-.77-24.86-.04-6.48-1.35-9.34-7.04-10.04-17.83-2.17-35.69-4.2-53.58-5.67-12.91-1.06-25.89-1.23-38.85-1.66-8.3-.27-16.61-.42-24.92-.39-6.62.02-13.26.86-19.86.51-26.93-1.41-53.83-3.58-80.77-4.62-21.62-.83-43.29-.47-64.94-.59-15.32-.08-30.64-.21-45.95-.08-8.59.07-17.18.48-25.75.98-10.58.61-21.17 2.26-31.73 2.03-16.96-.36-33.91-1.79-50.85-2.95-7.62-.52-15.2-1.85-22.83-2.15-27.94-1.06-55.91-1.44-83.83-2.86-20.57-1.05-41.06-3.64-61.62-5-16.58-1.1-33.22-2.18-49.81-1.82-16.66.36-25.26 5.16-28.53 22.03-4.16 21.49-9.1 42.97-7.41 65.18.17 2.28.35 5.12-.78 6.85-5.02 7.7-3.67 15.74-2.43 24 .49 3.23-.17 6.63-.29 9.96-.72 19.63-2.77 39.32-1.82 58.86 1.41 28.88 1.47 57.9 5.98 86.59.61 3.87.1 7.98-.38 11.93-2.23 18.47 3.24 34.54 16.4 47.31 20.05 19.46 40.82 38.17 61.24 57.25 8.01 7.48 16.46 14.6 23.7 22.79 7.68 8.69 14.09 18.5 21.16 27.74 18.4 24.06 36.71 48.19 55.37 72.05 6.34 8.11 13.64 15.46 20.49 23.17 3.08 3.47 6.12 6.98 9.21 10.44 8.16 9.19 16.29 18.4 24.52 27.53 3.98 4.42 8.6 8.35 12.14 13.09 8.59 11.51 17.22 22.88 29.12 31.32 1.85 1.31 3.23 3.32 4.69 5.11 24.16 29.61 49.82 58.02 71.86 89.33 1.15 1.63 2.62 3.02 3.88 4.57 21.12 25.72 48.59 43.01 77.87 58.9z"
          fill="#090508"/>
    <path d="M1253.9 1555.76c-29.28-15.89-56.75-33.18-77.87-58.9-1.27-1.54-2.74-2.94-3.88-4.57-22.04-31.31-47.7-59.72-71.86-89.33-1.46-1.79-2.84-3.8-4.69-5.11-11.9-8.43-20.53-19.8-29.12-31.32-3.54-4.74-8.16-8.67-12.14-13.09-8.22-9.13-16.36-18.34-24.52-27.53-3.08-3.47-6.12-6.98-9.21-10.44-6.85-7.71-14.15-15.06-20.49-23.17-18.66-23.85-36.97-47.99-55.37-72.05-7.07-9.24-13.48-19.04-21.16-27.74-7.23-8.19-15.68-15.31-23.7-22.79-20.42-19.08-41.19-37.79-61.24-57.25-13.16-12.77-18.63-28.83-16.4-47.31.48-3.94.99-8.06.38-11.93-4.51-28.69-4.57-57.71-5.98-86.59-.95-19.55 1.11-39.24 1.82-58.86.12-3.32.77-6.73.29-9.96-1.24-8.26-2.59-16.3 2.43-24 1.13-1.73.95-4.57.78-6.85-1.69-22.2 3.24-43.68 7.41-65.18 3.27-16.87 11.88-21.67 28.53-22.03 16.58-.36 33.23.72 49.81 1.82 20.56 1.36 41.05 3.95 61.62 5 27.92 1.43 55.89 1.8 83.83 2.86 7.63.29 15.21 1.63 22.83 2.15 16.94 1.16 33.89 2.59 50.85 2.95 10.56.22 21.14-1.42 31.73-2.03 8.57-.49 17.16-.91 25.75-.98 15.32-.13 30.64 0 45.95.08 21.65.12 43.32-.25 64.94.59 26.94 1.04 53.84 3.21 80.77 4.62 6.59.35 13.23-.49 19.86-.51 8.31-.03 16.62.12 24.92.39 12.96.43 25.94.6 38.85 1.66 17.9 1.48 35.75 3.5 53.58 5.67 5.69.69 7 3.55 7.04 10.04.05 8.29.55 16.57.77 24.86.06 2.31.4 4.82-.35 6.9-4.57 12.7-5.44 25.94-6.55 39.22-1.68 20.2-4.39 40.19-8.09 60.23-5.61 30.36-9.31 61.22-7.15 92.38.92 13.28-.91 26.39-2.3 39.64-2.1 20.09-1.46 40.56-.8 60.83.35 10.8-2.01 19.87-9.84 27.07-7.24 6.65-11.62 14.7-15.99 23.47-9.93 19.92-21.64 38.95-32.64 58.33-1.47 2.6-3.63 4.96-4.47 7.74-6.64 21.75-20.55 39.42-32.21 58.38-6.78 11.03-12.98 22.42-19.31 33.72-3.58 6.38-6.76 12.99-10.37 19.35-10.36 18.21-20.78 36.39-31.34 54.49-3.17 5.43-6.84 10.58-10.31 15.84-.73 1.11-1.83 2.05-2.3 3.25-6 15.52-18.13 26.78-27.37 40.05-8.32 11.96-15.46 24.82-22.35 37.69-7.06 13.16-14.47 26.02-23.36 38.25z"
          fill="replace"/>
</svg>