<svg xmlns="http://www.w3.org/2000/svg" width="2351" height="2351">
    <path d="M0 0h2351v2351H0V0zm1420.69 854.75c-10.44 11.03-22.84 13.12-36.85 9.6-3.77-.95-7.91-.51-11.89-.51-8.65-.02-17.3.38-25.94.09-21.96-.72-43.91-1.9-65.88-2.58-25.62-.79-51.25-1.43-76.88-1.71-8.58-.09-17.24.7-25.76 1.82-12.94 1.7-25.8 2.54-38.83 1-6.24-.74-12.69-1-18.91-.28-25.2 2.91-50.46 3.88-75.8 3.68-5.97-.05-11.99.5-17.91 1.29-12.56 1.68-25.07 3.23-37.8 1.8-29.26-3.3-58.6-1.39-87.82.15-23.23 1.22-46.26 4.87-69.69 4.67-20.59-.18-41.22 1.59-61.79 3.15-23.6 1.79-47.12 4.02-70.58-1.44-8.05-1.87-10.95-.05-13.2 7.54-.93 3.15-1.36 6.54-1.4 9.84-.51 44.31-3.79 88.45-7.28 132.59-1.55 19.57-2.22 39.21-3.07 58.83-.29 6.64.79 13.39.04 19.95-6.39 55.6-1.84 111.12 1.06 166.64 2.05 39.24 5 78.44 7.18 117.68.87 15.69 1.62 31.25 8.24 45.88 1.06 2.34 1.21 5.13 1.61 7.74 1.13 7.42 5.27 12.09 12.59 13.7 3.88.86 7.83 1.66 11.78 1.89 23.59 1.35 47.19 2.71 70.8 3.65 8.96.36 18.04.25 26.94-.79 27.44-3.21 54.79-7.12 82.21-10.48 24.78-3.04 49.53-5.66 74.66-4.71 22.93.87 45.94-.14 68.92-.37 20.3-.2 40.61-.47 60.91-.71 3.33-.04 6.69.24 9.98-.11 31.46-3.28 62.53.09 93.42 5.69 17.17 3.11 34.36 3.65 51.72 2.86 10.63-.48 21.3-.53 31.93-.12 39.25 1.51 78.5 3.27 117.74 4.99 4.65.2 9.29.71 13.93 1.06 19.58 1.49 39.15 3.05 58.73 4.41 8.85.62 16.17-2.31 21.89-9.55 2.61-3.3 6.39-5.73 9.8-8.33 29.63-22.6 59.61-44.75 88.85-67.85 17.73-14.01 34.45-29.31 51.37-44.32 6.67-5.91 12.62-12.63 18.93-18.95 1.61-1.62 3.12-3.48 5.04-4.63 19.73-11.81 34.89-28.62 49.95-45.53 5.08-5.7 5.57-12.03 1.44-18.35-4-6.12-8.18-12.16-12.73-17.87-13.34-16.72-25.36-34.17-33.07-54.33-1.52-3.98-3.9-7.73-6.37-11.24-29.69-42.14-58.54-84.9-89.46-126.12-38.54-51.38-76.75-103.06-118.87-151.7-12.01-13.88-25.95-23.42-43.91-29.6z"
          fill="transparent"/>
    <path d="M1420.69 854.75c17.96 6.18 31.89 15.72 43.91 29.6 42.12 48.64 80.33 100.32 118.87 151.7 30.92 41.22 59.77 83.98 89.46 126.12 2.47 3.51 4.85 7.26 6.37 11.24 7.71 20.16 19.74 37.61 33.07 54.33 4.56 5.71 8.74 11.75 12.73 17.87 4.13 6.33 3.64 12.65-1.44 18.35-15.06 16.91-30.22 33.72-49.95 45.53-1.92 1.15-3.43 3.01-5.04 4.63-6.31 6.32-12.27 13.04-18.93 18.95-16.92 15.01-33.64 30.31-51.37 44.32-29.24 23.1-59.22 45.25-88.85 67.85-3.42 2.6-7.2 5.03-9.8 8.33-5.72 7.24-13.03 10.17-21.89 9.55-19.59-1.36-39.16-2.93-58.73-4.41-4.64-.35-9.28-.85-13.93-1.06-39.25-1.72-78.49-3.48-117.74-4.99-10.63-.41-21.31-.36-31.93.12-17.36.79-34.54.25-51.72-2.86-30.88-5.6-61.96-8.97-93.42-5.69-3.3.34-6.65.07-9.98.11-20.3.23-40.61.5-60.91.71-22.98.23-45.98 1.25-68.92.37-25.13-.96-49.88 1.67-74.66 4.71-27.42 3.36-54.78 7.27-82.21 10.48-8.89 1.04-17.98 1.14-26.94.79-23.61-.94-47.21-2.3-70.8-3.65-3.95-.23-7.9-1.03-11.78-1.89-7.32-1.61-11.46-6.28-12.59-13.7-.4-2.61-.55-5.39-1.61-7.74-6.62-14.63-7.36-30.2-8.24-45.88-2.18-39.24-5.13-78.43-7.18-117.68-2.9-55.51-7.45-111.04-1.06-166.64.75-6.56-.33-13.31-.04-19.95.85-19.62 1.52-39.26 3.07-58.83 3.49-44.14 6.78-88.29 7.28-132.59.04-3.29.47-6.69 1.4-9.84 2.25-7.59 5.15-9.41 13.2-7.54 23.46 5.46 46.97 3.23 70.58 1.44 20.57-1.56 41.2-3.32 61.79-3.15 23.43.2 46.46-3.45 69.69-4.67 29.22-1.53 58.55-3.45 87.82-.15 12.72 1.44 25.24-.11 37.8-1.8 5.93-.79 11.94-1.34 17.91-1.29 25.34.19 50.6-.77 75.8-3.68 6.22-.72 12.67-.45 18.91.28 13.03 1.54 25.89.69 38.83-1 8.53-1.12 17.18-1.91 25.76-1.82 25.63.28 51.26.93 76.88 1.71 21.96.67 43.91 1.85 65.88 2.58 8.63.28 17.29-.11 25.94-.09 3.97 0 8.12-.43 11.89.51 14.01 3.52 26.42 1.42 36.85-9.6zm-131.46 23.1c-19.48 0-53.13-.63-86.76.16-42.28.98-84.53 3.3-126.81 4.71-38.95 1.29-77.92 2.09-116.88 3.21-21.64.63-43.38.4-64.89 2.51-28.54 2.8-57.03 4.45-85.7 5.02-30.59.61-61.14 3.04-91.71 4.81-7.93.46-8.83 1.44-10.36 9.29-.38 1.95-.39 3.97-.51 5.96-1.55 25.6-2.86 51.21-4.69 76.79-1.47 20.57-3.76 41.09-5.21 61.66-.41 5.84.92 11.8 1.32 17.71.22 3.26 1 6.81.05 9.76-3.01 9.4-3.32 18.94-3.11 28.64.35 16.31.84 32.64-3.1 48.71-.7 2.84-.58 5.95-.46 8.91.48 11.97 1.21 23.92 1.64 35.89.36 9.98-.69 20.14.81 29.92 5.65 36.93 6.23 74.22 8.91 111.37 1.68 23.25 3.58 46.48 5.74 69.69 1.25 13.4 6.31 18.16 19.52 19.41 18.89 1.78 37.79 3.53 56.7 5.08 4.62.38 9.4.56 13.94-.18 33.83-5.53 67.59-11.54 101.46-16.87 8.09-1.27 16.61-1.51 24.7-.45 6.74.89 13.13 1.28 19.71-.25 3.56-.83 7.17-1.5 10.79-2.03 26.22-3.85 52.52-1.99 78.81-.96 14.64.57 29.29.89 43.93 1.42 8.64.31 17.28.64 25.9 1.26 10.38.75 20.81 1.26 30.44-3.31 7.38-3.5 14.67-3.77 22.35-2.02 4.54 1.03 9.1 2.01 13.67 2.93 14.12 2.85 28.29 4.33 42.67 1.97 2.24-.37 4.74-.4 6.89.22 14.66 4.24 29.65 3.67 44.65 3.53 21.3-.2 42.58-.61 63.74 3.26 8.05 1.47 16.49.83 24.75 1.24 2.96.15 5.96.28 8.84.92 13.68 3.03 27.28 5.6 41.52 3.81 7.51-.94 15.35-.46 22.92.43 14.92 1.75 29.62 2.93 44.63-.16 14.23-2.93 27.47-7.99 39.93-15.14 3.62-2.08 6.95-5.38 9.28-8.87 8.5-12.72 19.96-21.26 34.39-25.99 7.08-2.32 11.33-6.88 11.41-14.56.05-4.34 2.34-6.67 6.12-8.11 10.52-4.01 18.69-11.26 26.75-18.85 7.75-7.3 15.74-14.43 24.2-20.87 15.85-12.08 33.05-22.43 46.64-37.34.87-.96 2.24-1.45 3.26-2.29 7.94-6.54 16.36-12.6 23.65-19.8 14.97-14.77 14.99-16.18 1.1-31.68-9.65-10.77-18.1-22.06-23.13-35.82-2.04-5.58-5.08-10.89-8.27-15.93-10.69-16.87-21.25-33.86-32.68-50.23-6.63-9.49-14.93-17.81-22.32-26.79-4.63-5.62-9.05-11.42-13.42-17.25-6.37-8.5-12.48-17.2-18.93-25.63-5.24-6.86-11.07-13.28-16.21-20.22-18.02-24.34-35.32-49.24-53.91-73.13-15.3-19.66-32.18-38.08-48.08-57.28-9.26-11.18-20.49-19.09-34.72-22-7.47-1.53-15.17-2.32-22.8-2.6-32.95-1.21-65.92-2.11-113.05-3.56z"
          fill="#080404"/>
    <path d="M1289.23 877.86c47.13 1.45 80.09 2.34 113.05 3.56 7.63.28 15.33 1.07 22.8 2.6 14.23 2.91 25.46 10.82 34.72 22 15.9 19.2 32.79 37.62 48.08 57.28 18.59 23.89 35.89 48.79 53.91 73.13 5.13 6.94 10.96 13.36 16.21 20.22 6.45 8.44 12.56 17.13 18.93 25.63 4.37 5.83 8.79 11.63 13.42 17.25 7.39 8.98 15.69 17.29 22.32 26.79 11.43 16.37 21.99 33.35 32.68 50.23 3.2 5.04 6.23 10.35 8.27 15.93 5.03 13.75 13.47 25.04 23.13 35.82 13.89 15.5 13.87 16.91-1.1 31.68-7.29 7.2-15.72 13.25-23.65 19.8-1.02.84-2.39 1.33-3.26 2.29-13.59 14.91-30.79 25.26-46.64 37.34-8.46 6.45-16.45 13.57-24.2 20.87-8.06 7.59-16.23 14.84-26.75 18.85-3.77 1.44-6.07 3.77-6.12 8.11-.08 7.69-4.33 12.24-11.41 14.56-14.42 4.73-25.88 13.27-34.39 25.99-2.34 3.49-5.66 6.79-9.28 8.87-12.46 7.15-25.7 12.21-39.93 15.14-15.01 3.09-29.71 1.91-44.63.16-7.57-.89-15.41-1.37-22.92-.43-14.24 1.79-27.84-.78-41.52-3.81-2.87-.64-5.88-.77-8.84-.92-8.26-.41-16.69.23-24.75-1.24-21.16-3.86-42.44-3.46-63.74-3.26-14.99.14-29.98.72-44.65-3.53-2.15-.62-4.65-.59-6.89-.22-14.38 2.36-28.55.88-42.67-1.97-4.57-.92-9.13-1.89-13.67-2.93-7.68-1.75-14.97-1.48-22.35 2.02-9.63 4.57-20.06 4.06-30.44 3.31-8.62-.62-17.26-.95-25.9-1.26-14.64-.53-29.29-.85-43.93-1.42-26.29-1.02-52.58-2.88-78.81.96-3.62.53-7.23 1.2-10.79 2.03-6.58 1.53-12.96 1.13-19.71.25-8.09-1.06-16.62-.82-24.7.45-33.87 5.33-67.62 11.34-101.46 16.87-4.54.74-9.32.56-13.94.18-18.91-1.56-37.81-3.3-56.7-5.08-13.21-1.25-18.27-6.01-19.52-19.41-2.16-23.21-4.06-46.44-5.74-69.69-2.68-37.14-3.26-74.43-8.91-111.37-1.5-9.78-.45-19.94-.81-29.92-.43-11.97-1.16-23.92-1.64-35.89-.12-2.97-.24-6.07.46-8.91 3.94-16.07 3.44-32.39 3.1-48.71-.21-9.7.1-19.24 3.11-28.64.95-2.95.17-6.5-.05-9.76-.4-5.91-1.73-11.87-1.32-17.71 1.45-20.57 3.75-41.09 5.21-61.66 1.82-25.58 3.14-51.19 4.69-76.79.12-1.99.13-4.01.51-5.96 1.53-7.85 2.43-8.83 10.36-9.29 30.56-1.76 61.12-4.2 91.71-4.81 28.67-.57 57.16-2.22 85.7-5.02 21.5-2.11 43.25-1.88 64.89-2.51 38.96-1.13 77.93-1.92 116.88-3.21 42.28-1.41 84.53-3.72 126.81-4.71 33.62-.78 67.28-.16 86.76-.16z"
          fill="replace"/>
</svg>