<svg xmlns="http://www.w3.org/2000/svg" width="2351" height="2351">
    <path d="M2351 2351H0V0h2351v2351zM679.09 890.19c3.65 7.38 7.12 13.8 10.03 20.46 3.44 7.86 7.62 15.68 9.27 23.96 2.06 10.31 3.45 20.82 5.12 31.24 3.94 24.53 1.17 49.13-1.32 73.6-2.32 22.8-5.97 45.46-8.3 68.26-2.6 25.46-4.23 51.03-6.57 76.52-1.55 16.87-2.61 33.87-5.67 50.49-5.12 27.75-6.34 55.43-2.86 83.39.37 2.95.36 6 .12 8.98-1.51 18.22-3.6 36.41-4.56 54.65-.67 12.91-.53 25.95.54 38.82.72 8.63 6.16 10.51 13.01 5.31 7.85-5.96 16.55-8.43 26.18-7.64 5.62.46 11.22 1.4 16.77 2.44 15.47 2.91 30.8 3.86 46.6 1.38 22.02-3.45 44.24-4.77 66.64-4.18 25.94.69 51.92.34 77.77-3.03 7.14-.93 14.6-.55 21.78.33 6.44.8 12.1.93 17.97-2.72 3.48-2.17 8.18-3.05 12.38-3.24 8.26-.37 16.56.26 24.84.26 15.65 0 31.32-.79 46.93-.09 23.58 1.06 47.12 3.06 70.67 4.79 13.6 1 27.22 1.89 40.76 3.5 9.22 1.09 18.25 4.48 27.44 4.85 33.25 1.36 66.53 2.16 99.81 2.59 16.62.21 33.25-1 49.88-1.28 19.28-.33 38.46.08 57.78 1.59 20.38 1.59 41.16-1.25 61.73-2.66 31.16-2.14 62.27-4.97 93.43-7.05 33.7-2.25 67.25.96 100.56 5.28 22.36 2.9 43.7 1.38 64.77-6.16 9.68-3.46 12.37-8.47 9.75-18.47-2.53-9.62-5.44-19.15-7.74-28.83-2.45-10.34-5.81-20.73-6.3-31.21-2-42.53-2.93-85.1-4.5-127.65-.47-12.61-1.78-25.18-2.6-37.78-.35-5.28-.78-10.6-.58-15.88.86-22.67.25-45.16-3.81-67.62-2.71-14.99-3.97-30.26-5.41-45.44-1.13-11.9-1.53-23.87-2.31-35.8-1.69-25.95-15.01-43.42-39.05-52.7-9.59-3.7-19.32-7.25-29.26-9.74-30.06-7.53-60.61-12.39-91.52-14.7-32.18-2.41-64.34-5.07-96.56-6.83-24.24-1.32-48.58-.98-72.84-2.12-25.25-1.19-50.49-3-75.69-5.03-37.47-3.02-74.93-6.14-112.34-9.84-24.02-2.37-48.63-1.01-71.7-10.26-1.52-.61-3.22-.84-4.86-1.08-12.81-1.89-25.78-2.85-37.98-7.91-2.61-1.08-5.91-.69-8.89-.63-19.01.43-37.92-.39-56.69-3.75-4.91-.88-9.87-1.74-14.83-1.95-18.28-.75-36.57-1.29-54.86-1.8-34.6-.95-69.21-2.74-103.8-2.46-32.91.26-65.81 2.56-98.69 4.29-12.63.66-13.73 2.06-16.55 14.12-.27 1.17-1.14 2.21-1.84 3.52-6.99-2.52-12.26-9.06-22.05-7.09z"
          fill="transparent"/>
    <path d="M679.09 890.19c9.79-1.96 15.06 4.57 22.05 7.09.71-1.31 1.57-2.35 1.84-3.52 2.82-12.06 3.93-13.46 16.55-14.12 32.89-1.72 65.78-4.02 98.69-4.29 34.59-.28 69.2 1.51 103.8 2.46 18.29.5 36.58 1.04 54.86 1.8 4.96.21 9.93 1.07 14.83 1.95 18.76 3.37 37.68 4.19 56.69 3.75 2.98-.07 6.28-.45 8.89.63 12.2 5.06 25.17 6.02 37.98 7.91 1.64.24 3.34.47 4.86 1.08 23.06 9.25 47.68 7.89 71.7 10.26 37.41 3.7 74.87 6.83 112.34 9.84 25.2 2.03 50.44 3.84 75.69 5.03 24.26 1.14 48.59.8 72.84 2.12 32.21 1.76 64.38 4.42 96.56 6.83 30.92 2.31 61.46 7.17 91.52 14.7 9.95 2.49 19.68 6.04 29.26 9.74 24.05 9.27 37.36 26.75 39.05 52.7.78 11.93 1.18 23.9 2.31 35.8 1.45 15.19 2.7 30.46 5.41 45.44 4.06 22.45 4.67 44.95 3.81 67.62-.2 5.28.23 10.59.58 15.88.82 12.6 2.13 25.17 2.6 37.78 1.57 42.55 2.51 85.13 4.5 127.65.49 10.48 3.85 20.87 6.3 31.21 2.3 9.68 5.21 19.21 7.74 28.83 2.62 10-.07 15-9.75 18.47-21.07 7.54-42.41 9.06-64.77 6.16-33.31-4.33-66.86-7.53-100.56-5.28-31.16 2.08-62.27 4.91-93.43 7.05-20.57 1.41-41.34 4.26-61.73 2.66-19.33-1.51-38.51-1.92-57.78-1.59-16.63.28-33.26 1.49-49.88 1.28-33.28-.43-66.56-1.23-99.81-2.59-9.2-.38-18.23-3.76-27.44-4.85-13.53-1.6-27.16-2.5-40.76-3.5-23.55-1.73-47.09-3.73-70.67-4.79-15.61-.7-31.29.09-46.93.09-8.28 0-16.58-.63-24.84-.26-4.21.19-8.91 1.07-12.38 3.24-5.86 3.66-11.53 3.52-17.97 2.72-7.18-.89-14.64-1.26-21.78-.33-25.86 3.37-51.83 3.72-77.77 3.03-22.41-.6-44.63.72-66.64 4.18-15.79 2.48-31.13 1.53-46.6-1.38-5.55-1.04-11.15-1.98-16.77-2.44-9.63-.79-18.33 1.68-26.18 7.64-6.85 5.2-12.29 3.32-13.01-5.31-1.07-12.87-1.22-25.92-.54-38.82.95-18.25 3.05-36.43 4.56-54.65.25-2.97.25-6.02-.12-8.98-3.48-27.96-2.25-55.64 2.86-83.39 3.06-16.62 4.12-33.62 5.67-50.49 2.34-25.49 3.97-51.06 6.57-76.52 2.33-22.8 5.98-45.46 8.3-68.26 2.49-24.47 5.26-49.06 1.32-73.6-1.67-10.43-3.06-20.93-5.12-31.24-1.65-8.28-5.83-16.1-9.27-23.96-2.92-6.66-6.38-13.08-10.03-20.46zm22.29 6.56c2.62 8.24 4.25 14.32 6.47 20.18 7.24 19.03 13.01 38.39 14.57 58.84 2.23 29.37-.54 58.51-3.68 87.66-3.27 30.42-6.07 60.89-9.29 91.31-.66 6.24-2.36 12.36-3.39 18.57-.92 5.5-2.38 11.07-2.19 16.55.49 14.05-.25 27.83-3.15 41.67-3.96 18.92-5.56 38.15-4.67 57.54.9 19.6 1.5 39.22 2.28 58.83.23 5.72.39 11.12-4.37 15.74-1.8 1.75-2.09 5.47-2.31 8.35-.36 4.64-.21 9.32-.05 13.98.4 11.82 6.7 16.89 18.3 14.19 9.81-2.28 19.05-1.68 28.18 2.72 8.57 4.14 17.67 5.56 27.19 4.5 15.87-1.77 31.81-2.99 47.62-5.17 24.09-3.32 48.15-5.77 72.56-5.93 18.55-.12 37.17-2.2 55.58-4.71 20.85-2.85 41.66-4.64 62.67-3.4 29.56 1.75 59.11 3.8 88.67 5.52 16.57.96 33.21-.54 49.77 2.22 37.5 6.26 75.35 8.56 113.33 8.9 31.97.29 63.95.85 95.92.53 29.95-.3 59.91-1.27 89.83-2.54 39.9-1.69 79.76-4.96 119.67-5.66 29.9-.52 59.85 2.18 89.79 3 12.96.36 25.97.05 38.91-.78 8.09-.52 10.56-3.72 9.83-11.84-.56-6.23-2.42-12.35-3.76-18.5-1.97-9.07-4.87-18.05-5.8-27.22-1.44-14.21-1.77-28.55-2.18-42.84-1.49-51.24-2.76-102.49-4.22-153.73-.65-22.94-1.81-45.77-5.5-68.57-2.84-17.56-2.73-35.65-3.34-53.52-1.02-30.15-11.56-50.48-41.53-57.76-11.62-2.82-23.15-6.03-34.66-9.28-36.06-10.19-72.81-15.77-110.26-16.3-68.24-.96-136.42-2.98-204.34-10.23-29.45-3.15-58.88-6.51-88.37-9.16-24.18-2.17-48.42-4.14-72.68-4.87-20.94-.63-41.94.52-62.91 1.1-6.58.18-12.01-1.31-14.61-7.87-2.22-5.62-6.55-6.67-11.92-7-17.27-1.06-34.52-2.46-51.77-3.72-19.92-1.45-39.82-3.87-59.75-4.14-49.62-.69-99.26-.74-148.89-.35-23.24.19-46.47 2.01-71.55 3.17z"
          fill="#050707"/>
    <path d="M701.38 896.75c25.07-1.17 48.3-2.99 71.55-3.17 49.63-.4 99.27-.34 148.89.35 19.93.28 39.84 2.69 59.75 4.14 17.26 1.26 34.51 2.65 51.77 3.72 5.37.33 9.7 1.38 11.92 7 2.6 6.56 8.03 8.06 14.61 7.87 20.97-.58 41.97-1.73 62.91-1.1 24.26.73 48.5 2.7 72.68 4.87 29.49 2.65 58.93 6.01 88.37 9.16 67.92 7.26 136.1 9.27 204.34 10.23 37.45.53 74.2 6.11 110.26 16.3 11.51 3.25 23.04 6.46 34.66 9.28 29.97 7.28 40.5 27.62 41.53 57.76.61 17.87.5 35.95 3.34 53.52 3.69 22.8 4.85 45.63 5.5 68.57 1.46 51.24 2.73 102.49 4.22 153.73.41 14.29.74 28.63 2.18 42.84.93 9.18 3.83 18.15 5.8 27.22 1.34 6.15 3.2 12.27 3.76 18.5.73 8.12-1.74 11.33-9.83 11.84-12.94.83-25.95 1.14-38.91.78-29.94-.83-59.89-3.52-89.79-3-39.91.69-79.77 3.96-119.67 5.66-29.93 1.27-59.88 2.24-89.83 2.54-31.97.32-63.95-.24-95.92-.53-37.98-.34-75.83-2.64-113.33-8.9-16.56-2.76-33.2-1.26-49.77-2.22-29.56-1.72-59.11-3.77-88.67-5.52-21.01-1.24-41.82.55-62.67 3.4-18.41 2.51-37.04 4.59-55.58 4.71-24.41.16-48.47 2.61-72.56 5.93-15.81 2.18-31.75 3.4-47.62 5.17-9.52 1.06-18.62-.37-27.19-4.5-9.12-4.4-18.37-5-28.18-2.72-11.6 2.7-17.9-2.37-18.3-14.19-.16-4.66-.3-9.35.05-13.98.22-2.88.51-6.6 2.31-8.35 4.76-4.62 4.6-10.01 4.37-15.74-.78-19.61-1.39-39.23-2.28-58.83-.89-19.4.7-38.62 4.67-57.54 2.9-13.84 3.64-27.63 3.15-41.67-.19-5.49 1.27-11.06 2.19-16.55 1.03-6.21 2.73-12.33 3.39-18.57 3.22-30.42 6.02-60.89 9.29-91.31 3.14-29.15 5.91-58.28 3.68-87.66-1.55-20.45-7.33-39.8-14.57-58.84-2.23-5.86-3.86-11.94-6.47-20.18z"
          fill="replace"/>
</svg>