<svg xmlns="http://www.w3.org/2000/svg" width="2351" height="2351">
    <path d="M2351 2351H0V0h2351v2351zm-1110.06-775.04c11.07-.54 19.79-.35 28.32-1.49 23.4-3.11 46.73-6.73 70.06-10.26 7.19-1.09 14.41-2.22 21.46-3.95 8.36-2.04 16.47-5.15 24.85-7.08 28.47-6.58 56.34-15.12 78.21-35.34 16.8-15.54 31.73-33.12 47.23-50.03 8.76-9.55 17-19.56 25.47-29.38 3.02-3.5 6.23-6.85 8.98-10.55 20.63-27.82 38.09-57.69 56.26-87.11 9.48-15.34 17.18-31.43 23.95-48.13 4.97-12.26 10.62-24.46 17.62-35.65 11.08-17.69 19.06-36.4 24.5-56.48 4.25-15.69 9.61-31.07 14.48-46.59 3.78-12.05 8.06-23.97 11.26-36.18 6.82-26 4.96-53.58 14.01-79.23.44-1.24.67-2.6.7-3.91.12-5.83 2.52-10.68 5.23-15.78 2.89-5.44 5.18-11.73 5.64-17.81 1.29-16.89 1.95-33.86 1.92-50.79 0-7.16-1.4-14.65-3.79-21.42-8.2-23.19-17.03-46.15-25.86-69.11-1.52-3.95-3.6-8.06-6.52-11.01-7-7.08-14.64-13.52-22.03-20.21-6.4-5.8-13.05-11.35-19.16-17.43-12.19-12.13-25.68-22.09-42.24-27.47-8.22-2.67-16.4-5.44-24.56-8.29-18.48-6.48-37.2-12.4-55.3-19.82-9.7-3.97-19.29-6.73-29.65-7.64-26.77-2.34-53.47-5.41-80.27-7.29-12.54-.88-25.36-.73-37.82.82-17.43 2.18-34.63 6.13-51.93 9.28-20.67 3.76-41.44 6.65-62.42 3.02-27.3-4.71-54.73-6.85-82.43-5.53-4.94.24-10.03-.24-14.88-1.23-10.28-2.1-20.41-1.8-30.67.06-21.9 3.98-43.71 9.22-65.8 11.24-37.22 3.4-71.32 14.56-103.28 33.74-8.94 5.37-19.45 8.42-29.57 11.46-14.95 4.49-28.49 11.02-39.43 22.41-2.07 2.15-4.09 4.72-6.68 5.92-12.66 5.85-20.56 16.45-28.32 27.28a46.774 46.774 0 01-4.48 5.36c-26.75 27.73-48.41 59.2-67.79 92.33-13.4 22.9-27.04 45.61-32.11 72.38-2.77 14.64-7.57 28.9-11.59 43.29-4.11 14.7-7.93 29.51-12.71 44-9.34 28.29-12.05 57.1-9 86.64 2.61 25.29 9.56 49.58 16.1 74 9.53 35.62 24.19 68.93 43.93 100.06 6.63 10.46 14.01 20.24 23.49 28.29 20.3 17.22 40.58 34.46 60.98 51.56 17.14 14.37 35.4 26.97 55.86 36.39 7.42 3.42 13.77 9.15 20.68 13.72 3.28 2.17 6.48 4.75 10.11 6.03 15.66 5.53 31.38 10.9 47.23 15.86 14.65 4.58 29.57 7.06 45.16 6.25 8.82-.46 17.79 1.67 26.67 2.78 8.2 1.02 16.36 2.37 24.57 3.35 25.58 3.03 52.13 3.01 71.9 23.7 1.12 1.18 2.61 2.19 4.12 2.77 4.29 1.65 8.59 3.99 13.04 4.36 19.54 1.65 39.13 2.7 56.32 3.81z"
          fill="transparent"/>
    <path d="M1240.94 1575.96c-17.19-1.11-36.78-2.16-56.32-3.81-4.44-.37-8.75-2.71-13.04-4.36-1.51-.58-3-1.6-4.12-2.77-19.77-20.7-46.32-20.67-71.9-23.7-8.21-.97-16.37-2.32-24.57-3.35-8.88-1.11-17.85-3.24-26.67-2.78-15.59.81-30.51-1.66-45.16-6.25-15.85-4.96-31.57-10.32-47.23-15.86-3.63-1.28-6.83-3.86-10.11-6.03-6.91-4.57-13.26-10.3-20.68-13.72-20.47-9.42-38.72-22.02-55.86-36.39-20.4-17.1-40.68-34.34-60.98-51.56-9.48-8.04-16.86-17.83-23.49-28.29-19.74-31.13-34.39-64.44-43.93-100.06-6.54-24.42-13.49-48.71-16.1-74-3.04-29.54-.34-58.36 9-86.64 4.78-14.49 8.6-29.3 12.71-44 4.03-14.39 8.82-28.65 11.59-43.29 5.07-26.77 18.71-49.47 32.11-72.38 19.38-33.13 41.04-64.6 67.79-92.33 1.61-1.67 3.12-3.48 4.48-5.36 7.77-10.83 15.67-21.43 28.32-27.28 2.59-1.2 4.62-3.77 6.68-5.92 10.94-11.38 24.48-17.91 39.43-22.41 10.11-3.04 20.63-6.09 29.57-11.46 31.96-19.18 66.06-30.34 103.28-33.74 22.09-2.02 43.9-7.26 65.8-11.24 10.26-1.86 20.39-2.16 30.67-.06 4.85.99 9.95 1.46 14.88 1.23 27.7-1.32 55.13.82 82.43 5.53 20.98 3.62 41.75.74 62.42-3.02 17.31-3.15 34.51-7.1 51.93-9.28 12.46-1.56 25.28-1.7 37.82-.82 26.79 1.88 53.5 4.94 80.27 7.29 10.37.91 19.96 3.66 29.65 7.64 18.1 7.42 36.82 13.34 55.3 19.82 8.15 2.86 16.34 5.63 24.56 8.29 16.55 5.37 30.05 15.34 42.24 27.47 6.11 6.09 12.76 11.63 19.16 17.43 7.39 6.69 15.04 13.13 22.03 20.21 2.92 2.95 5 7.06 6.52 11.01 8.83 22.96 17.66 45.92 25.86 69.11 2.39 6.77 3.78 14.26 3.79 21.42.02 16.94-.63 33.91-1.92 50.79-.46 6.08-2.75 12.37-5.64 17.81-2.71 5.1-5.11 9.95-5.23 15.78-.03 1.31-.26 2.68-.7 3.91-9.05 25.65-7.19 53.22-14.01 79.23-3.2 12.2-7.48 24.12-11.26 36.18-4.87 15.52-10.23 30.9-14.48 46.59-5.44 20.08-13.42 38.79-24.5 56.48-7.01 11.19-12.65 23.38-17.62 35.65-6.77 16.7-14.47 32.78-23.95 48.13-18.17 29.42-35.63 59.29-56.26 87.11-2.74 3.7-5.96 7.06-8.98 10.55-8.47 9.81-16.71 19.83-25.47 29.38-15.51 16.91-30.43 34.49-47.23 50.03-21.86 20.22-49.74 28.76-78.21 35.34-8.38 1.94-16.49 5.04-24.85 7.08-7.06 1.72-14.27 2.86-21.46 3.95-23.34 3.53-46.67 7.15-70.06 10.26-8.54 1.14-17.25.95-28.32 1.49zm449.44-613.35c0-9.97.09-19.95-.02-29.92-.28-24.25-8.17-46.41-19.65-67.31-3.62-6.58-8.76-12.64-14.25-17.82-12.11-11.41-24.79-22.21-37.42-33.05-8.65-7.43-18.42-13.05-29.22-16.86-20.05-7.07-40.02-14.38-60.12-21.3-7.82-2.69-15.79-5.62-23.91-6.67-25.35-3.28-50.8-5.75-76.22-8.48-24.94-2.68-49.86-2-74.59 1.86-17.36 2.71-34.49 6.89-51.83 9.7-18.43 2.99-37.23 4.95-55.48.3-20.3-5.17-40.7-5.8-61.36-5.78-8.92 0-17.84-1.51-26.77-2.01-8.91-.5-18-1.78-26.75-.65-30.28 3.91-60.45 8.65-90.64 13.24-9.85 1.5-19.69 3.17-28.46 8.51-6.53 3.98-7.33 6.46-3.13 12.69 2.6 3.86 6.15 7.22 8.04 11.36 1.18 2.59 1.01 6.78-.38 9.2-.89 1.54-5.4 2.12-7.83 1.45-19.17-5.29-38.23-3.35-57.37-.02-13.09 2.28-24.84 7.47-35.03 15.87a1968.392 1968.392 0 00-41.91 35.5c-3.44 3-5.88 7.14-8.84 10.7-5.95 7.15-11.88 14.32-17.92 21.38-7.11 8.31-15.63 15.73-21.24 24.94-12.61 20.72-23.5 42.48-35.66 63.48-9.1 15.71-15.18 32.41-19.78 49.89-6.68 25.39-13.66 50.72-21.17 75.88-3.7 12.39-8.53 24.35-9.11 37.55-.92 21.29-2.24 42.65 2.53 63.57 4.21 18.45 10.32 36.47 14.69 54.89 7.58 32.02 24.09 59.7 41.39 86.98 4.02 6.35 9.95 11.54 15.3 16.97 4.43 4.49 9.21 8.67 14.02 12.77 19.48 16.63 38.48 33.87 58.66 49.61 35.23 27.49 75.99 44.95 116.9 61.91 4.56 1.89 9.54 2.99 14.43 3.78 35.41 5.76 70.82 11.48 106.28 16.92 17.55 2.69 34.49 6.77 49.86 16.19 4.18 2.56 9.1 3.99 13.8 5.61 26.22 9.04 53.3 10.01 80.56 7.85 31.54-2.49 62.42-9.41 93.09-16.62 28.39-6.68 53.41-21.92 78.78-35.83 1.72-.94 3.22-2.38 4.61-3.79 21.71-21.99 44.21-42.97 63.37-67.66 31.43-40.49 56.41-84.79 81.16-129.2 14.69-26.35 25.65-54.8 37.91-82.47 4.71-10.62 8.37-21.71 12.55-32.57 6.56-17.06 14.5-33.74 19.42-51.26 7.09-25.22 11.36-51.22 17.99-76.59 8.14-31.12 11.72-62.66 10.73-94.71z"
          fill="#060606"/>
    <path d="M1690.39 962.61c1 32.06-2.59 63.59-10.73 94.71-6.63 25.37-10.91 51.37-17.99 76.59-4.92 17.52-12.86 34.2-19.42 51.26-4.18 10.86-7.84 21.95-12.55 32.57-12.27 27.67-23.23 56.12-37.91 82.47-24.75 44.41-49.74 88.71-81.16 129.2-19.16 24.69-41.66 45.67-63.37 67.66-1.39 1.41-2.9 2.85-4.61 3.79-25.38 13.91-50.39 29.15-78.78 35.83-30.67 7.21-61.55 14.13-93.09 16.62-27.27 2.16-54.35 1.19-80.56-7.85-4.7-1.62-9.62-3.05-13.8-5.61-15.37-9.42-32.31-13.5-49.86-16.19-35.46-5.43-70.87-11.16-106.28-16.92-4.89-.8-9.88-1.89-14.43-3.78-40.91-16.96-81.68-34.43-116.9-61.91-20.17-15.74-39.18-32.98-58.66-49.61-4.81-4.1-9.59-8.28-14.02-12.77-5.35-5.43-11.28-10.62-15.3-16.97-17.29-27.28-33.8-54.96-41.39-86.98-4.36-18.42-10.48-36.44-14.69-54.89-4.77-20.92-3.45-42.29-2.53-63.57.57-13.21 5.41-25.16 9.11-37.55 7.51-25.16 14.49-50.48 21.17-75.88 4.6-17.47 10.68-34.17 19.78-49.89 12.17-21 23.05-42.76 35.66-63.48 5.61-9.21 14.13-16.63 21.24-24.94 6.05-7.07 11.98-14.23 17.92-21.38 2.96-3.56 5.4-7.7 8.84-10.7 13.79-12.04 27.78-23.86 41.91-35.5 10.19-8.4 21.94-13.59 35.03-15.87 19.14-3.33 38.2-5.27 57.37.02 2.42.67 6.94.09 7.83-1.45 1.4-2.41 1.56-6.61.38-9.2-1.89-4.15-5.44-7.5-8.04-11.36-4.2-6.23-3.39-8.71 3.13-12.69 8.77-5.35 18.61-7.02 28.46-8.51 30.19-4.59 60.36-9.33 90.64-13.24 8.74-1.13 17.83.15 26.75.65 8.94.5 17.85 2.02 26.77 2.01 20.66-.02 41.06.61 61.36 5.78 18.25 4.65 37.06 2.69 55.48-.3 17.35-2.81 34.47-7 51.83-9.7 24.73-3.86 49.65-4.54 74.59-1.86 25.42 2.73 50.87 5.2 76.22 8.48 8.13 1.05 16.09 3.98 23.91 6.67 20.1 6.92 40.07 14.23 60.12 21.3 10.8 3.81 20.57 9.44 29.22 16.86 12.63 10.84 25.31 21.65 37.42 33.05 5.5 5.18 10.63 11.24 14.25 17.82 11.48 20.9 19.38 43.06 19.65 67.31.11 9.97.02 19.94.02 29.92z"
          fill="replace"/>
</svg>