<svg xmlns="http://www.w3.org/2000/svg" width="2351" height="2351">
    <path d="M0 0h2351v2351H0V0zm1726.49 893.15c0-3.99.05-6.32 0-8.65-.46-20.59-4.43-40.26-14.96-58.28-6.49-11.1-15.15-19.81-28.13-22.1-12.05-2.13-24.32-3.45-36.55-4.06-18.3-.91-36.47 1.28-54.55 4.12-29.73 4.66-57.24 14.65-81.26 33.26-3.67 2.84-7.67 5.28-11.61 7.76-13.28 8.35-27.49 12.42-43.46 11.91-12.89-.41-25.97.47-38.74 2.36-26.65 3.94-53.02 3.85-79.21-2.59-19.48-4.79-39.23-6.86-59.24-6.83-20.55.03-41.11-.15-61.66.05-25.7.25-51.03-3.63-76.39-6.9-12.11-1.56-24.24-4-35.91-7.53-10.11-3.06-19.65-8.08-29.32-12.51-7.55-3.46-15.14-6.95-22.31-11.12-13.2-7.68-26.36-15.48-39.04-23.96-10.47-7-20.54-14.7-30.24-22.76-10.15-8.43-20.95-15.42-33.88-18.32-9.03-2.03-18.21-3.59-27.41-4.6-18.96-2.09-37.77-3.18-55.53 6.63-5.98 3.3-13.15 4.44-19.73 6.69-3.45 1.18-7.14 2.11-10.16 4.04-21.06 13.41-39.39 29.34-50.13 52.75-4.41 9.63-9.99 18.8-15.7 27.75-4.99 7.81-8.28 15.96-8.02 25.23.19 6.63.51 13.32 1.57 19.85 6.54 40.31 18.8 79.56 21.95 120.51 1.96 25.58 15.96 46.99 25.34 69.98.98 2.4 3.18 4.27 4.51 6.57 2.27 3.94 4.7 7.85 6.35 12.06 3.63 9.26 7.05 18.62 10.1 28.09 1.9 5.92 3.67 12.04 4.23 18.18.86 9.59.29 19.3.96 28.91 1.04 14.79-1.25 28.48-10.84 40.38-2.08 2.57-3.69 5.54-5.36 8.42-13.83 23.86-33.23 41-59.08 51.29-27.24 10.83-46.85 30.35-58.32 57.23-12.58 29.48-19.99 60.44-25.38 92.06-3.57 20.94.04 40.34 7.52 59.45 4.48 11.44 10.26 22.38 14.75 33.82 9.23 23.5 28.54 34.19 51.07 40.6 5.23 1.49 11.13 1.34 16.65.96 12.91-.9 21.79-8.96 30.05-17.95 6.97-7.6 13.27-16.16 21.36-22.32 25.67-19.52 51.96-38.24 78.23-56.95 4.23-3.01 9.44-5.22 14.52-6.37 13.6-3.09 27.31-5.84 41.1-7.84 7.14-1.03 14.57.07 21.85-.23 16.26-.67 32.52-1.37 48.75-2.51 12.89-.9 25.73-2.46 38.59-3.76 25.11-2.55 50.17-6.42 75.34-7.35 28.88-1.07 57.87.33 86.8.93 12.29.26 24.76.08 36.82 2.08 42.58 7.05 85.07 14.64 127.47 22.69 16.28 3.09 31.13 10.65 42.75 22.48 11.85 12.06 22.69 25.2 33.09 38.55 5.98 7.68 11.92 15.06 19.96 20.63 20.29 14.08 41.9 25.71 64.49 35.69 15.07 6.65 30.13 7.4 45.73 2.52 8.87-2.78 17.81-5.43 26.85-7.6 13.51-3.25 25.42-9.54 36.61-17.6 13.78-9.92 21.51-23.26 23.66-40 1.18-9.21 2.42-18.41 3.62-27.62 1.04-8.02.89-15.73-3.14-23.24-2.97-5.53-4.64-11.74-7.11-17.56-8.59-20.27-17.56-40.49-32.82-56.74-16.38-17.44-26.59-38.12-33.79-60.43-2.72-8.43-4.99-17.68-4.44-26.37 1.24-19.51 3.95-38.96 6.85-58.32 2.36-15.75 7.17-31.22 8.52-47.01 1.75-20.4 6.6-39.94 11.84-59.53 1.97-7.36 3.33-14.88 4.73-22.38 1.27-6.82 1.76-13.82 3.42-20.53 2.96-11.94 6.35-23.69 6.83-36.17.33-8.56 1.98-17.02 6.86-24.66 3.34-5.22 6.38-10.94 8-16.87 2.73-10.01 7.83-18.22 15.09-25.39 6.16-6.08 12.24-12.26 18.17-18.56 8.91-9.46 17.52-19.15 23.06-31.15 6.61-14.31 7.13-29.57 7.41-43.24z"
          fill="transparent"/>
    <path d="M1726.49 893.15c-.28 13.67-.8 28.93-7.41 43.24-5.54 12-14.16 21.69-23.06 31.15-5.93 6.3-12.01 12.48-18.17 18.56-7.27 7.17-12.36 15.37-15.09 25.39-1.62 5.92-4.66 11.65-8 16.87-4.88 7.63-6.53 16.1-6.86 24.66-.48 12.49-3.88 24.23-6.83 36.17-1.66 6.71-2.15 13.71-3.42 20.53-1.4 7.49-2.76 15.02-4.73 22.38-5.25 19.59-10.09 39.13-11.84 59.53-1.36 15.79-6.16 31.26-8.52 47.01-2.9 19.36-5.61 38.81-6.85 58.32-.55 8.69 1.72 17.93 4.44 26.37 7.2 22.31 17.41 42.99 33.79 60.43 15.26 16.25 24.23 36.47 32.82 56.74 2.47 5.82 4.14 12.02 7.11 17.56 4.03 7.51 4.18 15.22 3.14 23.24-1.2 9.21-2.44 18.41-3.62 27.62-2.15 16.73-9.88 30.08-23.66 40-11.19 8.05-23.1 14.34-36.61 17.6-9.04 2.17-17.97 4.83-26.85 7.6-15.6 4.89-30.66 4.13-45.73-2.52-22.59-9.97-44.19-21.61-64.49-35.69-8.04-5.58-13.98-12.96-19.96-20.63-10.4-13.35-21.25-26.49-33.09-38.55-11.62-11.83-26.47-19.39-42.75-22.48-42.4-8.05-84.89-15.64-127.47-22.69-12.06-2-24.53-1.82-36.82-2.08-28.93-.6-57.92-2-86.8-.93-25.17.93-50.23 4.8-75.34 7.35-12.86 1.3-25.7 2.86-38.59 3.76-16.23 1.14-32.49 1.84-48.75 2.51-7.28.3-14.71-.8-21.85.23-13.79 2-27.5 4.75-41.1 7.84-5.08 1.15-10.29 3.36-14.52 6.37-26.28 18.71-52.56 37.43-78.23 56.95-8.1 6.16-14.39 14.72-21.36 22.32-8.26 9-17.14 17.06-30.05 17.95-5.52.38-11.42.53-16.65-.96-22.53-6.4-41.83-17.09-51.07-40.6-4.49-11.44-10.27-22.38-14.75-33.82-7.48-19.11-11.1-38.51-7.52-59.45 5.4-31.62 12.8-62.58 25.38-92.06 11.47-26.88 31.08-46.4 58.32-57.23 25.85-10.28 45.25-27.43 59.08-51.29 1.67-2.88 3.29-5.84 5.36-8.42 9.59-11.89 11.88-25.58 10.84-40.38-.67-9.61-.1-19.32-.96-28.91-.55-6.14-2.32-12.27-4.23-18.18-3.04-9.47-6.47-18.83-10.1-28.09-1.65-4.21-4.07-8.13-6.35-12.06-1.32-2.3-3.53-4.17-4.51-6.57-9.38-22.99-23.38-44.41-25.34-69.98-3.14-40.96-15.4-80.21-21.95-120.51-1.06-6.53-1.39-13.22-1.57-19.85-.26-9.27 3.03-17.41 8.02-25.23 5.72-8.95 11.29-18.11 15.7-27.75 10.73-23.42 29.07-39.35 50.13-52.75 3.02-1.92 6.71-2.86 10.16-4.04 6.58-2.25 13.75-3.39 19.73-6.69 17.76-9.81 36.57-8.71 55.53-6.63 9.2 1.01 18.38 2.58 27.41 4.6 12.93 2.9 23.74 9.89 33.88 18.32 9.7 8.06 19.76 15.76 30.24 22.76 12.68 8.48 25.85 16.28 39.04 23.96 7.17 4.17 14.75 7.66 22.31 11.12 9.67 4.43 19.21 9.45 29.32 12.51 11.67 3.53 23.8 5.97 35.91 7.53 25.36 3.27 50.68 7.16 76.39 6.9 20.55-.2 41.11-.02 61.66-.05 20.02-.03 39.76 2.04 59.24 6.83 26.19 6.44 52.56 6.53 79.21 2.59 12.76-1.89 25.85-2.77 38.74-2.36 15.97.51 30.18-3.56 43.46-11.91 3.94-2.48 7.94-4.91 11.61-7.76 24.02-18.61 51.53-28.6 81.26-33.26 18.08-2.83 36.25-5.02 54.55-4.12 12.23.61 24.5 1.93 36.55 4.06 12.97 2.29 21.64 11 28.13 22.1 10.53 18.02 14.5 37.69 14.96 58.28.05 2.33 0 4.66 0 8.65zm-467.57 513.7l.12-1.31c2 0 4 .08 6-.01 22.56-1.05 44.35 1.87 65.49 10.49 7.85 3.2 16.72 4.71 25.24 5.33 24.59 1.78 47.68 8.59 69.99 18.65 26.12 11.78 44.09 32.86 61.27 54.52 9.25 11.67 19.36 22.14 32.37 29.17 13.73 7.41 28.14 13.53 42.09 20.54 23.35 11.72 46.61 8.77 69.47-.82 5.83-2.45 12.17-6.99 15.12-12.32 9.27-16.75 16.3-34.89 10.44-54.32-10.24-33.91-23.99-65.55-49.57-92.04-20.12-20.84-32.27-47.18-28.91-78 .47-4.29 1.38-8.69.89-12.9-2.95-25.56 8.19-49.78 6.94-75.17-.11-2.23 1.04-4.51 1.53-6.79 1.62-7.47 3.41-14.92 4.76-22.44 3.28-18.33 6.23-36.73 13.13-54.2 1.2-3.02 1.94-6.48 1.87-9.71-.27-12.18 2.75-23.7 5.93-35.29 3.34-12.16 6.39-24.42 9.05-36.75 1.04-4.81-.28-10.22 1.14-14.85 7.18-23.48 16.98-45.44 36.83-61.52 15.13-12.26 28.2-26.39 35.75-44.78 10.09-24.56 8.56-49.48 1.79-74.4-6.9-25.42-23.72-39.64-49.82-41.8-37.57-3.11-72.73 4.33-104.97 24.62-8.39 5.28-17.51 9.57-26.64 13.5-12.51 5.39-25.3 10.18-38.1 14.86-3.67 1.34-7.77 1.72-11.72 2.02-16.24 1.26-32.61 1.44-48.72 3.63-30.9 4.2-61.62 4.62-92.4-.61-13.77-2.34-27.5-5.65-41.37-6.42-24.58-1.36-49.24-1.05-73.87-1.59-9.64-.21-19.33-.33-28.9-1.32-20.83-2.16-41.69-4.34-62.38-7.52-10.75-1.65-21.94-3.88-31.61-8.56-31.13-15.07-62.3-30.25-90.2-51.15-7.44-5.57-15.56-10.27-23.6-14.96-3.02-1.77-6.63-2.86-10.1-3.47-12.09-2.13-24.55-2.79-36.29-6.09-24.31-6.84-47.98-6.2-71.42 2.8-18.29 7.02-35.12 16.18-45.05 34.27-4 7.29-7.6 14.82-11.82 21.98-10.86 18.43-11.98 38.55-10.04 59.01.47 4.97 3.78 9.66 5.77 14.49 2.39 5.76 6.09 11.35 6.91 17.33 3.19 23.05 5.91 46.2 7.93 69.38 1.57 18.06 7.14 34.42 17.04 49.44 2.93 4.45 5.82 8.93 9 13.2 8.12 10.9 13.47 22.83 14.75 36.51.37 3.95.98 8.02 2.34 11.72 7.6 20.63 9 42.24 9.94 63.83.94 21.67-5.01 41.41-19.09 58.38-4.24 5.11-8.22 10.48-11.94 15.98-16.89 24.99-39.29 43.39-67.17 54.54-25.65 10.26-40.9 28.89-47.39 55.1-4.23 17.1-7.48 34.44-11.59 51.57-3.3 13.79-4.5 27.54-1.67 41.51 3.63 17.94 7.2 35.9 15.74 52.35 9.94 19.16 25.95 28.84 47.34 29.79 8.93.4 17.16-1.4 23.69-8.28 4.33-4.56 8.82-9 13.57-13.11 14.58-12.62 29.59-24.75 43.88-37.68 7.37-6.67 13.68-14.33 22.96-18.82 10.77-5.21 21.13-11.26 31.71-16.87 15.64-8.29 31.48-16.17 49.65-16.84 11.64-.43 23.35-.96 34.95-.2 22.07 1.44 43.76-1.23 65.53-4.07 13.49-1.76 27.11-3.95 40.63-3.72 17.76.3 35.16-.79 52.59-4.13 15.72-3.01 31.57-3.61 47.66-1.64 21.76 2.66 43.67 4.04 65.52 5.97z"
          fill="#080605"/>
    <path d="M1258.92 1406.85c-21.85-1.93-43.76-3.31-65.52-5.97-16.09-1.97-31.94-1.38-47.66 1.64-17.43 3.34-34.84 4.43-52.59 4.13-13.52-.23-27.14 1.96-40.63 3.72-21.77 2.84-43.46 5.51-65.53 4.07-11.6-.76-23.31-.23-34.95.2-18.17.67-34.01 8.55-49.65 16.84-10.58 5.61-20.94 11.66-31.71 16.87-9.28 4.49-15.59 12.15-22.96 18.82-14.3 12.93-29.31 25.06-43.88 37.68-4.75 4.11-9.24 8.55-13.57 13.11-6.53 6.89-14.75 8.68-23.69 8.28-21.39-.95-37.4-10.63-47.34-29.79-8.54-16.45-12.11-34.41-15.74-52.35-2.83-13.97-1.64-27.73 1.67-41.51 4.1-17.13 7.35-34.47 11.59-51.57 6.49-26.21 21.74-44.84 47.39-55.1 27.88-11.15 50.28-29.55 67.17-54.54 3.72-5.5 7.7-10.87 11.94-15.98 14.08-16.98 20.03-36.72 19.09-58.38-.94-21.59-2.34-43.2-9.94-63.83-1.36-3.7-1.97-7.77-2.34-11.72-1.27-13.68-6.62-25.61-14.75-36.51-3.18-4.26-6.07-8.75-9-13.2-9.89-15.02-15.47-31.38-17.04-49.44-2.01-23.19-4.74-46.33-7.93-69.38-.83-5.98-4.53-11.56-6.91-17.33-2-4.82-5.3-9.52-5.77-14.49-1.93-20.46-.82-40.58 10.04-59.01 4.22-7.16 7.82-14.68 11.82-21.98 9.93-18.08 26.75-27.24 45.05-34.27 23.44-9 47.11-9.63 71.42-2.8 11.74 3.3 24.2 3.95 36.29 6.09 3.48.61 7.08 1.7 10.1 3.47 8.04 4.7 16.16 9.39 23.6 14.96 27.9 20.9 59.07 36.08 90.2 51.15 9.67 4.68 20.86 6.91 31.61 8.56 20.69 3.18 41.55 5.37 62.38 7.52 9.58.99 19.26 1.11 28.9 1.32 24.62.53 49.29.22 73.87 1.59 13.87.77 27.6 4.08 41.37 6.42 30.78 5.22 61.5 4.81 92.4.61 16.11-2.19 32.48-2.37 48.72-3.63 3.94-.3 8.05-.68 11.72-2.02 12.8-4.68 25.59-9.47 38.1-14.86 9.13-3.93 18.24-8.22 26.64-13.5 32.24-20.29 67.39-27.73 104.97-24.62 26.1 2.16 42.92 16.38 49.82 41.8 6.77 24.92 8.3 49.84-1.79 74.4-7.56 18.39-20.63 32.52-35.75 44.78-19.85 16.08-29.66 38.04-36.83 61.52-1.41 4.63-.1 10.04-1.14 14.85-2.66 12.33-5.71 24.59-9.05 36.75-3.18 11.59-6.21 23.11-5.93 35.29.07 3.23-.67 6.68-1.87 9.71-6.9 17.47-9.85 35.86-13.13 54.2-1.35 7.52-3.14 14.97-4.76 22.44-.49 2.27-1.64 4.56-1.53 6.79 1.24 25.38-9.89 49.6-6.94 75.17.49 4.21-.43 8.61-.89 12.9-3.36 30.82 8.79 57.16 28.91 78 25.58 26.49 39.33 58.13 49.57 92.04 5.86 19.43-1.17 37.57-10.44 54.32-2.95 5.33-9.3 9.88-15.12 12.32-22.86 9.59-46.12 12.55-69.47.82-13.95-7.01-28.37-13.13-42.09-20.54-13.02-7.03-23.12-17.5-32.37-29.17-17.18-21.67-35.15-42.74-61.27-54.52-22.31-10.06-45.4-16.87-69.99-18.65-8.52-.62-17.39-2.12-25.24-5.33-21.14-8.62-42.93-11.54-65.49-10.49-1.99.09-4 .01-6 .01l-.12 1.31z"
          fill="replace"/>
</svg>