<svg xmlns="http://www.w3.org/2000/svg" width="2351" height="2351">
    <path d="M2351 2351H0V0h2351v2351zM895.24 800.18c-51.19-1.6-95.19 15.44-132.15 50.86-8.27 7.93-14.92 16.89-19.61 27.39-6.67 14.92-8.47 30.57-8.33 46.72.27 31.96.24 63.92.14 95.87-.03 8.28-1.37 16.58-1.06 24.83.72 19.24 2.46 38.44 3.04 57.68.5 16.28.2 32.61-.18 48.9-.84 35.32 2.8 70.36 6.2 105.43 2.73 28.19 15.03 51.65 36.44 69.87 10.59 9.01 22.4 16.66 34.04 24.36 23.19 15.35 48.7 24.13 76.59 25.65 11.61.63 23.23 1.2 34.82 2.02 11.3.8 20.86 5.05 25.63 16 8.25 18.92 15.76 38.21 18.91 58.7 3.37 21.94 10.05 42.73 19.9 62.46 4.28 8.57 9.19 17.1 15.3 24.41 19.46 23.29 45.77 32.81 75.18 32.89 19.2.05 38.47-2.38 57.6-4.61 8.46-.99 17.03-3.38 24.92-6.64 27.92-11.56 52.52-28.57 75.48-48.03 2.26-1.92 4.23-4.25 6.09-6.59 38.4-48.39 68.21-101.48 87.82-160.17 2.95-8.81 5.53-17.89 9.74-26.11 6.36-12.41 13.74-24.33 21.21-36.12 2.98-4.7 6.86-9.15 11.21-12.58 8.35-6.57 17.16-12.61 26.13-18.29 3.53-2.23 7.93-3.72 12.1-4.21 25.75-3.03 51.58-5.42 77.32-8.53 18.78-2.27 37.86-3.78 56.12-8.34 34.01-8.5 62.16-28.31 87.82-51.41 8.27-7.45 15.28-16.78 21.13-26.32 11.33-18.46 19.56-38.48 26.33-59.09 3.61-10.98 4.73-21.77 2.32-33.31-4.41-21.17-11.63-40.83-25.56-57.74-15.37-18.64-34.93-28.08-59.09-28.25-9.65-.07-19.34-.12-28.93-1.03-24.43-2.31-48.81-5.2-73.23-7.68-23.18-2.35-46.21-5.47-68.21-13.56-31.9-11.73-59.6-29.1-78.9-58.18-7.53-11.34-16.15-22.01-24.77-32.57-26.92-32.95-59.54-58.86-97.97-77.15-8-3.81-16.86-5.99-25.5-8.27-13.75-3.62-27.8-1.3-41.73-1.44-9.52-.09-18.47 1.62-27.2 5.18-4.31 1.76-8.61 3.77-13.12 4.75-8.69 1.9-14.25 7.33-19.92 13.84-12.04 13.84-26.16 22.76-46.32 19.12-16.95-3.07-34.37-3.43-51.54-5.4-11.2-1.29-22.66-2.13-33.4-5.26-23.86-6.95-48.01-10.49-72.8-10.03z"
          fill="transparent"/>
    <path d="M895.24 800.18c24.79-.45 48.94 3.08 72.8 10.04 10.74 3.13 22.2 3.97 33.4 5.26 17.17 1.97 34.59 2.34 51.54 5.4 20.16 3.65 34.28-5.27 46.32-19.12 5.67-6.52 11.23-11.95 19.92-13.84 4.51-.98 8.81-2.99 13.12-4.75 8.73-3.56 17.68-5.28 27.2-5.18 13.94.14 27.98-2.18 41.73 1.44 8.64 2.27 17.49 4.46 25.5 8.27 38.43 18.29 71.05 44.2 97.97 77.15 8.63 10.56 17.25 21.22 24.77 32.57 19.3 29.08 47 46.45 78.9 58.18 22 8.09 45.03 11.21 68.21 13.56 24.42 2.48 48.8 5.36 73.23 7.68 9.59.91 19.28.96 28.93 1.03 24.17.17 43.73 9.61 59.09 28.25 13.94 16.91 21.15 36.58 25.56 57.74 2.4 11.54 1.28 22.33-2.32 33.31-6.77 20.61-15 40.63-26.33 59.09-5.85 9.54-12.86 18.88-21.13 26.32-25.66 23.1-53.82 42.91-87.82 51.41-18.26 4.57-37.34 6.07-56.12 8.34-25.74 3.11-51.57 5.5-77.32 8.53-4.16.49-8.57 1.97-12.1 4.21-8.98 5.69-17.79 11.72-26.13 18.29-4.36 3.43-8.24 7.88-11.21 12.58-7.47 11.79-14.86 23.71-21.21 36.12-4.21 8.21-6.79 17.29-9.74 26.11-19.62 58.7-49.43 111.79-87.82 160.17-1.86 2.34-3.82 4.67-6.09 6.59-22.96 19.46-47.56 36.47-75.48 48.03-7.89 3.27-16.45 5.65-24.92 6.64-19.13 2.24-38.4 4.66-57.6 4.61-29.41-.07-55.72-9.6-75.18-32.89-6.11-7.31-11.02-15.85-15.3-24.41-9.86-19.73-16.53-40.51-19.9-62.46-3.15-20.48-10.66-39.78-18.91-58.7-4.77-10.95-14.33-15.2-25.63-16-11.6-.82-23.21-1.39-34.82-2.02-27.89-1.52-53.4-10.3-76.59-25.65-11.63-7.7-23.45-15.35-34.04-24.36-21.4-18.22-33.7-41.68-36.44-69.87-3.4-35.06-7.04-70.1-6.2-105.43.39-16.29.68-32.62.18-48.9-.59-19.24-2.33-38.44-3.04-57.68-.31-8.25 1.04-16.55 1.06-24.83.1-31.96.13-63.92-.14-95.87-.14-16.15 1.66-31.8 8.33-46.72 4.69-10.5 11.34-19.46 19.61-27.39 36.96-35.43 80.96-52.46 132.15-50.87zm-4.14 15.45c-42.53.27-78.31 11.97-108.87 37.23-19.91 16.46-30.8 37.2-30.37 63.3.27 16.29 1.35 32.56 1.33 48.84-.03 19.27-.75 38.55-1.37 57.82-.87 27.3.28 54.42 2.92 81.68 2.62 27.07 1.92 54.46 2.48 81.71.1 4.95-1.54 10-1.03 14.87 2.04 19.47 4.76 38.86 6.95 58.31 2.46 21.85 12.16 39.22 28.69 54.04 33.76 30.25 71.95 48.37 117.92 48.88 10.91.12 21.89 1.66 32.66 3.56 13.37 2.35 23.11 9.45 26.86 23.46 1.8 6.72 4.46 13.24 7.09 19.71 6.8 16.71 12.16 33.85 14.3 51.79 2.13 17.86 8.65 34.07 17.09 49.7 12.49 23.13 30.43 39.35 56.73 44.96 22.05 4.7 44.3 5.66 66.43 1.23 39.94-7.98 72.84-28.42 99.4-58.93 8.93-10.25 16.83-21.49 24.38-32.83 13.25-19.93 28.59-38.72 37.46-61.21 9.38-23.8 20.35-46.94 28.36-71.34 3.91-11.91 11.19-22.67 15.92-34.37 6.45-15.95 16.5-28.7 30.34-38.73 17.13-12.41 35.22-23.69 56.26-26.9 27.25-4.15 54.81-6.55 82.31-8.64 25.16-1.92 49.1-6.14 71.39-19.4 20.53-12.21 39.79-25.41 54.65-44.32 17.6-22.4 26.59-48.31 29.49-76.26 2.27-21.84-2.27-42.49-15.55-60.49-8.61-11.67-18.39-22.51-33.54-25.08-14.05-2.38-28.33-3.49-42.53-4.98-10.89-1.14-21.84-1.78-32.72-3.03-17.49-2.01-34.9-5-52.44-6.39-38.15-3.03-73.46-14.7-107.02-32.68-15.96-8.55-28.93-20.07-38.36-35.42-17.03-27.73-38.42-51.83-62.04-73.96-16.35-15.32-34.76-27.82-55.53-36.65-14.23-6.05-29.01-9.38-44.43-10.4-22.92-1.52-44.46 1.81-62.82 16.91-11.8 9.7-23.05 20.15-35.35 29.17-6.53 4.79-14.64 7.6-22.3 10.59-3.69 1.44-6.97.06-8.11-4.77-2.51-10.69-2.74-10.11-13.69-11.4-28.38-3.33-56.76-6.75-85.02-10.97-20.34-3.04-40.2-9.4-58.31-8.63z"
          fill="#080705"/>
    <path d="M891.09 815.62c18.11-.77 37.97 5.59 58.31 8.63 28.26 4.22 56.64 7.64 85.02 10.97 10.95 1.29 11.18.71 13.69 11.4 1.14 4.84 4.42 6.21 8.11 4.77 7.67-3 15.77-5.8 22.3-10.59 12.3-9.02 23.54-19.46 35.35-29.17 18.36-15.1 39.9-18.42 62.82-16.91 15.43 1.02 30.2 4.36 44.43 10.4 20.77 8.82 39.18 21.32 55.53 36.65 23.61 22.13 45 46.22 62.04 73.96 9.43 15.36 22.4 26.87 38.36 35.42 33.56 17.98 68.86 29.65 107.02 32.68 17.54 1.39 34.94 4.38 52.44 6.39 10.88 1.25 21.83 1.89 32.72 3.03 14.2 1.49 28.47 2.6 42.53 4.98 15.15 2.57 24.93 13.41 33.54 25.08 13.28 18 17.82 38.64 15.55 60.49-2.91 27.95-11.9 53.85-29.49 76.26-14.86 18.91-34.12 32.11-54.65 44.32-22.29 13.26-46.23 17.48-71.39 19.4-27.51 2.09-55.06 4.49-82.31 8.64-21.04 3.2-39.12 14.49-56.26 26.9-13.84 10.03-23.88 22.78-30.34 38.73-4.73 11.69-12.01 22.46-15.92 34.37-8.01 24.39-18.97 47.54-28.36 71.34-8.87 22.49-24.21 41.28-37.46 61.21-7.54 11.34-15.45 22.58-24.38 32.83-26.56 30.51-59.46 50.95-99.4 58.93-22.13 4.42-44.38 3.47-66.43-1.23-26.3-5.61-44.24-21.83-56.73-44.96-8.44-15.64-14.97-31.84-17.09-49.7-2.14-17.94-7.5-35.07-14.3-51.79-2.63-6.47-5.29-12.99-7.09-19.71-3.75-14-13.49-21.1-26.86-23.46-10.77-1.9-21.76-3.44-32.66-3.56-45.96-.51-84.16-18.63-117.92-48.88-16.53-14.81-26.23-32.19-28.69-54.04-2.19-19.45-4.91-38.85-6.95-58.31-.51-4.86 1.13-9.92 1.03-14.87-.56-27.25.14-54.65-2.48-81.71-2.64-27.26-3.79-54.38-2.92-81.68.61-19.27 1.34-38.55 1.37-57.82.03-16.28-1.06-32.56-1.33-48.84-.44-26.1 10.46-46.84 30.37-63.3 30.56-25.27 66.34-36.96 108.87-37.23z"
          fill="replace"/>
</svg>