<svg xmlns="http://www.w3.org/2000/svg" width="2351" height="2351">
    <path d="M0 0h2351v2351H0V0zm717.44 831.59c-8.98-10.56-16.74-20.12-24.98-29.23-4.92-5.44-10.48-6.01-15.16-2.66-4.48 3.21-6.46 10.66-3.57 16.06 2.8 5.25 5.87 10.51 9.65 15.07 15.93 19.2 32.98 37.52 48.1 57.33 22.2 29.08 42.77 59.39 64.63 88.73 22.65 30.41 44.79 61.26 71.75 88.23 5.06 5.06 9.07 11.58 12.18 18.09 20.61 43.18 48.14 82 76.42 120.22 19.78 26.73 41.12 52.31 62.05 78.18 19.1 23.6 39.71 45.78 64.5 63.59 11.23 8.06 20.35 18.1 29.19 28.51 4.52 5.32 8.73 10.94 13.53 15.99 18.57 19.53 37.6 38.64 55.96 58.36 33.39 35.87 70.2 68.12 106.11 101.33 7.34 6.79 15.01 12.03 25.68 10.16 1.25-.22 2.63.27 3.94.45 15.76 2.21 28.03-3.37 36.58-16.74 2.68-4.19 5.18-8.58 7.07-13.17 8.98-21.82 17.94-43.66 26.51-65.64 17.04-43.71 34.43-87.23 58.68-127.64 5.64-9.39 10.61-19.21 15.32-29.11 9.7-20.4 18.54-41.23 28.56-61.46 26.43-53.34 53.51-106.36 79.92-159.71 18-36.34 34.81-73.23 49.8-110.96 10.29-25.91 22.15-51.21 33.63-76.63 5.74-12.71 12.23-25.08 18.31-37.63 14.08-29.04 27.8-58.27 47.25-84.31 1.78-2.38 3.04-5.15 4.65-7.67 3.91-6.15-.17-17.17-6.91-19.2-5.35-1.61-10.8-3.25-16.32-3.87-11.85-1.35-23.78-2.03-35.67-3.02-8.25-.69-16.58-2.55-24.73-1.97-19.82 1.4-39.71 3.02-59.31 6.19-35.34 5.71-70.43 12.92-105.73 18.83-10.29 1.72-19.81 4.84-29.46 8.57-10.13 3.92-20.86 6.87-31.59 8.52-11.7 1.8-23.72 1.41-35.58 2.34-29.08 2.29-58.09 5.81-87.21 6.96-37.57 1.48-75.22 1.06-112.84 1.61-16.61.24-33.21.86-49.81 1.34-1.66.05-3.33.17-4.95.5-26.13 5.25-52.62 6.8-79.17 7.86-10.59.42-21.16 1.27-31.73 2.06-19.18 1.44-38.33 3.85-57.53 4.32-36.87.9-73.74 1.02-110.5 4.65-12.87 1.27-25.81 1.99-38.72 2.74-23.52 1.36-47.04 3.11-70.58 3.49-8.16.13-14.36.92-17.92 10.36z"
          fill="transparent"/>
    <path d="M717.44 831.59c3.55-9.44 9.75-10.23 17.92-10.36 23.54-.38 47.06-2.13 70.58-3.49 12.92-.74 25.85-1.47 38.72-2.74 36.75-3.63 73.63-3.75 110.5-4.65 19.2-.47 38.35-2.87 57.53-4.32 10.57-.8 21.14-1.64 31.73-2.06 26.55-1.05 53.04-2.61 79.17-7.86 1.62-.33 3.3-.45 4.95-.5 16.6-.48 33.21-1.1 49.81-1.34 37.61-.55 75.26-.13 112.84-1.61 29.12-1.15 58.13-4.67 87.21-6.96 11.85-.93 23.88-.54 35.58-2.34 10.73-1.65 21.46-4.59 31.59-8.52 9.65-3.74 19.17-6.85 29.46-8.57 35.31-5.91 70.4-13.12 105.73-18.83 19.6-3.17 39.49-4.78 59.31-6.19 8.16-.58 16.48 1.28 24.73 1.97 11.89 1 23.82 1.68 35.67 3.02 5.52.63 10.97 2.26 16.32 3.87 6.74 2.03 10.82 13.05 6.91 19.2-1.6 2.52-2.86 5.29-4.65 7.67-19.45 26.03-33.18 55.26-47.25 84.31-6.09 12.55-12.58 24.92-18.31 37.63-11.48 25.43-23.33 50.72-33.63 76.63-14.99 37.74-31.8 74.62-49.8 110.96-26.42 53.35-53.5 106.37-79.92 159.71-10.03 20.24-18.87 41.06-28.56 61.46-4.7 9.9-9.68 19.72-15.32 29.11-24.26 40.41-41.65 83.93-58.68 127.64-8.57 21.99-17.52 43.82-26.51 65.64-1.89 4.59-4.39 8.98-7.07 13.17-8.55 13.38-20.82 18.96-36.58 16.74-1.32-.18-2.69-.67-3.94-.45-10.67 1.86-18.34-3.38-25.68-10.16-35.91-33.21-72.72-65.46-106.11-101.33-18.36-19.72-37.39-38.83-55.96-58.36-4.8-5.05-9.01-10.67-13.53-15.99-8.84-10.41-17.96-20.44-29.19-28.51-24.79-17.81-45.4-40-64.5-63.59-20.93-25.86-42.27-51.45-62.05-78.18-28.28-38.22-55.8-77.04-76.42-120.22-3.11-6.51-7.12-13.03-12.18-18.09-26.96-26.97-49.1-57.82-71.75-88.23-21.86-29.34-42.43-59.66-64.63-88.73-15.12-19.8-32.17-38.12-48.1-57.33-3.78-4.56-6.85-9.82-9.65-15.07-2.88-5.4-.91-12.86 3.57-16.06 4.68-3.35 10.25-2.78 15.16 2.66 8.25 9.11 16 18.67 24.98 29.23zm.49 2.3c3.86 4.66 6.67 8.22 9.65 11.62 18.24 20.79 35.26 42.46 50.37 65.68 8.34 12.8 16.98 25.58 26.92 37.13 15.03 17.47 27.91 36.38 41.08 55.18 8.55 12.2 18.74 23.24 28.08 34.9 2.45 3.06 4.61 6.39 6.65 9.76 6.19 10.21 11.82 20.79 18.47 30.68 11.32 16.82 23.42 33.12 34.89 49.84 12.42 18.11 25.06 35.97 39.63 52.52 9.63 10.93 17.54 23.36 26.4 34.98 6.83 8.97 13.35 18.28 21.02 26.49 17.04 18.24 34.69 35.91 52.15 53.75 10.92 11.17 21.69 22.5 32.99 33.28 16.68 15.91 31.82 32.99 44.84 52.1 11.89 17.46 27.09 31.92 44.51 43.92 14.3 9.86 28.06 20.35 38.76 34.2 19.93 25.79 44.55 46.55 70.19 66.24 5.96 4.58 9.51 4.15 14.3-1.78 2.05-2.54 3.51-5.63 4.89-8.63 4.05-8.75 7.8-17.64 11.88-26.38 12.81-27.42 26.28-54.54 35.06-83.66 1.04-3.44 2.99-6.63 4.68-9.85 6.95-13.24 14.29-26.29 20.87-39.71 11.41-23.3 21.55-47.24 36.23-68.83 2.04-3 3.87-6.33 4.91-9.78 6.57-21.89 18.59-41.17 28.91-61.26 5.31-10.33 10.22-20.86 15.55-31.17 11.46-22.15 23.4-44.05 34.53-66.36 13.21-26.48 25.77-53.3 38.64-79.95 4.19-8.67 9.24-17.02 12.53-26.01 15.71-42.87 34.49-84.35 54.54-125.33 16.37-33.46 32.09-67.24 48.07-100.9 1.28-2.69 2.58-5.42 3.46-8.25 2.28-7.34-1.24-13.36-8.66-14.77-2.59-.49-5.33-.63-7.96-.41-15.19 1.27-30.42 2.26-45.54 4.14-47.12 5.84-93.47 15.91-139.85 25.81-25.93 5.53-51.69 12.08-78.48 12.7-10.23.24-20.4 2.36-30.62 3.36-16.5 1.62-33 3.66-49.55 4.38-24.24 1.05-48.52 1.14-72.78 1.56-50.88.88-101.77 1.63-152.65 2.61-12.94.25-25.86 1.15-38.79 1.83-5.97.32-11.94.71-17.9 1.28-22.42 2.15-44.81 4.83-67.27 6.46-26.14 1.9-52.35 2.91-78.54 4.28-10.61.55-21.22 1.03-31.83 1.56-25.19 1.28-50.36 3.31-75.56 3.61-19.16.23-38.34-1.73-59.69-2.82z"
          fill="#070604"/>
    <path d="M717.93 833.89c21.35 1.1 40.54 3.05 59.69 2.82 25.2-.3 50.37-2.34 75.56-3.61 10.61-.54 21.22-1.01 31.83-1.56 26.18-1.37 52.39-2.38 78.54-4.28 22.46-1.63 44.84-4.32 67.27-6.46 5.95-.57 11.92-.97 17.9-1.28 12.93-.68 25.85-1.58 38.79-1.83 50.88-.99 101.77-1.73 152.65-2.61 24.26-.42 48.55-.51 72.78-1.56 16.55-.72 33.05-2.76 49.55-4.38 10.22-1.01 20.4-3.13 30.62-3.36 26.79-.62 52.55-7.17 78.48-12.7 46.39-9.9 92.73-19.97 139.85-25.81 15.12-1.87 30.35-2.87 45.54-4.14 2.63-.22 5.37-.08 7.96.41 7.42 1.4 10.94 7.43 8.66 14.77-.88 2.84-2.18 5.56-3.46 8.25-15.98 33.65-31.7 67.43-48.07 100.9-20.04 40.98-38.83 82.46-54.54 125.33-3.3 8.99-8.35 17.34-12.53 26.01-12.87 26.66-25.42 53.47-38.64 79.95-11.13 22.31-23.08 44.21-34.53 66.36-5.33 10.31-10.24 20.84-15.55 31.17-10.33 20.09-22.34 39.37-28.91 61.26-1.04 3.45-2.87 6.79-4.91 9.78-14.68 21.59-24.82 45.53-36.23 68.83-6.57 13.42-13.92 26.47-20.87 39.71-1.69 3.22-3.64 6.41-4.68 9.85-8.78 29.12-22.25 56.25-35.06 83.66-4.08 8.74-7.84 17.63-11.88 26.38-1.39 3-2.84 6.09-4.89 8.63-4.79 5.92-8.34 6.36-14.3 1.78-25.64-19.7-50.26-40.46-70.19-66.24-10.7-13.85-24.46-24.34-38.76-34.2-17.42-12.01-32.62-26.47-44.51-43.92-13.02-19.11-28.15-36.19-44.84-52.1-11.3-10.77-22.07-22.11-32.99-33.28-17.46-17.84-35.11-35.51-52.15-53.75-7.67-8.21-14.19-17.52-21.02-26.49-8.85-11.63-16.77-24.05-26.4-34.98-14.57-16.54-27.21-34.41-39.63-52.52-11.47-16.72-23.57-33.02-34.89-49.84-6.66-9.89-12.28-20.47-18.47-30.68-2.04-3.36-4.19-6.69-6.65-9.76-9.34-11.66-19.53-22.7-28.08-34.9-13.18-18.8-26.06-37.71-41.08-55.18-9.94-11.55-18.59-24.33-26.92-37.13-15.12-23.21-32.14-44.89-50.37-65.68-2.98-3.4-5.79-6.96-9.65-11.62z"
          fill="replace"/>
</svg>