<svg xmlns="http://www.w3.org/2000/svg" width="2351" height="2351">
    <path d="M0 0h2351v2351H0V0zm928.4 834.86c-10.87.94-20.81 1.65-30.71 2.7-19.15 2.03-38.36 3.69-57.38 6.57-19.38 2.93-38.54 7.31-57.85 10.74-10.12 1.8-19.04 5.82-26.7 12.59-20.27 17.89-31.99 40.44-36.25 67.02-4.62 28.84-9 57.72-14.06 86.49-3.85 21.9-9.19 43.54-12.79 65.47-3.21 19.58-3.32 39.67-10.42 58.6-1.24 3.31-1.1 7.24-1.11 10.88-.03 11.31.09 22.63.33 33.94.32 15.3 1.86 30.78-2.6 45.65-4.03 13.43-4.06 26.94-2.89 40.54.65 7.59 2.3 15.11 3.9 22.58 2.63 12.33 5.07 24.73 8.53 36.83 3.82 13.38 9.36 26.28 12.95 39.71 6.05 22.65 18.15 40.55 38.48 52.4 23.85 13.9 47.89 27.48 71.9 41.1 2.87 1.62 6.01 3.18 9.2 3.73 21.28 3.66 42.51 8.17 63.96 10.13 16.1 1.46 32.5-.63 48.77-.88 31.29-.48 62.59-1.15 93.88-1.03 26.27.11 52.54 1.5 78.82 1.81 16.96.2 33.92-.69 50.88-.78 60.95-.33 121.9-.12 182.83-1.01 20.88-.3 41.7-3.47 62.58-4.88 9.23-.62 18.54-.36 27.8-.07 9.27.29 18.7 2.52 27.76 1.44 25.11-3 49.62-9.19 73.48-17.65 12.81-4.54 25.45-9.57 38.13-14.47 1.83-.71 3.51-1.87 5.15-2.99 18.41-12.57 36.65-25.39 55.23-37.7 11.5-7.62 19.6-17.56 25.14-30.16 6.81-15.51 13.96-30.91 21.8-45.91 10.98-21.01 20.7-42.52 26.17-65.58 4.29-18.08 8.64-36.37 10.22-54.81 2.51-29.12 12.64-57 12.03-86.67-.35-16.82 3.01-33.71 4.63-50.58 2.73-28.47 5.09-56.76-.36-85.41-3.33-17.49-3.33-35.67-4.2-53.57-.63-12.9.76-25.97-.62-38.76-.97-9.03-3.93-18.31-8.04-26.45-6.78-13.46-16.79-24.81-28.59-34.3-12.86-10.34-26.87-18.56-43.74-20.18-17.81-1.7-35.66-3.02-53.49-4.56-1.97-.17-3.89-.82-5.86-1.1-15.12-2.15-30.19-5.51-45.38-6.12-26.25-1.05-52.58-.95-78.84-.21-11.83.34-23.69 2.91-35.35 5.35-10.71 2.24-21.04 6.28-31.75 8.44-24.74 4.98-49.65 9.08-74.41 13.95-28.38 5.59-56.75 10.99-85.69 12.78-9.92.61-19.89 1.49-29.65 3.26-19.77 3.58-39.51 4.25-59.56 3.03-15.22-.93-30.58 0-45.86.53-7.95.28-15.86 1.53-23.8 2.34-13.33 1.35-26.67 1.23-39.67-2.07-22.68-5.76-45.82-7.62-69.03-9.28-12.92-.93-25.8-2.32-37.87-3.43z"
          fill="transparent"/>
    <path d="M928.4 834.86c12.07 1.11 24.95 2.51 37.87 3.43 23.21 1.66 46.35 3.52 69.03 9.28 13 3.3 26.34 3.42 39.67 2.07 7.93-.8 15.85-2.05 23.8-2.34 15.28-.54 30.64-1.46 45.86-.53 20.05 1.22 39.79.55 59.56-3.03 9.76-1.77 19.74-2.65 29.65-3.26 28.95-1.79 57.32-7.19 85.69-12.78 24.76-4.87 49.67-8.97 74.41-13.95 10.72-2.16 21.05-6.2 31.75-8.44 11.66-2.44 23.52-5.01 35.35-5.35 26.26-.75 52.59-.85 78.84.21 15.18.61 30.26 3.97 45.38 6.12 1.97.28 3.89.93 5.86 1.1 17.83 1.54 35.68 2.86 53.49 4.56 16.87 1.61 30.89 9.83 43.74 20.18 11.8 9.49 21.81 20.84 28.59 34.3 4.1 8.14 7.06 17.42 8.04 26.45 1.38 12.79 0 25.85.62 38.76.87 17.9.87 36.08 4.2 53.57 5.45 28.65 3.09 56.94.36 85.41-1.62 16.87-4.98 33.76-4.63 50.58.62 29.67-9.52 57.55-12.03 86.67-1.59 18.43-5.93 36.73-10.22 54.81-5.47 23.07-15.19 44.58-26.17 65.58-7.85 15.01-14.99 30.4-21.8 45.91-5.54 12.6-13.63 22.54-25.14 30.16-18.58 12.31-36.83 25.13-55.23 37.7-1.64 1.12-3.32 2.28-5.15 2.99-12.68 4.91-25.32 9.93-38.13 14.47-23.86 8.45-48.37 14.65-73.48 17.65-9.06 1.08-18.49-1.15-27.76-1.44-9.26-.29-18.57-.55-27.8.07-20.88 1.41-41.71 4.58-62.58 4.88-60.94.89-121.89.68-182.83 1.01-16.96.09-33.93.99-50.88.78-26.28-.31-52.54-1.71-78.82-1.81-31.29-.13-62.59.55-93.88 1.03-16.27.25-32.67 2.35-48.77.88-21.45-1.95-42.68-6.47-63.96-10.13-3.19-.55-6.34-2.11-9.2-3.73-24.02-13.61-48.05-27.2-71.9-41.1-20.33-11.85-32.43-29.75-38.48-52.4-3.58-13.43-9.13-26.33-12.95-39.71-3.45-12.1-5.9-24.51-8.53-36.83-1.59-7.47-3.24-15-3.9-22.58-1.17-13.61-1.14-27.11 2.89-40.54 4.46-14.87 2.92-30.35 2.6-45.65-.24-11.31-.35-22.62-.33-33.94 0-3.64-.13-7.57 1.11-10.88 7.11-18.93 7.22-39.02 10.42-58.6 3.59-21.93 8.93-43.57 12.79-65.47 5.06-28.76 9.44-57.65 14.06-86.49 4.26-26.58 15.98-49.12 36.25-67.02 7.66-6.76 16.58-10.78 26.7-12.59 19.31-3.44 38.47-7.81 57.85-10.74 19.02-2.88 38.24-4.54 57.38-6.57 9.9-1.05 19.84-1.75 30.71-2.7zm96.97 38.15c-.79.15-1.59.31-2.38.46-10.74 2.96-21.06.47-31.36-2.39-10.26-2.85-20.48-5.85-30.8-8.42-17.22-4.28-34.55-7.28-52.28-2.65-2.53.66-5.3.8-7.93.62-40.12-2.8-78.83 5.5-117.35 15.03-14.46 3.58-25.02 12.73-30.84 26.28-4.97 11.57-9.41 23.52-12.53 35.7-9.32 36.38-14.57 73.65-24.05 110.07-6 23.07-7.77 47.2-12.73 70.58-4.74 22.34-6.47 44.74-5.58 67.43.86 21.99.7 43.85-3.38 65.64-2.27 12.15-1.81 24.55 1.88 36.6 7.99 26.08 15.97 52.16 23.88 78.27 3.58 11.83 9.95 21.75 19.8 29.28 27.34 20.88 56.42 39.01 87.51 53.66 9.18 4.33 19.46 6.91 29.52 8.61 13.39 2.27 27.04 3.06 40.61 4.15 8.59.69 17.26 1.3 25.85.95 10.6-.43 21.14-2.4 31.74-2.81 25.59-.98 51.2-1.67 76.81-2.01 12.61-.17 25.24 1.11 37.86 1.05 46.27-.23 92.54-.96 138.81-1.07 25.61-.06 51.23.83 76.84 1.1 17.32.18 34.65.08 51.97 0 3.64-.02 7.28-.44 10.92-.73 22.18-1.76 44.2-5.12 66.59-4.82 17.92.24 35.93-.42 53.79-1.89 44.39-3.65 84.62-19.2 121.85-43.43 17.79-11.58 32.01-26.23 41.33-45.08 11.8-23.84 22.59-48.19 33.74-72.35.82-1.77 1.05-3.82 1.54-5.74 2.23-8.68 4.33-17.39 6.7-26.02 2.55-9.29 6.13-18.36 7.87-27.79 4.35-23.52 7.93-47.17 11.74-70.79.47-2.94.65-5.97.57-8.95-.45-16.78 2.01-33.2 6.41-49.29 8.9-32.54 10.72-65.35 6.16-98.81-2.28-16.73-4.87-33.6-2.58-50.69.7-5.21.92-10.96-.58-15.87-3.04-9.98-1.72-19.65-.73-29.61.54-5.44.18-11.39-1.53-16.53-2.83-8.48-7.04-16.51-10.75-24.7-5.7-12.59-14.91-21.84-26.95-28.51-14.72-8.16-30.48-10.55-47.15-10.34-12.22.15-24.7-.29-36.64-2.63-26.02-5.1-52.12-6.2-78.45-4.96-23.96 1.14-47.46 5.42-70.99 9.9-28.07 5.34-56.28 9.98-84.47 14.67-25.57 4.26-51.2 8.11-76.78 12.27-13.44 2.19-26.95 4.16-40.23 7.1-22.89 5.08-46.07 7.43-69.37 6.75-32.6-.95-65.16-3.09-97.65 1.58l-31.91.63-4.34.48z"
          fill="#050508"/>
    <path d="M1061.63 871.9c32.49-4.68 65.05-2.53 97.65-1.58 23.3.68 46.48-1.67 69.37-6.75 13.28-2.95 26.79-4.92 40.23-7.1 25.58-4.16 51.21-8.02 76.78-12.27 28.19-4.69 56.4-9.33 84.47-14.67 23.52-4.48 47.02-8.77 70.99-9.9 26.33-1.25 52.44-.14 78.45 4.96 11.94 2.34 24.42 2.79 36.64 2.63 16.67-.21 32.44 2.17 47.15 10.34 12.03 6.67 21.25 15.92 26.95 28.51 3.7 8.19 7.92 16.21 10.75 24.7 1.71 5.14 2.07 11.09 1.53 16.53-.98 9.95-2.3 19.63.73 29.61 1.5 4.91 1.27 10.67.58 15.87-2.29 17.1.3 33.97 2.58 50.69 4.56 33.46 2.74 66.27-6.16 98.81-4.4 16.1-6.87 32.52-6.41 49.29.08 2.98-.1 6.01-.57 8.95-3.8 23.61-7.39 47.27-11.74 70.79-1.74 9.42-5.32 18.5-7.87 27.79-2.37 8.64-4.48 17.35-6.7 26.02-.49 1.92-.72 3.97-1.54 5.74-11.15 24.16-21.94 48.5-33.74 72.35-9.33 18.85-23.54 33.5-41.33 45.08-37.23 24.23-77.46 39.78-121.85 43.43-17.87 1.47-35.87 2.13-53.79 1.89-22.39-.3-44.41 3.06-66.59 4.82-3.64.29-7.28.71-10.92.73-17.32.08-34.65.18-51.97 0-25.62-.27-51.23-1.17-76.84-1.1-46.27.11-92.54.84-138.81 1.07-12.62.06-25.25-1.22-37.86-1.05-25.61.34-51.22 1.03-76.81 2.01-10.6.41-21.14 2.38-31.74 2.81-8.59.35-17.26-.27-25.85-.95-13.57-1.09-27.22-1.88-40.61-4.15-10.06-1.7-20.34-4.28-29.52-8.61-31.09-14.66-60.18-32.79-87.51-53.66-9.85-7.52-16.22-17.44-19.8-29.28-7.91-26.1-15.89-52.19-23.88-78.27-3.69-12.05-4.16-24.45-1.88-36.6 4.08-21.79 4.23-43.65 3.38-65.64-.89-22.69.84-45.09 5.58-67.43 4.96-23.38 6.73-47.51 12.73-70.58 9.48-36.42 14.72-73.69 24.05-110.07 3.12-12.18 7.56-24.13 12.53-35.7 5.82-13.55 16.38-22.7 30.84-26.28 38.52-9.53 77.22-17.84 117.35-15.03 2.62.18 5.4.04 7.93-.62 17.73-4.63 35.06-1.63 52.28 2.65 10.33 2.57 20.55 5.57 30.8 8.42 10.3 2.86 20.62 5.35 31.37 2.39.79-.15 1.58-.31 2.38-.46l4.34-.48c10.67 1.39 21.34 2.59 31.91-.63z"
          fill="replace"/>
</svg>