<svg xmlns="http://www.w3.org/2000/svg" width="2351" height="2351">
    <path d="M2351 2351H0V0h2351v2351zM853.44 940.43c-9.59-3.64-11.16-9.74-11.6-16.01-.37-5.27.51-10.61.59-15.93.08-5.4-2.39-7.05-7.55-5.36-11.95 3.92-18.51 16.7-14.51 28.9 2.83 8.65 7.6 16.12 14.04 22.71 6.03 6.17 11.95 12.6 16.91 19.62 7.54 10.68 17.06 18.41 28.92 23.72 9.7 4.34 19.17 9.19 28.65 14 10.48 5.32 19.94 12.01 27.16 21.51 9.57 12.59 12.87 26.06 6.06 41.09-2.06 4.54-3.6 9.31-5.79 13.78-2.03 4.13-3.88 8.73-7.07 11.84-16.13 15.73-34.81 26.48-57.98 27.74-2.96.16-5.91.95-8.8 1.71-15.23 4.03-31.28 5.6-44.82 14.78-.54.37-1.24.49-1.83.8-10.33 5.27-20.73 10.44-30.94 15.93-2.55 1.37-4.91 3.52-6.66 5.84-4.99 6.6-9.74 13.41-14.35 20.29-1.83 2.73-3.76 5.72-4.45 8.85-1.68 7.64-1.97 15.69-9.7 20.54-1.13.71-1.22 3.01-1.87 4.54-4.6 10.89-5.28 22.43-6.74 34.02-3.11 24.76-.71 49.11 2.85 73.48 2.95 20.2 12.15 37.18 27.71 50.5 11.26 9.64 20.85 20.28 26.22 34.57 3.11 8.27 10.04 12.97 19.25 13.79 2.56.23 5.33.86 7.52 2.14 19.93 11.59 41.38 15.36 64.2 13.58 8.22-.64 16.56.17 24.83.53 4.63.2 9.3 1.5 13.84 1.08 6.56-.6 13-2.48 19.54-3.5 5.19-.81 10.98-2.64 15.22 1.7 6.98 7.14 15.39 8.39 24.71 8.04 4.58-.17 10.1-.65 13.63 1.54 8.85 5.49 18.59 6.81 28.32 8.92 31.04 6.73 54.1 24.17 69.46 52.01 2.03 3.67 4.88 7.8 8.42 9.55 11.7 5.8 19.51 15.86 28.94 24.18 6.16 5.44 13.26 9.81 19.95 14.64 4.55 3.29 9.63 6.05 13.57 9.96 5.97 5.93 12.78 8.07 20.85 7.16 5.62-.63 11.21-1.52 16.84-1.92 25.83-1.85 50.43-7.78 73.41-20.25 7.2-3.91 15.47-5.84 23.26-8.65 4.65-1.67 9.48-2.93 13.96-4.98 13.28-6.08 26.14-13.8 40.96-14.99 20.53-1.65 41.16-2.97 61.73-2.82 16.22.12 32.41 2.65 48.61 4.18 1.27.12 2.63.55 3.71 1.22 21.99 13.52 47.41 14.39 71.7 19.3 7.06 1.43 14.17-.3 19.13-6.09 3.87-4.52 7.19-9.58 10.34-14.65 3.87-6.23 4.63-13.23 2.96-20.25-1.23-5.14-2.8-10.31-5.05-15.08-6.08-12.94-12.3-25.82-18.99-38.45-19.99-37.7-28.18-77.28-19.2-119.52 8.51-40.04 20.67-78.18 50.44-108.76 21.99-22.58 46.14-40.94 76.37-50.74 3.71-1.2 7.56-3.14 10.38-5.77 18-16.81 31.1-36.33 32.6-61.91.45-7.6 1.27-15.18 1.57-22.79 1.02-26.02-.99-51.85-5.55-77.47-.51-2.87-1.55-5.99-3.33-8.21-8.75-10.92-17.54-22.1-30.09-28.85-21.51-11.58-44.28-19.72-68.72-22.66-12.52-1.5-25.06-3-37.51-4.96-25.58-4.04-50.88-10.4-77.14-8.53-3.56.25-7.24-.77-10.84-1.36-13.17-2.15-26.34-4.1-39.67-1.25-9.1 1.95-18.26 3.66-27.29 5.88-16.88 4.15-34.04 6.58-51.35 6.38-26.94-.32-53.86-1.86-80.8-2.43-17.37-.37-34.51-2.08-51.25-6.75-14.07-3.92-27.85-9.06-42.08-12.2-23.24-5.13-45.26-13.09-66.14-24.41-12.24-6.63-22.17-15.56-29.95-27.22-11.38-17.04-25.56-31.51-42.38-43.32-22.29-15.64-46.41-24.11-74.14-20-28.07 4.16-53.74 14.63-78.16 28.57-28.01 15.98-43.17 48.71-37.71 80.61 1.15 6.73 1.64 13.56 2.66 22.33z"
          fill="transparent"/>
    <path d="M853.44 940.43c-1.02-8.77-1.51-15.61-2.66-22.33-5.46-31.9 9.7-64.63 37.71-80.61 24.42-13.93 50.09-24.41 78.16-28.57 27.73-4.11 51.85 4.36 74.14 20 16.82 11.8 31 26.28 42.38 43.32 7.79 11.66 17.72 20.59 29.95 27.22 20.89 11.32 42.9 19.29 66.14 24.41 14.23 3.14 28.01 8.27 42.08 12.2 16.74 4.67 33.88 6.38 51.25 6.75 26.94.57 53.86 2.11 80.8 2.43 17.31.2 34.47-2.23 51.35-6.38 9.03-2.22 18.19-3.94 27.29-5.88 13.33-2.85 26.49-.9 39.67 1.25 3.6.59 7.27 1.61 10.84 1.36 26.26-1.86 51.55 4.49 77.14 8.53 12.46 1.97 24.99 3.46 37.51 4.96 24.44 2.93 47.21 11.08 68.72 22.66 12.55 6.75 21.33 17.93 30.09 28.85 1.78 2.22 2.82 5.35 3.33 8.21 4.55 25.62 6.56 51.45 5.55 77.47-.3 7.6-1.12 15.19-1.57 22.79-1.5 25.58-14.61 45.09-32.6 61.91-2.82 2.63-6.66 4.57-10.38 5.77-30.23 9.79-54.37 28.15-76.37 50.74-29.78 30.58-41.93 68.72-50.44 108.76-8.98 42.24-.79 81.82 19.2 119.52 6.69 12.62 12.91 25.51 18.99 38.45 2.24 4.77 3.82 9.94 5.05 15.08 1.67 7.02.91 14.02-2.96 20.25-3.15 5.07-6.47 10.13-10.34 14.65-4.96 5.79-12.06 7.52-19.13 6.09-24.29-4.91-49.71-5.78-71.7-19.3-1.08-.67-2.44-1.1-3.71-1.22-16.2-1.53-32.4-4.06-48.61-4.18-20.57-.15-41.2 1.16-61.73 2.82-14.83 1.19-27.68 8.91-40.96 14.99-4.47 2.05-9.31 3.31-13.96 4.98-7.79 2.8-16.06 4.74-23.26 8.65-22.98 12.47-47.58 18.4-73.41 20.25-5.63.4-11.23 1.29-16.84 1.92-8.08.91-14.88-1.23-20.85-7.16-3.94-3.91-9.01-6.66-13.57-9.96-6.69-4.84-13.79-9.21-19.95-14.64-9.42-8.32-17.24-18.38-28.94-24.18-3.54-1.76-6.39-5.88-8.42-9.55-15.36-27.84-38.42-45.29-69.46-52.01-9.73-2.11-19.47-3.43-28.32-8.92-3.53-2.19-9.05-1.71-13.63-1.54-9.32.35-17.72-.9-24.71-8.04-4.24-4.34-10.04-2.51-15.22-1.7-6.54 1.02-12.98 2.9-19.54 3.5-4.54.42-9.21-.89-13.84-1.08-8.28-.35-16.62-1.17-24.83-.53-22.82 1.78-44.26-1.98-64.2-13.58-2.19-1.27-4.96-1.91-7.52-2.14-9.21-.82-16.14-5.52-19.25-13.79-5.37-14.29-14.96-24.93-26.22-34.57-15.56-13.32-24.76-30.31-27.71-50.5-3.56-24.37-5.97-48.72-2.85-73.48 1.46-11.59 2.14-23.13 6.74-34.02.65-1.53.74-3.83 1.87-4.54 7.73-4.85 8.02-12.9 9.7-20.54.69-3.13 2.61-6.11 4.45-8.85 4.62-6.88 9.36-13.68 14.35-20.29 1.75-2.32 4.12-4.47 6.66-5.84 10.22-5.49 20.61-10.66 30.94-15.93.59-.3 1.29-.43 1.83-.8 13.54-9.18 29.59-10.76 44.82-14.78 2.89-.76 5.84-1.55 8.8-1.71 23.17-1.26 41.85-12.01 57.98-27.74 3.19-3.11 5.04-7.71 7.07-11.84 2.19-4.46 3.73-9.24 5.79-13.78 6.81-15.03 3.5-28.5-6.06-41.09-7.21-9.5-16.67-16.18-27.16-21.51-9.48-4.81-18.95-9.67-28.65-14-11.86-5.31-21.38-13.03-28.92-23.72-4.96-7.03-10.88-13.45-16.91-19.62-6.44-6.59-11.21-14.06-14.04-22.71-4-12.2 2.56-24.98 14.51-28.9 5.16-1.69 7.63-.04 7.55 5.36-.08 5.31-.96 10.66-.59 15.93.45 6.28 2.01 12.38 11.6 16.01zm23.24-23.16c-.76 12.03-.82 23.73-2.48 35.19-1.05 7.27.41 13.26 4.42 18.78 5.52 7.59 11.75 14.34 21.35 17.22 4.71 1.42 9.07 4.13 13.45 6.54 11.37 6.25 22.95 12.18 33.84 19.19 4.79 3.08 9.04 7.93 11.9 12.92 6.47 11.27 7.35 24.09 7.41 36.79.09 18.29-5.97 33.9-21.24 45.09-1.87 1.37-3.58 3-5.21 4.66-20.08 20.45-44.21 32.11-72.74 36.15-22.49 3.18-43.95 10.78-64.05 21.57-13.11 7.04-22.15 17.87-27.14 31.99-2 5.65-4.14 11.24-6.32 16.82-9.64 24.63-14.42 49.74-8.54 76.16 1.87 8.42 3.18 17.02 4.01 25.61 1.35 14.02 6.08 26.68 14.97 37.43 9.96 12.04 20.78 23.36 31.02 35.19 20.27 23.43 45.64 33.34 76.43 29.53 3.92-.49 7.96-.23 11.93-.03 6.94.35 13.87 1.29 20.81 1.34 16.86.1 33.82-2.2 50.46 2.51 26.23 7.44 52.46 14.88 78.71 22.23 11.82 3.31 22.12 9.15 30.63 17.96 18.96 19.61 38.11 39.06 56.67 59.04 24.17 26.03 52.84 36.29 88.18 29.07 26.12-5.34 49.9-16.39 73.74-27.32 31.53-14.45 63.65-24.78 98.96-23.78 22.95.65 45.89-.42 68.3 6.15 14.35 4.21 28.88 7.85 43.39 11.5 9.99 2.51 19.99 5.26 30.15 6.71 11.18 1.6 17.76-4.79 17.85-15.97.12-15.99-5.32-30.38-15.44-42.27-8.86-10.42-15.57-21.59-18.98-34.65-3.43-13.15-6.78-26.38-9.1-39.76-1.86-10.68-3.75-21.79-2.73-32.43 1.67-17.47 5.05-34.86 8.85-52.04 8.36-37.81 24.08-71.82 53.58-98.24 2.7-2.42 5.28-5.21 7.09-8.31 6.33-10.8 15.75-17.68 26.73-23.16 17.87-8.92 35.64-18.04 53.19-27.57 12.86-6.99 22.01-17.14 23.61-32.55 1.2-11.56 2.98-23.08 3.54-34.67 1.1-23.04-.32-45.91-8.14-67.92-1.1-3.09-2.13-6.58-4.29-8.86-13.92-14.69-29.53-27.12-49.77-31.75-24.26-5.54-48.36-11.17-73.41-13.56-30-2.86-59.81-8.29-89.95-10.37-21.34-1.47-42.68-.11-63.23 5.81-13.95 4.02-26.9 5.64-41.73 3.07-19.78-3.43-40.05-6.52-60.46-4.85-1.64.13-3.32-.31-4.98-.3-4.56.02-9.29-.61-13.67.35-32.24 7.04-61.64-5.16-91.66-13.18-1.86-.5-3.36-2.22-5.19-2.94-3.64-1.44-7.33-2.87-11.12-3.8-8.05-1.98-16.25-3.39-24.27-5.47-15.78-4.09-29.19-14.38-45.34-17.57-.62-.12-1.26-.53-1.72-.97-9.38-8.93-20.77-16.56-27.67-27.12-13.46-20.58-31.21-36.18-50.38-50.67-9.33-7.05-20.1-10.95-31.75-9.78-16.19 1.63-32.29 4.24-48.38 6.7-8.59 1.31-50.21 19.74-57.39 24.79-10.03 7.06-15.96 16.83-18.96 28.47-3.76 14.61-1.53 19.95 11.21 28.2.26.17.45.47 1.08 1.14z"
          fill="#070506"/>
    <path d="M876.68 917.27c-.63-.67-.81-.96-1.08-1.14-12.75-8.26-14.97-13.59-11.21-28.2 3-11.64 8.93-21.41 18.96-28.47 7.18-5.05 48.8-23.48 57.39-24.79 16.1-2.46 32.19-5.07 48.38-6.7 11.65-1.17 22.42 2.73 31.75 9.78 19.17 14.49 36.92 30.09 50.38 50.67 6.9 10.56 18.29 18.19 27.67 27.12.47.44 1.11.85 1.72.97 16.15 3.2 29.56 13.49 45.34 17.57 8.02 2.08 16.22 3.49 24.27 5.47 3.79.93 7.48 2.36 11.12 3.8 1.83.73 3.33 2.45 5.19 2.94 30.02 8.02 59.42 20.22 91.66 13.18 4.37-.95 9.1-.32 13.67-.35 1.66 0 3.34.43 4.98.3 20.41-1.68 40.68 1.41 60.46 4.85 14.83 2.57 27.78.95 41.73-3.07 20.54-5.93 41.89-7.28 63.23-5.81 30.14 2.08 59.95 7.51 89.95 10.37 25.05 2.39 49.15 8.02 73.41 13.56 20.24 4.62 35.85 17.06 49.77 31.75 2.15 2.27 3.19 5.77 4.29 8.86 7.82 22.01 9.24 44.87 8.14 67.92-.55 11.59-2.34 23.11-3.54 34.67-1.59 15.41-10.74 25.56-23.61 32.55-17.54 9.53-35.32 18.66-53.19 27.57-10.98 5.48-20.4 12.36-26.73 23.16-1.82 3.1-4.4 5.9-7.09 8.31-29.5 26.42-45.21 60.43-53.58 98.24-3.8 17.17-7.17 34.56-8.85 52.04-1.02 10.64.87 21.75 2.73 32.43 2.33 13.38 5.67 26.61 9.1 39.76 3.41 13.06 10.12 24.24 18.98 34.65 10.12 11.89 15.56 26.28 15.44 42.27-.08 11.18-6.67 17.56-17.85 15.97-10.16-1.45-20.16-4.2-30.15-6.71-14.51-3.65-29.04-7.29-43.39-11.5-22.42-6.57-45.36-5.5-68.3-6.15-35.31-1.01-67.43 9.33-98.96 23.78-23.84 10.92-47.63 21.98-73.74 27.32-35.33 7.22-64.01-3.04-88.18-29.07-18.56-19.99-37.71-39.43-56.67-59.04-8.52-8.81-18.82-14.65-30.63-17.96-26.26-7.35-52.48-14.79-78.71-22.23-16.64-4.72-33.6-2.41-50.46-2.51-6.94-.04-13.87-.98-20.81-1.34-3.97-.2-8.01-.46-11.93.03-30.79 3.81-56.15-6.1-76.43-29.53-10.23-11.82-21.05-23.15-31.02-35.19-8.89-10.75-13.62-23.41-14.97-37.43-.83-8.59-2.14-17.19-4.01-25.61-5.87-26.42-1.1-51.53 8.54-76.16 2.18-5.58 4.33-11.17 6.32-16.82 5-14.12 14.03-24.95 27.14-31.99 20.1-10.79 41.56-18.39 64.05-21.57 28.53-4.04 52.66-15.7 72.74-36.15 1.63-1.66 3.34-3.29 5.21-4.66 15.27-11.19 21.33-26.79 21.24-45.09-.06-12.69-.94-25.51-7.41-36.79-2.86-4.98-7.11-9.83-11.9-12.92-10.89-7.01-22.47-12.95-33.84-19.19-4.37-2.4-8.73-5.12-13.45-6.54-9.6-2.88-15.82-9.63-21.35-17.22-4.01-5.51-5.47-11.5-4.42-18.78 1.66-11.47 1.72-23.17 2.48-35.19z"
          fill="replace"/>
</svg>