<svg xmlns="http://www.w3.org/2000/svg" width="2351" height="2351">
    <path d="M0 0h2351v2351H0V0zm733.22 858.61c-12.8.76-28.05 1.86-43.32 2.49-6.39.27-11.05 2.65-13.21 8.63-2.35 6.52-2.78 13.07 2.4 18.72 2.93 3.19 5.94 6.29 8.96 9.4 20.18 20.77 40.85 41.09 60.43 62.42 18.67 20.34 36.26 41.67 54.23 62.64 8.65 10.09 17.48 20.05 25.56 30.59 10.71 13.96 20.11 28.96 31.21 42.58 28.81 35.34 58.45 70 87.34 105.28 14.96 18.27 29.1 37.23 43.41 56.03 2.78 3.66 4.7 8 6.89 12.09 8.15 15.21 16.01 30.59 24.53 45.59 2.74 4.82 7.14 8.71 10.84 12.97 6.97 8.01 14.53 15.59 20.89 24.05 16 21.28 31.33 43.07 47.24 64.42 4.34 5.83 9.67 10.96 14.78 16.17 4.02 4.1 8.61 5.37 14.51 3.21 7.47-2.72 15.41-4.1 22.97-6.6 5.96-1.97 12.22-3.89 17.35-7.32 28.67-19.21 62.13-26.7 93.82-38.3 12.59-4.61 26.79-4.67 40.08-7.59 41.96-9.22 84.49-14.47 127.15-18.93 27.75-2.9 55.43-6.78 83.24-8.83 16.48-1.21 33.22-.51 49.73.77 17.52 1.36 34.86 4.78 52.36 6.64 11.85 1.26 23.82 1.36 35.73 2.05 7.87.46 13.69 3.92 17.65 11.08 4.82 8.73 10.13 17.21 15.63 25.53 2.34 3.54 5.53 6.58 8.66 9.51 3.03 2.84 6.05 1.58 8.87-.84 3.33-2.85 3.25-6.49 2.15-10.08-1.65-5.4-3.72-10.67-5.63-15.99-3.67-10.22-1.38-14.01 9.4-15.52 5.27-.74 10.64-1.11 15.78-2.39 6.48-1.6 12.66-10.21 11.93-15.65-.55-4.1-6.01-7.32-13.64-8.02-.66-.06-1.33-.03-2-.05-8.31-.27-16.63-.9-24.93-.73-13.3.27-22.44-4.9-28.92-17.03-32.33-60.55-70.74-117.38-108.5-174.56-26.77-40.54-54.47-80.46-82.19-120.36-9.09-13.08-18.53-26.21-29.64-37.51-15.14-15.4-32.09-29-48.14-43.5-7.44-6.72-16.12-10.61-25.95-11.66-25.11-2.68-50.26-5.05-75.37-7.7-18.15-1.92-36.65-2.41-54.33-6.45-65.97-15.08-132.61-24.41-200.19-27.87-22.19-1.13-44.55-1.45-66.43-6.49-9.71-2.24-19.49-4.3-29.34-5.83-34.54-5.35-69.38-7.48-104.26-9.02-11.96-.53-24.23.42-35.8-1.97-23.68-4.9-47.59-4.44-73.93-6.03z"
          fill="transparent"/>
    <path d="M733.22 858.61c26.34 1.59 50.25 1.13 73.93 6.03 11.57 2.4 23.84 1.45 35.8 1.97 34.88 1.54 69.72 3.67 104.26 9.02 9.85 1.52 19.63 3.59 29.34 5.83 21.87 5.04 44.23 5.36 66.43 6.49 67.57 3.45 134.21 12.79 200.19 27.87 17.68 4.04 36.19 4.54 54.33 6.45 25.12 2.65 50.26 5.02 75.37 7.7 9.84 1.05 18.51 4.94 25.95 11.66 16.06 14.5 33.01 28.11 48.14 43.5 11.11 11.3 20.55 24.44 29.64 37.51 27.72 39.89 55.42 79.82 82.19 120.36 37.76 57.18 76.17 114.01 108.5 174.56 6.48 12.13 15.62 17.31 28.92 17.03 8.3-.17 16.62.46 24.93.73.67.02 1.34 0 2 .05 7.63.7 13.09 3.92 13.64 8.02.73 5.43-5.46 14.04-11.93 15.65-5.14 1.27-10.51 1.65-15.78 2.39-10.78 1.52-13.07 5.3-9.4 15.52 1.91 5.32 3.98 10.59 5.63 15.99 1.1 3.59 1.18 7.23-2.15 10.08-2.82 2.41-5.83 3.68-8.87.84-3.13-2.93-6.32-5.97-8.66-9.51-5.5-8.32-10.81-16.8-15.63-25.53-3.96-7.16-9.77-10.62-17.65-11.08-11.91-.69-23.88-.79-35.73-2.05-17.49-1.86-34.84-5.28-52.36-6.64-16.51-1.28-33.25-1.99-49.73-.77-27.81 2.05-55.49 5.92-83.24 8.83-42.66 4.46-85.19 9.72-127.15 18.93-13.29 2.92-27.49 2.98-40.08 7.59-31.7 11.6-65.15 19.09-93.82 38.3-5.13 3.44-11.39 5.36-17.35 7.32-7.56 2.5-15.51 3.88-22.97 6.6-5.91 2.15-10.49.89-14.51-3.21-5.12-5.21-10.44-10.34-14.78-16.17-15.91-21.35-31.24-43.13-47.24-64.42-6.37-8.47-13.92-16.04-20.89-24.05-3.71-4.26-8.1-8.15-10.84-12.97-8.52-15-16.37-30.38-24.53-45.59-2.19-4.09-4.11-8.43-6.89-12.09-14.31-18.8-28.44-37.75-43.41-56.03-28.88-35.28-58.53-69.94-87.34-105.28-11.1-13.62-20.51-28.61-31.21-42.58-8.08-10.54-16.91-20.5-25.56-30.59-17.98-20.97-35.56-42.3-54.23-62.64-19.58-21.32-40.24-41.65-60.43-62.42-3.02-3.1-6.03-6.21-8.96-9.4-5.18-5.65-4.75-12.2-2.4-18.72 2.16-5.98 6.81-8.36 13.21-8.63 15.27-.64 30.52-1.73 43.32-2.49zm32.13 27.99c-9.68 1.32-19.29 2.18-28.71 4.04-8.22 1.62-10.25 6.9-5.99 13.87 2.25 3.68 4.65 7.36 7.51 10.57 13.05 14.64 26.68 28.79 39.37 43.73 27.13 31.94 56.11 62.37 79.68 97.24 1.84 2.73 4.21 5.2 6.68 7.4 5.8 5.17 10.3 11.08 13.58 18.23 1.72 3.76 5.32 6.66 8.11 9.91 1.93 2.25 4.59 4.12 5.81 6.69 4.33 9.07 11.52 15.21 19.28 21.15 4.39 3.36 9.01 7.36 11.47 12.13 5.6 10.88 13.28 19.82 21.84 28.31 19.18 19.04 37.02 39.19 51.03 62.51 3.22 5.37 7.79 9.92 11.61 14.93 2.2 2.89 5.18 5.68 6.06 8.98 2.86 10.66 8.41 19.39 16.2 27.03 2.57 2.53 4.73 5.67 6.41 8.88 8.89 16.98 21.58 31.11 33.49 45.88 7.91 9.82 15.96 19.78 22.1 30.72 8.3 14.79 19.33 26.96 31.38 38.47 7.23 6.9 15.44 8.43 24.79 4.3 11.25-4.97 22.86-9.18 33.97-14.43 33.59-15.87 68.7-27.04 105.15-33.73 33.66-6.18 67.46-11.68 101.27-17.03 43.03-6.81 86.16-13.13 129.75-14.85 25.58-1.01 51.14-1.53 76.63 3.34 12.29 2.35 25.16 2.22 37.77 2.16 9.33-.04 12.06-5.09 7.71-13.12-9.67-17.85-19.02-35.93-29.76-53.13-12.87-20.59-27.02-40.37-40.67-60.48-23.36-34.42-46.43-69.05-70.25-103.15-17.73-25.37-36.11-50.3-54.85-74.92-16.58-21.78-35.44-41.51-57.27-58.23-6.43-4.93-13.13-9.39-21.35-10.15-22.5-2.08-45.05-3.63-67.54-5.78-17.19-1.64-34.48-2.95-51.45-6.01-40.54-7.3-80.7-16.36-121.99-19.53-28.81-2.21-57.55-5.18-86.43-6.74-17.9-.97-36.04-1.69-53.52-5.23-43.51-8.79-87.47-12.3-131.64-14.6-19.59-1.02-39.16-2.61-58.69-4.52-9.54-.93-18.94-3.17-28.53-4.84z"
          fill="#040504"/>
    <path d="M765.36 886.6c9.59 1.67 18.99 3.91 28.53 4.84 19.52 1.91 39.1 3.5 58.69 4.52 44.17 2.3 88.13 5.82 131.64 14.6 17.49 3.53 35.63 4.26 53.52 5.23 28.88 1.57 57.62 4.54 86.43 6.74 41.29 3.16 81.45 12.22 121.99 19.53 16.96 3.06 34.26 4.37 51.45 6.01 22.49 2.15 45.04 3.7 67.54 5.78 8.22.76 14.93 5.22 21.35 10.15 21.83 16.73 40.69 36.45 57.27 58.23 18.74 24.62 37.12 49.56 54.85 74.92 23.83 34.1 46.89 68.72 70.25 103.15 13.64 20.1 27.8 39.89 40.67 60.48 10.74 17.2 20.1 35.28 29.76 53.13 4.35 8.03 1.62 13.07-7.71 13.12-12.6.06-25.48.18-37.77-2.16-25.48-4.87-51.05-4.35-76.63-3.34-43.59 1.72-86.72 8.04-129.75 14.85-33.81 5.35-67.61 10.85-101.27 17.03-36.45 6.7-71.56 17.86-105.15 33.73-11.11 5.25-22.72 9.46-33.97 14.43-9.35 4.13-17.57 2.6-24.79-4.3-12.05-11.51-23.07-23.68-31.38-38.47-6.14-10.94-14.18-20.9-22.1-30.72-11.91-14.77-24.59-28.91-33.49-45.88-1.68-3.21-3.84-6.36-6.41-8.88-7.79-7.64-13.35-16.37-16.2-27.03-.89-3.3-3.86-6.1-6.06-8.98-3.83-5.02-8.39-9.57-11.61-14.93-14.01-23.32-31.84-43.46-51.03-62.51-8.55-8.49-16.23-17.43-21.84-28.31-2.46-4.77-7.07-8.77-11.47-12.13-7.76-5.93-14.95-12.08-19.28-21.15-1.23-2.57-3.88-4.44-5.81-6.69-2.8-3.25-6.39-6.16-8.11-9.91-3.28-7.15-7.78-13.06-13.58-18.23-2.47-2.2-4.83-4.67-6.68-7.4-23.57-34.87-52.55-65.3-79.68-97.24-12.69-14.94-26.32-29.08-39.37-43.73-2.86-3.21-5.26-6.89-7.51-10.57-4.26-6.97-2.23-12.25 5.99-13.87 9.42-1.86 19.03-2.72 28.71-4.04z"
          fill="replace"/>
</svg>