<svg xmlns="http://www.w3.org/2000/svg" width="2351" height="2351">
    <path d="M2351 2351H0V0h2351v2351zm-1136.29-773.29c19.25-.99 38.62-1.05 57.74-3.2 29.39-3.31 58.63-7.94 87.89-12.25 29.25-4.3 58.46-8.91 87.69-13.35 21.12-3.21 41.98-7.59 61.03-17.62 13.47-7.09 26.03-15.91 40.96-20.05 1.87-.52 3.58-1.76 5.22-2.88 14.57-9.92 29.22-19.72 43.57-29.94 4.28-3.05 8.7-6.75 11.3-11.18 7.33-12.5 17.98-21.48 28.28-31.31 21.77-20.79 38.87-45.47 52.59-72.37 18.36-36 28.38-73.08 22.21-114.38-5.14-34.41-4.98-69.49-9.43-104.15-3.46-26.96-10.5-52.71-19.85-77.95-4.49-12.12-10.71-23.59-16.08-35.39-8.81-19.39-17.72-38.71-30.44-55.98-1.73-2.35-2.5-5.4-3.75-8.11-3.34-7.2-6.03-14.81-10.18-21.51-9.45-15.28-19.55-30.15-29.5-45.11-23.38-35.18-49.35-67.88-86.75-89.49-.29-.17-.54-.38-.82-.57-20.22-14.06-40.13-28.89-64.04-36.12-22.24-6.73-44.66-13.17-67.36-18.04-33.18-7.12-66.79-11.94-100.91-10.8-16.19.54-32.45 3.02-44.72 14.29-9.32 8.57-17.18 7.99-26.53 1.64-3.56-2.42-7.31-4.73-11.28-6.35-9.82-4-19.53-9.31-29.8-10.99-25.97-4.24-52.23-5.75-78.3.07-8.74 1.95-17.59 3.74-26.04 6.63-11.27 3.86-22.13 8.88-33.27 13.1-11.57 4.39-22.67 9.56-32.33 17.43-18.33 14.91-36.66 29.81-54.93 44.79-9.57 7.84-17.96 16.71-24.79 27.16-4.89 7.48-10.07 14.97-16.29 21.33-14.09 14.42-25.65 30.45-35.14 48.21-6.1 11.42-12.59 22.73-19.99 33.34-21.15 30.36-40.84 61.55-55.04 95.81-24.02 57.96-39.67 118.38-52.13 179.73-5 24.6-4.43 48.99 1.61 73.15 11.57 46.3 36.08 85.25 72.07 115.94 39.1 33.34 81.89 61.5 130.21 80.28 5.26 2.05 10.52 4.18 15.55 6.73 30.92 15.7 63.33 27.65 96.22 38.35 23.06 7.5 45.99 15.67 69.46 21.62 31.41 7.96 63.58 10.86 96.08 9.51z"
          fill="transparent"/>
    <path d="M1214.71 1577.71c-32.49 1.35-64.67-1.55-96.08-9.51-23.47-5.95-46.4-14.12-69.46-21.62-32.89-10.7-65.31-22.65-96.22-38.35-5.03-2.55-10.29-4.69-15.55-6.73-48.32-18.78-91.11-46.93-130.21-80.28-35.99-30.69-60.5-69.65-72.07-115.94-6.04-24.16-6.61-48.55-1.61-73.15 12.46-61.35 28.11-121.77 52.13-179.73 14.2-34.27 33.89-65.46 55.04-95.81 7.39-10.61 13.89-21.92 19.99-33.34 9.48-17.76 21.05-33.79 35.14-48.21 6.21-6.36 11.4-13.85 16.29-21.33 6.83-10.45 15.23-19.32 24.79-27.16 18.27-14.98 36.61-29.87 54.93-44.79 9.67-7.87 20.76-13.04 32.33-17.43 11.15-4.22 22.01-9.25 33.27-13.1 8.45-2.89 17.3-4.68 26.04-6.63 26.07-5.82 52.33-4.31 78.3-.07 10.26 1.68 19.98 6.98 29.8 10.99 3.97 1.62 7.72 3.93 11.28 6.35 9.35 6.35 17.21 6.92 26.53-1.64 12.27-11.27 28.53-13.75 44.72-14.29 34.12-1.15 67.73 3.68 100.91 10.8 22.7 4.87 45.12 11.31 67.36 18.04 23.91 7.23 43.82 22.07 64.04 36.12.27.19.53.41.82.57 37.4 21.61 63.37 54.3 86.75 89.49 9.95 14.96 20.05 29.84 29.5 45.11 4.15 6.7 6.84 14.31 10.18 21.51 1.25 2.71 2.02 5.76 3.75 8.11 12.73 17.27 21.63 36.59 30.44 55.98 5.36 11.8 11.59 23.27 16.08 35.39 9.34 25.23 16.39 50.99 19.85 77.95 4.45 34.66 4.29 69.74 9.43 104.15 6.17 41.3-3.85 78.39-22.21 114.38-13.72 26.9-30.82 51.58-52.59 72.37-10.3 9.84-20.95 18.81-28.28 31.31-2.6 4.43-7.02 8.12-11.3 11.18-14.35 10.23-29 20.02-43.57 29.94-1.64 1.12-3.36 2.36-5.22 2.88-14.92 4.14-27.49 12.96-40.96 20.05-19.05 10.03-39.91 14.41-61.03 17.62-29.23 4.45-58.44 9.05-87.69 13.35-29.27 4.3-58.51 8.93-87.89 12.25-19.12 2.16-38.48 2.21-57.74 3.2zm46.11-767.34c-9.76 1.56-9.63 1.4-16.89-4.99-24.44-21.51-52.42-36.75-84.43-42.59-15.18-2.77-31.23-2.5-46.73-1.42-38.51 2.69-72.67 17.68-103.92 39.82-23.24 16.46-43.05 36.72-62.63 57.13-9.86 10.28-19.31 21.25-27.17 33.09-19.7 29.64-38.24 60.06-57.54 89.98-20.09 31.15-37.89 63.5-50.17 98.53-16.84 48.04-31.05 96.82-39.98 147.07-4.03 22.68-7.53 45.15-3.85 68.27 5.21 32.74 16.17 62.97 36.42 89.56 23.35 30.65 52.65 54.85 85.29 74.4 58.46 35.03 121.09 60.75 187.04 78.22 34.42 9.12 68.77 18.44 104.92 16.81 5.93-.27 11.91.52 17.83.2 15.61-.86 31.21-1.88 46.79-3.19 18.87-1.59 37.83-2.76 56.55-5.5 29.59-4.34 58.95-10.18 88.5-14.76 31.3-4.86 62.09-11.43 91.51-23.48 33.36-13.66 65.95-28.45 92.09-54.49 34.62-34.48 65.51-71.77 88.73-114.97 13.81-25.68 21.05-53.16 19.48-82.46-1.31-24.54-3.45-49.03-5.06-73.55-1.09-16.58-.99-33.3-3.05-49.76-5.59-44.71-21.1-86.3-41.43-126.3-20.53-40.4-44.71-78.66-68.18-117.34-9.35-15.41-20.07-30.07-34.32-41.22-14.9-11.66-30.5-22.55-46.53-32.61-13.76-8.63-28.3-16.14-42.96-23.19-23.7-11.39-49.37-15.46-75.26-17.93-27.14-2.59-54.32-4.85-81.52-6.7-13.78-.94-27.18 1.8-39.71 7.86-7.71 3.73-8.43 7.19-2.72 13.7 3.72 4.25 7.98 8.03 11.77 12.24 2.31 2.57 4.17 5.55 7.14 9.57z"
          fill="#050605"/>
    <path d="M1260.82 810.36c-2.97-4.03-4.83-7-7.14-9.57-3.78-4.21-8.04-7.98-11.77-12.24-5.71-6.51-4.99-9.97 2.72-13.7 12.54-6.06 25.93-8.8 39.71-7.86 27.2 1.85 54.38 4.11 81.52 6.7 25.88 2.47 51.55 6.54 75.26 17.93 14.66 7.04 29.2 14.56 42.96 23.19 16.03 10.05 31.63 20.94 46.53 32.61 14.25 11.15 24.97 25.81 34.32 41.22 23.46 38.68 47.65 76.94 68.18 117.34 20.33 40 35.84 81.59 41.43 126.3 2.06 16.45 1.95 33.17 3.05 49.76 1.62 24.52 3.75 49.02 5.06 73.55 1.57 29.3-5.67 56.78-19.48 82.46-23.22 43.19-54.11 80.49-88.73 114.97-26.15 26.04-58.74 40.83-92.09 54.49-29.42 12.05-60.21 18.62-91.51 23.48-29.55 4.59-58.92 10.42-88.5 14.76-18.72 2.75-37.67 3.92-56.55 5.5-15.58 1.31-31.18 2.33-46.79 3.19-5.92.33-11.9-.46-17.83-.2-36.15 1.63-70.5-7.69-104.92-16.81-65.96-17.47-128.58-43.2-187.04-78.22-32.64-19.56-61.94-43.75-85.29-74.4-20.25-26.58-31.21-56.82-36.42-89.56-3.68-23.12-.18-45.6 3.85-68.27 8.93-50.25 23.14-99.03 39.98-147.07 12.28-35.03 30.08-67.38 50.17-98.53 19.3-29.92 37.84-60.33 57.54-89.98 7.87-11.83 17.31-22.81 27.17-33.09 19.58-20.41 39.39-40.68 62.63-57.13 31.25-22.14 65.41-37.13 103.92-39.82 15.5-1.08 31.55-1.35 46.73 1.42 32.01 5.84 59.99 21.08 84.43 42.59 7.26 6.39 7.13 6.55 16.89 4.99z"
          fill="replace"/>
</svg>