<svg xmlns="http://www.w3.org/2000/svg" width="2351" height="2351">
    <path d="M0 2351V0h2351v2351H0zm1085.51-1289.59c1.36-.27 2.69-.41 3.95-.79 11.35-3.43 21.94-8.7 34.16-10.14 10.42-1.23 13.1-12.21 6.89-21.25-1.86-2.72-3.09-5.86-4.72-8.75-2.76-4.9-5.02-10.23-8.55-14.52-6.01-7.33-14.39-11.31-23.8-9.77-10.2 1.66-19.71 5.99-27.98 12.45-9.76 7.62-12.26 16.65-7.94 28.11 1.05 2.79 2.55 5.42 3.54 8.23 4.07 11.63 14.6 13.42 24.44 16.44zm148.33-74.55c-8.22.25-10.33 5.35-12.49 9.96-2.35 5-5.56 7.94-11.43 7.5-7.2-.54-11.2 1.85-13.96 8.06-2.14 4.83-4.25 9.68-6.19 14.6-4.86 12.35-.37 26 10.83 33.1 3.43 2.18 6.9 3.72 11.21 2.21 16.75-5.85 28.04-16.55 29.76-34.86.59-6.27 1.12-11.99 7.6-16.45-4.56-2.79-8.04-4.91-11.4-6.96-.16-2.05-.32-4.07-.59-7.45-3.74 3.17-6.71 6.91-9.44.81 1.72-2.96 3.52-6.07 6.11-10.52zm76.9 98.15c.97.28 1.94.57 2.9.85 1.24-5.33 2.81-10.61 3.63-16 .75-5 3.03-7.7 8.11-8.48 5.34-.82 5.86 3.24 7.17 6.49 1.86 4.61 3.31 9.4 5.39 13.92.78 1.69 2.8 2.82 4.25 4.2 1.57-10.37-5.28-17.83-6.53-27.53 3.19-3.69 6.63-7.69 10.11-11.67 3.6-4.11 7.23-8.2 11.09-12.57-5.44-1.42-5.59-1.56-7.46.35-4.42 4.51-8.61 9.25-13.04 13.74-12.96 13.15-29.1 10.44-37.13-6.21-.86-1.77-1.16-3.82-2.06-5.57-.8-1.57-2.06-2.9-3.59-4.98-4.35 5.6-1.4 10.62.79 13.43 6.35 8.17 4.18 15.97 1.42 24.28-1.25 3.76-2.12 7.68-2.71 11.59-.28 1.85.53 3.87 1 6.73 7.21-8.8 5.6-20.18 11.94-27.67 5.26.63 7.08 3.03 6.51 7.55-.74 5.83-1.2 11.69-1.79 17.54z"
          fill="transparent"/>
    <path d="M1085.51 1061.41c-9.84-3.02-20.37-4.81-24.44-16.44-.98-2.81-2.49-5.44-3.54-8.23-4.32-11.46-1.82-20.49 7.94-28.11 8.27-6.46 17.77-10.78 27.98-12.45 9.41-1.54 17.79 2.45 23.8 9.77 3.52 4.29 5.79 9.62 8.55 14.52 1.63 2.89 2.85 6.03 4.72 8.75 6.21 9.05 3.53 20.03-6.89 21.25-12.22 1.44-22.81 6.71-34.16 10.14-1.26.38-2.59.53-3.95.79zm-2.26-52.1l2.37 1.96c-8.89 1.9-17.21 4.86-23.78 12.6 1.46 3.57 2.47 7.52 4.6 10.74 1.71 2.59 4.54 5.73 7.26 6.15 15.91 2.5 32.06 7.19 47.57-1.9.47-.28 1.56.5 2.36.79-.66 1.68-1.32 3.35-1.98 5.03l1.27 1.3c2.06-1.57 4.12-3.14 6.18-4.7-.29-.52-.59-1.04-.88-1.56h-4.65c1.28-9.77 1.12-10.21-6.88-18.84-.44-.48-.82-1.02-1.22-1.54 1.04-2.47 4.05-4.76.73-7.65-3.47-7.21-10.12-11.13-17.2-11.21-6.45-.08-12.94 3.39-19.42 5.3-1.82.95-3.65 1.9-5.47 2.85l.42 1.08c2.91-.14 5.82-.27 8.73-.41zm-17.69 34.13c6.07 13.11 21.96 16.13 33.49 6.79-10.92-2.21-21.77-4.42-33.49-6.79z"
          fill="#151318"/>
    <path d="M1233.84 986.87c-2.59 4.45-4.39 7.56-6.11 10.52 2.73 6.1 5.7 2.36 9.44-.81.27 3.38.43 5.4.59 7.45 3.36 2.05 6.83 4.17 11.4 6.96-6.48 4.46-7.01 10.18-7.6 16.45-1.72 18.32-13 29.01-29.76 34.86-4.31 1.51-7.78-.04-11.21-2.21-11.2-7.11-15.69-20.76-10.83-33.1 1.94-4.92 4.05-9.77 6.19-14.6 2.76-6.2 6.76-8.59 13.96-8.06 5.87.44 9.07-2.5 11.43-7.5 2.17-4.6 4.27-9.71 12.49-9.96zm2.41 38.33c-.4-2.91-.32-6-1.28-8.71-2.3-6.49-11.03-10.81-15.98-6.84-4.31 3.45-9.13 3.81-13.59 5.83-15.04 7.92-15.65 28.32-6.18 37.16 3.67 3.42 7.21 5.1 12.48 3.54 9.09-2.7 15.97-7.75 20.36-16.15 3.67-4.3 4.62-9.37 4.19-14.82z"
          fill="#1b1919"/>
    <path d="M1310.74 1085.01c.58-5.85 1.05-11.71 1.79-17.54.57-4.51-1.25-6.91-6.51-7.55-6.34 7.49-4.73 18.86-11.94 27.67-.47-2.86-1.27-4.88-1-6.73.58-3.91 1.46-7.83 2.71-11.59 2.76-8.31 4.94-16.12-1.42-24.28-2.19-2.81-5.14-7.83-.79-13.43 1.53 2.08 2.79 3.41 3.59 4.98.89 1.75 1.2 3.8 2.06 5.57 8.03 16.65 24.17 19.36 37.13 6.21 4.43-4.5 8.62-9.23 13.04-13.74 1.87-1.91 2.02-1.77 7.46-.35-3.86 4.37-7.49 8.46-11.09 12.57-3.48 3.98-6.92 7.98-10.11 11.67 1.25 9.7 8.09 17.16 6.53 27.53-1.45-1.38-3.48-2.51-4.25-4.2-2.07-4.51-3.52-9.3-5.39-13.92-1.31-3.25-1.83-7.31-7.17-6.49-5.08.78-7.35 3.48-8.11 8.48-.81 5.39-2.38 10.67-3.63 16-.97-.28-1.94-.57-2.9-.85z"
          fill="#1e1c1c"/>
    <path d="M1123.63 1039.65c-.8-.29-1.89-1.06-2.36-.79-15.51 9.09-31.66 4.4-47.57 1.9-2.72-.43-5.55-3.56-7.26-6.15-2.12-3.22-3.13-7.17-4.6-10.74 6.57-7.74 14.89-10.69 23.78-12.59 10.7-.1 21.64-1.07 29.84 8.07.41.51.78 1.06 1.22 1.54 7.99 8.63 8.16 9.07 6.88 18.84l.07-.07zm-21.04-19.29c-7.35 1.91-11.11 4.3-11.9 8.58-.37 1.99.1 5.03 1.42 6.16 1.14.97 4.42.58 6.05-.39 5.14-3.05 6.16-7.05 4.43-14.34z"
          fill="#0118f7"/>
    <path d="M1065.56 1043.45c11.72 2.38 22.57 4.58 33.49 6.79-11.53 9.33-27.42 6.32-33.49-6.79z" fill="#dfe5e5"/>
    <path d="M1079.57 1005.78c6.47-1.91 12.97-5.37 19.42-5.3 7.07.08 13.72 4 17.2 11.21-.8.59-2.11 1.84-2.33 1.67-9.01-6.96-19.26-6.74-29.74-5.33-1.51-.75-3.03-1.51-4.54-2.26z"
          fill="#dee7e7"/>
    <path d="M1084.12 1008.04c10.48-1.41 20.73-1.64 29.74 5.33.22.17 1.53-1.09 2.33-1.67 3.32 2.89.31 5.18-.73 7.65-8.2-9.14-19.14-8.16-29.84-8.07-.79-.65-1.58-1.31-2.37-1.96.33-.39.62-.82.87-1.27z"
          fill="#2d1c31"/>
    <path d="M1123.56 1039.72h4.65c.29.52.59 1.04.88 1.56-2.06 1.57-4.12 3.14-6.18 4.7l-1.27-1.3c.66-1.68 1.32-3.35 1.98-5.03l-.07.07z"
          fill="#b8c3c3"/>
    <path d="M1084.12 1008.04c-.25.45-.54.87-.87 1.27-2.91.14-5.82.27-8.73.41l-.42-1.08c1.82-.95 3.65-1.9 5.47-2.85 1.51.75 3.03 1.51 4.54 2.26z"
          fill="#b8b9b9"/>
    <path d="M1232.05 1040.02c-4.39 8.4-11.27 13.45-20.36 16.15-5.27 1.56-8.82-.12-12.48-3.54-9.47-8.84-8.86-29.24 6.18-37.16 2.73.05 5.46.09 8.18.14-1.77 3.45-3.38 6.99-5.36 10.31-2.47 4.14-4.16 8.23-1.42 13.96 2.28-.17 5.59.6 7.07-.71 4.3-3.82 8.31-2.64 12.73-.94.74.28 1.87-.48 2.83-.76.88.85 1.76 1.69 2.63 2.54z"
          fill="#f1f2f2"/>
    <path d="M1213.57 1015.61c-2.73-.05-5.46-.09-8.18-.14 4.46-2.02 9.28-2.38 13.59-5.83 4.95-3.96 13.69.36 15.98 6.84.96 2.71.88 5.8 1.28 8.71-.87.1-1.74.21-2.61.31-.34-.56-.57-1.5-1.04-1.63-3.31-.94-6.63-1.87-10.01-2.52-3.82-.74-3.36-8.04-9.02-5.74z"
          fill="#e0e7e7"/>
    <path d="M1233.64 1025.5c.87-.1 1.74-.21 2.61-.31.42 5.46-.53 10.52-4.19 14.82-.88-.85-1.76-1.69-2.63-2.54 1.41-3.99 2.81-7.98 4.22-11.98z"
          fill="#a5a9a9"/>
    <path d="M1102.58 1020.36c1.72 7.29.71 11.3-4.43 14.34-1.63.97-4.91 1.36-6.05.39-1.32-1.13-1.78-4.17-1.42-6.16.79-4.27 4.55-6.66 11.9-8.58z"
          fill="#020415"/>
    <path d="M1233.64 1025.5c-1.41 3.99-2.81 7.98-4.22 11.98-.95.28-2.09 1.04-2.83.76-4.42-1.7-8.43-2.88-12.73.94-1.47 1.31-4.79.54-7.07.71-2.74-5.73-1.05-9.83 1.42-13.96 1.98-3.32 3.59-6.86 5.36-10.31 5.66-2.3 5.2 5 9.02 5.74 3.37.65 6.7 1.58 10.01 2.52.46.13.7 1.07 1.04 1.63z"
          fill="#0c0a0c"/>
</svg>