<svg xmlns="http://www.w3.org/2000/svg" width="2351" height="2351">
    <path d="M0 2351V0h2351v2351H0zm1163.46-1283.63c15.51.66 30.09 1.73 44.68 1.77 14.61.04 29.26-.5 43.83-1.6 14.32-1.09 28.94 3.23 44.99-2.07-3.25-1.8-4.75-3.14-6.45-3.49-5.45-1.1-6.71-4.82-6.65-9.58.03-2 .05-4 .22-5.99 2.47-29.86 4.93-59.72 7.47-89.57.8-9.41.33-10.65-8.33-14.11-3.35-1.34-7.02-2.37-10.6-2.54-12.63-.61-25.28-.83-37.92-1.06-1.18-.02-2.38.84-3.37 1.21-1.34 16.98-3.53 33.48-3.63 50-.06 9.88-3.69 15.31-12.01 19.5-7.66 3.86-15.65 7.85-21.9 13.54-9.8 8.93-18.43 19.18-27.21 29.17-3.55 4.04-5.7 8.98-3.13 14.82zm-21.64-56.25c-.63-6.81-.88-13.16-1.88-19.39-1.78-11.04-12.86-20.46-25.32-22.04-12.55-1.59-17.08 1.36-23.1 15.25-1.05 2.43-1.84 5-2.44 7.58-2.02 8.75-3.46 17.66-5.92 26.28-3.98 13.96-2.66 27.66.56 41.45 1.18 5.06 3.84 8.43 9.14 9.23 5.92.9 11.83 2.11 17.78 2.4 3.13.16 7.13-.41 9.36-2.28 6.07-5.12 11.54-10.98 16.92-16.85 1.45-1.58 2.21-4.21 2.4-6.44 1-11.87 1.71-23.77 2.49-35.19z"
          fill="transparent"/>
    <path d="M1163.46 1067.37c-2.57-5.84-.43-10.77 3.13-14.82 8.78-9.99 17.41-20.25 27.21-29.17 6.25-5.69 14.24-9.68 21.9-13.54 8.32-4.19 11.96-9.62 12.01-19.5.1-16.52 2.28-33.02 3.63-50 .99-.37 2.19-1.24 3.37-1.21 12.64.24 25.29.46 37.92 1.06 3.57.17 7.25 1.2 10.6 2.54 8.66 3.46 9.13 4.7 8.33 14.11-2.54 29.85-5 59.71-7.47 89.57-.16 1.99-.19 3.99-.22 5.99-.06 4.76 1.2 8.49 6.65 9.58 1.7.34 3.2 1.68 6.45 3.49-16.05 5.3-30.67.98-44.99 2.07a552.657 552.657 0 01-43.83 1.6c-14.59-.04-29.18-1.11-44.68-1.77zm8.27-7.69l1.2 2.82c17.28 0 34.57.26 51.84-.09 12.22-.25 24.43-1.94 36.64-1.89 11.94.05 12.71-.03 13.79-12.4.96-10.92 1.98-21.84 2.96-32.76 1.81-20.19 3.62-40.38 5.4-60.57.45-5.05-2.26-7.46-6.99-7.71-9.95-.53-19.91-1.04-29.86-1.27-5.47-.13-7.33 3.44-7.69 8.43-1.07 14.91-2.62 29.8-3.32 44.73-.3 6.46-2.61 10.12-8.42 13.16-10.58 5.54-20.91 11.69-30.77 18.43-10.84 7.41-17.84 18.33-24.78 29.12zM1141.82 1011.12c-.78 11.43-1.5 23.32-2.49 35.19-.19 2.22-.95 4.86-2.4 6.44-5.38 5.87-10.85 11.73-16.92 16.85-2.22 1.88-6.23 2.44-9.36 2.28-5.95-.3-11.86-1.5-17.78-2.4-5.3-.81-7.96-4.17-9.14-9.23-3.22-13.79-4.54-27.49-.56-41.45 2.46-8.62 3.9-17.53 5.92-26.28.59-2.58 1.39-5.15 2.44-7.58 6.03-13.89 10.56-16.84 23.1-15.25 12.45 1.58 23.54 10.99 25.32 22.04 1 6.23 1.25 12.58 1.88 19.39zm-10.87-.24h.54c0-3.66.13-7.32-.04-10.96-.17-3.64-.3-7.34-1.07-10.89-1.7-7.92-8.3-13.21-16.31-13.56-7.59-.33-13.05 3.1-15.66 11.22-3.25 10.09-6.43 20.32-8.29 30.73-2.29 12.79-2.13 25.83.78 38.64 2.2 9.73 12.1 14.75 20.43 9.33 6.54-4.26 11.94-10.42 17.36-16.19 1.6-1.7 2.11-4.93 2.17-7.48.24-10.28.1-20.56.1-30.84z"/>
    <path d="M1171.74 1059.69c6.94-10.79 13.94-21.71 24.78-29.12 9.86-6.74 20.19-12.89 30.77-18.43 5.81-3.04 8.12-6.7 8.42-13.16.7-14.93 2.25-29.81 3.32-44.73.36-4.99 2.22-8.56 7.69-8.43 9.96.23 19.91.74 29.86 1.27 4.72.25 7.43 2.66 6.99 7.71-1.79 20.19-3.59 40.38-5.4 60.57-.98 10.92-2 21.84-2.96 32.76-1.09 12.37-1.85 12.45-13.79 12.4-12.21-.06-24.42 1.63-36.64 1.89-17.27.35-34.56.09-51.84.09l-1.2-2.82zm47.81-9.21c10.24 8.29 12.46 8.2 20.56-.33 1.6-1.69 3.22-3.38 4.67-5.2 5.57-7.02 10.56-14.6 16.8-20.94 3.85-3.92 5.86-7.86 6.09-12.99.45-9.97.77-19.94 1.15-29.91.17-4.29-1.12-7.85-4.97-10.19-4.51-2.74-7.68-1.35-8.46 3.84-1.78 11.8-3.63 23.6-5.16 35.44-.67 5.18-2.62 9.33-6.26 13.17-8.22 8.68-16.03 17.75-24.42 27.12zM1130.96 1010.88c0 10.28.14 20.56-.1 30.84-.06 2.55-.57 5.78-2.17 7.48-5.42 5.77-10.82 11.93-17.36 16.19-8.33 5.42-18.22.4-20.43-9.33-2.9-12.8-3.06-25.84-.78-38.64 1.86-10.41 5.04-20.63 8.29-30.73 2.61-8.12 8.08-11.55 15.66-11.22 8.01.35 14.6 5.64 16.31 13.56.76 3.54.89 7.24 1.07 10.89.17 3.65.04 7.31.04 10.96h-.54zm-5.8 26.86c-.69-8.07-1.01-13.73-1.68-19.35-.89-7.52-6.8-10.64-13.67-7.41-5.5 2.59-7.42 7.31-7.61 13.02-.24 7.3-.54 14.6-.63 21.91-.03 2.3.26 4.68.86 6.89.98 3.59 2.49 7.88 6.66 7.65 3.2-.18 7.08-2.27 9.21-4.75 4.89-5.7 6.86-12.81 6.87-17.95z"
          fill="#fff"/>
    <path d="M1219.55 1050.47c8.39-9.37 16.21-18.44 24.42-27.12 3.64-3.84 5.59-7.99 6.26-13.17 1.54-11.84 3.39-23.63 5.16-35.44.78-5.19 3.94-6.58 8.46-3.84 3.85 2.34 5.14 5.9 4.97 10.19-.38 9.97-.7 19.94-1.15 29.91-.23 5.13-2.24 9.08-6.09 12.99-6.24 6.35-11.23 13.93-16.8 20.94-1.45 1.82-3.07 3.51-4.67 5.2-8.1 8.53-10.32 8.62-20.56.33zM1125.16 1037.74c0 5.15-1.97 12.26-6.87 17.95-2.13 2.48-6.01 4.57-9.21 4.75-4.17.23-5.68-4.05-6.66-7.65-.6-2.22-.89-4.59-.86-6.89.09-7.3.39-14.6.63-21.91.19-5.7 2.11-10.43 7.61-13.02 6.87-3.24 12.78-.11 13.67 7.41.67 5.62 1 11.28 1.68 19.35z"/>
</svg>