<svg xmlns="http://www.w3.org/2000/svg" width="2351" height="2351">
    <path d="M0 2351V0h2351v2351H0zM1148.91 903.8c-11.34-.57-19.57-.16-27.3 5.35-18.18 12.98-22.91 45.18-9.09 62.46 8.01 10.02 16.56 19.06 28 25.09 5.51 2.9 10.69 6.88 10.6 13.43-.12 9.31-1.21 18.88-10.01 24.85-3.83 2.6-5.62 6.12-7.24 10.31-4.37 11.31-11.29 20.13-24.19 22.67-2.29.45-5.81 2.57-5.96 4.17-.22 2.35 1.48 5.76 3.46 7.25 4.39 3.31 6.75 6.82 6.28 12.58-.17 2.08 1.68 5.75 3.39 6.33 13.17 4.4 25.29 12.14 39.66 12.83 12.99.62 25.83.02 38.69-2.41 13.38-2.53 26.93-4.81 40.49-5.55 13.08-.71 23.79-4.25 31.31-15.5 2.2-3.29 5.26-6 7.76-9.11 4.79-5.96 9.68-11.87 14.11-18.09 4.5-6.31 4.75-13.05.14-19.52-2.88-4.05-6.04-7.9-9.18-11.77-4.97-6.13-5.32-11.88-.71-18.16 4.7-6.4 10.5-10.97 18.97-11.26 9.53-.32 14.74-6.91 16.74-14.81 3.36-13.28 2.61-26.95-6.24-38.11-10.41-13.13-25.16-20.47-40.67-26.03-4.04-1.45-6.47.9-5.88 5.11.32 2.28.99 4.59 1.93 6.69 2.44 5.42.68 9.47-3.36 13.35-9.89 9.51-28.38 11.21-39.64 2.67-3.75-2.85-6.48-7.37-8.84-11.59-1.74-3.1-2.1-6.97-3.13-10.49-1.5-5.11-4.8-8.38-9.66-10.69-16.82-8-34.5-11.99-50.45-12.04z"
          fill="transparent"/>
    <path d="M1148.91 903.8c15.95.05 33.63 4.04 50.45 12.04 4.87 2.31 8.16 5.59 9.66 10.69 1.03 3.51 1.39 7.38 3.13 10.49 2.37 4.22 5.1 8.74 8.84 11.59 11.25 8.54 29.75 6.84 39.64-2.67 4.03-3.88 5.79-7.92 3.36-13.35-.94-2.1-1.62-4.41-1.93-6.69-.58-4.2 1.84-6.56 5.88-5.11 15.51 5.57 30.26 12.9 40.67 26.03 8.85 11.16 9.6 24.83 6.24 38.11-2 7.9-7.2 14.48-16.74 14.81-8.46.29-14.27 4.86-18.97 11.26-4.61 6.29-4.26 12.04.71 18.16 3.13 3.86 6.29 7.72 9.18 11.77 4.6 6.47 4.36 13.21-.14 19.52-4.44 6.22-9.32 12.13-14.11 18.09-2.5 3.11-5.56 5.81-7.76 9.11-7.52 11.26-18.23 14.79-31.31 15.5-13.56.74-27.11 3.03-40.49 5.55-12.87 2.43-25.7 3.03-38.69 2.41-14.37-.69-26.48-8.43-39.66-12.83-1.72-.57-3.56-4.25-3.39-6.33.47-5.76-1.89-9.27-6.28-12.58-1.98-1.49-3.68-4.9-3.46-7.25.15-1.61 3.67-3.72 5.96-4.17 12.9-2.54 19.81-11.36 24.19-22.67 1.62-4.19 3.41-7.71 7.24-10.31 8.8-5.97 9.89-15.54 10.01-24.85.09-6.55-5.09-10.52-10.6-13.43-11.44-6.03-20-15.07-28-25.09-13.82-17.29-9.09-49.49 9.09-62.46 7.73-5.52 15.96-5.92 27.3-5.35zm-33.99 177.57c6.23 8.19 12.48 16.27 22.98 19.58 14.44 4.55 29.04 7.13 44.21 4.51 19-3.29 38-6.54 57.01-9.7 10.07-1.67 17.59-7.95 23.95-14.92 6.44-7.05 11.36-15.55 16.53-23.69 3.99-6.28 3.08-11.56-2.1-17.17-1.35-1.46-3-2.66-4.31-4.15-16.58-18.79-7.61-43.42 14.77-46.32 10.13-1.32 14.09-6.31 15.74-16.4 1.77-10.79-2.32-19.36-9.38-27.22-9.92-11.05-10.99-11.12-18.51 1.33-10.1 16.72-28.5 23.24-43.98 15.45-5.94-2.99-11.61-6.51-17.6-9.38-7.32-3.5-12.39-8.51-14.15-16.75-1.81-8.46-7.48-13.5-15.21-17.23-12.13-5.85-24.86-6.38-37.93-6.77-10.49-.31-17.81 4.04-24.01 11.66-12.8 15.72-12.75 34.94.94 49.72 6.51 7.03 14.19 13 21.4 19.38 2.49 2.2 5.29 4.05 7.73 6.29 7.09 6.5 9.55 13.95 5.48 23.33-2.83 6.51-5.89 12.61-11.51 17.19-1.44 1.17-3.61 3.12-3.41 4.37 1.1 6.81-3.71 10.43-7.36 14.49-6.82 7.58-14.03 14.81-21.27 22.39z"/>
    <path d="M1114.92 1081.37c7.25-7.59 14.45-14.82 21.27-22.39 3.65-4.06 8.46-7.68 7.36-14.49-.2-1.26 1.97-3.2 3.41-4.37 5.63-4.58 8.69-10.68 11.51-17.19 4.07-9.38 1.61-16.84-5.48-23.33-2.44-2.24-5.25-4.09-7.73-6.29-7.21-6.38-14.88-12.35-21.4-19.38-13.68-14.77-13.73-34-.94-49.72 6.2-7.62 13.52-11.97 24.01-11.66 13.08.39 25.8.92 37.93 6.77 7.73 3.73 13.4 8.77 15.21 17.23 1.76 8.24 6.83 13.24 14.15 16.75 5.99 2.87 11.67 6.39 17.6 9.38 15.48 7.79 33.88 1.27 43.98-15.45 7.52-12.45 8.58-12.38 18.51-1.33 7.06 7.86 11.16 16.43 9.38 27.22-1.66 10.08-5.61 15.08-15.74 16.4-22.38 2.91-31.35 27.53-14.77 46.32 1.32 1.49 2.96 2.69 4.31 4.15 5.18 5.61 6.08 10.89 2.1 17.17-5.16 8.14-10.09 16.64-16.53 23.69-6.36 6.97-13.88 13.24-23.95 14.92-19.02 3.16-38.02 6.42-57.01 9.7-15.17 2.62-29.77.04-44.21-4.51-10.5-3.31-16.75-11.39-22.98-19.58zm123.68-36.13c-.58-2.99-.68-4.35-1.1-5.59-1.47-4.26-3.76-8.1-8.53-8.89-4.37-.72-6.16 2.98-8.29 5.99-2.1 2.98-4.42 5.82-6.86 8.53-2.52 2.8-2.36 5.47.22 7.84 2.44 2.24 5.01 4.5 7.91 6.02 3.84 2.01 8.2 1.87 10.76-1.97 2.68-4.03 4.35-8.72 5.89-11.93zm-34.77-47.13c-.51-.95-1.22-4.24-2.98-4.96-1.69-.7-4.62 1-6.75 2.12-3.47 1.83-6.58 4.39-10.13 6.03-4.48 2.07-6.61 5.34-6.48 10.08.12 4.63 3.41 6.83 7.13 8.61 4.49 2.15 8.43 1.19 11.67-2.31 4.64-5.02 7.06-11.06 7.53-19.57zm-47.2-40.79c.58-.11 1.9-.26 3.18-.59 7.5-1.95 8.47-4.32 5.02-11.4-.61-1.26-.87-3.15-.39-4.4 1.76-4.53-1.32-6.07-4.38-7.39-3.38-1.46-6.67-.93-8.64 2.48-1.65 2.85-2.98 5.91-4.19 8.98-3.32 8.4-.4 12.49 9.4 12.32z"
          fill="#fff"/>
    <path d="M1238.6 1045.23c-1.54 3.21-3.22 7.9-5.89 11.93-2.55 3.84-6.91 3.98-10.76 1.97-2.9-1.51-5.47-3.78-7.91-6.02-2.59-2.37-2.74-5.04-.22-7.84 2.44-2.71 4.76-5.55 6.86-8.53 2.12-3.01 3.91-6.72 8.29-5.99 4.77.79 7.06 4.63 8.53 8.89.43 1.24.53 2.59 1.1 5.59zM1203.83 998.1c-.47 8.51-2.89 14.54-7.53 19.57-3.24 3.51-7.18 4.46-11.67 2.31-3.72-1.78-7.01-3.98-7.13-8.61-.13-4.74 2-8.01 6.48-10.08 3.55-1.64 6.65-4.2 10.13-6.03 2.13-1.13 5.06-2.82 6.75-2.12 1.76.72 2.47 4.02 2.98 4.96zM1156.62 957.31c-9.8.17-12.72-3.92-9.4-12.32 1.21-3.07 2.54-6.13 4.19-8.98 1.98-3.41 5.26-3.94 8.64-2.48 3.06 1.32 6.14 2.86 4.38 7.39-.48 1.25-.22 3.14.39 4.4 3.45 7.08 2.48 9.45-5.02 11.4-1.27.33-2.59.49-3.18.59z"/>
</svg>