<svg xmlns="http://www.w3.org/2000/svg" width="2351" height="2351">
    <path d="M0 2351V0h2351v2351H0zm1213.27-1285.46c-8.37 6.95-18.1-2-25.57 4.92 3.44 5.83 8.51 4.69 12.93 4.95 10.78.63 10.79.53 14.47 10.82 1.48 4.14 3.1 8.05 9.33 6.98-.23-4.71-.45-9.06-.72-14.54 4.38.86 7.22 1.48 10.1 1.96 14.55 2.43 28.84 6.5 43.84.93 10.46-3.89 14.97-8.11 15.11-19.09.09-7.65-.25-15.31-.05-22.95.29-11.31.91-22.6 1.34-33.9.52-13.61 1.24-27.22 1.35-40.84.05-5.98-3.41-9.14-9.24-9.76-2.62-.28-5.45-.39-7.94.29-7 1.91-13.75 5.13-20.84 6.28-14.81 2.4-27.81 10.92-43.17 11.67-8 .39-8.29 1.88-7.47 9.57 2.14 20.17 4.58 40.31 6.44 60.51.69 7.53.11 15.18.11 22.2zm-97.56-139.46c-1 8.48-.75 8.81 2.62 15.59 1.24 2.49 2.43 5.68 1.94 8.22-.88 4.5-2.02 9.66-4.91 12.89-5.8 6.49-7.36 14.77-11.19 22.04-7.19 13.66-12.85 28.02-18.1 42.55-5.75 15.94-11.83 31.76-17.56 47.71-1.96 5.45.21 9.4 6 9.95 5.54.52 11.37.38 16.79-.78 9.08-1.94 18.13-4.4 26.85-7.59 14.05-5.13 28.32-6.8 43.14-5.48 3.68.33 7.46-.58 12.58-1.05-4.74-10.95-8.65-20.4-12.88-29.7-10.35-22.74-18.9-46.11-25.45-70.24-2.61-9.62-6.24-18.97-2.71-29.45-7.8-2.88-8.75-12.71-17.13-14.68z"
          fill="transparent"/>
    <path d="M1213.27 1065.54c0-7.03.58-14.68-.11-22.2-1.86-20.2-4.3-40.34-6.44-60.51-.81-7.68-.53-9.18 7.47-9.57 15.37-.75 28.36-9.27 43.17-11.67 7.1-1.15 13.84-4.37 20.84-6.28 2.5-.68 5.32-.57 7.94-.29 5.83.62 9.29 3.78 9.24 9.76-.11 13.62-.83 27.23-1.35 40.84-.43 11.3-1.05 22.6-1.34 33.9-.2 7.65.15 15.3.05 22.95-.14 10.98-4.65 15.2-15.11 19.09-15 5.57-29.29 1.5-43.84-.93-2.87-.48-5.72-1.11-10.1-1.96.27 5.48.49 9.83.72 14.54-6.23 1.07-7.85-2.85-9.33-6.98-3.68-10.29-3.69-10.2-14.47-10.82-4.43-.26-9.49.88-12.93-4.95 7.47-6.92 17.2 2.02 25.57-4.92zm73.81-84.16l-.51-.02c0-3.32.14-6.65-.03-9.97-.35-7.1-2.42-8.72-9.44-7.34-2.6.51-5.1 1.48-7.64 2.25-15.88 4.8-31.69 9.87-47.68 14.27-5.4 1.48-6.96 4.19-6.4 9.25.62 5.61.88 11.26 1.49 16.88 2.09 19.14 4.44 38.25 6.28 57.41.46 4.84 2.35 7.4 6.93 8.13 10.16 1.62 20.3 3.56 30.52 4.56 4.12.4 8.61-.83 12.65-2.17 8.81-2.93 9.93-5.17 10.01-14.72.11-12.29.25-24.59.87-36.86.7-13.9 1.95-27.78 2.96-41.67zM1115.71 926.08c8.38 1.97 9.33 11.8 17.13 14.68-3.53 10.48.09 19.83 2.71 29.45 6.55 24.13 15.1 47.5 25.45 70.24 4.23 9.3 8.15 18.75 12.88 29.7-5.12.47-8.91 1.37-12.58 1.05-14.82-1.32-29.09.35-43.14 5.48-8.72 3.18-17.77 5.64-26.85 7.59-5.42 1.16-11.25 1.3-16.79.78-5.79-.55-7.96-4.5-6-9.95 5.73-15.95 11.8-31.77 17.56-47.71 5.24-14.53 10.91-28.89 18.1-42.55 3.83-7.27 5.39-15.55 11.19-22.04 2.89-3.23 4.04-8.39 4.91-12.89.49-2.54-.7-5.73-1.94-8.22-3.38-6.78-3.63-7.11-2.62-15.59zm-39.58 151.95c3.74 0 6.03.42 8.12-.07 9.04-2.13 18.56-3.32 26.89-7.09 11.97-5.41 24.21-6.45 36.89-6.62 3.78-.05 7.56-.76 12.44-1.29-4.28-18.13-13.02-33.17-18.39-49.4-5.46-16.5-10.73-33.06-16.76-51.7-2.71 4.59-4.58 7.2-5.89 10.07-7.3 15.95-14.74 31.84-21.58 47.98-6.61 15.59-12.61 31.43-18.73 47.22-1.25 3.21-1.85 6.67-2.99 10.9z"/>
    <path d="M1287.08 981.38c-1.01 13.89-2.26 27.76-2.96 41.67-.62 12.27-.76 24.57-.87 36.86-.08 9.54-1.19 11.79-10.01 14.72-4.04 1.34-8.53 2.57-12.65 2.17-10.23-1-20.36-2.94-30.52-4.56-4.57-.73-6.46-3.29-6.93-8.13-1.84-19.16-4.19-38.27-6.28-57.41-.61-5.61-.87-11.27-1.49-16.88-.56-5.06 1-7.77 6.4-9.25 15.99-4.4 31.8-9.47 47.68-14.27 2.54-.77 5.05-1.74 7.64-2.25 7.02-1.38 9.09.25 9.44 7.34.16 3.32.03 6.65.03 9.97l.51.02zm-25.01 64.7c-.4-10.47 1.4-20.1-3.51-28.95-2.8-5.06-7.44-5.28-9.76-.2-2.42 5.32-3.98 11.21-4.74 17.01-.26 2.03 2.55 5.23 4.76 6.62 3.42 2.16 7.53 3.22 13.25 5.52zM1076.13 1078.03c1.14-4.23 1.75-7.69 2.99-10.9 6.12-15.79 12.12-31.63 18.73-47.22 6.84-16.14 14.29-32.03 21.58-47.98 1.31-2.87 3.18-5.48 5.89-10.07 6.03 18.64 11.3 35.2 16.76 51.7 5.37 16.23 14.11 31.27 18.39 49.4-4.89.53-8.66 1.24-12.44 1.29-12.67.16-24.92 1.21-36.89 6.62-8.34 3.77-17.85 4.97-26.89 7.09-2.08.49-4.38.07-8.12.07zm43.05-57.89c-7.8 12.54-4.44 23.28 9.55 28.88 1.07-4.86 2.54-9.56 3.07-14.36 1.2-10.87-1.43-14.53-12.62-14.52z"
          fill="#fff"/>
    <path d="M1262.07 1046.08c-5.72-2.29-9.83-3.36-13.25-5.52-2.21-1.39-5.02-4.59-4.76-6.62.75-5.8 2.31-11.69 4.74-17.01 2.32-5.09 6.96-4.86 9.76.2 4.9 8.85 3.11 18.48 3.51 28.95zM1119.17 1020.14c11.19 0 13.82 3.65 12.62 14.52-.53 4.8-2 9.49-3.07 14.36-13.99-5.6-17.35-16.34-9.55-28.88z"/>
</svg>