<svg xmlns="http://www.w3.org/2000/svg" width="2351" height="2351">
    <path d="M0 2351V0h2351v2351H0zm1125.06-1245.6c.7-.06 1.76.06 2.68-.25 12.65-4.26 21.99-12.24 26.75-24.88 1.97-5.24-.93-11.32-6.08-14.35-15.18-8.94-34.41-1.49-41.03 14.62-4.62 11.26 3.19 24.09 17.68 24.87zm57.64-79.36c4.56-.81 9.15-1.5 13.68-2.46 5.27-1.11 9.63-3.94 10.19-9.54.55-5.52-4.12-7.97-8.4-9.93-5.72-2.63-11.46-5.39-17.47-7.18-4.62-1.37-9.67-1.73-14.52-1.69-1.62.01-4.24 2.41-4.67 4.14-3.43 13.73 6.76 26.17 21.19 26.65zm26.21 102.01c11.88-.12 27.95-11.29 31.92-22.18 4.48-12.28-4.4-24.04-17.31-22.9-12 1.06-27.62 13.55-31.13 24.89-3.3 10.69 4.58 20.32 16.51 20.19zm30.84-65.73c.8-.25 4.05-.44 6.21-2.08 4.46-3.38 8.68-7.24 12.37-11.45 3.64-4.15 5.31-9.58 3.09-14.82-4.46-10.51-19.6-14.75-28.88-7.67-4.22 3.23-7.82 8.26-9.82 13.23-5.56 13.8.03 21.82 17.03 22.78zm-87.77-88.77c-1.31-1.98-3.42-5.97-6.3-9.3-3.42-3.96-7.19-1.44-10.77.41-1.46.75-3.07 1.26-4.66 1.7-11.01 3.06-14.4 12.02-16.28 21.72-1.11 5.73 2.9 10.83 8.14 11.8 12.18 2.24 29.33-11.47 29.86-26.33zm-20.55 40.89c-8.65-.19-16.66 3.23-22.08 9.42-9.22 10.52-5.16 23.08 8.57 26.27 1.9.44 3.94.56 5.89.44 8.24-.53 21.42-11.23 23.56-19.11.33-1.22.39-2.65.12-3.89-1.18-5.54-10.42-13.01-16.06-13.13zm49.52 92.03c.2-7.83-2.7-14.84-7.27-15.19-6.49-.5-13.52-.89-18.91 3.91-4.58 4.08-6.24 15.78-3.66 21.54 3.75 8.36 10.69 11.06 18.75 6.67 6.66-3.62 11.92-8.6 11.08-16.93zm84.82-115.32c.15-8.99-10.6-16.03-19.47-10.93-5.59 3.21-10.52 8.08-14.69 13.08-4.23 5.07-2.73 10.73 2.78 14.55 6.09 4.22 12.51 3.82 18.79.48 6.56-3.5 12.77-7.43 12.59-17.18zm-65.51-21.65c-4.91.08-10.15 3.88-12.13 8.79-1.83 4.53-.68 14.68 2.4 16.84 2.03 1.43 4.77 2.55 7.2 2.55 2.84 0 5.82-1.03 8.49-2.2 8.87-3.9 12.46-8.99 11.32-15.43-1.08-6.05-8.69-10.7-17.27-10.56zm-35.6 74.65c-.39 3.96 1.11 7.27 4.92 9.57 3.47 2.09 6.52.99 8.92-1.49 3.39-3.5 6.59-7.23 9.41-11.19 2.35-3.3.86-6.37-2.17-8.49-3.62-2.53-7.72-4.18-12.05-2.21-5.62 2.56-7.7 7.79-9.03 13.8z"
          fill="transparent"/>
    <path d="M1125.06 1105.4c-14.49-.77-22.31-13.61-17.68-24.87 6.62-16.11 25.85-23.56 41.03-14.62 5.15 3.03 8.05 9.11 6.08 14.35-4.75 12.65-14.09 20.62-26.75 24.88-.92.31-1.97.19-2.68.25zm.49-8.32c-4.47-6.89-9.06-13.05-1.42-19.4 7.42.21 9.53 6.67 12.51 12.24 5.13-4.61 9.26-8.34 8.33-15.4-4.56-1.12-9.29-1.63-13.43-3.47-4.63-2.05-8.18-.6-10.62 2.58-2.98 3.88-5.67 8.36-7.03 13.01-1.97 6.71 1.85 10.38 11.66 10.43zM1182.69 1026.03c-14.43-.48-24.61-12.92-21.19-26.65.43-1.74 3.05-4.13 4.67-4.14 4.85-.04 9.9.31 14.52 1.69 6.01 1.79 11.74 4.55 17.47 7.18 4.28 1.96 8.95 4.41 8.4 9.93-.55 5.59-4.92 8.42-10.19 9.54-4.53.96-9.12 1.65-13.68 2.46zm15.02-13.16c-8.43-2.74-10.4-1.52-9.47 5.85 4.34-.05 8.34-.4 9.47-5.85zM1208.91 1128.05c-11.94.13-19.81-9.5-16.51-20.19 3.5-11.34 19.13-23.83 31.13-24.89 12.9-1.14 21.79 10.62 17.31 22.9-3.97 10.89-20.04 22.05-31.92 22.18zm.68-28.74c-6.35 2.18-9.06 7.33-10.16 13.33-.91 4.96 2.69 9.25 7.18 8.25 10.2-2.27 19.49-6.73 25.46-15.75 4.72-7.13.83-14.2-7.63-14.34-6.71-.11-11.8 3.1-15.22 8.89l.37-.37zM1239.75 1062.32c-17-.96-22.6-8.98-17.03-22.78 2-4.97 5.6-10 9.82-13.23 9.28-7.08 24.42-2.84 28.88 7.67 2.22 5.24.55 10.67-3.09 14.82-3.69 4.21-7.91 8.06-12.37 11.45-2.16 1.64-5.41 1.83-6.21 2.08zm-10.88-8.4c8.1 2.99 9.06 3.31 12.32.77 6.33-4.92 12.07-10.41 12.25-19.48-3.75-3-7.25-5.68-12.68-2.25 1.51 2.58 3 4.41 3.69 6.5.56 1.69.88 4.72 0 5.35-1.59 1.13-4.36 1.66-6.22 1.08-2.17-.66-3.89-2.78-6.72-4.98-1 4.92-1.77 8.71-2.64 13zM1151.98 973.54c-.53 14.86-17.68 28.57-29.86 26.33-5.25-.97-9.26-6.06-8.14-11.8 1.88-9.7 5.27-18.66 16.28-21.72 1.59-.44 3.2-.94 4.66-1.7 3.58-1.85 7.35-4.37 10.77-.41 2.88 3.33 4.99 7.32 6.3 9.3zm-32.88 14.88c3.68 2.69 5.09 4.6 6.49 4.59 8.44-.03 17.96-11.25 17.58-20.96h-12.2c3.3 9.82-.68 14.54-11.86 16.37zM1131.43 1014.44c5.64.12 14.88 7.59 16.06 13.13.26 1.24.21 2.66-.12 3.89-2.14 7.88-15.32 18.58-23.56 19.11-1.95.12-3.99 0-5.89-.44-13.73-3.19-17.79-15.75-8.57-26.27 5.43-6.19 13.44-9.61 22.08-9.42zm.03 23.18c1.85-.65 4.31-.78 5.43-2.07 1.99-2.27 4.7-5.48 4.34-7.88-.64-4.32-5.19-4.44-8.84-4.04-3.54.39-6.99 1.49-10.51 2.13-5.28.96-9.24 5.88-8.84 11.15.36 4.64 4.07 7.01 10.08 7.21 4.99.16 6.98-2.81 8.52-6.69l-.19.2zM1180.95 1106.46c.84 8.33-4.42 13.31-11.08 16.93-8.06 4.38-15.01 1.68-18.75-6.67-2.59-5.76-.92-17.46 3.66-21.54 5.39-4.8 12.42-4.42 18.91-3.91 4.57.35 7.47 7.36 7.27 15.19zm-13.1 7.37c4.99-1.79 6.81-5.34 5.97-9.31-.51-2.39-3.04-5-5.35-6.19-3.41-1.75-6.3-.14-7.58 3.68 1.33 1.9 2.74 3.67 3.89 5.6 1.11 1.86 1.94 3.89 3.08 6.21zM1265.77 991.14c.18 9.75-6.03 13.68-12.59 17.18-6.28 3.34-12.7 3.74-18.79-.48-5.51-3.82-7.02-9.48-2.78-14.55 4.18-5 9.1-9.88 14.69-13.08 8.88-5.09 19.63 1.94 19.47 10.93zm-17.95-1.43q5.07 6.67-3.32 11.35c-2.07-1.32-4.07-2.6-6.33-4.04-1.85 4.34-.65 6.61 2.96 7.37 7.46 1.58 17.37-5.8 18.16-13.36.43-4.14-1.93-6.3-6.04-5.07-1.75.52-3.16 2.14-5.43 3.75zM1200.25 969.49c8.58-.14 16.19 4.51 17.27 10.56 1.15 6.44-2.45 11.53-11.32 15.43-2.66 1.17-5.65 2.2-8.49 2.2-2.42 0-5.16-1.12-7.2-2.55-3.08-2.17-4.23-12.32-2.4-16.84 1.98-4.91 7.23-8.71 12.13-8.79zm2.67 6.05c4.07 7.82-1.52 10.57-5.05 14.5 5.85-.06 10.72-1.64 12.44-7.43 1.19-3.99-1.57-5.91-7.39-7.08zM1164.65 1044.14c1.33-6.01 3.41-11.24 9.03-13.8 4.33-1.97 8.42-.32 12.05 2.21 3.03 2.12 4.52 5.19 2.17 8.49-2.82 3.96-6.02 7.7-9.41 11.19-2.4 2.48-5.45 3.58-8.92 1.49-3.81-2.3-5.32-5.61-4.92-9.57z"/>
    <path d="M1125.55 1097.08c-9.81-.05-13.63-3.72-11.66-10.43 1.37-4.65 4.06-9.13 7.03-13.01 2.44-3.18 5.99-4.64 10.62-2.58 4.14 1.84 8.87 2.35 13.43 3.47.92 7.06-3.2 10.79-8.33 15.4-2.98-5.57-5.09-12.03-12.51-12.24-7.64 6.34-3.05 12.5 1.42 19.4zM1197.72 1012.87c-1.12 5.46-5.13 5.8-9.47 5.85-.93-7.37 1.03-8.59 9.47-5.85zM1209.22 1099.68c3.42-5.79 8.51-9.01 15.22-8.89 8.46.14 12.34 7.21 7.63 14.34-5.97 9.03-15.25 13.48-25.46 15.75-4.49 1-8.09-3.28-7.18-8.25 1.1-6 3.81-11.15 10.17-13.33-.7 2.16-1.71 4.28-1.98 6.49-.18 1.45.45 4.2 1.15 4.35 2.97.64 6.47 1.47 9.09.46 3.61-1.39 5.1-5.18 3.89-9.11-1.21-3.93-4.34-4.57-7.96-3.46-1.54.47-3.05 1.09-4.57 1.64zM1228.87 1053.91c.87-4.29 1.64-8.08 2.64-13 2.83 2.2 4.56 4.31 6.72 4.98 1.86.57 4.64.05 6.22-1.08.87-.62.55-3.65 0-5.35-.69-2.09-2.17-3.92-3.69-6.5 5.43-3.43 8.93-.75 12.68 2.25-.18 9.07-5.92 14.55-12.25 19.48-3.27 2.54-4.22 2.21-12.32-.77zM1119.1 988.43c11.18-1.83 15.17-6.55 11.86-16.37h12.2c.38 9.71-9.14 20.94-17.58 20.96-1.4 0-2.81-1.91-6.49-4.59zM1131.65 1037.42c-1.54 3.88-3.54 6.85-8.52 6.69-6.01-.2-9.72-2.57-10.08-7.21-.4-5.27 3.56-10.18 8.84-11.15 3.52-.64 6.97-1.75 10.51-2.13 3.65-.4 8.2-.28 8.84 4.04.35 2.41-2.36 5.61-4.34 7.88-1.13 1.29-3.58 1.42-5.43 2.07-.72-2.12-.92-4.68-2.26-6.28-2.61-3.11-4.38-2.34-7.96 3.65 3.69.86 7.05 1.65 10.41 2.43zM1167.85 1113.83c-1.13-2.32-1.97-4.35-3.08-6.21-1.15-1.93-2.56-3.7-3.89-5.6 1.28-3.82 4.18-5.43 7.58-3.68 2.31 1.19 4.85 3.8 5.35 6.19.84 3.96-.98 7.52-5.97 9.31zM1247.81 989.71c2.27-1.62 3.69-3.23 5.43-3.75 4.12-1.23 6.48.93 6.04 5.07-.79 7.56-10.7 14.94-18.16 13.36-3.61-.76-4.81-3.04-2.96-7.37 2.26 1.44 4.26 2.72 6.33 4.04q8.39-4.67 3.32-11.35zM1202.93 975.54c5.82 1.17 8.58 3.09 7.39 7.08-1.72 5.78-6.59 7.36-12.44 7.43 3.54-3.93 9.12-6.68 5.05-14.5z"
          fill="#fff"/>
    <path d="M1209.22 1099.68c1.52-.55 3.02-1.16 4.57-1.64 3.62-1.11 6.75-.47 7.96 3.46 1.21 3.93-.28 7.72-3.89 9.11-2.62 1.01-6.12.18-9.09-.46-.7-.15-1.33-2.9-1.15-4.35.28-2.21 1.28-4.33 1.98-6.49l-.37.37zM1131.65 1037.42c-3.36-.78-6.72-1.57-10.41-2.43 3.58-5.98 5.35-6.75 7.96-3.65 1.34 1.6 1.54 4.15 2.26 6.28l.19-.2z"/>
</svg>