<svg xmlns="http://www.w3.org/2000/svg" width="2351" height="2351">
    <path d="M0 2351V0h2351v2351H0zM1208.57 982.59c.71-8.29.9-14.59 1.87-20.78 1-6.37-1.56-10.62-7.12-12.65-5.24-1.91-10.8-3.39-16.33-3.96-12.23-1.25-15.18.85-19.43 12.21-.7 1.86-1.18 3.83-1.52 5.78-3.04 17.89-11.66 27.08-29.43 30.38-7.5 1.39-15.21 1.65-22.79 2.64-13.52 1.77-29.11 16.84-30.24 29.7-.54 6.15.16 12.4.15 18.61 0 7.95 3.26 14.35 9.65 18.76 4.6 3.18 9.53 6.48 14.81 7.94 10.21 2.84 20.7 4.86 31.19 6.4 11.54 1.7 11.91 1.56 15 13 2.38 8.83 8.38 14.76 16.75 14.6 12.07-.23 23.78-2.49 33.99-9.85 4-2.88 5.51-6.37 5.03-11.1-.51-4.97-.93-9.95-1.23-14.94-.25-4.12 1.98-6.35 5.99-6.21 2.95.1 5.94.65 8.79 1.44 3.52.96 6.89 2.47 10.38 3.57 17.36 5.47 30.12-4 29.54-22.07-.29-8.98-1.46-17.95-1.41-26.93.06-9.6-2.6-18.27-6.19-26.99-3.09-7.5-8.58-10.79-16.13-11.2-3.96-.21-7.96.33-11.94.55-5.86.32-11.72.66-19.38 1.09z"
          fill="transparent"/>
    <path d="M1208.57 982.59c7.66-.43 13.52-.77 19.38-1.09 3.98-.22 7.98-.76 11.94-.55 7.55.41 13.04 3.69 16.13 11.2 3.59 8.72 6.25 17.4 6.19 26.99-.05 8.97 1.12 17.94 1.41 26.93.58 18.07-12.18 27.54-29.54 22.07-3.49-1.1-6.86-2.61-10.38-3.57-2.85-.78-5.84-1.34-8.79-1.44-4.01-.14-6.24 2.09-5.99 6.21.3 4.99.71 9.97 1.23 14.94.49 4.73-1.02 8.22-5.03 11.1-10.21 7.36-21.92 9.62-33.99 9.85-8.37.16-14.36-5.78-16.75-14.6-3.09-11.44-3.45-11.3-15-13-10.49-1.54-20.98-3.56-31.19-6.4-5.28-1.47-10.21-4.77-14.81-7.94-6.39-4.41-9.66-10.81-9.65-18.76 0-6.21-.69-12.46-.15-18.61 1.13-12.86 16.72-27.94 30.24-29.7 7.58-.99 15.29-1.24 22.79-2.64 17.77-3.3 26.39-12.49 29.43-30.38.33-1.96.82-3.93 1.52-5.78 4.25-11.36 7.2-13.46 19.43-12.21 5.53.57 11.09 2.04 16.33 3.96 5.56 2.03 8.11 6.28 7.12 12.65-.97 6.18-1.16 12.49-1.87 20.78zm41.4 44.29c-.65-6.44-1.16-14.76-2.39-22.96-1.54-10.25-4.61-12.31-14.68-11.46-6.96.59-13.95 1.31-20.92 1.2-3.85-.06-7.93-1.13-11.44-2.76-5.75-2.67-6.84-5.63-5.49-12.15.88-4.23 2.07-8.4 3.2-12.57 2.41-8.92.34-11.46-8.78-11.34-5.46.07-8.78 2.55-10.26 7.65-1.29 4.47-2.01 9.17-3.78 13.43-5.59 13.48-13.64 24.29-29.61 26.44-9.54 1.28-19.05 2.95-28.43 5.05-4.05.91-8.67 2.45-11.45 5.27-7.93 8.06-12.52 17.94-12.26 29.62.32 14.19 4.8 19.96 18.53 23.06 13.28 3 26.39 6.14 40.36 2.47 8.67-2.28 14.65 3.65 15.08 12.61.14 2.99-.04 6 .14 8.99.21 3.37 2 5.52 5.44 6.16 10.27 1.92 22.61-8.23 22.13-18.52-.2-4.28-1.19-8.54-1.98-12.78-1.67-8.94-.54-10.15 8.8-10.86 9.63-.73 18.48 2 27.12 5.55 9.72 3.98 18.34.33 19.43-12.28.52-5.96.76-11.95 1.24-19.83z"/>
    <path d="M1249.97 1026.87c-.48 7.87-.72 13.86-1.24 19.83-1.09 12.6-9.7 16.26-19.43 12.28-8.65-3.54-17.5-6.27-27.12-5.55-9.34.7-10.48 1.92-8.8 10.86.79 4.24 1.79 8.5 1.98 12.78.47 10.29-11.86 20.44-22.13 18.52-3.44-.64-5.23-2.79-5.44-6.16-.18-2.99 0-6-.14-8.99-.42-8.96-6.41-14.88-15.08-12.61-13.97 3.67-27.08.53-40.36-2.47-13.73-3.1-18.2-8.88-18.53-23.06-.27-11.68 4.33-21.56 12.26-29.62 2.77-2.82 7.4-4.36 11.45-5.27 9.39-2.1 18.9-3.77 28.43-5.05 15.97-2.15 24.03-12.96 29.61-26.44 1.77-4.27 2.48-8.96 3.78-13.43 1.48-5.1 4.79-7.58 10.26-7.65 9.12-.12 11.19 2.42 8.78 11.34-1.13 4.17-2.32 8.34-3.2 12.57-1.35 6.52-.26 9.48 5.49 12.15 3.5 1.63 7.59 2.7 11.44 2.76 6.97.11 13.96-.61 20.92-1.2 10.07-.86 13.15 1.21 14.68 11.46 1.23 8.21 1.74 16.52 2.39 22.96zm-67.39-17.71c-1.58.18-4.47-.37-6.07.83-6.04 4.51-12.44 8.94-17.23 14.64-5.03 5.98-2.41 16.05 3.86 20.27 8.42 5.66 17.01 4.15 22.26-3.99 2.69-4.18 5.04-8.59 7.9-12.64 3.11-4.41 4.36-8.92 2.07-13.99-2.42-5.37-7.52-4.54-12.79-5.1z"
          fill="#fff"/>
    <path d="M1182.58 1009.16c5.27.56 10.36-.27 12.79 5.1 2.28 5.06 1.04 9.57-2.07 13.99-2.86 4.05-5.21 8.46-7.9 12.64-5.25 8.15-13.84 9.66-22.26 3.99-6.26-4.21-8.88-14.28-3.86-20.27 4.79-5.7 11.19-10.12 17.23-14.64 1.6-1.19 4.49-.65 6.07-.83z"/>
</svg>