<svg xmlns="http://www.w3.org/2000/svg" width="2351" height="2351">
    <path d="M0 2351V0h2351v2351H0zm1288.05-1312.44c24.66-.98 49.3-.34 73.68-4.97 14.27-2.71 25.86-8.9 30.49-23.71 3.38-10.82-.18-17.15-10.99-20.58-6.65-2.11-13.38-3.97-20.07-5.93-5.69-1.67-11.29-4.07-17.11-4.84-10.53-1.4-21.17-2.11-31.78-2.59-20.86-.95-41.75-2.54-62.5 1.74-10.72 2.21-21.58 3.71-32.27 6.01-3.06.66-6.77 2.29-8.44 4.68-5.55 7.94-11.04 16.5-6.43 26.77 4.96 11.05 11.88 20.05 25.64 20.6 19.94.79 39.86 1.87 59.79 2.83zm-164.32.78v-.38c7.99 0 15.98.16 23.96-.04 11.85-.3 18.57-6.87 22.5-17.75 2.39-6.61.44-12.55-.89-18.58-2.63-11.9-10.55-17.27-22.65-15.96-8.93.97-17.83 2.33-26.77 3.19-27.82 2.68-55.66 5.16-83.48 7.82-4.96.48-9.97 1.06-14.78 2.3-8.62 2.21-14.14 10.73-13.99 20.66.15 9.48 2.52 13 13.63 15.24 10.05 2.03 20.42 3.14 30.68 3.34 23.92.47 47.86.15 71.79.15z"
          fill="transparent"/>
    <path d="M1288.05 1038.56c-19.93-.96-39.85-2.04-59.79-2.83-13.76-.55-20.68-9.55-25.64-20.6-4.61-10.27.88-18.83 6.43-26.77 1.68-2.4 5.38-4.02 8.44-4.68 10.69-2.3 21.56-3.8 32.27-6.01 20.75-4.28 41.64-2.69 62.5-1.74 10.62.48 21.26 1.2 31.78 2.59 5.81.77 11.41 3.17 17.11 4.84 6.69 1.96 13.42 3.82 20.07 5.93 10.81 3.43 14.37 9.77 10.99 20.58-4.63 14.81-16.23 21-30.49 23.71-24.37 4.63-49.02 3.99-73.68 4.97zm-40.52-15.52c.2.84.39 1.68.59 2.51 4.53.36 9.07 1.08 13.59 1.01 11.98-.2 23.94-.74 35.92-1.14 19.24-.64 38.53-.62 57.69-2.24 7.99-.68 15.85-4.45 23.42-7.65 2.69-1.14 4.98-4.42 6.33-7.25 1.96-4.12-.3-7.79-4.72-7.23-5.31.67-9.01-1.87-12.9-4.24-9.89-6.02-20.39-9.59-32.1-9.37-3.31.06-6.63-.54-9.95-.75-23.94-1.54-47.88-2-71.75 1.02-2.36.3-4.61 1.49-6.63 2.17.13 1.82-.06 2.63.26 3.1 2.06 3 4.2 5.93 6.36 8.87 5.21 7.1 5.16 8.08-.5 14.47-1.94 2.18-3.74 4.48-5.61 6.72zM1123.73 1039.34c-23.93 0-47.87.32-71.79-.15-10.26-.2-20.63-1.31-30.68-3.34-11.11-2.24-13.48-5.76-13.63-15.24-.15-9.93 5.37-18.45 13.99-20.66 4.81-1.23 9.82-1.82 14.78-2.3 27.82-2.66 55.66-5.15 83.48-7.82 8.94-.86 17.84-2.22 26.77-3.19 12.09-1.32 20.02 4.06 22.65 15.96 1.33 6.03 3.28 11.96.89 18.58-3.93 10.88-10.65 17.45-22.5 17.75-7.98.2-15.97.04-23.96.04v.38zm-45.07-7.14c0-.16.01-.32.02-.48 6.63.33 13.25.68 19.88.97 3.98.17 7.97.41 11.95.33 11.61-.23 23.21-.6 34.81-.94 1.99-.06 4-.1 5.96-.39 8.17-1.21 13.1-6.14 14.39-14.24 2.39-14.99-6.21-24.53-21.16-23.43-1.98.15-3.95.53-5.92.78-13.17 1.72-26.33 3.53-39.51 5.14-11.21 1.37-22.45 2.44-33.66 3.79-6.97.84-7.62 2.01-7.46 8.82.1 4.26-.08 8.62-.93 12.77-.9 4.38.67 6.58 4.72 6.8 5.62.3 11.27.08 16.91.08z"/>
    <path d="M1247.52 1023.04c1.87-2.24 3.67-4.54 5.61-6.72 5.66-6.38 5.71-7.37.5-14.47-2.15-2.93-4.3-5.87-6.36-8.87-.32-.46-.13-1.28-.26-3.1 2.01-.68 4.26-1.87 6.63-2.17 23.87-3.02 47.81-2.56 71.75-1.02 3.32.21 6.64.81 9.95.75 11.71-.22 22.21 3.35 32.1 9.37 3.89 2.37 7.59 4.91 12.9 4.24 4.42-.56 6.68 3.11 4.72 7.23-1.35 2.84-3.64 6.12-6.33 7.25-7.57 3.19-15.43 6.97-23.42 7.65-19.15 1.62-38.45 1.6-57.69 2.24-11.97.4-23.94.94-35.92 1.14-4.52.07-9.06-.65-13.59-1.01-.2-.84-.39-1.68-.59-2.51zM1078.66 1032.2c-5.64 0-11.29.23-16.91-.08-4.05-.22-5.62-2.42-4.72-6.8.85-4.15 1.03-8.51.93-12.77-.16-6.81.5-7.98 7.46-8.82 11.21-1.35 22.45-2.42 33.66-3.79 13.18-1.61 26.34-3.42 39.51-5.14 1.97-.26 3.94-.64 5.92-.78 14.95-1.1 23.55 8.44 21.16 23.43-1.29 8.1-6.22 13.02-14.39 14.24-1.96.29-3.97.33-5.96.39-11.6.34-23.21.7-34.81.94-3.98.08-7.97-.15-11.95-.33-6.63-.29-13.25-.64-19.88-.97 0 .16-.01.32-.02.48z"
          fill="#fff"/>
</svg>