<svg xmlns="http://www.w3.org/2000/svg" width="2351" height="2351">
    <path d="M0 2351V0h2351v2351H0zM1125.95 952.41l-2.79-1.02c-1.26 1.66-3 3.15-3.68 5.03-1.58 4.36-3.19 8.84-3.83 13.4-1.26 9-5.39 15.3-14.11 18.64-2.69 1.03-5.28 3.05-7.21 5.23-3.52 4-7.15 4.03-11.54 1.84-2.05-1.03-4.41-2.13-6.57-2.02-1.98.1-5.1 1.36-5.62 2.84-2.46 7.09-4.95 14.38-1.8 22.41 3.5.4 6.78.68 10.02 1.18 3.28.51 6.56 1.13 9.79 1.9 6.87 1.62 7.73 3.09 5.81 9.63-.84 2.87-2.04 5.65-2.73 8.55-1.64 6.93-.57 8.09 5.45 11.89 12.32 7.76 26.39 10.75 39.91 15.15 3.23 1.05 8.4.19 11.06-1.88 5.97-4.65 11.18-10.29 13.77-17.93 2.72-8.01 3.02-7.91 11.28-6.04 8.45 1.91 15.86 1.3 20.47-7.57 1.18-2.27 3.55-3.91 5.29-5.91 8-9.2 5.93-22.02-4.54-27.92-3.12-1.76-6.35-3.33-9.52-4.98 1.41-9.22 11.62-9.46 15.68-16.48-2.11-.43-3.37-.98-4.58-.88-5.8.49-10.78 7.2-17.47 2.24-.48-.36-2.77 1.46-4.05 2.49-2.08 1.66-3.96 3.56-6.02 5.24-3.81 3.09-6.51 1.79-9.07-2.79 2.53-2.28 4.98-4.4 7.34-6.62 2.49-2.33 6.34-3.54 6.99-7.67-15.94-4.41-16.38-4.26-27.33 6.46-1.21 1.19-2.95 1.84-4.67 2.88-3.31-7.08 6.53-7.63 5.03-13.75-3.23-1.33-6.8-3.9-10.44-4-3.82-.1-7.71 2.17-11.9 3.52.59-4.95 1.07-9 1.55-13.05zm143.86 91.06c9.23 8.64 19.02 18.05 29.12 27.11 3.96 3.55 8.78 2.52 13.12.27 4.15-2.16 6.17-5.43 5.87-10.52-.41-6.94-.03-13.93.09-20.9.13-7.6-1.19-9.97-8.35-12.89-4.58-1.87-9.57-2.79-14.05-4.85-8.2-3.77-19.87.69-22.56 9.17-1.17 3.7-1.95 7.53-3.25 12.62z"
          fill="transparent"/>
    <path d="M1125.95 952.41c-.48 4.05-.96 8.11-1.55 13.05 4.2-1.34 8.08-3.62 11.9-3.52 3.64.09 7.21 2.67 10.44 4 1.5 6.13-8.34 6.68-5.03 13.75 1.72-1.04 3.45-1.69 4.67-2.88 10.95-10.72 11.39-10.87 27.33-6.46-.65 4.13-4.5 5.35-6.99 7.67-2.36 2.21-4.81 4.34-7.34 6.62 2.57 4.58 5.26 5.88 9.07 2.79 2.06-1.68 3.95-3.58 6.02-5.24 1.28-1.02 3.57-2.84 4.05-2.49 6.68 4.96 11.66-1.75 17.47-2.24 1.21-.1 2.48.45 4.58.88-4.06 7.03-14.27 7.26-15.68 16.48 3.18 1.66 6.4 3.22 9.52 4.98 10.47 5.9 12.54 18.72 4.54 27.92-1.74 2-4.11 3.64-5.29 5.91-4.61 8.87-12.02 9.48-20.47 7.57-8.27-1.86-8.56-1.97-11.28 6.04-2.6 7.64-7.8 13.28-13.77 17.93-2.65 2.07-7.83 2.93-11.06 1.88-13.52-4.4-27.6-7.39-39.91-15.15-6.02-3.79-7.08-4.96-5.45-11.89.69-2.9 1.88-5.68 2.73-8.55 1.93-6.54 1.06-8.01-5.81-9.63-3.23-.76-6.51-1.39-9.79-1.9-3.24-.5-6.52-.78-10.02-1.18-3.15-8.03-.66-15.32 1.8-22.41.51-1.48 3.63-2.74 5.62-2.84 2.16-.11 4.52 1 6.57 2.02 4.38 2.19 8.02 2.15 11.54-1.84 1.93-2.19 4.51-4.2 7.21-5.23 8.72-3.34 12.84-9.64 14.11-18.64.64-4.56 2.24-9.04 3.83-13.4.68-1.87 2.42-3.36 3.68-5.03l2.79 1.02zm-29.88 92.24c14.89 5.37 28.09 10.41 41.52 14.73 2.61.84 6.56-.39 9.15-1.93 7.47-4.42 9.84-11.9 11.29-20.09 1.52-8.59 3.62-9.67 11.56-6.32 14.45 6.11 16.83 1.31 24.86-8.61 4.53-5.59 3.36-11.59-2.89-15.2-4.23-2.44-9.08-4.17-13.88-5.2-18.15-3.89-36.62-6.54-54.53-11.3-11.28-3-19.03.89-25.38 8.63-4.01 4.89-7.73 5.44-12.89 3.39-1.54-.61-3.16-1.02-4.75-1.49-3.68-1.09-5.93.4-6.34 4.06-.27 2.45.18 4.99.31 7.53 8.4 1.54 15.97 2.55 23.34 4.38 6.89 1.71 7.35 3.13 4.98 9.95-1.83 5.24-3.79 10.44-6.35 17.46zm34.32-57.85c1.53-1.91 2.86-2.89 3.09-4.08.15-.78-1.49-2.77-1.95-2.66-1.32.32-3.03 1.21-3.47 2.31-.32.81 1.14 2.31 2.33 4.42zM1269.81 1043.47c1.3-5.09 2.07-8.92 3.25-12.62 2.69-8.48 14.36-12.93 22.56-9.17 4.48 2.06 9.47 2.98 14.05 4.85 7.15 2.92 8.47 5.29 8.35 12.89-.12 6.97-.5 13.96-.09 20.9.3 5.08-1.71 8.36-5.87 10.52-4.34 2.26-9.16 3.28-13.12-.27-10.1-9.06-19.88-18.47-29.12-27.11zm39.2 22.68c.6-7.1 1.47-12.93 1.51-18.76.11-14.57-1.81-16.73-16.27-20.13-1.3-.3-2.61-1.01-3.86-.91-2.37.19-4.7.82-7.07 1.28q1.54 7.26-3.71 14.88c9.14 7.71 14.88 19.66 29.41 23.64z"/>
    <path d="M1096.08 1044.65c2.56-7.02 4.53-12.22 6.35-17.46 2.38-6.82 1.91-8.25-4.98-9.95-7.37-1.83-14.94-2.84-23.34-4.38-.13-2.55-.58-5.08-.31-7.53.41-3.66 2.66-5.16 6.34-4.06 1.59.47 3.21.88 4.75 1.49 5.16 2.05 8.88 1.5 12.89-3.39 6.35-7.74 14.1-11.62 25.38-8.63 17.91 4.76 36.37 7.41 54.53 11.3 4.79 1.03 9.65 2.75 13.88 5.2 6.25 3.61 7.42 9.61 2.89 15.2-8.03 9.91-10.41 14.71-24.86 8.61-7.93-3.35-10.03-2.26-11.56 6.32-1.45 8.19-3.82 15.67-11.29 20.09-2.59 1.53-6.53 2.77-9.15 1.93-13.43-4.32-26.63-9.36-41.52-14.73zm39.01-33.58c-7.02-.24-10.58 2.73-10.96 7.31-.26 3.19 3.44 7.07 6.82 7.16 3 .08 9.91-6.33 8.95-9.21-.83-2.49-3.83-4.26-4.81-5.26zM1130.4 986.8c-1.18-2.11-2.64-3.62-2.33-4.42.44-1.11 2.14-1.99 3.47-2.31.46-.11 2.1 1.87 1.95 2.66-.23 1.19-1.56 2.17-3.09 4.08zM1309.01 1066.15c-14.53-3.98-20.27-15.93-29.41-23.64q5.26-7.62 3.71-14.88c2.37-.45 4.7-1.09 7.07-1.28 1.26-.1 2.57.61 3.86.91 14.47 3.4 16.38 5.56 16.27 20.13-.04 5.83-.91 11.66-1.51 18.76zm-7.96-13.46c4.37-9.72 3.62-13.33-3.06-17.23-4.25 8.08-3.98 9.89 3.06 17.23z"
          fill="#fff"/>
    <path d="M1135.09 1011.08c.98 1 3.98 2.77 4.81 5.26.96 2.87-5.94 9.28-8.95 9.21-3.38-.09-7.08-3.97-6.82-7.16.38-4.58 3.94-7.54 10.96-7.31zM1301.05 1052.68c-7.03-7.34-7.31-9.15-3.06-17.23 6.68 3.9 7.42 7.51 3.06 17.23z"/>
</svg>