<svg xmlns="http://www.w3.org/2000/svg" width="2351" height="2351">
    <path d="M0 2351V0h2351v2351H0zm1247.1-1290.86c5.55-.89 11.34-1.08 16.61-2.82 10.06-3.33 20.29-6.68 29.55-11.68 7.13-3.85 13.42-9.73 19.12-15.65 5.13-5.33 4.69-12.59-.56-15.7-10.21-6.05-20.02-12.54-32.07-15.52-19.99-4.93-39.05-2.09-57.76 4.28-11.16 3.8-20.05 11.66-26.5 21.73-3.05 4.77-1.94 8.05 2.4 10.89 6.91 4.51 13.78 9.1 20.51 13.88 8.6 6.12 17.74 10.44 28.7 10.58zm-133.75-19.27c4.11-5.87 5.65-9.76 1.91-14.98-6.92-9.66-6.59-9.88 2.76-17.36 4.15-3.32 8.57-6.4 12.21-10.22 1.33-1.4 1.55-5 .71-6.89-.57-1.28-3.91-1.87-5.97-1.77-1.83.09-3.7 1.38-5.37 2.43-3.37 2.12-6.6 4.47-9.93 6.67-7.54 4.99-7.95 4.95-14.67-.62-2.56-2.12-5.05-4.33-7.71-6.31-2.69-2-5.51-2.3-8.06.33-2.82 2.9-1.24 5.39.79 7.86 3.29 4.01 6.54 8.07 9.86 12.18-5.35 6.16-10.03 11.55-14.61 16.83 5.93 6.43 6.37 6.6 11.27 4.22 1.19-.58 2.26-1.41 3.4-2.09q8.56-5.09 15.11 1.59c2.48 2.52 5.06 4.95 8.32 8.13z"
          fill="transparent"/>
    <path d="M1247.1 1060.14c-10.96-.14-20.1-4.46-28.7-10.58-6.72-4.79-13.6-9.37-20.51-13.88-4.35-2.84-5.46-6.12-2.4-10.89 6.45-10.07 15.34-17.94 26.5-21.73 18.7-6.37 37.76-9.22 57.76-4.28 12.06 2.98 21.87 9.47 32.07 15.52 5.25 3.11 5.69 10.37.56 15.7-5.69 5.92-11.98 11.8-19.12 15.65-9.26 5-19.5 8.35-29.55 11.68-5.27 1.74-11.05 1.93-16.61 2.82zm-.43-9.77c16.82-3.03 35.33-8.81 51.58-20.55.8-.58 1.54-1.28 2.19-2.03 3.57-4.08 3.93-7.01-.32-10.16-4.44-3.29-9.52-6.59-14.79-7.72-18.44-3.97-36.99-3.27-55.34 1.18-8 1.94-14.36 6.75-20.25 12.25-2.77 2.59-3.96 5.65-1 8.68 9.7 9.92 20.25 18.37 37.92 18.35zM1113.35 1040.87c-3.27-3.18-5.84-5.61-8.32-8.13q-6.56-6.66-15.11-1.59c-1.14.68-2.21 1.51-3.4 2.09-4.9 2.38-5.34 2.21-11.27-4.22 4.58-5.28 9.27-10.67 14.61-16.83-3.32-4.11-6.56-8.17-9.86-12.18-2.03-2.47-3.61-4.96-.79-7.86 2.55-2.63 5.38-2.33 8.06-.33 2.66 1.98 5.15 4.19 7.71 6.31 6.72 5.57 7.13 5.61 14.67.62 3.33-2.2 6.56-4.55 9.93-6.67 1.67-1.05 3.54-2.34 5.37-2.43 2.06-.1 5.4.5 5.97 1.77.84 1.9.62 5.5-.71 6.89-3.63 3.82-8.06 6.89-12.21 10.22-9.35 7.48-9.68 7.7-2.76 17.36 3.74 5.22 2.2 9.11-1.91 14.98z"/>
    <path d="M1246.66 1050.38c-17.67.02-28.22-8.42-37.92-18.35-2.96-3.03-1.78-6.09 1-8.68 5.89-5.5 12.24-10.31 20.25-12.25 18.35-4.44 36.9-5.15 55.34-1.18 5.27 1.13 10.35 4.43 14.79 7.72 4.25 3.15 3.89 6.07.32 10.16-.65.75-1.39 1.45-2.19 2.03-16.25 11.75-34.76 17.52-51.58 20.55zm2.56-28.6c-1.27-.92-2.76-2.23-4.45-3.18-6.51-3.68-12.55-1.72-15.46 4.93-1.98 4.51-.35 9.89 3.68 12.18 3.95 2.24 6.76.7 9.98-4.95 1.72-3.02 3.96-5.73 6.25-8.98z"
          fill="#fff"/>
    <path d="M1249.22 1021.78c-2.28 3.24-4.52 5.96-6.25 8.98-3.22 5.65-6.04 7.19-9.98 4.95-4.03-2.29-5.66-7.67-3.68-12.18 2.91-6.64 8.95-8.61 15.46-4.93 1.69.96 3.18 2.26 4.45 3.18z"/>
</svg>