<svg xmlns="http://www.w3.org/2000/svg" width="2351" height="2351">
    <path
            d="M0 2351V0h2351v2351H0zm1241.25-1290.6c8.67.35 15.53-3.04 20.46-10.12 3.22-4.63 6.52-9.26 9.12-14.24 1.62-3.1 2.72-6.84 2.81-10.32.23-9.16-.97-17.91-9.83-23.53-10.53-6.69-21.99-10.56-33.89-6.29-7.58 2.72-14.23 8.35-20.86 13.26-4.08 3.02-6.62 7.59-6.25 12.97 1.72 25.44 16.12 37.39 38.46 38.28zm-136.97-18.12c5.9-6.86 10.4-12.08 14.89-17.31 8-9.32 16.19-18.49 23.94-28.02 4.65-5.72 3.42-8.67-3.78-10.25-4.52-.99-9.37-.84-13.69-2.32-11.32-3.89-23-2.79-34.56-3.23-5.33-.2-5.47.47-3.77 7.94 14.94.08 30.01.56 46.4 5.47-8.38 13.76-18.53 23.65-30.11 33.94-3.64-4.37-6.49-7.89-9.44-11.31-3.11-3.62-5-8.41-9.81-11.05-.98 8.37-1.06 8.42 13.12 30.39 1.58 2.44 4.61 3.94 6.82 5.76zm3.63-37.8c-1.37-9.18-2.52-9.5-8.41-3.51 3.1 1.29 5.75 2.4 8.41 3.51z"
            fill="transparent"/>
    <path
            d="M1241.25 1060.4c-22.34-.89-36.73-12.83-38.46-38.28-.36-5.38 2.17-9.95 6.25-12.97 6.64-4.9 13.29-10.54 20.86-13.26 11.91-4.27 23.36-.4 33.89 6.29 8.86 5.63 10.06 14.37 9.83 23.53-.09 3.48-1.19 7.21-2.81 10.32-2.6 4.98-5.9 9.61-9.12 14.24-4.92 7.08-11.79 10.47-20.46 10.12zm-6.25-52.61c-.09.53-.18 1.07-.28 1.6-3.48.28-6.96.52-10.43.84-9.16.85-13.22 5.05-13.32 14.02-.03 2.98.18 6 .65 8.95 2.45 15.35 22.81 25.93 36.59 19.11 10.16-5.03 20.06-26.11 16.96-36.93-.77-2.67-2.6-5.81-4.88-7.13-9.67-5.62-20.2-7.89-31.4-5.92-.4.07-.63 1.05-.96 1.63l7.05 3.84zM1104.28 1042.28c-2.21-1.81-5.24-3.32-6.82-5.76-14.18-21.97-14.1-22.02-13.12-30.39 4.81 2.64 6.7 7.44 9.81 11.05 2.95 3.43 5.8 6.94 9.44 11.31 11.58-10.3 21.72-20.18 30.11-33.94-16.39-4.91-31.46-5.39-46.4-5.47-1.69-7.47-1.56-8.15 3.77-7.94 11.56.44 23.24-.66 34.56 3.23 4.32 1.48 9.17 1.33 13.69 2.32 7.21 1.58 8.43 4.53 3.78 10.25-7.75 9.53-15.93 18.7-23.94 28.02-4.49 5.23-8.99 10.45-14.89 17.31z"/>
    <path d="M1107.91 1004.48c-2.65-1.11-5.31-2.21-8.41-3.51 5.89-6 7.03-5.68 8.41 3.51z"/>
    <path
            d="M1235 1007.79l-7.05-3.84c.32-.58.56-1.56.96-1.63 11.19-1.96 21.73.3 31.4 5.92 2.28 1.32 4.11 4.46 4.88 7.13 3.1 10.82-6.8 31.9-16.96 36.93-13.79 6.83-34.14-3.76-36.59-19.11-.47-2.94-.69-5.96-.65-8.95.1-8.97 4.16-13.17 13.32-14.02 3.47-.32 6.95-.56 10.43-.84.09-.53.18-1.07.28-1.6zm7.96 6.43c-6.66 1.9-10.26 5.33-9.92 9.98.12 1.68 1.27 3.98 2.61 4.65.98.49 3.78-.78 4.52-2.02 2.28-3.77 5.07-7.7 2.78-12.61z"
            fill="#fff"/>
    <path
            d="M1242.96 1014.22c2.29 4.91-.51 8.84-2.78 12.61-.75 1.24-3.54 2.51-4.52 2.02-1.35-.67-2.49-2.97-2.61-4.65-.34-4.64 3.26-8.07 9.92-9.98z"/>
</svg>