<svg xmlns="http://www.w3.org/2000/svg" width="2351" height="2351">
    <path d="M0 2351V0h2351v2351H0zm1105.66-1239.52c10.62-.6 23.1-3.31 31.8-13.63 6.82-8.1 12.4-17.29 18.16-26.23 4.61-7.16 5.16-15.03 1.92-22.94-2.52-6.15-5.39-12.15-8.07-18.24-3.03-6.86-8.26-10.95-15.43-13.02-15.16-4.38-30.42-6.73-46.24-4.19-6.94 1.11-12.81 3.84-16.94 9.45-5.32 7.23-10.29 14.71-15.27 22.18-3.53 5.29-4.31 10.93-2.04 17.08 2.18 5.92 3.76 12.06 5.82 18.03 6.73 19.52 23.4 31.43 46.3 31.51zm209.22-87.98c4.47-.6 10.45-1.08 16.27-2.3 4.52-.95 8.94-2.58 13.22-4.36 11.02-4.59 21.92-21.54 21.22-33.54-.22-3.82-1.34-8.02-3.35-11.24-8.64-13.88-20.35-24.28-35.62-30.79-10.86-4.63-21.27-4.37-31.84.29-9.65 4.25-17.75 10.56-23.84 19.13-7.98 11.24-9.72 23.84-3.09 35.81 9.68 17.47 24.79 27.3 47.03 27z"
          fill="transparent"/>
    <path d="M1105.66 1111.48c-22.89-.08-39.57-11.99-46.3-31.51-2.06-5.97-3.64-12.11-5.82-18.03-2.26-6.15-1.49-11.79 2.04-17.08 4.98-7.47 9.95-14.96 15.27-22.18 4.13-5.61 10-8.33 16.94-9.45 15.82-2.54 31.08-.19 46.24 4.19 7.17 2.07 12.4 6.16 15.43 13.02 2.68 6.08 5.55 12.09 8.07 18.24 3.24 7.91 2.7 15.78-1.92 22.94-5.76 8.94-11.33 18.13-18.16 26.23-8.7 10.33-21.18 13.04-31.8 13.63zm-9.69-15.94c14.84.13 23.15-3.31 29.37-11.16 3.92-4.95 7.86-9.91 11.42-15.11 6.49-9.48 6.07-19.74-1.24-28.5-5.63-6.74-12.6-11.86-20.91-14.85-12.51-4.51-22.65-1.75-31.25 8.53-10.62 12.69-11.1 27.35-7.33 42.45 3.11 12.46 11.8 18.64 19.93 18.65zM1314.88 1023.5c-22.24.3-37.35-9.53-47.03-27-6.63-11.96-4.89-24.57 3.09-35.81 6.09-8.57 14.19-14.88 23.84-19.13 10.57-4.65 20.98-4.92 31.84-.29 15.27 6.51 26.98 16.9 35.62 30.79 2 3.22 3.12 7.42 3.35 11.24.7 11.99-10.19 28.95-21.22 33.54-4.28 1.78-8.71 3.41-13.22 4.36-5.82 1.23-11.81 1.7-16.27 2.3zm12.23-58.13c-.46-1.3-.84-2.54-1.33-3.74-4.18-10.05-10.75-12.78-19.54-6.68-7.01 4.86-13.77 10.65-19.09 17.28-11.07 13.78 1.01 34.04 15.11 33.41 6.97-.31 14 .1 20.9-.66 10.47-1.16 17.64-7.38 22.04-16.73 3.96-8.42.44-16.96-8.31-20.26-3.08-1.17-6.39-1.73-9.78-2.62z"/>
    <path d="M1095.97 1095.54c-8.14-.01-16.82-6.19-19.93-18.65-3.77-15.1-3.29-29.76 7.33-42.45 8.6-10.28 18.74-13.04 31.25-8.53 8.31 2.99 15.29 8.11 20.91 14.85 7.31 8.76 7.73 19.02 1.24 28.5-3.56 5.21-7.5 10.16-11.42 15.11-6.22 7.85-14.54 11.3-29.37 11.16zm8.24-21.29c7.51-.18 13.68-5.65 13.3-11.79-.42-6.67-9.54-14.7-16.58-14.59-6.88.11-12.29 5.87-12.19 12.99.1 7.63 6.99 13.58 15.48 13.38zM1327.1 965.38c3.39.89 6.7 1.45 9.78 2.62 8.74 3.3 12.27 11.84 8.31 20.26-4.4 9.35-11.57 15.57-22.04 16.73-6.91.77-13.94.35-20.9.66-14.09.63-26.18-19.63-15.11-33.41 5.32-6.62 12.08-12.41 19.09-17.28 8.79-6.1 15.36-3.37 19.54 6.68.5 1.2.87 2.44 1.33 3.74zm-9.18.86c-.13.35-.26.7-.38 1.06-1.33 0-2.66-.08-3.98.01-7.59.52-9.52 3.01-7.34 10.19 1.44 4.74 3.08 9.51 5.36 13.89 2.61 5.02 7.61 6.17 12.84 5.49 5.22-.68 8.15-4.15 9.18-9.17 1.38-6.74-1.03-12.75-5.42-17.35-2.31-2.42-6.76-2.81-10.25-4.12z"
          fill="#fff"/>
    <path d="M1104.21 1074.26c-8.49.21-15.37-5.74-15.48-13.38-.1-7.13 5.31-12.89 12.19-12.99 7.05-.11 16.17 7.91 16.58 14.59.38 6.13-5.79 11.6-13.3 11.79zM1317.92 966.24c3.48 1.31 7.93 1.69 10.25 4.12 4.39 4.59 6.8 10.61 5.42 17.35-1.02 5.02-3.96 8.49-9.18 9.17-5.23.68-10.23-.46-12.84-5.49-2.27-4.38-3.92-9.15-5.36-13.89-2.18-7.18-.25-9.67 7.34-10.19 1.32-.09 2.65-.01 3.98-.01.13-.35.26-.7.38-1.06z"/>
</svg>