<svg xmlns="http://www.w3.org/2000/svg" width="2351" height="2351">
    <path d="M0 2351V0h2351v2351H0zm1185.43-1305.25c22.24.62 38.8-9.06 50.12-28.29 6.38-10.84 9.84-22.48 10.95-34.94 1.09-12.22-2.69-18.86-14.49-22.95-7.51-2.6-15.39-4.17-23.16-5.96-14.64-3.36-28.4-1.48-40.93 7.27-1.08.76-2.28 1.43-3.51 1.89-13.4 4.99-21.38 14.88-26.79 27.81-3.4 8.13-4.06 15.76-1.78 24.22 3 11.11 9.72 18.65 19.68 23.84 9.34 4.87 19.16 7.55 29.92 7.1zm145.9-15.38c4.61-.38 9.3-.36 13.83-1.22 8.77-1.66 15.23-8.42 16.38-16.44 1.57-10.98-1.07-18.6-9.17-22.01-9.74-4.1-19.75-7.92-30-10.32-14.94-3.51-27.13 8.67-24.34 23.82.87 4.73 3.04 9.5 5.65 13.59 6.39 9.99 16.31 12.93 27.66 12.58zm-284.84 9.67c1.08-.1 3.75-.16 6.34-.63 18.41-3.37 28.87-14.93 28.74-31.35-.05-6.09-2.2-11.31-6.96-14.71-9.91-7.09-20.93-10.32-32.75-5.34-10.73 4.52-15.87 13.9-17.8 24.73-2.72 15.24 6.81 27.22 22.43 27.3z"
          fill="transparent"/>
    <path d="M1185.43 1045.75c-10.76.44-20.58-2.23-29.92-7.1-9.96-5.19-16.69-12.73-19.68-23.84-2.28-8.46-1.63-16.09 1.78-24.22 5.41-12.93 13.39-22.82 26.79-27.81 1.24-.46 2.43-1.13 3.51-1.89 12.53-8.75 26.3-10.63 40.93-7.27 7.77 1.79 15.66 3.36 23.16 5.96 11.81 4.09 15.59 10.73 14.49 22.95-1.11 12.45-4.57 24.1-10.95 34.94-11.32 19.23-27.88 28.91-50.12 28.29zm26.57-67.14c-.81.31-1.61.62-2.42.92-2.53-2.5-5.15-4.91-7.56-7.52-3.64-3.95-8.06-5.77-13.39-5.34-16.71 1.36-33.39 14.74-38.49 30.79-2.36 7.44-1.54 14.35 2.9 20.92 9.67 14.32 32.48 20.87 48.1 13.54 18.54-8.7 26.83-25.04 31.71-43.61.88-3.34.04-7.3-.66-10.85-1.27-6.42-5.88-10.39-12.27-11.32-3.9-.56-6.53.51-6.89 4.96-.2 2.51-.68 5-1.03 7.5zM1331.34 1030.37c-11.35.35-21.27-2.59-27.66-12.58-2.61-4.09-4.78-8.86-5.65-13.59-2.79-15.14 9.41-27.32 24.34-23.82 10.25 2.41 20.26 6.23 30 10.32 8.1 3.41 10.74 11.02 9.17 22.01-1.15 8.02-7.6 14.78-16.38 16.44-4.52.86-9.21.84-13.83 1.22zm-17.4-28.12c-.05 12.74 13.42 21.62 25.25 16.65 5.19-2.18 7.15-6.41 6.64-13.02-.42-5.38-3.56-7.14-8.35-8.01-4.18-.76-8.22-2.32-12.3-3.63-8.12-2.6-11.21-.42-11.24 8.01zM1046.5 1040.03c-15.62-.08-25.14-12.07-22.43-27.3 1.93-10.82 7.07-20.2 17.8-24.73 11.82-4.98 22.84-1.75 32.75 5.34 4.76 3.41 6.91 8.63 6.96 14.71.13 16.42-10.33 27.98-28.74 31.35-2.59.48-5.27.53-6.34.63zm8.08-42.6c-7.24.13-14.5 8.81-15.13 18.09-.59 8.72 5.25 13.71 13.74 11.64 6.3-1.54 10.03-6.12 12.82-11.54 4.89-9.51-.75-18.39-11.43-18.2z"/>
    <path d="M1212.01 978.6c.35-2.5.83-4.99 1.03-7.5.36-4.45 2.98-5.52 6.89-4.96 6.4.93 11 4.9 12.27 11.32.7 3.55 1.54 7.51.66 10.85-4.88 18.57-13.17 34.91-31.71 43.61-15.62 7.33-38.44.78-48.1-13.54-4.44-6.57-5.26-13.48-2.9-20.92 5.09-16.05 21.77-29.42 38.49-30.79 5.33-.43 9.75 1.38 13.39 5.34 2.41 2.61 5.03 5.02 7.56 7.52.81-.31 1.61-.62 2.42-.92zm-15.8 27.11c-.32-3.1-5.08-5.74-9.48-5.26-4.32.48-7.49 3.52-7.08 6.8.39 3.16 4.23 5.63 8.37 5.4 4.65-.26 8.54-3.56 8.19-6.94zM1313.93 1002.25c.03-8.43 3.13-10.61 11.24-8.01 4.07 1.31 8.11 2.87 12.3 3.63 4.79.87 7.93 2.62 8.35 8.01.51 6.61-1.45 10.84-6.64 13.02-11.83 4.97-25.29-3.91-25.25-16.65zM1054.58 997.43c10.68-.19 16.31 8.69 11.43 18.2-2.79 5.42-6.51 10-12.82 11.54-8.49 2.07-14.33-2.92-13.74-11.64.63-9.28 7.89-17.96 15.13-18.09zm3.4 19.75v-2.8c-2.13-2.22-4.48-3.28-6.83-.1-.47.64.25 3.16.52 3.18 2.09.14 4.2-.13 6.31-.28z"
          fill="#fff"/>
    <path d="M1196.21 1005.71c.35 3.39-3.54 6.68-8.19 6.94-4.13.23-7.97-2.24-8.37-5.4-.41-3.28 2.76-6.32 7.08-6.8 4.4-.49 9.16 2.15 9.48 5.26zM1057.98 1017.18c-2.11.14-4.22.41-6.31.28-.28-.02-.99-2.54-.52-3.18 2.35-3.18 4.7-2.11 6.84.1v2.8z"/>
</svg>