<svg xmlns="http://www.w3.org/2000/svg" width="2351" height="2351">
    <path d="M0 2351V0h2351v2351H0zM1219.27 963.48v.31c-9.32 0-18.65.07-27.97-.01-18.32-.16-36.54.34-54.73 3.23-30.67 4.88-60.34 13.71-89.6 23.49-16.7 5.58-28.99 18.58-37.88 33.95-4.03 6.98-2.21 13.61 4.14 18.57 2.34 1.83 5.02 3.25 7.65 4.67 21 11.3 43.66 17.77 66.9 22.15 11.41 2.15 23.13 2.6 34.65 4.27 26.79 3.88 53.69 4.31 80.65 2.92 13.28-.69 26.53-1.55 38.72-7.99 2.8-1.48 6.47-2.11 9.65-1.9 9.25.62 17.73-1.95 26.25-4.93 7.84-2.74 16.02-4.62 23.64-7.86 13.39-5.69 27.47-10.61 39.46-18.57 20.17-13.38 22.34-35.16 1.86-50.03-21.02-15.26-45.44-20.18-70.44-22.02-17.56-1.3-35.29-.25-52.94-.25z"
          fill="transparent"/>
    <path d="M1219.27 963.48c17.65 0 35.38-1.05 52.94.25 25 1.84 49.42 6.76 70.44 22.02 20.49 14.88 18.31 36.65-1.86 50.03-11.99 7.96-26.07 12.88-39.46 18.57-7.62 3.23-15.8 5.12-23.64 7.86-8.52 2.98-17 5.54-26.25 4.93-3.19-.21-6.85.42-9.65 1.9-12.19 6.44-25.44 7.3-38.72 7.99-26.96 1.4-53.86.96-80.65-2.92-11.52-1.67-23.24-2.11-34.65-4.27-23.24-4.39-45.9-10.86-66.9-22.15-2.63-1.41-5.31-2.84-7.65-4.67-6.35-4.97-8.17-11.6-4.14-18.57 8.89-15.38 21.18-28.37 37.88-33.95 29.27-9.78 58.93-18.61 89.6-23.49 18.19-2.89 36.42-3.39 54.73-3.23 9.32.08 18.64.01 27.97.01v-.31zm58.53 24.5c-2.06-1.01-4.63-1.72-6.51-3.27-7.39-6.1-15.85-7.68-25.18-7.45-6.93.17-14.04-.1-20.79-1.54-10.28-2.2-20.47-1.79-30.77-1.18-4.63.28-9.27.2-13.91.39-12.59.5-25.23.52-37.76 1.67-30.74 2.84-59.37 14.06-88.51 23.18-11.76 3.68-20.96 11.38-28.9 20.6-5.34 6.2-5.09 8.88 1.78 13.68 10.99 7.66 22.97 13.37 35.92 16.94 31.85 8.78 64.21 14.4 97.33 14.3 19.6-.06 39.25-.28 58.76-1.92 11.81-.99 23.28-5.41 35.07-7.29 27.28-4.36 52.41-14.53 76.75-27.05 12.98-6.68 21.12-21.46 2.98-34.46-4.02-2.88-8.29-5.8-12.89-7.41-11.57-4.05-23.36-7.49-35.15-10.87-2.96-.85-6.24-.55-9.68-.8.99 4.51 5.79 7.39 1.44 12.5z"
          fill="#09090c"/>
    <path d="M1277.8 987.98c4.35-5.1-.44-7.99-1.44-12.5 3.44.25 6.72-.04 9.68.8 11.79 3.38 23.58 6.82 35.15 10.87 4.6 1.61 8.87 4.53 12.89 7.41 18.14 13.01 10 27.78-2.98 34.46-24.33 12.52-49.47 22.69-76.75 27.05-11.78 1.88-23.26 6.3-35.07 7.29-19.5 1.64-39.16 1.86-58.76 1.92-33.12.1-65.48-5.52-97.33-14.3-12.95-3.57-24.93-9.27-35.92-16.94-6.87-4.79-7.12-7.48-1.78-13.68 7.93-9.21 17.14-16.92 28.9-20.6 29.13-9.12 57.77-20.34 88.51-23.18 12.53-1.16 25.17-1.18 37.76-1.67 4.63-.18 9.28-.11 13.91-.39 10.3-.62 20.49-1.02 30.77 1.18 6.74 1.44 13.86 1.71 20.79 1.54 9.33-.23 17.79 1.35 25.18 7.45 1.88 1.55 4.45 2.26 6.51 3.27zm-22.29 23.37c-1.35-6.38-2.62-13.23-4.29-19.98-1.03-4.17-4.15-6.51-8.19-7.96-6.94-2.51-13.75-1.58-20.55.27-14.97 4.07-25.05 13.81-29.72 28.26-4.42 13.69 2.69 24.39 11.56 34.03 1.35 1.46 2.84 2.79 4.31 4.14 4.35 3.98 9.25 4.94 14.72 2.56 2.43-1.06 4.79-2.32 7.29-3.18 17.96-6.19 22.15-21.26 24.86-38.15zm-117.36-.26c-.82-5.23-1.2-10.58-2.65-15.62-.72-2.5-3.19-6.1-5.23-6.35-11.17-1.39-22.89-2.42-32.41 4.95-9.32 7.22-12.31 17.8-10.99 29.39.93 8.16 6.03 12.6 13.6 15.39 12.44 4.58 39.73-10.16 37.67-27.75z"
          fill="#0142fa"/>
    <path d="M1255.51 1011.36c-2.71 16.89-6.9 31.96-24.86 38.15-2.5.86-4.86 2.12-7.29 3.18-5.47 2.38-10.37 1.41-14.72-2.56-1.47-1.34-2.97-2.67-4.31-4.14-8.86-9.65-15.98-20.34-11.56-34.03 4.67-14.45 14.75-24.19 29.72-28.26 6.8-1.85 13.61-2.78 20.55-.27 4.04 1.46 7.16 3.79 8.19 7.96 1.67 6.75 2.94 13.59 4.29 19.98zm-33.81-10.67c-8.4 1.19-13.13 6.54-17 13.69-3.54 6.53-2.55 12.16 1.43 17.58 4.03 5.49 9.76 8.48 16.5 6.72 5.35-1.4 10.76-3.59 15.37-6.61 6.87-4.51 9.99-18.3 6.59-25.23-3.72-7.58-10.77-9.98-21.25-7.23-.55.36-1.1.71-1.65 1.07z"
          fill="#07090d"/>
    <path d="M1138.15 1011.1c2.06 17.6-25.23 32.33-37.67 27.75-7.57-2.79-12.68-7.22-13.6-15.39-1.32-11.59 1.67-22.17 10.99-29.39 9.52-7.37 21.24-6.34 32.41-4.95 2.04.25 4.51 3.85 5.23 6.35 1.45 5.05 1.83 10.4 2.65 15.62zm-37.26-2.04c9.48-1.05 10.03 7.85 13.68 12.88 5.89-.43 9.78-3.3 9.79-8.52 0-3.12-2.17-7.01-4.59-9.19-3.62-3.25-8.11-1.9-12.02.59-2.23 1.42-4.45 2.87-6.66 4.32-1.58 3.4-5.41 6.52-1.13 11.86 2.52-4.57 2.25-8.21.93-11.95z"
          fill="#05060a"/>
    <path d="M1223.35 999.63c10.48-2.76 17.53-.36 21.25 7.23 3.4 6.94.29 20.73-6.59 25.23-4.61 3.02-10.02 5.21-15.37 6.61-6.75 1.76-12.47-1.23-16.5-6.72-3.98-5.43-4.97-11.05-1.43-17.58 3.87-7.15 8.6-12.51 17-13.69-.63 4.84-1.33 9.67-1.88 14.51-.44 3.86-1.16 7.92 3.88 9.84 4.98-3.27 7.29-8 7.46-13.38.15-4.89-3.79-7.25-7.75-9.27-.39-.2-.05-1.82-.05-2.78z"
          fill="#f3f4f4"/>
    <path d="M1223.35 999.63c0 .96-.34 2.58.05 2.78 3.96 2.01 7.9 4.38 7.75 9.27-.17 5.38-2.48 10.11-7.46 13.38-5.04-1.92-4.32-5.99-3.88-9.84.55-4.85 1.25-9.68 1.88-14.51.55-.36 1.1-.71 1.65-1.07z"
          fill="#1f1f1f"/>
    <path d="M1101.07 1009.12c2.23-1.43 4.45-2.88 6.68-4.3 3.92-2.49 8.41-3.84 12.02-.59 2.42 2.18 4.59 6.07 4.59 9.19 0 5.22-3.9 8.09-9.79 8.52-3.65-5.03-4.19-13.94-13.68-12.88l.18.07z"
          fill="#e6eaea"/>
    <path d="M1100.89 1009.06c1.32 3.74 1.6 7.37-.93 11.95-4.28-5.34-.46-8.46 1.11-11.87-.01 0-.19-.07-.19-.07z"
          fill="#bcc5c5"/>
</svg>