<svg xmlns="http://www.w3.org/2000/svg" width="2351" height="2351">
    <path d="M0 2351V0h2351v2351H0zm1182.46-1335.24c18.75.13 30.83-10.02 35.81-29.63 1.61-6.35.62-12.11-3.35-16.93-7.55-9.16-17.08-14.81-29.49-13.6-22.85 2.23-30.66 13.85-34.64 33.58-1.26 6.27 1.34 11.78 5.59 16.39 7.02 7.63 15.98 10.4 26.08 10.19zm27.86 74.5c-.03-9.92-1.32-12.75-8.89-18.78-4.16-3.31-8.49-6.41-12.67-9.7-5.46-4.3-10.81-6.4-16.91-.82-1.58 1.44-4.28 1.66-6.47 2.43-11.63 4.1-18.72 16.37-16.46 28.48 2.29 12.31 19.86 27.33 32.36 27.3 16.93-.05 30.56-14.21 29.03-28.91z"
          fill="transparent"/>
    <path d="M1182.46 1015.76c-10.1.21-19.06-2.57-26.08-10.19-4.25-4.62-6.85-10.13-5.59-16.39 3.98-19.73 11.79-31.35 34.64-33.58 12.4-1.21 21.93 4.44 29.49 13.6 3.97 4.82 4.96 10.58 3.35 16.93-4.98 19.61-17.06 29.75-35.81 29.63zm.58-8.05c12.4-.09 23.23-11.65 23.4-24.99.11-8.57-11.71-17.08-23.36-16.83-10.6.23-21.41 12.01-21.55 23.49-.13 10.94 8.65 18.43 21.5 18.33zM1210.32 1090.25c1.52 14.7-12.1 28.86-29.03 28.91-12.5.04-30.07-14.98-32.36-27.3-2.26-12.12 4.83-24.38 16.46-28.48 2.19-.77 4.89-.99 6.47-2.43 6.09-5.57 11.44-3.48 16.91.82 4.18 3.29 8.51 6.39 12.67 9.7 7.57 6.03 8.86 8.86 8.89 18.78zm-10.33-3.75c-.49-.98-1.15-5.03-3.4-6.34-5.38-3.13-11.33-5.69-17.38-7.15-7.38-1.78-14.1 1.87-17.79 8.15-3.5 5.94-2.67 11.68 3.03 18.17 1.94 2.21 4.28 4.26 6.82 5.74 13.78 8.03 28.29-.27 28.72-18.57z"/>
    <path d="M1183.04 1007.71c-12.85.1-21.64-7.39-21.5-18.33.14-11.48 10.95-23.26 21.55-23.49 11.65-.25 23.47 8.26 23.36 16.83-.17 13.34-11 24.9-23.4 24.99zm2.3-16.73c3.91-.15 7.65-3.51 7.25-6.52-.39-2.95-5.28-5.79-9.46-5.42-3.44.3-5.43 2.08-5.22 5.7.21 3.66 3.54 6.39 7.44 6.24zM1200 1086.5c-.43 18.3-14.95 26.61-28.72 18.57-2.54-1.48-4.87-3.53-6.82-5.74-5.69-6.49-6.52-12.23-3.03-18.17 3.69-6.27 10.41-9.93 17.79-8.15 6.04 1.46 12 4.02 17.38 7.15 2.25 1.31 2.91 5.36 3.4 6.34zm-17.83-2.75c-1.65 1-4.84 1.93-5.92 3.97-.66 1.25 1.64 4.41 3.1 6.34.91 1.21 2.66 1.98 4.18 2.48 3.31 1.1 7 3.3 9.87-.45 2.05-2.68-.89-8.11-5.32-10.32-1.45-.72-3.09-1.08-5.91-2.03z"
          fill="#fff"/>
    <path d="M1185.34 990.97c-3.89.15-7.22-2.58-7.44-6.24-.21-3.62 1.78-5.39 5.22-5.7 4.19-.37 9.08 2.47 9.46 5.42.39 3.01-3.35 6.37-7.25 6.52zM1182.16 1083.75c2.82.95 4.45 1.3 5.91 2.03 4.43 2.21 7.37 7.64 5.32 10.32-2.87 3.75-6.56 1.54-9.87.45-1.52-.5-3.27-1.28-4.18-2.48-1.46-1.93-3.76-5.09-3.1-6.34 1.08-2.04 4.27-2.97 5.92-3.97z"/>
</svg>