<svg xmlns="http://www.w3.org/2000/svg" width="2351" height="2351">
    <path d="M0 2351V0h2351v2351H0zm1082.74-1336.13c-2.37-3.06-3.56-4.24-4.33-5.64-7.28-13.33-14.46-8.54-21.87-1.1-1.81 1.82-3.24 4.36-3.98 6.82-2.3 7.63-5.08 15.28-6.03 23.12-1.48 12.27-1.34 24.31 7.79 34.8 5.66 6.5 11.7 8.59 19.36 6.18 4.7-1.47 9.1-3.98 13.58-6.12 6.82-3.27 10.23-2.4 14.12 4.02 1.9 3.13 3 6.89 5.4 9.52 2.51 2.76 6.02 6.14 9.31 6.4 13.06 1.02 26.04 1.1 34.33-12.43 3.07-5.01 7.68-9.19 12.08-13.21 3.56-3.26 7.2-6.81 13.22-4.2 5.76 2.5 4.7 7.45 5.4 11.79.42 2.6-.11 5.36.31 7.97.35 2.2.9 4.81 2.34 6.32 5.89 6.17 12.89 10.53 21.74 10.94 8.37.39 14.89-4.77 16.36-12.92.35-1.96.58-3.97.62-5.95.15-9.11 6.51-12.27 13.76-14.92 7.75-2.82 15.01-3.35 21.18 3.19 3.2 3.39 6.34 6.87 9.08 10.63 6.91 9.48 17.01 9.34 27.04 9.08 2.05-.05 4.34-1.68 6.03-3.14 11.35-9.81 12.88-23.45 4.18-35.56-5.99-8.34-6.01-13.37.19-21.54 2.21-2.91 4.85-5.5 7.13-8.36 5-6.27 7.29-13.4 6.34-21.43-.92-7.84-3.99-13.79-12.42-16.21-8.4-2.4-15.61-2.2-21.59 5.23-5 6.22-10.3 12.23-15.81 18.01-2.22 2.32-5.13 4.35-8.12 5.45-2.15.79-5.34.48-7.28-.67-.99-.59-1.04-4.5-.16-6.22 3.6-7.09 1.05-12.71-4.47-16.64-6.69-4.76-14.04-8.66-21.36-12.44-7.04-3.64-13.31-1.77-19.19 3.43-8.98 7.94-18.43 15.35-27.49 23.2-9.51 8.24-23.07 7.59-30.87-2.5-4.22-5.45-9.76-9.99-15.16-14.37-6.64-5.39-14.47-5.78-21.5-1.41-5.51 3.43-10.32 8.23-14.8 13.02-4.93 5.26-9.13 11.21-14.45 17.86z"
          fill="transparent"/>
    <path d="M1082.74 1014.87c5.32-6.65 9.52-12.6 14.45-17.86 4.48-4.79 9.29-9.59 14.8-13.02 7.03-4.37 14.86-3.98 21.5 1.41 5.4 4.38 10.94 8.93 15.16 14.37 7.81 10.09 21.37 10.74 30.87 2.5 9.06-7.85 18.51-15.26 27.49-23.2 5.88-5.2 12.15-7.07 19.19-3.43 7.32 3.78 14.67 7.68 21.36 12.44 5.52 3.93 8.08 9.55 4.47 16.64-.88 1.72-.83 5.63.16 6.22 1.94 1.15 5.13 1.45 7.28.67 2.99-1.1 5.9-3.12 8.12-5.45 5.51-5.78 10.81-11.78 15.81-18.01 5.98-7.44 13.19-7.64 21.59-5.23 8.43 2.41 11.5 8.37 12.42 16.21.94 8.03-1.34 15.17-6.34 21.43-2.28 2.86-4.92 5.45-7.13 8.36-6.2 8.17-6.18 13.21-.19 21.54 8.71 12.11 7.17 25.75-4.18 35.56-1.69 1.46-3.98 3.09-6.03 3.14-10.03.27-20.12.4-27.04-9.08-2.74-3.76-5.89-7.24-9.08-10.63-6.17-6.54-13.43-6.02-21.18-3.19-7.25 2.64-13.61 5.81-13.76 14.92-.03 1.99-.26 4-.62 5.95-1.47 8.15-8 13.31-16.36 12.92-8.85-.41-15.85-4.77-21.74-10.94-1.43-1.5-1.98-4.12-2.34-6.32-.42-2.61.11-5.36-.31-7.97-.71-4.34.36-9.29-5.4-11.79-6.02-2.61-9.66.94-13.22 4.2-4.4 4.03-9.01 8.21-12.08 13.21-8.29 13.52-21.27 13.45-34.33 12.43-3.29-.26-6.79-3.64-9.31-6.4-2.4-2.63-3.5-6.39-5.4-9.52-3.89-6.42-7.3-7.29-14.12-4.02-4.48 2.15-8.87 4.65-13.58 6.12-7.67 2.4-13.7.32-19.36-6.18-9.14-10.49-9.27-22.53-7.79-34.8.94-7.84 3.73-15.49 6.03-23.12.74-2.47 2.17-5.01 3.98-6.82 7.41-7.45 14.59-12.23 21.87 1.1.77 1.41 1.96 2.58 4.33 5.64zm170.77 41.57c7.46 7.61 13.08 14.77 20.14 20.01 4.11 3.05 10.58 4.37 15.86 4.08 10.41-.56 15.47-11.92 9.95-20.82-1.39-2.23-3.44-4.05-5.09-6.13-6.96-8.74-7.44-17.07-1.2-26.54 2.74-4.15 6.07-7.9 9.05-11.9 1.78-2.39 3.8-4.71 5.03-7.38 2.83-6.14 1.37-12.07-3.27-15.15-5.24-3.48-11.08-2.34-15.71 3.34-2.94 3.6-5.22 7.79-8.38 11.17-7.85 8.39-16.22 15.9-29.13 14.38-8.27-.97-14.53-7.37-9.25-16.09.69-1.13 1.11-2.42 1.7-3.61 2.12-4.24 1.29-7.94-2.63-10.43-4.75-3-9.75-5.6-14.7-8.28-5.63-3.04-10.8-2.32-15.65 1.9-8.53 7.43-18.09 13.92-25.49 22.32-9.41 10.69-29.58 11.42-39-.16-3.33-4.09-7.51-7.56-11.57-10.98-8.97-7.55-17.72-7.43-25.39 1.41-8.04 9.27-15.26 19.27-22.49 29.21-1.9 2.61-3.22 5.17-6.89 4.12-3.58-1.02-7.14-2.29-7.53-6.83-.2-2.32.02-4.67-.23-6.98-.67-6.03-4.58-8.07-9.64-4.74-2.12 1.4-4.37 3.55-5.17 5.85-4.98 14.18-6.18 28.73-.69 42.92 4.49 11.6 12.63 13.67 23.14 7.08 2.52-1.58 4.96-3.42 7.7-4.48 12.22-4.7 16.45-2.51 20.96 9.8 1.09 2.98 2.75 6.34 5.18 8.14 7.23 5.37 20.99 4.55 27.93-1.5 3.21-2.8 5.43-6.69 8.45-9.74 3.93-3.98 7.69-8.52 12.42-11.23 10.26-5.88 20.69-1.08 23.98 10.32.82 2.84.81 5.93 1.67 8.76 1.15 3.77 2.42 7.59 4.27 11.04 2.62 4.89 7.5 7.17 12.6 6.16 5.39-1.06 9.44-4.82 10.64-10.68.33-1.62.39-3.3.42-4.96.16-9.81 4.6-16.23 14.2-19.28 4.58-1.46 8.83-3.98 13.03-5.92-.33-2.1-.45-3.07-.63-4.03-1.96-10.31 2.82-18.62 13.59-23.59 7.8-3.6 11.84-2.17 19.48 6.89 5.47 6.49 5.19 8.63-2.44 12.89-5.73 3.2-11.74 5.92-19.22 9.65z"/>
    <path d="M1253.51 1056.44c7.48-3.73 13.49-6.45 19.22-9.65 7.63-4.26 7.91-6.4 2.44-12.89-7.64-9.07-11.68-10.5-19.48-6.89-10.77 4.98-15.55 13.29-13.59 23.59.18.96.3 1.94.63 4.03-4.2 1.95-8.45 4.47-13.03 5.92-9.59 3.05-14.04 9.47-14.2 19.28-.03 1.66-.09 3.35-.42 4.96-1.2 5.86-5.26 9.62-10.64 10.68-5.1 1.01-9.98-1.27-12.6-6.16-1.85-3.46-3.13-7.27-4.27-11.04-.86-2.83-.85-5.91-1.67-8.76-3.29-11.4-13.72-16.19-23.98-10.32-4.74 2.71-8.5 7.25-12.42 11.23-3.01 3.06-5.24 6.95-8.45 9.74-6.94 6.05-20.7 6.88-27.93 1.5-2.43-1.8-4.08-5.16-5.18-8.14-4.51-12.31-8.75-14.5-20.96-9.8-2.74 1.05-5.18 2.9-7.7 4.48-10.5 6.59-18.65 4.53-23.14-7.08-5.49-14.2-4.29-28.75.69-42.92.81-2.3 3.05-4.45 5.17-5.85 5.06-3.33 8.96-1.3 9.64 4.74.26 2.31.04 4.66.23 6.98.39 4.54 3.94 5.81 7.53 6.83 3.67 1.05 5-1.51 6.89-4.12 7.23-9.93 14.45-19.94 22.49-29.21 7.67-8.83 16.41-8.96 25.39-1.41 4.07 3.42 8.24 6.89 11.57 10.98 9.43 11.58 29.59 10.85 39 .16 7.4-8.4 16.96-14.89 25.49-22.32 4.84-4.22 10.02-4.94 15.65-1.9 4.95 2.67 9.95 5.27 14.7 8.28 3.93 2.49 4.75 6.19 2.63 10.43-.59 1.19-1.02 2.48-1.7 3.61-5.28 8.71.98 15.11 9.25 16.09 12.91 1.52 21.29-5.99 29.13-14.38 3.16-3.38 5.44-7.56 8.38-11.17 4.64-5.68 10.47-6.81 15.71-3.34 4.64 3.07 6.1 9.01 3.27 15.15-1.23 2.67-3.25 4.99-5.03 7.38-2.98 3.99-6.31 7.75-9.05 11.9-6.24 9.47-5.76 17.8 1.2 26.54 1.65 2.08 3.7 3.89 5.09 6.13 5.53 8.9.47 20.26-9.95 20.82-5.28.28-11.75-1.03-15.86-4.08-7.05-5.24-12.68-12.4-20.14-20.01zm-46.18 1.21c5.88-.48 10.14-3.42 12.85-9.1 2.1-4.39 4.78-8.53 7.4-12.65 1.99-3.13 2.35-6.11.18-9.22-2.16-3.11-5.22-4.07-8.72-3.15-4.45 1.17-9.23 1.95-13.11 4.21-4.13 2.41-7.78 6-10.9 9.7-3.36 3.97-2.53 8.67-.1 13.03 2.65 4.74 6.62 7.26 12.39 7.18zm-81.38 5.89c1.48-.72 4.96-1.52 7.17-3.65 5.89-5.66 9.56-12.74 10.36-21 .71-7.34-4.3-12.1-11.68-10.75-3.12.57-6.57 2.02-8.8 4.17-5.67 5.48-8.58 12.65-9.15 20.46-.48 6.44 3.94 10.68 12.1 10.75z"
          fill="#fff"/>
    <path d="M1207.33 1057.65c-5.77.08-9.75-2.43-12.39-7.18-2.44-4.37-3.26-9.06.1-13.03 3.13-3.7 6.77-7.29 10.9-9.7 3.88-2.26 8.66-3.04 13.11-4.21 3.5-.92 6.56.05 8.72 3.15 2.16 3.11 1.81 6.09-.18 9.22-2.62 4.12-5.3 8.26-7.4 12.65-2.71 5.68-6.97 8.61-12.85 9.1zM1125.95 1063.53c-8.16-.07-12.58-4.31-12.1-10.75.58-7.82 3.48-14.98 9.15-20.46 2.23-2.16 5.69-3.6 8.8-4.17 7.38-1.36 12.38 3.41 11.68 10.75-.8 8.26-4.47 15.34-10.36 21-2.21 2.13-5.7 2.93-7.17 3.65z"/>
</svg>