<svg xmlns="http://www.w3.org/2000/svg" width="2351" height="2351">
    <path d="M2351 2351H0V0h2351v2351zM1146.27 697.86c.62-.18 1.24-.36 1.86-.55-.87-6.24-1.32-12.58-2.7-18.71-1.98-8.74-4.15-17.49-7.1-25.94-9.99-28.67-27.12-53.2-45.38-77.07-13.08-17.1-30.05-27.87-50.9-32.91-16.17-3.91-31.59-3.98-45.7 6.57-3.97 2.97-8.79 4.8-12.81 7.72-6.71 4.86-14.51 9.12-19.31 15.53-9.67 12.94-18.14 26.87-26.07 40.97-3.51 6.23-4.19 13.99-6.73 20.84-2.21 5.96-2.04 11.5-.02 17.46 4.2 12.44 2.99 23.95-5.63 34.68-8.7 10.83-8.34 21.65-1.26 33.27 9.68 15.9 25.53 22.76 41.57 29.4 1.9.79 4.64.32 6.76-.33 20.2-6.18 33.32-27.26 30.49-48.26-.72-5.31-2.86-9.32-7.13-12.55-7.83-5.91-16.25-10.17-26.03-11.95-10.64-1.93-12.46-4.69-12.56-15.47-.09-9.45 1.25-18.55 5.07-27.25 4.55-10.35 8.89-20.8 13.48-31.13 7.69-17.3 21.11-28.89 37.89-36.7 16.97-7.9 32.41-4.85 45.59 8.61 4.88 4.98 9.44 10.3 13.89 15.68 14.8 17.91 24.9 38.59 33.62 59.84 4.63 11.28 7.87 23.29 10.37 35.25 3.67 17.55 6.68 35.28 8.88 53.07 1.54 12.44 2.21 25.15 1.57 37.65-.64 12.4-1.14 24.51 2.23 36.61 3.24 11.65 3.96 23.51 2.24 35.57-1.07 7.54-2.95 15.4-1.87 22.73 2.35 16.01 1.8 31.84.12 47.74-1.09 10.35 3.83 18.24 13.73 21.27 9.36 2.87 14.88-.98 15.21-10.91.78-23.59 1.55-47.19 2.08-70.79.41-18.21.1-36.27-2.3-54.52-2.98-22.66-2.77-45.74-3.68-68.65-.31-7.72-.98-15.17-4.38-22.31-2.19-4.59-3.42-9.64-5.09-14.48zm303.88-85.72c0 3.33.21 6.67-.04 9.98-1.31 17.45 7.9 28.58 22.6 35.27 13.97 6.36 31.09 9.11 43.39-10.92 1.39-2.27 3.07-4.35 4.52-6.59 8.89-13.69 4.17-30.7-10.82-37.42-5.07-2.27-10.73-3.47-16.25-4.43-10.8-1.87-17.51-7.56-20.1-18.06-2.07-8.39-4.54-16.73-5.89-25.24-4.18-26.3-18.97-44.84-41.26-58.24-14.03-8.44-29.29-10.32-45.23-9.07-13.41 1.05-25.2 5.59-34.62 15.56-2.28 2.41-5.06 4.33-7.54 6.55-8 7.16-15.05 15.13-19.8 24.84-14.35 29.33-28.42 58.77-34.04 91.38-.67 3.91-2.16 7.68-3.34 11.49-4.51 14.61-10.77 28.94-13.24 43.88-5.7 34.43-10.24 69.1-13.95 103.81-2.79 26.09-3.62 52.4-5.21 78.62-.56 9.29-1.24 18.6-1.08 27.89.27 15.95 1.13 31.89 1.83 47.84.1 2.3.37 4.69 1.12 6.83 1.76 5.02 7.05 8.12 12.66 7.79 4.76-.28 7.76-3.09 8.86-9.15.71-3.91.52-7.97 1-11.93 1.12-9.17 2.61-18.31 3.51-27.5.42-4.23.75-8.87-.51-12.8-3.16-9.86-3.24-19.56-1.09-29.52.91-4.21 1.59-8.52 1.93-12.81 1.57-19.88 2.7-39.79 4.52-59.64 2.36-25.81 5.2-51.58 7.87-77.37 1.7-16.35 5.17-32.17 13.6-46.59 1.49-2.55 2.52-5.45 3.29-8.31 5.69-21.2 11.05-42.49 16.98-63.62 2.77-9.89 5.02-20.44 10.26-29 9.71-15.84 20.52-31.24 32.59-45.34 16.39-19.15 48.05-23.84 63.37 7.22 13.04 26.44 21.63 54.45 20.1 84.58zm-206.62-163.39c-10.06 2.38-17.45 7.43-24.82 12.46-8.8 6-17.19 12.67-26.32 18.09-6.28 3.73-10.98 8.4-14.69 14.49-4.91 8.04-4.51 9.97 3.93 14.82 4.33 2.49 8.94 4.53 13.06 7.31 5.03 3.4 5.42 7.22 1.58 11.76-1.71 2.01-3.86 3.67-5.88 5.4-9.36 8.01-19.03 15.68-28.03 24.08-7.02 6.56-13.28 13.97-19.74 21.11-3.66 4.05-2.45 8.08 1.05 11.44 1.88 1.8 4.26 3.16 6.6 4.38 8.56 4.47 17.4 8.43 25.74 13.28 9.46 5.5 18.94 11.16 27.57 17.83 7.92 6.12 8.52 13.92 2.67 22.02-4.86 6.73-9.89 13.5-15.8 19.26-11.51 11.23-19.15 24.63-24.58 39.51-4.23 11.6-3.01 15.04 7.7 21.11 8.98 5.08 18.21 9.71 27.14 14.89 8.1 4.7 9.91 9.99 6.06 18.36-2.21 4.79-5.69 8.98-8.29 13.6-7.66 13.6-15.36 27.18-22.67 40.97-3.58 6.75-1.55 12.94 3.81 18.1 1.44 1.38 3.04 2.59 4.53 3.93 20.15 18.17 29.65 40.38 26.22 67.77-.78 6.23-.4 12.64-.14 18.96.18 4.27.4 9.28 6.29 9.69 5.56.39 7.14-3.74 8.02-8.33 1.56-8.17 3.95-16.26 4.68-24.49.76-8.51 1.31-17.43-.39-25.69-4.05-19.72-11.15-38.44-24.87-53.78-3.19-3.56-3.7-6.87-2.12-10.85 2.33-5.87 4.72-11.73 7.34-17.47 5.95-13.02 12.26-25.88 18.03-38.98 6.02-13.68 4.84-17.32-7.84-25.54-5.85-3.8-12-7.17-18.14-10.49-12.62-6.83-14.72-13.58-6.84-25.76 5.78-8.93 12.53-17.22 18.65-25.94 4.57-6.52 9.19-13.07 13.12-19.98 5.97-10.47 4.41-20.67-3.26-29.64-3.85-4.5-8.29-8.73-13.14-12.1-8.73-6.08-18.03-11.34-27-17.1-11.12-7.14-11.54-11.12-2.17-19.83 3.17-2.94 6.76-5.44 9.86-8.44 10.02-9.73 20.39-19.17 29.71-29.54 8.42-9.37 7.1-19.67-2.25-28.14-2.44-2.21-5.13-4.15-8.53-6.88 2.79-3.98 5.03-8.05 8.1-11.34 5.22-5.59 10.79-10.89 16.53-15.95 5.24-4.61 8.56-10.01 9.51-18.36z"
          fill="transparent"/>
    <path d="M1146.27 697.86c1.66 4.84 2.9 9.88 5.09 14.48 3.4 7.14 4.07 14.59 4.38 22.31.91 22.91.7 46 3.68 68.65 2.4 18.26 2.71 36.31 2.3 54.52-.53 23.6-1.3 47.2-2.08 70.79-.33 9.93-5.85 13.78-15.21 10.91-9.89-3.03-14.82-10.92-13.73-21.27 1.67-15.9 2.22-31.73-.12-47.74-1.07-7.34.8-15.19 1.87-22.73 1.72-12.06 1-23.92-2.24-35.57-3.37-12.1-2.87-24.22-2.23-36.61.65-12.5-.02-25.21-1.57-37.65-2.21-17.79-5.22-35.52-8.88-53.07-2.5-11.96-5.74-23.97-10.37-35.25-8.72-21.25-18.83-41.93-33.62-59.84-4.45-5.38-9.01-10.7-13.89-15.68-13.19-13.46-28.63-16.52-45.59-8.61-16.78 7.81-30.2 19.41-37.89 36.7-4.59 10.33-8.93 20.78-13.48 31.13-3.82 8.7-5.16 17.8-5.07 27.25.11 10.79 1.92 13.55 12.56 15.47 9.78 1.77 18.21 6.03 26.03 11.95 4.27 3.23 6.42 7.24 7.13 12.55 2.83 21.01-10.29 42.09-30.49 48.26-2.12.65-4.86 1.12-6.76.33-16.04-6.64-31.89-13.5-41.57-29.4-7.08-11.63-7.45-22.44 1.26-33.27 8.62-10.73 9.84-22.24 5.63-34.68-2.01-5.96-2.19-11.5.02-17.46 2.54-6.85 3.22-14.61 6.73-20.84 7.93-14.1 16.4-28.03 26.07-40.97 4.8-6.41 12.6-10.67 19.31-15.53 4.02-2.92 8.84-4.75 12.81-7.72 14.11-10.55 29.54-10.48 45.7-6.57 20.85 5.04 37.82 15.81 50.9 32.91 18.26 23.87 35.38 48.4 45.38 77.07 2.94 8.45 5.12 17.2 7.1 25.94 1.39 6.13 1.83 12.47 2.7 18.71-.62.18-1.24.36-1.86.55zM1450.15 612.15c1.53-30.13-7.06-58.13-20.1-84.58-15.32-31.06-46.99-26.37-63.37-7.22-12.07 14.11-22.88 29.51-32.59 45.34-5.25 8.56-7.49 19.11-10.26 29-5.93 21.13-11.29 42.42-16.98 63.62-.77 2.86-1.8 5.77-3.29 8.31-8.43 14.41-11.9 30.24-13.6 46.59-2.67 25.78-5.51 51.55-7.87 77.37-1.82 19.85-2.95 39.77-4.52 59.64-.34 4.3-1.02 8.6-1.93 12.81-2.15 9.96-2.08 19.66 1.09 29.52 1.26 3.93.93 8.56.51 12.8-.9 9.19-2.39 18.33-3.51 27.5-.48 3.96-.29 8.02-1 11.93-1.1 6.06-4.1 8.87-8.86 9.15-5.61.32-10.9-2.77-12.66-7.79-.75-2.15-1.02-4.54-1.12-6.83-.7-15.94-1.56-31.89-1.83-47.84-.16-9.29.52-18.6 1.08-27.89 1.59-26.22 2.42-52.52 5.21-78.62 3.71-34.71 8.25-69.37 13.95-103.81 2.47-14.95 8.73-29.27 13.24-43.88 1.18-3.81 2.67-7.59 3.34-11.49 5.61-32.61 19.68-62.05 34.04-91.38 4.75-9.71 11.8-17.68 19.8-24.84 2.48-2.22 5.26-4.14 7.54-6.55 9.43-9.97 21.21-14.52 34.62-15.56 15.94-1.25 31.2.64 45.23 9.07 22.29 13.4 37.07 31.93 41.26 58.24 1.35 8.51 3.82 16.85 5.89 25.24 2.59 10.5 9.31 16.2 20.1 18.06 5.52.96 11.18 2.15 16.25 4.43 14.99 6.71 19.7 23.73 10.82 37.42-1.45 2.23-3.13 4.32-4.52 6.59-12.3 20.02-29.42 17.28-43.39 10.92-14.7-6.69-23.91-17.82-22.6-35.27.25-3.31.04-6.65.04-9.98zM1243.52 448.76c-.95 8.35-4.27 13.75-9.51 18.36-5.74 5.06-11.31 10.35-16.53 15.95-3.07 3.29-5.31 7.36-8.1 11.34 3.4 2.73 6.09 4.66 8.53 6.88 9.35 8.48 10.67 18.77 2.25 28.14-9.32 10.37-19.68 19.81-29.71 29.54-3.1 3.01-6.69 5.5-9.86 8.44-9.37 8.71-8.95 12.69 2.17 19.83 8.96 5.76 18.26 11.02 27 17.1 4.85 3.38 9.29 7.6 13.14 12.1 7.67 8.97 9.22 19.17 3.26 29.64-3.94 6.91-8.55 13.46-13.12 19.98-6.11 8.72-12.87 17.01-18.65 25.94-7.88 12.18-5.77 18.93 6.84 25.76 6.14 3.33 12.29 6.7 18.14 10.49 12.67 8.22 13.86 11.86 7.84 25.54-5.76 13.1-12.08 25.96-18.03 38.98-2.62 5.75-5.02 11.6-7.34 17.47-1.58 3.98-1.06 7.29 2.12 10.85 13.72 15.33 20.82 34.05 24.87 53.78 1.7 8.26 1.16 17.18.39 25.69-.74 8.24-3.12 16.32-4.68 24.49-.88 4.59-2.46 8.73-8.02 8.33-5.89-.42-6.11-5.42-6.29-9.69-.27-6.31-.64-12.72.14-18.96 3.43-27.39-6.06-49.6-26.22-67.77-1.48-1.34-3.09-2.54-4.53-3.93-5.36-5.16-7.39-11.35-3.81-18.1 7.31-13.79 15.01-27.37 22.67-40.97 2.61-4.63 6.09-8.81 8.29-13.6 3.86-8.38 2.05-13.67-6.06-18.36-8.92-5.17-18.16-9.8-27.14-14.89-10.71-6.07-11.93-9.51-7.7-21.11 5.43-14.87 13.07-28.27 24.58-39.51 5.91-5.77 10.94-12.54 15.8-19.26 5.85-8.1 5.26-15.9-2.67-22.02-8.64-6.67-18.11-12.33-27.57-17.83-8.33-4.84-17.18-8.81-25.74-13.28-2.33-1.22-4.72-2.58-6.6-4.38-3.5-3.37-4.71-7.39-1.05-11.44 6.46-7.15 12.72-14.55 19.74-21.11 8.99-8.4 18.67-16.07 28.03-24.08 2.02-1.73 4.17-3.38 5.88-5.4 3.84-4.54 3.45-8.36-1.58-11.76-4.12-2.78-8.73-4.82-13.06-7.31-8.45-4.85-8.84-6.78-3.93-14.82 3.72-6.09 8.41-10.76 14.69-14.49 9.13-5.42 17.52-12.09 26.32-18.09 7.37-5.02 14.76-10.07 24.82-12.46z"/>
</svg>