<svg xmlns="http://www.w3.org/2000/svg" width="2351" height="2351">
    <path d="M0 2351V0h2351v2351H0zM1339.39 824.29c.08-1.08-.08-2.47.3-3.69 10.25-32.95 17.99-66.78 35.15-97.27 5.13-9.12 7.05-19.15 5.86-29.85-.4-3.57.88-7.89 2.76-11.05 4.37-7.32 6.81-15.08 7.84-23.44 1.46-11.92 3.02-23.81 10.84-33.72.99-1.25 1.46-2.98 1.89-4.57 4.59-16.98 9.65-33.87 13.55-51.01 5.1-22.41 10.01-44.79 21.52-65.05 1.14-2 1.7-4.32 2.49-6.51 7.62-20.92 15.26-41.84 22.86-62.78 5.89-16.23 12.3-32.31 17.41-48.78 4.35-14.01-.21-25.79-11.08-33.46-10.7-7.55-18.98-5.47-25.51 5.93-7.27 12.69-14.82 25.22-22.38 37.74-7.91 13.1-15.86 26.17-24.01 39.12-3.71 5.88-7.56 11.76-12.05 17.04-6.57 7.72-11.56 16.17-15 25.69-1.79 4.96-3.53 10.28-6.69 14.35-19.2 24.69-38.82 49.06-58.25 73.56-3.91 4.94-7.85 9.87-11.44 15.04-5.88 8.46-11.32 17.22-17.25 25.64-8.23 11.68-16.67 23.22-25.17 34.71-2.55 3.44-5.47 6.62-8.42 9.74-4.8 5.05-10.07 9.69-14.59 14.97-10.59 12.4-20.95 24.99-31.21 37.67-5.65 6.98-10.82 14.33-16.35 21.4-4.29 5.49-8.55 11.04-13.3 16.11-4.99 5.33-9.67 6.04-16.18 2.84-4.77-2.34-9.22-5.32-13.88-7.89-37.24-20.59-74.21-41.7-111.84-61.55-26.1-13.76-53.67-24.63-80.47-37.01-35.25-16.28-71.95-29.45-108.2-43.49-44.94-17.4-90.08-34.27-135.08-51.51-6.99-2.68-14.14-4.56-21.42-3.17-3.5.67-7.51 3.27-9.47 6.21-2.37 3.56 1.25 6.65 3.78 9.32 21.07 22.22 42.15 44.45 63.21 66.68 12.59 13.29 26.34 25.69 37.53 40.08 24.01 30.87 49.7 59.61 81.11 83.46 32.33 24.55 63.03 51.26 94.4 77.06 4.62 3.8 9.25 7.64 13.5 11.84 1.43 1.41 2.71 4.29 2.22 5.95-.42 1.44-3.34 2.7-5.33 3.05-11.39 1.99-22.61.26-33.54-2.79-20.16-5.64-40.28-11.43-60.24-17.71-46.56-14.64-91.67-31.89-128.29-66.22-15.58-14.6-34.07-25.44-54.26-33.02-13.69-5.14-27.55-9.94-40.82-16.02-16.07-7.37-31.04-4.55-46.01 2.49-5.26 2.47-7.62 6.95-5.48 12.24 1.95 4.84 4.42 9.93 8.03 13.55 18.79 18.85 37.31 38.07 57.31 55.57 16.48 14.42 35.16 26.28 52.37 39.9 19.76 15.65 41.67 27.19 64.72 37.04 16.16 6.91 32.28 14.07 47.83 22.24 23.83 12.51 47.18 25.95 70.7 39.06 6.67 3.72 13.1 7.9 19.84 11.48 34.92 18.57 69.85 37.15 104.95 55.37 4.84 2.51 10.65 3.42 16.13 4.37 3.88.67 7.98-.02 11.97.21 47.03 2.68 93.88-.13 140.66-4.64 48.54-4.68 97.03-5.84 145.55.38 4.53.58 8.11 1.38 10.98 5.32 4.69 6.45 11.56 8.78 19.33 8.18 23.98-1.85 43.58-11.25 56-32.86 2.32-4.04 4.52-8.2 7.33-11.88 3-3.93 5.99-8.72 10.15-10.72 7.85-3.77 12.08-10.02 16-17.08 1.93-3.48 3.96-7.09 6.7-9.89 10.64-10.87 19.78-22.86 29.06-34.9 6.68-8.66 13.51-17.14 19.37-26.41 2.66-4.21 5.54-8.31 8.63-12.22 13.18-16.72 26.37-33.43 39.77-49.97 6.06-7.48 11.81-15.53 19.13-21.61 14.51-12.04 27.09-25.53 37.46-41.22 4.84-7.32 11.06-13.04 19.12-17.07 3.93-1.96 7.92-5.47 9.9-9.3 3.96-7.67 9.52-13.49 16.14-18.69 19.38-15.22 38.87-30.31 57.89-45.97 7.38-6.08 14.69-12.8 20.06-20.59 5.89-8.53 12.9-14.71 21.68-19.95 6.08-3.63 11.59-8.97 15.85-14.68 5.81-7.78 4.24-18.06-2.3-25.71-6.22-7.27-11.5-8.49-22.23-2.98-10 5.13-19.57 11.19-28.91 17.48-7.2 4.85-14 9.84-22.86 11.65-7.68 1.57-14.59 5.73-18.27 12.85-4.27 8.26-11.17 12.72-18.92 16.9-20.49 11.05-40.81 22.4-61.09 33.82-10.48 5.9-20.03 13.01-28.2 22.03-3.5 3.87-7.85 7.4-12.5 9.75-17.05 8.62-32.06 20.16-47.3 31.45-12.29 9.1-24.57 18.34-37.64 26.19-11.86 7.12-25.28 11.69-34.7 22.59-1.25 1.45-3.3 2.21-4.96 3.32-5.79 3.9-11.45 8-17.38 11.67-5.36 3.31-10.72 6.93-16.57 9.05-19.22 6.99-37.39 15.71-52.95 29.24-3.09 2.69-5.89 2.61-8.8-.73z"
          fill="transparent"/>
    <path d="M1339.39 824.29c2.91 3.34 5.71 3.41 8.8.73 15.56-13.53 33.73-22.25 52.95-29.24 5.85-2.13 11.22-5.74 16.57-9.05 5.93-3.67 11.59-7.77 17.38-11.67 1.66-1.12 3.71-1.87 4.96-3.32 9.43-10.91 22.84-15.47 34.7-22.59 13.08-7.85 25.36-17.1 37.64-26.19 15.25-11.29 30.25-22.83 47.3-31.45 4.64-2.35 8.99-5.87 12.5-9.75 8.16-9.03 17.71-16.13 28.2-22.03 20.28-11.42 40.61-22.77 61.09-33.82 7.75-4.18 14.65-8.64 18.92-16.9 3.68-7.11 10.59-11.28 18.27-12.85 8.86-1.81 15.66-6.8 22.86-11.65 9.33-6.28 18.91-12.34 28.91-17.48 10.73-5.51 16.01-4.29 22.23 2.98 6.54 7.64 8.1 17.92 2.3 25.71-4.26 5.7-9.77 11.05-15.85 14.68-8.78 5.24-15.79 11.41-21.68 19.95-5.37 7.79-12.68 14.52-20.06 20.59-19.02 15.66-38.51 30.75-57.89 45.97-6.62 5.2-12.18 11.02-16.14 18.69-1.98 3.83-5.97 7.34-9.9 9.3-8.06 4.02-14.28 9.74-19.12 17.07-10.37 15.69-22.95 29.18-37.46 41.22-7.32 6.07-13.07 14.13-19.13 21.61-13.4 16.54-26.59 33.25-39.77 49.97-3.08 3.91-5.97 8.01-8.63 12.22-5.85 9.27-12.69 17.75-19.37 26.41-9.28 12.03-18.42 24.02-29.06 34.9-2.75 2.8-4.77 6.42-6.7 9.89-3.92 7.06-8.15 13.31-16 17.08-4.16 2-7.16 6.79-10.15 10.72-2.81 3.68-5.01 7.84-7.33 11.88-12.42 21.62-32.02 31.01-56 32.86-7.77.6-14.64-1.74-19.33-8.18-2.87-3.95-6.45-4.74-10.98-5.32-48.52-6.22-97.01-5.06-145.55-.38-46.78 4.51-93.63 7.32-140.66 4.64-3.98-.23-8.08.47-11.97-.21-5.48-.95-11.28-1.86-16.13-4.37-35.11-18.22-70.03-36.79-104.95-55.37-6.74-3.59-13.17-7.76-19.84-11.48-23.52-13.11-46.86-26.55-70.7-39.06-15.55-8.16-31.67-15.33-47.83-22.24-23.04-9.85-44.96-21.39-64.72-37.04-17.21-13.63-35.89-25.48-52.37-39.9-20-17.51-38.52-36.73-57.31-55.57-3.61-3.62-6.08-8.71-8.03-13.55-2.14-5.29.22-9.76 5.48-12.24 14.97-7.04 29.94-9.86 46.01-2.49 13.27 6.08 27.13 10.88 40.82 16.02 20.2 7.58 38.68 18.42 54.26 33.02 36.62 34.33 81.73 51.58 128.29 66.22 19.97 6.28 40.09 12.07 60.24 17.71 10.93 3.06 22.15 4.78 33.54 2.79 1.99-.35 4.91-1.61 5.33-3.05.49-1.67-.79-4.54-2.22-5.95-4.25-4.2-8.88-8.04-13.5-11.84-31.38-25.8-62.07-52.51-94.4-77.06-31.41-23.85-57.1-52.59-81.11-83.46-11.19-14.39-24.93-26.79-37.53-40.08-21.07-22.23-42.14-44.46-63.21-66.68-2.53-2.67-6.15-5.77-3.78-9.32 1.96-2.94 5.97-5.54 9.47-6.21 7.27-1.39 14.43.49 21.42 3.17 45 17.23 90.14 34.11 135.08 51.51 36.26 14.04 72.95 27.21 108.2 43.49 26.8 12.38 54.37 23.24 80.47 37.01 37.63 19.84 74.6 40.95 111.84 61.55 4.66 2.58 9.11 5.55 13.88 7.89 6.51 3.2 11.18 2.49 16.18-2.84 4.75-5.07 9.01-10.63 13.3-16.11 5.53-7.07 10.71-14.43 16.35-21.4 10.26-12.67 20.62-25.27 31.21-37.67 4.52-5.29 9.79-9.92 14.59-14.97 2.95-3.11 5.88-6.29 8.42-9.74 8.5-11.49 16.94-23.02 25.17-34.71 5.93-8.42 11.37-17.18 17.25-25.64 3.59-5.17 7.53-10.1 11.44-15.04 19.44-24.51 39.06-48.87 58.25-73.56 3.16-4.07 4.9-9.39 6.69-14.35 3.44-9.52 8.43-17.96 15-25.69 4.49-5.28 8.35-11.15 12.05-17.04 8.16-12.94 16.11-26.02 24.01-39.12 7.56-12.52 15.12-25.05 22.38-37.74 6.53-11.4 14.82-13.48 25.51-5.93 10.87 7.67 15.43 19.45 11.08 33.46-5.11 16.47-11.52 32.55-17.41 48.78-7.6 20.93-15.23 41.85-22.86 62.78-.8 2.19-1.36 4.51-2.49 6.51-11.51 20.26-16.42 42.64-21.52 65.05-3.9 17.14-8.95 34.02-13.55 51.01-.43 1.59-.91 3.32-1.89 4.57-7.82 9.91-9.38 21.8-10.84 33.72-1.02 8.36-3.47 16.11-7.84 23.44-1.88 3.16-3.16 7.48-2.76 11.05 1.2 10.7-.72 20.73-5.86 29.85-17.16 30.49-24.9 64.32-35.15 97.27-.38 1.22-.22 2.61-.3 3.69zm41.33-280.15c-6.21 1.23-9.71 4.85-12.95 9.36-10.12 14.03-20.36 27.99-30.94 41.68-13.02 16.86-26.4 33.43-39.65 50.11-27.74 34.91-55.11 70.13-83.45 104.54-8.99 10.92-17.27 20.69-14.16 36.22 1.36 6.8-2.19 9.53-9.37 9.66-2.64.05-5.35-.21-7.93-.77-16.87-3.61-30.66-12.63-42.18-25.1-7.54-8.16-15.98-15-25.64-20.39-31.68-17.66-63.15-35.72-95.13-52.82-32.85-17.57-66.13-34.34-101.45-46.66-10.03-3.5-20.04-7.34-29.45-12.21-40.7-21.06-84.13-34.72-127.7-48.07-2.99-.92-6.26-3.16-9 .69-2.91 4.08.38 6.72 2.17 9.71.34.57.8 1.07 1.25 1.56 11.02 12.02 22.33 23.78 32.98 36.13 8.87 10.29 16.9 21.31 25.42 31.92 3.3 4.11 6.76 8.11 10.43 11.89 3.01 3.09 6.92 5.38 9.61 8.69 13.51 16.58 29.73 29.94 46.64 42.98 23.94 18.47 45.92 39.47 69.58 58.34 16.16 12.89 32.29 25.71 46.62 40.62 12.74 13.26 27.43 22.57 45.45 27.51 9.02 2.47 17.24 8.3 25.33 13.4 2.12 1.34 3.52 5.78 3.18 8.54-.44 3.5-4.03 5.02-7.76 4.69-8.25-.74-16.56-1.1-24.72-2.42-15.41-2.51-30.66-6.05-46.1-8.33-26.38-3.9-52.53-8.58-77.73-17.58-28.81-10.29-57.63-20.57-86.43-30.9-29.32-10.53-56.43-24.87-81.1-44.21-20.94-16.42-42.67-32.07-66.92-43.38-11.36-5.3-23.6-8.81-35.63-12.53-2.19-.68-6.06.8-7.67 2.6-1.06 1.19-.22 5.27 1.08 7.15 4.88 7.1 9.31 14.97 15.68 20.5 24.37 21.14 49.31 41.61 74.27 62.06 15.8 12.94 33.81 22.19 52.29 30.84 41.57 19.46 83.35 38.54 122.89 62.05 9.7 5.77 20.06 10.4 30.06 15.68 17.35 9.16 34.65 18.4 51.96 27.62 7.03 3.74 13.96 7.7 21.11 11.2 9.86 4.82 19.77 9.56 29.88 13.81 4.12 1.73 8.83 2.94 13.26 2.89 17.63-.19 35.27-.69 52.88-1.59 27.57-1.41 55.15-2.85 82.66-4.98 26.51-2.06 52.83-5.54 79.61-3.99 24.6 1.42 49.65.95 73.26 7.61 15.17 4.28 23.78-2.44 33.69-9.96 2.11-1.6 3.94-3.59 5.79-5.5 30.19-31.08 58.67-63.59 83.04-99.52 25.62-37.76 51.92-74.99 83.72-107.95 4.65-4.82 9.13-9.79 13.7-14.69-2.76-.8-4.73-.63-6.27.27-8.91 5.17-17.67 10.59-26.57 15.77-25.61 14.92-51.32 29.67-73.87 49.19-1.5 1.29-3.26 2.33-5.01 3.27-34.56 18.63-69.09 37.29-103.74 55.75-5.55 2.96-11.48 5.38-17.47 7.29-10.76 3.42-20.32 1.11-28.25-7.26-7.76-8.19-11.74-16.05-7.19-28.52 18.01-49.36 34.75-99.19 51.9-148.87 3.58-10.36 7.24-20.71 10.32-31.23 3.54-12.08 5.76-24.58 9.81-36.47 8.58-25.16 18.12-50 19.92-77.88z"
          fill="#050503"/>
    <path d="M1380.72 544.14c-1.8 27.88-11.34 52.72-19.92 77.88-4.05 11.89-6.28 24.39-9.81 36.47-3.08 10.52-6.74 20.87-10.32 31.23-17.16 49.67-33.89 99.5-51.9 148.87-4.55 12.47-.56 20.34 7.19 28.52 7.93 8.37 17.49 10.68 28.25 7.26 6-1.91 11.92-4.33 17.47-7.29 34.65-18.46 69.18-37.12 103.74-55.75 1.75-.94 3.51-1.98 5.01-3.27 22.55-19.52 48.26-34.27 73.87-49.19 8.9-5.18 17.66-10.61 26.57-15.77 1.55-.9 3.51-1.07 6.27-.27-4.56 4.9-9.05 9.87-13.7 14.69-31.8 32.97-58.1 70.19-83.72 107.95-24.38 35.93-52.86 68.44-83.04 99.52-1.85 1.91-3.68 3.9-5.79 5.5-9.91 7.52-18.52 14.24-33.69 9.96-23.61-6.66-48.66-6.19-73.26-7.61-26.78-1.55-53.1 1.93-79.61 3.99-27.52 2.13-55.1 3.58-82.66 4.98-17.61.9-35.25 1.4-52.88 1.59-4.43.05-9.14-1.16-13.26-2.89-10.11-4.25-20.03-8.98-29.88-13.81-7.15-3.5-14.07-7.46-21.11-11.2-17.32-9.22-34.62-18.46-51.96-27.62-10-5.28-20.36-9.92-30.06-15.68-39.55-23.51-81.32-42.59-122.89-62.05-18.47-8.65-36.48-17.9-52.29-30.84-24.96-20.44-49.9-40.92-74.27-62.06-6.38-5.53-10.8-13.4-15.68-20.5-1.3-1.89-2.14-5.97-1.08-7.15 1.61-1.81 5.48-3.28 7.67-2.6 12.03 3.73 24.26 7.24 35.63 12.53 24.26 11.31 45.98 26.97 66.92 43.38 24.68 19.34 51.78 33.69 81.1 44.21 28.8 10.34 57.62 20.61 86.43 30.9 25.2 9 51.36 13.68 77.73 17.58 15.44 2.28 30.69 5.82 46.1 8.33 8.15 1.33 16.47 1.69 24.72 2.42 3.73.33 7.32-1.19 7.76-4.69.34-2.76-1.06-7.21-3.18-8.54-8.08-5.1-16.31-10.93-25.33-13.4-18.02-4.93-32.71-14.25-45.45-27.51-14.33-14.91-30.45-27.73-46.62-40.62-23.66-18.86-45.63-39.87-69.58-58.34-16.91-13.05-33.13-26.4-46.64-42.98-2.7-3.31-6.6-5.6-9.61-8.69-3.67-3.77-7.13-7.78-10.43-11.89-8.52-10.61-16.54-21.63-25.42-31.92-10.64-12.34-21.96-24.11-32.98-36.13-.45-.49-.91-.99-1.25-1.56-1.79-2.99-5.08-5.63-2.17-9.71 2.75-3.85 6.01-1.61 9-.69 43.57 13.35 87 27.01 127.7 48.07 9.41 4.87 19.43 8.72 29.45 12.21 35.32 12.32 68.6 29.09 101.45 46.66 31.98 17.1 63.45 35.16 95.13 52.82 9.66 5.39 18.09 12.22 25.64 20.39 11.52 12.46 25.31 21.49 42.18 25.1 2.58.55 5.29.81 7.93.77 7.18-.13 10.73-2.85 9.37-9.66-3.11-15.52 5.16-25.3 14.16-36.22 28.34-34.41 55.71-69.63 83.45-104.54 13.25-16.68 26.63-33.25 39.65-50.11 10.57-13.69 20.82-27.65 30.94-41.68 3.25-4.5 6.75-8.13 12.95-9.36z"
          fill="#ecfb00"/>
</svg>