<svg xmlns="http://www.w3.org/2000/svg" width="2351" height="2351">
    <path d="M2351 2351H0V0h2351v2351zM976.03 686.06c5.85 2.3 11.29 3.29 15.25 6.26 7.66 5.73 15.86 9.62 25.11 11.65 8.78 1.92 17.57 3.81 26.29 5.96 13.5 3.33 25.53 9.25 35.27 19.61 14.59 15.51 29.41 30.81 44.31 46.03 16.97 17.33 26.31 39.13 34.99 61.04 3.88 9.79 7.83 18.92 15.31 26.42 9.9 9.93 15.81 21.91 19.02 35.61 3.64 15.54 8.09 30.9 12.54 46.24 3.04 10.46 9.86 12.3 17.3 4.36 3.5-3.73 6.16-8.78 7.73-13.7 12.96-40.69 36.11-75.47 62.06-108.72 6.55-8.4 13.34-16.75 18.77-25.86 11.84-19.87 26.76-37.32 41.45-54.98 15.86-19.07 35.55-33.98 54.55-49.61 4.06-3.34 9.06-5.56 13.74-8.1 7.61-4.12 15.33-8.03 22.95-12.14 2.63-1.42 5.64-2.69 7.44-4.89 1.65-2 2.93-5.34 2.51-7.76-.66-3.75-4.42-4.83-7.92-4.38-2.21.28-4.23 1.78-6.42 2.48-4.37 1.41-8.76 3.51-13.22 3.74-5.96.3-9.84 2.77-13.41 7.24-2.61 3.28-5.84 7.21-9.54 8.27-12.47 3.6-19.48 13.4-27.61 22.06-2.94 3.13-5.79 6.36-8.85 9.39-8.73 8.64-17.76 16.98-26.26 25.84-6.86 7.15-11.26 16.56-20.21 21.87-1.31.78-2.11 2.53-2.97 3.95-8.81 14.51-17.27 29.23-26.49 43.47-4.28 6.61-10.09 12.21-15.03 18.42-2.66 3.35-5 6.96-7.36 10.53-4.93 7.45-9.1 15.54-14.85 22.28-6.84 8.02-12.78 16.12-14.81 26.67-.67 3.49-1.82 6.95-7.48 8.46.85-4.49 1.65-7.93 2.14-11.42 4.06-28.64 21.73-51.1 34.34-75.86.44-.86 1.38-1.46 1.92-2.29 3.58-5.53 7.06-11.12 10.69-16.62 1.22-1.85 2.45-4.57 4.19-5.05 8.6-2.36 11.62-9.13 14.6-16.4 8.66-21.15 20.47-40.12 36.7-56.59 13.87-14.07 28.05-26.72 46.03-35.93 20.26-10.38 40.54-19.97 62.51-25.91 3.52-.95 6.96-2.26 10.33-3.64 3.13-1.29 6.67-3.04 5.57-7.1-1.16-4.25-5.08-4.73-8.98-4.28-.99.11-1.95.43-2.93.63-19.88 4.21-39.63 8.79-57.5 19.12-3.72 2.15-7.74 4.14-11.88 5.12-9.05 2.15-16.17 7.42-23.56 12.6-16.11 11.29-31.98 22.67-42.83 39.7-2.09 3.29-6.08 5.37-9.47 8.24-2.76-6.39-2.65-6.34-.21-10.84 8.55-15.8 16.95-31.69 25.56-47.46 4.61-8.45 8.9-17.17 16.68-23.42 12.72-10.23 25.33-20.59 38.07-30.79 3.89-3.11 8.09-5.85 12.15-8.77 2.75-1.98 4.42-4.92 2.24-7.63-1.62-2.02-4.77-3.1-7.46-3.84-1.26-.35-3.11.93-4.51 1.77-5.41 3.25-11.04 6.24-16.06 10.03-10.35 7.81-20.57 15.83-30.44 24.23-5.26 4.48-10.45 9.43-14.32 15.09-6.57 9.59-13.2 19.43-17.77 30.04-8.55 19.87-21.03 36.95-34.19 53.75-9.9 12.63-18.69 25.93-24.16 41.19-1.05 2.94-1.97 6.32-6.59 7.21 0-2.09-.35-3.79.05-5.28 5.17-18.91 8.57-38.6 16.14-56.51 12.22-28.89 29.63-55.05 50.35-78.79 5.03-5.77 10.55-11.11 15.73-16.75 2.69-2.94 5.59-5.84 7.59-9.23 2.89-4.89.2-9.32-5.18-8.07-4.58 1.06-9.27 3.56-12.88 6.63-26.28 22.41-44.13 51.4-61.83 80.43-7.82 12.83-14.13 26.4-17.2 41.3-.63 3.04-2.19 5.9-3.51 9.34-4.85-2.06-8.05-4.5-6.28-8.6 2.49-5.78.94-10.11-2.26-14.82-1.41-2.08-1.96-4.96-2.24-7.54-1.44-13.54-2.61-27.11-4.01-40.66-.2-1.91-.99-3.81-1.74-5.61-2.55-6.13-5.64-12.08-7.73-18.36-5.62-16.92-17.21-29.9-28.31-43.11-3.08-3.67-7.8-6.28-12.23-8.45-8.66-4.25-17.62-7.89-26.48-11.71-4.36-1.88-8.73-2.6-14.45 1.19 2.47 2.61 4.04 5.02 6.25 6.46 4.73 3.09 9.63 6.01 14.73 8.41 19.64 9.25 32.9 24.46 41.81 43.88 9.03 19.68 11.32 40.91 14.39 61.98 1.34 9.18 3.02 18.32 4.76 27.43.87 4.56 2.29 9.01 3.39 13.52 3.35 13.85-4.77 25.96-5.08 39.32-1.2-.26-1.75-.27-1.78-.41-4.29-16.35-8.53-32.7-12.79-49.06-.66-2.52-1.22-5.08-2.01-7.56-1.69-5.34-3.96-10.54-5.16-15.98-2.96-13.45-7.17-26.18-15.35-37.6-9.84-13.75-18.73-28.19-28.44-42.03-2.54-3.62-6.53-6.27-10.02-9.15-4.05-3.35-9.47-5.7-12.22-9.85-7.55-11.41-20.01-14.93-30.87-21.02-1.5-.84-4.08-.68-5.79-.02-1.96.76-4.51 2.35-4.92 4.04-.4 1.61 1.17 4.33 2.68 5.65 2.2 1.94 5.14 3.01 7.71 4.55 17.65 10.54 32.74 24.03 44.59 40.77 7.88 11.13 14.48 23.15 21.86 34.63 12.02 18.7 16.72 39.71 19.57 61.3.27 2.07-.47 4.28-.75 6.52-5.14.62-7.18-2.35-9.38-5.34-3.74-5.09-7.39-10.28-11.57-14.99-12.62-14.19-24.18-28.91-31.85-46.63-4.17-9.64-15.31-13.85-21.2-22.6-1.07-1.59-4.25-1.65-6.33-2.68-4.46-2.2-9.36-3.92-13.15-6.99-22.27-18.05-48.7-25.24-76.15-29.92-3.62-.62-6.57.07-7.64 5.76 3.61 1.67 7.23 4.32 11.18 5 15.88 2.73 30.54 8.13 45.14 15.18 27.58 13.32 47.32 33.78 62.11 59.98 3.23 5.72 7.37 11.11 11.9 15.88 14.55 15.3 25.88 32.93 37.36 50.45 2.34 3.57 3.83 7.77 5.25 11.84 4.82 13.82 9.49 27.68 14.1 41.57 2.8 8.45 3.89 17.06 1.96 27.51-6.62-7.61-10.78-14.75-12.62-22.86-5.52-24.27-20.17-43.57-35.76-61.54-12.76-14.71-28.74-26.69-43.66-39.45-5.25-4.49-11.5-7.86-17.49-11.41-5.1-3.02-10.22-6.63-15.82-8.07-11.24-2.89-22.76-4.93-34.27-6.45-8.97-1.19-16.71-4.2-23.13-10.53-2.37-2.34-4.55-4.9-7.1-7.02-3.73-3.1-12.2-4.31-15.07-1.89-4.31 3.64-2.75 8.25-1.91 11.42z"
          fill="transparent"/>
    <path d="M976.03 686.06c-.84-3.17-2.4-7.78 1.91-11.42 2.86-2.42 11.34-1.21 15.07 1.89 2.55 2.12 4.73 4.68 7.1 7.02 6.43 6.33 14.17 9.34 23.13 10.53 11.52 1.52 23.03 3.56 34.27 6.45 5.6 1.44 10.72 5.05 15.82 8.07 5.99 3.54 12.24 6.92 17.49 11.41 14.92 12.76 30.9 24.74 43.66 39.45 15.59 17.97 30.24 37.26 35.76 61.54 1.84 8.1 6 15.25 12.62 22.86 1.93-10.46.84-19.06-1.96-27.51-4.61-13.89-9.28-27.76-14.1-41.57-1.42-4.07-2.91-8.27-5.25-11.84-11.49-17.52-22.81-35.15-37.36-50.45-4.53-4.77-8.67-10.16-11.9-15.88-14.79-26.2-34.53-46.66-62.11-59.98-14.6-7.05-29.26-12.45-45.14-15.18-3.96-.68-7.57-3.33-11.18-5 1.06-5.69 4.02-6.38 7.64-5.76 27.45 4.68 53.88 11.87 76.15 29.92 3.79 3.07 8.69 4.79 13.15 6.99 2.08 1.03 5.26 1.09 6.33 2.68 5.9 8.75 17.04 12.96 21.2 22.6 7.66 17.72 19.22 32.44 31.85 46.63 4.19 4.71 7.83 9.9 11.57 14.99 2.2 2.99 4.24 5.96 9.38 5.34.28-2.24 1.03-4.45.75-6.52-2.85-21.59-7.55-42.6-19.57-61.3-7.38-11.49-13.99-23.51-21.86-34.63-11.85-16.74-26.94-30.23-44.59-40.77-2.57-1.53-5.51-2.61-7.71-4.55-1.5-1.32-3.07-4.04-2.68-5.65.42-1.69 2.97-3.28 4.92-4.04 1.71-.66 4.28-.83 5.79.02 10.86 6.09 23.32 9.62 30.87 21.02 2.75 4.16 8.17 6.5 12.22 9.85 3.49 2.89 7.49 5.54 10.02 9.15 9.72 13.85 18.6 28.28 28.44 42.03 8.18 11.42 12.39 24.15 15.35 37.6 1.2 5.44 3.47 10.64 5.16 15.98.79 2.48 1.35 5.04 2.01 7.56 4.25 16.36 8.5 32.71 12.79 49.06.04.14.58.14 1.78.41.31-13.36 8.44-25.47 5.08-39.32-1.09-4.52-2.51-8.97-3.39-13.52-1.75-9.11-3.42-18.25-4.76-27.43-3.07-21.07-5.36-42.3-14.39-61.98-8.91-19.42-22.17-34.63-41.81-43.88-5.1-2.4-10-5.32-14.73-8.41-2.21-1.44-3.78-3.85-6.25-6.46 5.72-3.79 10.09-3.07 14.45-1.19 8.87 3.82 17.83 7.46 26.48 11.71 4.42 2.17 9.14 4.78 12.23 8.45 11.1 13.22 22.69 26.19 28.31 43.11 2.09 6.28 5.18 12.23 7.73 18.36.75 1.81 1.54 3.7 1.74 5.61 1.4 13.55 2.57 27.11 4.01 40.66.27 2.59.83 5.46 2.24 7.54 3.19 4.71 4.74 9.05 2.26 14.82-1.76 4.1 1.43 6.55 6.28 8.6 1.32-3.44 2.88-6.29 3.51-9.34 3.06-14.9 9.37-28.47 17.2-41.3 17.7-29.03 35.55-58.03 61.83-80.43 3.61-3.07 8.29-5.57 12.88-6.63 5.38-1.25 8.07 3.18 5.18 8.07-2 3.39-4.9 6.29-7.59 9.23-5.18 5.64-10.69 10.99-15.73 16.75-20.72 23.74-38.14 49.9-50.35 78.79-7.57 17.91-10.97 37.59-16.14 56.51-.41 1.49-.05 3.19-.05 5.28 4.62-.89 5.54-4.28 6.59-7.21 5.47-15.26 14.26-28.56 24.16-41.19 13.16-16.8 25.64-33.88 34.19-53.75 4.56-10.61 11.2-20.45 17.77-30.04 3.87-5.66 9.06-10.61 14.32-15.09 9.87-8.41 20.08-16.42 30.44-24.23 5.02-3.79 10.65-6.78 16.06-10.03 1.4-.84 3.26-2.11 4.51-1.77 2.68.74 5.84 1.82 7.46 3.84 2.17 2.71.51 5.65-2.24 7.63-4.05 2.92-8.25 5.65-12.15 8.77-12.75 10.19-25.35 20.56-38.07 30.79-7.78 6.25-12.06 14.97-16.68 23.42-8.61 15.77-17.01 31.66-25.56 47.46-2.44 4.51-2.55 4.45.21 10.84 3.39-2.87 7.38-4.95 9.47-8.24 10.84-17.04 26.72-28.41 42.83-39.7 7.39-5.18 14.51-10.45 23.56-12.6 4.14-.98 8.16-2.97 11.88-5.12 17.87-10.33 37.62-14.9 57.5-19.12.98-.21 1.94-.52 2.93-.63 3.89-.45 7.82.03 8.98 4.28 1.11 4.06-2.43 5.81-5.57 7.1-3.37 1.39-6.81 2.7-10.33 3.64-21.97 5.93-42.25 15.53-62.51 25.91-17.98 9.21-32.16 21.86-46.03 35.93-16.23 16.47-28.03 35.45-36.7 56.59-2.98 7.28-6 14.04-14.6 16.4-1.74.48-2.97 3.2-4.19 5.05-3.62 5.5-7.11 11.09-10.69 16.62-.54.83-1.48 1.43-1.92 2.29-12.62 24.75-30.29 47.22-34.34 75.86-.49 3.49-1.29 6.93-2.14 11.42 5.66-1.51 6.81-4.97 7.48-8.46 2.03-10.56 7.98-18.66 14.81-26.67 5.75-6.75 9.92-14.83 14.85-22.28 2.36-3.57 4.7-7.18 7.36-10.53 4.93-6.21 10.75-11.81 15.03-18.42 9.22-14.24 17.68-28.97 26.49-43.47.86-1.41 1.66-3.17 2.97-3.95 8.94-5.31 13.35-14.72 20.21-21.87 8.5-8.86 17.53-17.2 26.26-25.84 3.06-3.02 5.91-6.25 8.85-9.39 8.13-8.66 15.14-18.47 27.61-22.06 3.7-1.07 6.92-5 9.54-8.27 3.57-4.47 7.45-6.94 13.41-7.24 4.46-.23 8.85-2.33 13.22-3.74 2.19-.7 4.21-2.2 6.42-2.48 3.5-.45 7.26.62 7.92 4.38.43 2.42-.86 5.76-2.51 7.76-1.8 2.19-4.82 3.47-7.44 4.89-7.62 4.11-15.34 8.01-22.95 12.14-4.68 2.54-9.69 4.76-13.74 8.1-18.99 15.63-38.69 30.54-54.55 49.61-14.68 17.66-29.61 35.1-41.45 54.98-5.43 9.12-12.21 17.47-18.77 25.86-25.95 33.25-49.09 68.04-62.06 108.72-1.57 4.92-4.23 9.97-7.73 13.7-7.44 7.94-14.26 6.1-17.3-4.36-4.45-15.34-8.89-30.7-12.54-46.24-3.21-13.7-9.12-25.68-19.02-35.61-7.47-7.5-11.43-16.63-15.31-26.42-8.68-21.91-18.02-43.71-34.99-61.04-14.9-15.22-29.72-30.52-44.31-46.03-9.74-10.36-21.76-16.27-35.27-19.61-8.72-2.15-17.51-4.04-26.29-5.96-9.25-2.02-17.45-5.92-25.11-11.65-3.96-2.96-9.4-3.95-15.25-6.26zm290.55 74.9c14.99-13.11 22.54-24.72 22.06-34.13-11.53 9.35-15.11 22.82-22.06 34.13z"/>
    <path d="M1266.58 760.96c6.95-11.31 10.52-24.79 22.06-34.13.48 9.42-7.06 21.02-22.06 34.13z" fill="transparent"/>
</svg>