<svg xmlns="http://www.w3.org/2000/svg" width="2351" height="2351">
    <path d="M2351 2351H0V0h2351v2351zM1547.94 678.51c-2.81 4.71-4.83 8.08-6.84 11.45-7.49 12.57-15.17 25.03-22.4 37.74-10.76 18.89-22.9 36.71-37.98 52.47-9.9 10.34-19.31 21.18-29.38 31.35-8.17 8.26-16.53 16.48-25.65 23.64-19.38 15.22-39.28 29.71-57.19 46.78-6.89 6.56-15.66 11.14-23.62 16.57-3.3 2.25-6.84 4.16-10.02 6.56-37.97 28.56-80.05 31.37-124.4 19.91-9.33-2.41-18.57-5.17-27.92-7.52-11.27-2.83-22.37-6.06-32.43-11.31-2.22-8.53.41-15.02 6.39-20.22 9.17-7.98 15.81-17.89 22.29-28.03 4.29-6.71 9.22-13.02 14.12-19.3 7.14-9.15 14.92-17.82 21.73-27.2 19.72-27.17 38-55.43 63.34-78.11 11-9.85 19.41-21.72 24.97-35.72 2.12-5.32 6.07-10.62 10.58-14.15 13.44-10.54 22.75-24.06 31.33-38.48 4.92-8.26 10.91-15.89 16.66-23.63 4.28-5.77 10.29-7.19 16.96-5.16 5.08 1.55 10.02 3.58 14.96 5.55 13.89 5.54 22.42-.97 22.35-16.08-.05-10.23 1.34-20.49 2.41-30.7.73-6.93 3.68-14.05 2.68-20.64-1.89-12.47 2.25-23.5 5.15-34.95.57-2.25 1.15-4.51 1.64-6.78 4.63-21.28 4.09-43.01 5.83-64.56 1.85-22.86-5.75-41.78-21.1-58.17-9.56-10.21-18.8-20.74-28.64-30.67-11.47-11.58-13.73-24.18-7.27-39.2 6.71-15.61 12.88-31.36 22.53-45.56 5.58-8.21 8.33-17.52 4.42-27.49-2.45-6.25-9.39-10.49-15.85-10.06-5.6.38-8.12 3.58-10.9 11.28a786.842 786.842 0 01-14.81 38.03c-3.99 9.51-8.24 18.96-13.2 27.99-7.64 13.91-5.5 25.55 4.94 37.33 14.13 15.94 27.2 32.83 40.74 49.29 6.46 7.85 9.29 16.36 7.39 26.84-1.35 7.42-.88 15.24-.7 22.87.42 17.94 3.13 36.08 1.29 53.77-2.61 25.08-8.35 49.85-13.08 74.69-.84 4.39-3.24 8.48-4.78 12.37-2.39 0-3.74.16-5.03-.04-1.97-.31-3.92-.77-5.83-1.34-16.61-4.9-24.03-2.5-34.08 12-9.49 13.68-18.77 27.52-27.74 41.54-13.85 21.64-28.35 42.75-46.18 61.37-7.6 7.94-15.37 15.74-22.49 24.1-30.03 35.26-59.36 71.07-86.27 108.81-4.16 5.83-8.32 11.72-16 15.99 0-5.28-.98-9.73.16-13.54 6.98-23.25 14.19-46.44 21.83-69.48 6.49-19.56 13.6-38.92 20.62-58.31 1.46-4.02 3.44-7.94 5.69-11.59 13.16-21.36 24.63-43.45 30.19-68.17.43-1.93.9-4.13 2.12-5.55 7.62-8.92 9.57-20.36 14.17-30.62 6.96-15.53 4.7-29.52-3.87-43.62-10.37-17.07-20.62-34.26-29.82-51.97-8.09-15.57-14.64-31.73-25.93-45.71-9.02-11.17-8.14-23.9 1.01-35.9 8.88-11.65 17.29-23.68 25.35-35.91 8.6-13.05 17.03-26.27 24.65-39.91 6.22-11.13 4.22-17.05-6.21-24.72-1.88-1.38-3.92-2.54-5.77-3.96-10-7.69-19.93-15.49-29.98-23.13-2.07-1.57-4.4-3.04-6.85-3.85-5.18-1.71-10.56-.01-12.36 3.66-2.24 4.58.68 7.66 3.62 10.41 6.56 6.13 13.05 12.37 20.01 18.01 8.98 7.28 10.21 10.29 6.89 21.4-2.51 8.42-6.53 15.8-12.66 22.33-6.36 6.77-11.86 14.37-17.52 21.76-5.87 7.67-11.17 15.78-17.26 23.27-14.16 17.43-14.65 23.64-3.33 42.87 19.76 33.58 39.23 67.32 59.01 100.89 8.14 13.82 8.95 27.3.92 41.59-4.71 8.38-8.3 17.42-11.98 26.34-9.52 23.08-17.69 46.79-28.51 69.23-11.88 24.65-22.78 49.57-31.79 75.38-1.37 3.91-3.8 7.45-5.74 11.16-2.49-3.41-3.56-6.45-3.88-9.56-1.6-15.22-2.65-30.5-4.55-45.67-2.6-20.69 4.73-37.27 17.9-52.97 14.31-17.05 26.95-35.53 39.92-53.67 5.3-7.42 4.77-15.16-1.14-22.05-11.87-13.84-20.05-29.77-27.4-46.23-4.48-10.03-8.78-20.14-13.49-30.07-6.16-13-13.19-25.54-24.22-35.12-7.74-6.73-11.91-15.11-13.03-25.06-1.56-13.88-3.1-27.78-4.13-41.71-.68-9.17-2.81-17.57-7.96-25.35-7.39-11.15-13.36-23.07-16.35-36.22-1.53-6.72-5.82-11.04-11.25-14.61-3.92-2.58-8.1-3.17-12.26-.88-4.47 2.47-5.1 6.78-4.37 11.3 1.64 10.24 3.92 20.2 10.26 28.86 7.37 10.07 12.73 21.29 14.51 33.64 1.85 12.8 2.97 25.75 3.56 38.68.88 19.59 6.49 36.55 23.14 48.58 7.21 5.21 11.76 12.46 14.75 20.88 8.5 23.94 19.81 46.53 33.32 68.04 1.42 2.25 2.78 4.55 4.06 6.88 5.07 9.18 4.22 17.33-2.68 25.71-8.88 10.77-16.91 22.25-24.96 33.67-5.98 8.47-11.83 16.88-20.77 22.65-5.48 3.54-7.87 9.13-7.4 15.5 1.24 16.57 1.98 33.24 4.47 49.63 2.81 18.53 4.56 36.92 2.89 55.66-1.42 15.87-3.48 31.87 2.86 47.4 1.16 2.85 1.8 6.65-3.48 9.08-2.04-2.52-4.5-5.07-6.4-7.97-15.32-23.52-27.64-48.58-38.07-74.61-2.59-6.47-5.78-12.71-8.81-19-7.2-14.97-15-29.67-21.59-44.9-12.02-27.79-22.74-56.15-35.18-83.73-7.09-15.73-16.45-30.45-24.92-45.55-4.7-8.38-4.87-16.47.98-24.31 8.56-11.48 16.77-23.26 25.91-34.27 10.53-12.68 18.66-26.6 25.76-41.41 6.17-12.86 13.69-25.07 20.61-37.57 1.28-2.31 2.82-4.54 3.74-6.99 3.01-8.05 2.6-8.93-3.79-14.42-30.62-26.33-63.19-50-97.18-71.76-16.03-10.26-17.98-15.84-12.81-34.15.81-2.88 1.84-5.71 2.48-8.63 1.85-8.44 4.3-16.85 5.15-25.4 1.24-12.48-9.18-18.85-20.51-13.24-5.16 2.55-8.57 6.6-9.37 12.18-2.41 16.8-4.62 33.63-6.64 50.49-.94 7.86 2.23 14.37 8.23 19.39 2.8 2.34 5.88 4.36 8.9 6.42 19.24 13.16 38.71 26 57.68 39.54 10.54 7.53 20.56 15.87 30.23 24.5 6.85 6.11 7.05 10.35 3.22 18.79-.96 2.12-2.16 4.13-3.22 6.2-15.49 30.35-35.06 58.15-54.17 86.22-5.19 7.62-11.96 14.25-18.53 20.79-6.22 6.19-7.74 9.56-4.22 17.58 3.61 8.22 7.81 16.19 12.03 24.11 7.2 13.51 15.14 26.65 21.85 40.4 32.38 66.43 64.47 133.01 96.57 199.58 2.41 4.99 4.12 10.32 6.1 15.32-1.55 1.27-2.22 2.05-3.06 2.47-8.63 4.32-17.34 2.63-26.33.95-34.48-6.42-68.28-14.81-99.77-30.9-12.57-6.42-26.27-9.23-40.16-11.48-7.15-1.16-14.51-2.77-21-5.83-14.13-6.68-28.15-13.78-41.46-21.94-10.71-6.56-20.83-14.34-30.22-22.69-7.87-7-14.34-15.59-21.38-23.53-3.92-4.42-3.49-7.31 1.97-10.14 5.61-2.9 11.38-5.56 17.28-7.78 14.44-5.43 25.08-15.16 31.89-28.74 13.15-26.23 17.1-53.76 9.72-82.44-3.52-13.7-11.72-23.71-24.93-29.33-27.91-11.87-55.06-10.66-81.48 4.54-7.31 4.2-12.36 9.87-14.17 18.33-1.32 6.18-3.29 12.21-4.65 18.38-3.57 16.16-4.03 32.2.52 48.41 2.96 10.55 4.6 21.47 6.7 32.25.34 1.74.05 3.61.05 7.28-7.65-4.46-14.56-7.33-20.05-11.91-19.36-16.12-31.84-36.7-35.54-61.75-1.39-9.42-.57-19.23-.23-28.84.64-18.29 1.29-36.6 2.61-54.85 1.54-21.33 5.73-42.2 13.13-62.35 5.62-15.31 11.27-30.61 16.71-45.99 8.69-24.57 19.92-47.87 33.27-70.28 5.75-9.65 9.76-20.37 14.26-30.73.99-2.29 1.37-5.25.91-7.69-1.43-7.47-8.68-11.12-16.23-8.21-8.64 3.32-13.46 10.13-17.1 18.45-5.98 13.71-11.53 27.82-19.4 40.43-10.19 16.33-17.64 33.39-22.5 51.93-4.16 15.83-10.72 30.76-20.07 44.39-2.36 3.45-3.81 7.73-4.84 11.84-2.26 9.03-4.27 18.15-5.87 27.33-2.04 11.78-5.1 23.67-5.01 35.49.18 24.26 2.18 48.52 3.41 72.77.71 13.92 5.01 26.83 11.53 38.95 18.37 34.13 11.36 25.92 42.28 47.27 11.91 8.23 24.97 13.8 39.65 15.25 7.2.71 13.34 4.06 17.79 9.99 32.84 43.68 79.48 66.66 128.69 85.75 3.7 1.44 7.62 2.51 11.53 3.2 26.72 4.72 51.97 13.93 76.98 24.18 9.47 3.88 19.52 6.77 29.58 8.68 22.22 4.22 44.57 7.93 66.97 11.1 17.23 2.44 28.94 10.57 34.11 27.68.95 3.15 3.6 6.89 6.46 8.19 17.25 7.85 34.34 16.5 52.34 22.16 28.85 9.07 58.36 16.07 87.62 23.82 10.42 2.76 20.97 3.61 31.62 1.04 13.26-3.21 26.51-6.42 39.8-9.5 20.86-4.83 39-14.89 55.76-27.98 33.34-26.05 66.29-52.52 98.25-80.29 22.83-19.83 42.97-41.88 59.98-66.65 10.66-15.53 19.34-32.38 29.9-48.09 6.78-10.09 10.8-22.08 15.72-33.36 7.24-16.6 17.56-30.44 33.25-40.08 10.48-6.44 18.15-15.62 22.99-26.96 6.4-15 13.07-29.91 18.81-45.17 16.36-43.44 25.01-88.41 23.54-134.9-.86-27.26-3.14-54.48-5.18-81.69-1.07-14.31-2.37-28.54.28-42.8 1.02-5.52-.12-10.68-3.83-14.98-3.48-4.03-8.06-6.37-13.33-4.92-5.6 1.54-5.78 6.6-5.88 11.4-.15 6.65-.32 13.29-.58 19.94-.57 14.61-1.87 29.22-1.67 43.81.34 25.62 1.61 51.23 2.43 76.85 1.08 33.53-6.21 65.44-18.67 96.36-1.41 3.51-2.72 7.02-7.15 7.33-4.47.31-5.14-3.68-6.52-6.5-4.99-10.16-9.63-20.49-14.65-30.64-8.06-16.28-21.19-26.18-38.91-29.98-6.49-1.39-12.8-.69-17.84 3.96-15.66 14.44-31.59 28.64-46.57 43.76-11.03 11.14-17.6 25.18-18.82 40.99-.69 8.87-.25 17.92.54 26.8 1.65 18.48 6.75 35.93 17.1 51.6 9.55 14.46 22.94 22.81 39.99 25.51 4.58.73 9.12 1.72 15.21 2.89z"
          fill="transparent"/>
    <path d="M1547.94 678.51c-6.09-1.17-10.63-2.16-15.21-2.89-17.05-2.7-30.44-11.06-39.99-25.51-10.35-15.67-15.45-33.12-17.1-51.6-.79-8.89-1.23-17.93-.54-26.8 1.23-15.8 7.79-29.85 18.82-40.99 14.98-15.13 30.91-29.32 46.57-43.76 5.04-4.65 11.35-5.35 17.84-3.96 17.71 3.8 30.84 13.69 38.91 29.98 5.02 10.14 9.66 20.48 14.65 30.64 1.38 2.81 2.05 6.81 6.52 6.5 4.44-.31 5.74-3.82 7.15-7.33 12.46-30.92 19.74-62.83 18.67-96.36-.82-25.62-2.09-51.23-2.43-76.85-.19-14.59 1.1-29.21 1.67-43.81.26-6.64.43-13.29.58-19.94.11-4.8.29-9.86 5.88-11.4 5.28-1.45 9.85.89 13.33 4.92 3.71 4.3 4.85 9.46 3.83 14.98-2.64 14.27-1.35 28.5-.28 42.8 2.04 27.21 4.32 54.43 5.18 81.69 1.47 46.49-7.18 91.46-23.54 134.9-5.75 15.25-12.41 30.17-18.81 45.17-4.84 11.34-12.51 20.52-22.99 26.96-15.69 9.64-26 23.48-33.25 40.08-4.92 11.28-8.94 23.27-15.72 33.36-10.56 15.71-19.24 32.56-29.9 48.09-17 24.78-37.15 46.82-59.98 66.65-31.96 27.76-64.91 54.24-98.25 80.29-16.75 13.09-34.9 23.15-55.76 27.98-13.29 3.08-26.54 6.29-39.8 9.5-10.65 2.58-21.2 1.73-31.62-1.04-29.26-7.75-58.77-14.75-87.62-23.82-18-5.66-35.09-14.31-52.34-22.16-2.85-1.3-5.51-5.04-6.46-8.19-5.17-17.11-16.87-25.23-34.11-27.68-22.4-3.17-44.74-6.88-66.97-11.1-10.06-1.91-20.11-4.8-29.58-8.68-25-10.25-50.25-19.47-76.98-24.18-3.91-.69-7.83-1.76-11.53-3.2-49.21-19.09-95.85-42.07-128.69-85.75-4.45-5.92-10.6-9.27-17.79-9.99-14.68-1.45-27.74-7.03-39.65-15.25-30.92-21.35-23.91-13.14-42.28-47.27-6.52-12.12-10.83-25.04-11.53-38.95-1.23-24.26-3.23-48.51-3.41-72.77-.09-11.82 2.97-23.7 5.01-35.49 1.59-9.17 3.6-18.29 5.87-27.33 1.03-4.11 2.47-8.4 4.84-11.84 9.35-13.64 15.91-28.56 20.07-44.39 4.87-18.54 12.32-35.6 22.5-51.93 7.87-12.61 13.41-26.73 19.4-40.43 3.64-8.33 8.47-15.13 17.1-18.45 7.55-2.9 14.8.75 16.23 8.21.47 2.44.09 5.4-.91 7.69-4.5 10.36-8.51 21.07-14.26 30.73-13.35 22.41-24.58 45.71-33.27 70.28-5.44 15.38-11.09 30.68-16.71 45.99-7.4 20.15-11.59 41.02-13.13 62.35-1.32 18.25-1.97 36.55-2.61 54.85-.34 9.61-1.16 19.41.23 28.84 3.7 25.06 16.18 45.63 35.54 61.75 5.49 4.57 12.4 7.44 20.05 11.91 0-3.67.29-5.54-.05-7.28-2.11-10.78-3.74-21.7-6.7-32.25-4.55-16.21-4.1-32.25-.52-48.41 1.36-6.17 3.33-12.21 4.65-18.38 1.81-8.46 6.86-14.13 14.17-18.33 26.43-15.2 53.57-16.41 81.48-4.54 13.21 5.62 21.41 15.63 24.93 29.33 7.38 28.68 3.43 56.21-9.72 82.44-6.81 13.58-17.44 23.31-31.89 28.74-5.9 2.22-11.68 4.88-17.28 7.78-5.46 2.82-5.89 5.72-1.97 10.14 7.03 7.94 13.5 16.52 21.38 23.53 9.39 8.35 19.52 16.13 30.22 22.69 13.31 8.16 27.33 15.26 41.46 21.94 6.48 3.07 13.85 4.68 21 5.83 13.88 2.25 27.59 5.06 40.16 11.48 31.5 16.09 65.29 24.48 99.77 30.9 8.99 1.67 17.7 3.37 26.33-.95.84-.42 1.51-1.2 3.06-2.47-1.97-5-3.69-10.33-6.1-15.32-32.1-66.57-64.19-133.14-96.57-199.58-6.7-13.75-14.65-26.89-21.85-40.4-4.22-7.93-8.42-15.9-12.03-24.11-3.52-8.02-2-11.39 4.22-17.58 6.58-6.55 13.35-13.18 18.53-20.79 19.11-28.06 38.68-55.87 54.17-86.22 1.06-2.08 2.26-4.08 3.22-6.2 3.83-8.44 3.62-12.68-3.22-18.79-9.67-8.63-19.69-16.97-30.23-24.5-18.97-13.54-38.43-26.38-57.68-39.54-3.02-2.07-6.1-4.08-8.9-6.42-6-5.02-9.17-11.53-8.23-19.39 2.02-16.85 4.22-33.69 6.64-50.49.8-5.58 4.21-9.63 9.37-12.18 11.33-5.61 21.75.76 20.51 13.24-.85 8.56-3.3 16.96-5.15 25.4-.64 2.92-1.67 5.75-2.48 8.63-5.17 18.3-3.22 23.88 12.81 34.15 34 21.76 66.57 45.43 97.18 71.76 6.38 5.49 6.8 6.37 3.79 14.42-.92 2.45-2.46 4.68-3.74 6.99-6.92 12.5-14.45 24.71-20.61 37.57-7.1 14.81-15.23 28.73-25.76 41.41-9.14 11-17.35 22.78-25.91 34.27-5.85 7.85-5.68 15.93-.98 24.31 8.46 15.1 17.82 29.82 24.92 45.55 12.44 27.59 23.16 55.95 35.18 83.73 6.59 15.23 14.39 29.93 21.59 44.9 3.03 6.29 6.22 12.53 8.81 19 10.43 26.03 22.75 51.09 38.07 74.61 1.89 2.91 4.35 5.45 6.4 7.97 5.28-2.42 4.65-6.23 3.48-9.08-6.34-15.53-4.28-31.52-2.86-47.4 1.67-18.74-.07-37.13-2.89-55.66-2.49-16.39-3.23-33.06-4.47-49.63-.48-6.37 1.92-11.96 7.4-15.5 8.95-5.77 14.8-14.18 20.77-22.65 8.05-11.42 16.09-22.9 24.96-33.67 6.9-8.38 7.75-16.53 2.68-25.71-1.29-2.33-2.65-4.62-4.06-6.88-13.51-21.51-24.82-44.1-33.32-68.04-2.99-8.42-7.55-15.68-14.75-20.88-16.64-12.03-22.25-28.98-23.14-48.58-.58-12.93-1.71-25.88-3.56-38.68-1.78-12.36-7.14-23.57-14.51-33.64-6.34-8.66-8.63-18.63-10.26-28.86-.72-4.52-.1-8.83 4.37-11.3 4.16-2.3 8.34-1.71 12.26.88 5.43 3.57 9.72 7.89 11.25 14.61 2.99 13.15 8.96 25.07 16.35 36.22 5.15 7.78 7.28 16.18 7.96 25.35 1.03 13.93 2.57 27.82 4.13 41.71 1.12 9.95 5.29 18.34 13.03 25.06 11.04 9.59 18.06 22.13 24.22 35.12 4.7 9.92 9.01 20.04 13.49 30.07 7.35 16.46 15.53 32.4 27.4 46.23 5.91 6.89 6.44 14.64 1.14 22.05-12.96 18.15-25.6 36.62-39.92 53.67-13.18 15.69-20.5 32.27-17.9 52.97 1.9 15.17 2.96 30.45 4.55 45.67.33 3.12 1.39 6.16 3.88 9.56 1.94-3.71 4.38-7.25 5.74-11.16 9.01-25.8 19.91-50.73 31.79-75.38 10.82-22.44 18.98-46.16 28.51-69.23 3.68-8.91 7.27-17.96 11.98-26.34 8.03-14.28 7.22-27.77-.92-41.59-19.77-33.57-39.25-67.31-59.01-100.89-11.32-19.23-10.83-25.44 3.33-42.87 6.08-7.49 11.39-15.6 17.26-23.27 5.66-7.4 11.16-14.99 17.52-21.76 6.13-6.53 10.15-13.92 12.66-22.33 3.32-11.11 2.09-14.12-6.89-21.4-6.96-5.65-13.46-11.88-20.01-18.01-2.94-2.75-5.87-5.83-3.62-10.41 1.8-3.68 7.18-5.38 12.36-3.66 2.44.81 4.77 2.27 6.85 3.85 10.05 7.64 19.98 15.43 29.98 23.13 1.84 1.42 3.89 2.58 5.77 3.96 10.43 7.68 12.43 13.59 6.21 24.72-7.62 13.64-16.04 26.86-24.65 39.91-8.06 12.23-16.47 24.27-25.35 35.91-9.15 11.99-10.02 24.73-1.01 35.9 11.29 13.98 17.84 30.14 25.93 45.71 9.2 17.71 19.45 34.91 29.82 51.97 8.57 14.1 10.83 28.09 3.87 43.62-4.6 10.26-6.55 21.7-14.17 30.62-1.21 1.42-1.68 3.62-2.12 5.55-5.56 24.73-17.03 46.81-30.19 68.17-2.25 3.65-4.23 7.56-5.69 11.59-7.02 19.38-14.13 38.74-20.62 58.31-7.65 23.04-14.85 46.23-21.83 69.48-1.14 3.81-.16 8.26-.16 13.54 7.68-4.27 11.85-10.16 16-15.99 26.91-37.74 56.24-73.55 86.27-108.81 7.12-8.36 14.89-16.16 22.49-24.1 17.84-18.63 32.33-39.73 46.18-61.37 8.97-14.02 18.25-27.86 27.74-41.54 10.05-14.5 17.47-16.9 34.08-12 1.91.56 3.86 1.03 5.83 1.34 1.29.2 2.64.04 5.03.04 1.54-3.89 3.95-7.98 4.78-12.37 4.73-24.84 10.47-49.61 13.08-74.69 1.84-17.68-.87-35.83-1.29-53.77-.18-7.63-.65-15.44.7-22.87 1.9-10.48-.93-18.98-7.39-26.84-13.54-16.47-26.61-33.35-40.74-49.29-10.44-11.78-12.59-23.42-4.94-37.33 4.96-9.02 9.21-18.48 13.2-27.99 5.26-12.54 10.2-25.23 14.81-38.03 2.77-7.7 5.3-10.9 10.9-11.28 6.46-.43 13.4 3.81 15.85 10.06 3.91 9.97 1.16 19.28-4.42 27.49-9.65 14.2-15.82 29.95-22.53 45.56-6.46 15.02-4.2 27.62 7.27 39.2 9.84 9.94 19.08 20.46 28.64 30.67 15.34 16.39 22.94 35.31 21.1 58.17-1.74 21.54-1.2 43.28-5.83 64.56-.49 2.27-1.07 4.53-1.64 6.78-2.9 11.45-7.05 22.48-5.15 34.95 1 6.59-1.96 13.71-2.68 20.64-1.07 10.21-2.46 20.47-2.41 30.7.07 15.11-8.46 21.62-22.35 16.08-4.94-1.97-9.88-4-14.96-5.55-6.66-2.03-12.68-.61-16.96 5.16-5.75 7.74-11.74 15.37-16.66 23.63-8.58 14.41-17.9 27.94-31.33 38.48-4.51 3.53-8.46 8.83-10.58 14.15-5.56 13.99-13.97 25.87-24.97 35.72-25.33 22.68-43.62 50.94-63.34 78.11-6.81 9.38-14.59 18.05-21.73 27.2-4.91 6.28-9.84 12.6-14.12 19.3-6.48 10.14-13.12 20.04-22.29 28.03-5.98 5.21-8.62 11.69-6.39 20.22 10.05 5.26 21.15 8.48 32.43 11.31 9.35 2.35 18.59 5.11 27.92 7.52 44.35 11.46 86.42 8.65 124.4-19.91 3.18-2.39 6.72-4.31 10.02-6.56 7.95-5.43 16.73-10.01 23.62-16.57 17.92-17.07 37.82-31.56 57.19-46.78 9.12-7.16 17.47-15.38 25.65-23.64 10.07-10.17 19.47-21.01 29.38-31.35 15.09-15.76 27.23-33.58 37.98-52.47 7.24-12.71 14.92-25.17 22.4-37.74 2.01-3.38 4.03-6.75 6.84-11.45zm44.9-129.3c-1.12-12.4-6.2-22.9-12.07-32.97-7.36-12.63-19.26-15.36-31.32-7.1-14.12 9.66-26.1 21.55-35 36.34-14.92 24.8-16.08 51.52-10.62 78.97 1.01 5.07 3.76 9.93 6.38 14.5 3.65 6.36 9.39 9.97 16.78 11.24 18.46 3.2 36.04-4.34 45.34-21.61 5.61-10.42 9.44-21.92 12.97-33.27 1.6-5.14.34-11.12.71-16.69.28-4.18.74-8.42 1.74-12.48 1.4-5.72 3.37-11.3 5.09-16.94zm-857.08 92.67c.98 8.94 1.39 16.27 2.67 23.44 2.43 13.62 7.29 26.21 17.09 36.47 5.55 5.81 9.44 6.94 16.85 3.93 17.11-6.95 30.79-18.06 36.19-36.09 6.14-20.47 8.98-41.59 2.54-62.71-1.31-4.31-3.49-8.87-6.58-12.04-10.44-10.71-23.14-15.3-38.08-11.29-14.2 3.81-22.9 13.52-26.16 27.38-2.5 10.61-3.23 21.63-4.52 30.9z"/>
    <path d="M1592.84 549.21c-1.72 5.64-3.69 11.22-5.09 16.94-.99 4.06-1.46 8.29-1.74 12.48-.37 5.58.89 11.56-.71 16.69-3.53 11.36-7.37 22.85-12.97 33.27-9.3 17.27-26.88 24.8-45.34 21.61-7.39-1.28-13.13-4.88-16.78-11.24-2.62-4.57-5.37-9.43-6.38-14.5-5.46-27.46-4.3-54.18 10.62-78.97 8.9-14.79 20.88-26.68 35-36.34 12.06-8.25 23.96-5.53 31.32 7.1 5.87 10.06 10.95 20.57 12.07 32.97zM735.76 641.88c1.3-9.27 2.02-20.29 4.52-30.9 3.26-13.86 11.97-23.56 26.16-27.38 14.94-4.01 27.64.57 38.08 11.29 3.09 3.17 5.27 7.73 6.58 12.04 6.44 21.13 3.59 42.25-2.54 62.71-5.4 18.02-19.09 29.14-36.19 36.09-7.41 3.01-11.3 1.87-16.85-3.93-9.8-10.26-14.66-22.85-17.09-36.47-1.28-7.17-1.68-14.5-2.67-23.44z"
          fill="transparent"/>
</svg>