<svg xmlns="http://www.w3.org/2000/svg" width="2351" height="2351">
    <path d="M2351 2351H0V0h2351v2351zM1168.14 986.09c.87-7.92 2.18-14.79 2.21-21.67.03-6.96-1.26-13.91-1.89-20.88-.36-3.98-.75-7.97-.77-11.96-.2-40.3.17-80.62-.69-120.91-.43-20.25-2.37-40.54-4.9-60.66-2.57-20.45-6.78-40.7-10.08-61.07-.99-6.09-2.76-12.33.66-19.38 9.04 1.34 18.16 2.93 27.34 4.01 11.52 1.35 16.31-2.36 17.4-13.71 1.46-15.24 3.03-30.5 3.57-45.78.83-23.3.87-46.62 1.16-69.93.12-9.29.5-18.62-.1-27.87-.68-10.41-4.07-14.45-14.24-16.32-20.6-3.79-41.32-6.92-61.99-10.32-3.47-.57-6.94-1.15-11.29-1.87 6.58-43.36 12.99-85.64 19.39-127.83 11.44-1.74 21.17 2.08 31.13 4.49 8.07 1.95 16.12 4.26 24.32 5.31 7.82 1 11.77-1.86 14.67-9.17 1.58-3.99 2.56-8.25 3.46-12.47 4.38-20.67 3.88-41.72 4.61-62.66.31-8.91.22-17.9-.58-26.77-.68-7.58-5.42-12.84-12.72-15.18-8.23-2.63-16.49-5.33-24.92-7.13-12.44-2.65-25.08-3.53-37.7-.96-8.76 1.78-11.37 7.53-7.15 15.39 2.91 5.41 4.47 6.06 12.54 4.24 12.99-2.93 25.76-2.66 38.35 1.92 7.71 2.81 11.7 8.06 11.97 16.52.66 20.51-2.09 40.53-8.09 60.09-3.37 10.98-7.52 13.39-18.54 11.3-13.4-2.54-26.77-5.26-40.12-8.08-6.25-1.32-11.88-.73-17.54 4.38 0 9.64.28 19.95-.08 30.23-.39 11.29.76 23.26-2.67 33.64-4.01 12.15-7.23 24.17-8.26 36.78-1.3 15.91-2.63 31.86-2.81 47.8-.13 12.04 6.43 17.88 17.69 18.58 18.25 1.13 36.51 2.33 54.74 3.76 13.18 1.03 15.77 4.29 15.38 17.85-.78 27.29-1.45 54.59-2.34 81.88-.29 8.97-.6 18-1.83 26.87-1.42 10.26-6.28 13.58-16.63 12.65-2.98-.27-5.92-.92-8.88-1.37-4.93-.74-9.84-1.92-14.79-2.1-9.91-.36-14.18 4.32-13.03 14.15 2.13 18.18 4.24 36.37 6.83 54.49 2.59 18.11 6.8 36.05 8.41 54.22 2.14 24.17 2.54 48.5 3.54 72.77 1.28 31.26 2.4 62.53 3.64 93.79.26 6.54-.2 12.82-4.4 19.41-13.1-14.56-24.76-28.54-34.12-44.37-11.51-19.47-23.36-38.74-34.92-58.18-7.05-11.85-15.83-22.21-25.99-31.47-12.42-11.32-22.45-24.5-30.97-38.96-7.44-12.62-15.09-25.13-23.12-37.38-15.89-24.23-32.12-48.24-48.19-72.35-3.83-5.74-7.62-11.52-8.43-19.57 4.62-.84 8.77-1.88 12.99-2.29 10.6-1.04 21.25-1.59 31.84-2.72 10.91-1.16 21.91-2.13 32.63-4.36 12.66-2.64 17.86-11.29 14.92-23.64-3.94-16.56-9.58-32.51-17.67-47.61-8.32-15.54-16.23-31.31-23.96-47.15-6.59-13.5-13.64-26.6-22.98-38.51-11.91-15.2-23.41-30.73-34.63-46.45-12.08-16.93-25.94-32.09-41.94-45.35-4.08-3.39-8.15-6.93-11.57-10.95-9.36-11.04-9.12-17.09 1.11-27.64 28.01-28.9 54.34-59.3 84.92-85.88 22.23-19.33 40.74-42.96 60.53-65.02 3.41-3.8 5.51-9.14 7.11-14.13 2.38-7.4-2.67-13.24-10.01-11.1-5.84 1.71-12.03 4.64-16.33 8.83-15.73 15.33-30.64 31.48-46.03 47.16-8.14 8.3-16.71 16.18-24.91 24.43-10.3 10.37-20.65 20.71-30.53 31.47-7.86 8.57-14.8 17.98-22.59 26.61-10.71 11.86-22.15 23.08-32.69 35.08-8.06 9.17-8 16.51-.3 25.96 5.24 6.44 11.03 12.52 17.13 18.15 29.6 27.31 53.91 58.8 75.56 92.66 23.97 37.47 43.61 77.04 60.11 118.23 2.13 5.32 2.22 11.45 3.5 18.6-8.14 1.43-14.87 3.21-21.69 3.68-13.28.91-26.64.7-39.9 1.7-10.58.8-21.18 2.19-31.57 4.33-7.72 1.58-9.93 7.18-6.91 14.5 1.01 2.45 2.39 4.77 3.83 7.01 9.02 14 17.59 28.32 27.26 41.85 23.24 32.51 46.42 65.03 67.47 99.05 6.74 10.89 15.98 20.43 25.01 29.68 18.01 18.43 35.36 37.44 47.09 60.49 17.5 34.38 41.13 64.53 63.57 95.54.97 1.35 2.04 2.65 3.22 3.81 5.31 5.23 9.3 5.96 16.19 2.83 2.94-1.34 5.75-2.97 8.96-4.65 5.06 8.24 12.05 11.86 21.18 11.38 22.94-1.22 45.9-2.1 68.81-3.65 11.44-.77 14.08-4.68 12.9-16.54-.82-8.28-1.83-16.55-2.7-24.83-2.67-25.49-5.03-51.01-8.04-76.46-2.15-18.15-5.31-36.18-7.78-54.3-3.82-28.02-7.45-56.06-11.14-84.1-1.61-12.21-3.5-24.39-4.67-36.65-1.13-11.76.93-14.13 12.68-15.14 6.95-.59 13.98-.13 20.98-.3 16.24-.41 22.33-7.16 21.22-23.16-1.25-17.93-2.53-35.86-3.54-53.8-.58-10.3-.54-20.63-1.01-30.93-.92-19.94-2.7-39.88-2.78-59.82-.06-14.47-1.22-28.58-5.38-42.4-3.97-13.18-8.51-15.53-22.28-12.83-7.14 1.4-14.56 3.44-21.62 2.75-17.86-1.75-35.63-4.6-53.35-7.57-8.88-1.49-11.29-4.38-12.23-13.28-1.71-16.02 1.8-30.95 10.03-44.83 2.1-.14 3.75-.24 5.4-.35 19.91-1.33 39.85-2.42 59.74-4.08 13.37-1.12 16.29-5.32 16.31-18.63.02-13.96.03-28.01 1.53-41.86 2.39-22.03 2.31-43.83-1.47-65.66-1.19-6.88-1.62-13.89-2.79-20.78-1.14-6.73-5.7-10.69-11.34-10.52-5.4.17-8.38 3.69-8.88 11.17-.54 7.97-1.18 15.96-1 23.93.25 10.97 2.05 21.94 1.73 32.87-.68 22.9-2.3 45.77-3.55 68.74-17.4 6.36-34.37 8.01-51.81 6.02-7.85-.9-15.72-2.37-24.64-.1-2.67 9.04-6.55 18.09-7.82 27.5-1.78 13.14-1.57 26.55-2.29 39.84-.63 11.58 4.98 18.98 15.44 22.98 4.02 1.54 8.2 2.99 12.43 3.62 16.79 2.49 33.59 4.93 50.46 6.83 16.38 1.85 16.42 1.55 26.07 15.63 2.99 4.36 6.1 8.43 6.36 14.28.85 19.29 2.04 38.57 3.4 57.83 1.52 21.57 3.53 43.12 4.98 64.69.4 5.92.16 12.02-.8 17.87-1.81 10.96-8.79 16.01-19.84 14.99-4.63-.43-9.22-1.37-13.84-2.02-12.21-1.72-17.94 2.68-18.39 14.67-.29 7.64-.54 15.4.38 22.95 4.02 32.71 8.49 65.36 12.76 98.05 2.02 15.49 4.59 30.94 5.65 46.5.61 8.91-.24 17.66 4.28 26.03 1.96 3.63 2.17 8.35 2.58 12.63 2.32 24.52 4.45 49.07 6.65 73.6 1.14 12.7-.28 15.42-12.7 18-10.06 2.09-20.41 2.88-30.66 3.96-10.83 1.13-21.69 1.91-32.57 2.85zm349.92-312.33c-6.15 7.2-11.96 13.19-16.8 19.88-5.98 8.26-13.18 14.71-21.83 20.12-5.15 3.23-10.98 7.7-13.12 12.99-5.66 13.97-15.46 23.77-26.88 32.74-4.65 3.66-9.23 7.84-12.57 12.66-15.52 22.42-30.62 45.14-45.82 67.78-12.79 19.05-25.51 38.15-38.31 57.19-1.48 2.2-3.24 4.22-4.91 6.3-16.84 21.07-33.69 42.14-50.53 63.21-2.49 3.12-4.97 6.26-7.35 9.47-2.35 3.16-3.62 6.71-.69 10.02 2.82 3.19 6.79 4.68 10.86 3.05 2.99-1.2 6.01-3.11 8.16-5.48 7.8-8.63 15.82-17.16 22.73-26.49 51.95-70.1 103.42-140.56 158.68-208.13 6.98-8.53 13.92-16.76 23.68-22.55 5.9-3.5 10.83-8.8 15.74-13.74 7.98-8.03 15.64-16.36 23.33-24.68 8.12-8.79 7.33-15.68-3.21-21.78-9.77-5.66-19.85-10.88-30.15-15.51-10.68-4.8-22.02-7.51-33.91-7.28-4.88.09-10.3 1.24-12.94-4.79-2.6-5.94 1.87-9.38 5.03-12.99 15.1-17.31 30.37-34.48 45.58-51.71 24.44-27.68 51.52-52.93 73.86-82.57 24.25-32.17 49.73-63.41 74.56-95.15 3.67-4.7 7.23-9.63 9.89-14.94 4.19-8.36 1.8-14.94-6.69-18.89-4.47-2.08-9.46-3.07-14.24-4.47-14.66-4.32-29.64-7.76-43.92-13.09-28.62-10.67-53.93-27.35-78.26-45.57-3.45-2.59-6.9-5.33-10.72-7.26-32.09-16.19-64.24-32.25-96.44-48.2-3.52-1.74-7.46-3.02-11.34-3.54-2.25-.3-6.23.73-6.82 2.21-.9 2.25-.38 6.01 1.07 8.02 2.05 2.83 5.26 5.06 8.39 6.83 12.16 6.88 24.47 13.52 36.76 20.18 20.76 11.25 41.66 22.24 62.28 33.73 27.31 15.23 54.29 31.05 81.66 46.17 11.98 6.62 24.96 10.85 38.57 13.15 5.64.95 11.07 3.15 18.68 5.4-5.89 4.07-9.49 7-13.49 9.23-8.56 4.75-14.7 11.35-17.43 20.86-1.93 6.73-5.78 12-11.92 15.35-6.97 3.81-11.96 9.49-15.95 16.15-3.59 5.99-7.12 12.03-10.47 18.16-15.64 28.6-37.96 51.99-59.16 76.27-1.31 1.5-2.87 2.78-4.27 4.21-24.39 25.02-49.59 49.28-69.11 78.63-9.16 13.76-21.29 24.61-36.23 32.17-2.71 1.37-4.79 4-7.08 5.97 3.66 8.72 9.93 12.08 17.68 12.43 6.62.3 13.29-.32 19.93-.78 12.61-.88 25.2-2.37 37.82-2.8 13.49-.45 26.44 1.82 37.6 11.85z"
          fill="transparent"/>
    <path d="M1168.14 986.09c10.88-.94 21.75-1.72 32.57-2.85 10.25-1.07 20.6-1.86 30.66-3.96 12.42-2.58 13.84-5.3 12.7-18-2.2-24.54-4.34-49.08-6.65-73.6-.4-4.28-.62-9.01-2.58-12.63-4.52-8.37-3.67-17.12-4.28-26.03-1.06-15.56-3.63-31.01-5.65-46.5-4.26-32.68-8.74-65.33-12.76-98.05-.93-7.56-.67-15.31-.38-22.95.45-11.99 6.18-16.39 18.39-14.67 4.62.65 9.2 1.59 13.84 2.02 11.05 1.02 18.03-4.04 19.84-14.99.97-5.85 1.2-11.95.8-17.87-1.46-21.58-3.46-43.12-4.98-64.69-1.36-19.26-2.55-38.54-3.4-57.83-.26-5.85-3.37-9.92-6.36-14.28-9.66-14.08-9.69-13.78-26.07-15.63-16.86-1.9-33.67-4.34-50.46-6.83-4.23-.63-8.41-2.08-12.43-3.62-10.46-4-16.07-11.4-15.44-22.98.72-13.29.51-26.7 2.29-39.84 1.27-9.4 5.16-18.45 7.82-27.5 8.92-2.27 16.8-.8 24.64.1 17.44 1.99 34.41.34 51.81-6.02 1.24-22.98 2.87-45.85 3.55-68.74.32-10.93-1.48-21.9-1.73-32.87-.18-7.97.46-15.97 1-23.93.5-7.48 3.48-11 8.88-11.17 5.64-.17 10.2 3.79 11.34 10.52 1.17 6.89 1.6 13.9 2.79 20.78 3.78 21.83 3.86 43.64 1.47 65.66-1.5 13.85-1.51 27.9-1.53 41.86-.02 13.31-2.94 17.51-16.31 18.63-19.89 1.66-39.82 2.75-59.74 4.08-1.65.11-3.29.21-5.4.35-8.23 13.88-11.74 28.81-10.03 44.83.95 8.9 3.35 11.79 12.23 13.28 17.71 2.97 35.49 5.82 53.35 7.57 7.06.69 14.48-1.34 21.62-2.75 13.77-2.7 18.31-.35 22.28 12.83 4.16 13.82 5.32 27.92 5.38 42.4.08 19.94 1.86 39.88 2.78 59.82.47 10.3.43 20.64 1.01 30.93 1.02 17.94 2.29 35.87 3.54 53.8 1.12 16-4.97 22.75-21.22 23.16-6.99.18-14.03-.29-20.98.3-11.75 1-13.81 3.38-12.68 15.14 1.17 12.25 3.07 24.44 4.67 36.65 3.69 28.04 7.32 56.08 11.14 84.1 2.47 18.12 5.63 36.15 7.78 54.3 3.02 25.45 5.38 50.97 8.04 76.46.87 8.28 1.88 16.54 2.7 24.83 1.17 11.86-1.46 15.76-12.9 16.54-22.91 1.55-45.87 2.43-68.81 3.65-9.13.49-16.12-3.14-21.18-11.38-3.21 1.68-6.01 3.31-8.96 4.65-6.89 3.13-10.88 2.4-16.19-2.83-1.18-1.16-2.25-2.47-3.22-3.81-22.44-31.01-46.07-61.16-63.57-95.54-11.74-23.05-29.09-42.06-47.09-60.49-9.03-9.24-18.27-18.78-25.01-29.68-21.06-34.03-44.23-66.54-67.47-99.05-9.67-13.53-18.24-27.86-27.26-41.85-1.44-2.23-2.82-4.56-3.83-7.01-3.02-7.33-.81-12.92 6.91-14.5 10.39-2.13 20.99-3.52 31.57-4.33 13.27-1.01 26.63-.79 39.9-1.7 6.82-.47 13.55-2.25 21.69-3.68-1.29-7.16-1.37-13.29-3.5-18.6-16.5-41.19-36.14-80.76-60.11-118.23-21.65-33.85-45.96-65.34-75.56-92.66-6.1-5.63-11.89-11.71-17.13-18.15-7.7-9.45-7.76-16.79.3-25.96 10.55-12 21.98-23.22 32.69-35.08 7.79-8.63 14.73-18.05 22.59-26.61 9.88-10.76 20.23-21.1 30.53-31.47 8.2-8.25 16.77-16.13 24.91-24.43 15.38-15.68 30.3-31.84 46.03-47.16 4.29-4.18 10.48-7.12 16.33-8.83 7.33-2.14 12.39 3.7 10.01 11.1-1.61 4.98-3.7 10.32-7.11 14.13-19.78 22.06-38.3 45.69-60.53 65.02-30.58 26.59-56.91 56.98-84.92 85.88-10.23 10.56-10.48 16.6-1.11 27.64 3.42 4.03 7.48 7.57 11.57 10.95 16 13.26 29.86 28.43 41.94 45.35 11.22 15.72 22.72 31.25 34.63 46.45 9.33 11.91 16.39 25.01 22.98 38.51 7.73 15.84 15.64 31.61 23.96 47.15 8.09 15.1 13.73 31.05 17.67 47.61 2.94 12.35-2.25 21.01-14.92 23.64-10.72 2.23-21.72 3.2-32.63 4.36-10.59 1.13-21.24 1.68-31.84 2.72-4.22.41-8.37 1.46-12.99 2.29.81 8.06 4.6 13.83 8.43 19.57 16.07 24.11 32.3 48.12 48.19 72.35 8.03 12.25 15.68 24.76 23.12 37.38 8.53 14.45 18.55 27.64 30.97 38.96 10.16 9.26 18.94 19.62 25.99 31.47 11.57 19.44 23.41 38.71 34.92 58.18 9.36 15.83 21.02 29.8 34.12 44.37 4.19-6.59 4.65-12.87 4.4-19.41-1.24-31.26-2.35-62.53-3.64-93.79-1-24.27-1.39-48.6-3.54-72.77-1.61-18.18-5.82-36.11-8.41-54.22-2.59-18.12-4.7-36.31-6.83-54.49-1.15-9.83 3.11-14.52 13.03-14.15 4.95.18 9.87 1.35 14.79 2.1 2.96.45 5.9 1.1 8.88 1.37 10.35.93 15.2-2.39 16.63-12.65 1.23-8.87 1.54-17.9 1.83-26.87.89-27.29 1.56-54.58 2.34-81.88.39-13.56-2.2-16.81-15.38-17.85-18.23-1.43-36.48-2.63-54.74-3.76-11.26-.69-17.83-6.53-17.69-18.58.18-15.94 1.51-31.89 2.81-47.8 1.03-12.6 4.26-24.63 8.26-36.78 3.42-10.39 2.27-22.36 2.67-33.64.36-10.28.08-20.59.08-30.23 5.66-5.11 11.29-5.71 17.54-4.38 13.34 2.83 26.72 5.54 40.12 8.08 11.03 2.09 15.17-.32 18.54-11.3 6-19.56 8.75-39.58 8.09-60.09-.27-8.46-4.26-13.71-11.97-16.52-12.58-4.58-25.36-4.86-38.35-1.92-8.07 1.82-9.64 1.17-12.54-4.24-4.22-7.87-1.61-13.61 7.15-15.39 12.63-2.57 25.26-1.69 37.7.96 8.43 1.8 16.69 4.5 24.92 7.13 7.3 2.34 12.04 7.6 12.72 15.18.8 8.87.89 17.86.58 26.77-.73 20.94-.23 41.99-4.61 62.66-.89 4.22-1.88 8.48-3.46 12.47-2.9 7.31-6.86 10.18-14.67 9.17-8.2-1.05-16.25-3.36-24.32-5.31-9.96-2.41-19.69-6.23-31.13-4.49-6.4 42.19-12.81 84.47-19.39 127.83 4.35.72 7.82 1.3 11.29 1.87 20.67 3.4 41.39 6.53 61.99 10.32 10.17 1.87 13.56 5.91 14.24 16.32.61 9.25.22 18.58.1 27.87-.29 23.31-.33 46.64-1.16 69.93-.55 15.28-2.11 30.54-3.57 45.78-1.09 11.35-5.88 15.06-17.4 13.71-9.18-1.08-18.3-2.66-27.34-4.01-3.42 7.05-1.65 13.29-.66 19.38 3.3 20.37 7.51 40.61 10.08 61.07 2.52 20.11 4.47 40.41 4.9 60.66.86 40.29.49 80.61.69 120.91.02 3.99.41 7.98.77 11.96.62 6.96 1.92 13.92 1.89 20.88-.03 6.87-1.34 13.74-2.21 21.67zM1518.06 673.76c-11.16-10.04-24.1-12.3-37.6-11.85-12.62.42-25.21 1.92-37.82 2.8-6.63.46-13.31 1.08-19.93.78-7.75-.35-14.02-3.7-17.68-12.43 2.28-1.97 4.36-4.6 7.08-5.97 14.94-7.56 27.07-18.41 36.23-32.17 19.53-29.35 44.72-53.61 69.11-78.63 1.39-1.43 2.96-2.71 4.27-4.21 21.2-24.28 43.52-47.67 59.16-76.27 3.35-6.13 6.88-12.17 10.47-18.16 3.99-6.66 8.97-12.34 15.95-16.15 6.14-3.35 9.99-8.63 11.92-15.35 2.73-9.51 8.87-16.11 17.43-20.86 4-2.22 7.61-5.16 13.49-9.23-7.61-2.25-13.04-4.45-18.68-5.4-13.61-2.3-26.59-6.53-38.57-13.15-27.37-15.12-54.35-30.95-81.66-46.17-20.62-11.49-41.53-22.48-62.28-33.73-12.29-6.66-24.59-13.3-36.76-20.18-3.12-1.77-6.34-4-8.39-6.83-1.45-2.01-1.97-5.77-1.07-8.02.59-1.48 4.57-2.51 6.82-2.21 3.88.53 7.82 1.8 11.34 3.54 32.21 15.95 64.36 32.01 96.44 48.2 3.82 1.93 7.27 4.67 10.72 7.26 24.33 18.22 49.64 34.9 78.26 45.57 14.28 5.33 29.26 8.77 43.92 13.09 4.78 1.41 9.76 2.39 14.24 4.47 8.49 3.95 10.88 10.53 6.69 18.89-2.66 5.3-6.22 10.24-9.89 14.94-24.83 31.74-50.31 62.98-74.56 95.15-22.34 29.65-49.42 54.89-73.86 82.57-15.2 17.22-30.47 34.39-45.58 51.71-3.16 3.62-7.63 7.05-5.03 12.99 2.63 6.03 8.06 4.88 12.94 4.79 11.89-.23 23.22 2.47 33.91 7.28 10.3 4.63 20.38 9.85 30.15 15.51 10.54 6.1 11.33 12.99 3.21 21.78-7.68 8.31-15.35 16.65-23.33 24.68-4.91 4.94-9.84 10.25-15.74 13.74-9.76 5.79-16.7 14.02-23.68 22.55-55.26 67.58-106.73 138.03-158.68 208.13-6.91 9.33-14.93 17.86-22.73 26.49-2.15 2.37-5.17 4.29-8.16 5.48-4.07 1.63-8.04.14-10.86-3.05-2.92-3.31-1.65-6.86.69-10.02 2.38-3.21 4.86-6.35 7.35-9.47 16.83-21.08 33.69-42.14 50.53-63.21 1.66-2.08 3.42-4.1 4.91-6.3 12.8-19.05 25.51-38.14 38.31-57.19 15.21-22.64 30.3-45.36 45.82-67.78 3.34-4.82 7.92-9.01 12.57-12.66 11.41-8.97 21.22-18.76 26.88-32.74 2.14-5.28 7.96-9.76 13.12-12.99 8.64-5.42 15.85-11.86 21.83-20.12 4.84-6.69 10.65-12.68 16.8-19.88z"/>
</svg>