<svg xmlns="http://www.w3.org/2000/svg" width="2351" height="2351">
    <path d="M0 2351V0h2351v2351H0zM1447.06 259.25c-6.53-2.71-13.07-5.42-20.98-8.7 0-2.06.05-5.67 0-9.27-.21-13.32-.1-26.66-.84-39.96-.36-6.57-1.87-13.18-3.67-19.55-1.58-5.59-6.41-9.04-11.84-9.37-5.17-.32-8.1 4.31-9.6 8.84-3.45 10.41-6.31 20.84-6.55 32.1-.32 14.93-1.63 29.88-3.44 44.71-2.62 21.48-6.37 42.83-4.89 64.62.78 11.56-4.65 19.69-14.48 25.31-4.56 2.61-8.97 5.49-14.26 8.75 9.11 12.24 3.81 21.88-4.07 31.08-1.73 2.02-3.38 4.13-5.09 6.17-8.47 10.11-15 21.16-17.1 34.46-1.15 7.32-5.79 12.66-10.83 17.54-6.06 5.87-13.13 6.16-19.74.63-9.11-7.62-15.72-17.12-19.81-28.34-1.57-4.3-1.31-8.14 1.19-12.27 3.79-6.25 6.96-12.89 10.24-19.44 15.06-30.09 25.54-61.46 25.79-95.52.04-4.86 3.17-6.81 6-9.59 3.71-3.65 8.4-7.28 10.07-11.87 4.89-13.35 8.49-27.17 12.85-41.66-4.27-.47-7.49-.98-10.72-1.14-3.58-.18-7.17-.04-10.79-.04-3.85 15.76-9.95 29.53-21.11 40.85-2.32 2.35-3.09 6.49-3.99 9.96-4.04 15.43-7.01 31.2-12.01 46.3-6.38 19.26-14.07 38.1-21.73 56.91-4.71 11.55-15.42 13.01-23.63 3.83-.66-.74-1.27-1.54-1.86-2.35-12.71-17.53-25.44-35.04-38.11-52.6-6.54-9.06-6.9-18.81-1.27-28.14 15.74-26.1 33.71-50.36 58.49-68.87 5.85-4.37 11.42-9.25 16.45-14.54 12.86-13.5 25.25-27.45 38.01-41.04 5.01-5.33 10.68-10.04 15.76-15.31 4.08-4.23 5.16-13.17 2.48-16.72-2.83-3.75-9.63-4.85-15.58-1.53-5.17 2.88-10.25 6.31-14.48 10.41-10.76 10.43-20.84 21.55-31.52 32.07-13.52 13.3-26.79 26.94-41.23 39.18-12.81 10.85-24.66 22.32-34.37 35.99-4.44 6.24-8.5 12.79-13.35 18.68-4.35 5.28-9.55 9.85-15.59 15.97-3.8-6.14-7.3-10.56-9.48-15.56-4.51-10.33-8.23-21-12.44-31.47-9.95-24.74-20.51-49.17-35.9-71.17-10.54-15.07-15.85-32.06-18.95-49.99-2.22-12.86 1.2-23.62 10.2-32.85 2.55-2.62 5.22-5.17 7.43-8.07 5.53-7.26 6.14-12.32 2.32-16.08-3.78-3.71-7.55-3.76-15.18 1.86-9.89 7.29-19.25 15.29-28.73 23.12-5.64 4.66-11.46 8.79-19 9.69-1.22-1.85-2.28-3.16-3-4.63-10.14-20.53-26.27-35.86-43.6-50.13-5.93-4.88-12.37-7.59-20.89-3.95 2.55 4.05 4.82 7.64 7.08 11.25 12.19 19.48 24.51 38.88 36.51 58.47 10.27 16.77 9.92 34 1.55 51.48-15.67 32.72-31.29 65.47-46.7 98.32-2.52 5.36-3.79 11.3-5.81 16.91-1.75 4.88-3.74 9.69-5.61 14.52-11.13-4.29-15.86-8.33-20.08-18.21-6.41-14.99-13.48-29.82-18.31-45.34-10.05-32.31-26.94-60.71-46.45-87.91-8.05-11.22-17.58-20.76-28.49-29.18-6.21-4.8-12.18-5.3-20.29-2.07 8.18 11.59 15.68 22.55 23.52 33.26 21.26 29.03 38.04 60.12 46.03 95.59 1.66 7.37 4.65 14.66 8.22 21.35 16.8 31.52 30.86 64.17 42.55 97.91 5.36 15.46 12.49 30.12 22.71 43.12 2.02 2.57 3.54 5.68 4.68 8.77 9.72 26.36 16.28 53.41 18.4 81.53 2.1 27.84 3.57 55.75 12.81 82.6 3.19 9.26 1.7 18.97-4.73 27.07-11.68-3.13-17.79-8.42-20.22-18.77-1.51-6.43-2.47-13.18-2.34-19.75.5-24.77-6.81-47.11-18.97-68.38-4.75-8.31-8.83-17.25-11.55-26.4-4.12-13.88-9.94-26.79-17.41-39.09-9.16-15.08-18.27-30.2-27.29-45.37-6.69-11.25-14.22-21.87-24.91-29.62-7.74-5.61-13.71-12.53-18.62-20.57-4.34-7.11-8.73-14.18-13.06-21.29-17.33-28.43-33.97-57.32-52.23-85.15-11.18-17.04-22.05-34.06-30.24-52.74-.88-2-2.38-3.73-3.65-5.66-5.72.93-8.07 4.24-8.01 9.06.05 4.29.57 8.62 1.39 12.84 3.14 16.12 12.04 29.34 21.24 42.53 7.03 10.06 14.33 20.21 19.44 31.28 15.32 33.18 34.21 63.99 57.53 92.09 7.66 9.23 15.79 18.08 23.15 27.53 21.12 27.11 35.4 58.01 46.83 90.05 13.74 38.54 25.72 77.7 38.78 116.49 2.52 7.49 6.11 14.71 9.95 21.65 4.61 8.33 8.22 16.8 7.39 26.49-1.25 14.62 3.22 27.36 11.1 39.55 7.85 12.14 12.47 25.57 13.56 40.27.66 8.88 1.92 17.92 4.55 26.39 4.13 13.31 9.54 26.24 14.61 39.25 3.52 9.03 7.26 18 6.84 27.91-.3 7 2.14 12.78 5.66 18.71 2.98 5.02 4.89 10.87 6.31 16.59 2.75 11.12-1 21.68-3.8 32.28-1.52 5.77-3.96 11.67-3.76 17.44.7 20.27 2.18 40.51 3.74 60.74 1.1 14.3 3.29 28.41 9.25 41.7 7.69 17.17 20.28 28.35 39.29 29.67 15.87 1.1 31.94 1.04 47.8-.13 8.35-.61 17.34-3.2 24.46-7.51 13.59-8.24 26.71-17.6 38.8-27.92 11.86-10.12 24.78-16.57 40.06-18.66 9.23-1.27 18.5-2.29 27.69-3.83 30.1-5.05 57.62-15.94 81.21-35.87 4.02-3.4 8.81-5.97 13.48-8.48 10.26-5.51 20.74-10.62 31.02-16.11 18.23-9.74 36.31-19.84 51.91-33.54 9.48-8.33 17.94-17.81 27.15-26.46 20.27-19.02 37.88-40.06 52.18-64.03 19.27-32.31 39.06-64.31 59.08-96.17 7.23-11.5 12.71-23.3 13.75-36.99.5-6.63 3.52-12.1 8.87-16.14 10.12-7.65 16.47-18.02 22.05-29.19 9.22-18.46 18.55-36.89 28.66-54.87 9.3-16.53 20.72-31.9 29.42-48.71 24.03-46.42 47.24-93.27 70.48-140.1 3.67-7.39 6.61-15.37 8.4-23.4 3.8-17.02 9.82-33.11 17.26-48.81 7.27-15.34 14.25-30.83 20.91-46.44 3.96-9.29 2.09-12.99-7.78-18.09-4.18 2.41-8.6 4.74-12.81 7.41-14.18 8.97-24.71 20.58-30.25 37.04-10.1 29.97-26.18 56.72-46.32 81.1-8.48 10.26-16.57 20.86-24.35 31.66-10.16 14.1-20.68 27.73-34.74 38.34-5.76 4.35-8.85 10.84-9.76 18.02-2.05 16.06-9.97 29.02-21.87 39.26-19.99 17.21-35.13 38-48.47 60.52-13.9 23.48-28.41 46.62-43.13 69.6-10.82 16.89-20.94 34.02-26.49 53.49-.51 1.8-1.45 3.99-2.89 4.94-11.21 7.41-22.59 14.56-33.91 21.79l-2.03-1.46c3.72-12.32 6.01-25.31 11.4-36.85 26.65-56.99 53.27-114.02 83.98-169.01 6.48-11.6 12.14-23.69 17.47-35.87 6.77-15.45 14.99-29.61 28.05-40.76 3.63-3.1 6.36-7.74 8.32-12.19 4.14-9.39 9.95-17.01 18.18-23.3 4.25-3.25 6.9-8.6 10.3-12.98 4.44-5.72 7.95-12.7 13.54-16.88 19.19-14.33 38.61-28.51 61.26-37.22 4.14-1.59 7.62-3.76 8.56-8.25-7.7-10.19-19.53-9.66-30.92-12.77 2.27-3.42 3.93-6.16 5.81-8.74 17.09-23.4 34.3-46.72 51.3-70.19 9.24-12.75 16.87-26.3 20.07-42.02 2.62-12.86-1.73-22.85-11.68-30.76-14.46-11.48-30.33-12.64-47.04-5.91-25 10.07-49.92 20.34-74.89 30.49-11.09 4.51-22.11 9.25-33.38 13.27-8.1 2.89-16.53 4-25.48-.97 5.93-5.64 11.32-10.77 18.32-17.42-7.43-.72-12.68-1.91-17.85-1.58-7.12.45-12.18 9.47-6.22 15.56 1.27 1.3 2.25 2.88 4.24 5.47-5.61 2.65-10.41 4.72-15.02 7.14-4.38 2.3-9.72 4.06-12.54 7.69-3.55 4.58-7.94 6.76-12.73 9-5.72 2.68-11.22 5.95-17.13 8.1-8.7 3.17-17.62 5.79-26.57 8.2-4.76 1.28-9.57.55-14.54-2.07 4.38-4.67 8.46-8.56 11.88-12.96 1.11-1.44 1.34-4.78.4-6.25-.95-1.49-3.91-2.54-5.87-2.38-6.4.55-11.35 3.94-14.01 9.82-1.18 2.61-2.13 6.01-1.42 8.55.59 2.1 3.78 3.48 6.01 5.33-3.46 3.83-6.92 7.66-11.22 12.43 11.75 3.41 22.13 6.42 32.87 9.53-1.14 9.56-5.09 16.86-8.85 24.21-4.58 8.95-8.54 17.97-8.01 28.48.14 2.86-1.66 6.33-3.6 8.66-2.72 3.28-6.05 6.42-9.75 8.47-12.29 6.84-19.09 16.86-20.47 30.92-.34 3.48-2.04 7.15-4.06 10.07-2.29 3.31-5.66 5.87-9.67 9.86-2.21-5.76-3.7-9.72-5.24-13.66-5.24-13.43-3.91-26.04 4.44-37.93 3.25-4.63 6.33-9.4 9.17-14.28 5.93-10.2 9.68-21.06 8.88-33.05 8.21 2.22 15.49-1.86 23.05-3.65 3.52-.83 4.23-4.61 3.01-7.35-.83-1.86-3.69-3.66-5.83-3.92-6.06-.74-10.94 2.26-14.69 6.79-2.09 2.52-3.57 5.55-5.33 8.35zm-100.81-33.85c8.45-6.38 14.49-13.16 19.02-21.21 1.25-2.22 2.25-5.27 1.75-7.59-.64-2.93-2.39-6.32-4.74-7.87-1.21-.8-5.55 1.29-7.13 3.19-7.76 9.31-9.69 20.36-8.89 33.48zm34.76-88.34c-1.88 8.29-3.43 15.16-5.42 23.94 10.42-10 11.11-13.11 5.42-23.94zM1355 164.69c-2.63-1.94-3.54-2.61-4.46-3.29-.62.91-1.24 1.82-1.86 2.74.98.54 1.9 1.34 2.95 1.55.76.15 1.68-.46 3.38-1z"
          fill="transparent"/>
    <path d="M1446.8 258.97c.84 12.05-2.91 22.9-8.84 33.1-2.84 4.89-5.92 9.66-9.17 14.28-8.35 11.88-9.68 24.49-4.44 37.93 1.54 3.94 3.03 7.9 5.24 13.66 4.01-4 7.38-6.56 9.67-9.86 2.03-2.92 3.72-6.59 4.06-10.07 1.38-14.06 8.18-24.09 20.47-30.92 3.7-2.06 7.02-5.19 9.75-8.47 1.94-2.33 3.74-5.8 3.6-8.66-.53-10.52 3.43-19.53 8.01-28.48 3.76-7.35 7.7-14.65 8.85-24.21-10.74-3.12-21.13-6.13-32.87-9.53 4.3-4.77 7.76-8.6 11.22-12.43-2.23-1.86-5.42-3.23-6.01-5.33-.71-2.54.25-5.95 1.42-8.55 2.66-5.88 7.61-9.28 14.01-9.82 1.96-.17 4.92.89 5.87 2.38.94 1.47.71 4.81-.4 6.25-3.42 4.4-7.5 8.29-11.88 12.96 4.97 2.61 9.79 3.34 14.54 2.07 8.95-2.4 17.86-5.03 26.57-8.2 5.91-2.15 11.41-5.42 17.13-8.1 4.78-2.24 9.18-4.42 12.73-9 2.81-3.63 8.16-5.39 12.54-7.69 4.61-2.42 9.41-4.49 15.02-7.14-1.99-2.59-2.97-4.18-4.24-5.47-5.96-6.09-.9-15.11 6.22-15.56 5.16-.33 10.42.85 17.85 1.58-7 6.65-12.38 11.78-18.32 17.42 8.95 4.97 17.38 3.85 25.48.97 11.27-4.02 22.29-8.76 33.38-13.27 24.97-10.15 49.89-20.41 74.89-30.49 16.71-6.73 32.58-5.57 47.04 5.91 9.96 7.91 14.31 17.9 11.68 30.76-3.21 15.72-10.84 29.27-20.07 42.02-17 23.47-34.21 46.78-51.3 70.19-1.88 2.58-3.54 5.31-5.81 8.74 11.39 3.11 23.22 2.58 30.92 12.77-.94 4.49-4.41 6.66-8.56 8.25-22.66 8.71-42.07 22.89-61.26 37.22-5.6 4.18-9.1 11.16-13.54 16.88-3.4 4.38-6.05 9.72-10.3 12.98-8.23 6.29-14.04 13.91-18.18 23.3-1.96 4.45-4.69 9.09-8.32 12.19-13.05 11.16-21.28 25.32-28.05 40.76-5.33 12.18-11 24.27-17.47 35.87-30.71 54.99-57.33 112.02-83.98 169.01-5.4 11.54-7.68 24.53-11.4 36.85l2.03 1.46c11.33-7.23 22.71-14.38 33.91-21.79 1.44-.95 2.38-3.14 2.89-4.94 5.55-19.47 15.67-36.59 26.49-53.49 14.72-22.98 29.23-46.12 43.13-69.6 13.33-22.52 28.48-43.31 48.47-60.52 11.9-10.25 19.82-23.21 21.87-39.26.92-7.18 4.01-13.67 9.76-18.02 14.05-10.61 24.57-24.24 34.74-38.34 7.78-10.8 15.87-21.4 24.35-31.66 20.15-24.38 36.23-51.13 46.32-81.1 5.54-16.45 16.07-28.06 30.25-37.04 4.21-2.66 8.63-5 12.81-7.41 9.87 5.1 11.74 8.8 7.78 18.09-6.66 15.61-13.64 31.1-20.91 46.44-7.44 15.7-13.46 31.79-17.26 48.81-1.8 8.04-4.74 16.01-8.4 23.4-23.23 46.83-46.45 93.68-70.48 140.1-8.7 16.81-20.12 32.18-29.42 48.71-10.12 17.97-19.44 36.41-28.66 54.87-5.58 11.17-11.93 21.54-22.05 29.19-5.35 4.04-8.37 9.51-8.87 16.14-1.03 13.68-6.52 25.48-13.75 36.99-20.02 31.85-39.81 63.86-59.08 96.17-14.29 23.97-31.9 45.01-52.18 64.03-9.22 8.65-17.67 18.13-27.15 26.46-15.6 13.7-33.68 23.8-51.91 33.54-10.28 5.49-20.76 10.6-31.02 16.11-4.67 2.51-9.46 5.09-13.48 8.48-23.59 19.93-51.12 30.82-81.21 35.87-9.19 1.54-18.46 2.56-27.69 3.83-15.28 2.09-28.2 8.54-40.06 18.66-12.09 10.32-25.2 19.68-38.8 27.92-7.12 4.31-16.11 6.9-24.46 7.51-15.86 1.16-31.93 1.23-47.8.13-19.01-1.32-31.6-12.5-39.29-29.67-5.95-13.3-8.15-27.41-9.25-41.7-1.55-20.22-3.03-40.47-3.74-60.74-.2-5.77 2.24-11.68 3.76-17.44 2.8-10.6 6.55-21.16 3.8-32.28-1.42-5.72-3.33-11.57-6.31-16.59-3.52-5.93-5.96-11.7-5.66-18.71.43-9.91-3.32-18.88-6.84-27.91-5.07-13.01-10.48-25.94-14.61-39.25-2.63-8.46-3.89-17.51-4.55-26.39-1.09-14.7-5.71-28.13-13.56-40.27-7.88-12.19-12.34-24.93-11.1-39.55.83-9.69-2.78-18.16-7.39-26.49-3.84-6.94-7.43-14.16-9.95-21.65-13.06-38.78-25.04-77.95-38.78-116.49-11.43-32.04-25.71-62.94-46.83-90.05-7.36-9.45-15.49-18.3-23.15-27.53-23.32-28.1-42.21-58.91-57.53-92.09-5.11-11.07-12.42-21.22-19.44-31.28-9.2-13.18-18.1-26.41-21.24-42.53-.82-4.22-1.34-8.55-1.39-12.84-.06-4.82 2.28-8.13 8.01-9.06 1.26 1.93 2.77 3.66 3.65 5.66 8.18 18.68 19.06 35.7 30.24 52.74 18.26 27.82 34.9 56.71 52.23 85.15 4.33 7.11 8.72 14.19 13.06 21.29 4.91 8.04 10.89 14.96 18.62 20.57 10.69 7.75 18.22 18.37 24.91 29.62 9.02 15.17 18.13 30.28 27.29 45.37 7.47 12.3 13.29 25.21 17.41 39.09 2.72 9.15 6.8 18.1 11.55 26.4 12.17 21.27 19.48 43.61 18.97 68.38-.13 6.58.83 13.33 2.34 19.75 2.43 10.34 8.55 15.64 20.22 18.77 6.43-8.1 7.91-17.81 4.73-27.07-9.24-26.85-10.71-54.76-12.81-82.6-2.12-28.13-8.68-55.17-18.4-81.53-1.14-3.09-2.66-6.2-4.68-8.77-10.22-13-17.35-27.66-22.71-43.12-11.69-33.74-25.76-66.39-42.55-97.91-3.57-6.69-6.56-13.98-8.22-21.35-7.99-35.47-24.77-66.56-46.03-95.59-7.84-10.71-15.35-21.67-23.52-33.26 8.11-3.24 14.08-2.73 20.29 2.07 10.91 8.42 20.43 17.96 28.49 29.18 19.51 27.2 36.4 55.6 46.45 87.91 4.82 15.51 11.9 30.35 18.31 45.34 4.23 9.88 8.95 13.92 20.08 18.21 1.88-4.83 3.86-9.63 5.61-14.52 2.01-5.61 3.29-11.55 5.81-16.91 15.41-32.84 31.03-65.59 46.7-98.32 8.37-17.49 8.72-34.72-1.55-51.48-12-19.59-24.32-38.99-36.51-58.47-2.26-3.6-4.53-7.2-7.08-11.25 8.52-3.63 14.96-.93 20.89 3.95 17.33 14.27 33.45 29.59 43.6 50.13.73 1.47 1.79 2.77 3 4.63 7.55-.9 13.36-5.03 19-9.69 9.48-7.82 18.85-15.83 28.73-23.12 7.63-5.62 11.4-5.58 15.18-1.86 3.82 3.75 3.21 8.82-2.32 16.08-2.21 2.9-4.88 5.45-7.43 8.07-9 9.22-12.42 19.98-10.2 32.85 3.1 17.94 8.41 34.93 18.95 49.99 15.39 22 25.95 46.43 35.9 71.17 4.21 10.47 7.93 21.14 12.44 31.47 2.18 5 5.68 9.42 9.48 15.56 6.05-6.12 11.25-10.69 15.59-15.97 4.85-5.9 8.92-12.44 13.35-18.68 9.71-13.67 21.56-25.13 34.37-35.99 14.44-12.24 27.72-25.88 41.23-39.18 10.68-10.51 20.76-21.64 31.52-32.07 4.23-4.1 9.31-7.53 14.48-10.41 5.96-3.32 12.75-2.22 15.58 1.53 2.67 3.54 1.6 12.48-2.48 16.72-5.08 5.27-10.75 9.98-15.76 15.31-12.77 13.59-25.16 27.54-38.01 41.04-5.03 5.28-10.6 10.17-16.45 14.54-24.78 18.51-42.76 42.77-58.49 68.87-5.63 9.34-5.26 19.08 1.27 28.14 12.66 17.56 25.4 35.07 38.11 52.6.59.81 1.19 1.61 1.86 2.35 8.21 9.19 18.93 7.73 23.63-3.83 7.66-18.8 15.35-37.65 21.73-56.91 5-15.1 7.96-30.87 12.01-46.3.91-3.47 1.67-7.6 3.99-9.96 11.16-11.31 17.26-25.09 21.11-40.85 3.62 0 7.22-.14 10.79.04 3.23.16 6.45.67 10.72 1.14-4.36 14.49-7.96 28.31-12.85 41.66-1.68 4.59-6.36 8.22-10.07 11.87-2.83 2.79-5.96 4.73-6 9.59-.25 34.06-10.73 65.43-25.79 95.52-3.28 6.55-6.45 13.18-10.24 19.44-2.5 4.13-2.76 7.96-1.19 12.27 4.08 11.22 10.69 20.72 19.81 28.34 6.61 5.53 13.68 5.24 19.74-.63 5.04-4.88 9.68-10.22 10.83-17.54 2.1-13.29 8.63-24.35 17.1-34.46 1.71-2.04 3.35-4.14 5.09-6.17 7.88-9.2 13.19-18.84 4.07-31.08 5.29-3.26 9.7-6.14 14.26-8.75 9.83-5.62 15.26-13.75 14.48-25.31-1.47-21.79 2.27-43.14 4.89-64.62 1.81-14.83 3.12-29.79 3.44-44.71.24-11.26 3.11-21.69 6.55-32.1 1.5-4.53 4.43-9.16 9.6-8.84 5.44.33 10.26 3.78 11.84 9.37 1.8 6.36 3.31 12.97 3.67 19.55.74 13.29.63 26.63.84 39.96.06 3.6 0 7.21 0 9.27 7.91 3.28 14.45 5.99 20.98 8.7l-.26-.28zm-102.22 383.62c8.89-2.63 13.26-9.59 16.15-17.57 6.79-18.74 13.41-37.54 19.81-56.42 1.54-4.55 1.97-9.49 2.94-14.42-9.49-.19-11.8 1.6-14.03 9.96-2.65 9.95-4.86 20.03-7.98 29.82-5.21 16.37-13.8 31.6-16.71 48.83-1.83 1.81-3.73 3.56-5.49 5.43-2.82 3-4.71 6.28-2.45 10.51 7.5-3.53 8.71-6.06 7.75-16.14zm-59.01-18.74c6.7-7.8 14.44-14.94 19.89-23.54 10.49-16.55 20.08-33.71 29.21-51.05 3.64-6.91 5.57-14.86 7.4-22.55 1.9-7.96-1.96-13.63-8.93-14.81-7.69-1.29-15.28 3.9-15.29 11.67 0 8.7-4.18 13.65-11.54 16.77-4.22 1.79-7.41 4.34-7.94 9.24 5.91 8.51 5.94 8.52 2.87 18.91-4.14 14.02-8.43 28-12.48 42.05-1.28 4.43-1.99 9.01-2.97 13.52-10.67.66-16.61 7.84-20.33 16.46-5.92 13.7-10.8 27.85-16.01 41.85-1.66 4.46-1.87 8.96.98 13.1 12.79-1.95 15.54-4.23 18.22-16.17 1.64-7.26 3.84-14.27 9.21-19.54 10.59-10.38 11.29-22.64 7.69-35.93zm-265.93-162c3.28 12.46 7.35 24.42 9.37 36.73 1.6 9.75.26 19.95 1.07 29.89.44 5.46 1.71 11.27 4.24 16.05 3.96 7.47 7.44 14.87 7.91 23.39.47 8.62.47 17.28 1.31 25.86.81 8.2 1.42 16.65 3.94 24.41 4.76 14.68 7.92 29.48 8.72 44.89.74 14.26 1.7 28.53 3.17 42.73 2.15 20.8 6.74 41.43 3.23 62.52-.21 1.25.21 2.61.39 3.91 4.04 28.98 8.16 57.95 12.08 86.95 1.39 10.26 1.4 20.43-1.06 30.73-6.36 26.64-6 53.48-.07 80.14 1.62 7.3 5.01 14.2 7.69 21.58 5.78-2.68 7.47-6.28 7.5-10.98.03-6.33.17-12.65.28-18.98.26-16.07 1.46-32.1 8.69-46.71 3.81-7.71 4.32-15.15 2.67-23.18-2.39-11.65-1.92-23.1 1.99-34.44 1.4-4.05 2.37-8.36 2.8-12.63 1.47-14.55 2.61-29.14 3.87-43.72 1.89-21.86 3.87-43.72 5.65-65.6 1.42-17.53 4.37-35.17-1.58-52.43-2.85-8.27-2.27-16.1.18-24.41 1.93-6.55 2.72-13.63 2.84-20.49.16-9.61-.8-19.23-1.25-28.85-.6-12.61-.5-25.3-1.9-37.82-2.27-20.29-9.14-39.06-23.95-53.68-18.94-18.71-38.5-36.79-57.89-55.04-4.72-4.44-6.04-4.26-11.88-.82zm22.28-276.32c-.77-.02-1.53-.03-2.3-.05-2.68 4.87-5.72 9.57-7.96 14.63-7.81 17.64-15.72 35.25-22.86 53.16a525.038 525.038 0 00-15.1 43.22c-3.34 11.12-4.97 22.74-7.84 34.01-1.71 6.7-1.23 13.18.32 19.66 5.8 24.26 16.06 46.43 30.98 66.49 17.44 23.44 38.78 42.94 61.16 61.42 2.25 1.86 5.04 3.34 7.83 4.21 9.05 2.82 14.36-1.29 13.8-10.7-.72-11.95-1.47-23.92-2.75-35.82-1.11-10.31-3.87-20.16-9.45-29.19-2-3.25-3.1-7.36-3.56-11.21-3.7-31.38-6.97-62.81-10.72-94.18-3.32-27.8-8.44-55.27-17.87-81.72-4.09-11.48-9.09-22.64-13.68-33.94zm618.54 293.07c-1.57 1.48-3.34 2.86-4.77 4.55-6.24 7.37-12.35 14.85-18.57 22.25-24.47 29.1-47.76 58.94-65.36 92.97-7.6 14.7-17.78 28.06-26.42 42.25-2.16 3.54-3.9 7.9-4.09 11.97-.79 16.15-7.93 27.85-22.36 35.19-2.35 1.2-4.45 2.93-6.59 4.51-13.56 10.01-23.49 22.45-27.06 39.4-.74 3.51-2.21 7.11-4.22 10.06-20.41 30.01-40.78 60.06-61.65 89.75-9.05 12.88-21.6 18.5-37.49 13.57-5.46-1.69-9.62-.29-12.9 4.46-10.78 15.63-21.89 31.03-32.41 46.83-5.06 7.6-9.05 15.91-14.74 26.05 4.65-1.35 6.79-1.81 8.81-2.58 25.1-9.5 47.74-23.36 69.59-38.75 25.5-17.96 47.19-40.01 68.93-62.11 8.48-8.62 15.86-17.89 21.93-28.33 19.24-33.11 38.6-66.15 57.94-99.21 6.27-10.72 10.97-21.92 12.72-34.39 1.19-8.44 4.73-16.51 11.97-21.21 12.52-8.11 18.75-20.13 24.28-33.23 13.49-31.96 29.12-62.82 48.68-91.58 5.05-7.43 9.76-15.1 14.58-22.69 2-3.15 4.19-6.39-.81-9.71zm-62.8-121.09c2.42-2.25 3.42-3.09 4.31-4.03 17.37-18.36 34.74-36.7 52.05-55.11 2.5-2.66 4.86-5.48 6.96-8.46 17.82-25.27 36.01-50.3 53.16-76.02 10.11-15.16 18.56-31.43 27.69-47.24 2.59-4.48 2.27-8.9-.88-13.06-3.25-4.29-7.65-4.88-12.54-3.88-1.3.27-2.61.53-3.88.92-18.43 5.61-36.81 11.39-55.29 16.83-11.33 3.33-17.87 10.54-20.6 22.01-2.84 11.95-5.93 23.88-9.87 35.5-2.53 7.46-6.88 14.29-10.28 21.47-2.95 6.24-6.86 12.32-8.28 18.91-2.15 9.98-5.96 18.61-11.87 26.98-13.66 19.35-15.63 41.04-10.69 65.18zm29.2-167.9c-2.79.51-5.35.84-7.85 1.46-19.26 4.75-36.71 13.6-53.77 23.47-8.14 4.71-13.45 11.31-17.81 19.51-8.27 15.55-16.81 31.02-26.29 45.85-9.49 14.85-20.3 28.86-30.45 43.3-10.18 14.48-19.19 29.58-24.74 46.57a87.3 87.3 0 01-6.29 14.56c-16.48 30.12-22.53 63.07-26.47 96.6-.45 3.8.28 7.33 5.28 9.21 15.93-15.47 29.17-32.31 28.85-56.46-.25-18.88 2.13-37.53 11.63-54.07 12.63-22 28.04-42.15 46.17-59.99 13.43-13.22 29-23.32 46.83-29.8 11.11-4.04 19.34-11.66 20.81-23.47 2.14-17.12 9.5-30.4 22.03-42.25 9.09-8.61 15.92-19.77 12.07-34.5zm-355.4 269.87c-6.6 5.09-10.7 11.48-13.09 18.89-4.58 14.24-9 28.53-13.27 42.86-6.46 21.66-13.46 43.19-18.94 65.09-9.04 36.14-17.3 72.47-25.28 108.86-1.75 7.99-1.41 16.57-1.01 24.83.15 3.09 2.5 7.23 5.11 8.8 6.66 4.01 15.39.33 19.95-7.79-8.66-9.84-6.4-19.33.77-29.54 3.44-4.89 4.96-11.55 5.92-17.63.98-6.17.37-12.62.15-18.94-.77-21.64 6-40.99 19.81-57.17 13.38-15.69 22-33.02 25.58-53.24 2.65-14.96 10.16-27.13 22.28-36.7 4.27-3.37 7.5-8.33 10.42-13.05 2.67-4.32 1.63-8.35-1.99-12.58-9.64-11.29-21.39-18.77-36.42-22.69zm-88.07-117.09c-3.02 7.61-5.69 12.97-7.19 18.64-.97 3.68-1.37 8.27-.05 11.69 8.51 22.07 10.73 45.12 12.13 68.42.26 4.33 1.9 9.22 4.49 12.65 5.09 6.75 7.5 13.98 7.3 22.24-.14 5.65-.6 11.3-.62 16.95-.05 10.48 1.82 12.72 12.85 15.81.83-.79 2-1.54 2.68-2.61 12.82-20.03 23.08-41.05 27.34-64.79 2.2-12.3-.02-23-7.39-32.9-11.92-16.01-23.6-32.19-35.67-48.09-4.39-5.78-9.59-10.93-15.85-17.99zm249.55 247.87c7.47-6.32 12.53-12.67 19.11-15.7 11.29-5.21 18.81-13.41 24.74-23.69 12.81-22.19 25.59-44.39 38.34-66.62 1.48-2.59 3.04-5.22 3.96-8.03 2.62-8.01-1.79-13.37-10.11-12.25-9.29 1.26-16.32 5.97-19.39 15.07-2.83 8.39-8.03 15.15-13.01 22.25-5.52 7.86-10.28 16.29-14.93 24.71-5.76 10.44-11.04 21.14-16.64 31.67-.58 1.08-1.8 1.94-2.91 2.59-9.49 5.62-10.51 14.69-9.98 24.36.56 10.28 1.32 20.54 1.87 30.82.71 13.15.3 26.08-8.57 36.58 6.72 12.29 6.86 12.43 14.34 14.77.47-2.99 1.29-5.88 1.33-8.79.26-17.15 5.61-32.56 14.83-46.93 3.21-5 6.12-9.31 12.81-9.44 1.58-.03 3.13-1.83 4.91-2.95-4.97-4.05-5.62-4.56-8.02-1.43-5.09 6.63-10.93 5.18-16.84 2.37-4.72-2.25-9.05-5.3-15.83-9.35zm-40.64-232.18c-9.03 12.35-18.42 23.59-17.2 39.65.59 7.81-3.14 13.94-7.35 20.12-7.66 11.25-14.95 22.76-22.23 34.26-4.74 7.49-4.01 15.23.15 22.66 4.46 7.97 12.87 10.41 20.37 5.3 8.56-5.84 16.15-12.99 20.11-22.9 7.78-19.49 13.99-39.48 16.91-60.32 1.91-13.62.29-26.53-10.77-38.77zm-267.21 9.16c-11.89 8.03-13.91 14.98-10.61 27.4 2.8 10.55 5.44 21.29 6.48 32.1.91 9.47 2.99 18.24 6.91 26.81 2.34 5.11 4.11 10.51 5.8 15.88 3.25 10.39 0 20.34-2.23 30.41-3.74 16.86 7.37 36.35 23.42 41.67 8.44 2.8 15.24-2.09 14.02-10.9-1.13-8.16-3.12-16.28-5.55-24.17-4.97-16.17-11.25-31.98-15.62-48.3-7.99-29.84-14.97-59.95-22.62-90.91zm22.61 365c3.21-8.31 6.59-14.26 7.77-20.61 4.94-26.77 9.36-53.64 13.71-80.52 3.27-20.18-.83-39.01-11.58-56.35-1.71-2.75-3.82-5.6-6.44-7.38-5.42-3.68-10.92-1.56-11.49 4.98-.92 10.5-2.1 21.37-.44 31.65 6.01 37.05 6.65 73.99 1.22 111.11-.56 3.81.17 7.97 1.12 11.76.41 1.61 2.94 2.69 6.13 5.36zm178.06 86.61c4.64 4.75 12.36 7.38 17.88 12.49-1.34 3.24-2.51 6.04-3.67 8.85.59.48 1.18.96 1.76 1.44 1.4-1.18 4.06-2.45 3.98-3.51-.42-5.54 3.23-8.19 6.56-11.53 25.21-25.26 44.79-54.33 57.93-87.56 1.92-4.87 3.09-10.21 3.59-15.43.62-6.43-1.49-8.15-8.1-8.39-9.59-.36-16.17 4.84-18.24 14.36-5.1 23.41-13.33 45.55-30.31 62.99-9.18 9.43-20.21 17.06-31.38 26.3zm-262.92-660.02c1.28 4.9 1.84 8.94 3.37 12.58 8.22 19.61 16.52 39.19 25.1 58.65 8.98 20.37 18.31 40.58 27.49 60.86.95 2.1 1.37 4.84 2.97 6.14 1.84 1.5 5.06 2.82 7.03 2.19 1.92-.62 3.38-3.64 4.33-5.91.54-1.3-.23-3.23-.62-4.82-2.89-11.61-5.79-23.22-8.76-34.82-3.93-15.33-10.07-29.54-20.9-41.43-1.74-1.91-2.88-4.43-4.06-6.79-6.1-12.17-11.98-24.45-18.24-36.54-2.28-4.4-5.15-8.58-8.28-12.43-1.13-1.4-4.06-2.47-5.7-2.01-1.63.45-2.68 3.01-3.73 4.32zm176.34 598.98c-14.78 3.55-28.91 6.94-43.04 10.33.02.67.04 1.34.07 2.01 10.87 4.67 21.74 9.33 33.86 14.54-18.48 7.54-18.92 24.28-22.19 39.47-7.11.74-13.55 1.41-20.78 2.16l5.51 18.31c8.54-3.12 14.02-7.8 17.6-14.97 1.76-3.52 4.12-6.74 6.03-10.19 3.84-6.96 7.79-13.87 11.28-21.01 3.62-7.42 6.77-15.07 10.1-22.63 2.4-5.46 5.12-10.9 1.56-18.02zm183.96-70.07c-12.95-8.4-16.15-25.66-32.27-30.75-7.6 12.84-15.38 24.47-12.19 39.98 15.62 2.09 30.05 1.13 44.46-9.23zm105.71-276.66c1.77 5.13 3.07 9.96 8.33 10.74 5.79.86 7.96-3.97 9.4-8.45 1.17-3.62 3.79-4.9 6.81-6.51 11.19-5.95 20.95-30.65 17.12-42.62-.2-.63-.53-1.21-.83-1.8-3.15-6.17-7.53-6.43-12-.97-7.76 9.47-10.29 20.52-10.39 32.42-.04 4.51-.39 9.01-.6 13.49-6.38 1.32-11.77 2.43-17.83 3.69zm-102.13 351.04c14.92-11.22 32.98-48.1 31.51-63.51-14.98 18.95-27.65 38.12-31.51 63.51zM1288.5 883.06c9.82-3.48 19.45-6.55 28.79-10.36 4.17-1.7 7.97-4.58 11.46-7.49 1.35-1.13 1.4-3.83 2.11-6.04-25.46-1.49-34.22 3.61-42.36 23.89zm211.93-490.11c.62.49 1.23.98 1.85 1.48 5.64-5.39 11.66-10.44 16.82-16.25 5.32-5.98 3.86-10.24-4.25-14.3-8.41 7.91-12.22 18.09-14.42 29.08zm-221.41 410.84c11.1-13.52 13.38-26.82 6.78-37.1-8.3 11.01-8.93 22.82-6.78 37.1zm-278.96-149.68c-1.32 4.79-1.7 9.68 3.15 11.38 3.65 1.28 8.61 1.01 12.25-.43 4.31-1.71 5.41-6.13 3.78-10.94h-19.17zm132.59 315.3c-2.03-5.63-3.64-10.26-5.37-14.84-1.65-4.39-3.43-8.73-5.15-13.09-2.47 4.95-3.48 9.38-3.88 13.85-.85 9.55 2.09 12.58 14.4 14.09zm20.28-625.28c2.12-5.69 1.33-10.5-2.61-14.08-1.58-1.44-4.94-2.04-7.03-1.44-1.51.43-2.98 3.4-3.21 5.39-.87 7.29 3.74 10.96 12.85 10.13zm-2.61 653.59c-3.5-4.25-6.48-7.86-9.68-11.76-5.4 9.42-5.68 12.18-1.71 15.52 4.9 4.12 7.51-.11 11.39-3.77zm210.16-265.82c-.85.41-1.71.82-2.56 1.22.25 4.06 2.35 7.47 5 11.47 2.27-1.39 4.25-2.61 6.96-4.27-3.68-3.3-6.54-5.86-9.4-8.42zm-35.84-34.11c-3.32 1.67-8.01 1.48-6.56 6.31 1.2 3.99 4.84 2.97 7.38 1.49 4.06-2.36 1.08-4.78-.82-7.8zm-206.16 307.31c-5.38-5.69-9.01-2.68-13.45.36 4.9 6.46 8.61 3.17 13.45-.36zm59.38-115.86c.73 0 1.47 0 2.2-.01 3.79-10.81 3.39-13.59-2.99-14.95.27 5.14.53 10.05.79 14.96zm243.76-622.27l2.25 1.01c.58-.96 1.54-1.88 1.65-2.89.17-1.62-.24-3.3-.4-4.95l-1.32-.03c-.73 2.29-1.45 4.57-2.18 6.86z"/>
    <path d="M1346.25 225.4c-.8-13.12 1.13-24.17 8.89-33.48 1.59-1.9 5.92-4 7.13-3.19 2.35 1.55 4.1 4.95 4.74 7.87.5 2.32-.5 5.37-1.75 7.59-4.53 8.05-10.57 14.83-19.02 21.21zM1447.06 259.25c1.76-2.8 3.24-5.83 5.33-8.35 3.75-4.53 8.63-7.52 14.69-6.79 2.14.26 5 2.06 5.83 3.92 1.22 2.73.5 6.51-3.01 7.35-7.57 1.79-14.84 5.86-23.07 3.62l.24.25zM1381.01 137.06c5.69 10.83 4.99 13.94-5.42 23.94 1.99-8.79 3.55-15.66 5.42-23.94zM1355.01 164.69c-1.69.54-2.61 1.16-3.38 1-1.04-.21-1.97-1.01-2.95-1.55.62-.91 1.24-1.82 1.86-2.74.92.68 1.83 1.35 4.46 3.29z"/>
    <path d="M1019.65 461.85c5.84-3.44 7.16-3.62 11.88.82 19.39 18.24 38.95 36.33 57.89 55.04 14.81 14.62 21.68 33.39 23.95 53.68 1.4 12.52 1.31 25.21 1.9 37.82.45 9.62 1.41 19.25 1.25 28.85-.11 6.86-.91 13.93-2.84 20.49-2.45 8.31-3.03 16.14-.18 24.41 5.96 17.27 3.01 34.91 1.58 52.43-1.78 21.87-3.76 43.73-5.65 65.6-1.26 14.58-2.4 29.16-3.87 43.72-.43 4.27-1.4 8.57-2.8 12.63-3.91 11.34-4.38 22.8-1.99 34.44 1.64 8.03 1.14 15.47-2.67 23.18-7.23 14.61-8.43 30.64-8.69 46.71-.1 6.33-.24 12.65-.28 18.98-.03 4.71-1.72 8.3-7.5 10.98-2.68-7.38-6.07-14.29-7.69-21.58-5.93-26.66-6.29-53.49.07-80.14 2.46-10.29 2.45-20.47 1.06-30.73-3.92-29-8.05-57.97-12.08-86.95-.18-1.3-.59-2.66-.39-3.91 3.51-21.09-1.07-41.73-3.23-62.52-1.47-14.2-2.43-28.47-3.17-42.73-.79-15.41-3.95-30.21-8.72-44.89-2.52-7.75-3.13-16.21-3.94-24.41-.85-8.58-.85-17.24-1.31-25.86-.46-8.53-3.95-15.92-7.91-23.39-2.53-4.78-3.8-10.59-4.24-16.05-.81-9.93.53-20.13-1.07-29.89-2.02-12.31-6.09-24.27-9.37-36.73zM1041.93 185.53c4.59 11.3 9.59 22.46 13.68 33.94 9.43 26.45 14.55 53.93 17.87 81.72 3.75 31.37 7.02 62.8 10.72 94.18.45 3.84 1.55 7.96 3.56 11.21 5.57 9.03 8.34 18.89 9.45 29.19 1.28 11.9 2.03 23.86 2.75 35.82.57 9.41-4.74 13.52-13.8 10.7-2.79-.87-5.58-2.35-7.83-4.21-22.38-18.48-43.72-37.98-61.16-61.42-14.92-20.06-25.18-42.23-30.98-66.49-1.55-6.48-2.03-12.96-.32-19.66 2.87-11.27 4.5-22.89 7.84-34.01 4.39-14.6 9.45-29.05 15.1-43.22 7.14-17.91 15.05-35.53 22.86-53.16 2.24-5.06 5.29-9.76 7.96-14.63.77.02 1.53.03 2.3.05zM1660.47 478.6c5 3.32 2.8 6.56.81 9.71-4.82 7.59-9.52 15.26-14.58 22.69-19.56 28.76-35.19 59.63-48.68 91.58-5.53 13.1-11.76 25.12-24.28 33.23-7.25 4.69-10.78 12.77-11.97 21.21-1.76 12.47-6.45 23.67-12.72 34.39-19.34 33.05-38.7 66.09-57.94 99.21-6.07 10.44-13.45 19.71-21.93 28.33-21.74 22.1-43.43 44.16-68.93 62.11-21.86 15.39-44.49 29.26-69.59 38.75-2.02.77-4.16 1.23-8.81 2.58 5.68-10.14 9.68-18.44 14.74-26.05 10.51-15.8 21.63-31.2 32.41-46.83 3.28-4.75 7.44-6.15 12.9-4.46 15.89 4.92 28.43-.7 37.49-13.57 20.88-29.69 41.24-59.74 61.65-89.75 2.01-2.96 3.48-6.56 4.22-10.06 3.57-16.95 13.51-29.39 27.06-39.4 2.14-1.58 4.24-3.31 6.59-4.51 14.43-7.34 21.57-19.04 22.36-35.19.2-4.07 1.94-8.43 4.09-11.97 8.64-14.19 18.81-27.55 26.42-42.25 17.6-34.03 40.9-63.87 65.36-92.97 6.22-7.39 12.33-14.88 18.57-22.25 1.43-1.68 3.2-3.07 4.77-4.55zM1597.67 357.51c-4.94-24.14-2.97-45.84 10.69-65.18 5.91-8.37 9.72-17.01 11.87-26.98 1.42-6.59 5.33-12.67 8.28-18.91 3.4-7.18 7.74-14.01 10.28-21.47 3.94-11.61 7.03-23.55 9.87-35.5 2.73-11.47 9.26-18.68 20.6-22.01 18.48-5.44 36.86-11.21 55.29-16.83 1.27-.39 2.58-.65 3.88-.92 4.88-1 9.29-.41 12.54 3.88 3.15 4.16 3.47 8.58.88 13.06-9.13 15.81-17.58 32.08-27.69 47.24-17.15 25.72-35.34 50.75-53.16 76.02-2.1 2.98-4.47 5.8-6.96 8.46-17.31 18.41-34.68 36.76-52.05 55.11-.89.94-1.9 1.78-4.31 4.03zM1626.87 189.62c3.86 14.73-2.98 25.89-12.07 34.5-12.52 11.86-19.89 25.13-22.03 42.25-1.48 11.81-9.7 19.43-20.81 23.47-17.83 6.48-33.4 16.59-46.83 29.8-18.13 17.84-33.54 37.99-46.17 59.99-9.49 16.54-11.88 35.19-11.63 54.07.32 24.14-12.92 40.98-28.85 56.46-5-1.88-5.72-5.41-5.28-9.21 3.94-33.53 9.99-66.48 26.47-96.6 2.53-4.62 4.66-9.55 6.29-14.56 5.55-16.98 14.56-32.08 24.74-46.57 10.15-14.44 20.96-28.44 30.45-43.3 9.47-14.83 18.01-30.3 26.29-45.85 4.36-8.2 9.67-14.8 17.81-19.51 17.06-9.87 34.5-18.73 53.77-23.47 2.49-.61 5.06-.95 7.85-1.46zM1271.47 459.49c15.03 3.91 26.78 11.4 36.42 22.69 3.62 4.23 4.66 8.26 1.99 12.58-2.92 4.72-6.15 9.68-10.42 13.05-12.11 9.57-19.63 21.74-22.28 36.7-3.58 20.22-12.19 37.55-25.58 53.24-13.81 16.18-20.58 35.54-19.81 57.17.22 6.32.83 12.77-.15 18.94-.96 6.08-2.49 12.74-5.92 17.63-7.18 10.21-9.43 19.69-.77 29.54-4.56 8.11-13.29 11.79-19.95 7.79-2.61-1.57-4.96-5.72-5.11-8.8-.4-8.26-.74-16.84 1.01-24.83 7.97-36.39 16.24-72.72 25.28-108.86 5.48-21.91 12.48-43.44 18.94-65.09 4.28-14.33 8.69-28.62 13.27-42.86 2.38-7.41 6.49-13.8 13.09-18.89zM1183.4 342.4c6.27 7.06 11.47 12.22 15.85 17.99 12.07 15.89 23.75 32.08 35.67 48.09 7.37 9.9 9.6 20.6 7.39 32.9-4.25 23.74-14.52 44.77-27.34 64.79-.68 1.07-1.85 1.82-2.68 2.61-11.03-3.09-12.91-5.32-12.85-15.81.03-5.65.49-11.3.62-16.95.2-8.26-2.2-15.48-7.3-22.24-2.59-3.43-4.23-8.31-4.49-12.65-1.39-23.3-3.61-46.35-12.13-68.42-1.32-3.42-.92-8 .05-11.69 1.5-5.67 4.17-11.03 7.19-18.64zM1432.94 590.26c6.78 4.06 11.12 7.11 15.83 9.35 5.91 2.81 11.75 4.26 16.84-2.37 2.4-3.12 3.06-2.62 8.02 1.43-1.77 1.12-3.32 2.92-4.91 2.95-6.68.13-9.59 4.44-12.81 9.44-9.22 14.37-14.57 29.78-14.83 46.93-.04 2.91-.86 5.8-1.33 8.79-7.48-2.33-7.62-2.47-14.34-14.77 8.88-10.5 9.28-23.43 8.57-36.58-.55-10.28-1.31-20.54-1.87-30.82-.53-9.67.5-18.74 9.98-24.36 1.11-.66 2.34-1.51 2.91-2.59 5.6-10.53 10.88-21.23 16.64-31.67 4.65-8.42 9.41-16.86 14.93-24.71 4.98-7.09 10.18-13.86 13.01-22.25 3.07-9.1 10.1-13.82 19.39-15.07 8.31-1.13 12.73 4.24 10.11 12.25-.92 2.81-2.47 5.44-3.96 8.03-12.75 22.22-25.53 44.43-38.34 66.62-5.94 10.29-13.45 18.49-24.74 23.69-6.58 3.03-11.64 9.38-19.11 15.7zM1392.3 358.08c11.05 12.23 12.67 25.15 10.77 38.77-2.92 20.84-9.13 40.83-16.91 60.32-3.96 9.91-11.55 17.07-20.11 22.9-7.5 5.12-15.91 2.67-20.37-5.3-4.16-7.43-4.89-15.16-.15-22.66 7.28-11.5 14.57-23.01 22.23-34.26 4.21-6.18 7.94-12.31 7.35-20.12-1.22-16.06 8.16-27.3 17.2-39.65zM1125.08 367.24c7.64 30.96 14.63 61.07 22.62 90.91 4.37 16.32 10.64 32.12 15.62 48.3 2.42 7.89 4.42 16.01 5.55 24.17 1.22 8.8-5.58 13.7-14.02 10.9-16.04-5.32-27.15-24.81-23.42-41.67 2.23-10.07 5.49-20.02 2.23-30.41-1.68-5.38-3.46-10.77-5.8-15.88-3.92-8.57-6-17.35-6.91-26.81-1.04-10.82-3.68-21.56-6.48-32.1-3.29-12.42-1.27-19.37 10.61-27.4zM1147.69 732.24c-3.18-2.68-5.72-3.75-6.13-5.36-.96-3.79-1.68-7.95-1.12-11.76 5.43-37.12 4.79-74.06-1.22-111.11-1.67-10.27-.48-21.14.44-31.65.57-6.54 6.07-8.66 11.49-4.98 2.62 1.78 4.73 4.62 6.44 7.38 10.75 17.33 14.85 36.17 11.58 56.35-4.35 26.88-8.77 53.75-13.71 80.52-1.17 6.35-4.56 12.3-7.77 20.61zM1325.75 818.85c11.17-9.25 22.2-16.88 31.38-26.3 16.97-17.43 25.21-39.58 30.31-62.99 2.07-9.53 8.65-14.72 18.24-14.36 6.61.25 8.72 1.97 8.1 8.39-.5 5.22-1.67 10.56-3.59 15.43-13.14 33.24-32.73 62.3-57.93 87.56-3.33 3.34-6.98 5.99-6.56 11.53.08 1.06-2.58 2.33-3.98 3.51-.59-.48-1.18-.96-1.76-1.44 1.16-2.8 2.33-5.61 3.67-8.85-5.52-5.11-13.23-7.74-17.88-12.49zM1062.84 158.83c1.04-1.31 2.09-3.86 3.73-4.32 1.64-.46 4.56.62 5.7 2.01 3.13 3.85 5.99 8.03 8.28 12.43 6.26 12.09 12.14 24.37 18.24 36.54 1.18 2.36 2.32 4.88 4.06 6.79 10.83 11.89 16.97 26.1 20.9 41.43 2.97 11.59 5.87 23.2 8.76 34.82.4 1.59 1.16 3.52.62 4.82-.94 2.27-2.41 5.3-4.33 5.91-1.97.63-5.19-.69-7.03-2.19-1.6-1.3-2.02-4.04-2.97-6.14-9.18-20.28-18.51-40.5-27.49-60.86-8.58-19.46-16.88-39.04-25.1-58.65-1.53-3.64-2.09-7.68-3.37-12.58zM1285.82 624.08c.97-4.51 1.69-9.1 2.96-13.53 4.05-14.05 8.34-28.03 12.48-42.05 3.07-10.39 3.04-10.41-2.87-18.92.53-4.9 3.72-7.45 7.94-9.24 7.36-3.13 11.53-8.07 11.54-16.77 0-7.77 7.6-12.96 15.29-11.67 6.96 1.17 10.83 6.84 8.93 14.81-1.83 7.69-3.76 15.64-7.4 22.55-9.13 17.34-18.72 34.5-29.21 51.05-5.45 8.6-13.19 15.74-19.89 23.54l.24.23zM1239.18 757.8c3.56 7.12.84 12.56-1.56 18.02-3.32 7.56-6.47 15.21-10.1 22.63-3.49 7.14-7.43 14.05-11.28 21.01-1.91 3.45-4.27 6.67-6.03 10.19-3.58 7.18-9.06 11.86-17.6 14.97-1.92-6.39-3.59-11.94-5.51-18.31 7.23-.75 13.67-1.42 20.78-2.16 3.27-15.18 3.71-31.93 22.19-39.47-12.13-5.21-23-9.88-33.86-14.54-.02-.67-.05-1.34-.07-2.01 14.13-3.39 28.25-6.78 43.04-10.33zM1285.58 623.85c3.6 13.29 2.9 25.54-7.69 35.93-5.37 5.26-7.58 12.28-9.21 19.54-2.69 11.94-5.44 14.22-18.22 16.17-2.84-4.14-2.64-8.64-.98-13.1 5.2-14 10.09-28.15 16.01-41.85 3.72-8.62 9.66-15.8 20.34-16.45l-.24-.22zM1423.14 687.74c-14.41 10.36-28.84 11.32-44.46 9.23-3.19-15.51 4.59-27.14 12.19-39.98 16.12 5.1 19.32 22.36 32.27 30.75zM1528.85 411.07c6.07-1.25 11.45-2.37 17.83-3.69.21-4.48.56-8.99.6-13.49.1-11.9 2.63-22.95 10.39-32.42 4.47-5.46 8.85-5.2 12 .97.3.59.63 1.18.83 1.8 3.83 11.97-5.92 36.66-17.12 42.62-3.02 1.61-5.64 2.88-6.81 6.51-1.44 4.48-3.61 9.31-9.4 8.45-5.26-.78-6.56-5.62-8.33-10.74zM1344.72 642.73c2.96-17.16 11.55-32.38 16.76-48.76 3.12-9.79 5.34-19.88 7.98-29.82 2.23-8.37 4.54-10.16 14.03-9.96-.97 4.94-1.4 9.87-2.94 14.42-6.4 18.88-13.02 37.68-19.81 56.42-2.89 7.98-7.27 14.94-16.15 17.57l.13.13zM1426.73 762.12c3.86-25.39 16.53-44.56 31.51-63.51 1.47 15.41-16.59 52.29-31.51 63.51zM1288.5 883.06c8.14-20.28 16.9-25.38 42.36-23.89-.71 2.21-.75 4.91-2.11 6.04-3.49 2.91-7.29 5.8-11.46 7.49-9.34 3.8-18.97 6.88-28.79 10.36z"
          fill="transparent"/>
    <path d="M1500.44 392.95c2.2-10.99 6.01-21.17 14.42-29.08 8.11 4.06 9.57 8.32 4.25 14.3-5.17 5.81-11.18 10.86-16.82 16.25-.62-.49-1.23-.98-1.85-1.48zM1279.03 803.79c-2.15-14.28-1.52-26.09 6.78-37.1 6.6 10.29 4.32 23.59-6.78 37.1zM1000.06 654.11h19.17c1.63 4.82.53 9.24-3.78 10.94-3.64 1.44-8.6 1.71-12.25.43-4.85-1.7-4.47-6.59-3.15-11.38zM1132.66 969.42c-12.31-1.5-15.25-4.54-14.4-14.09.4-4.47 1.41-8.89 3.88-13.85 1.72 4.36 3.5 8.71 5.15 13.09 1.73 4.58 3.34 9.21 5.37 14.84zM1152.93 344.13c-9.11.82-13.72-2.84-12.85-10.13.24-1.99 1.71-4.96 3.21-5.39 2.09-.6 5.45 0 7.03 1.44 3.94 3.58 4.73 8.39 2.61 14.08zM1150.32 997.72c-3.88 3.66-6.49 7.89-11.39 3.77-3.97-3.34-3.69-6.11 1.71-15.52 3.21 3.89 6.18 7.51 9.68 11.76zM1344.59 642.6c.96 10.09-.25 12.61-7.75 16.14-2.26-4.23-.37-7.51 2.45-10.51 1.76-1.87 3.66-3.63 5.46-5.47a2.35 2.35 0 00-.16-.16zM1360.48 731.9c2.86 2.56 5.72 5.12 9.4 8.42-2.7 1.66-4.69 2.88-6.96 4.27-2.65-4-4.75-7.42-5-11.47.85-.41 1.71-.82 2.56-1.22zM1324.64 697.8c1.9 3.02 4.89 5.44.82 7.8-2.54 1.47-6.18 2.5-7.38-1.49-1.45-4.83 3.24-4.64 6.56-6.31zM1118.48 1005.11c-4.84 3.53-8.55 6.82-13.45.36 4.44-3.04 8.07-6.05 13.45-.36zM1177.86 889.25c-.26-4.91-.52-9.82-.79-14.96 6.37 1.36 6.78 4.14 2.99 14.95-.73 0-1.47 0-2.2.01zM1421.62 266.97c.73-2.29 1.45-4.57 2.18-6.86l1.32.03c.16 1.65.56 3.33.4 4.95-.1 1.01-1.07 1.93-1.65 2.89l-2.25-1.01z"
          fill="transparent"/>
</svg>