<svg xmlns="http://www.w3.org/2000/svg" width="2351" height="2351">
    <path d="M2351 2351H0V0h2351v2351zM1128.55 530.77h.03c.84-.39 2.01-.56 2.49-1.22 8.11-11.32 19.52-16.56 32.94-18.54 15.14-2.23 30.27-4.59 45.33-7.31 16.49-2.99 32.1-8.75 46.8-16.79 8.38-4.58 9.19-8.33 3.76-17.57-6.08 1.27-12.64 2.26-18.97 4.04-21.52 6.06-43.24 11.38-65.64 12.04-11.63.34-22.32 3.21-32.88 7.36-22.87 8.98-43.49 21.66-61.67 38.17-12.86 11.68-24.74 24.25-33.56 39.4-11.88 20.4-16.22 42.01-10.43 65.23 2.68 10.77 4.71 21.78.98 32.49-5.54 15.91-5.15 32.09-3.85 48.39 1.33 16.77 5.38 32.69 14.14 47.4 3.11 5.22 4.46 11.66 5.77 17.73 1.96 9.08 2.67 18.44 4.83 27.47 2.94 12.29 6.71 24.38 10.21 36.53 1.36 4.72 1.48 9.28.11 14.62-15.29-17.2-29.69-33.34-44.03-49.53-21.35-24.09-34.19-52.33-39.31-83.89-3.14-19.35-5.46-38.89-6.86-58.44-2.03-28.16-5.49-56.34-1.33-84.66 2.81-19.14 5.59-38.3 13.64-56.06 27.11-59.86 70.67-103.43 130.77-130.06 9.02-3.99 18.97-6.02 28.63-8.37 8.06-1.96 16.33-3.13 24.53-4.5 7.59-1.27 11.55-5.78 12.76-13.19-3.84-4.83-8.7-6.61-14.3-5.49-17.6 3.53-35.8 5.43-52.59 11.32-58.06 20.37-106.29 54.75-141.83 105.59-32.32 46.23-45.98 96.82-35.31 153.17 2.4 12.66 3.16 25.74 3.39 38.65.15 8.69-1.95 17.41-3.2 27.34-8.11-9.18-24.61-37.05-29.08-50.51-10.37-31.25-21.09-62.43-30-94.1-11.55-41.07-12.99-82.58-1.33-124.19 14.25-50.86 46.4-82.81 98.32-93.82 21.15-4.49 42.62-7.44 63.81-11.77 13.32-2.72 26.44-6.51 39.55-10.19 5.9-1.66 9.5-5.72 9.33-12.19-3.74-4.32-8.28-5.84-13.57-5.46-4.31.31-8.64.41-12.93.94-34.11 4.14-67.44 12.12-100.72 20.37-29.21 7.24-54.17 21.62-74.69 43.78-30.92 33.39-49.3 71.64-46.51 118.22 1.19 19.91 2.05 39.87 4.08 59.7 2.38 23.23 7.42 45.95 16.29 67.71 9.43 23.12 18.37 46.44 28.18 69.4 5.47 12.81 12.05 25.16 18.55 37.5 5.43 10.3 11.25 20.42 17.31 30.37 7.08 11.63 14.34 23.17 22.02 34.41 5.81 8.52 12.41 16.5 18.63 24.75 24.47 32.47 49.24 64.68 78.15 93.42 1.64 1.63 3.68 3.35 4.32 5.4.79 2.56 1.23 6.02.06 8.12-.76 1.36-4.89 1.85-7.07 1.21-4.43-1.29-8.59-3.55-12.81-5.5-27.76-12.84-56.71-23.5-81.69-41.64-19.66-14.28-39.03-29.02-57.85-44.39-27.23-22.23-51.27-47.68-70.78-76.97-13.64-20.48-25.65-42.05-38.68-62.94-19.39-31.08-39.31-61.82-58.49-93.03-19.1-31.08-29.56-64.66-26.77-101.61.5-6.63 1.18-13.25 1.6-19.88.29-4.64.92-9.51-4.36-12.24-5.43-2.81-9.61-.23-13.58 3.12-9.6 8.1-13.33 18.88-13.67 30.99-.27 9.66-.16 19.33-.05 28.99.23 19.55 3.74 38.4 12.7 55.97 6.2 12.16 12.51 24.26 18.89 36.33 1.06 2 2.31 4.37 4.13 5.42 11.37 6.52 17.04 17.39 22.75 28.4 3.05 5.89 6.57 11.57 10.28 17.08 9.45 14.07 19.75 27.62 28.52 42.09 9.83 16.21 18.55 33.11 27.4 49.89 7.5 14.23 15.88 27.64 28.03 38.53 7.68 6.87 14.57 14.61 21.98 21.79 48.25 46.78 101.89 85.54 164.41 111.36 28.07 11.59 54.5 26.33 79.67 43.41 11.26 7.64 23.15 14.47 35.18 20.87 13.52 7.19 28.03 10.16 43.5 7.84 4.5-.67 9.46-.53 13.85.6 31.19 8.04 60.23 1.6 87.66-13.38 24.44-13.35 50.1-18.02 77.83-17.21 31.24.91 62.66.67 93.81-1.68 23.78-1.79 47.3-7.35 70.84-11.78 38.92-7.32 78-14.01 116.56-22.94 37.25-8.62 73.86-19.94 110.86-29.65 20.96-5.5 39.51-15.68 57.29-27.55 4.12-2.75 7.94-6.11 11.38-9.68 10.54-10.91 15.04-24.46 14.42-39.25-.61-14.59-2.12-29.19-4.23-43.65-7.04-48.3-18.6-95.54-39.67-139.7-14.17-29.69-31.1-58.07-46.87-87-1.26-2.32-2.96-4.45-4.74-6.42-7.6-8.41-16.8-9.91-27.28-6.3-10.1 3.47-15.69 10.29-16.97 21.18 13.65 6.77 23.25 17.19 30.25 30.02 4.15 7.59 7.87 15.41 11.57 23.23 8.98 18.95 17.18 38.34 29.7 55.35 5.26 7.15 8.49 14.99 10.35 23.54 4.52 20.81 9.35 41.55 13.55 62.42 4.98 24.75 10.94 49.32 9.91 75-.88 21.98-6.95 32.38-28.17 39.44-19.54 6.5-39.34 12.49-59.39 17.15-30.68 7.13-60.73 18.1-92.92 17.17-1.31-.04-2.63.38-3.94.65-18.21 3.9-36.48 7.54-54.61 11.79-59.6 13.96-119.98 20.72-181.17 20.49-5.2-.02-10.42-.04-16.36-2.87 5.45-5.33 11.39-7.11 17.24-8.94 42.22-13.24 84.33-26.85 126.74-39.48 25.09-7.47 48.63-17.99 71.06-31.27 38.08-22.54 61.96-55.12 68.23-99.23 2.9-20.36 3.9-41.02 5.16-61.58.83-13.61.56-27.3.8-40.95.36-21 .61-42.06-4.65-62.57-5.47-21.31-9.88-42.75-12.5-64.62-5.07-42.23-24.47-76.96-56.47-104.76-2.99-2.6-6.07-5.51-9.64-6.97-23.46-9.6-47.36-18.11-72.89-19.75-14.91-.96-29.93-.13-44.9-.19-7.65-.03-15.32-.72-22.94-.28-29.83 1.72-58.68-2.66-85.48-15.81-26.55-13.04-53.82-13.22-81.87-8.21-1.62.29-3.73.36-4.69 1.39-2.34 2.52-5.83 5.64-5.67 8.33.17 2.82 3.85 5.64 6.41 8.01 1.04.96 3.15.83 4.8 1.05 9.23 1.25 18.48 2.34 27.7 3.71 8.86 1.31 18.24 1.43 26.43 4.59 31.68 12.22 60.98 29.04 84.35 53.91 20.48 21.81 39.05 45.42 58.35 68.33 1.81 2.15 2.8 4.99 4.17 7.51l-1.3 1.86c-4.19-1.52-8.62-2.58-12.51-4.65-14.32-7.62-29.52-12.48-45.6-13.68-24.88-1.84-49.82-2.97-74.74-4.27-7.48-.39-12.36 4.47-16.53 9.67-3.23 4.02-1.71 8.4 3.37 10.33 3.36 1.28 7.09 1.81 10.7 2.18 26.81 2.73 53.59 5.81 80.45 7.86 28.91 2.21 55.45 32.94 55.56 60.34.05 11.56-.78 23.4-3.3 34.64-5.89 26.28-12.79 52.35-19.77 78.37-5.38 20.02-15.35 37.71-30.89 51.6-10.65 9.52-22.17 18.08-33.41 26.94-5.17 4.07-11.39 4.92-18.46 5.44-3.36-12.53-5.56-25.08-3.37-37.54 3.25-18.49-.26-34.97-10.83-50.24-4.89-7.07-6.99-14.88-6.43-23.6 2.31-36.13-9.63-68.91-25.07-100.53-9.64-19.73-25.95-31.68-48.02-35.19-3.26-.52-6.63-1.27-9.55-2.73-14.77-7.36-30.68-11.23-46.62-14.39-13.62-2.7-27.64-3.88-41.55-4.53-7.83-.37-15.78 1.7-23.67 2.68z"
          fill="transparent"/>
    <path d="M1128.55 530.77c7.9-.97 15.84-3.04 23.67-2.68 13.9.65 27.92 1.83 41.55 4.53 15.94 3.16 31.86 7.03 46.62 14.39 2.92 1.45 6.3 2.21 9.55 2.73 22.07 3.51 38.38 15.46 48.02 35.19 15.44 31.62 27.38 64.4 25.07 100.53-.56 8.72 1.54 16.54 6.43 23.6 10.57 15.28 14.08 31.75 10.83 50.24-2.19 12.46 0 25.01 3.37 37.54 7.07-.52 13.3-1.37 18.46-5.44 11.24-8.86 22.76-17.41 33.41-26.94 15.54-13.9 25.51-31.58 30.89-51.6 6.99-26.02 13.88-52.09 19.77-78.37 2.52-11.24 3.35-23.08 3.3-34.64-.11-27.39-26.65-58.13-55.56-60.34-26.86-2.05-53.65-5.13-80.45-7.86-3.61-.37-7.34-.9-10.7-2.18-5.08-1.93-6.59-6.31-3.37-10.33 4.17-5.19 9.05-10.06 16.53-9.67 24.92 1.3 49.86 2.43 74.74 4.27 16.09 1.19 31.28 6.06 45.6 13.68 3.89 2.07 8.33 3.13 12.51 4.65l1.3-1.86c-1.37-2.52-2.36-5.36-4.17-7.51-19.3-22.91-37.87-46.52-58.35-68.33-23.36-24.88-52.66-41.69-84.35-53.91-8.19-3.16-17.57-3.28-26.43-4.59-9.21-1.36-18.47-2.46-27.7-3.71-1.65-.22-3.76-.09-4.8-1.05-2.56-2.37-6.24-5.19-6.41-8.01-.16-2.69 3.33-5.81 5.67-8.33.96-1.03 3.07-1.1 4.69-1.39 28.06-5.01 55.32-4.82 81.87 8.21 26.8 13.16 55.65 17.54 85.48 15.81 7.61-.44 15.29.25 22.94.28 14.97.06 29.99-.77 44.9.19 25.53 1.64 49.43 10.15 72.89 19.75 3.57 1.46 6.64 4.37 9.64 6.97 32.01 27.8 51.4 62.53 56.47 104.76 2.63 21.87 7.04 43.31 12.5 64.62 5.26 20.51 5.01 41.57 4.65 62.57-.24 13.65.03 27.33-.8 40.95-1.25 20.56-2.26 41.22-5.16 61.58-6.27 44.11-30.15 76.69-68.23 99.23-22.43 13.28-45.97 23.8-71.06 31.27-42.41 12.63-84.52 26.24-126.74 39.48-5.85 1.83-11.79 3.61-17.24 8.94 5.94 2.83 11.16 2.85 16.36 2.87 61.19.24 121.58-6.53 181.17-20.49 18.13-4.25 36.4-7.88 54.61-11.79 1.3-.28 2.63-.69 3.94-.65 32.2.92 62.24-10.04 92.92-17.17 20.05-4.66 39.84-10.65 59.39-17.15 21.21-7.05 27.28-17.46 28.17-39.44 1.03-25.68-4.92-50.24-9.91-75-4.2-20.87-9.03-41.61-13.55-62.42-1.86-8.55-5.09-16.39-10.35-23.54-12.51-17.02-20.71-36.41-29.7-55.35-3.71-7.82-7.43-15.64-11.57-23.23-7.01-12.82-16.6-23.25-30.25-30.02 1.28-10.89 6.87-17.71 16.97-21.18 10.48-3.6 19.68-2.1 27.28 6.3 1.78 1.97 3.47 4.1 4.74 6.42 15.77 28.93 32.69 57.31 46.87 87 21.08 44.15 32.63 91.4 39.67 139.7 2.11 14.45 3.62 29.06 4.23 43.65.62 14.79-3.89 28.34-14.42 39.25-3.45 3.57-7.26 6.93-11.38 9.68-17.78 11.87-36.33 22.05-57.29 27.55-37 9.71-73.62 21.03-110.86 29.65-38.56 8.92-77.64 15.62-116.56 22.94-23.54 4.42-47.06 9.98-70.84 11.78-31.15 2.35-62.57 2.59-93.81 1.68-27.72-.81-53.39 3.87-77.83 17.21-27.42 14.98-56.47 21.43-87.66 13.38-4.4-1.13-9.35-1.28-13.85-.6-15.47 2.32-29.98-.65-43.5-7.84-12.03-6.4-23.91-13.22-35.18-20.87-25.17-17.08-51.6-31.82-79.67-43.41-62.52-25.81-116.16-64.57-164.41-111.36-7.41-7.18-14.3-14.92-21.98-21.79-12.15-10.89-20.53-24.3-28.03-38.53-8.85-16.78-17.57-33.68-27.4-49.89-8.78-14.47-19.08-28.02-28.52-42.09-3.7-5.51-7.22-11.19-10.28-17.08-5.71-11.01-11.39-21.88-22.75-28.4-1.82-1.05-3.07-3.42-4.13-5.42-6.38-12.07-12.69-24.17-18.89-36.33-8.96-17.57-12.47-36.42-12.7-55.97-.11-9.66-.23-19.33.05-28.99.34-12.11 4.08-22.9 13.67-30.99 3.97-3.35 8.15-5.93 13.58-3.12 5.28 2.73 4.65 7.6 4.36 12.24-.42 6.63-1.1 13.25-1.6 19.88-2.79 36.95 7.67 70.53 26.77 101.61 19.18 31.21 39.1 61.95 58.49 93.03 13.03 20.9 25.04 42.46 38.68 62.94 19.51 29.28 43.55 54.74 70.78 76.97 18.82 15.36 38.19 30.11 57.85 44.39 24.98 18.14 53.92 28.8 81.69 41.64 4.23 1.95 8.38 4.21 12.81 5.5 2.18.63 6.32.15 7.07-1.21 1.16-2.1.73-5.56-.06-8.12-.63-2.05-2.67-3.77-4.32-5.4-28.91-28.75-53.69-60.96-78.15-93.42-6.22-8.25-12.82-16.23-18.63-24.75-7.67-11.24-14.94-22.78-22.02-34.41-6.06-9.95-11.88-20.07-17.31-30.37-6.5-12.34-13.08-24.69-18.55-37.5-9.81-22.95-18.75-46.28-28.18-69.4-8.88-21.75-13.91-44.48-16.29-67.71-2.03-19.83-2.88-39.79-4.08-59.7-2.79-46.58 15.58-84.83 46.51-118.22 20.52-22.16 45.48-36.54 74.69-43.78 33.28-8.24 66.62-16.22 100.72-20.37 4.28-.52 8.62-.63 12.93-.94 5.29-.38 9.83 1.14 13.57 5.46.17 6.47-3.43 10.53-9.33 12.19-13.11 3.68-26.23 7.47-39.55 10.19-21.19 4.33-42.66 7.28-63.81 11.77-51.92 11.02-84.07 42.96-98.32 93.82-11.66 41.61-10.22 83.13 1.33 124.19 8.91 31.68 19.62 62.86 30 94.1 4.47 13.46 20.97 41.33 29.08 50.51 1.25-9.93 3.35-18.65 3.2-27.34-.23-12.91-.99-25.99-3.39-38.65-10.67-56.36 2.99-106.94 35.31-153.17 35.54-50.85 83.77-85.22 141.83-105.59 16.79-5.89 35-7.79 52.59-11.32 5.6-1.12 10.46.65 14.3 5.49-1.21 7.4-5.16 11.92-12.76 13.19-8.2 1.37-16.46 2.54-24.53 4.5-9.66 2.35-19.62 4.37-28.63 8.37-60.1 26.63-103.66 70.2-130.77 130.06-8.04 17.76-10.83 36.92-13.64 56.06-4.16 28.32-.7 56.5 1.33 84.66 1.41 19.55 3.72 39.09 6.86 58.44 5.12 31.56 17.96 59.8 39.31 83.89 14.34 16.19 28.74 32.33 44.03 49.53 1.38-5.34 1.25-9.9-.11-14.62-3.49-12.15-7.26-24.24-10.21-36.53-2.16-9.02-2.87-18.39-4.83-27.47-1.31-6.07-2.67-12.51-5.77-17.73-8.76-14.72-12.81-30.64-14.14-47.4-1.29-16.3-1.69-32.49 3.85-48.39 3.73-10.71 1.71-21.72-.98-32.49-5.79-23.22-1.44-44.83 10.43-65.23 8.82-15.15 20.7-27.72 33.56-39.4 18.18-16.52 38.8-29.19 61.67-38.17 10.57-4.15 21.26-7.01 32.88-7.36 22.41-.66 44.12-5.98 65.64-12.04 6.33-1.78 12.88-2.77 18.97-4.04 5.43 9.24 4.61 12.99-3.76 17.57-14.7 8.03-30.31 13.8-46.8 16.79-15.06 2.73-30.19 5.09-45.33 7.31-13.42 1.98-24.83 7.22-32.94 18.54-.47.66-1.64.83-2.48 1.23-6.45 5.65-12.77 11.47-19.39 16.92-15.81 13.04-27.32 29.01-33.72 48.54-4.61 14.05-5.58 28.59-6.62 43.25-2.32 32.69-1.25 65.16 4.18 97.45 2.48 14.76 5.52 29.42 8.65 44.06 2.84 13.3 5.23 26.79 9.46 39.67 6.84 20.85 14.33 41.56 22.98 61.71 3.54 8.25 10.2 15.5 16.64 22.02 3.08 3.13 8.92 4.73 13.57 4.86 8.25.24 16.64-.65 24.82-1.98 20-3.25 37.39-11.69 50.62-27.53 7.26-8.69 14.57-17.34 21.59-26.22 22.23-28.17 38.38-59.06 42.89-95.28.65-5.18 3.34-10.07 4.56-15.23 1.28-5.4 3.03-11.04 2.64-16.43-.97-13.29-5.68-25.35-15.76-34.6-5.39-4.94-11.25-9.36-16.87-14.05-11.49-9.56-24.33-11.41-38.43-7.09-7.63 2.34-15.36 4.36-23.11 6.26-4.39 1.07-9.11 1.18-11.06-3.92-1.93-5.04 1.91-7.91 5.41-10.59.52-.4 1.15-.67 1.74-.97 20.62-10.06 41.88-16.97 65.34-14.47 6.51.69 13.15.11 19.62.11 4.85-10.37 4.05-20.17.28-29.7-3.05-7.72-7.13-15.02-10.52-22.61-5.19-11.62-13.87-19.22-25.78-23.48-30.09-10.77-60.24-21.37-92.19-25.35-10.06-1.25-17.57-5.77-21.58-15.37zm255.32 363.95c13.53 4.35 26.43 1.33 39.11-2.42 14.66-4.33 28.97-9.95 43.74-13.83 33.25-8.73 63.53-23.82 92.1-42.4 24.87-16.17 40.58-39.16 45.86-68.57 2.05-11.43 2.98-23.1 3.85-34.7 1.26-16.88 3.8-33.74 1.24-50.75-3.53-23.43-4.42-47.01-4.1-70.67.08-5.64-.41-11.33-1.08-16.94-3.17-26.51-9.54-52.33-16.83-77.96-5.53-19.45-14.45-37.16-26.65-53.24-13.23-17.44-29.61-30.65-51.1-36.33-7.35-1.94-15.05-2.52-22.59-3.73-23.78-3.83-47.74-3.8-71.71-3.09-3.81.11-7.59 1.11-12.55 1.87 1.81 2.42 2.63 3.83 3.74 4.95 6.79 6.86 13.56 13.75 20.49 20.46 7.17 6.94 15.19 13.11 21.67 20.62 33.37 38.71 62.06 80.76 87.26 125.19 4.24 7.48 7.94 15.46 10.56 23.64 9.86 30.74 2.42 57.35-21.51 78.68-11.13 9.92-23.28 18.92-35.88 26.89-27.71 17.51-47.91 40.46-59.02 71.75-12.03 33.89-25.48 67.26-45.6 97.44-.51.77-.6 1.82-1 3.14zm-78.71 13.35c18.27 8 33.64 2.91 42.35-7.79 1.68-2.06 3.47-4.04 5.12-6.13 21.88-27.91 36.18-59.6 46.45-93.29.41-1.34.05-2.91.05-5.62-46.15 26.41-78.32 62.64-93.97 112.83zm184.15-326.77c-7.55-.17-8.05 3.86-7.65 9.17 1.66 21.93-1.16 43.05-11.92 62.67-1.08 1.97-2.15 4.47-1.9 6.56 1.54 12.69-2.47 24.28-6.55 35.89-1.93 5.5-2.09 10.81 1.48 16.51 6.9-3.81 13.56-7.44 20.19-11.15 11.39-6.38 19.41-16.08 25.64-27.21 7.33-13.09 9.29-27.06 3.36-41.18-7.18-17.11-14.97-33.96-22.65-51.26zm-260.43 334.95c7.45 1.54 13.43 3.28 19.51 3.85 3.78.35 8.25-.11 11.49-1.89 10.99-6.02 19.87-14.45 24.57-26.36 1.72-4.36 4.04-9 1.81-14.41-23.65 5.61-41.12 19.5-57.39 38.82zm56.63-81.96c18.04-1.68 28.01-13.31 26.63-28.81-.43-4.87-2.85-7.81-8.67-8.79-5.82 12.19-11.61 24.3-17.96 37.61zm-23.42 131.84c-15.13-5.89-29.66-.94-33.81 11.07 12.91 1.53 23.62-2.57 33.81-11.07zm-80.66-2.33c.13 1.07.27 2.14.4 3.2 3.03 1.1 6.03 2.08 9.41-4.13-4.44.42-7.12.67-9.8.93z"/>
    <path d="M1128.55 530.77c4 9.6 11.52 14.12 21.58 15.37 31.95 3.97 62.09 14.57 92.19 25.35 11.9 4.26 20.58 11.86 25.78 23.48 3.39 7.59 7.48 14.89 10.52 22.61 3.76 9.53 4.56 19.33-.28 29.7-6.47 0-13.11.59-19.62-.11-23.47-2.49-44.72 4.42-65.34 14.47-.6.29-1.22.57-1.74.97-3.5 2.67-7.35 5.55-5.41 10.59 1.96 5.1 6.67 4.99 11.06 3.92 7.75-1.9 15.48-3.92 23.11-6.26 14.11-4.32 26.94-2.47 38.43 7.09 5.63 4.68 11.49 9.1 16.87 14.05 10.08 9.25 14.79 21.32 15.76 34.6.39 5.39-1.36 11.03-2.64 16.43-1.22 5.15-3.92 10.04-4.56 15.23-4.52 36.21-20.66 67.11-42.89 95.28-7.01 8.89-14.33 17.53-21.59 26.22-13.23 15.84-30.62 24.28-50.62 27.53-8.18 1.33-16.57 2.22-24.82 1.98-4.65-.13-10.48-1.74-13.57-4.86-6.44-6.53-13.1-13.77-16.64-22.02-8.65-20.15-16.13-40.86-22.98-61.71-4.22-12.87-6.62-26.37-9.46-39.67-3.13-14.64-6.17-29.3-8.65-44.06-5.43-32.29-6.5-64.77-4.18-97.45 1.04-14.66 2.01-29.2 6.62-43.25 6.4-19.53 17.91-35.5 33.72-48.54 6.62-5.45 12.94-11.27 19.39-16.92l-.03-.01zM1383.87 894.72c.41-1.32.49-2.38 1-3.14 20.12-30.18 33.56-63.56 45.6-97.44 11.11-31.29 31.31-54.24 59.02-71.75 12.61-7.97 24.76-16.97 35.88-26.89 23.93-21.33 31.38-47.94 21.51-78.68-2.62-8.17-6.32-16.16-10.56-23.64-25.2-44.42-53.89-86.47-87.26-125.19-6.48-7.52-14.5-13.68-21.67-20.62-6.93-6.71-13.71-13.59-20.49-20.46-1.11-1.12-1.93-2.54-3.74-4.95 4.95-.77 8.74-1.76 12.55-1.87 23.97-.7 47.93-.73 71.71 3.09 7.54 1.21 15.24 1.79 22.59 3.73 21.49 5.68 37.87 18.89 51.1 36.33 12.2 16.08 21.12 33.79 26.65 53.24 7.29 25.63 13.66 51.45 16.83 77.96.67 5.61 1.15 11.3 1.08 16.94-.32 23.66.56 47.25 4.1 70.67 2.56 17 .03 33.87-1.24 50.75-.87 11.6-1.8 23.27-3.85 34.7-5.27 29.41-20.99 52.4-45.86 68.57-28.57 18.58-58.85 33.67-92.1 42.4-14.77 3.88-29.08 9.5-43.74 13.83-12.69 3.75-25.58 6.77-39.11 2.42z"
          fill="transparent"/>
    <path d="M1305.16 908.07c15.65-50.19 47.83-86.42 93.97-112.83 0 2.71.36 4.28-.05 5.62-10.27 33.69-24.57 65.38-46.45 93.29-1.64 2.09-3.43 4.07-5.12 6.13-8.72 10.7-24.08 15.79-42.35 7.79zM1489.31 581.29c7.68 17.31 15.47 34.16 22.65 51.26 5.93 14.13 3.97 28.09-3.36 41.18-6.23 11.13-14.24 20.84-25.64 27.21-6.62 3.71-13.29 7.34-20.19 11.15-3.57-5.7-3.41-11.01-1.48-16.51 4.07-11.61 8.08-23.2 6.55-35.89-.25-2.09.81-4.59 1.9-6.56 10.76-19.62 13.58-40.74 11.92-62.67-.4-5.31.1-9.35 7.65-9.17zM1228.89 916.24c16.27-19.32 33.74-33.21 57.39-38.82 2.22 5.41-.09 10.05-1.81 14.41-4.7 11.91-13.58 20.35-24.57 26.36-3.24 1.78-7.71 2.24-11.49 1.89-6.08-.56-12.06-2.31-19.51-3.85zM1285.52 834.28c6.36-13.31 12.14-25.41 17.96-37.61 5.82.98 8.24 3.92 8.67 8.79 1.38 15.5-8.6 27.14-26.63 28.81zM1262.1 966.12c-10.19 8.49-20.89 12.59-33.81 11.07 4.15-12 18.68-16.95 33.81-11.07zM1181.44 963.79c2.68-.25 5.36-.51 9.8-.93-3.37 6.21-6.38 5.24-9.41 4.13-.13-1.07-.27-2.14-.4-3.2z"
          fill="transparent"/>
</svg>