<svg xmlns="http://www.w3.org/2000/svg" width="2351" height="2351">
    <path d="M2351 2351H0V0h2351v2351zM1335.62 834.1l-2.29-.45c-1.36-5.01-3.05-9.96-4.03-15.04-2.68-13.85-8.5-26.1-19.23-35.29-8.29-7.1-17.48-13.16-26.31-19.62-9.54-6.98-20.31-9.33-32.03-9.06-11.98.28-23.98.04-35.96-.38-9.28-.32-14.68-4.65-16.09-13.33-1.71-10.48-3.04-21.06-3.79-31.65-1.18-16.58-1.61-33.21-2.6-49.81-.57-9.52.67-12.79 9.07-16.64 21.46-9.85 37.89-25.79 52.54-43.66 4.99-6.08 8.34-13.53 12.16-20.51 1.3-2.38 1.58-5.19-3.13-7.13-7.21 5.79-14.82 12.11-22.65 18.16-11.83 9.14-23.68 18.27-35.8 27.03-5.36 3.88-11.02 1.5-13.08-4.85a20.37 20.37 0 01-.99-5.89c-.19-12.95-.51-25.91-.3-38.85.26-15.52-1.75-30.5-8.65-44.57-1.82-3.72-4.18-6.68-8.75-7.31-8.61-1.18-15.1 5.93-13.56 15.11 1.65 9.83 3.63 19.61 4.95 29.48 1.72 12.85 2.77 25.78 4.41 38.64 2.1 16.44-3.83 28.76-16.9 39.03-9.58 7.53-17.95 16.74-26.13 25.86-5.72 6.37-8.08 14.63-7.24 23.27 1.97 20.26 5.78 40.19 12.36 59.48 4.34 12.74 12.92 21.54 25.95 25.69 1.9.6 3.77 1.33 5.62 2.06 13.97 5.52 18.48 12.51 17.41 27.66-.63 8.95-2.22 17.85-2.4 26.8-.23 11.58-.42 23.31 1.2 34.71 1.06 7.43 2.86 14.48 2.57 22.28-.31 8.1 2.06 16.4 3.96 24.45 1.99 8.48 1.72 16.27-2.53 24.14-1.79 3.31-2.55 7.65-2.35 11.45.41 7.62 6.91 11.49 14.23 9.02 8.28-2.79 13.04-8.42 14.64-17.22 2.19-12.06.96-23.97-1.37-35.67-7.23-36.22-7.46-72.69-5.02-109.31.53-7.91 4.6-12.93 12.32-15 7.08-1.9 14.16-3.38 21.54-1.81 10.73 2.28 21.52 4.32 32.21 6.76 19.77 4.51 30.45 17.94 35.05 36.86.92 3.79 1.9 8.39.6 11.74-4.51 11.65-3.75 23.61-3.35 35.52.69 20.5-4.36 39.52-13.22 57.79-2.17 4.47-4.16 9.11-5.48 13.88-1.77 6.37.05 10.3 6 13.06 4.19 1.95 8.72 3.34 13.24 4.4 11.04 2.6 14.21.84 18.08-9.69 4.93-13.43 9.9-26.85 14.54-40.37 16.33-47.59 34.65-94.34 56.86-139.53 14.54-29.58 28.84-59.26 38.98-90.75 7.14-22.18 14.26-44.38 25.76-64.86 1.41-2.52 1.83-5.67 2.34-8.59.63-3.65 1.12-7.71-3.06-9.61-4.03-1.83-8.1-.67-10.93 2.56-2.81 3.21-5.29 6.82-7.32 10.58-15.4 28.51-26.22 58.98-37.64 89.16-9.79 25.85-19.54 51.69-32.9 75.96-9.31 16.92-18.79 33.72-24.69 52.28-1.32 4.15-4.46 7.72-6.77 11.56zM1017.4 534.99c8.48 9.88 16.55 19.16 24.49 28.55 7.96 9.42 12.67 20.4 13.79 32.6.75 8.2 1.17 16.61.22 24.74-5.15 44.1-26.83 76.73-68.29 94.48-13.41 5.74-27.65 9.52-41.48 14.3-9.06 3.13-16.71 1.09-21.89-6.86-7.06-10.83-14.32-21.68-19.91-33.28-6.24-12.95-12.68-25.58-21.45-37.04-4.63-6.06-8.28-12.86-12.8-19.02-3.69-5.03-7.9-9.7-12.07-14.35-4.02-4.48-9.4-4.72-14.8-3.71-8.06 1.51-11.31 6.87-8.7 14.58 1.48 4.39 3.22 8.87 5.75 12.7 11.19 16.92 22.52 33.76 34.17 50.36 8.3 11.82 14.96 24.38 19.7 37.98 3.41 9.81 2.5 12.29-4.95 19.18-5.11 4.73-10.27 9.59-14.41 15.14-7.75 10.4-14.47 21.56-22.17 32-17.09 23.18-19.14 49.04-13.93 76.14.84 4.36 3.23 8.81 6 12.36 11.88 15.17 27.25 24.42 46.93 24.67 25.61.33 51.21-.13 76.59-4.33 5.24-.87 10.53-1.7 15.82-1.9 11.23-.43 17.39 6.21 21.8 15.76 10.75 23.25 21.76 46.4 32.93 69.45 2.74 5.65 6.42 10.85 9.85 16.14 2.86 4.4 6.99 5.95 12.12 4.45 4.92-1.45 6.45-5.48 7.09-9.9.94-6.45-.49-12.31-3.73-18.16-8.87-16-17.51-32.15-25.61-48.56-4.11-8.32-7.27-17.17-10.14-26.01-3.6-11.12-1.46-17.62 7.92-24.31 9.48-6.75 19.18-13.23 29.13-19.27 14.49-8.8 29.41-8.19 43.38.89 8.02 5.21 15.03 12.03 22.34 18.29 5.84 5 9.31 11.73 9.77 19.14.9 14.55 1.3 29.18.9 43.75-.25 9.24-2.76 18.41-3.42 27.66-.47 6.58 4.17 9.03 9.72 5.59 6.25-3.88 10.56-9.69 11.35-16.9 1.97-17.82 4.19-35.69 4.54-53.58.54-28.16-14.53-48.3-36.47-64.01-8.4-6.01-18.02-8.25-28.35-7.84-13.05.52-24.63 5.65-35.62 11.85-11.28 6.36-21.95 13.79-32.87 20.8-9.06 5.82-14.8 5.59-22.02-2.37-4.87-5.37-9.57-11.27-12.74-17.72-5.85-11.92-10.83-24.3-15.57-36.72-4.22-11.06-10.2-20.67-18.2-29.48-5.94-6.54-10.77-14.3-15-22.12-4.17-7.7-1.52-13.25 6.78-16.5 6.19-2.42 12.55-4.44 18.89-6.47 20.08-6.45 39.05-15.21 56.48-27.14 24.21-16.58 41.14-38.5 48.94-67.09.78-2.88 1.61-5.83 2.99-8.44 10.33-19.45 7.74-38.55-1.46-57.42-4.08-8.37-8.49-16.58-12.97-24.74-1.25-2.28-3.08-4.39-5.06-6.1-6.3-5.44-12.6-10.9-19.25-15.89-8.46-6.33-16.98-5.06-25.06 3.67z"
          fill="transparent"/>
    <path d="M1335.62 834.1c2.3-3.84 5.45-7.41 6.77-11.56 5.9-18.56 15.38-35.36 24.69-52.28 13.36-24.28 23.12-50.11 32.9-75.96 11.42-30.18 22.24-60.65 37.64-89.16 2.03-3.76 4.51-7.37 7.32-10.58 2.83-3.22 6.89-4.39 10.93-2.56 4.18 1.9 3.69 5.96 3.06 9.61-.5 2.92-.92 6.08-2.34 8.59-11.5 20.48-18.62 42.68-25.76 64.86-10.14 31.49-24.44 61.17-38.98 90.75-22.21 45.19-40.54 91.95-56.86 139.53-4.64 13.53-9.61 26.95-14.54 40.37-3.87 10.53-7.03 12.28-18.08 9.69-4.52-1.06-9.04-2.45-13.24-4.4-5.95-2.77-7.77-6.69-6-13.06 1.32-4.77 3.31-9.41 5.48-13.88 8.85-18.27 13.91-37.29 13.22-57.79-.4-11.91-1.15-23.88 3.35-35.52 1.3-3.36.32-7.95-.6-11.74-4.6-18.92-15.27-32.35-35.05-36.86-10.69-2.44-21.48-4.48-32.21-6.76-7.38-1.57-14.46-.09-21.54 1.81-7.72 2.07-11.79 7.09-12.32 15-2.43 36.62-2.21 73.09 5.02 109.31 2.34 11.7 3.56 23.62 1.37 35.67-1.6 8.81-6.36 14.43-14.64 17.22-7.32 2.47-13.82-1.39-14.23-9.02-.2-3.8.56-8.14 2.35-11.45 4.26-7.87 4.53-15.66 2.53-24.14-1.89-8.05-4.27-16.35-3.96-24.45.3-7.8-1.51-14.85-2.57-22.28-1.62-11.4-1.43-23.13-1.2-34.71.17-8.94 1.77-17.85 2.4-26.8 1.07-15.15-3.44-22.14-17.41-27.66-1.86-.73-3.72-1.46-5.62-2.06-13.03-4.15-21.61-12.95-25.95-25.69-6.57-19.29-10.39-39.22-12.36-59.48-.84-8.64 1.53-16.9 7.24-23.27 8.18-9.12 16.55-18.32 26.13-25.86 13.06-10.27 18.99-22.59 16.9-39.03-1.64-12.86-2.69-25.79-4.41-38.64-1.32-9.87-3.3-19.65-4.95-29.48-1.54-9.18 4.95-16.29 13.56-15.11 4.57.62 6.93 3.59 8.75 7.31 6.9 14.08 8.91 29.06 8.65 44.57-.21 12.95.11 25.9.3 38.85.03 1.97.38 4.01.99 5.89 2.05 6.35 7.72 8.72 13.08 4.85 12.12-8.76 23.96-17.89 35.8-27.03 7.83-6.05 15.44-12.37 22.65-18.16 4.71 1.94 4.43 4.75 3.13 7.13-3.82 6.98-7.18 14.43-12.16 20.51-14.65 17.87-31.08 33.8-52.54 43.66-8.4 3.86-9.64 7.12-9.07 16.64.99 16.6 1.42 33.23 2.6 49.81.75 10.59 2.09 21.17 3.79 31.65 1.41 8.68 6.81 13.02 16.09 13.33 11.98.41 23.98.66 35.96.38 11.72-.28 22.49 2.07 32.03 9.06 8.83 6.46 18.02 12.52 26.31 19.62 10.73 9.19 16.56 21.44 19.23 35.29.98 5.08 2.67 10.03 4.03 15.04l2.29.45zm-166.61-91.17c.24-3.3.42-6.52.72-9.74.83-8.89 1.08-17.9 2.71-26.64 2.55-13.67-1.11-26.37-5.06-38.96-2.17-6.93-10.71-8.08-14.96-2.13-3.19 4.47-5.61 9.75-7.27 15.02-3.32 10.51-.52 21.08 1.56 31.39 1.62 8.03 4.12 16.02 7.35 23.55 2.19 5.11 6.16 9.66 14.95 7.53zM1017.4 534.99c8.08-8.73 16.6-10 25.06-3.67 6.65 4.98 12.96 10.45 19.25 15.89 1.98 1.71 3.8 3.82 5.06 6.1 4.49 8.16 8.89 16.38 12.97 24.74 9.21 18.87 11.79 37.97 1.46 57.42-1.39 2.61-2.21 5.56-2.99 8.44-7.8 28.59-24.73 50.51-48.94 67.09-17.43 11.93-36.4 20.69-56.48 27.14-6.34 2.03-12.69 4.05-18.89 6.47-8.3 3.25-10.94 8.8-6.78 16.5 4.23 7.81 9.06 15.58 15 22.12 8 8.81 13.98 18.42 18.2 29.48 4.74 12.42 9.73 24.8 15.57 36.72 3.17 6.45 7.87 12.36 12.74 17.72 7.23 7.96 12.97 8.18 22.02 2.37 10.91-7.01 21.59-14.43 32.87-20.8 11-6.2 22.58-11.33 35.62-11.85 10.34-.41 19.96 1.83 28.35 7.84 21.94 15.71 37.01 35.85 36.47 64.01-.34 17.89-2.57 35.76-4.54 53.58-.8 7.21-5.11 13.02-11.35 16.9-5.55 3.44-10.18.99-9.72-5.59.66-9.26 3.16-18.42 3.42-27.66.4-14.57 0-29.2-.9-43.75-.46-7.41-3.93-14.14-9.77-19.14-7.32-6.26-14.32-13.08-22.34-18.29-13.97-9.08-28.88-9.68-43.38-.89-9.95 6.04-19.65 12.51-29.13 19.27-9.38 6.69-11.52 13.2-7.92 24.31 2.87 8.84 6.03 17.7 10.14 26.01 8.1 16.4 16.74 32.55 25.61 48.56 3.24 5.85 4.67 11.71 3.73 18.16-.64 4.42-2.17 8.45-7.09 9.9-5.12 1.51-9.25-.04-12.12-4.45-3.44-5.29-7.12-10.49-9.85-16.14-11.18-23.05-22.18-46.2-32.93-69.45-4.42-9.55-10.57-16.19-21.8-15.76-5.29.2-10.58 1.03-15.82 1.9-25.38 4.19-50.98 4.66-76.59 4.33-19.67-.25-35.05-9.5-46.93-24.67-2.78-3.55-5.16-7.99-6-12.36-5.21-27.1-3.16-52.95 13.93-76.14 7.7-10.44 14.41-21.61 22.17-32 4.14-5.55 9.3-10.41 14.41-15.14 7.45-6.89 8.36-9.38 4.95-19.18-4.73-13.6-11.4-26.17-19.7-37.98-11.66-16.6-22.99-33.44-34.17-50.36-2.53-3.83-4.27-8.31-5.75-12.7-2.61-7.72.64-13.07 8.7-14.58 5.4-1.01 10.78-.77 14.8 3.71 4.17 4.65 8.38 9.32 12.07 14.35 4.51 6.16 8.16 12.96 12.8 19.02 8.76 11.46 15.21 24.09 21.45 37.04 5.59 11.6 12.85 22.45 19.91 33.28 5.19 7.96 12.83 10 21.89 6.86 13.83-4.78 28.07-8.56 41.48-14.3 41.46-17.74 63.14-50.38 68.29-94.48.95-8.14.53-16.55-.22-24.74-1.12-12.2-5.83-23.18-13.79-32.6-7.94-9.39-16.01-18.67-24.49-28.55zm-99.64 361.22c9.53-1.59 16.39-2.78 23.27-3.87 10.5-1.67 21.02-3.18 31.5-4.92 11.36-1.89 13.61-6.67 7.88-16.35-1.02-1.72-2.18-3.35-3.15-5.09-6.75-12.21-14.47-24.01-19.96-36.77-9.86-22.9-23.95-42.89-39.24-62.23-4.61-5.83-9.98-7.73-16.52-4.52-4.31 2.12-8.72 5.28-11.47 9.13-14.22 19.85-25.46 41.2-31.95 64.97-6.42 23.52 4.91 42.32 23.67 49.9 12.16 4.91 25.46 6.99 35.98 9.75z"/>
    <path d="M1169.01 742.94c-8.79 2.13-12.76-2.42-14.95-7.53-3.23-7.53-5.73-15.52-7.35-23.55-2.08-10.31-4.88-20.87-1.56-31.39 1.66-5.27 4.08-10.54 7.27-15.02 4.25-5.95 12.78-4.8 14.96 2.13 3.95 12.6 7.62 25.29 5.06 38.96-1.63 8.74-1.88 17.75-2.71 26.64-.3 3.22-.48 6.45-.72 9.74zM917.76 896.22c-10.52-2.76-23.82-4.84-35.98-9.75-18.76-7.58-30.09-26.38-23.67-49.9 6.49-23.76 17.73-45.12 31.95-64.97 2.76-3.85 7.16-7.02 11.47-9.13 6.54-3.2 11.91-1.31 16.52 4.52 15.3 19.34 29.39 39.33 39.24 62.23 5.49 12.76 13.21 24.55 19.96 36.77.96 1.74 2.13 3.37 3.15 5.09 5.73 9.68 3.48 14.46-7.88 16.35-10.48 1.74-21 3.25-31.5 4.92-6.88 1.09-13.74 2.28-23.27 3.87z"
          fill="transparent"/>
</svg>