<svg xmlns="http://www.w3.org/2000/svg" width="2351" height="2351">
    <path d="M0 2351V0h2351v2351H0zM1298.84 532.07c-.31-.01-.62-.03-.93-.04 0-13.99-.12-27.98.03-41.97.19-17.89-2.96-35.03-10.1-51.51-5.28-12.2-10.38-24.52-14.85-37.04-6.61-18.52-18.62-32.18-33.76-44.63-17.64-14.51-36.73-17.25-57.97-13.98-23.49 3.62-45.72 11.5-67.85 19.79-8.8 3.3-15.48 8.8-20.55 16.62-8.51 13.13-17.37 26.04-25.74 39.25-10.96 17.3-16.44 36.2-15.93 56.82.3 12.31.13 24.64.02 36.96-.17 18.29-3.43 22.59-21.16 27.1-9.36 2.38-17.66 6.72-23.63 14.07-8.38 10.3-16.63 20.88-23.45 32.24-9.65 16.08-9.17 33-.01 49.43 2.75 4.93 6.01 9.58 9.12 14.31 12.01 18.24 29.31 24.12 50.16 20.93 8.86-1.35 17.6-3.49 26.37-5.4 18.23-3.96 31.91-14.24 41.83-29.93 9.8-15.51 15.19-32.43 17.04-50.58 2.41-23.71-5.75-43.53-24.23-57.95-9.44-7.37-14.8-14.95-15.48-27.06-1.98-35.01 4.51-67.61 25.38-96.41 13.23-18.25 31.07-30.18 53.24-34.4 28.67-5.46 51.45 3.31 66.34 28.79 3.18 5.44 5.8 11.22 8.55 16.91 16.86 34.97 26.73 71.58 25.52 110.69-.78 25.25-1.24 50.53-2.9 75.72-1.64 24.85-3.6 49.76-7.31 74.36-3.07 20.35-8.06 40.37-7.23 61.18.19 4.63-.17 9.34-.81 13.94-5.36 38.83-11.11 77.61-16.22 116.47-4.28 32.6-7.91 65.29-11.69 97.95-.97 8.4 3.73 16.29 9.92 17.59 5.71 1.2 12.37-4.15 14.3-12.42 3.24-13.91 6.56-27.85 8.75-41.94 2.96-19.03 4.63-38.27 7.3-57.35 4.34-30.93 9.18-61.79 13.57-92.71 4.06-28.62 7.87-57.27 11.68-85.93 3.12-23.38 7.1-46.7 8.86-70.18 2.24-29.82 2.62-59.78 3.81-89.68z"
          fill="transparent"/>
    <path d="M1298.84 532.07c-1.18 29.9-1.57 59.86-3.81 89.68-1.76 23.48-5.75 46.81-8.86 70.18-3.82 28.65-7.62 57.31-11.68 85.93-4.39 30.92-9.23 61.78-13.57 92.71-2.68 19.08-4.35 38.31-7.3 57.35-2.19 14.1-5.51 28.03-8.75 41.94-1.92 8.27-8.59 13.62-14.3 12.42-6.18-1.3-10.89-9.19-9.92-17.59 3.77-32.67 7.41-65.35 11.69-97.95 5.1-38.86 10.85-77.64 16.22-116.47.64-4.6.99-9.31.81-13.94-.83-20.81 4.16-40.83 7.23-61.18 3.71-24.6 5.67-49.51 7.31-74.36 1.66-25.2 2.12-50.47 2.9-75.72 1.2-39.11-8.66-75.72-25.52-110.69-2.74-5.69-5.37-11.46-8.55-16.91-14.88-25.47-37.67-34.24-66.34-28.79-22.17 4.22-40.01 16.14-53.24 34.4-20.87 28.8-27.36 61.4-25.38 96.41.68 12.12 6.04 19.69 15.48 27.06 18.48 14.42 26.64 34.25 24.23 57.95-1.84 18.15-7.24 35.07-17.04 50.58-9.92 15.69-23.6 25.97-41.83 29.93-8.77 1.9-17.51 4.04-26.37 5.4-20.85 3.19-38.15-2.69-50.16-20.93-3.11-4.73-6.37-9.38-9.12-14.31-9.16-16.43-9.64-33.35.01-49.43 6.82-11.36 15.07-21.93 23.45-32.24 5.97-7.34 14.27-11.69 23.63-14.07 17.74-4.51 20.99-8.81 21.16-27.1.11-12.32.29-24.65-.02-36.96-.51-20.62 4.97-39.52 15.93-56.82 8.37-13.21 17.23-26.12 25.74-39.25 5.07-7.81 11.75-13.32 20.55-16.62 22.13-8.29 44.36-16.18 67.85-19.79 21.24-3.27 40.33-.53 57.97 13.98 15.13 12.45 27.14 26.11 33.76 44.63 4.47 12.52 9.56 24.83 14.85 37.04 7.14 16.48 10.29 33.62 10.1 51.51-.15 13.99-.03 27.98-.03 41.97.31.01.62.03.93.04z"/>
</svg>