<svg xmlns="http://www.w3.org/2000/svg" width="2351" height="2351">
    <path d="M2351 2351H0V0h2351v2351zM1119.22 949.32c5.28 3.81 10.62 7.23 15.44 11.26 5.86 4.9 13.62.74 12.55-6.77-.69-4.83-2.24-9.69-4.25-14.15-1.75-3.89-4.6-7.31-7.12-10.83-8.6-12.02-15.56-24.79-18.69-39.41-1.36-6.36-4.77-11.5-9.48-16.06-13.51-13.08-22.05-29-26.5-47.27-1.08-4.43-3.14-8.69-5.24-12.78-5.94-11.52-12.7-22.64-18.08-34.4-7.19-15.73-13.02-32.06-22.66-46.63-2.12-3.2-2.97-7.37-3.86-11.22-7.56-32.66-21.96-62.11-42.97-88.01-21.5-26.5-49.48-44.17-81.49-55.6-10.48-3.74-21.31-5.04-32.39-4.81-5.81.12-10.27 2.57-13.22 7.56-2.11 3.57-1.32 6.83 2.68 7.93 4.1 1.13 8.49 1.55 12.76 1.64 18.33.37 34.4 7.15 49.18 17.34 6.05 4.17 7.16 8.56 3.27 14.53-9.22 14.16-7.2 27.85.93 41.34 5.5 9.12 11.32 18.07 17.46 26.77 4.66 6.61 6.38 12.86 4.44 21.29-5.23 22.81.51 42.14 20.97 55.7 9.48 6.28 13.04 15.63 12.56 26.72-.1 2.32-.68 4.63-.67 6.94.04 10.59-2.44 21.5 2.22 31.59 5.15 11.16 10.66 22.25 20 30.73 6.77 6.15 10.39 13.68 10.42 22.9.04 14.82 5.59 27.5 16.56 37.16 7.21 6.35 8.45 13.41 7.2 22.22-2.74 19.28 3.17 29.82 20.74 38.64 8.75 4.4 17.31 4.19 25.7-.76 9.42-5.55 16.56-13.3 21.62-22.97 2.15-4.1 3.83-8.59 9.92-10.59zm196.49-28.66c1-3.05 2.05-6.08 2.97-9.15 2.78-9.22 6.04-18.33 8.11-27.71 1.99-9-1.67-15.61-9.04-19.09-14.04-6.63-33.37-.99-41.12 12.61-8.22 14.41-13.38 29.97-11.64 46.73 1.03 9.87-.47 17.59-9.14 23.46-1.94 1.31-3.71 5.63-2.94 7.51 1.04 2.55 4.43 5.48 7.08 5.76 5.16.55 10.57-.28 15.76-1.18 7.18-1.25 14.22-3.25 21.38-4.65 11.35-2.22 21.72-6.54 30.24-14.44 13.99-12.97 26.27-27.41 35.09-44.43 4.74-9.14 10.64-17.3 20.05-21.49 10.41-4.63 17.3-11.95 21.92-22.06 2.62-5.74 5.44-11.47 8.86-16.76 4.12-6.38 8-13.44 13.68-18.17 14.2-11.83 24.29-26.28 31.82-42.89 2.05-4.52 4.47-8.93 7.22-13.06 3.26-4.89 8.17-6.84 13.94-5.42 14.13 3.47 26.42-.55 37.2-9.45 6.99-5.77 13.99-6.33 22.28-3.4 4.17 1.47 9.44 2.47 13.47 1.24 16.51-5.03 27.38-15.92 30.74-33.35 1.16-6.06.2-7.42-7.5-11.23-2.95 3.75-6.01 7.61-9.03 11.5-4.41 5.68-9.77 10.1-16.85 11.81-7.62 1.84-13.19-3.37-11.98-11.07 1.14-7.22 2.62-14.38 3.8-21.6 1.28-7.82.23-15.12-4.41-21.92-1.7-2.49-2.73-5.88-2.89-8.92-.75-13.73 4.38-26.07 9.8-38.3 3.58-8.08 9.28-13.43 18.03-15.85 9.62-2.67 12.6-12.35 6.47-20.18-8.09-10.32-23.86-11.87-30.57 1.44-4.65 9.21-9.78 18.2-14.03 27.59-13.74 30.42-22.75 61.81-18.62 95.76.8 6.54-.97 12.58-4.8 17.93-3.49 4.88-8.71 7.32-12.67 6.11-4.25-1.3-7.16-5.69-7.07-12 .09-6.3.19-12.73 1.43-18.87 2.78-13.67 6.53-27.15 9.36-40.81 1.4-6.78 2.27-13.81 2.24-20.71-.04-7.42-6.24-13.53-12.98-14.33-6.19-.73-11.89 2.83-14.63 9.63-2.36 5.86-4.44 11.84-6.4 17.84-11.03 33.7-13.56 30.81-5.75 71.96 1.46 7.71 1.67 15.96.68 23.73-1.03 8.09-5.7 14.51-14.84 16.75-2.9-5.37-1.34-10.3-.37-15.03 2.43-11.84-.37-22.53-7-32.2-10.35-15.11-28.52-13.64-36.61 2.88-5.62 11.49-8.51 23.73-8.96 36.55-.15 4.29-.59 8.62-1.41 12.82-.87 4.49-3.69 6.75-8.62 6.28-4.3-.42-8.66-.14-12.97-.45-11.34-.81-19.44 4.2-24.22 14.12-11.59 24.03-12.97 47.89 2.72 70.9 3.68 5.39 6.79 10.81 5.05 17.55-4.63 17.97-16.34 30.4-32.36 39.71zm-173.59-371.82c9.39 3.13 18.43 6.33 27.59 9.14 10.57 3.25 19.17 8.99 25.38 18.27 7.99 11.94 7.76 14.96-.2 26.88a111.65 111.65 0 00-10.26 19.2c-4.43 10.75-7.88 21.89-12.07 32.74-3.16 8.17-5.01 16.41-5.05 25.24-.06 13.38 3.96 25.41 10 37.14 5.85 11.35 5.53 12.06-3.6 20.28-9.48 8.53-15.65 18.65-17.5 31.54-2.15 15.04-1.54 29.93 1.85 44.59 1.76 7.61.91 14.15-2.33 21.14-4.33 9.33-8.14 18.96-11.33 28.75-4.23 13 .31 25.53 11.69 33.21 4.07 2.75 8.76 4.77 13.41 6.45 13.41 4.84 13.83 5.44 8.93 18.3-.24.62-.62 1.19-.81 1.82-2.13 6.84.47 11.12 7.41 12.23 9.75 1.56 16.47-2.1 20.7-11.52 7.14-15.92 11.33-32.7 13.29-49.95 2.93-25.82 7.42-51.33 13.93-76.47 5.76-22.25 10.26-44.73 12.09-67.65 2.76-34.67.22-69.12-6.16-103.23-2.25-12.03-5.28-24.14-9.84-35.46-14.41-35.76-41.65-53.34-77.97-51.92-5.48.21-8.97 1.56-9.14 9.27z"
          fill="transparent"/>
    <path d="M1119.22 949.32c-6.09 1.99-7.77 6.48-9.92 10.59-5.06 9.67-12.2 17.42-21.62 22.97-8.4 4.95-16.95 5.16-25.7.76-17.56-8.82-23.47-19.36-20.74-38.64 1.25-8.8.01-15.87-7.2-22.22-10.97-9.66-16.51-22.34-16.56-37.16-.03-9.22-3.65-16.74-10.42-22.9-9.34-8.49-14.84-19.58-20-30.73-4.66-10.09-2.18-21.01-2.22-31.59 0-2.31.57-4.62.67-6.94.48-11.08-3.08-20.43-12.56-26.72-20.46-13.56-26.2-32.89-20.97-55.7 1.93-8.43.22-14.68-4.44-21.29-6.14-8.7-11.96-17.65-17.46-26.77-8.13-13.49-10.15-27.18-.93-41.34 3.89-5.97 2.77-10.36-3.27-14.53-14.78-10.19-30.85-16.97-49.18-17.34-4.28-.09-8.67-.5-12.76-1.64-3.99-1.1-4.78-4.36-2.68-7.93 2.94-4.99 7.41-7.44 13.22-7.56 11.07-.23 21.91 1.07 32.39 4.81 32.01 11.43 59.99 29.1 81.49 55.6 21.01 25.9 35.42 55.36 42.97 88.01.89 3.85 1.75 8.02 3.86 11.22 9.64 14.57 15.47 30.9 22.66 46.63 5.38 11.76 12.15 22.89 18.08 34.4 2.11 4.08 4.17 8.35 5.24 12.78 4.45 18.27 12.99 34.19 26.5 47.27 4.71 4.57 8.12 9.7 9.48 16.06 3.14 14.62 10.09 27.39 18.69 39.41 2.52 3.52 5.37 6.94 7.12 10.83 2.01 4.46 3.56 9.31 4.25 14.15 1.07 7.51-6.69 11.68-12.55 6.77-4.82-4.03-10.16-7.45-15.44-11.26zM1008 810.61c.9 9.78 1.34 18.07 6.39 25.2 2.57 3.63 5.24 6.93 10.31 6.48 5.4-.48 8.72-4.17 9.75-8.7 2.77-12.21 5.38-24.57 2.56-37.21-1.39-6.21-7.23-11.57-12.94-12.14-5.26-.53-10.96 3.55-12.96 10.34-1.66 5.66-2.29 11.62-3.11 16.02zm-30.39-138.73c-.34-10.4-11.49-22.77-19.56-23.91-6.14-.87-9.33 2.63-7.86 8.92 2.01 8.59 8.57 13.98 14.7 19.44 1.85 1.65 6.04 2.98 7.72 2 2.66-1.56 4.11-5.19 5.01-6.44zm23.31 66.58c-.04-7.67-7.44-16.35-15.1-17.71-4.76-.85-9.34 2.37-10.15 7.14-1.33 7.84 4.17 17.43 11.51 20.07 6.92 2.48 13.79-2.26 13.74-9.5zm40.13 160.7c9.23 4.48 13.08 4.47 16.68-1.59 2.91-4.91 4.66-10.93 5.3-16.64.64-5.67-5.98-9.6-11.23-6.65-3.44 1.94-6.72 5.63-8.15 9.29-1.86 4.74-1.81 10.24-2.61 15.59zm48.31 37.83c-.53-.97-1.13-3.45-2.7-4.53-1.19-.82-3.93-.41-5.43.43-6.09 3.41-10.14 8.63-10.87 15.66-.23 2.23.8 5.78 2.41 6.69 1.69.96 5.21.18 7.15-1.06 5.66-3.6 7.79-9.6 9.44-17.2zm6.49-41.51c-3.68-3.21-5.11-4.82-6.89-5.74-.42-.22-2.88 1.82-2.93 2.89-.12 2.64.62 5.51 4.26 5.16 1.51-.14 2.93-1.18 5.56-2.31zM1315.7 920.65c16.02-9.31 27.73-21.74 32.36-39.71 1.74-6.74-1.38-12.15-5.05-17.55-15.69-23.01-14.31-46.87-2.72-70.9 4.78-9.91 12.88-14.93 24.22-14.12 4.31.31 8.67.03 12.97.45 4.93.48 7.74-1.79 8.62-6.28.82-4.21 1.25-8.53 1.41-12.82.45-12.83 3.33-25.06 8.96-36.55 8.09-16.53 26.26-18 36.61-2.88 6.63 9.67 9.43 20.37 7 32.2-.97 4.73-2.53 9.66.37 15.03 9.14-2.24 13.81-8.66 14.84-16.75.99-7.77.78-16.03-.68-23.73-7.81-41.15-5.27-38.26 5.75-71.96 1.96-6 4.04-11.99 6.4-17.84 2.74-6.8 8.44-10.35 14.63-9.63 6.74.79 12.94 6.91 12.98 14.33.03 6.91-.84 13.93-2.24 20.71-2.83 13.67-6.58 27.14-9.36 40.81-1.25 6.14-1.34 12.56-1.43 18.87-.09 6.31 2.82 10.7 7.07 12 3.96 1.21 9.19-1.23 12.67-6.11 3.82-5.36 5.59-11.4 4.8-17.93-4.14-33.94 4.88-65.34 18.62-95.76 4.24-9.39 9.38-18.38 14.03-27.59 6.72-13.32 22.48-11.76 30.57-1.44 6.14 7.83 3.15 17.51-6.47 20.18-8.76 2.43-14.45 7.77-18.03 15.85-5.42 12.23-10.55 24.56-9.8 38.3.17 3.04 1.19 6.43 2.89 8.92 4.64 6.79 5.68 14.09 4.41 21.92-1.18 7.21-2.66 14.38-3.8 21.6-1.21 7.7 4.36 12.92 11.98 11.07 7.08-1.71 12.44-6.14 16.85-11.81 3.02-3.89 6.09-7.75 9.03-11.5 7.69 3.82 8.66 5.18 7.5 11.23-3.35 17.43-14.23 28.31-30.74 33.35-4.03 1.23-9.3.23-13.47-1.24-8.29-2.93-15.29-2.37-22.28 3.4-10.79 8.9-23.08 12.92-37.2 9.45-5.77-1.42-10.69.54-13.94 5.42a92.787 92.787 0 00-7.22 13.06c-7.53 16.61-17.62 31.06-31.82 42.89-5.68 4.73-9.56 11.79-13.68 18.17-3.42 5.29-6.24 11.01-8.86 16.76-4.62 10.11-11.51 17.43-21.92 22.06-9.42 4.19-15.31 12.35-20.05 21.49-8.83 17.02-21.1 31.46-35.09 44.43-8.52 7.9-18.89 12.22-30.24 14.44-7.16 1.4-14.2 3.4-21.38 4.65-5.19.9-10.6 1.73-15.76 1.18-2.65-.28-6.04-3.21-7.08-5.76-.76-1.88 1.01-6.19 2.94-7.51 8.67-5.87 10.16-13.59 9.14-23.46-1.75-16.76 3.42-32.33 11.64-46.73 7.76-13.6 27.08-19.24 41.12-12.61 7.36 3.48 11.03 10.09 9.04 19.09-2.08 9.38-5.33 18.49-8.11 27.71-.93 3.07-1.98 6.1-2.97 9.15zm37.22-92.28c.3 3.86-.05 7.71 1.09 11.05.83 2.43 3.28 5.17 5.64 6 3.17 1.12 5.58-1.46 6.57-4.63 2.19-6.96 4.64-13.88 6.19-20.99.66-3.04-.22-6.66-1.21-9.75-1.6-5.01-7.15-6.78-11.16-3.38-2.4 2.04-4.48 5.13-5.33 8.13-1.25 4.4-1.27 9.15-1.79 13.57zm68.8-68.28c-.26-3.5.11-6.04-.77-8.04-.83-1.89-2.83-4.24-4.56-4.46-1.56-.2-4.18 1.84-5.07 3.54-3.64 6.98-4.81 14.49-2.16 22.07.61 1.75 3 3.99 4.56 3.99 1.72 0 4.39-2.02 4.96-3.73 1.56-4.66 2.24-9.62 3.04-13.37zm-18.69 56.29c.33-5.47-3.1-10.62-6.11-10.89-4.49-.4-5.56 3.07-6.23 6.29-1.39 6.76-2.53 13.59-3.44 20.43-.16 1.24.98 3.37 2.08 3.87 1.09.5 3.75-.06 4.24-.96 3.61-6.64 6.85-13.48 9.46-18.75zm-104.85 76.28c-11.46 3.92-6.88 14.63-10.22 21.45 4.65-6.18 14.63-9.74 10.22-21.45zM1142.12 548.83c.17-7.7 3.66-9.05 9.14-9.27 36.32-1.42 63.56 16.16 77.97 51.92 4.56 11.32 7.59 23.43 9.84 35.46 6.38 34.11 8.92 68.56 6.16 103.23-1.83 22.91-6.33 45.4-12.09 67.65-6.51 25.14-11 50.65-13.93 76.47-1.96 17.25-6.14 34.03-13.29 49.95-4.23 9.42-10.95 13.09-20.7 11.52-6.94-1.11-9.54-5.39-7.41-12.23.2-.63.58-1.2.81-1.82 4.9-12.86 4.49-13.46-8.93-18.3-4.65-1.68-9.33-3.7-13.41-6.45-11.38-7.67-15.91-20.21-11.69-33.21 3.18-9.78 7-19.42 11.33-28.75 3.24-6.99 4.09-13.54 2.33-21.14-3.39-14.66-4-29.55-1.85-44.59 1.84-12.89 8.02-23.02 17.5-31.54 9.14-8.22 9.45-8.93 3.6-20.28-6.04-11.72-10.06-23.76-10-37.14.04-8.83 1.89-17.08 5.05-25.24 4.2-10.85 7.65-21.99 12.07-32.74 2.75-6.68 6.24-13.19 10.26-19.2 7.96-11.92 8.19-14.94.2-26.88-6.21-9.27-14.81-15.02-25.38-18.27-9.16-2.82-18.2-6.01-27.59-9.14zm64.73 241.23c-.87-6.74-.56-14.57-6.19-20.68-5.85-6.36-12.37-5.97-15.55 1.92-3.17 7.86-5.64 16.31-6.44 24.69-.45 4.7 2.34 10.26 5.04 14.59 3.77 6.06 8.68 6.18 14.28 1.66 6.84-5.53 8.01-13.37 8.86-22.17zm-38.6 81.1c2.34 4.18 3.64 8.5 6.53 10.9 1.82 1.51 6.45 1.07 9.1-.11 6.16-2.74 11.53-12.84 9.65-19.21-1.18-3.99-4.43-8.48-7.99-10.24-2.2-1.08-7.76 1.7-9.95 4.31-3.21 3.81-4.74 9.03-7.33 14.34zM1209.11 739c-.09 5.7 3.28 9.84 7.09 13.5 4.54 4.36 8.54 3.2 9.99-2.9 1.18-5 3.76-11.14-1.05-14.84-4.76-3.65-10.04-.07-14.62 2.64-.53.32-.87.97-1.41 1.6zm-4.92-32.05c1.53-5.69 2.54-9.48 3.6-13.42-3.68-2.04-6.92-3.83-9.24-.21-3.23 5.04.66 8.33 5.65 13.63z"/>
    <path d="M1008 810.61c.82-4.4 1.44-10.36 3.11-16.02 2-6.79 7.7-10.87 12.96-10.34 5.71.57 11.56 5.93 12.94 12.14 2.82 12.63.2 25-2.56 37.21-1.03 4.53-4.35 8.22-9.75 8.7-5.07.45-7.74-2.85-10.31-6.48-5.05-7.14-5.49-15.42-6.39-25.2zM977.61 671.88c-.9 1.26-2.34 4.89-5.01 6.44-1.68.98-5.87-.35-7.72-2-6.13-5.46-12.69-10.84-14.7-19.44-1.47-6.29 1.72-9.8 7.86-8.92 8.08 1.15 19.22 13.51 19.56 23.91zM1000.92 738.46c.04 7.24-6.83 11.98-13.74 9.5-7.34-2.64-12.84-12.23-11.51-20.07.81-4.77 5.39-7.99 10.15-7.14 7.66 1.36 15.06 10.04 15.1 17.71zM1041.05 899.16c.8-5.36.75-10.85 2.61-15.59 1.43-3.66 4.71-7.35 8.15-9.29 5.25-2.96 11.86.97 11.23 6.65-.64 5.71-2.39 11.74-5.3 16.64-3.6 6.06-7.45 6.07-16.68 1.59zM1089.36 936.99c-1.65 7.59-3.77 13.59-9.44 17.2-1.94 1.24-5.46 2.02-7.15 1.06-1.61-.91-2.64-4.46-2.41-6.69.73-7.03 4.78-12.25 10.87-15.66 1.5-.84 4.24-1.24 5.43-.43 1.57 1.08 2.18 3.56 2.7 4.53zM1095.85 895.48c-2.62 1.13-4.05 2.17-5.56 2.31-3.64.35-4.38-2.52-4.26-5.16.05-1.07 2.51-3.11 2.93-2.89 1.78.92 3.2 2.53 6.89 5.74zM1352.92 828.38c.52-4.42.54-9.17 1.79-13.57.85-3 2.93-6.1 5.33-8.13 4-3.4 9.56-1.62 11.16 3.38.99 3.1 1.87 6.71 1.21 9.75-1.55 7.11-4 14.03-6.19 20.99-1 3.17-3.4 5.75-6.57 4.63-2.35-.83-4.81-3.57-5.64-6-1.14-3.34-.78-7.19-1.09-11.05zM1421.72 760.1c-.8 3.76-1.48 8.71-3.04 13.37-.57 1.7-3.24 3.72-4.96 3.73-1.57 0-3.95-2.24-4.56-3.99-2.65-7.58-1.48-15.09 2.16-22.07.89-1.71 3.51-3.74 5.07-3.54 1.73.22 3.74 2.58 4.56 4.46.87 2 .5 4.54.77 8.04zM1403.03 816.39c-2.61 5.27-5.85 12.11-9.46 18.75-.49.9-3.14 1.46-4.24.96s-2.24-2.63-2.08-3.87c.91-6.84 2.05-13.67 3.44-20.43.66-3.22 1.73-6.69 6.23-6.29 3.01.27 6.44 5.42 6.11 10.89zM1298.18 892.67c4.4 11.71-5.57 15.27-10.22 21.45 3.34-6.82-1.24-17.53 10.22-21.45zM1206.84 790.06c-.86 8.8-2.02 16.64-8.86 22.17-5.6 4.52-10.5 4.4-14.28-1.66-2.69-4.33-5.49-9.88-5.04-14.59.8-8.38 3.27-16.83 6.44-24.69 3.18-7.89 9.69-8.28 15.55-1.92 5.63 6.12 5.32 13.94 6.19 20.68zM1168.24 871.16c2.59-5.31 4.12-10.53 7.33-14.34 2.19-2.61 7.76-5.39 9.95-4.31 3.56 1.75 6.81 6.25 7.99 10.24 1.89 6.36-3.49 16.46-9.65 19.21-2.65 1.18-7.27 1.63-9.1.11-2.89-2.4-4.19-6.73-6.53-10.9zM1209.1 739c.54-.63.87-1.29 1.41-1.6 4.59-2.71 9.87-6.3 14.62-2.64 4.81 3.7 2.23 9.84 1.05 14.84-1.45 6.11-5.45 7.26-9.99 2.9-3.81-3.65-7.18-7.79-7.09-13.5zM1204.17 706.95c-4.99-5.3-8.88-8.59-5.65-13.63 2.32-3.62 5.56-1.82 9.24.21-1.06 3.95-2.07 7.73-3.6 13.42z"
          fill="transparent"/>
</svg>