<svg xmlns="http://www.w3.org/2000/svg" width="2351" height="2351">
    <path d="M2351 2351H0V0h2351v2351zM1451.89 604.87c1.71 17.52-4.63 32.58-14.3 46.69-7.33 10.7-14.66 21.43-21.51 32.44-2.37 3.81-4.54 8.51-4.62 12.84-.17 9.69-4.18 17.19-10.19 24.22-3 3.5-5.79 7.29-8.04 11.31-9.92 17.71-19.22 35.77-29.52 53.25-6.56 11.15-13.95 21.92-21.94 32.09-6.08 7.74-10.93 15.81-13.81 25.14-4.18 13.58-11.3 25.4-20.83 35.95-17.03 18.83-31.84 39.31-43.64 61.83-3.22 6.14-5.73 12.74-7.76 19.38-1.23 4.05-1.48 8.83 3.48 11.33 4.45 2.23 8.59 1.17 11.78-2.38 3.09-3.43 5.98-7.11 8.48-10.98 12.64-19.54 24.92-39.32 37.73-58.74 9.34-14.16 20.14-27.4 28.79-41.95 11.04-18.58 20.8-37.89 34.65-54.71 2.93-3.56 5.04-7.84 7.26-11.93 6.96-12.83 12.84-26.27 22.18-37.75 2.89-3.55 4.7-8.02 6.81-12.17 15.79-31.13 31.53-62.28 47.29-93.43 4.57-9.03 11.93-14.79 21.95-15.1 16.47-.5 28.87-9.08 40.94-18.67 6.88-5.47 9.92-12.98 7.53-21.31-2.63-9.18-6.29-18.16-10.34-26.83-4.68-10.01-13.49-14.39-24.27-14.68-11.41-.32-21.63 2.94-30.19 10.82-12.69 11.68-20.42 25.37-17.9 43.35zm-476.12 35.71c.62-8.99-1.52-17.26-6.11-24.87-9.75-16.15-23.91-26.71-42.05-31.46-14.86-3.89-27.57.78-38.04 11.76-6.6 6.92-7.3 11.4-2.6 19.65 5.11 8.95 10.39 17.82 15.95 26.5 7.99 12.5 18.98 21.42 33.43 25.3 7.14 1.92 11.47 6.35 14.36 12.69 1.1 2.41 2 4.93 2.84 7.46 10.39 31.41 26.82 60.08 40.73 89.89.97 2.08 2.58 3.87 3.84 5.82 6.46 10.07 13.27 19.93 19.28 30.26a7924.36 7924.36 0 0151.62 89.99c6.53 11.57 12.28 23.58 18.45 35.36 2.46 4.7 4.67 9.63 7.77 13.88 3.8 5.23 13.84 6.69 19.13 3.48 5.01-3.03 5.99-8.41 2.87-15.95-.51-1.22-1.21-2.37-1.86-3.53-14.28-25.55-28.3-51.25-42.9-76.61-15.76-27.37-33.45-53.72-47.75-81.81-16.87-33.14-31.29-67.56-46.11-101.71-2.93-6.75-3.31-14.76-4.03-22.27-.43-4.53.75-9.22 1.21-13.84zm208.14 240.33c-.19.05-.37.11-.56.16-.45 4.62-.92 9.24-1.36 13.86-.92 9.57-2 19.13-2.67 28.71-.34 4.87 1.7 9.04 5.34 12.43 2.82 2.63 5.87 4.63 9.84 3.28 4.02-1.37 5.19-4.86 5.46-8.71.41-5.96 1.11-11.93 1.04-17.89-.28-23.94-.93-47.87-1.19-71.81-.2-17.99-1.15-35.87-4.65-53.58-.69-3.48-.47-7.19-.29-10.77.81-15.9 3.68-31.73 1.12-47.73-1.57-9.84-3.73-19.7-4.02-29.6-.76-26.61-.65-53.25-.89-79.88-.07-7.97 2.11-15.34 7.63-21.07 7.63-7.93 8.21-16.79 5.59-26.81-2.52-9.64-5.22-19.36-6.22-29.22-1.06-10.4-6.05-17.6-14.5-22.43-6.87-3.93-14.21-7.35-21.74-9.71-9.44-2.96-17.87.15-24.07 7.85-5.54 6.88-9.3 14.77-8.7 23.86 1.5 22.73 6.57 44.2 24.12 60.5 7.52 6.99 11.17 15.57 11.96 25.55 1.31 16.55 2.33 33.02-.96 49.58-1.74 8.76-2.37 17.97 4.75 25.49.91.97.88 2.94 1.06 4.47.74 6.58 1.38 13.17 2.1 19.76.51 4.62 1.43 9.22 1.58 13.85.78 24.54 1.34 49.08 2.07 73.63.12 3.97.53 7.95 1.04 11.9 2.33 18.11 4.74 36.21 7.13 54.31z"
          fill="transparent"/>
    <path d="M1451.89 604.87c-2.52-17.98 5.22-31.68 17.9-43.35 8.56-7.88 18.78-11.14 30.19-10.82 10.79.3 19.6 4.67 24.27 14.68 4.05 8.67 7.71 17.64 10.34 26.83 2.39 8.33-.65 15.85-7.53 21.31-12.07 9.59-24.46 18.17-40.94 18.67-10.02.31-17.38 6.07-21.95 15.1-15.76 31.14-31.5 62.3-47.29 93.43-2.11 4.15-3.92 8.62-6.81 12.17-9.34 11.49-15.22 24.92-22.18 37.75-2.22 4.09-4.33 8.37-7.26 11.93-13.84 16.82-23.61 36.13-34.65 54.71-8.64 14.55-19.45 27.79-28.79 41.95-12.81 19.43-25.09 39.2-37.73 58.74-2.51 3.87-5.4 7.55-8.48 10.98-3.19 3.54-7.33 4.61-11.78 2.38-4.97-2.49-4.72-7.28-3.48-11.33 2.03-6.64 4.54-13.24 7.76-19.38 11.79-22.52 26.6-43 43.64-61.83 9.54-10.54 16.65-22.36 20.83-35.95 2.87-9.33 7.73-17.41 13.81-25.14 7.99-10.17 15.38-20.94 21.94-32.09 10.29-17.48 19.6-35.54 29.52-53.25 2.25-4.02 5.04-7.8 8.04-11.31 6.02-7.03 10.02-14.53 10.19-24.22.08-4.33 2.25-9.03 4.62-12.84 6.85-11.01 14.18-21.74 21.51-32.44 9.67-14.11 16.01-29.17 14.3-46.69zm52.07-15.78c-6.34-.2-6.35 2.57-5.42 5.69.21.7 1.35 1.11 2.83 2.24.87-2.65 1.58-4.82 2.6-7.93zM975.77 640.58c-.46 4.62-1.64 9.3-1.21 13.84.72 7.51 1.1 15.52 4.03 22.27 14.82 34.15 29.24 68.56 46.11 101.71 14.3 28.09 32 54.44 47.75 81.81 14.6 25.36 28.63 51.06 42.9 76.61.65 1.16 1.35 2.3 1.86 3.53 3.12 7.54 2.14 12.92-2.87 15.95-5.29 3.2-15.32 1.75-19.13-3.48-3.1-4.26-5.31-9.18-7.77-13.88-6.17-11.78-11.91-23.79-18.45-35.36a7924.36 7924.36 0 00-51.62-89.99c-6.01-10.33-12.82-20.19-19.28-30.26-1.26-1.96-2.87-3.74-3.84-5.82-13.9-29.81-30.33-58.49-40.73-89.89-.83-2.52-1.73-5.04-2.84-7.46-2.89-6.33-7.22-10.77-14.36-12.69-14.46-3.88-25.44-12.8-33.43-25.3-5.55-8.68-10.84-17.54-15.95-26.5-4.7-8.25-4-12.73 2.6-19.65 10.47-10.98 23.18-15.65 38.04-11.76 18.14 4.75 32.31 15.31 42.05 31.46 4.59 7.61 6.74 15.88 6.11 24.87zM1183.91 880.91c-2.38-18.1-4.8-36.2-7.13-54.31-.51-3.95-.92-7.92-1.04-11.9-.72-24.54-1.29-49.09-2.07-73.63-.15-4.63-1.07-9.23-1.58-13.85-.72-6.58-1.35-13.18-2.1-19.76-.17-1.53-.14-3.51-1.06-4.47-7.12-7.52-6.49-16.73-4.75-25.49 3.29-16.56 2.27-33.03.96-49.58-.79-9.97-4.44-18.56-11.96-25.55-17.55-16.3-22.62-37.77-24.12-60.5-.6-9.09 3.16-16.98 8.7-23.86 6.2-7.7 14.64-10.81 24.07-7.85 7.53 2.36 14.88 5.78 21.74 9.71 8.44 4.83 13.44 12.03 14.5 22.43 1 9.85 3.7 19.58 6.22 29.22 2.62 10.02 2.04 18.88-5.59 26.81-5.52 5.73-7.7 13.1-7.63 21.07.24 26.63.13 53.26.89 79.88.28 9.9 2.44 19.76 4.02 29.6 2.56 16-.31 31.83-1.12 47.73-.18 3.58-.4 7.29.29 10.77 3.5 17.7 4.45 35.59 4.65 53.58.27 23.94.92 47.87 1.19 71.81.07 5.96-.63 11.93-1.04 17.89-.26 3.85-1.43 7.34-5.46 8.71-3.97 1.35-7.01-.65-9.84-3.28-3.64-3.39-5.68-7.56-5.34-12.43.67-9.59 1.75-19.14 2.67-28.71.44-4.62.91-9.24 1.36-13.86.19-.05.37-.11.56-.16z"/>
    <path d="M1503.96 589.09c-1.02 3.11-1.73 5.28-2.6 7.93-1.47-1.13-2.62-1.55-2.83-2.24-.93-3.12-.92-5.88 5.42-5.69z"
          fill="transparent"/>
</svg>