<svg xmlns="http://www.w3.org/2000/svg" width="2351" height="2351">
    <path d="M0 2351V0h2351v2351H0zM1053.63 996.61q-3.23-10.38-11.88-20.14c-6.43-7.26-6.18-11.6 2.05-16.99 12.46-8.17 20.92-19.36 26.49-32.93 6.52-15.89 16.17-29.67 26.96-42.96 5.76-7.09 10.31-15.51 13.87-23.97 8.95-21.29 4.39-40.12-11.63-56.77-11.41-11.86-23.82-22.15-38.15-30.32-9.31-5.31-8.97-12.4.77-16.63 15.85-6.88 31.77-13.75 48.1-19.35 18.65-6.39 38.12-8.87 58.48-8.6-2.89 11.59-9.48 20.41-16.94 28.34-16.94 18.01-19.29 38.58-12.3 61.22 4.21 13.65 12.85 23.2 26.38 27.9 8.16 2.84 16.47 5.35 24.83 7.54 8.3 2.18 15.26 6.56 21.61 12.02 6.14 5.27 6.76 9.26 1.61 15.38-14.31 16.98-30.37 31.84-51.74 39.6-7.98 2.9-14.7 7.51-21.04 13.06-6.75 5.91-13.91 11.36-21.07 16.77-15.66 11.83-31.42 23.5-47.15 35.23-4.27 3.18-8.34 6.7-12.9 9.4-8.24 4.9-9.98 12.92-10.52 21.27-.38 5.88 4.74 12.21 9.96 13.61 5.93 1.6 10.18-.77 13.65-5.67 3.65-5.16 7.48-10.25 11.79-14.85 4.29-4.6 8.95-8.98 14-12.72 18.72-13.86 37.85-27.16 56.46-41.15 14.7-11.04 29.65-21.31 47.11-27.77 13.08-4.84 23.6-13.46 31.24-25.41 6.09-9.52 13.81-12.12 24.84-9.05 15.04 4.18 25.53 13.82 32.94 27.21 5.06 9.16 4.52 13.71-2.71 21.52-7.69 8.31-15.28 16.72-23.27 24.74-16.96 17.01-34.6 33.21-56.04 44.63-6.93 3.69-8.93 8.29-6.84 14.49 2.09 6.2 8.31 10.64 14.74 9.35 5.12-1.02 10.8-2.37 14.75-5.46 12.82-10.05 25.81-20.14 37.13-31.79 10.63-10.94 24.82-18.17 32.8-31.9 1.14-1.95 5.87-3.72 7.73-2.88 2.43 1.1 4.74 4.69 5.21 7.53 1.45 8.78-.38 17.24-5.11 24.87-2.81 4.52-5.93 8.85-8.93 13.26-5 7.36-2.94 12.93 5.68 15.4 5.67 1.62 9.69-1.02 13.04-5.11 10.92-13.33 15.11-28.57 13.08-45.68-.9-7.59-1.22-15.24-1.65-22.88-.32-5.62 1.88-10.35 5.57-14.52 4.63-5.24 9.01-10.7 13.76-15.82 3.15-3.4 6.49-6.74 10.22-9.47 6.95-5.08 10.59-3.88 13.25 4.15 2.73 8.21 4.68 16.7 7.77 24.75 3.2 8.33 7.18 16.39 11.27 24.34.79 1.53 3.61 2.02 5.49 2.99.55-1.99 1.78-4.07 1.54-5.96-2.13-16.49-4.62-32.94-6.81-49.42-2.58-19.41 2.48-36.82 14.22-52.39 7.01-9.31 14.25-18.47 20.89-28.04 4.73-6.81 8.75-14.13 12.87-21.34 6.58-11.53 12.53-23.45 19.57-34.69 7.48-11.93 18.04-21.84 32.02-23.69 12.42-1.64 17.68-8.9 22.59-18.15 2.34-4.41 5.25-8.69 6.61-13.4 1.73-5.96 3.82-12.6 2.8-18.43-2.22-12.7-5.18-25.52-9.96-37.45-4.09-10.21-9.31-20.99-20.46-23-3.99-8.06-6.45-15.46-10.84-21.44-16.32-22.22-16.51-45.59-3.74-68.56 10.9-19.6 19.73-39.95 28.19-60.58 3.61-8.79 2.33-14.55-4.14-17.74-6.43-3.18-11.65-.35-16.03 8.65-5.24 10.77-9.76 21.98-15.93 32.19-9.97 16.49-16.28 34.21-20.36 52.83-.75 3.44-.82 7.24-.26 10.73 3.94 24.32 15.73 44.24 34.15 60.47 2.9 2.55 5.74 5.61 7.39 9.02 3.47 7.17 6.36 14.65 9.08 22.15 6.43 17.71 5.59 35.23-1.91 52.49-3.36 7.73-8.78 12.44-17.52 12.48-7.98.03-15.96.13-23.93-.16-7.39-.26-11.99 2.26-15.83 9.26-8.94 16.32-18.99 32.05-28.91 47.82-11.86 18.87-24.51 37.27-35.94 56.39-8.45 14.14-18.24 26.96-30.19 38.25-9.42 8.9-18.66 17.99-27.84 27.13-5.21 5.19-9.77 5.66-14.35.02-9.51-11.73-20.07-22.16-32.7-30.57-5.45-3.63-5.36-7.64-.41-12.28 4.37-4.09 9.09-7.82 13.63-11.73 7.8-6.72 11.37-15.29 11.39-25.55.03-13.78-4.06-26.23-12.01-37.38-3.67-5.15-7.83-9.95-11.58-15.04-13.01-17.62-8.71-40.29 9.8-51.99 1.69-1.07 3.44-2.04 5.07-3.19 8.23-5.83 9.26-9.03 6.68-18.56-1.73-6.4-3.99-12.83-4.45-19.36-.68-9.53.67-19.14 11.04-23.52 14.99-6.33 29.77-14.2 45.46-17.61 25.97-5.63 46.68-18.42 64.43-37.45 6.01-6.44 10.08-13.55 9.74-22.23-1.09-27.89-1.59-56.02-22.9-78.12-4.59-4.76-7.81-10.83-12.3-15.72-8.08-8.81-16.23-17.66-25.14-25.59-7.37-6.56-16.86-10.82-20.37-21.18-.54-1.6-2.72-2.92-4.42-3.81-4.43-2.33-10.68-.85-13.57 2.92-2.88 3.77-2.48 8.1 1.82 12.37 5.67 5.62 11.66 10.92 17.54 16.32 8.08 7.42 16.5 14.51 24.24 22.28 21.84 21.95 36.27 47.41 37.18 79.35.23 8.24-1.8 15.02-7.38 20.91-3.66 3.87-7.44 7.66-10.75 11.82-6.43 8.08-14.52 13.63-24.26 16.82-18.96 6.23-37.91 12.47-56.93 18.51-8.81 2.79-11.98.4-12.86-9.18-2.14-23.18-4.21-46.37-6.32-69.55-.6-6.62-.02-13.65-2.12-19.76-4.02-11.74-3.38-23.48-3.42-35.49-.07-22.28.45-44.78-2.48-66.76-2.28-17.13-5.06-34.14-5.95-51.43-.13-2.6-.91-5.25-1.87-7.69-1.68-4.3-4.7-7.61-9.62-7.36-4.51.22-7.5 3.7-8.13 7.7-1.08 6.8-2.23 13.94-1.31 20.66 4.95 36.01 6.99 72.15 6.86 108.47-.03 6.97.59 13.96 1.18 20.92.82 9.6 2.23 19.16 2.79 28.77.83 14.11-6.54 20.11-20.61 17.41-12.68-2.43-23.94-7.96-34.22-15.62-5.61-4.18-10.99-8.68-16.75-12.63-17.87-12.27-37.05-16.58-58.76-11.84-15.87 3.47-30.04 10.65-44.8 16.6-27.5 11.09-39.97 32.56-41.88 61.27-.77 11.56 3.78 20.06 13.98 25.38 7.37 3.84 14.82 7.55 22.39 10.98 21.91 9.94 40.35 24.49 56.33 42.24 5.32 5.91 4.07 8.68-3.56 10.7-6.41 1.7-12.91 3.34-19 5.89a4657.913 4657.913 0 00-75.23 32.21c-5.42 2.38-10.18 6.23-15.43 9.07-10.46 5.66-7.45 19.89 3.44 22.86 5.07 1.38 10.25 3.51 14.5 6.54 14.08 10.03 28.28 20.01 41.32 31.3 5.15 4.46 8.69 11.93 10.64 18.7 4.16 14.47 1 28.58-6.99 41.08-13.08 20.48-26.74 40.59-40.38 60.72-2.96 4.37-6.53 8.46-10.39 12.07-5.07 4.73-8.71 3.61-10.59-3.34-4.58-16.99-13.39-31.79-22.76-46.4-10.41-16.24-20.87-32.47-30.7-49.07-18.57-31.35-24.59-65.77-23.6-101.72.23-8.16 3.88-14.82 10.89-19.17 9.42-5.84 19.41-10.21 30.69-11.08 4.3-.33 8.57-1.15 12.81-1.97 10.7-2.09 12.01-5.25 6.29-14.96-8.73-14.84-19.76-27.54-34.14-37.23-16.57-11.17-33.02-22.49-49.55-33.71-19.16-13-19.36-26.69-.75-39.72 14.73-10.31 29.41-20.7 43.83-31.44 9.1-6.78 10.69-13.63 5.34-23.52-6.97-12.88-14.37-25.53-22.05-38-4.1-6.66-10.21-11.34-17.77-13.9-4.38-1.48-9.38-4.28-12.86.37-3.4 4.54.59 8.71 3.02 12.57 7.26 11.51 14.92 22.78 21.8 34.51 6.88 11.74 5.6 16.43-5.36 24.27-14.62 10.47-29.21 21-44.01 31.2-7.32 5.05-10.35 11.71-10.1 20.39.41 14.18 6.9 24.38 18.81 32.01 15.96 10.23 31.77 20.76 47.01 32.02 6.27 4.64 11.41 11.12 16.14 17.46 5.35 7.18 4.16 10.73-3.87 14.97-6.77 3.57-13.64 6.97-20.63 10.07-17.91 7.95-23.58 23.18-20.67 42.98.87 5.92 2.36 11.75 3.14 17.68 5.43 41.15 20.21 78.51 45.74 111.31 11.54 14.83 20.38 31.18 29.15 47.63 1.45 2.73 4.63 6.14.88 8.83-4.01 2.88-6.53-1.09-9.07-3.59-.71-.7-1.38-1.45-2.04-2.19-20.22-22.56-41.69-44.14-60.36-67.93-28.6-36.45-53.17-75.79-74.02-117.21-16.62-33.01-30.58-67.26-41.95-102.46-7.24-22.39-17.01-43.37-31.82-61.77-2.69-3.34-5.68-6.61-9.09-9.15-3.9-2.9-11.22-2.11-13.96.91-3.33 3.69-1.75 7.41.27 11.03 1.78 3.2 3.46 6.47 5.42 9.55 10.77 16.95 18.51 35.19 25.36 54.07 16.81 46.32 35.08 91.96 60.47 134.56 40.61 68.14 89.4 129.09 151.57 178.91 7.43 5.95 13.19 13.96 19.82 20.92 1.75 1.84 3.6 4.19 5.84 4.87 7.88 2.39 15.94 4.15 25.47 6.53zm626.29-767.56c.05-.9.11-1.79.16-2.69-2.15.12-4.29.25-6.44.37 0 .65.01 1.29.02 1.94 2.08.13 4.17.25 6.25.38z"
          fill="transparent"/>
    <path d="M1053.63 996.61c-9.53-2.38-17.59-4.15-25.47-6.53-2.24-.68-4.09-3.02-5.84-4.87-6.63-6.96-12.4-14.97-19.82-20.92-62.17-49.82-110.96-110.77-151.57-178.91-25.39-42.6-43.66-88.24-60.47-134.56-6.85-18.88-14.6-37.12-25.36-54.07-1.96-3.09-3.64-6.35-5.42-9.55-2.02-3.63-3.61-7.34-.27-11.03 2.73-3.03 10.06-3.82 13.96-.91 3.41 2.54 6.4 5.81 9.09 9.15 14.81 18.41 24.59 39.38 31.82 61.77 11.38 35.2 25.33 69.45 41.95 102.46 20.85 41.42 45.42 80.77 74.02 117.21 18.67 23.78 40.14 45.36 60.36 67.93.67.74 1.33 1.49 2.04 2.19 2.54 2.5 5.06 6.47 9.07 3.59 3.75-2.69.57-6.1-.88-8.83-8.77-16.45-17.6-32.8-29.15-47.63-25.53-32.8-40.31-70.15-45.74-111.31-.78-5.93-2.27-11.76-3.14-17.68-2.91-19.79 2.76-35.03 20.67-42.98 6.99-3.1 13.86-6.5 20.63-10.07 8.03-4.23 9.22-7.79 3.87-14.97-4.73-6.34-9.86-12.82-16.14-17.46-15.24-11.26-31.05-21.79-47.01-32.02-11.91-7.63-18.4-17.83-18.81-32.01-.25-8.67 2.77-15.34 10.1-20.39 14.81-10.2 29.39-20.73 44.01-31.2 10.95-7.84 12.24-12.54 5.36-24.27s-14.54-23-21.8-34.51c-2.43-3.86-6.43-8.02-3.02-12.57 3.48-4.64 8.47-1.85 12.86-.37 7.56 2.56 13.67 7.24 17.77 13.9 7.67 12.47 15.08 25.12 22.05 38 5.35 9.9 3.77 16.75-5.34 23.52-14.42 10.73-29.1 21.13-43.83 31.44-18.61 13.02-18.41 26.72.75 39.72 16.53 11.22 32.99 22.54 49.55 33.71 14.38 9.69 25.41 22.39 34.14 37.23 5.71 9.72 4.41 12.87-6.29 14.96-4.24.83-8.51 1.64-12.81 1.97-11.28.87-21.27 5.24-30.69 11.08-7.01 4.34-10.66 11-10.89 19.17-.99 35.94 5.03 70.37 23.6 101.72 9.83 16.59 20.29 32.82 30.7 49.07 9.37 14.62 18.19 29.42 22.76 46.4 1.87 6.95 5.51 8.07 10.59 3.34 3.86-3.6 7.43-7.69 10.39-12.07 13.64-20.12 27.3-40.23 40.38-60.72 7.99-12.5 11.15-26.62 6.99-41.08-1.95-6.77-5.49-14.24-10.64-18.7-13.04-11.29-27.25-21.27-41.32-31.3-4.25-3.03-9.43-5.16-14.5-6.54-10.88-2.97-13.9-17.2-3.44-22.86 5.25-2.84 10.01-6.69 15.43-9.07 24.98-10.96 50.06-21.69 75.23-32.21 6.09-2.55 12.59-4.18 19-5.89 7.63-2.03 8.88-4.8 3.56-10.7-15.99-17.75-34.43-32.3-56.33-42.24-7.57-3.43-15.02-7.14-22.39-10.98-10.2-5.32-14.75-13.82-13.98-25.38 1.9-28.71 14.38-50.18 41.88-61.27 14.76-5.95 28.93-13.13 44.8-16.6 21.71-4.75 40.9-.43 58.76 11.84 5.76 3.95 11.14 8.45 16.75 12.63 10.28 7.66 21.54 13.19 34.22 15.62 14.08 2.7 21.45-3.3 20.61-17.41-.57-9.61-1.97-19.17-2.79-28.77-.59-6.96-1.21-13.95-1.18-20.92.13-36.32-1.92-72.46-6.86-108.47-.92-6.72.23-13.86 1.31-20.66.63-4 3.62-7.48 8.13-7.7 4.91-.24 7.94 3.06 9.62 7.36.95 2.44 1.73 5.1 1.87 7.69.89 17.29 3.67 34.31 5.95 51.43 2.93 21.98 2.42 44.48 2.48 66.76.04 12.01-.6 23.75 3.42 35.49 2.09 6.11 1.51 13.14 2.12 19.76 2.11 23.18 4.18 46.37 6.32 69.55.88 9.58 4.05 11.98 12.86 9.18 19.02-6.04 37.97-12.28 56.93-18.51 9.73-3.2 17.83-8.74 24.26-16.82 3.31-4.16 7.08-7.95 10.75-11.82 5.58-5.9 7.62-12.68 7.38-20.91-.91-31.94-15.33-57.4-37.18-79.35-7.73-7.77-16.15-14.86-24.24-22.28-5.88-5.4-11.88-10.7-17.54-16.32-4.3-4.27-4.7-8.6-1.82-12.37 2.88-3.77 9.14-5.25 13.57-2.92 1.71.9 3.88 2.21 4.42 3.81 3.51 10.36 12.99 14.62 20.37 21.18 8.92 7.93 17.06 16.78 25.14 25.59 4.49 4.89 7.71 10.96 12.3 15.72 21.31 22.11 21.81 50.23 22.9 78.12.34 8.67-3.74 15.79-9.74 22.23-17.75 19.03-38.46 31.81-64.43 37.45-15.69 3.41-30.47 11.28-45.46 17.61-10.37 4.38-11.72 13.99-11.04 23.52.46 6.53 2.72 12.96 4.45 19.36 2.58 9.53 1.55 12.73-6.68 18.56-1.63 1.15-3.38 2.12-5.07 3.19-18.51 11.7-22.81 34.37-9.8 51.99 3.76 5.09 7.91 9.89 11.58 15.04 7.96 11.15 12.04 23.6 12.01 37.38-.02 10.25-3.59 18.82-11.39 25.55-4.54 3.91-9.26 7.64-13.63 11.73-4.95 4.64-5.04 8.65.41 12.28 12.63 8.41 23.19 18.84 32.7 30.57 4.57 5.64 9.14 5.16 14.35-.02 9.18-9.14 18.42-18.23 27.84-27.13 11.95-11.29 21.73-24.1 30.19-38.25 11.43-19.13 24.08-37.52 35.94-56.39 9.91-15.77 19.96-31.5 28.91-47.82 3.84-7 8.44-9.53 15.83-9.26 7.97.29 15.95.19 23.93.16 8.74-.03 14.16-4.75 17.52-12.48 7.5-17.26 8.34-34.78 1.91-52.49-2.72-7.5-5.61-14.98-9.08-22.15-1.65-3.41-4.5-6.47-7.39-9.02-18.42-16.22-30.21-36.15-34.15-60.47-.56-3.48-.5-7.29.26-10.73 4.08-18.63 10.39-36.34 20.36-52.83 6.17-10.21 10.68-21.42 15.93-32.19 4.38-9 9.6-11.82 16.03-8.65 6.47 3.19 7.74 8.95 4.14 17.74-8.46 20.63-17.3 40.98-28.19 60.58-12.77 22.97-12.58 46.34 3.74 68.56 4.39 5.98 6.84 13.38 10.84 21.44 11.15 2.01 16.36 12.78 20.46 23 4.78 11.92 7.75 24.75 9.96 37.45 1.02 5.83-1.07 12.46-2.8 18.43-1.37 4.71-4.27 8.99-6.61 13.4-4.91 9.24-10.17 16.51-22.59 18.15-13.98 1.85-24.54 11.76-32.02 23.69-7.05 11.23-12.99 23.15-19.57 34.69-4.12 7.22-8.14 14.53-12.87 21.34-6.64 9.57-13.87 18.73-20.89 28.04-11.74 15.57-16.8 32.98-14.22 52.39 2.19 16.48 4.68 32.93 6.81 49.42.24 1.89-.99 3.97-1.54 5.96-1.88-.97-4.71-1.46-5.49-2.99-4.08-7.95-8.07-16.01-11.27-24.34-3.09-8.06-5.05-16.55-7.77-24.75-2.67-8.03-6.31-9.23-13.25-4.15-3.73 2.72-7.07 6.07-10.22 9.47-4.75 5.12-9.13 10.59-13.76 15.82-3.69 4.17-5.89 8.9-5.57 14.52.43 7.63.75 15.29 1.65 22.88 2.03 17.12-2.15 32.35-13.08 45.68-3.35 4.09-7.37 6.73-13.04 5.11-8.62-2.47-10.68-8.03-5.68-15.4 2.99-4.41 6.12-8.74 8.93-13.26 4.74-7.63 6.57-16.08 5.11-24.87-.47-2.83-2.77-6.43-5.21-7.53-1.86-.84-6.59.92-7.73 2.88-7.99 13.73-22.18 20.96-32.8 31.9-11.31 11.65-24.3 21.74-37.13 31.79-3.95 3.1-9.64 4.44-14.75 5.46-6.43 1.28-12.65-3.15-14.74-9.35-2.09-6.2-.09-10.8 6.84-14.49 21.44-11.43 39.08-27.63 56.04-44.63 7.99-8.01 15.58-16.43 23.27-24.74 7.23-7.81 7.77-12.36 2.71-21.52-7.4-13.39-17.9-23.02-32.94-27.21-11.03-3.07-18.75-.47-24.84 9.05-7.64 11.95-18.17 20.57-31.24 25.41-17.46 6.46-32.41 16.73-47.11 27.77-18.62 13.98-37.75 27.29-56.46 41.15-5.05 3.74-9.71 8.12-14 12.72-4.3 4.61-8.14 9.7-11.79 14.85-3.47 4.9-7.71 7.27-13.65 5.67-5.22-1.4-10.34-7.73-9.96-13.61.54-8.35 2.28-16.37 10.52-21.27 4.55-2.71 8.63-6.22 12.9-9.4 15.73-11.73 31.5-23.41 47.15-35.23 7.16-5.41 14.32-10.86 21.07-16.77 6.34-5.56 13.07-10.16 21.04-13.06 21.37-7.76 37.44-22.62 51.74-39.6 5.15-6.12 4.54-10.1-1.61-15.38-6.36-5.46-13.31-9.84-21.61-12.02-8.36-2.19-16.66-4.7-24.83-7.54-13.53-4.71-22.17-14.26-26.38-27.9-6.99-22.64-4.64-43.21 12.3-61.22 7.46-7.93 14.05-16.76 16.94-28.34-20.36-.28-39.83 2.21-58.48 8.6-16.33 5.6-32.24 12.47-48.1 19.35-9.74 4.23-10.09 11.32-.77 16.63 14.33 8.17 26.74 18.46 38.15 30.32 16.02 16.64 20.58 35.47 11.63 56.77-3.56 8.46-8.11 16.88-13.87 23.97-10.79 13.29-20.44 27.07-26.96 42.96-5.57 13.57-14.03 24.76-26.49 32.93-8.22 5.39-8.48 9.73-2.05 16.99q8.65 9.76 11.88 20.14zm131.82-286.45c8.87-5.35 18.65-9.15 25.54-15.91 10.13-9.95 21.03-18.19 33.44-24.88 15.68-8.45 24.32-22.16 24.19-39.75-.13-18.63-1.59-25.83-21.05-28.77-26.69-4.03-50.07-15.21-70.75-32.46-7.67-6.4-16.96-8.79-26.9-9.23-20.35-.9-38.54 6.23-56.3 14.91-17.07 8.34-24.76 22.25-24.55 41.11.11 9.35 3.79 15.86 12.28 19.87 11.13 5.25 22.25 10.55 33.19 16.19 6.17 3.18 12.58 6.37 17.83 10.81 13.46 11.38 26.36 23.43 39.43 35.27 4.39 3.98 8.64 8.12 13.64 12.84zm84.33-9.08c.11-12.87-5.38-17.53-15.46-15.85-11.25 1.88-20.56 7.17-28.54 15.18-3.51 3.52-7.03 7.15-11.06 9.99-24.67 17.35-40.88 41.61-54.62 67.63-7.4 14-4.76 39.97 15.87 48.52 17.87 7.41 35.22 15.56 50.68 27.39 5.92 4.52 12.56 4.42 18.64.37 7.16-4.77 14.54-9.49 20.76-15.36 11.97-11.3 12.65-23.98 2.99-37.53-3.66-5.14-7.83-9.94-11.35-15.18-11.61-17.27-16.96-44.75.93-66.97 2.5-3.11 5.24-6.1 7.26-9.5 1.98-3.32 3.2-7.11 3.89-8.69zM1679.92 229.05c-2.08-.13-4.17-.25-6.25-.38 0-.65-.01-1.29-.02-1.94 2.15-.12 4.29-.25 6.44-.37-.05.9-.11 1.79-.16 2.69z"/>
    <path d="M1185.44 710.16c-5-4.72-9.25-8.86-13.64-12.84-13.07-11.84-25.97-23.89-39.43-35.27-5.25-4.44-11.65-7.62-17.83-10.81-10.94-5.64-22.06-10.94-33.19-16.19-8.49-4.01-12.18-10.52-12.28-19.87-.22-18.86 7.48-32.77 24.55-41.11 17.76-8.68 35.95-15.81 56.3-14.91 9.94.44 19.23 2.83 26.9 9.23 20.68 17.25 44.06 28.43 70.75 32.46 19.46 2.94 20.92 10.13 21.05 28.77.13 17.58-8.51 31.3-24.19 39.75-12.41 6.69-23.31 14.93-33.44 24.88-6.88 6.76-16.67 10.56-25.54 15.91zM1269.77 701.07c-.69 1.59-1.9 5.37-3.89 8.69-2.03 3.4-4.76 6.39-7.26 9.5-17.89 22.22-12.54 49.7-.93 66.97 3.52 5.24 7.68 10.03 11.35 15.18 9.65 13.55 8.98 26.24-2.99 37.53-6.22 5.87-13.6 10.58-20.76 15.36-6.08 4.05-12.73 4.16-18.64-.37-15.47-11.83-32.81-19.98-50.68-27.39-20.63-8.55-23.27-34.52-15.87-48.52 13.75-26.02 29.95-50.27 54.62-67.63 4.04-2.84 7.56-6.47 11.06-9.99 7.98-8.01 17.29-13.3 28.54-15.18 10.09-1.68 15.57 2.99 15.46 15.85z"
          fill="transparent"/>
</svg>