<svg xmlns="http://www.w3.org/2000/svg" width="2351" height="2351">
    <path d="M0 0h2351v2351H0V0zm654.14 903.49c-3.26-6.17-6.88-12.12-9.63-18.45-2.62-6.04-6-12.43-6.14-18.73-.37-16.94-.85-34.17 1.78-50.8 4.2-26.57 10.35-52.88 16.76-79.03 3.15-12.84 10.17-24.77 12.92-37.65 5.25-24.59 21.12-41.77 37.35-59.04.68-.72 1.47-1.37 2.32-1.88 5.66-3.42 10.42-1.38 10.1 5.16-.28 5.81-1.53 12.04-4.13 17.19-13.76 27.28-22.51 55.8-27.44 86.09-4.77 29.33-9.31 58.43-7.96 88.23.38 8.39 1.21 16.55 4.96 24.23 3.13 6.41 3.92 13.11 3.13 20.34-2.56 23.14-4.61 46.33-6.94 69.49-2.11 20.97-6.29 41.38-15.75 60.49-4.48 9.05-5.85 18.92-6.39 29.03-.69 12.95 5.61 21.54 15.92 27.81 2.69 1.64 6.22 2.56 9.38 2.6 5.8.07 8.17-3.53 5.3-8.49-9.33-16.11-6.26-31.82.02-47.93 3.24-8.32 5.45-17.09 7.47-25.81 2.7-11.65 4.88-23.43 7.05-35.19 2.16-11.75 3.95-23.58 6.05-35.34 1.52-8.48 3.32-16.91 4.92-25.37.71-3.76 2.73-5.89 8-6 7.06 11.23 14.76 22.82 21.72 34.85 2.65 4.58 2.09 10.01 1.17 15.53-3.35 20.31-6.87 40.67-8.55 61.16-1.25 15.19-.01 30.62.64 45.91.46 10.74 4.87 20.08 13.1 27.11 2.61 2.23 6.31 3.88 9.68 4.25 2.38.26 5.84-1.51 7.29-3.5.97-1.33-.02-5.17-1.37-6.94-9.67-12.6-10.53-26.9-8.88-41.83 1.97-17.83 3.99-35.65 5.68-53.51 1.2-12.66 3.58-24.97 7.98-36.95 8.36-22.81 17.34-45.45 24.35-68.67 8.68-28.75 21.9-54.94 39.01-79.4 5.39-7.71 7.88-8.69 16.61-5.59 3.28 1.17 6.63 2.12 10.82 3.44 1.14-4.35 2.51-7.46 2.67-10.63.47-9.35 5.66-14.91 14.04-17.3 9.89-2.83 19.98-5.03 30.07-7.07 12.38-2.5 24.94-4.13 37.25-6.89 15.66-3.51 31.09-4.04 46.16 1.92 24.63 9.75 47.79 22.29 67.1 40.64 25.18 23.93 46.41 51.31 66.65 79.45 1.39 1.93 2.17 4.31 3.32 6.65-1.56.26-2.29.62-2.8.42-1.84-.73-3.61-1.65-5.41-2.49-29.28-13.76-59.27-25.76-91.11-31.92-13.96-2.7-28.49-2.3-42.63-4.25-16.85-2.32-33.31-.78-49.42 3.83-12.76 3.65-25.08 8.81-37.76 12.76-9.46 2.95-17.38 8.12-24.88 14.34-13.82 11.47-28.02 22.5-41.64 34.19-14.63 12.56-29.3 25.16-42.98 38.73-10.78 10.7-15.35 24.52-15.32 39.97.03 10.62-1.27 21.24-1.71 31.86-.36 8.64-.77 17.32-.32 25.93.49 9.5 4.73 14.51 12.94 16.58.5-1.8 1.33-3.59 1.46-5.43 1.33-18.57 2.48-37.16 3.82-55.73 1.35-18.62 8.04-35.02 21.62-48.05 11.52-11.05 23.42-21.72 35.34-32.35 11.18-9.97 22.56-19.72 33.92-29.49 5.53-4.76 10.57-10.67 16.95-13.77 19.79-9.6 40.42-17.06 62.26-20.87 14.66-2.56 29.18.07 43.73-.03 35.39-.24 65.62 15.65 97.06 28.05 3.45 1.36 5.36 3.66 3.98 8.43-3.92-.45-7.84-.8-11.72-1.36-16.24-2.33-32.62-3.47-48.76-.5-45.63 8.38-90.12 20.65-132.2 40.73-27.02 12.9-48.67 31.69-61.85 58.71-10.2 20.9-18.8 42.58-27.69 64.09-1.27 3.07-1.1 7.41 0 10.62 1.71 5.04 3.54 9.7 3.2 15.3-.3 4.81 2.45 8.67 8.55 10.6 1.92-8.32 4.55-15.85-5.51-21.51 13.89-25.75 27.5-50.91 41.04-76.11 13.72-25.54 35.35-41.95 61.29-53.48 4.18-1.86 8.14-2.51 13.26.4-1.13 2.97-1.87 6.16-3.47 8.83-3.24 5.43-7.02 10.53-10.43 15.85-18.69 29.14-38.16 57.9-46.08 92.42-.37 1.6-1.1 3.15-1.81 4.65-7.59 16.06-12.44 33-15.99 50.31-3.93 19.2-8.51 38.37-5.5 58.25.51 3.4-.45 7.41 5.41 9.5 1.06-3.95 2.25-7.58 2.99-11.3 3.78-18.93 6.92-38.01 15.83-55.49 1.03-2.03 1.1-4.52 1.88-6.71 4.32-12.17 8.7-24.33 13.11-36.47.9-2.48 2.6-4.8 2.91-7.33 1.18-9.5 5.27-17.75 9.81-25.97 4.66-8.43 8.79-17.16 13.21-25.73 2.74-5.32 5.21-10.83 8.43-15.85 9.7-15.14 19.68-30.1 29.62-45.09 10.56-15.93 25.18-26.29 43.54-31.47 17.12-4.83 34.65-6.23 52.34-6.74 15.37-.44 30.64-.4 45.52 4.1 11.13 3.36 22.19 6.96 33.32 10.35 8.2 2.5 12.46 8.26 14.42 16.32 1.72 7.07 3.36 14.22 5.87 21.03 3.37 9.14 3.82 18.07.73 27.27-2.96 8.83-5.35 17.89-8.85 26.5-3.58 8.82-3.21 17.53-1.24 26.37 2.65 11.85 15.14 16.76 24.75 9.46 6.93-5.26 12.62-11.77 15.83-20.19 4.99-13.06 5.1-13.02 17.93-9.36 10.68 3.05 15.29-.12 15.49-11.14.17-9.66.04-19.32-.23-28.98-.36-12.71 2.58-24.81 9.48-35.17 14.92-22.41 27.78-46.29 46.27-66.24 3.59-3.87 6.97-8.25 9.25-12.97 9.67-20.01 23.26-37.19 37.51-53.99 17.03-20.08 34.11-40.07 55.47-55.85 6.92-5.11 11.8-3.89 13.93 4.46 2.38 9.33 4.51 18.81 5.7 28.35 3.05 24.42 5.3 48.93 8.31 73.35 1.76 14.26 2.15 28.45 1.44 42.81-.58 11.61 0 23.32.74 34.94 1.6 24.89 3.62 49.75 5.53 74.61.2 2.64.19 5.52 1.24 7.85 5.07 11.22 6.88 22.61 4.58 34.91-1.15 6.12 2.12 10.05 7.18 11.54 8.33 2.45 15.39-1.56 17.18-10.14 2.65-12.73 4.7-25.46 2.07-38.57-1.37-6.82-2.08-13.84-2.32-20.8-.73-21.62-1.1-43.25-1.61-64.87-.54-22.94-.16-45.93-4.25-68.67-1.59-8.83-2.89-17.74-3.66-26.67-1.22-14.22-1.25-28.57-2.97-42.72-1.75-14.47-4.96-28.76-7.43-43.15-.39-2.25-.58-4.65-.27-6.89.79-5.65 3.02-7.3 8.81-7.11 8.12.28 15.9 5.6 17.68 13.63 1.86 8.39 3.07 17.05 3.38 25.63 1 27.6 1.29 55.22 2.2 82.83.33 9.95 1.68 19.87 2.5 29.81.76 9.27 1.63 18.54 2.09 27.83.62 12.28.64 24.6 1.41 36.87.44 7.09 5.28 10.32 11.66 7.53 3.7-1.62 7.75-4.68 9.43-8.16 3.28-6.8 6.32-14.22 7.08-21.62 1.21-11.81.63-23.82.55-35.75-.25-38.64-.63-77.28-.9-115.91-.01-2.1.47-4.21.79-6.94 8 2.73 14.47 5.88 19.44 11.56 6.36 7.26 12.69 14.55 18.93 21.91 3.87 4.56 4.76 9.79 4.28 15.82-1.5 18.56-2.89 37.15-3.45 55.76-.41 13.72-1.73 27.15-5.23 40.45-2.11 8.02-3.2 16.31-4.58 24.5-.71 4.18-.3 8.08 5.1 9.9 1.73-.84 3.91-1.65 5.82-2.87 12.59-8.04 20.78-19.44 25.32-33.56 1.43-4.44 2.83-8.89 4.25-13.33 2.33 3.54 3.43 6.7 3.82 9.95 1.71 14.18 3.77 28.35 4.68 42.59 1.49 23.55 5.43 46.84 5.33 70.61-.07 17.14 3.62 34.3 5.68 51.44.64 5.36 3.84 9.12 8.1 12.06 4.65 3.2 7.58 2.77 11.06-1.76 4.86-6.33 6.11-13.77 6.87-21.52 1.49-15.2 2.49-30.55 5.45-45.49 8.33-41.99 9.81-83.91.39-125.81-5.25-23.37-11.36-46.55-17.36-69.75-6.57-25.42-13.65-50.71-20.05-76.17-2.01-7.99-3.41-16.34-3.59-24.56-.54-24.31.03-48.65-.6-72.95-.26-9.88-2.01-19.82-3.99-29.54a288.416 288.416 0 00-8.1-30.88c-9.5-29.48-22.57-56.89-46.74-77.62-27.26-23.37-58.8-38.78-92.76-49.42-7.81-2.45-16.37-3.33-24.61-3.47-17.97-.29-35.96.18-53.93.7-9.98.29-18.73 3.66-25.77 11.33-3.07 3.34-7.01 6.37-11.15 8.14-8.77 3.76-15.93 9.37-22.72 15.91-20.85 20.04-42.38 39.38-53.4 67.33-8.54 21.65-18.37 42.8-26.7 64.53-5.58 14.57-9.47 29.79-14.27 44.67-1.7 5.27-3.04 11-9.58 13.42-4.92-3.96-7.2-9.6-8.9-15.19-9.34-30.78-24.85-58.76-38.72-87.53-11.49-23.84-25.21-46.09-41.84-66.59-2.92-3.6-5.95-7.28-9.55-10.14-30.28-24.03-61.11-47.38-95.3-65.65-9.54-5.1-20.21-9.79-30.76-10.91-19.77-2.1-39.83-1.47-59.78-1.91-1.29-.03-2.64.42-3.89.86-26.75 9.36-51.06 22.6-70.68 43.59-9.53 10.2-19.49 20-29.2 30.04a35.563 35.563 0 00-4.34 5.45c-7.6 11.74-15.57 23.27-22.52 35.39-6.6 11.51-12.87 23.34-17.82 35.63-4.3 10.68-10.46 19.23-19.96 25.41-8.37 5.45-16.79 10.82-25.38 15.91-8.16 4.83-14.71 11.05-20.38 18.74-4.86 6.59-10.91 12.49-17.18 17.81-5.76 4.89-10.8 10.24-13.15 17.25-10.43 31.23-21.41 62.32-30.38 93.97-9.16 32.34-8.46 65.9-7.56 99.19.54 20.1 10.01 35.55 27.7 45.61 3.44 1.96 6.89 4.57 12.03-.77z"
          fill="transparent"/>
    <path d="M654.14 903.49c-5.14 5.35-8.58 2.73-12.03.77-17.69-10.07-27.15-25.51-27.7-45.61-.9-33.29-1.6-66.85 7.56-99.19 8.97-31.65 19.95-62.74 30.38-93.97 2.34-7.02 7.39-12.36 13.15-17.25 6.27-5.32 12.32-11.22 17.18-17.81 5.67-7.69 12.22-13.91 20.38-18.74 8.59-5.08 17.02-10.46 25.38-15.91 9.5-6.19 15.65-14.74 19.96-25.41 4.95-12.28 11.22-24.11 17.82-35.63 6.94-12.12 14.92-23.65 22.52-35.39a36.82 36.82 0 014.34-5.45c9.71-10.04 19.67-19.84 29.2-30.04 19.62-20.99 43.93-34.23 70.68-43.59 1.25-.44 2.6-.89 3.89-.86 19.94.44 40.01-.19 59.78 1.91 10.55 1.12 21.22 5.82 30.76 10.91 34.19 18.27 65.02 41.62 95.3 65.65 3.6 2.86 6.63 6.54 9.55 10.14 16.63 20.5 30.34 42.75 41.84 66.59 13.87 28.77 29.38 56.75 38.72 87.53 1.7 5.59 3.98 11.23 8.9 15.19 6.54-2.43 7.88-8.15 9.58-13.42 4.81-14.88 8.69-30.1 14.27-44.67 8.33-21.73 18.16-42.88 26.7-64.53 11.02-27.95 32.55-47.28 53.4-67.33 6.79-6.53 13.95-12.15 22.72-15.91 4.14-1.77 8.08-4.8 11.15-8.14 7.04-7.67 15.79-11.05 25.77-11.33 17.97-.52 35.96-.99 53.93-.7 8.24.13 16.79 1.02 24.61 3.47 33.96 10.64 65.5 26.04 92.76 49.42 24.17 20.72 37.24 48.14 46.74 77.62 3.26 10.12 5.98 20.46 8.1 30.88 1.98 9.73 3.73 19.66 3.99 29.54.63 24.31.06 48.64.6 72.95.18 8.22 1.58 16.56 3.59 24.56 6.4 25.46 13.49 50.75 20.05 76.17 5.99 23.2 12.1 46.38 17.36 69.75 9.42 41.9 7.94 83.82-.39 125.81-2.96 14.94-3.96 30.29-5.45 45.49-.76 7.76-2.02 15.19-6.87 21.52-3.48 4.53-6.41 4.96-11.06 1.76-4.26-2.94-7.46-6.7-8.1-12.06-2.06-17.14-5.75-34.3-5.68-51.44.09-23.77-3.84-47.06-5.33-70.61-.9-14.24-2.96-28.41-4.68-42.59-.39-3.25-1.49-6.41-3.82-9.95-1.41 4.44-2.82 8.89-4.25 13.33-4.55 14.12-12.74 25.52-25.32 33.56-1.92 1.22-4.1 2.03-5.82 2.87-5.4-1.82-5.8-5.71-5.1-9.9 1.38-8.2 2.48-16.49 4.58-24.5 3.5-13.3 4.82-26.73 5.23-40.45.56-18.61 1.95-37.2 3.45-55.76.49-6.03-.41-11.26-4.28-15.82-6.24-7.36-12.58-14.65-18.93-21.91-4.97-5.68-11.45-8.83-19.44-11.56-.32 2.73-.8 4.83-.79 6.94.27 38.64.65 77.28.9 115.91.08 11.93.66 23.94-.55 35.75-.76 7.41-3.8 14.82-7.08 21.62-1.68 3.48-5.73 6.55-9.43 8.16-6.38 2.79-11.21-.44-11.66-7.53-.76-12.27-.79-24.59-1.41-36.87-.47-9.29-1.33-18.56-2.09-27.83-.82-9.94-2.17-19.85-2.5-29.81-.91-27.6-1.2-55.23-2.2-82.83-.31-8.58-1.52-17.24-3.38-25.63-1.78-8.03-9.56-13.35-17.68-13.63-5.78-.2-8.01 1.45-8.81 7.11-.32 2.25-.12 4.64.27 6.89 2.47 14.39 5.67 28.68 7.43 43.15 1.71 14.15 1.74 28.49 2.97 42.72.77 8.93 2.07 17.84 3.66 26.67 4.09 22.74 3.71 45.73 4.25 68.67.51 21.62.87 43.25 1.61 64.87.24 6.96.95 13.98 2.32 20.8 2.63 13.11.58 25.84-2.07 38.57-1.79 8.58-8.85 12.59-17.18 10.14-5.06-1.49-8.33-5.42-7.18-11.54 2.3-12.29.49-23.69-4.58-34.91-1.05-2.33-1.04-5.2-1.24-7.85-1.9-24.87-3.93-49.73-5.53-74.61-.75-11.62-1.31-23.33-.74-34.94.71-14.36.32-28.54-1.44-42.81-3.01-24.42-5.26-48.94-8.31-73.35-1.19-9.54-3.33-19.02-5.7-28.35-2.12-8.35-7.01-9.57-13.93-4.46-21.36 15.78-38.44 35.77-55.47 55.85-14.25 16.8-27.84 33.98-37.51 53.99-2.28 4.72-5.66 9.1-9.25 12.97-18.49 19.95-31.35 43.83-46.27 66.24-6.89 10.36-9.84 22.46-9.48 35.17.27 9.65.4 19.32.23 28.98-.2 11.02-4.8 14.19-15.49 11.14-12.83-3.66-12.94-3.7-17.93 9.36-3.21 8.42-8.9 14.93-15.83 20.19-9.61 7.3-22.1 2.4-24.75-9.46-1.98-8.84-2.34-17.56 1.24-26.37 3.5-8.61 5.89-17.67 8.85-26.5 3.09-9.2 2.64-18.14-.73-27.27-2.51-6.81-4.15-13.96-5.87-21.03-1.96-8.05-6.22-13.82-14.42-16.32-11.12-3.39-22.18-6.99-33.32-10.35-14.88-4.5-30.15-4.54-45.52-4.1-17.7.51-35.23 1.91-52.34 6.74-18.36 5.18-32.97 15.54-43.54 31.47-9.94 14.99-19.91 29.95-29.62 45.09-3.22 5.02-5.69 10.53-8.43 15.85-4.41 8.57-8.54 17.3-13.21 25.73-4.54 8.22-8.64 16.47-9.81 25.97-.31 2.52-2.01 4.85-2.91 7.33-4.41 12.14-8.79 24.29-13.11 36.47-.78 2.19-.84 4.68-1.88 6.71-8.91 17.47-12.05 36.56-15.83 55.49-.74 3.72-1.93 7.35-2.99 11.3-5.86-2.09-4.9-6.09-5.41-9.5-3.01-19.88 1.57-39.06 5.5-58.25 3.55-17.31 8.4-34.26 15.99-50.31.71-1.5 1.44-3.04 1.81-4.65 7.92-34.52 27.39-63.28 46.08-92.42 3.42-5.32 7.2-10.42 10.43-15.85 1.59-2.67 2.33-5.86 3.47-8.83-5.11-2.91-9.07-2.26-13.26-.4-25.94 11.53-47.57 27.94-61.29 53.48-13.54 25.2-27.15 50.36-41.04 76.11 10.06 5.67 7.43 13.19 5.51 21.51-6.1-1.93-8.85-5.79-8.55-10.6.35-5.6-1.49-10.26-3.2-15.3-1.09-3.21-1.26-7.55 0-10.62 8.9-21.51 17.5-43.19 27.69-64.09 13.19-27.02 34.84-45.82 61.85-58.71 42.07-20.09 86.57-32.35 132.2-40.73 16.14-2.97 32.52-1.83 48.76.5 3.88.56 7.8.91 11.72 1.36 1.38-4.76-.53-7.07-3.98-8.43-31.45-12.4-61.67-28.29-97.06-28.05-14.54.1-29.07-2.52-43.73.03-21.84 3.81-42.47 11.27-62.26 20.87-6.38 3.09-11.42 9.01-16.95 13.77-11.36 9.77-22.74 19.51-33.92 29.49-11.92 10.63-23.82 21.3-35.34 32.35-13.58 13.03-20.27 29.43-21.62 48.05-1.35 18.57-2.49 37.15-3.82 55.73-.13 1.84-.96 3.63-1.46 5.43-8.2-2.07-12.44-7.08-12.94-16.58-.45-8.62-.03-17.3.32-25.93.44-10.63 1.74-21.25 1.71-31.86-.04-15.45 4.53-29.27 15.32-39.97 13.68-13.57 28.35-26.17 42.98-38.73 13.62-11.7 27.82-22.72 41.64-34.19 7.5-6.23 15.42-11.4 24.88-14.34 12.68-3.95 25-9.11 37.76-12.76 16.11-4.6 32.57-6.15 49.42-3.83 14.14 1.95 28.67 1.55 42.63 4.25 31.84 6.16 61.83 18.17 91.11 31.92 1.8.84 3.57 1.76 5.41 2.49.51.2 1.23-.16 2.8-.42-1.15-2.35-1.93-4.72-3.32-6.65-20.25-28.14-41.48-55.51-66.65-79.45-19.31-18.36-42.46-30.9-67.1-40.64-15.07-5.96-30.5-5.43-46.16-1.92-12.31 2.76-24.87 4.39-37.25 6.89-10.09 2.04-20.18 4.24-30.07 7.07-8.38 2.39-13.57 7.95-14.04 17.3-.16 3.17-1.53 6.27-2.67 10.63-4.18-1.32-7.54-2.28-10.82-3.44-8.72-3.1-11.22-2.13-16.61 5.59-17.1 24.46-30.33 50.65-39.01 79.4-7.01 23.23-15.99 45.87-24.35 68.67-4.39 11.98-6.78 24.29-7.98 36.95-1.69 17.85-3.71 35.68-5.68 53.51-1.65 14.94-.79 29.23 8.88 41.83 1.35 1.76 2.34 5.61 1.37 6.94-1.45 1.98-4.91 3.75-7.29 3.5-3.37-.37-7.08-2.02-9.68-4.25-8.23-7.03-12.64-16.37-13.1-27.11-.66-15.3-1.89-30.73-.64-45.91 1.68-20.49 5.2-40.85 8.55-61.16.91-5.53 1.48-10.95-1.17-15.53-6.96-12.03-14.66-23.62-21.72-34.85-5.28.1-7.29 2.24-8 6-1.61 8.46-3.4 16.89-4.92 25.37-2.1 11.77-3.89 23.59-6.05 35.34-2.17 11.77-4.35 23.54-7.05 35.19-2.02 8.72-4.23 17.49-7.47 25.81-6.28 16.11-9.35 31.82-.02 47.93 2.87 4.96.5 8.56-5.3 8.49-3.16-.04-6.69-.96-9.38-2.6-10.31-6.27-16.61-14.86-15.92-27.81.54-10.11 1.91-19.98 6.39-29.03 9.46-19.11 13.64-39.52 15.75-60.49 2.33-23.16 4.37-46.35 6.94-69.49.8-7.22 0-13.92-3.13-20.34-3.75-7.68-4.58-15.83-4.96-24.23-1.35-29.8 3.18-58.9 7.96-88.23 4.93-30.29 13.68-58.82 27.44-86.09 2.6-5.15 3.85-11.38 4.13-17.19.31-6.54-4.45-8.58-10.1-5.16-.84.51-1.64 1.16-2.32 1.88-16.23 17.27-32.11 34.45-37.35 59.04-2.75 12.88-9.77 24.81-12.92 37.65-6.41 26.15-12.56 52.46-16.76 79.03-2.63 16.63-2.14 33.87-1.78 50.8.14 6.3 3.51 12.69 6.14 18.73 2.75 6.33 6.37 12.28 9.63 18.45zm626.05-86.63c-6.45-1.68-7.34 3.96-9.56 7.56-.57.93.45 2.85.74 4.32 1.62-.68 4.03-.91 4.71-2.11 1.74-3.1 2.72-6.63 3.93-10.1 1.43-3.98 7.41-6.38 4.36-12.46-3.89 3.82-4.77 8.07-4.18 12.8zm-85.76-20.75c.79.56 1.59 1.12 2.38 1.67 2.18-2.05 5.18-3.7 6.4-6.22 7.54-15.56 16.08-30.84 21.59-47.12 6.89-20.39 16.94-39.02 27.34-57.55 2.97-5.3 7.97-9.57 12.43-13.91 5.69-5.55 12.95-9.87 17.4-16.22 6.47-9.23 14.29-16.37 23.37-22.76 9.24-6.51 17.71-14.08 26.7-20.95 6.34-4.84 12.92-9.38 19.5-13.9 5.93-4.07 12.49-5.9 19.79-5.51 44.37 2.4 79.82 20.54 103.98 58.66 2.47 3.9 5.38 6.75 10.14 7.14 17.09 1.38 33.22 6.31 49.05 12.7 8.62 3.48 11.97.8 12.55-8.93 1.83-30.93-2.24-61.1-12.36-90.34-5.99-17.31-12.67-34.48-24.23-48.99-21.05-26.41-49.35-40.88-81.74-48.13-21.1-4.72-42.42-1.78-63.65-1.12-5.91.18-12.09.94-17.62 2.92-25.17 9.06-47.12 22.9-64.09 44.12-25.26 31.59-42.83 67.06-55.52 105.34-14.38 43.37-24.48 87.69-32.04 132.67-2.04 12.12-3.01 24.24-1.34 36.43zm-75.51-94.77c-1.5-3.46-2.1-5.75-3.35-7.59-13.4-19.72-22.82-41.27-30.21-63.85-7.17-21.9-18.9-40.97-36.14-56.57-4.41-3.99-8.88-8.38-11.79-13.46-11.35-19.81-28.09-34.43-45.15-48.89-9.03-7.65-19.43-12.05-31.06-11.81-19.41.4-38.66 3.46-55.97 12.5-14.99 7.82-28.98 17.57-43.3 26.64-3.35 2.12-6.44 4.75-9.37 7.46-43.85 40.59-74.7 89.81-96.07 145.27-.93 2.4-1.21 5.22-1.09 7.82.23 4.99 2.97 7.29 7.86 6.7 2.6-.32 5.1-1.44 7.66-2.12 15.08-4.01 30.13-8.16 45.27-11.95 9.54-2.38 17.06-7.31 22.11-15.77 1.87-3.14 3.33-6.52 5.07-9.74 16.95-31.39 42.05-53.76 75.08-67.05 16.01-6.44 32.91-7.41 50.03-7.34 30.96.14 57.8 10.74 78.6 33.3 20.03 21.72 41.75 42.18 57.33 67.73 2.92 4.79 7.03 7.76 14.49 8.72zm46.62 23.84c0-1.93.12-3.87-.02-5.79-1.42-19.68-5.19-38.91-11.44-57.61-14.76-44.14-36.4-84.99-60.2-124.75-11.08-18.52-24.9-34.56-44.26-45.09-1.44-.78-2.62-2.03-3.97-3-18.04-13.1-35.76-26.7-54.24-39.15-17.25-11.62-36.63-16.3-57.7-16.17-23.66.15-44.88 8.58-66.28 16.61-5.38 2.02-10.13 6.38-14.43 10.45-8.47 8-16.51 16.46-24.56 24.89-14.5 15.18-28.75 30.56-39.26 48.98-3.32 5.82-5.96 11.69-5.91 19.73 3.79-1.28 7.04-1.9 9.81-3.41 11.1-6.02 22.13-12.17 33.02-18.56 9.46-5.56 18.29-12.34 28.13-17.07 10.17-4.89 18.99-11.04 25.95-19.74 13.19-16.48 31.21-24.07 51.29-25.44 30.89-2.11 60.13 5.29 87.07 20.62 6.28 3.57 12.13 8.38 17.13 13.63 13.34 13.99 25.6 28.85 35.12 45.88 4.52 8.09 9.85 15.86 15.65 23.09 22.64 28.22 37.94 60.98 56.88 91.48 6.59 10.61 7.81 23.22 9.91 35.36 1.6 9.22 4.35 17.99 12.3 25.06zM862.71 682.1c14.35-1.27 26.64-1.88 38.79-3.54 17.12-2.35 34.08-5.91 51.21-8.15 17.04-2.23 33.91-.64 50.17 5.4 38.81 14.41 73.42 34.63 97.35 69.86 2.47 3.64 6.32 6.35 10.34 10.28 1.77-7.51-1.25-12.12-3.56-16.78-21.43-43.14-50.49-80.67-85.11-113.89-23.34-22.4-50.11-30.15-81.54-17.5-32.61 13.13-56.4 35.88-74.51 65.28-1.31 2.12-1.7 4.8-3.15 9.05zm370 112.49c10.49-5.63 15.55-12.53 18.41-21.53 1.38-4.32 3.06-9.3 6.25-12.14 9.64-8.56 19.37-17.11 32.01-21.56 5.45-1.92 10.82-5.28 15.02-9.27 9.4-8.91 18.31-18.39 26.9-28.09 6.84-7.72 15.03-11.56 25.19-12.33 9.6-.73 19.49-.94 28.65-3.52 15.92-4.48 31.42-10.51 47.03-16.09 10.69-3.82 14.21-11.7 9.41-22.01-1.9-4.08-4.86-8.13-8.35-10.91-6.48-5.14-13.52-9.64-20.66-13.84-20.47-12.04-40.18-8.75-58.99 3.97-13.8 9.33-26.09 20.36-38.05 32.05-36.35 35.52-64.04 76.28-79.57 124.93-.88 2.76-1.74 5.52-3.26 10.34zm-495.45 28.47c.06 20.17 3.81 48.37 8.21 60.71 1.37 3.85 1.8 9.4 7.17 9.59 5.48.2 6.22-5.19 7.67-9.14 5.01-13.73 9.81-27.54 14.87-41.24 13.24-35.86 30.16-69.55 58.01-96.65 4-3.89 4.88-8.53 3.73-13.73-1.8-8.15-6.17-14.83-12.96-19.46-2.75-1.88-7.07-3.29-10.13-2.57-11.59 2.73-23.39 5.39-34.29 10.01-15.73 6.67-27.02 19.06-31.34 35.51-5.89 22.42-11.7 45.07-10.94 66.98zm379.65-8.07c.63-8.21.66-8.22-3.13-15.14-16.44-30.04-37.43-56.55-62.39-79.91-4.81-4.5-9.91-9.11-15.69-12.1-13.58-7.01-27.63-13.1-41.52-19.49-9.31-4.28-19.18-5.68-29.25-4.27-22.72 3.18-45.51 6.11-68.05 10.32-12.64 2.36-24.83 7.09-37.22 10.76-4.15 1.23-5.95 3.83-5.01 8.25 2.56 12.01 12.92 19.74 24.69 18.11 23.71-3.28 47.48-6.21 71.07-10.17 22.85-3.84 44.44-.32 65.14 9.14 28.47 13.01 53.71 30.58 74.09 54.67 6.02 7.11 12.21 14.07 18.44 21 2.6 2.89 5.49 5.51 8.83 8.81zm374.12-118.25c-5 2.82-6.08 7.32-5.91 12.68.24 7.26 2.44 13.89 6.89 19.39 10.78 13.34 26.34 19.93 40.99 27.66 3.3 1.74 6.35-.72 6.41-4.93.06-4.27-.17-8.7-1.27-12.8-4.45-16.53-29.83-38.93-47.12-42.02zM779.8 597.48c-4.85-5.34-8.9-5.22-12.11-2.31-4.62 4.17-9.58 8.54-12.56 13.86-11.76 21.01-20.37 43.32-24.82 67.08-.51 2.73-.45 5.56-.65 8.35.63.2 1.26.41 1.9.61 16.08-29.19 32.16-58.38 48.24-87.58zm-66.73 162.57c-5.32.08-6.36 3.45-6.86 7.16-2.51 18.71-4.96 37.43-7.43 56.15-.61 4.6.59 7.82 7.09 7.97.68-3.79 1.43-7.54 2.02-11.32 1.72-11.07 3.43-22.15 5.04-33.24 1.28-8.79 1.97-17.59.14-26.72zm15.65-72.4c-7.48 9.71-9.91 18.43-9.76 30.02 2.96-1.94 5.24-2.64 6.12-4.15 4.28-7.32 5.03-15.3 3.64-25.87zm710.1 14.9c1.83 1.31 3.08 2.9 4.34 2.91 1.26 0 2.53-1.56 3.79-2.43-1.25-1.2-2.35-3.02-3.82-3.4-.96-.25-2.46 1.59-4.31 2.92z"/>
    <path d="M1194.42 796.12c-1.67-12.18-.7-24.31 1.34-36.43 7.56-44.98 17.66-89.3 32.04-132.67 12.69-38.27 30.26-73.75 55.52-105.34 16.97-21.22 38.92-35.06 64.09-44.12 5.52-1.99 11.7-2.74 17.62-2.92 21.23-.66 42.55-3.6 63.65 1.12 32.39 7.24 60.69 21.71 81.74 48.13 11.56 14.51 18.24 31.68 24.23 48.99 10.12 29.24 14.2 59.41 12.36 90.34-.58 9.73-3.93 12.41-12.55 8.93-15.83-6.39-31.96-11.32-49.05-12.7-4.76-.38-7.67-3.24-10.14-7.14-24.16-38.12-59.62-56.26-103.98-58.66-7.3-.39-13.86 1.44-19.79 5.51-6.58 4.52-13.16 9.05-19.5 13.9-8.99 6.87-17.47 14.44-26.7 20.95-9.08 6.39-16.9 13.53-23.37 22.76-4.45 6.35-11.71 10.67-17.4 16.22-4.46 4.35-9.46 8.61-12.43 13.91-10.4 18.53-20.44 37.16-27.34 57.55-5.51 16.29-14.05 31.56-21.59 47.12-1.22 2.51-4.22 4.17-6.4 6.22-.79-.56-1.59-1.12-2.38-1.67zM1118.91 701.34c-7.46-.95-11.57-3.93-14.49-8.72-15.58-25.55-37.3-46.01-57.33-67.73-20.8-22.56-47.64-33.16-78.6-33.3-17.12-.08-34.02.9-50.03 7.34-33.03 13.29-58.14 35.65-75.08 67.05-1.74 3.22-3.2 6.6-5.07 9.74-5.05 8.46-12.56 13.39-22.11 15.77-15.14 3.78-30.19 7.93-45.27 11.95-2.56.68-5.06 1.8-7.66 2.12-4.89.6-7.63-1.71-7.86-6.7-.12-2.59.16-5.42 1.09-7.82 21.36-55.46 52.22-104.67 96.07-145.27 2.92-2.71 6.01-5.34 9.37-7.46 14.32-9.07 28.31-18.82 43.3-26.64 17.31-9.03 36.56-12.1 55.97-12.5 11.64-.24 22.03 4.16 31.06 11.81 17.06 14.45 33.8 29.07 45.15 48.89 2.91 5.08 7.38 9.47 11.79 13.46 17.23 15.6 28.97 34.67 36.14 56.57 7.39 22.58 16.81 44.13 30.21 63.85 1.25 1.84 1.85 4.13 3.35 7.59z"
          fill="transparent"/>
    <path d="M1165.53 725.18c-7.95-7.06-10.7-15.84-12.3-25.06-2.1-12.14-3.32-24.75-9.91-35.36-18.94-30.5-34.24-63.26-56.88-91.48-5.8-7.24-11.13-15-15.65-23.09-9.51-17.03-21.78-31.89-35.12-45.88-5-5.24-10.85-10.05-17.13-13.63-26.94-15.33-56.18-22.74-87.07-20.62-20.08 1.37-38.1 8.96-51.29 25.44-6.96 8.7-15.78 14.85-25.95 19.74-9.84 4.73-18.67 11.51-28.13 17.07-10.89 6.4-21.92 12.54-33.02 18.56-2.77 1.5-6.02 2.12-9.81 3.41-.05-8.05 2.59-13.91 5.91-19.73 10.5-18.42 24.76-33.8 39.26-48.98 8.05-8.43 16.09-16.89 24.56-24.89 4.3-4.07 9.05-8.43 14.43-10.45 21.4-8.03 42.62-16.47 66.28-16.61 21.07-.13 40.44 4.55 57.7 16.17 18.48 12.45 36.2 26.05 54.24 39.15 1.34.98 2.53 2.22 3.97 3 19.35 10.52 33.18 26.57 44.26 45.09 23.8 39.77 45.45 80.62 60.2 124.75 6.25 18.7 10.02 37.93 11.44 57.61.14 1.92.02 3.86.02 5.79z"
          fill="transparent"/>
    <path d="M862.7 682.1c1.44-4.25 1.84-6.93 3.15-9.05 18.11-29.41 41.9-52.16 74.51-65.28 31.43-12.65 58.2-4.9 81.54 17.5 34.61 33.22 63.68 70.75 85.11 113.89 2.32 4.66 5.33 9.27 3.56 16.78-4.02-3.93-7.87-6.63-10.34-10.28-23.93-35.23-58.53-55.45-97.35-69.86-16.26-6.03-33.13-7.62-50.17-5.4-17.13 2.24-34.09 5.8-51.21 8.15-12.15 1.67-24.45 2.28-38.79 3.54zM1232.7 794.59c1.52-4.83 2.38-7.59 3.26-10.34 15.52-48.65 43.21-89.41 79.57-124.93 11.96-11.69 24.25-22.72 38.05-32.05 18.81-12.72 38.52-16.01 58.99-3.97 7.14 4.2 14.18 8.71 20.66 13.84 3.5 2.77 6.45 6.83 8.35 10.91 4.8 10.31 1.28 18.19-9.41 22.01-15.61 5.58-31.1 11.6-47.03 16.09-9.16 2.58-19.04 2.79-28.65 3.52-10.16.77-18.35 4.61-25.19 12.33-8.59 9.7-17.5 19.18-26.9 28.09-4.2 3.98-9.57 7.35-15.02 9.27-12.65 4.46-22.38 13-32.01 21.56-3.19 2.83-4.87 7.82-6.25 12.14-2.87 9-7.93 15.9-18.41 21.53zM737.25 823.06c-.76-21.91 5.05-44.56 10.94-66.98 4.32-16.45 15.61-28.84 31.34-35.51 10.9-4.62 22.7-7.28 34.29-10.01 3.05-.72 7.37.69 10.13 2.57 6.78 4.63 11.16 11.31 12.96 19.46 1.15 5.2.26 9.85-3.73 13.73-27.85 27.1-44.76 60.78-58.01 96.65-5.06 13.71-9.86 27.52-14.87 41.24-1.44 3.95-2.19 9.34-7.67 9.14-5.37-.19-5.8-5.74-7.17-9.59-4.39-12.34-8.15-40.54-8.21-60.71z"
          fill="transparent"/>
    <path d="M1116.91 814.99c-3.33-3.31-6.23-5.93-8.83-8.81-6.23-6.93-12.43-13.89-18.44-21-20.38-24.09-45.62-41.66-74.09-54.67-20.71-9.46-42.3-12.98-65.14-9.14-23.59 3.97-47.36 6.89-71.07 10.17-11.77 1.63-22.12-6.11-24.69-18.11-.94-4.42.86-7.02 5.01-8.25 12.39-3.67 24.58-8.4 37.22-10.76 22.54-4.22 45.33-7.14 68.05-10.32 10.07-1.41 19.94-.01 29.25 4.27 13.89 6.39 27.94 12.48 41.52 19.49 5.78 2.98 10.87 7.59 15.69 12.1 24.96 23.36 45.95 49.88 62.39 79.91 3.79 6.92 3.76 6.94 3.13 15.14zM1491.02 696.74c17.28 3.08 42.66 25.48 47.11 42.01 1.1 4.09 1.33 8.53 1.27 12.8-.06 4.21-3.11 6.67-6.41 4.93-14.65-7.73-30.2-14.32-40.99-27.66-4.45-5.5-6.66-12.13-6.89-19.39-.17-5.36.91-9.86 5.91-12.68zM779.79 597.48c-16.09 29.21-32.17 58.39-48.24 87.58-.63-.2-1.26-.41-1.9-.61.2-2.79.14-5.62.65-8.35 4.45-23.77 13.06-46.08 24.82-67.08 2.98-5.31 7.94-9.68 12.56-13.86 3.21-2.9 7.26-3.02 12.11 2.31zM713.06 760.05c1.83 9.13 1.14 17.93-.14 26.72-1.61 11.09-3.32 22.17-5.04 33.24-.59 3.78-1.34 7.53-2.02 11.32-6.5-.15-7.7-3.37-7.09-7.97 2.47-18.72 4.92-37.44 7.43-56.15.5-3.71 1.54-7.08 6.86-7.16zM728.7 687.65c1.39 10.57.64 18.55-3.64 25.87-.88 1.51-3.16 2.21-6.12 4.15-.15-11.59 2.28-20.31 9.76-30.02zM1280.08 816.63c-1.28 3.36-2.26 6.89-4 9.99-.68 1.21-3.09 1.44-4.71 2.11-.29-1.47-1.32-3.38-.74-4.32 2.21-3.59 3.11-9.23 9.56-7.56l-.11-.23z"
          fill="transparent"/>
    <path d="M1280.18 816.87c-.59-4.73.3-8.98 4.18-12.8 3.06 6.08-2.93 8.48-4.32 12.51.03.05.14.29.14.29zM1438.81 702.54c1.85-1.33 3.35-3.17 4.31-2.92 1.47.37 2.56 2.19 3.82 3.4-1.26.88-2.53 2.44-3.79 2.43-1.26 0-2.5-1.6-4.34-2.91z"
          fill="transparent"/>
</svg>