<svg xmlns="http://www.w3.org/2000/svg" width="2351" height="2351">
    <path d="M1947.14 0H2351v2351H0V0h1941.14c-.62 1.5-.92 3.27-1.91 4.46-11.73 14.14-12.44 31.03-12.16 48.17.11 6.99.43 13.98.46 20.97.06 10.85-2.41 21.26-7.44 30.77-3.72 7.03-5.44 13.94-4.9 21.95.7 10.43-3.88 13.27-13.6 9.06-14.04-6.07-28.11-12.12-41.93-18.68-17.12-8.12-35.2-9.51-53.66-8.53-3.16.17-6.49 1.56-9.3 3.17-7.11 4.07-14.71 6.25-22.8 6.54-10.66.38-18.29 5.43-23.47 14.47-2.98 5.2-5.27 10.84-8.67 15.73-5.74 8.25-6.12 16.78-4.59 26.44 6.09 38.41 40.17 68.27 78.87 69.71 27.94 1.03 51.23-9.5 72.74-25.78 8.96-6.78 15.56-15.38 20.04-25.7 6.39-14.73 12.94-16.45 25.91-7.03.81.59 1.61 1.2 2.35 1.86 14.13 12.67 23.17 28.2 26.14 47.04 3.45 21.92 1.61 43.92-.7 65.69-1.32 12.38-4.37 25.43-10.17 36.3-12.04 22.58-25.52 44.57-45.67 61.36-2.02 1.68-3.97 3.69-5.27 5.93-7.14 12.29-17.89 20.61-30.18 26.91-22.21 11.4-44.82 21.97-64.37 37.98-6.88 5.63-15.74 6.59-23.46 1.51-14.39-9.46-22.68-23.27-24.68-40.34-1.02-8.7 4.11-12.92 12.92-11.54 9.86 1.54 19.91 2.63 29.43 5.42 11.22 3.28 20.17 1.59 29.3-5.98 12.29-10.18 25.92-18.73 38.44-28.64 14.49-11.47 19.04-26.65 14.56-44.6-3.21-12.86-8.86-24.58-18-34.06-8.05-8.36-17.31-15.56-25.87-23.44-6.31-5.8-13.29-6.93-21.25-4.23-6.93 2.35-13.86 4.76-20.94 6.57-20.91 5.33-38.46 16.42-53.91 31.06-7.63 7.23-12.84 16.11-15.81 26.24-1.31 4.47-2.43 8.99-3.73 13.46-3.65 12.55-8.13 15.71-20.92 14.58-16.91-1.49-33.79-3.63-50.73-4.52-15.58-.82-31.24-.73-46.84-.3-9.38.26-18.2 3.45-26.5 8.1-13.36 7.47-27 14.42-40.32 21.97-14.75 8.36-29.67 16.54-43.72 25.99-7.54 5.07-13.34 6.86-21.61 1.77-9.6-5.92-13.65-4.06-18.94 6.07-.62 1.18-1.2 2.38-1.76 3.59-13.44 28.99-7.37 25.48-39.48 46.56-10.97 7.2-20.43 15.93-26.47 27.99-1.58 3.16-4.32 6-7.13 8.24-9.91 7.9-19.22 16.32-26.46 26.84-.93 1.35-2.32 2.39-3.45 3.61-14.03 15.13-28.04 30.27-42.09 45.38-1.91 2.05-4.03 3.9-6.14 5.93-3.76-4.29-.73-7.11.46-9.86 5.26-12.22 11.33-24.16 13.12-37.54 1.31-9.81 5.04-18.5 10.3-26.78 2.46-3.88 5.18-8.2 5.72-12.58 1.91-15.45 8.51-29.34 13.19-43.88 1.93-5.98 4.71-12.39 4.12-18.31-.89-8.91 2.55-15.44 7.07-22.11 3.93-5.79 7.69-11.69 11.75-17.38 7.2-10.1 11.36-11.57 22.84-7.44 12.97 4.66 25.9 4.71 39.31 1.93 10.03-2.08 20.34-3.02 30.57-3.94 6.62-.59 13.36.21 19.97-.38 13.2-1.18 24.71-6.22 34.24-15.25-2.38-6.87-6.52-8.56-12.05-8.62-7.32-.07-14.77.23-21.92-.99-23.44-4.02-46.97-5.1-70.67-3.81-2.09.11-4.24-.68-7.6-1.27 3.41-4.75 5.98-8.57 8.8-12.2 5.11-6.58 10.3-13.09 15.57-19.54 5.77-7.08 7.2-15.28 4.42-23.54-6.49-19.3-17.53-34.4-39.27-38.28-3.28-.59-6.53-1.38-9.82-1.85-12.39-1.76-23.78.86-34.23 7.82-5.23 3.48-8.73 7.96-10.3 14.13-.98 3.83-1.89 8.02-4.12 11.14-6.63 9.3-7.3 18.94-3.66 29.39 1.42 4.08 2.5 8.29 3.49 12.5 7.02 29.82 1.28 55.8-21.91 77.36-8.95 8.32-17.5 17.62-24.04 27.87-14.54 22.77-29.76 44.96-46.56 66.13-4.03 5.08-6.34 11.56-9.3 17.46-2.66 5.31-4.56 11.08-7.77 16.01-14.81 22.77-26.92 46.68-33.09 73.34-.74 3.18-2 6.39-3.74 9.13-1.08 1.7-3.66 3.62-5.34 3.42-1.57-.19-3.63-2.84-4.06-4.73-1.17-5.17-1.78-10.48-2.29-15.77-1.88-19.2-4.08-38.39-1.64-57.71 3.19-25.24 3.14-50.4-1.18-75.55-1.79-10.42-8.06-16.52-17.25-20.17-4.97-1.97-8.76.33-9.12 5.72-.3 4.59.39 9.27.85 13.89 1.15 11.56 3.49 23.12 3.36 34.65-.15 13.23-2.58 26.43-3.77 39.66-2.08 23.15 1.02 45.86 6.68 68.23 2.61 10.3 6.25 20.34 9.28 30.53 1.49 5 2.54 10.08-.49 16.02-1.79-2.13-3.25-3.43-4.16-5.03-6.09-10.71-12.25-21.38-18.02-32.26-5.65-10.67-9.53-21.93-10.19-34.17-.95-17.62-2.7-35.1-8.53-51.99-1.46-4.25-.82-9.23-1.15-13.87-1.13-15.91-2.35-31.81-3.37-47.73-.75-11.61-1.66-23.24-1.74-34.86-.07-9.35 3.15-13.34 12.1-15.85 9.28-2.6 18.65-5.21 28.15-6.58 24.65-3.56 44.4-15.73 60.47-34 4.43-5.03 7.63-11.85 9.4-18.38 4.26-15.74-3.87-33.47-17.74-38.21-14.14-4.83-28.74-8.65-43.96-7.84-10.46.56-20.75 2.63-28.73 9.92-11.8 10.79-23.25 21.99-29.55 37.23-1.52 3.69-3.2 7.34-5.12 10.83-3.78 6.91-8.19 9.09-15.65 7.42-7.87-1.76-14.81-5.06-21.05-10.68-12.85-11.55-26.38-22.35-39.73-33.34-2.02-1.66-4.43-3.07-6.9-3.9-3.91-1.3-6.33.67-6.76 4.77-.51 4.88 2.17 8.04 5.43 11.16 20.23 19.33 40.14 39.07 63.27 54.99 7.4 5.09 10.16 11.9 8.91 19.56-3 18.45 1.62 36.42 1.98 54.62.33 16.31.83 32.62.97 48.94.05 5.75-3.18 7.76-8.47 5.43-2.64-1.16-5.04-3.22-7.08-5.32-3.24-3.34-6.2-6.97-9.07-10.64-15.85-20.32-33.36-38.86-54.91-53.36-7.72-5.2-14.66-11.53-22.14-17.09-18.97-14.08-38.08-27.97-57.07-42.02-5.35-3.96-10.74-7.92-15.7-12.34-9.06-8.08-9.39-15.17-1.38-24.06 4.46-4.95 9.33-9.52 13.83-14.43 7.86-8.59 15.83-17.1 23.28-26.03 5.79-6.94 6.03-15 .72-22.18-4.89-6.61-10.28-13.16-16.61-18.31-8.22-6.7-17.56-11.93-24.16-20.64-2.89-3.82-7.11-6.03-12.36-4.12-8.13 2.95-16.34 5.69-24.41 8.8-2.06.79-4.13 2.29-5.51 4.01-7.72 9.6-15.61 19.11-22.72 29.16-9.65 13.62-8.01 33.86 3.05 46.27 1.99 2.24 4.09 4.39 6 6.7 8.79 10.63 8.46 15.07-1.27 24.56-17.41 16.96-35.05 33.69-51.97 51.11-17.85 18.38-35.17 37.29-52.3 56.35-5.98 6.65-10.71 14.42-16.01 21.68-4.29 5.87-9.71 10.19-17.06 11.22-12.24 1.72-20.95 8.4-29.09 17.45-7.95 8.84-17.49 16.34-26.85 23.78-4.61 3.66-10.16 6.43-15.68 8.59-19.44 7.6-35.64-.5-40.69-20.75-2.73-10.94-4.33-22.22-5.54-33.44-.43-3.97 1.24-8.48 2.92-12.32 3.85-8.81 8.18-17.42 12.52-26.01 3.88-7.7 8.33-15.13 11.99-22.92 4.65-9.9 9.37-19.85 12.83-30.19 1.46-4.37.37-9.92-.69-14.68-.54-2.43-3.19-5.21-5.57-6.27-6.96-3.1-14.24-5.5-21.45-8-4.63-1.61-8.91-.8-10.95 4.02-6.6 15.6-12.91 31.32-19.3 47.01-1.99 4.89-3.67 9.93-5.87 14.72-2.35 5.11-5.47 9.83-4.08 15.98.39 1.74-.57 3.91-1.27 5.74-2.49 6.52-4.91 13.08-7.78 19.44-4.25 9.42-2.27 13.64 7.64 15.47 2.69.5 5.34 1.25 9.7 2.29-5.38 3.82-9.31 6.28-12.83 9.22-2.46 2.06-5.21 4.44-6.36 7.27-2.26 5.56-6.06 9.41-10.69 12.83-3.48 2.56-7.33 4.92-10.03 8.18-12.12 14.63-28.25 17.72-45.94 16.73-3.61-.2-7.21-.55-11.25-.86.63 9.11 5.51 13.68 13.05 16.35 6.13 2.17 12.12 4.74 18.27 7.17-1.93 6.19-5.32 11.53-4.54 16.17.74 4.42 5.84 8.12 9.23 12.39-3.09 3.61-7.35 6.85-9.24 11.13-7.12 16.14-1.44 36.23 12.89 46.38 4.35 3.08 7.47 6.41 8.45 11.65 1.5 8.11 5.98 13.75 13.63 17.1 3.32 1.45 6.45 3.53 9.35 5.73 13.6 10.35 29.36 12.78 45.88 14.42 12.23 1.21 19.69-3.44 25.23-13.16 2.79-4.9 5.28-9.99 7.57-15.14.91-2.05 1.33-4.52 1.26-6.78-.14-4.26-4.26-8.65-8.07-9.03-4.21-.41-5.83 2.77-7.17 5.79-1.48 3.33-2.57 6.85-3.66 10.34-3.5 11.17-7.5 14.12-19 12.75-7.26-.86-14.38-2.85-21.63-3.83-8.23-1.11-14.14-4.7-17.86-12.47-3.68-7.7-10.27-11.95-18.87-13-2.45-.3-4.84-1.13-8.02-1.91 5.71-8.19 5.03-15.27.69-23.09-2-3.6-1.94-9.17-.98-13.43 3.13-13.95 6.96-27.75 10.83-41.52 1.03-3.66 3.15-7.02 4.53-9.98 11.19-.54 19.9 7.75 30.92 5.2q-3.03-5.85-11.34-11.95c-8.41-6.17-9.28-11.74-2.88-20.15 3.02-3.97 6.4-7.67 9.65-11.46 7.13-8.29 9.4-8.32 17.69-.75 7.61 6.96 14.76 14.63 23.16 20.49 24.78 17.33 47.02 17.05 67.82-.28 1.79-1.49 3.59-3.08 5.65-4.1 4.45-2.19 8.92-4.56 13.65-5.91 8.43-2.41 14.08 0 19.23 6.72 5.08 6.63 3.8 13.02-.26 19.39-1.43 2.23-3.02 4.41-4.81 6.36-8.64 9.39-9.5 20.97-8.96 32.76.25 5.45 4.78 6.9 9.03 2.94 5.1-4.76 9.56-10.21 14.69-14.94 8.78-8.11 16.97-17.29 26.96-23.54 30.16-18.88 60.46-37.67 93.88-50.63 8.98-3.48 17.48-8.25 26.49-11.63 12.73-4.79 25.52-4.94 37.36 2.85 11.84 7.78 21.83 17.47 29.01 29.82 1.5 2.58 3.17 5.25 3.79 8.09.5 2.33.39 5.8-1.01 7.21-1.14 1.15-4.84.6-6.97-.27-2.69-1.1-5-3.2-7.36-5.02-5.79-4.48-11.48-9.1-17.28-13.58-9.31-7.2-19.3-8.26-29.98-3.21-9.93 4.69-20.02 9.04-29.85 13.91-12.04 5.97-20.83 15.13-26.47 27.5-2.32 5.07-5.13 10.38-9.07 14.16-12.97 12.4-26.62 24.08-39.86 36.21-2.86 2.62-5.93 5.57-7.4 9.02-5.34 12.45-13.1 23.09-22.32 32.87-4.33 4.59-8.82 9.18-12.28 14.4-8.3 12.56-7.4 28.31 1.64 40.19 4.96 6.53 9.37 6.26 12.08-1.13 4.1-11.18 10.99-20.48 18.65-29.33 15.48-17.87 30.77-35.92 46.56-53.53 16-17.85 32.2-35.52 48.88-52.73 9.01-9.3 18.8-17.95 28.96-25.98 10.13-8 17.51-7 26.47 1.79 4.9 4.8 4.7 8.5-1.17 11.95-3.99 2.34-8.53 3.74-12.63 5.92-6.14 3.27-7.61 6.54-5.92 13.05 1.17 4.5 2.63 8.94 4.26 13.3 3.08 8.2 6.33 9.74 14.49 6.67 7.48-2.8 14.79-6.04 22.24-8.92 9.71-3.75 12.77-2.16 16.81 8.47-3.04 2.47-6.55 4.57-9.09 7.51-10.22 11.84-20.38 23.76-30.11 36-11.58 14.59-22.12 30.03-34.17 44.2-11.19 13.17-23.17 25.62-32.52 40.32-3.36 5.28-8.01 9.76-12.15 14.54-5.67 6.53-11.36 13.05-17.13 19.49-5.55 6.18-11.29 12.18-16.81 18.38-2.64 2.97-5.31 6-7.37 9.37-4.51 7.38-4.16 10.63 1.54 16.95 2.89 3.21 6.11 6.13 9.3 9.06 7.11 6.51 10.11 6 15.67-2.25 3.53-5.23 7.1-10.46 10.95-15.45 7.32-9.49 14.83-18.82 22.3-28.2 9.13-11.45 18.19-22.95 27.46-34.29 20.65-25.26 41.4-50.44 62.11-75.64 3.17-3.86 6.14-7.92 9.6-11.5 5.35-5.54 9.04-5.33 14.23.31 1.35 1.47 2.51 3.11 3.73 4.69 15.06 19.51 29.83 39.26 45.26 58.47 13.04 16.25 22.86 34.22 31.99 52.83 15.4 31.36 31.36 62.46 47.66 93.37 5.96 11.3 11.02 22.52 12.86 35.35.8 5.61 3.33 12.02 7.23 15.93 10.3 10.36 21.6 19.77 32.89 29.07 3.49 2.87 8.26 4.18 12.45 6.2 4.79 2.31 8.89 1.59 12.58-2.43 3.38-3.67 7.04-7.1 10.68-10.52 3.57-3.35 7.71-5.39 12.74-3.93 9.46 2.74 16.06-1.34 21.52-8.6 7.41-9.85 15.01-19.54 22.34-29.45 14.66-19.79 28.94-39.85 43.82-59.48 28.35-37.4 56.9-74.63 87.36-110.4 12.04-14.14 22.57-29.7 32.56-45.4 7.69-12.09 13.75-9.12 18.07.85 2.5 5.77 6.2 11.02 9.17 16.6 23.96 44.94 47.79 89.92 76.07 132.42 15.71 23.61 31.63 46.97 51.04 67.71 4.47 4.78 10.09 8.55 15.44 12.42 4.12 2.99 8.42 3.65 12.52-.65 3.98-4.17 3.62-8.38.57-12.6-5.85-8.09-11.85-16.06-17.85-24.04-15.4-20.48-32.81-39.76-45.86-61.64-30.7-51.43-59.33-104.09-88.76-156.28-2.68-4.75-2.64-9.24 1-13.87 4.93-6.27 8.98-13.26 14.03-19.42 4.19-5.12 8.93-9.93 14.06-14.09 6.3-5.11 11.14-4.38 14.79 2.51 11.21 21.17 23.85 41.85 32.46 64.07 16.4 42.32 38.52 81.11 65.23 117.52 2.16 2.94 4.43 5.89 7.09 8.36 3.99 3.69 9.14 3.81 12.69.82 3.68-3.09 4.32-7.57 1.18-12.43-5.44-8.38-10.92-16.75-16.84-24.8-18.87-25.66-33.49-53.51-44.62-83.36-10.24-27.47-21.98-54.29-37.4-79.38-2.91-4.74-4.31-10.4-6.49-15.6-2.74-6.56-1.39-12.23 3.14-17.57 8.81-10.41 17.32-21.08 26.19-31.44 6.29-7.36 12.66-7.03 19.25.53 2.84 3.25 5.4 6.84 8.63 9.65 17.09 14.86 33.92 30.06 51.66 44.12 30.31 24.01 56.17 51.78 76.87 84.51 7.99 12.64 17.28 24.48 26.35 36.4 4.34 5.71 11.57 6.61 16.86 3.06 4.69-3.15 5.15-9.27.76-16-22.6-34.67-47.45-67.57-76.66-97.04a983.486 983.486 0 00-73.82-67.27c-6.56-5.4-12.03-12.37-17.04-19.31-3.72-5.16-2.46-9.85 1.83-14.44 6.28-6.72 14.17-7.94 22.55-3.59 16.52 8.58 33.09 17.09 49.6 25.7 4.43 2.31 8.82 4.7 13.05 7.34 26.55 16.55 53.01 33.27 79.63 49.71 3.89 2.4 8.34 4.14 12.76 5.37 6.36 1.78 11.01.07 13.25-3.96 2.59-4.66 1.82-9.7-3.22-14.38-3.87-3.59-8.31-6.67-12.82-9.46-40.48-25.03-81.04-49.94-121.58-74.88-5.1-3.14-10.42-5.97-15.32-9.39-5.41-3.79-5.78-7.35-1.85-12.62 1.79-2.4 3.83-4.61 5.76-6.9 17-20.25 30.11-43.09 43.7-65.62 2.67-4.43 3.03-8.74-.42-12.95-2.9-3.54-6.4-5.85-11.23-5.11-5.3.81-7.92 4.88-9.78 9.12-10.2 23.3-27.07 41.85-43.15 60.93-4.03 4.78-9.22 8.63-14.1 12.65-3.86 3.18-8.21 3.97-13.06 1.77-7.27-3.3-14.68-6.3-22.02-9.43-8.25-3.52-16.35-7.49-24.8-10.43-8.02-2.79-9.03-2.05-13.61 5.34-15.8 25.47-31.6 50.94-47.27 76.48-1.7 2.78-3.52 6.03-3.64 9.13-.52 13.53-8.06 22.57-17.48 31.18-5.01 4.58-9.32 10.51-12.28 16.64-12.26 25.33-29.52 47.36-45.29 70.38-1.11 1.62-2.69 2.97-4.19 4.27-6.72 5.83-10.64 13.38-14.34 21.34-3.6 7.75-8.36 14.99-12.92 22.26-2.82 4.5-6.26 8.62-9.36 12.95-29.99 42.01-59.92 84.07-90.03 125.99-3.66 5.1-7.9 9.95-12.59 14.1-6.49 5.75-13.05 3.74-14.75-4.71-.93-4.6-.39-10.02 1.18-14.48 4.35-12.37 11.85-22.97 20.41-32.9 4.32-5.01 9.03-10.19 11.54-16.14 5.93-14.1 14.87-25.88 24.83-37.19 5.71-6.48 11.81-12.9 16.09-20.3 12.22-21.16 27.27-40.2 42.13-59.45 9.34-12.1 17.89-24.82 26.56-37.43 8.48-12.34 16.68-24.87 24.96-37.35 5.88-8.86 11.92-17.63 17.49-26.69 8.52-13.88 16.74-27.96 24.97-42.02 1.32-2.25 1.98-4.88 2.98-7.32 2.13-5.2 3.8-10.66 6.52-15.52 6.5-11.62 13.52-22.95 20.29-34.42 4.62-7.83 10.37-14.51 17.7-20.07 22.02-16.7 43.77-33.75 65.69-50.59 3.68-2.83 7.36-5.92 11.54-7.79 22.46-10.07 45.01-19.96 67.7-29.52 5.45-2.29 11.46-3.87 17.33-4.41 28.03-2.57 55.85-1.36 83.29 5.58 5.89 1.49 10.4 4.43 13.19 9.74 1.85 3.52 3.54 7.18 4.84 10.94 4.11 11.79 10.63 22.16 18.26 31.92 3.49 4.46 7.02 8.9 10.25 13.54 6.83 9.84 6.36 12.67-3.07 19.67-5.35 3.97-10.94 7.61-16.22 11.67-8.57 6.6-12.54 15.33-11.21 26.22 1.09 8.97 2.76 17.75 8.06 25.41 6.63 9.58 12.81 19.51 19.92 28.71 3.35 4.33 7.87 8.85 12.82 10.64 13.7 4.96 27.72 9.47 41.97 12.39 16.28 3.34 29.22-3.08 38.35-17.26 4.31-6.69 9.34-12.92 14.18-19.27 8.63-11.33 9.34-20.37 1.67-32.14-3.43-5.27-7.42-10.28-11.75-14.84-5.27-5.54-11.2-10.43-16.79-15.67-7.01-6.58-6.46-10.11 1.58-15.47 6.9-4.6 14.65-8.72 19.83-14.89 6.75-8.03 14.64-13.17 24.06-16.97 11.22-4.52 21.9-10.37 29.42-20.03 6.9-8.86 12.58-18.59 22.77-24.43 2.44-1.4 4.11-4.32 5.81-6.77 10.63-15.32 21.47-30.52 31.66-46.13 13.44-20.58 20.13-43.28 19.91-67.98-.09-9.65.42-19.3.46-28.95.02-5.32.4-10.81-.72-15.92-5.64-25.77-15.53-49.42-34.61-68.55-6.08-6.09-11.01-13.32-16.64-19.88-3.38-3.94-3.68-8.01-2.48-12.94 3.47-14.22 6.84-28.48 9.59-42.85 2-10.41 3.61-20.99 4.23-31.56 1.1-18.93 1.22-37.91 1.96-56.86.3-7.76.06-15.21-5.61-21.32zM524.27 432.35c-6.53-1.32-12.47-1.07-15.76 6.28-10.57 23.64-21.97 46.95-31.43 71.03-5.03 12.79-10.17 25.31-18.1 36.43-6.18 8.66-7.24 17.58-4.19 27.39 1.38 4.44 2.62 8.92 4.22 13.28 3.53 9.66 9.76 12.19 20.63 8.21-1.64-4.64-2.71-9.6-5.04-13.87-4.43-8.11-2.28-14.71 2.12-22.17 14.57-24.69 25.85-50.92 34.97-78.11 4.22-12.58 8.92-25.01 13.76-37.37 1.6-4.09 2.15-7.55-1.18-11.1zm-16.71-17.51c5.66 5.36 11.26 7.53 17.91 5.33 6.43-2.13 7.59-7.8 8.33-13.54 2.04-15.77 3.91-31.56 6.06-47.32 1.75-12.79 2.88-25.7 8.35-37.73 2.49-5.49.51-8.57-5.49-10.04-2.25-.55-4.58-.79-6.88-1.1-13.05-1.78-18.51 2.29-20.28 15.33-.35 2.6.17 5.3.03 7.94-.39 7.58-1.08 15.15-1.35 22.73-.32 9.26-1.88 18.86-.08 27.73 2.36 11.61 3.89 22.06-6.61 30.66zm128.47 280.21c12.17-11.38 4.69-32.42-13.55-42.4-1.34 7.27 1.48 13.65 3.31 20.18 1.64 5.84 4.18 11.75-1.87 16.82 4.69 2.09 8.49 3.79 12.11 5.41zm-25.45-51.49c-.42.66-.85 1.33-1.27 1.99 2.04 3.88 5.36 4.78 11.94 3.37-4.75-2.39-7.71-3.88-10.67-5.36z"
          fill="transparent"/>
    <path d="M1947.14 0c5.67 6.11 5.91 13.57 5.61 21.32-.74 18.95-.85 37.93-1.96 56.86-.61 10.57-2.23 21.15-4.23 31.56-2.75 14.37-6.12 28.63-9.59 42.85-1.2 4.93-.9 9 2.48 12.94 5.63 6.56 10.56 13.79 16.64 19.88 19.08 19.13 28.97 42.79 34.61 68.55 1.12 5.12.74 10.61.72 15.92-.04 9.65-.55 19.3-.46 28.95.22 24.7-6.47 47.4-19.91 67.98-10.2 15.61-21.03 30.8-31.66 46.13-1.7 2.45-3.37 5.37-5.81 6.77-10.19 5.84-15.87 15.57-22.77 24.43-7.52 9.66-18.21 15.51-29.42 20.03-9.43 3.79-17.32 8.94-24.06 16.97-5.18 6.17-12.93 10.29-19.83 14.89-8.04 5.36-8.59 8.9-1.58 15.47 5.59 5.24 11.52 10.13 16.79 15.67 4.34 4.56 8.32 9.57 11.75 14.84 7.66 11.77 6.95 20.81-1.67 32.14-4.83 6.34-9.87 12.58-14.18 19.27-9.13 14.19-22.07 20.61-38.35 17.26-14.25-2.93-28.26-7.44-41.97-12.39-4.95-1.79-9.47-6.31-12.82-10.64-7.11-9.21-13.29-19.13-19.92-28.71-5.3-7.66-6.97-16.44-8.06-25.41-1.32-10.88 2.64-19.62 11.21-26.22 5.27-4.06 10.87-7.7 16.22-11.67 9.43-7 9.9-9.83 3.07-19.67-3.23-4.65-6.76-9.09-10.25-13.54-7.64-9.76-14.16-20.13-18.26-31.92-1.31-3.75-2.99-7.41-4.84-10.94-2.79-5.31-7.3-8.25-13.19-9.74-27.44-6.94-55.27-8.15-83.29-5.58-5.88.54-11.89 2.12-17.33 4.41-22.69 9.56-45.24 19.45-67.7 29.52-4.17 1.87-7.86 4.96-11.54 7.79-21.92 16.84-43.67 33.89-65.69 50.59-7.33 5.56-13.08 12.24-17.7 20.07-6.77 11.47-13.79 22.8-20.29 34.42-2.72 4.87-4.39 10.33-6.52 15.52-1 2.44-1.67 5.07-2.98 7.32-8.23 14.06-16.44 28.14-24.97 42.02-5.56 9.06-11.6 17.83-17.49 26.69-8.28 12.48-16.48 25.01-24.96 37.35-8.67 12.61-17.22 25.33-26.56 37.43-14.86 19.25-29.91 38.28-42.13 59.45-4.27 7.4-10.38 13.82-16.09 20.3-9.96 11.31-18.9 23.09-24.83 37.19-2.51 5.96-7.22 11.14-11.54 16.14-8.56 9.93-16.06 20.53-20.41 32.9-1.57 4.46-2.11 9.89-1.18 14.48 1.7 8.46 8.26 10.46 14.75 4.71 4.69-4.15 8.93-9 12.59-14.1 30.11-41.92 60.04-83.98 90.03-125.99 3.1-4.34 6.54-8.45 9.36-12.95 4.56-7.27 9.31-14.51 12.92-22.26 3.7-7.96 7.61-15.51 14.34-21.34 1.51-1.31 3.08-2.65 4.19-4.27 15.77-23.02 33.03-45.05 45.29-70.38 2.96-6.13 7.27-12.06 12.28-16.64 9.42-8.61 16.96-17.65 17.48-31.18.12-3.1 1.93-6.36 3.64-9.13 15.67-25.55 31.46-51.02 47.27-76.48 4.58-7.38 5.59-8.13 13.61-5.34 8.46 2.94 16.55 6.91 24.8 10.43 7.35 3.13 14.75 6.13 22.02 9.43 4.85 2.2 9.19 1.41 13.06-1.77 4.88-4.01 10.07-7.86 14.1-12.65 16.08-19.08 32.95-37.63 43.15-60.93 1.86-4.24 4.48-8.31 9.78-9.12 4.83-.74 8.32 1.57 11.23 5.11 3.44 4.2 3.09 8.52.42 12.95-13.58 22.53-26.69 45.37-43.7 65.62-1.93 2.3-3.97 4.51-5.76 6.9-3.93 5.27-3.57 8.83 1.85 12.62 4.9 3.43 10.22 6.25 15.32 9.39 40.54 24.94 81.09 49.86 121.58 74.88 4.51 2.79 8.95 5.87 12.82 9.46 5.04 4.68 5.81 9.72 3.22 14.38-2.24 4.03-6.88 5.74-13.25 3.96-4.42-1.24-8.88-2.97-12.76-5.37-26.62-16.45-53.07-33.16-79.63-49.71-4.23-2.64-8.63-5.04-13.05-7.34-16.51-8.61-33.07-17.12-49.6-25.7-8.38-4.35-16.27-3.13-22.55 3.59-4.29 4.59-5.55 9.28-1.83 14.44 5.01 6.94 10.48 13.92 17.04 19.31a983.486 983.486 0 0173.82 67.27c29.22 29.48 54.06 62.37 76.66 97.04 4.39 6.73 3.93 12.85-.76 16-5.29 3.55-12.52 2.65-16.86-3.06-9.07-11.92-18.35-23.77-26.35-36.4-20.71-32.73-46.56-60.5-76.87-84.51-17.74-14.05-34.57-29.26-51.66-44.12-3.23-2.81-5.79-6.39-8.63-9.65-6.59-7.55-12.96-7.88-19.25-.53-8.86 10.36-17.38 21.03-26.19 31.44-4.52 5.34-5.88 11.01-3.14 17.57 2.18 5.2 3.57 10.87 6.49 15.6 15.42 25.09 27.16 51.91 37.4 79.38 11.13 29.85 25.74 57.69 44.62 83.36 5.92 8.04 11.4 16.42 16.84 24.8 3.15 4.85 2.5 9.33-1.18 12.43-3.55 2.99-8.7 2.87-12.69-.82-2.66-2.47-4.93-5.41-7.09-8.36-26.71-36.41-48.83-75.19-65.23-117.52-8.61-22.22-21.25-42.9-32.46-64.07-3.64-6.88-8.49-7.62-14.79-2.51-5.13 4.16-9.87 8.97-14.06 14.09-5.05 6.17-9.1 13.15-14.03 19.42-3.64 4.63-3.68 9.12-1 13.87 29.43 52.19 58.07 104.85 88.76 156.28 13.06 21.88 30.46 41.16 45.86 61.64 6 7.98 12 15.95 17.85 24.04 3.05 4.22 3.42 8.43-.57 12.6-4.1 4.3-8.4 3.64-12.52.65-5.35-3.87-10.97-7.64-15.44-12.42-19.4-20.74-35.33-44.1-51.04-67.71-28.28-42.5-52.11-87.48-76.07-132.42-2.98-5.58-6.67-10.82-9.17-16.6-4.32-9.97-10.37-12.94-18.07-.85-9.99 15.7-20.52 31.26-32.56 45.4-30.46 35.77-59.01 73-87.36 110.4-14.87 19.62-29.16 39.69-43.82 59.48-7.33 9.9-14.94 19.6-22.34 29.45-5.46 7.26-12.06 11.34-21.52 8.6-5.03-1.46-9.17.58-12.74 3.93-3.64 3.42-7.3 6.84-10.68 10.52-3.7 4.02-7.79 4.74-12.58 2.43-4.19-2.02-8.96-3.33-12.45-6.2-11.3-9.3-22.59-18.72-32.89-29.07-3.89-3.91-6.42-10.33-7.23-15.93-1.84-12.83-6.9-24.05-12.86-35.35-16.3-30.91-32.26-62.01-47.66-93.37-9.13-18.61-18.95-36.58-31.99-52.83-15.43-19.22-30.2-38.96-45.26-58.47-1.22-1.58-2.38-3.22-3.73-4.69-5.19-5.64-8.87-5.84-14.23-.31-3.46 3.58-6.43 7.64-9.6 11.5-20.71 25.21-41.46 50.38-62.11 75.64-9.27 11.34-18.33 22.84-27.46 34.29-7.47 9.37-14.99 18.71-22.3 28.2-3.85 5-7.42 10.22-10.95 15.45-5.56 8.24-8.56 8.76-15.67 2.25-3.19-2.92-6.41-5.85-9.3-9.06-5.71-6.33-6.06-9.58-1.54-16.95 2.06-3.37 4.73-6.4 7.37-9.37 5.52-6.2 11.26-12.21 16.81-18.38 5.78-6.44 11.47-12.95 17.13-19.49 4.14-4.78 8.79-9.25 12.15-14.54 9.35-14.7 21.32-27.14 32.52-40.32 12.04-14.18 22.59-29.62 34.17-44.2 9.73-12.25 19.89-24.16 30.11-36 2.54-2.94 6.05-5.04 9.09-7.51-4.05-10.63-7.1-12.22-16.81-8.47-7.45 2.87-14.76 6.11-22.24 8.92-8.16 3.06-11.42 1.53-14.49-6.67-1.63-4.35-3.09-8.8-4.26-13.3-1.69-6.51-.22-9.78 5.92-13.05 4.1-2.19 8.64-3.58 12.63-5.92 5.88-3.45 6.07-7.15 1.17-11.95-8.96-8.78-16.34-9.79-26.47-1.79-10.16 8.03-19.95 16.69-28.96 25.98-16.68 17.21-32.88 34.88-48.88 52.73-15.78 17.61-31.07 35.65-46.56 53.53-7.67 8.85-14.56 18.14-18.65 29.33-2.71 7.39-7.11 7.66-12.08 1.13-9.04-11.88-9.95-27.63-1.64-40.19 3.46-5.23 7.95-9.81 12.28-14.4 9.21-9.78 16.97-20.42 22.32-32.87 1.48-3.44 4.55-6.4 7.4-9.02 13.23-12.13 26.89-23.81 39.86-36.21 3.95-3.78 6.76-9.09 9.07-14.16 5.65-12.36 14.43-21.52 26.47-27.5 9.83-4.88 19.92-9.23 29.85-13.91 10.68-5.04 20.66-3.99 29.98 3.21 5.8 4.48 11.48 9.1 17.28 13.58 2.36 1.82 4.67 3.92 7.36 5.02 2.13.87 5.82 1.42 6.97.27 1.4-1.41 1.52-4.88 1.01-7.21-.62-2.84-2.29-5.51-3.79-8.09-7.18-12.35-17.17-22.04-29.01-29.82-11.85-7.79-24.63-7.64-37.36-2.85-9.01 3.39-17.51 8.15-26.49 11.63-33.42 12.96-63.72 31.75-93.88 50.63-9.99 6.25-18.19 15.44-26.96 23.54-5.12 4.73-9.58 10.18-14.69 14.94-4.24 3.95-8.78 2.51-9.03-2.94-.54-11.79.32-23.36 8.96-32.76 1.79-1.95 3.39-4.12 4.81-6.36 4.07-6.37 5.35-12.76.26-19.39-5.15-6.72-10.8-9.13-19.23-6.72-4.73 1.35-9.2 3.72-13.65 5.91-2.06 1.01-3.86 2.61-5.65 4.1-20.81 17.32-43.04 17.61-67.82.28-8.39-5.87-15.54-13.54-23.16-20.49-8.29-7.57-10.56-7.54-17.69.75-3.26 3.79-6.63 7.49-9.65 11.46-6.41 8.41-5.53 13.98 2.88 20.15q8.31 6.1 11.34 11.95c-11.01 2.56-19.73-5.74-30.92-5.2-1.38 2.97-3.5 6.32-4.53 9.98-3.87 13.77-7.7 27.57-10.83 41.52-.96 4.26-1.02 9.83.98 13.43 4.33 7.83 5.02 14.91-.69 23.09 3.18.78 5.56 1.61 8.02 1.91 8.61 1.04 15.19 5.29 18.87 13 3.71 7.77 9.63 11.35 17.86 12.47 7.25.98 14.37 2.96 21.63 3.83 11.5 1.37 15.5-1.58 19-12.75 1.09-3.49 2.19-7 3.66-10.34 1.34-3.03 2.96-6.2 7.17-5.79 3.81.37 7.93 4.76 8.07 9.03.07 2.26-.34 4.73-1.26 6.78-2.29 5.15-4.77 10.25-7.57 15.14-5.54 9.71-13 14.37-25.23 13.16-16.52-1.64-32.28-4.07-45.88-14.42-2.9-2.21-6.03-4.28-9.35-5.73-7.65-3.35-12.13-8.99-13.63-17.1-.97-5.25-4.1-8.57-8.45-11.65-14.33-10.15-20.01-30.24-12.89-46.38 1.89-4.28 6.15-7.51 9.24-11.13-3.39-4.28-8.49-7.97-9.23-12.39-.78-4.64 2.61-9.99 4.54-16.17-6.15-2.43-12.13-5-18.27-7.17-7.54-2.66-12.42-7.24-13.05-16.35 4.04.31 7.64.66 11.25.86 17.69.99 33.81-2.1 45.94-16.73 2.7-3.26 6.56-5.62 10.03-8.18 4.63-3.42 8.43-7.26 10.69-12.83 1.15-2.83 3.89-5.21 6.36-7.27 3.52-2.94 7.45-5.4 12.83-9.22-4.37-1.04-7.01-1.79-9.7-2.29-9.91-1.82-11.9-6.05-7.64-15.47 2.87-6.36 5.29-12.92 7.78-19.44.7-1.83 1.66-4.01 1.27-5.74-1.39-6.15 1.73-10.88 4.08-15.98 2.2-4.79 3.88-9.83 5.87-14.72 6.39-15.69 12.71-31.41 19.3-47.01 2.04-4.82 6.32-5.62 10.95-4.02 7.21 2.5 14.49 4.9 21.45 8 2.39 1.06 5.03 3.84 5.57 6.27 1.06 4.76 2.16 10.31.69 14.68-3.46 10.34-8.18 20.29-12.83 30.19-3.66 7.8-8.11 15.23-11.99 22.92-4.33 8.59-8.67 17.2-12.52 26.01-1.68 3.84-3.35 8.34-2.92 12.32 1.21 11.22 2.82 22.5 5.54 33.44 5.05 20.25 21.25 28.35 40.69 20.75 5.52-2.16 11.07-4.93 15.68-8.59 9.36-7.44 18.9-14.94 26.85-23.78 8.14-9.05 16.85-15.74 29.09-17.45 7.35-1.03 12.77-5.35 17.06-11.22 5.3-7.26 10.03-15.03 16.01-21.68 17.13-19.06 34.45-37.97 52.3-56.35 16.92-17.43 34.57-34.16 51.97-51.11 9.74-9.48 10.07-13.93 1.27-24.56-1.91-2.31-4-4.46-6-6.7-11.07-12.41-12.7-32.65-3.05-46.27 7.12-10.04 15-19.55 22.72-29.16 1.38-1.72 3.45-3.21 5.51-4.01 8.07-3.1 16.28-5.85 24.41-8.8 5.25-1.9 9.46.3 12.36 4.12 6.6 8.72 15.94 13.95 24.16 20.64 6.33 5.15 11.72 11.7 16.61 18.31 5.31 7.18 5.07 15.24-.72 22.18-7.45 8.94-15.42 17.45-23.28 26.03-4.5 4.91-9.37 9.48-13.83 14.43-8.01 8.89-7.68 15.99 1.38 24.06 4.96 4.42 10.35 8.39 15.7 12.34 19 14.05 38.1 27.94 57.07 42.02 7.49 5.56 14.43 11.89 22.14 17.09 21.55 14.51 39.06 33.05 54.91 53.36 2.87 3.67 5.83 7.3 9.07 10.64 2.04 2.11 4.44 4.16 7.08 5.32 5.29 2.33 8.52.32 8.47-5.43-.13-16.31-.64-32.62-.97-48.94-.37-18.2-4.99-36.17-1.98-54.62 1.25-7.65-1.52-14.46-8.91-19.56-23.13-15.92-43.04-35.66-63.27-54.99-3.26-3.12-5.94-6.28-5.43-11.16.43-4.1 2.85-6.07 6.76-4.77 2.47.82 4.88 2.24 6.9 3.9 13.35 10.99 26.88 21.78 39.73 33.34 6.25 5.62 13.19 8.92 21.05 10.68 7.47 1.67 11.87-.52 15.65-7.42 1.91-3.5 3.59-7.15 5.12-10.83 6.29-15.24 17.75-26.45 29.55-37.23 7.98-7.29 18.27-9.36 28.73-9.92 15.22-.81 29.82 3.01 43.96 7.84 13.88 4.74 22.01 22.47 17.74 38.21-1.77 6.54-4.97 13.35-9.4 18.38-16.07 18.27-35.82 30.44-60.47 34-9.51 1.37-18.88 3.98-28.15 6.58-8.95 2.51-12.17 6.5-12.1 15.85.09 11.62.99 23.25 1.74 34.86 1.03 15.92 2.24 31.82 3.37 47.73.33 4.64-.32 9.62 1.15 13.87 5.82 16.89 7.57 34.37 8.53 51.99.66 12.24 4.53 23.51 10.19 34.17 5.77 10.88 11.93 21.55 18.02 32.26.91 1.61 2.37 2.9 4.16 5.03 3.03-5.93 1.98-11.02.49-16.02-3.03-10.2-6.67-20.23-9.28-30.53-5.66-22.37-8.76-45.08-6.68-68.23 1.19-13.23 3.62-26.43 3.77-39.66.13-11.54-2.21-23.1-3.36-34.65-.46-4.62-1.16-9.3-.85-13.89.36-5.39 4.15-7.69 9.12-5.72 9.19 3.66 15.46 9.75 17.25 20.17 4.32 25.16 4.37 50.31 1.18 75.55-2.44 19.32-.24 38.52 1.64 57.71.52 5.29 1.12 10.61 2.29 15.77.43 1.89 2.49 4.55 4.06 4.73 1.67.2 4.25-1.73 5.34-3.42 1.74-2.73 3.01-5.95 3.74-9.13 6.17-26.66 18.28-50.57 33.09-73.34 3.21-4.93 5.11-10.7 7.77-16.01 2.96-5.91 5.27-12.38 9.3-17.46 16.79-21.17 32.02-43.36 46.56-66.13 6.55-10.25 15.09-19.55 24.04-27.87 23.19-21.56 28.92-47.54 21.91-77.36-.99-4.21-2.07-8.42-3.49-12.5-3.64-10.45-2.97-20.1 3.66-29.39 2.22-3.12 3.14-7.3 4.12-11.14 1.57-6.17 5.07-10.65 10.3-14.13 10.45-6.95 21.84-9.57 34.23-7.82 3.29.47 6.54 1.27 9.82 1.85 21.74 3.88 32.78 18.98 39.27 38.28 2.78 8.26 1.35 16.47-4.42 23.54-5.26 6.45-10.46 12.96-15.57 19.54-2.82 3.63-5.38 7.45-8.8 12.2 3.37.59 5.51 1.39 7.6 1.27 23.7-1.29 47.23-.21 70.67 3.81 7.16 1.23 14.6.92 21.92.99 5.53.06 9.67 1.75 12.05 8.62-9.53 9.03-21.04 14.07-34.24 15.25-6.62.59-13.36-.21-19.97.38-10.23.92-20.53 1.86-30.57 3.94-13.4 2.78-26.33 2.73-39.31-1.93-11.48-4.13-15.64-2.65-22.84 7.44-4.06 5.69-7.82 11.6-11.75 17.38-4.52 6.67-7.96 13.2-7.07 22.11.59 5.92-2.2 12.33-4.12 18.31-4.69 14.53-11.28 28.43-13.19 43.88-.54 4.38-3.26 8.7-5.72 12.58-5.26 8.28-8.98 16.98-10.3 26.78-1.79 13.38-7.86 25.33-13.12 37.54-1.18 2.75-4.21 5.57-.46 9.86 2.11-2.03 4.23-3.88 6.14-5.93 14.05-15.11 28.06-30.25 42.09-45.38 1.13-1.22 2.52-2.25 3.45-3.61 7.24-10.52 16.55-18.94 26.46-26.84 2.81-2.24 5.55-5.08 7.13-8.24 6.04-12.06 15.51-20.79 26.47-27.99 32.12-21.08 26.05-17.57 39.48-46.56.56-1.21 1.15-2.41 1.76-3.59 5.29-10.13 9.34-11.98 18.94-6.07 8.27 5.09 14.07 3.3 21.61-1.77 14.04-9.45 28.97-17.63 43.72-25.99 13.31-7.55 26.96-14.5 40.32-21.97 8.3-4.64 17.12-7.84 26.5-8.1 15.6-.43 31.26-.52 46.84.3 16.94.89 33.82 3.03 50.73 4.52 12.79 1.13 17.27-2.04 20.92-14.58 1.3-4.47 2.42-9 3.73-13.46 2.97-10.12 8.18-19.01 15.81-26.24 15.45-14.64 33-25.73 53.91-31.06 7.08-1.81 14.01-4.22 20.94-6.57 7.96-2.7 14.94-1.58 21.25 4.23 8.56 7.88 17.82 15.08 25.87 23.44 9.13 9.49 14.79 21.2 18 34.06 4.48 17.96-.07 33.14-14.56 44.6-12.53 9.91-26.16 18.46-38.44 28.64-9.13 7.57-18.08 9.26-29.3 5.98-9.53-2.78-19.57-3.88-29.43-5.42-8.81-1.37-13.94 2.85-12.92 11.54 2 17.07 10.29 30.88 24.68 40.34 7.72 5.08 16.58 4.12 23.46-1.51 19.55-16.01 42.16-26.58 64.37-37.98 12.29-6.3 23.04-14.62 30.18-26.91 1.3-2.25 3.25-4.25 5.27-5.93 20.15-16.79 33.63-38.78 45.67-61.36 5.8-10.87 8.85-23.92 10.17-36.3 2.31-21.76 4.15-43.77.7-65.69-2.97-18.85-12.02-34.37-26.14-47.04-.74-.67-1.54-1.28-2.35-1.86-12.97-9.42-19.52-7.7-25.91 7.03-4.48 10.32-11.08 18.93-20.04 25.7-21.52 16.27-44.8 26.81-72.74 25.78-38.7-1.43-72.78-31.29-78.87-69.71-1.53-9.66-1.14-18.19 4.59-26.44 3.4-4.89 5.69-10.53 8.67-15.73 5.18-9.04 12.81-14.09 23.47-14.47 8.09-.29 15.69-2.47 22.8-6.54 2.81-1.61 6.13-3 9.3-3.17 18.45-.98 36.54.41 53.66 8.53 13.82 6.55 27.89 12.6 41.93 18.68 9.72 4.2 14.3 1.37 13.6-9.06-.53-8.01 1.19-14.92 4.9-21.95 5.03-9.51 7.49-19.92 7.44-30.77-.04-6.99-.35-13.98-.46-20.97-.28-17.14.43-34.03 12.16-48.17.99-1.19 1.29-2.96 1.91-4.46h6zm-869.01 594.8c-.08.98-.49 2.07-.2 2.93 6.5 19.08 13.02 38.16 19.76 57.16.51 1.43 2.64 2.28 4.91 4.12 3.96-12.07 2.4-22.43-2.73-32.45-5.88-11.49-12.52-22.47-21.85-31.59-1.35-3.38-2.1-7.18-4.13-10.08-22.54-32.19-45.63-63.86-77.92-87.46-31.43-22.97-62.44-46.5-93.68-69.72-11.19-8.32-17.08-7.99-27.34 1.2-5.95 5.33-11.88 10.66-17.77 16.05-9.08 8.29-19.06 15.82-26.98 25.1-20.3 23.78-39.66 48.36-59.44 72.58-7.78 9.53-15.82 18.85-23.45 28.5-3.69 4.67-6.95 9.74-9.95 14.89-2.28 3.93-2.83 8.15 2.24 12.57 6.75-4.35 13.71-8.7 20.55-13.26 14.45-9.65 29.38-18.25 46.32-22.9 12.24-3.36 24.35-7.09 33.45-16.8.65-.7 1.6-1.18 2.5-1.57 21.6-9.29 43.42-14.76 66.68-5.59 7.17 2.83 11.7-.95 11.24-8.57-.56-9.28-1.6-18.53-2.17-27.81-.49-7.96-1.04-15.98-.62-23.92.15-2.73 2.68-6.82 4.98-7.54 2.37-.74 7.05 1.05 8.48 3.21 3.02 4.57 5.19 9.95 6.52 15.3 1.02 4.07.55 8.63.15 12.92-1.77 19.2.82 37.92 6.72 56.1 2.32 7.16 6.35 13.82 9.95 20.51 6.19 11.51 16.26 14.07 28.05 10.84 4.7-1.29 9.18-3.76 13.43-6.25 4.29-2.51 8.04-5.93 12.26-8.58 10.35-6.48 21.11-7.28 32.34-2.1 11.54 5.32 22.59 11.33 32.13 19.88 1.41 1.26 3.73 1.52 5.58 2.32zm736.62-378.06c19.23-.04 34.14-3.7 44.61-13.84 10.92-10.58 20.53-22.57 30.08-34.45 4.52-5.62 2.93-12.25-2.95-16.44-4.31-3.07-8.93-5.8-13.71-8.07-28.76-13.62-57.45-10.45-85.96.9-2.39.95-4.53 2.79-6.46 4.56-11.52 10.57-16.57 23.65-15.35 39.3.75 9.59 5.31 16.44 14.07 20 11.73 4.75 23.74 8.65 35.67 8.05zm-722.78 560.21c4.77-5.83 1.67-10.74.8-15.31-2.75-14.36-6.25-28.58-9.08-42.93-3.59-18.25-5.89-36.8-10.47-54.79-4.42-17.37-10.34-34.45-16.86-51.17-6.48-16.61-21.23-20.56-35.59-10.6-7.11 4.93-14.02 10.16-20.96 15.34-7.04 5.26-8.51 10.08-5.23 18.13 1.37 3.37 3.17 6.62 5.18 9.65 23.77 35.77 47.59 71.51 71.49 107.19 4.26 6.36 8.79 12.56 13.54 18.56 1.83 2.31 4.63 3.86 7.18 5.92zm110.84-49.35c8.96-.74 14.35-5.8 16-13.94 2.03-10.03 6.52-18.73 11.63-27.37 7.85-13.25 14.33-27.03 15.5-42.79.21-2.81 2.02-5.54 3.29-8.21 2.96-6.27 6.27-12.38 9.03-18.73 5.44-12.51 10.35-25.25 15.96-37.68 4.52-10 9.79-19.65 14.67-29.49 2.86-5.75 5.1-11.63 2.64-18.16-2.1-5.58-5.82-7.07-10.82-3.9-8.86 5.61-16.18 12.67-20.74 22.4-13.42 28.59-28.93 56.27-37.08 87.11-.51 1.92-1.32 3.78-2.15 5.59-10.17 22.27-15.15 46.08-20.55 69.75-1.21 5.3-.83 10.51 2.62 15.42zm629.63-405.92c-24.54.58-47.25 10.39-61.85 25.85-7.38 7.81-10.98 17.17-11.74 27.83-.35 4.92 1.59 8.91 5.58 10.86 17.31 8.44 28.84 11.48 44.83.34 10.34-7.2 20.31-14.97 30.13-22.87 4.35-3.5 8.52-7.54 11.73-12.08 8.98-12.7 2.4-27.39-12.91-29.55-2.61-.37-5.28-.35-5.77-.38zm-629.9 519.67c4.33-3.48 8.23-5.55 10.63-8.75 6.56-8.74 12.49-17.96 18.68-26.98 6.19-9.01 11.87-18.44 18.73-26.9 8.01-9.88 15.43-19.92 20.57-31.65 2.25-5.13 5.36-9.95 8.58-14.56 24.21-34.61 48.82-68.95 72.68-103.8 7.09-10.35 12.32-22 18.05-33.24.79-1.56-.45-4.15-.75-6.26-2.12.33-5.03-.1-6.23 1.14-4.38 4.5-8.59 9.27-12.15 14.44-34.75 50.38-69 101.11-104.17 151.2-16.49 23.48-28.62 49.41-43.88 73.54-.87 1.38-1.73 2.98-1.87 4.54-.16 1.78.5 3.63 1.11 7.31zm595.23-266.07c14.07-1.37 31.15-11.43 37.47-23.14 2.73-5.05 2.18-9.85-1.72-13.74-4.22-4.21-9-7.85-13.59-11.68-10.81-9.03-22.35-10.97-34.91-3.6-4 2.35-8.7 3.77-12.19 6.68-4.77 3.99-9.44 8.51-12.8 13.69-5.62 8.67-2.34 19.78 7.19 23.33 9.86 3.67 20.33 5.71 30.53 8.46zM870.21 355.22c.71 3.62.93 7.38 2.22 10.74 2.73 7.08 10.89 10.05 16.25 5.32 11.21-9.9 22.28-20.06 32.41-31.04 7.29-7.9 4.42-17.62-5.53-21.77-4.86-2.03-10.18-3.1-15.37-4.19-7.55-1.58-12.06.28-15.81 7.13-4.31 7.87-8.17 15.99-11.85 24.18-1.33 2.96-1.58 6.4-2.33 9.64zm283.91 51.93c4.09-1.74 9.07-2.56 12.11-5.42 7.47-7.03 14.26-14.82 20.91-22.65 4.02-4.74 2.73-10.46-2.92-13.08-3.15-1.46-7.05-2.26-10.49-1.97-14.32 1.21-24.82 8.75-31.84 21.07-8.49 14.88-5.39 20.25 12.23 22.06zm204.55-72.49c1.41 5.17 2.15 9.79 3.92 13.97 2.5 5.89 7.47 7.56 13 4.19 12.24-7.46 21.32-17.89 26.28-31.41 2.63-7.17-2.17-13.47-9.82-13.27-11.54.3-21.34 4.91-28.26 14.19-2.61 3.5-3.51 8.28-5.12 12.33zm-211.31 634.46c1.2 5.93 4.98 11.66 10.37 16.41 4.73 4.17 8.42 4.19 13.2.25 4.34-3.57 5.92-8.93 2.26-13.19-4.21-4.92-9.38-9.44-14.99-12.62-6.01-3.4-11.18.85-10.83 9.16zm351.48-388.91c8.71-2.3 13.57-6.92 16.19-13.68 1.51-3.89-.67-7.81-4.19-8.75-3.99-1.07-6.48 1-7.52 4.54-1.57 5.32-2.72 10.77-4.48 17.9zm22.7-50.15c.54 5.66 3.1 9.37 6.89 12.08 1.3.93 4.77 1.19 5.16.53.98-1.66 1.69-4.56.86-6.01-2.64-4.57-7.15-6.28-12.91-6.59zm-326.73 401.49c-5.52.69-5.41 4.15-4.71 7.41.24 1.14 2.2 2.69 3.31 2.64 1.11-.05 3.04-1.88 3.03-2.91-.04-2.4-1.03-4.79-1.62-7.15zm-194.69-244.31c-.91.33-1.82.67-2.73 1 1.46 4.28 2.93 8.56 4.39 12.84.78-.25 1.56-.51 2.35-.76l-4.01-13.09zm-5.71-5.63c.7-.3 1.39-.6 2.09-.9-1.13-2.62-2.25-5.24-3.38-7.86l-2.01.86c1.1 2.63 2.2 5.27 3.3 7.9zM524.27 432.35c3.33 3.55 2.78 7.01 1.18 11.1-4.84 12.36-9.54 24.79-13.76 37.37-9.12 27.19-20.4 53.42-34.97 78.11-4.4 7.45-6.55 14.05-2.12 22.17 2.33 4.27 3.4 9.23 5.04 13.87-10.87 3.98-17.1 1.46-20.63-8.21-1.59-4.36-2.83-8.85-4.22-13.28-3.06-9.81-1.99-18.73 4.19-27.39 7.94-11.12 13.08-23.64 18.1-36.43 9.46-24.07 20.87-47.39 31.43-71.03 3.29-7.35 9.22-7.6 15.76-6.28zM507.55 414.84c10.5-8.6 8.97-19.04 6.61-30.66-1.8-8.88-.24-18.47.08-27.73.26-7.58.95-15.15 1.35-22.73.14-2.64-.38-5.35-.03-7.94 1.76-13.04 7.23-17.1 20.28-15.33 2.3.31 4.63.55 6.88 1.1 6 1.47 7.99 4.55 5.49 10.04-5.47 12.03-6.6 24.94-8.35 37.73-2.15 15.75-4.02 31.55-6.06 47.32-.74 5.74-1.91 11.41-8.33 13.54-6.66 2.2-12.25.03-17.91-5.33z"/>
    <path d="M636.02 695.05c-3.61-1.61-7.42-3.31-12.11-5.41 6.05-5.06 3.52-10.97 1.87-16.82-1.84-6.53-4.65-12.91-3.31-20.18 18.25 9.99 25.72 31.02 13.55 42.4zM610.57 643.56c2.96 1.49 5.92 2.98 10.67 5.36-6.58 1.4-9.9.51-11.94-3.37.42-.66.85-1.33 1.27-1.99z"/>
    <path d="M1078.19 594.73c-1.9-.72-4.22-.98-5.63-2.24-9.55-8.55-20.6-14.56-32.13-19.88-11.23-5.18-21.99-4.38-32.34 2.1-4.22 2.64-7.97 6.06-12.26 8.58-4.25 2.49-8.72 4.96-13.43 6.25-11.79 3.24-21.86.67-28.05-10.84-3.6-6.7-7.63-13.35-9.95-20.51-5.89-18.18-8.49-36.9-6.72-56.1.4-4.29.86-8.85-.15-12.92-1.33-5.35-3.51-10.73-6.52-15.3-1.43-2.16-6.11-3.94-8.48-3.21-2.3.72-4.84 4.81-4.98 7.54-.42 7.94.13 15.95.62 23.92.57 9.28 1.61 18.53 2.17 27.81.46 7.62-4.07 11.4-11.24 8.57-23.26-9.17-45.09-3.71-66.68 5.59-.9.39-1.85.87-2.5 1.57-9.09 9.71-21.21 13.43-33.45 16.8-16.94 4.65-31.87 13.25-46.32 22.9-6.83 4.56-13.8 8.92-20.55 13.26-5.07-4.42-4.52-8.64-2.24-12.57 2.99-5.15 6.25-10.22 9.95-14.89 7.63-9.65 15.67-18.97 23.45-28.5 19.78-24.23 39.14-48.81 59.44-72.58 7.92-9.28 17.91-16.81 26.98-25.1 5.89-5.38 11.83-10.72 17.77-16.05 10.26-9.19 16.15-9.52 27.34-1.2 31.24 23.22 62.25 46.75 93.68 69.72 32.3 23.6 55.38 55.27 77.92 87.46 2.03 2.9 2.78 6.7 4.13 10.08l.16-.24zM1814.75 216.74c-11.93.6-23.95-3.3-35.67-8.05-8.76-3.55-13.33-10.41-14.07-20-1.22-15.64 3.83-28.73 15.35-39.3 1.93-1.77 4.07-3.61 6.46-4.56 28.51-11.34 57.2-14.52 85.96-.9 4.78 2.26 9.4 5 13.71 8.07 5.88 4.19 7.47 10.82 2.95 16.44-9.55 11.88-19.16 23.88-30.08 34.45-10.47 10.15-25.39 13.8-44.61 13.84z"
          fill="transparent"/>
    <path d="M1091.97 776.95c-2.55-2.05-5.34-3.6-7.18-5.92-4.75-6-9.28-12.2-13.54-18.56-23.9-35.68-47.72-71.42-71.49-107.19-2.02-3.03-3.81-6.29-5.18-9.65-3.28-8.05-1.81-12.87 5.23-18.13 6.94-5.18 13.85-10.41 20.96-15.34 14.36-9.96 29.11-6.01 35.59 10.6 6.52 16.72 12.44 33.8 16.86 51.17 4.58 17.99 6.87 36.54 10.47 54.79 2.83 14.35 6.32 28.57 9.08 42.93.88 4.56 3.97 9.47-.8 15.31zM1202.81 727.6c-3.45-4.92-3.83-10.12-2.62-15.42 5.4-23.67 10.38-47.48 20.55-69.75.83-1.81 1.64-3.67 2.15-5.59 8.15-30.83 23.66-58.52 37.08-87.11 4.56-9.72 11.89-16.79 20.74-22.4 5-3.17 8.72-1.67 10.82 3.9 2.46 6.53.22 12.41-2.64 18.16-4.89 9.83-10.15 19.49-14.67 29.49-5.62 12.43-10.52 25.17-15.96 37.68-2.76 6.35-6.07 12.46-9.03 18.73-1.27 2.67-3.08 5.41-3.29 8.21-1.17 15.76-7.65 29.54-15.5 42.79-5.11 8.63-9.6 17.34-11.63 27.37-1.65 8.14-7.03 13.2-16 13.94zM1832.43 321.68c.49.03 3.16.01 5.77.38 15.31 2.15 21.89 16.84 12.91 29.55-3.21 4.54-7.38 8.58-11.73 12.08-9.82 7.9-19.79 15.67-30.13 22.87-15.99 11.13-27.52 8.1-44.83-.34-3.99-1.94-5.93-5.94-5.58-10.86.76-10.65 4.36-20.01 11.74-27.83 14.6-15.45 37.31-25.26 61.85-25.85zM1202.53 841.35c-.61-3.68-1.27-5.53-1.11-7.31.14-1.56 1-3.17 1.87-4.54 15.26-24.13 27.39-50.05 43.88-73.54 35.17-50.09 69.41-100.82 104.17-151.2 3.56-5.16 7.77-9.94 12.15-14.44 1.2-1.23 4.11-.8 6.23-1.14.3 2.11 1.54 4.71.75 6.26-5.73 11.24-10.96 22.89-18.05 33.24-23.86 34.85-48.47 69.19-72.68 103.8-3.22 4.61-6.34 9.43-8.58 14.56-5.14 11.73-12.56 21.77-20.57 31.65-6.86 8.47-12.54 17.89-18.73 26.9-6.19 9.02-12.12 18.24-18.68 26.98-2.4 3.2-6.3 5.27-10.63 8.75zM1797.76 575.28c-10.2-2.75-20.67-4.79-30.53-8.46-9.53-3.55-12.81-14.66-7.19-23.33 3.35-5.17 8.03-9.7 12.8-13.69 3.49-2.92 8.18-4.34 12.19-6.68 12.56-7.37 24.09-5.43 34.91 3.6 4.59 3.83 9.37 7.48 13.59 11.68 3.9 3.89 4.45 8.69 1.72 13.74-6.33 11.7-23.4 21.76-37.47 23.14zM870.2 355.23c.75-3.23 1-6.68 2.33-9.64 3.68-8.18 7.54-16.31 11.85-24.18 3.75-6.85 8.26-8.71 15.81-7.13 5.2 1.09 10.51 2.16 15.37 4.19 9.95 4.15 12.81 13.87 5.53 21.77-10.13 10.98-21.2 21.14-32.41 31.04-5.37 4.74-13.52 1.77-16.25-5.32-1.29-3.35-1.51-7.12-2.22-10.74zM1154.11 407.16c-17.62-1.8-20.73-7.17-12.23-22.06 7.02-12.31 17.52-19.86 31.84-21.07 3.44-.29 7.34.51 10.49 1.97 5.66 2.62 6.95 8.34 2.92 13.08-6.65 7.83-13.44 15.63-20.91 22.65-3.04 2.86-8.01 3.67-12.11 5.42zM1358.66 334.66c1.62-4.05 2.51-8.82 5.12-12.33 6.91-9.29 16.72-13.89 28.26-14.19 7.65-.2 12.46 6.1 9.82 13.27-4.96 13.51-14.03 23.95-26.28 31.41-5.53 3.37-10.51 1.7-13-4.19-1.77-4.18-2.51-8.8-3.92-13.97zM1078.03 594.97c9.32 9.12 15.97 20.1 21.85 31.59 5.13 10.02 6.7 20.38 2.73 32.45-2.27-1.84-4.4-2.7-4.91-4.12-6.74-19-13.26-38.08-19.76-57.16-.29-.85.11-1.95.22-2.96.03-.04-.13.21-.13.21zM1147.35 969.13c-.34-8.31 4.82-12.56 10.83-9.16 5.61 3.18 10.78 7.7 14.99 12.62 3.66 4.27 2.08 9.63-2.26 13.19-4.79 3.94-8.47 3.92-13.2-.25-5.39-4.74-9.16-10.48-10.37-16.41zM1498.83 580.22c1.76-7.13 2.91-12.58 4.48-17.9 1.05-3.53 3.53-5.6 7.52-4.54 3.52.94 5.7 4.86 4.19 8.75-2.62 6.76-7.48 11.38-16.19 13.68zM1521.52 530.07c5.77.32 10.28 2.03 12.91 6.59.84 1.45.12 4.35-.86 6.01-.39.66-3.87.4-5.16-.53-3.79-2.71-6.36-6.42-6.89-12.08zM1194.8 931.55c.6 2.36 1.58 4.75 1.62 7.15.02 1.03-1.92 2.85-3.03 2.91-1.11.05-3.06-1.5-3.31-2.64-.7-3.26-.81-6.72 4.71-7.41zM1000.11 687.24l4.01 13.09c-.78.25-1.56.51-2.35.76-1.46-4.28-2.93-8.56-4.39-12.84.91-.33 1.82-.67 2.73-1zM994.39 681.61c-1.1-2.63-2.2-5.27-3.3-7.9l2.01-.86c1.13 2.62 2.25 5.24 3.38 7.86-.7.3-1.39.6-2.09.9z"
          fill="transparent"/>
</svg>