<svg xmlns="http://www.w3.org/2000/svg" width="2351" height="2351">
    <path d="M2351 2351H0V0h2351v2351zM971.77 627.36c-2.99-5.19.02-7.68 2.53-10.3 15.06-15.69 33.9-24.55 54.77-28.95 6.62-1.4 14.15-1.11 20.75.51 17.86 4.37 35.21 10.91 50.07 21.84 36.87 27.11 59.87 62.7 63.36 109.31 1.91 25.58 5.03 50.88 11.07 75.93 3.33 13.8 3.81 28.29 5.36 42.5 1.59 14.53 2.79 29.1 4.41 43.63 1.61 14.52 3.93 28.97 5.17 43.51.98 11.51-5.73 16.24-16.2 11.42-13.28-6.1-26.45-12.55-39.15-19.75-22.65-12.84-45.79-24.33-71.02-31.33-5.01-1.39-9.78-4.11-14.25-6.87-13.88-8.56-27.49-17.56-41.36-26.13-7.34-4.53-15.21-8.11-20.81-15.18-1.94-2.45-5.43-3.69-8.25-5.43-8.2-5.04-16.73-9.6-24.56-15.16-20.63-14.65-41.17-29.44-61.33-44.72-12.44-9.43-24.56-19.4-36.03-29.99-8.42-7.78-17.32-14.32-27.61-19.39-12.22-6.01-24.35-12.37-35.82-19.67-11.22-7.13-11.68-11.91-6.74-24.54 3.24-8.31 5.91-16.9 8.06-25.55 1.99-8-1.31-14.51-8.4-18.54-5.17-2.94-10.64-5.51-16.25-7.46-8.5-2.95-16.38-1.19-23.29 4.72-13.93 11.91-23.14 26.63-25.9 44.86-2.48 16.33 1.71 30.46 15.74 40.47 6.34 4.53 13.15 6.16 20.66 2.49 8.77-4.28 17.82-3.7 25.88 1.15 13.96 8.38 27.76 17.11 41 26.58 18.67 13.36 36.52 27.86 55.17 41.26 15.42 11.08 31.42 21.32 44.8 35 1.61 1.64 3.64 2.89 5.58 4.18 13.03 8.66 25.96 17.48 39.17 25.87 11.79 7.49 23.89 14.5 35.87 21.7 6.83 4.11 13.63 8.28 20.55 12.24 11.25 6.44 22.32 13.26 33.95 18.93 13.14 6.4 26.96 11.36 40.22 17.54 22.6 10.54 44.86 21.83 67.52 32.25 18.43 8.47 37.24 16.12 55.87 24.16 7.02 3.03 12.55 1.62 17.64-4.37 22.42-26.39 45.34-52.36 67.6-78.88 24.62-29.33 48.48-59.28 73.08-88.62 37.01-44.14 75.09-87.39 111.35-132.13 31.89-39.34 63.75-78.58 100.38-113.68.96-.92 2-1.8 2.81-2.84 5.56-7.13 12.85-10.98 21.61-13.27 16.46-4.3 26.31-16.32 32.84-31.19 3.74-8.52.76-18.09-6.44-21.87-10.71-5.63-22.17-9.41-34.33-9.53-9.53-.09-18.85 1.76-23.8 11.52-3.79 7.47-6.55 15.29-5.75 23.92 1.26 13.69-4.23 24.59-13.91 33.81-6.02 5.74-12.19 11.36-17.84 17.45-18.98 20.45-39.18 39.86-54.24 63.68-2.47 3.91-5.79 7.3-8.77 10.89-21.91 26.37-44.09 52.53-65.67 79.16-18.03 22.25-35.34 45.07-53.04 67.58-2.46 3.13-5.38 5.9-8.04 8.88-7.32 8.19-14.92 16.15-21.87 24.65-23.6 28.84-47.01 57.84-70.38 86.87-3.75 4.65-6.87 9.8-10.41 14.62-1.75 2.38-3.51 4.94-5.81 6.69-4.4 3.34-7.88 2.75-10.8-2.07-2.56-4.23-5.47-8.78-6.17-13.5-2.66-17.74-5.04-35.56-6.47-53.44-1.83-22.86-2.37-45.83-3.98-68.71-1.08-15.25-3.6-30.4-4.51-45.65-1.3-21.7 1.75-43.18 4.91-64.6 1.65-11.16 2.56-22.56 5.5-33.38 5.74-21.07 16.72-39.8 28.81-57.84 1.65-2.46 3.66-4.79 5.89-6.74 13.53-11.85 27.07-23.69 40.81-35.29 9.02-7.61 19.54-12.69 30.73-16.23 4.93-1.56 10.42-3.38 14.69 2.6-1.59 6.62-3.68 13.34-4.66 20.21-.63 4.44-.77 9.56.83 13.6 5.67 14.26 26.9 23.73 41.17 18.18 17.28-6.72 29.39-19.26 32.04-37.78 2.29-15.93-1.52-28.65-18.11-34.45-11.44-4-23.06-6.62-35.1-6.77-24.05-.29-46.73 5.91-68.66 15.3-13.7 5.87-25.4 14.42-34.96 25.92-4.47 5.37-9.23 10.5-13.92 15.69-13.41 14.83-26.82 29.64-36.36 47.44-.77 1.44-1.85 2.8-3.06 3.9-2.48 2.24-6.12 1.54-7.34-1.54-.71-1.8-.74-3.91-.86-5.89-1.98-34.11-7.69-67.86-6.43-102.33 1.41-38.56 1.35-76.92 10.09-114.98a856.13 856.13 0 0124.96-87.19c9.35-27.13 26.76-49.73 43.99-72.19 3.25-4.23 8.9-6.78 13.77-9.53 1.93-1.09 4.73-.63 5.98-.76-.78 14.05-1.63 27.24-2.15 40.45-.09 2.18.96 4.56 1.96 6.61 5.39 11.01 13.82 18.98 25.63 22.26 21.87 6.07 42.19 1.67 60.89-10.81 4.35-2.9 7.66-6.91 7.3-12.35-.84-12.91-1.4-25.92-3.5-38.65-1.83-11.13-8.71-19.15-19.71-23.3-4.32-1.63-8.39-4.01-12.4-6.34-23.38-13.57-47.14-19.52-72.19-4.16-2.26 1.38-4.77 2.36-7.17 3.52-21.44 10.4-37.27 26.41-48.17 47.55-3.19 6.19-6.7 12.33-10.92 17.84-5.97 7.8-10.14 16.24-13.16 25.56-5.85 18.04-12.23 35.91-18.46 53.83-.93 2.67-1.19 6.24-6.85 5.6-.37-2.78-1.01-5.85-1.15-8.95-.36-7.98-.41-15.97-.75-23.95-.54-12.6-1.18-25.19-1.86-37.79-.6-11.27-.68-22.61-2.13-33.77-1.62-12.5-4.92-24.78-6.77-37.26-4.76-32.22-2.68-63.68 11.38-93.69 1.68-3.58 2.99-7.47 3.67-11.35 1.52-8.66-.68-13.22-8.7-16.94-5.69-2.64-11.79-4.49-17.84-6.27-13.73-4.05-33 3.7-41.45 19.15-3.34 6.1-3.49 12.16.68 17.85 3.93 5.36 7.78 10.91 12.46 15.58 6.9 6.9 9.8 14.86 8.95 24.39-1.66 18.71 1.3 37.16 2.71 55.73 1.95 25.84 3.4 51.71 1.87 77.73-1.03 17.53.25 35.21.76 52.81.32 11.13 1.57 22.26-1.21 33.69-2.67-3-4.5-6.29-6.18-9.66-4.15-8.33-8.39-16.63-12.3-25.07-5.44-11.73-11.94-23.19-15.62-35.47-6.52-21.8-15.47-42.41-25.16-62.92-13.02-27.53-35.27-41.51-64.04-47.03-10.46-2-20.98-3.63-31.45-5.6-21.67-4.07-42.43-.99-62.39 7.94-9.99 4.47-14.39 11.55-13.19 22.16 1.16 10.23 2.53 20.52 4.97 30.5 4.68 19.17 20.31 30.79 40.15 30.83 3 0 6.01.13 8.99-.11 16.18-1.31 27.41-9.96 33.64-24.51 6.9-16.12-1.58-33.69-18.19-39.58-4.71-1.67-10.57-1.57-13.75-8.55 4.3-.52 7.86-1.67 11.23-1.25 17.54 2.19 34.86 5.52 50.88 13.45 7.96 3.94 14.13 9.94 18.24 17.89 5.04 9.75 10.26 19.43 14.92 29.36 2.67 5.68 4.65 11.73 6.51 17.74 3.83 12.36 6.5 25.14 11.19 37.15 13.92 35.64 28.57 70.99 42.97 106.44 3 7.39 5.78 14.9 9.38 21.99 3.98 7.86 6.65 15.94 7.16 24.72.71 12.28 1.15 24.59 2.21 36.85 1.69 19.53 3.6 39.05 5.82 58.52 1.24 10.87 3.3 21.65 4.95 32.48.32 2.08.43 4.19.66 6.54-1.38-.34-2.14-.31-2.61-.67-25.35-19.42-54.19-32.4-83.13-45.24-9.75-4.32-19.91-6.55-30.14-3.37-25.65 7.98-49.78 19.12-69.4 38.08-14.43 13.95-25.17 30.17-27.58 50.75-2.15 18.33 1.95 34.42 17.17 46.34 9.9 7.75 21.54 10.1 33.72 10.55 4.68.17 8.49-1.85 10.74-6.01 6.01-11.12 12.87-21.92 17.58-33.57 10.1-24.96-9.08-48.55-35.76-44.93-1.3.18-2.62.15-4.26.24z"
          fill="transparent"/>
    <path d="M971.77 627.36c1.64-.09 2.96-.06 4.26-.24 26.68-3.63 45.86 19.97 35.76 44.93-4.72 11.66-11.57 22.45-17.58 33.57-2.25 4.16-6.06 6.19-10.74 6.01-12.17-.45-23.82-2.8-33.72-10.55-15.21-11.91-19.31-28.01-17.17-46.34 2.41-20.57 13.15-36.8 27.58-50.75 19.61-18.96 43.75-30.1 69.4-38.08 10.23-3.18 20.39-.96 30.14 3.37 28.94 12.83 57.78 25.82 83.13 45.24.46.36 1.22.33 2.61.67-.23-2.35-.34-4.46-.66-6.54-1.65-10.83-3.71-21.61-4.95-32.48-2.22-19.48-4.12-38.99-5.82-58.52-1.06-12.25-1.5-24.56-2.21-36.85-.51-8.79-3.18-16.86-7.16-24.72-3.59-7.09-6.37-14.61-9.38-21.99-14.4-35.45-29.05-70.8-42.97-106.44-4.69-12.01-7.36-24.79-11.19-37.15-1.86-6.01-3.84-12.06-6.51-17.74-4.67-9.93-9.88-19.6-14.92-29.36-4.11-7.95-10.28-13.95-18.24-17.89-16.02-7.93-33.34-11.26-50.88-13.45-3.37-.42-6.94.73-11.23 1.25 3.18 6.98 9.04 6.88 13.75 8.55 16.6 5.89 25.09 23.47 18.19 39.58-6.23 14.55-17.46 23.2-33.64 24.51-2.98.24-5.99.12-8.99.11-19.84-.04-35.47-11.66-40.15-30.83-2.43-9.98-3.81-20.27-4.97-30.5-1.2-10.62 3.2-17.69 13.19-22.16 19.97-8.94 40.72-12.02 62.39-7.94 10.46 1.97 20.99 3.6 31.45 5.6 28.78 5.51 51.02 19.5 64.04 47.03 9.7 20.5 18.64 41.11 25.16 62.92 3.68 12.28 10.18 23.74 15.62 35.47 3.92 8.44 8.15 16.74 12.3 25.07 1.68 3.37 3.5 6.66 6.18 9.66 2.78-11.43 1.53-22.56 1.21-33.69-.51-17.6-1.79-35.28-.76-52.81 1.53-26.02.08-51.89-1.87-77.73-1.4-18.57-4.37-37.02-2.71-55.73.85-9.53-2.04-17.49-8.95-24.39-4.68-4.67-8.52-10.22-12.46-15.58-4.17-5.69-4.02-11.75-.68-17.85 8.45-15.44 27.72-23.2 41.45-19.15 6.04 1.78 12.15 3.63 17.84 6.27 8.02 3.73 10.22 8.29 8.7 16.94-.68 3.89-1.99 7.77-3.67 11.35-14.06 30-16.14 61.47-11.38 93.69 1.85 12.48 5.15 24.76 6.77 37.26 1.44 11.16 1.52 22.5 2.13 33.77.67 12.59 1.31 25.19 1.86 37.79.34 7.98.39 15.97.75 23.95.14 3.09.78 6.17 1.15 8.95 5.66.64 5.92-2.93 6.85-5.6 6.23-17.92 12.6-35.79 18.46-53.83 3.02-9.31 7.2-17.76 13.16-25.56 4.22-5.51 7.73-11.66 10.92-17.84 10.91-21.13 26.73-37.15 48.17-47.55 2.4-1.16 4.91-2.13 7.17-3.52 25.05-15.36 48.81-9.41 72.19 4.16 4.01 2.33 8.09 4.7 12.4 6.34 10.99 4.16 17.88 12.17 19.71 23.3 2.09 12.74 2.66 25.74 3.5 38.65.35 5.44-2.95 9.45-7.3 12.35-18.7 12.47-39.02 16.88-60.89 10.81-11.82-3.28-20.25-11.24-25.63-22.26-1-2.05-2.05-4.43-1.96-6.61.52-13.2 1.36-26.39 2.15-40.45-1.25.13-4.06-.34-5.98.76-4.87 2.76-10.52 5.3-13.77 9.53-17.23 22.46-34.64 45.06-43.99 72.19a853.573 853.573 0 00-24.96 87.19c-8.75 38.06-8.68 76.42-10.09 114.98-1.26 34.47 4.45 68.22 6.43 102.33.12 1.98.15 4.1.86 5.89 1.22 3.09 4.86 3.78 7.34 1.54 1.21-1.09 2.29-2.46 3.06-3.9 9.54-17.8 22.96-32.61 36.36-47.44 4.69-5.19 9.45-10.31 13.92-15.69 9.56-11.5 21.26-20.06 34.96-25.92 21.93-9.39 44.61-15.59 68.66-15.3 12.05.15 23.66 2.77 35.1 6.77 16.59 5.8 20.4 18.51 18.11 34.45-2.66 18.52-14.77 31.06-32.04 37.78-14.27 5.55-35.5-3.92-41.17-18.18-1.61-4.03-1.47-9.16-.83-13.6.98-6.87 3.08-13.59 4.66-20.21-4.27-5.99-9.75-4.16-14.69-2.6-11.18 3.53-21.71 8.61-30.73 16.23-13.74 11.6-27.28 23.44-40.81 35.29-2.23 1.95-4.24 4.28-5.89 6.74-12.09 18.04-23.07 36.76-28.81 57.84-2.95 10.83-3.86 22.22-5.5 33.38-3.16 21.41-6.21 42.9-4.91 64.6.91 15.25 3.43 30.4 4.51 45.65 1.61 22.88 2.15 45.85 3.98 68.71 1.43 17.87 3.81 35.7 6.47 53.44.71 4.72 3.61 9.27 6.17 13.5 2.92 4.82 6.4 5.41 10.8 2.07 2.31-1.75 4.06-4.31 5.81-6.69 3.55-4.82 6.67-9.97 10.41-14.62 23.37-29.03 46.78-58.03 70.38-86.87 6.95-8.49 14.55-16.46 21.87-24.65 2.66-2.98 5.58-5.75 8.04-8.88 17.7-22.51 35.01-45.34 53.04-67.58 21.59-26.64 43.76-52.79 65.67-79.16 2.98-3.59 6.29-6.98 8.77-10.89 15.06-23.82 35.27-43.22 54.24-63.68 5.65-6.09 11.81-11.71 17.84-17.45 9.68-9.22 15.17-20.12 13.91-33.81-.8-8.63 1.96-16.45 5.75-23.92 4.95-9.75 14.27-11.61 23.8-11.52 12.16.11 23.62 3.9 34.33 9.53 7.19 3.78 10.18 13.34 6.44 21.87-6.53 14.87-16.38 26.9-32.84 31.19-8.76 2.29-16.06 6.14-21.61 13.27-.81 1.04-1.85 1.92-2.81 2.84-36.64 35.1-68.49 74.34-100.38 113.68-36.26 44.74-74.35 87.99-111.35 132.13-24.6 29.34-48.47 59.29-73.08 88.62-22.26 26.52-45.19 52.49-67.6 78.88-5.09 6-10.61 7.41-17.64 4.37-18.63-8.04-37.44-15.69-55.87-24.16-22.66-10.42-44.91-21.71-67.52-32.25-13.25-6.18-27.08-11.14-40.22-17.54-11.63-5.66-22.7-12.49-33.95-18.93-6.92-3.96-13.72-8.13-20.55-12.24-11.98-7.2-24.07-14.21-35.87-21.7-13.21-8.39-26.14-17.2-39.17-25.87-1.93-1.29-3.97-2.53-5.58-4.18-13.38-13.68-29.38-23.93-44.8-35-18.65-13.39-36.5-27.89-55.17-41.26-13.23-9.47-27.04-18.2-41-26.58-8.06-4.84-17.11-5.43-25.88-1.15-7.51 3.67-14.32 2.04-20.66-2.49-14.04-10.01-18.22-24.14-15.74-40.47 2.76-18.23 11.97-32.95 25.9-44.86 6.9-5.9 14.79-7.67 23.29-4.72 5.61 1.95 11.08 4.52 16.25 7.46 7.08 4.02 10.39 10.53 8.4 18.54-2.16 8.66-4.82 17.25-8.06 25.55-4.94 12.64-4.48 17.41 6.74 24.54 11.48 7.3 23.61 13.65 35.82 19.67 10.29 5.07 19.18 11.61 27.61 19.39 11.47 10.59 23.58 20.56 36.03 29.99 20.16 15.28 40.7 30.08 61.33 44.72 7.83 5.56 16.36 10.12 24.56 15.16 2.82 1.73 6.31 2.98 8.25 5.43 5.6 7.07 13.47 10.64 20.81 15.18 13.87 8.57 27.48 17.57 41.36 26.13 4.48 2.76 9.24 5.48 14.25 6.87 25.23 7 48.36 18.5 71.02 31.33 12.71 7.2 25.88 13.64 39.15 19.75 10.47 4.81 17.19.09 16.2-11.42-1.24-14.54-3.56-28.99-5.17-43.51-1.61-14.53-2.82-29.1-4.41-43.63-1.55-14.2-2.03-28.7-5.36-42.5-6.04-25.04-9.15-50.35-11.07-75.93-3.49-46.61-26.49-82.2-63.36-109.31-14.86-10.93-32.21-17.46-50.07-21.84-6.6-1.62-14.13-1.9-20.75-.51-20.87 4.4-39.71 13.26-54.77 28.95-2.51 2.62-5.53 5.11-2.53 10.3z"/>
</svg>