<svg xmlns="http://www.w3.org/2000/svg" width="2351" height="2351">
    <path d="M0 2351V0h2351v2351H0zm974.63-729.27c.51 5.3.59 10.68 1.63 15.87 1.17 5.84 2.94 11.6 4.9 17.23 2.3 6.59 5.4 12.9 7.6 19.52 6.85 20.68 21.4 34.85 38.74 46.79 3.46 2.39 6.68 2.77 9.84-.4 3.27-3.29 3.69-7.94.8-11.66-1.42-1.83-3.37-3.24-4.81-5.05-6.62-8.31-14.11-16.12-19.53-25.16-16.97-28.33-22.48-58.27-8.47-89.55 10.48-23.4 19.06-47.43 27.04-71.77 3.58-10.93 8.89-21.48 14.7-31.46 5.33-9.15 11.78-17.82 18.8-25.77 22.46-25.45 45.46-50.43 68.15-75.67 9.16-10.2 18.8-19.77 30.78-26.72 1.99-1.15 4.03-2.61 5.32-4.45 1.39-1.98 3.15-5.01 2.5-6.77-.69-1.9-4.13-4.2-6.09-3.97-5.79.66-12 1.45-17 4.13-6.04 3.24-11.41 8.07-16.38 12.93-18.53 18.13-34.97 38.2-53.83 56.17-18.44 17.57-33.52 38.69-49.85 58.44-8.38 10.13-14.47 21.85-17.31 34.53-5.29 23.57-13.61 45.82-25.13 66.97-7.78 14.27-12.27 29.43-12.38 45.84zm419.68-17.7l-1.17-.21c-.27-4.32-.4-8.65-.84-12.95-2.94-28.54-9.18-56.35-17.6-83.77-13.46-43.83-35-83.29-63.37-119.12-14.04-17.74-32.36-28.46-54.72-31.87-5.17-.79-10.7-.78-15.82.17-2.65.49-6.35 3.58-6.77 5.98-.72 4.12 2.27 7.51 6.68 8.61 3.87.96 7.82 1.63 11.75 2.35 10.02 1.83 18.64 6.13 26.73 12.55 26.77 21.25 39.82 51.98 56.59 80.16.33.56.44 1.26.67 1.88 3.76 9.94 7.52 19.88 11.3 29.81 6.38 16.75 13.64 33.22 16.48 51.11.88 5.57.85 11.53 2.96 16.6 4.63 11.14 5.56 22.6 4.65 34.27-1.09 13.92-3.3 27.77-4.13 41.7-1.26 21.03-11.63 36.3-28.32 48.04-1.63 1.15-3.86 2.12-4.59 3.73-1.27 2.79-2.7 6.35-1.91 8.94.54 1.76 4.73 3.35 7.29 3.37 6.97.04 12.8-3.22 17.55-8.28 5.69-6.07 11.12-12.41 17.01-18.28 6.1-6.09 10.43-13.16 11.79-21.55 2.88-17.7 5.23-35.49 7.8-53.24z"
          fill="transparent"/>
    <path d="M974.63 1621.73c.1-16.41 4.6-31.56 12.38-45.84 11.53-21.14 19.85-43.39 25.13-66.97 2.84-12.68 8.94-24.4 17.31-34.53 16.33-19.75 31.41-40.87 49.85-58.44 18.86-17.97 35.3-38.04 53.83-56.17 4.96-4.86 10.33-9.69 16.38-12.93 5-2.68 11.21-3.47 17-4.13 1.97-.23 5.4 2.07 6.09 3.97.64 1.76-1.11 4.78-2.5 6.77-1.29 1.83-3.33 3.3-5.32 4.45-11.98 6.95-21.61 16.52-30.78 26.72-22.69 25.25-45.69 50.22-68.15 75.67-7.01 7.95-13.47 16.62-18.8 25.77-5.81 9.97-11.11 20.52-14.7 31.46-7.98 24.34-16.56 48.37-27.04 71.77-14.01 31.29-8.5 61.22 8.47 89.55 5.42 9.04 12.91 16.85 19.53 25.16 1.44 1.81 3.4 3.22 4.81 5.05 2.88 3.72 2.47 8.37-.8 11.66-3.15 3.16-6.37 2.78-9.84.4-17.34-11.94-31.89-26.11-38.74-46.79-2.19-6.62-5.3-12.93-7.6-19.52-1.96-5.64-3.74-11.39-4.9-17.23-1.04-5.19-1.12-10.57-1.63-15.87zM1394.31 1604.03c-2.57 17.75-4.91 35.54-7.8 53.24-1.37 8.39-5.69 15.46-11.79 21.55-5.89 5.87-11.31 12.21-17.01 18.28-4.74 5.06-10.58 8.32-17.55 8.28-2.57-.02-6.76-1.61-7.29-3.37-.79-2.58.64-6.15 1.91-8.94.73-1.61 2.96-2.58 4.59-3.73 16.69-11.74 27.06-27.01 28.32-48.04.83-13.93 3.04-27.78 4.13-41.7.92-11.68-.02-23.13-4.65-34.27-2.11-5.07-2.07-11.04-2.96-16.6-2.84-17.89-10.1-34.36-16.48-51.11-3.78-9.93-7.54-19.87-11.3-29.81-.24-.62-.34-1.32-.67-1.88-16.77-28.18-29.82-58.92-56.59-80.16-8.09-6.42-16.71-10.72-26.73-12.55-3.93-.72-7.88-1.38-11.75-2.35-4.41-1.1-7.4-4.49-6.68-8.61.42-2.4 4.12-5.49 6.77-5.98 5.12-.95 10.64-.95 15.82-.17 22.36 3.41 40.68 14.14 54.72 31.87 28.38 35.84 49.91 75.29 63.37 119.12 8.42 27.42 14.67 55.23 17.6 83.77.44 4.3.57 8.63.84 12.95l1.17.21z"/>
</svg>