<svg xmlns="http://www.w3.org/2000/svg" width="2351" height="2351">
    <path d="M0 2351V0h2351v2351H0zm1128.21-773.96c-2.01 24.99-3.52 43.84-5.04 62.69-3.45 42.86-27 72.32-62.22 94.37-17.26 10.81-36.84 12.11-55.79 12.51-38.24.81-76.31-2.61-113.2-14.13-27.45-8.57-55.55-13.59-84.35-13.42-8.91.05-17.88 1.67-26.67 3.35-3.62.69-7.57 2.12-9.27 6.66-2.92 7.83 1.07 16.33 10.4 17.96 15.99 2.79 32.15 4.83 48.32 6.29 11.2 1.01 22.74-.61 33.42 4.03 12.94 5.62 26.53 8.46 40.35 10.83 19.31 3.32 38.5 7.29 57.77 10.84 3.24.6 6.62.72 9.92.58 19.87-.81 39.73-1.72 59.6-2.7 6.95-.34 14.2.15 20.77-1.67 14.65-4.06 29.1-8.95 43.36-14.24 12.21-4.52 23.68-10.75 32.71-20.45 33-35.46 49.83-77.65 49.4-125.91-.36-41.4-1.48-82.88-4.6-124.14-2.1-27.73-7.79-55.25-12.77-82.7-4.02-22.18-9.62-44.06-14.06-66.17-2.45-12.16-6.55-23.62-12.18-34.58-5.44-10.59-14.27-16.32-26.03-17.81-13.82-1.75-21.98 6.2-19.75 19.92 1.49 9.16 3.62 18.21 5.62 27.28 4.34 19.73 8.98 39.39 13.1 59.16 3.79 18.17 7.68 36.35 10.39 54.69 2.87 19.38 4.82 38.92 6.39 58.46 2 24.74 3.21 49.54 4.38 68.3zm218.93 256.07c25.42-.68 47.02-3.59 68.07-10.52 9.78-3.22 19.81-6.09 29.96-7.68 20.63-3.23 41.34-5.85 61.44-11.81 2.52-.75 5.19-1.23 7.81-1.34 9.22-.41 16.14-5.76 23.24-10.64 3.69-2.54 3.98-6.22.98-9.44-1.92-2.06-4.53-4.44-7.08-4.77-7.51-.97-15.35-2.31-22.68-1.14-21.91 3.51-43.61 8.27-65.43 12.31-25.06 4.65-50.14 9.21-75.26 13.52-19.08 3.28-28.35-.74-35.65-18.63-6.24-15.3-11.12-31.44-14.22-47.67-5.27-27.64-8.99-55.59-12.78-83.48-5.38-39.54-7.75-79.35-6.85-119.22.73-32.58 2.85-65.13 4.66-97.68 2.19-39.54 2.71-79.23 10.28-118.3.83-4.27-.2-7.7-2.87-11.09-6.53-8.25-15.12-10.41-24.94-8.72-10.18 1.75-17.09 7.44-18.89 17.93-1.46 8.51-2.5 17.12-3.35 25.72-3.24 33.12-6.91 66.22-9.23 99.41-1.2 17.16-.67 34.54.43 51.73 1.69 26.27 2.87 52.37-2.42 78.43-1.56 7.7-1.98 15.85-1.5 23.71.88 14.21 3.12 28.32 4.29 42.52 3.04 37.05 4.46 74.31 15.49 110.23.29.95.52 1.94.59 2.93 1.52 21.33 10.81 39.33 23 56.46 13.97 19.63 32.08 29.4 52.91 27.22z"
          fill="transparent"/>
    <path d="M1128.21 1577.04c-1.17-18.76-2.39-43.56-4.38-68.3-1.58-19.54-3.53-39.08-6.39-58.46-2.71-18.34-6.6-36.52-10.39-54.69-4.12-19.77-8.77-39.43-13.1-59.16-1.99-9.07-4.13-18.12-5.62-27.28-2.23-13.72 5.93-21.67 19.75-19.92 11.76 1.49 20.59 7.22 26.03 17.81 5.63 10.96 9.73 22.42 12.18 34.58 4.44 22.11 10.04 43.99 14.06 66.17 4.98 27.45 10.68 54.96 12.77 82.7 3.12 41.27 4.24 82.74 4.6 124.14.42 48.26-16.4 90.45-49.4 125.91-9.03 9.71-20.5 15.93-32.71 20.45-14.26 5.28-28.71 10.18-43.36 14.24-6.58 1.82-13.82 1.33-20.77 1.67-19.86.97-39.73 1.88-59.6 2.7-3.3.14-6.68.01-9.92-.58-19.27-3.55-38.46-7.52-57.77-10.84-13.82-2.37-27.41-5.21-40.35-10.83-10.68-4.64-22.22-3.02-33.42-4.03-16.17-1.46-32.33-3.5-48.32-6.29-9.33-1.63-13.32-10.12-10.4-17.96 1.69-4.54 5.65-5.96 9.27-6.66 8.79-1.68 17.76-3.29 26.67-3.35 28.8-.17 56.89 4.85 84.35 13.42 36.89 11.52 74.96 14.94 113.2 14.13 18.95-.4 38.52-1.7 55.79-12.51 35.22-22.05 58.77-51.51 62.22-94.37 1.52-18.85 3.03-37.7 5.04-62.69zM1347.14 1833.11c-20.83 2.18-38.95-7.6-52.91-27.22-12.19-17.13-21.48-35.12-23-56.46-.07-.99-.3-1.98-.59-2.93-11.04-35.92-12.45-73.18-15.49-110.23-1.17-14.2-3.41-28.31-4.29-42.52-.49-7.86-.07-16.01 1.5-23.71 5.3-26.07 4.11-52.16 2.42-78.43-1.1-17.19-1.63-34.58-.43-51.73 2.32-33.19 5.99-66.29 9.23-99.41.84-8.6 1.88-17.2 3.35-25.72 1.8-10.49 8.71-16.18 18.89-17.93 9.83-1.69 18.42.47 24.94 8.72 2.68 3.38 3.7 6.82 2.87 11.09-7.57 39.07-8.1 78.76-10.28 118.3-1.8 32.55-3.92 65.1-4.66 97.68-.9 39.87 1.47 79.67 6.85 119.22 3.8 27.9 7.51 55.85 12.78 83.48 3.1 16.23 7.97 32.37 14.22 47.67 7.3 17.89 16.57 21.91 35.65 18.63 25.12-4.31 50.2-8.87 75.26-13.52 21.82-4.05 43.53-8.8 65.43-12.31 7.33-1.17 15.17.17 22.68 1.14 2.55.33 5.15 2.71 7.08 4.77 3 3.21 2.72 6.9-.98 9.44-7.1 4.88-14.02 10.23-23.24 10.64-2.62.12-5.29.6-7.81 1.34-20.1 5.96-40.81 8.57-61.44 11.81-10.14 1.59-20.18 4.46-29.96 7.68-21.05 6.93-42.65 9.84-68.07 10.52z"/>
</svg>