<svg xmlns="http://www.w3.org/2000/svg" width="2351" height="2351">
    <path d="M0 2351V0h2351v2351H0zm1398.01-486.38c-5.66 0-11.33-.07-16.99.01-9.79.14-17.96-3.3-22.32-12.25-9.9-20.29-20.51-40.39-28.4-61.47-5.89-15.74-8.01-32.9-11.71-49.45-6.47-28.9-11.63-57.94-14.01-87.59-2.4-29.83-7.23-59.45-10.68-89.2-2.68-23.13-4.8-46.32-7.31-69.47-1.64-15.21-3.64-30.38-5.26-45.6-1.48-13.87-3.46-27.75-3.83-41.66-.58-21.63 1.07-43.36-.17-64.93-1.37-23.8 2.37-46.21 10.76-68.39 7.99-21.11 20.46-39.57 31.93-58.67 3.26-5.42 6.66-10.78 9.48-16.42 2.21-4.42.84-7.49-3.4-9.93-5.09-2.92-10.51-2.63-14.61 1.81-3.58 3.88-6.37 8.5-9.39 12.87-5.66 8.19-11.28 16.41-16.81 24.69-1.26 1.89-2.19 4.04-3.09 6.15-2.71 6.35-5.23 12.79-8.02 19.1-1.61 3.64-3.74 7.05-5.42 10.66-3.91 8.41-7.35 17.05-11.63 25.26-2.39 4.59-3.68 9.05-3.7 14.2-.1 28.27-.39 56.54-.61 84.81-.04 5.3-.08 10.59-.11 15.89-.15 22.62 3.68 44.99 3.1 67.75-.41 16.42.1 33.4 2.71 49.59 4.09 25.28 3.01 51.26 10.52 76.03.65 2.15.43 4.65.24 6.95-2.15 25.9 5.48 50.76 8.28 76.12 1.89 17.15 5.73 34.08 7.98 51.21 4.58 34.91 12.11 68.82 30.22 99.63 1.91 3.25 3.38 7.69 2.87 11.26-1.22 8.39 2.3 14.24 8.09 19.21 10.07 8.63 17.5 19.04 22.63 31.25 4.79 11.42 12.74 20.41 23.38 26.57 19.14 11.08 39.4 19.64 61.47 22.62 18.11 2.45 36.33 4.31 54.57 5.48 6.76.44 13.94-.99 20.5-3 24.22-7.42 44.91-21.65 65.28-36.04 7.48-5.28 13.38-12.9 19.61-19.81 5.79-6.43 8.6-14.6 8.52-22.99-.15-17.24-3.51-25.01-18.78-31.81-10.53-4.69-21.49-7.36-32.98-6.65-11.29.7-22.59 1.75-33.77 3.38-11.9 1.74-23.05 5.9-34.01 11.1-26.89 12.74-54.89 21.73-85.11 21.73zm-222.53-526.18c0-13.97.06-27.95-.06-41.92-.02-2.29-.65-4.6-1.21-6.85-1.18-4.7-4.29-7.57-9.08-7.98-4.53-.38-7.49 2.43-9.37 6.22-1.01 2.04-1.96 4.33-2.07 6.56-.96 19.54-5.28 38.97-1.99 58.67.49 2.92.13 5.98.11 8.98-.17 19.65-.7 39.3-.38 58.93.12 7.53 2.27 15.01 3.24 22.54.67 5.18 1.74 10.52 1.14 15.61-1.26 10.64-1.85 21.12-.28 31.81 3.3 22.52 2.43 45.1.49 67.72-1.44 16.83-5.81 33.51-3.08 50.63.25 1.55-.48 3.26-.8 4.89-5.59 28.55-13.88 56.18-27.57 82.03-5.61 10.58-10.53 21.54-16.36 32-4.52 8.1-9.77 15.82-15.06 23.46-4.9 7.09-10.19 13.92-15.5 20.72-2.19 2.81-4.43 6.18-7.45 7.64-15.27 7.36-27.93 17.92-39.51 30.08-9.1 9.56-19.99 16.2-32.76 20.19-14.27 4.46-28.2 9.99-42.32 14.95-2.48.87-5.11 1.77-7.7 1.84-23.95.7-47.9 1.55-71.85 1.68-17.48.09-34.09-3.74-50.02-11.64-21.83-10.83-43.43-21.85-62.05-37.84-9.58-8.23-16.67-18.2-19.5-30.64-.85-3.74-.95-8.02-.05-11.72 1.56-6.44 4.17-12.62 6.33-18.92 3.51-10.17 10.89-14.43 21.38-14.58 15.97-.23 28.9 5.94 40.01 17.19 12.87 13.02 26.17 25.62 39.39 38.29 5.88 5.64 12.9 8.86 20.97 10.8 22.42 5.37 45.35 6.78 68.04 10.09 19.25 2.81 38.37 3.68 57.71 2.89 9.51-.39 17.48-3.87 23.83-10.83 1.12-1.23 2.09-4.17 1.41-5.14-1.09-1.56-3.52-2.72-5.51-2.97-2.21-.28-4.57.64-6.87 1.05-10.87 1.95-21.7 2.63-32.75.85-22.99-3.7-46-7.39-69.11-10.21-24.55-2.99-44.97-13.51-62.23-30.87-8.92-8.97-17.63-18.23-27.25-26.39-5.41-4.59-12.11-8.55-18.88-10.49-15.28-4.38-30.94-3.79-46.4.16-7.78 1.99-14.11 6.12-17.97 13.23-4.12 7.59-7.85 15.4-11.63 23.17-9.24 18.96-5.13 36.37 6.96 52.34 8.5 11.23 18.98 20.54 31.31 27.54 13.31 7.57 26.37 15.69 40.18 22.21 12.56 5.92 25.67 11.19 39.08 14.67 25.33 6.56 51.33 6.52 77.38 5.35 32.22-1.45 63.48-7.28 93.32-19.48 10.07-4.12 19.62-9.74 28.9-15.49 10.17-6.3 19.78-13.52 29.61-20.37 4.09-2.85 8.57-5.34 12.08-8.79 30.89-30.4 57.32-63.93 72.67-105.12 1.85-4.97 4.12-9.86 6.83-14.42 12.95-21.78 15.43-46.58 19.75-70.66 2.5-13.96 1.97-28.51 2.23-42.81.42-22.94.55-45.88.46-68.83-.1-24.88.27-49.52-4.46-74.48-5.42-28.63-6.87-58.15-5.73-87.54z"
          fill="transparent"/>
    <path d="M1398.01 1864.62c30.21 0 58.22-8.99 85.11-21.73 10.96-5.19 22.11-9.35 34.01-11.1 11.18-1.64 22.48-2.69 33.77-3.38 11.49-.71 22.46 1.97 32.98 6.65 15.28 6.8 18.63 14.57 18.78 31.81.07 8.39-2.73 16.56-8.52 22.99-6.22 6.91-12.13 14.53-19.61 19.81-20.37 14.39-41.06 28.62-65.28 36.04-6.55 2.01-13.74 3.44-20.5 3-18.23-1.17-36.46-3.04-54.57-5.48-22.07-2.98-42.33-11.54-61.47-22.62-10.64-6.16-18.59-15.14-23.38-26.57-5.12-12.21-12.56-22.62-22.63-31.25-5.79-4.97-9.31-10.82-8.09-19.21.52-3.57-.95-8.01-2.87-11.26-18.11-30.81-25.64-64.72-30.22-99.63-2.25-17.12-6.09-34.06-7.98-51.21-2.79-25.37-10.42-50.22-8.28-76.12.19-2.31.42-4.8-.24-6.95-7.51-24.77-6.44-50.75-10.52-76.03-2.62-16.19-3.13-33.17-2.71-49.59.57-22.76-3.26-45.13-3.1-67.75.04-5.3.07-10.59.11-15.89.22-28.27.51-56.54.61-84.81.02-5.15 1.31-9.61 3.7-14.2 4.28-8.21 7.73-16.85 11.63-25.26 1.68-3.61 3.81-7.02 5.42-10.66 2.8-6.31 5.31-12.75 8.02-19.1.9-2.11 1.82-4.25 3.09-6.15 5.53-8.28 11.15-16.5 16.81-24.69 3.02-4.37 5.81-8.99 9.39-12.87 4.1-4.44 9.52-4.73 14.61-1.81 4.24 2.44 5.6 5.51 3.4 9.93-2.82 5.65-6.22 11-9.48 16.42-11.47 19.1-23.95 37.56-31.93 58.67-8.39 22.18-12.14 44.59-10.76 68.39 1.24 21.57-.41 43.3.17 64.93.37 13.91 2.35 27.79 3.83 41.66 1.63 15.21 3.62 30.39 5.26 45.6 2.5 23.15 4.62 46.34 7.31 69.47 3.45 29.75 8.29 59.37 10.68 89.2 2.38 29.64 7.54 58.68 14.01 87.59 3.7 16.55 5.83 33.71 11.71 49.45 7.88 21.09 18.49 41.18 28.4 61.47 4.37 8.95 12.53 12.39 22.32 12.25 5.66-.08 11.33-.01 16.99-.01zm89.04 63.48l.12 1c2 0 4.01-.13 6 .02 12.7.96 23.34-3.08 32.7-11.87 5.28-4.96 11.32-9.76 17.91-12.55 11.66-4.95 19.46-13.38 26.4-23.38 4.63-6.68 6.1-13.99 6-21.74-.08-5.91-3.26-10.28-8.93-11.93-4.4-1.28-9.25-2.69-13.63-2.1-23.74 3.2-47.39 6.77-69.15 18-7.91 4.08-16.45 7.17-25 9.73-21.78 6.53-44.01 10.43-66.9 9.66-3.47-.12-7.69-1.22-9.92 2.85-2.54 4.63.36 8.25 2.82 11.83.75 1.09 1.66 2.09 2.56 3.07 18.67 20.36 42.86 28.23 69.45 30.56 1.96.17 3.99-.21 5.97-.44 7.87-.88 15.74-1.8 23.61-2.7zM1175.47 1338.44c-1.14 29.39.31 58.91 5.73 87.54 4.72 24.95 4.35 49.6 4.46 74.48.09 22.94-.04 45.89-.46 68.83-.26 14.3.27 28.85-2.23 42.81-4.32 24.08-6.79 48.88-19.75 70.66-2.71 4.55-4.98 9.45-6.83 14.42-15.36 41.19-41.78 74.72-72.67 105.12-3.51 3.46-7.99 5.94-12.08 8.79-9.83 6.86-19.43 14.07-29.61 20.37-9.28 5.75-18.83 11.37-28.9 15.49-29.84 12.2-61.11 18.03-93.32 19.48-26.05 1.17-52.05 1.21-77.38-5.35-13.41-3.47-26.52-8.74-39.08-14.67-13.81-6.52-26.87-14.64-40.18-22.21-12.32-7.01-22.8-16.32-31.31-27.54-12.1-15.97-16.2-33.38-6.96-52.34 3.78-7.77 7.52-15.58 11.63-23.17 3.86-7.12 10.19-11.25 17.97-13.23 15.46-3.95 31.12-4.55 46.4-.16 6.78 1.94 13.47 5.9 18.88 10.49 9.62 8.17 18.33 17.42 27.25 26.39 17.26 17.36 37.68 27.88 62.23 30.87 23.11 2.82 46.12 6.51 69.11 10.21 11.05 1.78 21.87 1.1 32.75-.85 2.29-.41 4.66-1.33 6.87-1.05 2 .25 4.42 1.41 5.51 2.97.67.96-.29 3.9-1.41 5.14-6.35 6.96-14.32 10.44-23.83 10.83-19.34.79-38.45-.09-57.71-2.89-22.68-3.31-45.62-4.72-68.04-10.09-8.07-1.93-15.09-5.16-20.97-10.8-13.22-12.67-26.52-25.26-39.39-38.29-11.12-11.25-24.05-17.42-40.01-17.19-10.49.15-17.88 4.41-21.38 14.58-2.17 6.29-4.77 12.48-6.33 18.92-.9 3.71-.8 7.98.05 11.72 2.83 12.44 9.92 22.41 19.5 30.64 18.62 15.99 40.22 27.01 62.05 37.84 15.92 7.9 32.54 11.74 50.02 11.64 23.95-.13 47.91-.98 71.85-1.68 2.59-.08 5.21-.97 7.7-1.84 14.11-4.97 28.05-10.49 42.32-14.95 12.77-3.99 23.66-10.63 32.76-20.19 11.58-12.16 24.24-22.72 39.51-30.08 3.02-1.46 5.26-4.83 7.45-7.64 5.31-6.79 10.6-13.63 15.5-20.72 5.29-7.64 10.54-15.36 15.06-23.46 5.83-10.45 10.75-21.41 16.36-32 13.69-25.85 21.98-53.48 27.57-82.03.32-1.63 1.05-3.34.8-4.89-2.72-17.11 1.64-33.79 3.08-50.63 1.94-22.62 2.82-45.2-.49-67.72-1.57-10.69-.97-21.17.28-31.81.6-5.09-.47-10.43-1.14-15.61-.97-7.53-3.12-15.01-3.24-22.54-.31-19.64.21-39.29.38-58.93.03-3 .38-6.06-.11-8.98-3.29-19.7 1.03-39.13 1.99-58.67.11-2.22 1.06-4.52 2.07-6.56 1.89-3.79 4.84-6.6 9.37-6.22 4.79.41 7.9 3.28 9.08 7.98.56 2.25 1.2 4.56 1.21 6.85.11 13.97.06 27.95.06 41.92z"/>
    <path d="M1487.04 1928.09c-7.87.9-15.74 1.82-23.61 2.7-1.98.22-4.01.61-5.97.44-26.6-2.33-50.78-10.2-69.45-30.56-.9-.98-1.81-1.98-2.56-3.07-2.46-3.57-5.36-7.19-2.82-11.83 2.23-4.07 6.45-2.96 9.92-2.85 22.89.77 45.12-3.12 66.9-9.66 8.55-2.56 17.09-5.65 25-9.73 21.76-11.23 45.41-14.8 69.15-18 4.39-.59 9.23.82 13.63 2.1 5.68 1.65 8.86 6.02 8.93 11.93.1 7.75-1.37 15.06-6 21.74-6.94 10-14.73 18.44-26.4 23.38-6.58 2.79-12.62 7.59-17.91 12.55-9.36 8.79-20 12.83-32.7 11.87-1.99-.15-4-.02-6-.02l-.12-1z"
          fill="transparent"/>
</svg>