<svg xmlns="http://www.w3.org/2000/svg" width="2351" height="2351">
    <path d="M0 2351V0h2351v2351H0zm1640.36-605.84c.03.37.05.75.08 1.12 6.66 0 13.33-.11 19.99.03 8.98.18 18.04-.09 26.92.99 14.66 1.79 22.38 10.17 24.42 24.64 1.44 10.22-.59 19.86-4.75 29.08-5.5 12.19-13.42 16.87-26.97 16.16-12.96-.68-25.9-1.64-38.85-2.34-34.9-1.88-69.79-3.28-104.74-.33-20.4 1.72-40.63 5.42-61.4 3.13-13.82-1.52-27.95-.25-41.94-.3-11.16-.04-21.82-2.66-31.91-7.19-10.97-4.92-18.62-13.07-20.17-25.4-.86-6.84-1.01-13.89-.47-20.77 1-12.87 7.48-24 12.34-35.65 8.57-20.55 17.92-40.9 24.7-62.05 9.32-29.06 1.14-54.18-21.14-75.19-21.87-20.63-44.59-39.86-71.13-54.5-15.02-8.29-26.99-20.53-35.58-35.67-10.04-17.71-12.43-36.71-10.84-56.82 2.45-30.98 11.88-59.23 30.25-84.36 8.84-12.1 17.96-24 26.81-36.09 2.94-4.02 5.86-8.15 8.04-12.6 3.78-7.73-.09-14.29-8.64-14.65-8.46-.36-16.98.55-23.23 7-8.54 8.81-17.36 17.54-24.6 27.37-17.9 24.34-29.18 52.22-40.36 80.03-2.81 6.98-4.43 14.63-5.35 22.13-1.62 13.19-1.77 26.57-3.46 39.75-3.12 24.34 4.13 44.03 24.58 58.16 21.36 14.77 42.98 29.16 64.29 44 10.09 7.03 20.16 14.22 29.46 22.24 12.22 10.53 20.13 23.96 21.8 40.31 1.51 14.79-3.01 28.36-10.18 41.01-16.17 28.49-24.03 59.81-31.01 91.34-4.78 21.57 2.98 38.44 21.65 50.39 15.55 9.95 32.33 17.22 50.4 21.06 25.88 5.49 52.28 5.96 78.52 5.72 26.59-.24 53.14-3.17 79.74-4 30.58-.96 61.26-2.26 91.78-.86 22.12 1.02 43.84.62 65.63-2.73 7.44-1.14 13.37-4.82 16.86-11.22 12.59-23.08 17.41-47.29 9.42-73.12-3.81-12.3-11.44-20.93-23.66-25.13-25.64-8.8-51.85-14.98-79.14-14.52-18.96.32-37.92 1.21-56.85 2.36-16.22.98-32.57 1.45-47.73 8.79-3.79 1.83-8.34 2.19-12.6 2.92-21.52 3.7-43.18 1.63-64.8 1.58-5.99-.01-11.98-.34-17.96-.14-4.53.15-8.89 1.81-10.4 6.41-1.69 5.17 1.27 9.53 5.5 11.7 6.43 3.3 13.24 6.29 20.24 7.9 9.04 2.08 18.4 2.89 27.66 3.89 28.11 3.02 55.81 1.86 82.61-8.4 4.01-1.54 8.27-2.93 12.51-3.29 17.87-1.52 35.78-2.61 53.67-3.87zm-987.11 37.19c5.2-9.59 13.56-12.83 22.5-14.61 28.71-5.72 57.43-11.41 86.25-16.57 23.93-4.29 48-7.77 70.09-18.82 10.41-5.21 20.85-10.38 31.29-15.54 7.32-3.62 13.32-8.76 17.92-15.5 14.27-20.89 28.97-41.51 42.67-62.76 24.96-38.71 42.33-80.56 50.77-126.04 2.29-12.37 4.53-25.03 9.12-36.64 19.7-49.94 44.48-97.44 71.53-143.76 14.31-24.5 30.51-47.63 50.12-68.29 7.17-7.55 7.93-13.34 3.57-18.5-4.84-5.73-15.99-6.66-22.95-1.83-1.36.94-2.66 2.04-3.76 3.27-6.88 7.65-14.08 15.06-20.42 23.14-6.15 7.84-11.33 16.44-17.04 24.63-31.6 45.43-61.52 91.86-83.19 143.03-4.77 11.26-10.03 22.92-11.51 34.84-2.98 24.06-9.18 46.92-18.42 69.17-7.41 17.82-15.32 35.49-21.45 53.75-3.94 11.73-9.76 21.42-18.05 30.45-12.8 13.95-25.41 28.13-32.85 46.13-2.02 4.88-6.6 9.45-11.14 12.38-10.86 7.01-21.87 14.25-33.75 19.13-42.36 17.41-86.52 28.52-132.02 33.77-24.46 2.82-45.05 13.18-63.44 28.94-9.36 8.03-11.22 22.2.13 31.02 8.14 6.33 15.73 13.39 24.07 19.44 12.85 9.33 27.12 15.71 43.21 16.6 10.26.57 20.58.3 30.86.21 36.14-.32 70.32-9.02 103.52-23.05 25.62-10.82 52.53-17.32 80.56-16.72 11.23.24 22.44 2.52 33.59 4.25 8.27 1.28 15.96.31 22.92-4.38 6.62-4.46 6.99-14.01-.13-16.99-17.86-7.5-35.75-15.31-55.58-14.28-36.7 1.9-72.61 7.93-107.32 20.86-18.65 6.95-37.91 12.4-57.16 17.54-16.52 4.41-33.53 5.29-50.54 2.63-14-2.19-26-7.8-33.97-20.89z"
          fill="transparent"/>
    <path d="M1640.36 1745.16c-17.89 1.25-35.8 2.35-53.67 3.87-4.24.36-8.5 1.76-12.51 3.29-26.8 10.26-54.5 11.42-82.61 8.4-9.26-1-18.62-1.8-27.66-3.89-7-1.61-13.82-4.6-20.24-7.9-4.24-2.17-7.19-6.53-5.5-11.7 1.5-4.61 5.86-6.26 10.4-6.41 5.98-.2 11.97.13 17.96.14 21.61.05 43.28 2.12 64.8-1.58 4.25-.73 8.81-1.09 12.6-2.92 15.16-7.34 31.51-7.81 47.73-8.79 18.93-1.15 37.89-2.04 56.85-2.36 27.29-.46 53.5 5.72 79.14 14.52 12.22 4.2 19.85 12.83 23.66 25.13 8 25.83 3.17 50.04-9.42 73.12-3.49 6.4-9.41 10.07-16.86 11.22-21.79 3.35-43.51 3.75-65.63 2.73-30.52-1.41-61.19-.1-91.78.86-26.6.83-53.15 3.76-79.74 4-26.24.24-52.64-.23-78.52-5.72-18.07-3.83-34.85-11.11-50.4-21.06-18.67-11.95-26.43-28.82-21.65-50.39 6.98-31.52 14.84-62.84 31.01-91.34 7.17-12.64 11.69-26.21 10.18-41.01-1.67-16.35-9.58-29.78-21.8-40.31-9.3-8.02-19.37-15.21-29.46-22.24-21.31-14.84-42.93-29.24-64.29-44-20.44-14.13-27.69-33.82-24.58-58.16 1.69-13.18 1.83-26.56 3.46-39.75.92-7.5 2.55-15.15 5.35-22.13 11.18-27.8 22.46-55.69 40.36-80.03 7.24-9.84 16.06-18.57 24.6-27.37 6.25-6.45 14.77-7.36 23.23-7 8.55.36 12.43 6.91 8.64 14.65-2.18 4.45-5.1 8.58-8.04 12.6-8.85 12.09-17.96 24-26.81 36.09-18.37 25.13-27.8 53.38-30.25 84.36-1.59 20.11.8 39.11 10.84 56.82 8.59 15.14 20.57 27.39 35.58 35.67 26.54 14.65 49.26 33.87 71.13 54.5 22.27 21.01 30.46 46.12 21.14 75.19-6.78 21.15-16.13 41.5-24.7 62.05-4.86 11.66-11.34 22.78-12.34 35.65-.54 6.88-.39 13.93.47 20.77 1.55 12.33 9.2 20.47 20.17 25.4 10.09 4.53 20.75 7.15 31.91 7.19 13.99.05 28.12-1.22 41.94.3 20.78 2.29 41-1.41 61.4-3.13 34.95-2.95 69.83-1.55 104.74.33 12.96.7 25.9 1.66 38.85 2.34 13.55.71 21.47-3.96 26.97-16.16 4.16-9.22 6.19-18.86 4.75-29.08-2.04-14.47-9.77-22.85-24.42-24.64-8.88-1.08-17.94-.81-26.92-.99-6.66-.14-13.32-.03-19.99-.03-.03-.37-.05-.75-.08-1.12zM653.24 1782.35c7.97 13.09 19.97 18.7 33.97 20.89 17.01 2.66 34.02 1.78 50.54-2.63 19.25-5.14 38.51-10.6 57.16-17.54 34.71-12.93 70.62-18.96 107.32-20.86 19.83-1.03 37.71 6.79 55.58 14.28 7.12 2.99 6.75 12.53.13 16.99-6.96 4.69-14.65 5.66-22.92 4.38-11.16-1.73-22.37-4.01-33.59-4.25-28.02-.6-54.94 5.9-80.56 16.72-33.2 14.03-67.38 22.73-103.52 23.05-10.29.09-20.6.36-30.86-.21-16.08-.89-30.36-7.27-43.21-16.6-8.34-6.05-15.92-13.11-24.07-19.44-11.35-8.82-9.5-23-.13-31.02 18.39-15.76 38.98-26.12 63.44-28.94 45.49-5.25 89.65-16.36 132.02-33.77 11.88-4.88 22.9-12.12 33.75-19.13 4.55-2.94 9.13-7.5 11.14-12.38 7.44-18.01 20.05-32.19 32.85-46.13 8.29-9.03 14.12-18.72 18.05-30.45 6.13-18.26 14.04-35.93 21.45-53.75 9.25-22.25 15.45-45.11 18.42-69.17 1.47-11.92 6.74-23.58 11.51-34.84 21.67-51.17 51.59-97.6 83.19-143.03 5.7-8.2 10.89-16.79 17.04-24.63 6.34-8.08 13.54-15.49 20.42-23.14 1.1-1.23 2.4-2.33 3.76-3.27 6.97-4.83 18.11-3.9 22.95 1.83 4.36 5.17 3.6 10.95-3.57 18.5-19.61 20.66-35.81 43.79-50.12 68.29-27.05 46.32-51.83 93.82-71.53 143.76-4.58 11.61-6.82 24.27-9.12 36.64-8.44 45.47-25.81 87.33-50.77 126.04-13.7 21.26-28.41 41.87-42.67 62.76-4.6 6.74-10.6 11.88-17.92 15.5-10.44 5.16-20.88 10.32-31.29 15.54-22.09 11.06-46.16 14.53-70.09 18.82-28.81 5.17-57.54 10.86-86.25 16.57-8.93 1.78-17.3 5.01-22.5 14.61z"/>
</svg>