<svg xmlns="http://www.w3.org/2000/svg" width="2351" height="2351">
    <path d="M0 2351V0h2351v2351H0zm1062.23-1081.03c-.17-3.81-.05-6.18-.44-8.46-.85-5.02-3.75-8.65-8.77-9.7-4.56-.96-8.71.64-11.34 4.61-6.26 9.45-11.93 19.14-14.21 30.54-3.86 19.34-10.74 37.66-19.17 55.47-7.69 16.24-15.21 32.59-17.18 50.79-3.88 35.74-7.79 71.49-11.69 107.23-2.09 19.19-2.87 38.64-6.68 57.49-3.46 17.1-5.28 34.08-5.63 51.42-.35 17.31-1.09 34.62-2.11 51.91-1.09 18.5-8.6 27.05-26.6 31.09-16.88 3.78-33.8 7.4-50.69 11.13-29.91 6.61-59.79 13.25-87.13 28-3.96 2.13-8.87 2.95-13.43 3.43-17.45 1.83-33.8 7.07-49.47 14.75-3.88 1.9-7.7 4.21-11.82 5.26-17.08 4.36-34.23 8.5-51.43 12.38-24.07 5.43-48.05 10.96-69.26 24.5-2.45 1.56-5.5 2.7-8.38 2.99-15.78 1.58-30.45 6.99-45.03 12.68-21.55 8.41-42.12 7.67-62.1-4.87-24-15.06-49.55-27.18-75.74-37.85-16.3-6.64-32.88-12.6-49.5-18.42-10.31-3.61-17.82 2.44-17.5 13.4.26 8.98 4.5 14.14 14.72 15.89 25.81 4.41 48.67 15.71 70.25 29.77 21.18 13.79 42.16 27.82 64.69 39.42 10.63 5.47 21.27 7.34 32.77 4.39 32.21-8.26 64.81-14.84 96.39-25.68 30.82-10.58 62.19-19.56 93.28-29.36 64.74-20.41 129.37-41.18 194.23-61.2 23.26-7.18 47.05-12.38 71.8-8.02 9.72 1.71 11.53.51 13.98-8.81.92-3.51 1.2-7.23 1.37-10.87.38-8.31.45-16.63.75-24.94 1.02-28.29 1.19-56.65 3.34-84.85 3.73-49.13 8.31-98.2 13.26-147.23 3.55-35.17 10.73-69.7 21.82-103.35 6.98-21.16 13.72-42.4 20.38-63.66 1.28-4.09 1.73-8.43 2.29-11.26zm272.27 473.35c-.15 0-.29.01-.44.02.53 13.63.84 27.27 1.64 40.89.85 14.39 8.09 24.31 21.89 29.13 2.2.77 4.37 1.64 6.61 2.24 39.84 10.62 79.55 21.76 119.58 31.59 27.44 6.74 55.56 10.71 82.98 17.54 52.57 13.1 105.85 19.9 159.89 22.28 25.44 1.12 46.2-6.47 62.7-26.22 8.74-10.45 18.7-19.88 28-29.87 14.27-15.34 28.63-30.59 42.47-46.31 2.57-2.92 3.9-7.82 4-11.86.2-7.77-3.98-9.96-11.11-6.38-2.94 1.47-5.8 3.36-8.19 5.6-8.73 8.17-17.29 16.54-25.85 24.89-15.71 15.31-31.34 30.72-47.12 45.97-5.07 4.9-10.79 8.86-17.99 10.18-28.62 5.27-57.23 9.6-85.98.78-1.26-.39-2.63-.43-3.94-.63-29.92-4.65-59.88-9.07-89.75-14.03-19.69-3.27-39.22-7.46-58.88-10.92-9.8-1.73-20.01-1.72-29.54-4.32-23.1-6.3-45.79-14.13-68.89-20.44-15.54-4.25-26.33-13.54-34.31-26.96-9.67-16.25-12.47-34.19-13.19-52.67-1.47-37.96-3.66-75.89-13.37-112.82-13.87-52.75-18.7-106.73-22.15-160.84-2.08-32.55-2.72-65.21-3-97.83-.16-18.91 1.57-37.85 2.65-56.76.5-8.64 1.9-17.23 2.17-25.87.32-10.16-7.58-15.51-16.68-11.2-14.36 6.8-24.4 17.24-25.81 34.02-.45 5.3-1.24 10.62-1.1 15.92.45 16.96.95 33.94 2 50.87 2.11 33.88 4.82 67.72 6.76 101.61.45 7.87-.18 16.12-2.11 23.73-1.84 7.23-1.4 13.61.93 20.41 7.48 21.82 11.85 44.36 14.13 67.26 2.5 25.18 5.29 50.2 11.77 74.82 3.61 13.73 5.06 28.14 6.32 42.34 1.59 17.89 1.98 35.89 2.89 53.85zm792.77-142.97c1.04-1.8 1.87-2.65 1.93-3.56.04-.58-1.27-1.85-1.61-1.74-1.03.34-1.88 1.21-2.8 1.88.61.85 1.23 1.69 2.48 3.42z"
          fill="transparent"/>
    <path d="M1062.23 1269.97c-.56 2.83-1.01 7.18-2.29 11.26-6.67 21.26-13.41 42.5-20.38 63.66-11.1 33.66-18.27 68.18-21.82 103.35-4.95 49.02-9.53 98.1-13.26 147.23-2.14 28.21-2.31 56.56-3.34 84.85-.3 8.31-.37 16.63-.75 24.94-.17 3.64-.45 7.37-1.37 10.87-2.45 9.32-4.26 10.52-13.98 8.81-24.74-4.36-48.54.84-71.8 8.02-64.86 20.02-129.49 40.79-194.23 61.2-31.09 9.8-62.46 18.78-93.28 29.36-31.57 10.84-64.18 17.43-96.39 25.68-11.49 2.95-22.13 1.08-32.77-4.39-22.54-11.6-43.52-25.62-64.69-39.42-21.59-14.06-44.45-25.36-70.25-29.77-10.22-1.74-14.46-6.91-14.72-15.89-.32-10.96 7.19-17.02 17.5-13.4 16.61 5.82 33.2 11.78 49.5 18.42 26.19 10.67 51.74 22.79 75.74 37.85 19.98 12.54 40.55 13.28 62.1 4.87 14.57-5.69 29.25-11.11 45.03-12.68 2.88-.29 5.93-1.43 8.38-2.99 21.21-13.54 45.19-19.07 69.26-24.5 17.2-3.88 34.35-8.02 51.43-12.38 4.12-1.05 7.94-3.36 11.82-5.26 15.67-7.68 32.03-12.92 49.47-14.75 4.57-.48 9.48-1.3 13.43-3.43 27.34-14.75 57.22-21.39 87.13-28 16.89-3.73 33.81-7.35 50.69-11.13 18-4.03 25.51-12.59 26.6-31.09 1.02-17.29 1.76-34.6 2.11-51.91.35-17.34 2.17-34.32 5.63-51.42 3.81-18.84 4.58-38.3 6.68-57.49 3.9-35.74 7.81-71.48 11.69-107.23 1.98-18.2 9.5-34.55 17.18-50.79 8.43-17.81 15.31-36.13 19.17-55.47 2.27-11.4 7.95-21.09 14.21-30.54 2.63-3.97 6.78-5.57 11.34-4.61 5.02 1.06 7.92 4.68 8.77 9.7.39 2.28.26 4.65.44 8.46zM1334.5 1743.32c-.91-17.95-1.31-35.95-2.89-53.85-1.26-14.21-2.71-28.61-6.32-42.34-6.47-24.62-9.26-49.64-11.77-74.82-2.28-22.9-6.65-45.43-14.13-67.26-2.33-6.8-2.77-13.18-.93-20.41 1.94-7.61 2.56-15.86 2.11-23.73-1.95-33.89-4.66-67.73-6.76-101.61-1.05-16.93-1.55-33.91-2-50.87-.14-5.29.65-10.61 1.1-15.92 1.42-16.78 11.46-27.22 25.81-34.02 9.1-4.31 16.99 1.04 16.68 11.2-.27 8.64-1.67 17.23-2.17 25.87-1.09 18.91-2.82 37.85-2.65 56.76.28 32.62.92 65.29 3 97.83 3.46 54.11 8.29 108.09 22.15 160.84 9.71 36.93 11.89 74.86 13.37 112.82.72 18.48 3.52 36.42 13.19 52.67 7.98 13.42 18.78 22.71 34.31 26.96 23.1 6.31 45.78 14.14 68.89 20.44 9.53 2.6 19.74 2.59 29.54 4.32 19.66 3.47 39.19 7.66 58.88 10.92 29.87 4.96 59.83 9.38 89.75 14.03 1.32.2 2.68.24 3.94.63 28.75 8.82 57.36 4.5 85.98-.78 7.2-1.33 12.92-5.29 17.99-10.18 15.78-15.24 31.4-30.65 47.12-45.97 8.57-8.35 17.12-16.72 25.85-24.89 2.39-2.24 5.26-4.13 8.19-5.6 7.13-3.58 11.31-1.39 11.11 6.38-.1 4.03-1.43 8.93-4 11.86-13.84 15.72-28.2 30.97-42.47 46.31-9.3 10-19.26 19.42-28 29.87-16.51 19.74-37.26 27.34-62.7 26.22-54.04-2.38-107.32-9.18-159.89-22.28-27.41-6.83-55.54-10.8-82.98-17.54-40.03-9.83-79.74-20.97-119.58-31.59-2.24-.6-4.41-1.47-6.61-2.24-13.8-4.82-21.04-14.74-21.89-29.13-.81-13.61-1.12-27.26-1.64-40.89.15 0 .29-.01.44-.02zM2127.27 1600.35c-1.25-1.72-1.87-2.57-2.48-3.42.92-.66 1.77-1.54 2.8-1.88.35-.11 1.65 1.16 1.61 1.74-.06.91-.89 1.76-1.93 3.56z"/>
</svg>