<svg xmlns="http://www.w3.org/2000/svg" width="2351" height="2351">
    <path d="M0 0h2351v2351H0V0zm561.24 2121.36c39.34.35 73.2-1.96 106.93-6.1 10.31-1.27 15.35-6.1 15.51-16.21.28-17.29.41-34.67-1.01-51.88-2.34-28.49-5.74-56.91-9.12-85.31-2.83-23.76-5.81-47.51-9.59-71.13-2.52-15.74-7.16-31.13-9.8-46.85-6.79-40.33-12.9-80.78-19.46-121.16-5.93-36.49-9.78-73.15-10.55-110.15-.23-11.28-.8-22.73-3.02-33.74-4.24-21.01 2.91-36.42 20.24-47.99 14.68-9.8 29.51-19.39 43.83-29.7 12.13-8.74 23.57-18.46 35.42-27.59 4.43-3.42 9.05-6.66 13.84-9.54 7.96-4.79 16.28-8.98 24.19-13.84 15.28-9.41 30.01-19.78 45.67-28.48 13.05-7.25 27.65-11.73 40.59-19.15 18.73-10.73 36.89-22.55 54.75-34.7 47.09-32 93.92-64.39 140.77-96.76 4.34-3 8.71-6.39 11.91-10.5 7.7-9.88 3.64-20.61-8.45-23.89-6.68-1.81-12.68.38-17.99 3.84-10.87 7.08-21.57 14.45-32.02 22.14-36.76 27.06-74.15 53.08-114.09 75.37-24.68 13.77-48.8 28.57-72.95 43.27-16.77 10.2-33.05 21.14-52.1 27.08-6.82 2.13-13.55 5.54-19.37 9.7-27.09 19.37-53.71 39.39-80.79 58.76-7.22 5.17-15.56 8.76-23.29 13.25-5.44 3.16-11.74 5.68-15.86 10.15-10.11 10.97-19.38 22.75-28.53 34.55-2.1 2.7-2.76 6.73-3.44 10.27-2.69 13.96.48 27.8 1.42 41.66 1.19 17.58 3.38 35.09 4.51 52.67 1.22 18.92 1.3 37.91 2.69 56.82.9 12.23 2.77 24.45 5.02 36.52 5.62 30.08 12.12 60 17.46 90.12 3.77 21.27 5.99 42.81 9.37 64.15 2.23 14.12 6.34 28 7.77 42.18 3.7 36.71 6.37 73.53 9.46 110.3.72 8.62 1.77 17.22 2.16 25.86.38 8.35-1.51 10.58-9.85 11.84-6.88 1.04-13.88 1.99-20.81 1.94-24.66-.19-49.23.79-73.8 3.15-21.19 2.04-42.46 1.91-63.73-.81-9.46-1.21-19.26-.96-28.79-.12-10.11.89-14.16 8.51-10.51 17.96 5.28 13.67 16.31 18.7 29.94 19.16 33.6 1.14 67.21 2.06 95.48 2.9zm768.92-854.85c-.84-4.13-1.48-11.48-3.95-18.16-2.23-6.04-8.26-8.83-14.58-8.69-6.48.15-8.48 5.71-9.98 10.88-1.66 5.74-3.3 11.56-4.15 17.46-4.11 28.61-8.16 57.24-11.77 85.92-1.28 10.18-2.06 20.56-1.7 30.8.68 19.26 2.65 38.47 3.54 57.73.91 19.6.11 39.32 1.98 58.81 2.3 24.03 13.28 43.86 34.55 56.69 40.94 24.7 73.47 58.06 100.7 96.96 15.46 22.09 31.01 44.13 46.4 66.27 4.17 6.01 8.36 12.08 11.76 18.54 13.4 25.48 33.73 43.1 59.53 55.44 18.86 9.02 39.22 16.01 55.1 29.94 23.12 20.28 48.7 36.79 74.04 53.97 41.69 28.28 77.71 63.75 114.6 97.81 22.57 20.84 45.12 41.1 71.19 57.55 15.7 9.91 30.19 21.76 44.95 33.1 4.74 3.64 9.6 5.85 15.5 5.71 3.99-.1 7.98-.28 11.96-.56 41.26-2.85 81.77-10.79 122.27-18.64 11.06-2.14 21.95-5.29 32.84-8.24 6.11-1.66 9.57-6.39 10.19-12.32.68-6.45-2.51-11.62-8.31-14.74-2.9-1.56-6.05-2.71-9.15-3.87-10.32-3.84-20.4-.68-30.48 1.25-28.73 5.51-57.04 13.25-86.38 15.49-10.54.8-21 2.74-31.51 3.98-1.89.22-3.99-.06-5.8-.67-4.71-1.61-9.73-2.88-13.89-5.47-12.39-7.73-25-15.29-36.49-24.23-42.25-32.88-85.55-64.48-123.45-102.71-15.91-16.05-33.56-30.37-50.56-45.32-2.68-2.35-5.97-5.23-9.19-5.53-13.97-1.29-23.95-9.15-33.32-18.44-20.84-20.68-44.83-37.02-72.26-47.12-29.34-10.8-51.88-28.98-69.38-54.51-18.83-27.45-38.15-54.58-57.63-81.57-23.33-32.32-50.25-61.2-82.89-84.48-9.48-6.76-18.77-13.86-27.57-21.47-19.6-16.96-26.42-38.54-24.75-64.34 1.5-23.16.16-46.5.18-69.76.03-24.94-.71-49.92.56-74.8 1.12-21.87 4.55-43.62 7.32-68.69z"
          fill="transparent"/>
    <path d="M561.24 2121.36c-28.27-.85-61.88-1.77-95.48-2.9-13.64-.46-24.66-5.49-29.94-19.16-3.65-9.44.4-17.07 10.51-17.96 9.53-.83 19.33-1.09 28.79.12 21.27 2.72 42.53 2.85 63.73.81 24.58-2.37 49.14-3.34 73.8-3.15 6.94.05 13.93-.89 20.81-1.94 8.35-1.26 10.23-3.49 9.85-11.84-.39-8.63-1.44-17.24-2.16-25.86-3.09-36.77-5.77-73.59-9.46-110.3-1.43-14.17-5.53-28.06-7.77-42.18-3.38-21.35-5.6-42.88-9.37-64.15-5.34-30.12-11.84-60.04-17.46-90.12-2.25-12.07-4.13-24.28-5.02-36.52-1.38-18.9-1.47-37.9-2.69-56.82-1.14-17.58-3.33-35.09-4.51-52.67-.93-13.86-4.1-27.7-1.42-41.66.68-3.54 1.35-7.57 3.44-10.27 9.16-11.8 18.42-23.58 28.53-34.55 4.12-4.46 10.41-6.98 15.86-10.15 7.72-4.49 16.06-8.08 23.29-13.25 27.09-19.37 53.71-39.39 80.79-58.76 5.82-4.16 12.55-7.57 19.37-9.7 19.06-5.94 35.33-16.87 52.1-27.08 24.15-14.69 48.27-29.49 72.95-43.27 39.94-22.29 77.34-48.31 114.09-75.37a669.645 669.645 0 0132.02-22.14c5.31-3.46 11.31-5.66 17.99-3.84 12.09 3.28 16.15 14.01 8.45 23.89-3.2 4.11-7.57 7.51-11.91 10.5-46.84 32.36-93.67 64.75-140.77 96.76-17.87 12.14-36.02 23.97-54.75 34.7-12.94 7.41-27.54 11.9-40.59 19.15-15.66 8.7-30.39 19.08-45.67 28.48-7.91 4.87-16.23 9.06-24.19 13.84-4.8 2.88-9.41 6.13-13.84 9.54-11.86 9.13-23.29 18.85-35.42 27.59-14.31 10.31-29.15 19.9-43.83 29.7-17.33 11.57-24.48 26.98-20.24 47.99 2.22 11.01 2.79 22.47 3.02 33.74.77 37 4.62 73.66 10.55 110.15 6.56 40.37 12.68 80.82 19.46 121.16 2.65 15.72 7.28 31.12 9.8 46.85 3.78 23.62 6.76 47.37 9.59 71.13 3.38 28.4 6.78 56.81 9.12 85.31 1.42 17.21 1.28 34.59 1.01 51.88-.16 10.1-5.2 14.94-15.51 16.21-33.73 4.14-67.59 6.45-106.93 6.1zM1330.16 1266.51c-2.77 25.06-6.2 46.82-7.32 68.69-1.27 24.88-.53 49.86-.56 74.8-.02 23.26 1.32 46.6-.18 69.76-1.67 25.8 5.15 47.38 24.75 64.34 8.8 7.61 18.1 14.71 27.57 21.47 32.64 23.28 59.56 52.16 82.89 84.48 19.49 26.99 38.81 54.12 57.63 81.57 17.51 25.53 40.04 43.71 69.38 54.51 27.43 10.1 51.42 26.44 72.26 47.12 9.37 9.29 19.35 17.15 33.32 18.44 3.22.3 6.52 3.18 9.19 5.53 17 14.95 34.65 29.28 50.56 45.32 37.9 38.22 81.19 69.82 123.45 102.71 11.49 8.95 24.1 16.51 36.49 24.23 4.16 2.59 9.17 3.86 13.89 5.47 1.81.62 3.91.9 5.8.67 10.51-1.25 20.97-3.18 31.51-3.98 29.34-2.24 57.65-9.98 86.38-15.49 10.08-1.93 20.16-5.09 30.48-1.25 3.1 1.15 6.25 2.3 9.15 3.87 5.79 3.12 8.99 8.29 8.31 14.74-.62 5.93-4.08 10.66-10.19 12.32-10.89 2.95-21.78 6.09-32.84 8.24-40.5 7.85-81 15.78-122.27 18.64-3.98.28-7.97.46-11.96.56-5.9.14-10.76-2.07-15.5-5.71-14.76-11.34-29.25-23.2-44.95-33.1-26.07-16.45-48.62-36.71-71.19-57.55-36.89-34.06-72.91-69.53-114.6-97.81-25.34-17.19-50.92-33.69-74.04-53.97-15.88-13.93-36.24-20.92-55.1-29.94-25.8-12.34-46.13-29.96-59.53-55.44-3.4-6.46-7.58-12.53-11.76-18.54-15.39-22.14-30.93-44.18-46.4-66.27-27.23-38.9-59.76-72.25-100.7-96.96-21.27-12.84-32.25-32.67-34.55-56.69-1.86-19.49-1.07-39.21-1.98-58.81-.89-19.26-2.86-38.47-3.54-57.73-.36-10.24.41-20.61 1.7-30.8 3.61-28.68 7.66-57.31 11.77-85.92.85-5.9 2.49-11.72 4.15-17.46 1.5-5.17 3.5-10.73 9.98-10.88 6.32-.15 12.36 2.64 14.58 8.69 2.46 6.68 3.11 14.03 3.95 18.16z"/>
</svg>