<svg xmlns="http://www.w3.org/2000/svg" width="2351" height="2351">
    <path d="M0 0h2351v2351H0V0zm866.18 1602.39c-9.24 1-19.53 1.78-29.69 3.38-3.78.59-7.51 2.7-10.84 4.8-6.52 4.13-8.1 9.09-5.15 16.24 3.42 8.29 6.64 16.78 11.15 24.49 5.9 10.1 14.86 18.14 26.62 19.19 15.5 1.38 31.22.31 46.84.28 7.59-.01 15.2-.49 22.75 0 25.84 1.66 47.31-7.34 56.04-31.77 7.5-20.98 13.16-42.55 16-64.74 1.77-13.83 3.14-27.63 7.52-41.07 4.8-14.7 6.34-29.86 2.34-45.23-.82-3.14-.67-6.63-.46-9.93 1.35-21.21 3.4-42.39 4.16-63.62 1.17-32.44 13.09-61.51 26.89-90.03 2.87-5.92 6.71-11.63 11.14-16.49 8.49-9.31 17.58-18.1 26.69-26.82 7.78-7.44 7.11-14.6-2.24-19.76-2.89-1.59-5.99-2.97-8.5-5.05-26.42-21.84-52.72-43.83-79.11-65.69-1.73-1.43-3.93-3.06-5.99-3.18-11.24-.65-22.75-2.52-33.71-.89-29.28 4.35-53.06 28.76-58.93 59.05-2.72 14.03-4.15 28.3-6.76 42.35-3.78 20.38 3.27 38.52 11.04 56.5 1.67 3.85 3.56 7.11.84 11.07-7.73 11.28-10.04 24.3-12.83 37.38-5.03 23.6-1.23 46.14 5.9 68.53 2.01 6.3 3.97 12.61 5.91 18.94 1.43 4.67 2.07 9.74 4.29 13.98 7.42 14.15 11.19 29.06 11.27 45 .04 6.98.68 13.97.64 20.95-.04 7.92-.14 15.89-1.06 23.74-.34 2.92-2.56 6.11-4.82 8.23-10.42 9.79-22.89 13.07-37.97 10.14zm566.76 59.96c.02.31.04.63.07.94 6.99 0 13.99-.1 20.98.02 11.27.21 19.88-4.46 26.12-13.75 6.26-9.31 9.66-19.69 11.01-30.71 4.94-40.4-25.68-68.09-60.08-63.88-5.16.63-10.63-.23-15.83-1.12-12.05-2.06-15.26-6.57-15.82-18.87-1.49-32.49 2.95-64.41 8.74-96.21 2.13-11.69 3.07-23.7 9.73-34.2 1.5-2.36 1.76-5.72 1.95-8.67.82-12.61 1.28-25.24 2.12-37.84.62-9.32 1.02-9.57 9.95-12.12 3.19-.91 6.51-1.55 9.51-2.88 6.49-2.87 13.05-6.59 15.69-13.26 5.35-13.55 10.05-27.41 14.11-41.41 2.57-8.87 3.63-18.2 5.09-27.37.44-2.79.81-6.15-.31-8.53-3.4-7.19-7.07-14.36-11.53-20.93-6.67-9.84-16.13-15.47-28.22-16.76-7.92-.84-15.73-2.77-23.64-3.7-4.85-.57-9.96-.96-14.69-.05-17.3 3.34-34.45 7.48-51.74 10.89-9.09 1.79-18.34 2.89-27.56 3.95-8.83 1.01-16.04 5.3-23.6 9.58-17.36 9.83-35.22 18.77-52.86 28.09-2.05 1.08-4.23 2.08-5.97 3.57-3.87 3.32-3.31 7.53 1.52 9.23 3.02 1.06 6.51.72 9.78 1.1 23.47 2.78 41.96 13.97 54.89 33.66 5.37 8.17 7.31 17.73 7.28 27.63-.04 13.94-1.11 27.98 4 41.49.75 1.98-.06 4.57-.2 6.87-.58 9.62-1.37 19.22-1.7 28.85-.42 11.98-.18 23.98-.74 35.95-.67 14.24-3.78 28.64-2.42 42.64 2.22 22.88-.89 45.15-3.58 67.54-1.41 11.76-.32 23.17 1.54 34.7 3.07 19.07 12.78 35.52 19.99 53 4.36 10.58 23.92 19.83 34.91 18.55 23.75-2.78 47.67-4.08 71.53-5.98z"
          fill="transparent"/>
    <path d="M866.18 1602.39c15.08 2.93 27.55-.36 37.97-10.14 2.26-2.12 4.47-5.31 4.82-8.23.92-7.85 1.01-15.82 1.06-23.74.04-6.98-.61-13.97-.64-20.95-.08-15.94-3.84-30.85-11.27-45-2.22-4.24-2.86-9.31-4.29-13.98-1.93-6.32-3.9-12.64-5.91-18.94-7.14-22.4-10.93-44.93-5.9-68.53 2.79-13.08 5.09-26.1 12.83-37.38 2.72-3.96.83-7.22-.84-11.07-7.78-17.98-14.82-36.12-11.04-56.5 2.61-14.05 4.04-28.32 6.76-42.35 5.87-30.29 29.65-54.69 58.93-59.05 10.96-1.63 22.47.24 33.71.89 2.06.12 4.26 1.75 5.99 3.18 26.4 21.87 52.7 43.85 79.11 65.69 2.51 2.08 5.61 3.46 8.5 5.05 9.35 5.16 10.02 12.31 2.24 19.76-9.11 8.72-18.2 17.5-26.69 26.82a69.836 69.836 0 00-11.14 16.49c-13.8 28.53-25.73 57.59-26.89 90.03-.76 21.23-2.81 42.41-4.16 63.62-.21 3.3-.36 6.79.46 9.93 4 15.37 2.46 30.53-2.34 45.23-4.39 13.43-5.76 27.24-7.52 41.07-2.84 22.19-8.5 43.76-16 64.74-8.73 24.43-30.2 33.43-56.04 31.77-7.55-.49-15.17-.01-22.75 0-15.62.03-31.34 1.1-46.84-.28-11.76-1.05-20.72-9.09-26.62-19.19-4.5-7.71-7.72-16.19-11.15-24.49-2.95-7.15-1.37-12.11 5.15-16.24 3.32-2.1 7.05-4.21 10.84-4.8 10.16-1.6 20.45-2.38 29.69-3.38zm196.07-337.79c-2.87-2.56-5.23-4.83-7.75-6.9-17.73-14.61-36.23-28.39-52.99-44.03-12.35-11.53-25.37-15.16-42.02-15.25-23.34-.14-51.14 17.16-55.85 46.23-1.65 10.17-4.05 20.21-5.77 30.37-3.3 19.48-1.12 38.41 6.4 56.68 2.97 7.22 8.4 10.99 16.38 10.58 10.28-.53 20.56-1.28 30.85-1.59 2.32-.07 6.23.79 6.67 2.12.76 2.32.31 6.25-1.29 7.87-2.65 2.69-6.4 4.79-10.06 5.89-6.66 2-13.57 3.24-20.42 4.52-11.47 2.14-18.28 9.07-20.78 20.2-1.52 6.8-2.8 13.7-3.5 20.63-2.18 21.82-1.09 43.23 8.91 63.39 1.17 2.35 2.08 5.03 2.26 7.63.98 13.56 6.55 25.61 11.43 38.02 3.24 8.23 5.28 17.14 6.45 25.93 1.44 10.83 1.28 21.86 2.06 32.79 1.16 16.24-1.23 30.72-17.74 38.86-1.48.73-2.77 1.85-4.17 2.73-11.29 7.12-23.09 10.84-36.89 8.95-8.01-1.09-16.47.52-24.66 1.46-4.32.5-7.04 3.64-7.73 8.06-1.71 10.77 8.24 24.54 19.33 25.29 10.24.69 20.8.99 30.85-.7 13.34-2.24 26.15-3.09 39.45.37 11.35 2.96 20.38-1.55 25.94-11.95 9.49-17.75 15.81-36.56 18.2-56.67 1.84-15.47 1.09-31.21 5.92-46.39 5.29-16.65 6.22-33.86 5.66-51.33-.6-18.59-1.36-37.34.4-55.79 1.76-18.49 5.61-36.75 5.48-55.49-.03-4.12 1.94-8.37 3.49-12.37 3.35-8.68 6.49-17.5 10.68-25.78 6.59-13 12.73-26.52 21.35-38.11 9.45-12.71 21.5-23.49 33.46-36.23z"
          fill="#060408"/>
    <path d="M1432.95 1662.34c-23.85 1.9-47.78 3.2-71.53 5.98-10.98 1.28-30.54-7.97-34.91-18.55-7.21-17.48-16.92-33.94-19.99-53-1.86-11.53-2.96-22.94-1.54-34.7 2.69-22.4 5.8-44.67 3.58-67.54-1.36-14 1.76-28.4 2.42-42.64.56-11.97.32-23.97.74-35.95.33-9.62 1.13-19.23 1.7-28.85.14-2.3.95-4.89.2-6.87-5.11-13.5-4.04-27.54-4-41.49.03-9.89-1.92-19.45-7.28-27.63-12.93-19.69-31.42-30.88-54.89-33.66-3.27-.39-6.77-.04-9.78-1.1-4.83-1.7-5.4-5.91-1.52-9.23 1.74-1.49 3.92-2.48 5.97-3.57 17.64-9.33 35.5-18.26 52.86-28.09 7.56-4.28 14.77-8.58 23.6-9.58 9.22-1.05 18.47-2.15 27.56-3.95 17.29-3.41 34.44-7.55 51.74-10.89 4.73-.91 9.84-.52 14.69.05 7.92.93 15.72 2.86 23.64 3.7 12.09 1.29 21.56 6.92 28.22 16.76 4.45 6.57 8.13 13.74 11.53 20.93 1.12 2.38.75 5.74.31 8.53-1.45 9.17-2.52 18.5-5.09 27.37-4.06 14-8.75 27.86-14.11 41.41-2.64 6.67-9.2 10.39-15.69 13.26-3.01 1.33-6.32 1.97-9.51 2.88-8.92 2.54-9.33 2.8-9.95 12.12-.84 12.61-1.3 25.24-2.12 37.84-.19 2.94-.45 6.3-1.95 8.67-6.66 10.5-7.6 22.51-9.73 34.2-5.79 31.8-10.23 63.72-8.74 96.21.56 12.3 3.78 16.81 15.82 18.87 5.2.89 10.67 1.75 15.83 1.12 34.4-4.21 65.02 23.49 60.08 63.88-1.35 11.02-4.75 21.4-11.01 30.71-6.24 9.29-14.85 13.96-26.12 13.75-6.99-.13-13.99-.02-20.98-.02-.02-.31-.04-.63-.07-.94zm-172.27-397.98c16.73 9.28 31.96 17.36 46.75 26.18 4.04 2.41 7.58 6.56 9.95 10.7 9.95 17.42 14.13 36.51 14.36 56.44.24 21.32.28 42.64-.02 63.96-.18 12.93-1.24 25.85-1.76 38.78-.21 5.28-1 10.82.2 15.83 2.25 9.33 1.53 18.46.69 27.76-1.4 15.54-2.5 31.11-3.67 46.68-.17 2.32.12 4.68-.13 6.99-3.17 28.79 4.37 54.94 18.02 80.13 6.34 11.7 14.95 15.05 26.99 13.34 2.31-.33 4.61-.88 6.92-.93 7.96-.17 15.93-.35 23.89-.19 13.3.27 26.61 1.2 39.9 1.02 4.79-.06 9.69-2.13 14.27-3.97 4.54-1.81 7.84-5.46 8.27-10.49.95-11.24 3.36-22.8 1.75-33.72-3.68-24.98-13.74-33.28-36.55-33.46-4.99-.04-10.02.19-14.98-.27-21.76-2.04-34.43-12.62-35.88-33.03-1.05-14.78.8-29.84 2.19-44.7.95-10.19 3.55-20.21 5.02-30.37 1.1-7.56 1.29-15.25 2.42-22.8 1.64-11.06 2.18-22.54 10.41-31.54 1.21-1.32 1.75-3.61 1.88-5.49.6-8.94.82-17.9 1.43-26.83 1.44-20.99-5.17-25.75-22.67-27.45-4.81-.47-9.97-1.48-12.29-7.06 2.9-6.84 8.12-10.36 14.87-12.32 8.85-2.57 17.7-1.87 26.72-1.27 8.18.54 16.48-.12 24.69-.78 4.88-.39 6.94-3.8 8.2-8.62 1.83-7.01 4.1-14.13 7.57-20.43 6.06-11 7.86-22.56 6.81-34.71-2.07-23.8-12.5-33.77-36.57-34.02-10.93-.11-22.04.58-32.77 2.55-26.48 4.85-52.61 11.9-79.91 10.43-.66-.04-1.39-.03-1.97.22-15.44 6.67-29.98 14.99-45.01 23.46z"
          fill="#060407"/>
    <path d="M1062.25 1264.6c-11.96 12.73-24.01 23.51-33.46 36.23-8.62 11.6-14.76 25.11-21.35 38.11-4.19 8.28-7.33 17.1-10.68 25.78-1.54 4-3.52 8.24-3.49 12.37.13 18.74-3.72 37-5.48 55.49-1.76 18.45-1 37.2-.4 55.79.56 17.46-.37 34.68-5.66 51.33-4.82 15.18-4.08 30.92-5.92 46.39-2.39 20.1-8.72 38.92-18.2 56.67-5.56 10.4-14.58 14.9-25.94 11.95-13.3-3.46-26.11-2.61-39.45-.37-10.05 1.69-20.61 1.39-30.85.7-11.09-.75-21.03-14.51-19.33-25.29.7-4.42 3.41-7.56 7.73-8.06 8.19-.95 16.64-2.56 24.66-1.46 13.8 1.88 25.61-1.83 36.89-8.95 1.41-.89 2.69-2 4.17-2.73 16.5-8.14 18.9-22.63 17.74-38.86-.78-10.93-.62-21.96-2.06-32.79-1.17-8.79-3.22-17.69-6.45-25.93-4.88-12.4-10.45-24.46-11.43-38.02-.19-2.59-1.1-5.28-2.26-7.63-10-20.16-11.1-41.57-8.91-63.39.69-6.93 1.97-13.83 3.5-20.63 2.49-11.13 9.31-18.06 20.78-20.2 6.86-1.28 13.76-2.52 20.42-4.52 3.66-1.1 7.41-3.2 10.06-5.89 1.6-1.63 2.05-5.55 1.29-7.87-.44-1.33-4.35-2.19-6.67-2.12-10.29.31-20.57 1.06-30.85 1.59-7.97.41-13.4-3.35-16.38-10.58-7.52-18.27-9.7-37.21-6.4-56.68 1.72-10.16 4.12-20.2 5.77-30.37 4.72-29.08 32.52-46.37 55.85-46.23 16.66.1 29.67 3.72 42.02 15.25 16.76 15.65 35.26 29.42 52.99 44.03 2.52 2.08 4.89 4.34 7.75 6.9zM1260.68 1264.37c15.03-8.46 29.56-16.79 45.01-23.46.58-.25 1.32-.26 1.97-.22 27.29 1.47 53.43-5.58 79.91-10.43 10.73-1.97 21.84-2.66 32.77-2.55 24.07.25 34.5 10.22 36.57 34.02 1.06 12.15-.75 23.71-6.81 34.71-3.47 6.31-5.74 13.42-7.57 20.43-1.26 4.82-3.31 8.23-8.2 8.62-8.21.65-16.51 1.32-24.69.78-9.03-.6-17.87-1.3-26.72 1.27-6.75 1.96-11.98 5.48-14.87 12.32 2.32 5.59 7.48 6.59 12.29 7.06 17.5 1.7 24.11 6.46 22.67 27.45-.61 8.93-.83 17.9-1.43 26.83-.13 1.89-.67 4.17-1.88 5.49-8.23 8.99-8.77 20.47-10.41 31.54-1.12 7.55-1.32 15.25-2.42 22.8-1.48 10.15-4.07 20.18-5.02 30.37-1.39 14.86-3.24 29.92-2.19 44.7 1.45 20.41 14.11 30.99 35.88 33.03 4.96.46 9.98.23 14.98.27 22.81.18 32.87 8.47 36.55 33.46 1.61 10.92-.8 22.48-1.75 33.72-.43 5.03-3.73 8.68-8.27 10.49-4.58 1.83-9.48 3.9-14.27 3.97-13.29.17-26.6-.75-39.9-1.02-7.96-.16-15.93.02-23.89.19-2.31.05-4.61.6-6.92.93-12.04 1.71-20.65-1.64-26.99-13.34-13.65-25.19-21.18-51.34-18.02-80.13.25-2.31-.04-4.67.13-6.99 1.17-15.56 2.27-31.13 3.67-46.68.84-9.3 1.56-18.43-.69-27.76-1.21-5-.41-10.54-.2-15.83.51-12.93 1.57-25.85 1.76-38.78.3-21.32.26-42.64.02-63.96-.22-19.92-4.41-39.02-14.36-56.44-2.37-4.15-5.91-8.3-9.95-10.7-14.79-8.81-30.02-16.89-46.75-26.18z"
          fill="#6c01fc"/>
</svg>