<svg xmlns="http://www.w3.org/2000/svg" width="2351" height="2351">
    <path d="M0 0h2351v2351H0V0zm888.31 1618.74c8.23 2.95 15.77 5.37 23.08 8.33 8.6 3.49 16.33 2.06 23.41-3.42 12.1-9.36 24.49-18.41 35.99-28.47 12.39-10.85 21.75-24.16 27.68-39.74 2.24-5.88 4.95-11.6 7.73-17.26 9.18-18.74 21.7-35.58 30.17-54.8 9.34-21.19 21.42-41.06 29.6-62.9 11.3-30.17 25.39-59.25 34-90.49 2.35-8.51 6.52-16.84 11.37-24.27 8.54-13.07 20.11-21.12 37.01-17.2 10.63 2.46 21.38 4.39 32.01 6.82 6.52 1.49 8.83.55 11.53-5.86.77-1.84 1.36-3.75 2.03-5.63 6.26-17.49 12.11-35.14 18.9-52.41 6.92-17.61 14.84-34.82 22.2-52.26 4.22-10 4.35-11.15-4.83-16.89-8.94-5.6-18.63-10.07-28.21-14.56-18.34-8.59-36.7-17.17-55.32-25.15-14.04-6.02-28.43-11.21-42.74-16.57-19.29-7.22-38.46-14.82-58.03-21.16-16.51-5.35-21.71-4.11-33.5 12.5-2.09 2.94-3.51 6.38-5.03 9.69-1.8 3.93-3.31 7.98-5.04 11.94-11.17 25.55-22.35 51.1-33.55 76.64-3.3 7.52-2.38 14.65 3.38 20.28 6.37 6.22 13.42 11.79 20.43 17.31 3.36 2.65 7.47 4.33 11 6.79 7.82 5.46 8.77 8.85 5.58 17.83-3.33 9.37-6.8 18.7-9.9 28.14-2.79 8.5-4.9 17.23-7.8 25.69-6.44 18.83-14.23 37.27-19.49 56.41-4.48 16.32-8.79 32.38-16.57 47.6-5.7 11.17-9.37 23.4-13.55 35.3-2.4 6.85-4.01 13.97-5.99 20.97-2.61 9.24-5.04 18.53-7.89 27.69-2.07 6.65-4.66 13.13-7.1 19.66-3.71 9.93-6.35 20.46-11.48 29.6-8.94 15.92-14.44 32.76-17.81 50.48-1.17 6.14-2.09 12.32-3.27 19.37zm555.75-10.59c6.53-3.19 6.61-3.32 12.61.39 16.63 10.29 29.86 24.29 42.49 38.99 3.85 4.48 8.31 8.72 13.23 11.92 5.31 3.45 11.42 5.14 18.08 2.71 8.63-3.15 9.96-7.16 5.04-14.89-7.8-12.26-18.4-21.66-29.27-31.09-15.61-13.55-31.19-26.83-49.16-37.37-24.32-14.26-41.73-35.28-51.96-61.39-7.62-19.43-13.68-39.53-19.42-59.63-9.28-32.52-16.62-65.48-31.95-96.19-16.44-32.94-25.58-68.93-39.98-102.88-13.84-32.62-23.97-66.8-35.91-100.23-1.88-5.26-4.56-10.25-7.15-15.22-1.97-3.78-4.8-6.47-9.65-5-4.24 1.29-7.75 5.8-7.45 10.69.24 3.94 1.22 7.86 2.14 11.73 1.68 7.1 3.34 14.22 5.38 21.23 4.65 15.93 8.84 32.05 14.45 47.64 14.24 39.63 29.11 79.04 43.83 118.5 5.45 14.6 9.95 29.74 17.15 43.43 7.37 14 12.22 28.73 16.9 43.55 7.79 24.68 14.51 49.69 22.01 74.46 3.83 12.64 8.11 25.16 12.71 37.54 3.55 9.55 4.01 18.71-.38 28.05-2.54 5.42-4.86 10.94-7.1 16.49-4.04 10.02-6.66 20.4-4.43 31.19 1.62 7.86.67 15.2-2.21 22.44-9.7 24.43-6.88 48.99-.58 73.48 1.02 3.98 3.47 8.12 6.43 10.97 5.88 5.68 11.27 3.61 12.63-4.36.44-2.6.47-5.33.25-7.96-2.98-36.52 2.8-72.35 8.23-108.23.7-4.65 2.66-7.94 8.06-9.82 2 3.56 4.36 6.78 5.74 10.37 7.53 19.48 14.81 39.06 22.18 58.6 1.29 3.41 2.26 7 3.95 10.2 3.04 5.75 10.01 7.34 16.46 4.14 6.61-3.28 8.69-7.99 6.2-14.57-1.41-3.72-3.13-7.32-4.67-11-6.53-15.59-14.15-30.83-14.9-48.9z"
          fill="transparent"/>
    <path d="M888.31 1618.74c1.18-7.05 2.1-13.23 3.27-19.37 3.37-17.72 8.87-34.57 17.81-50.48 5.13-9.13 7.77-19.67 11.48-29.6 2.44-6.53 5.03-13.01 7.1-19.66 2.85-9.16 5.28-18.45 7.89-27.69 1.97-7 3.58-14.12 5.99-20.97 4.18-11.9 7.85-24.13 13.55-35.3 7.78-15.23 12.09-31.28 16.57-47.6 5.26-19.14 13.05-37.58 19.49-56.41 2.89-8.46 5-17.19 7.8-25.69 3.1-9.44 6.58-18.77 9.9-28.14 3.19-8.98 2.24-12.37-5.58-17.83-3.53-2.46-7.63-4.14-11-6.79-7.01-5.52-14.05-11.09-20.43-17.31-5.76-5.62-6.67-12.76-3.38-20.28 11.2-25.54 22.39-51.09 33.55-76.64 1.73-3.96 3.24-8.02 5.04-11.94 1.52-3.31 2.94-6.75 5.03-9.69 11.79-16.61 16.99-17.85 33.5-12.5 19.58 6.34 38.75 13.94 58.03 21.16 14.31 5.36 28.71 10.55 42.74 16.57 18.61 7.98 36.98 16.55 55.32 25.15 9.58 4.49 19.27 8.96 28.21 14.56 9.18 5.74 9.05 6.89 4.83 16.89-7.36 17.44-15.28 34.65-22.2 52.26-6.79 17.28-12.64 34.93-18.9 52.41-.67 1.88-1.26 3.79-2.03 5.63-2.7 6.42-5.01 7.36-11.53 5.86-10.63-2.43-21.38-4.36-32.01-6.82-16.9-3.92-28.48 4.13-37.01 17.2-4.85 7.43-9.03 15.76-11.37 24.27-8.61 31.23-22.7 60.32-34 90.49-8.18 21.84-20.26 41.71-29.6 62.9-8.47 19.23-20.99 36.06-30.17 54.8-2.77 5.66-5.49 11.37-7.73 17.26-5.92 15.59-15.28 28.9-27.68 39.74-11.5 10.06-23.88 19.12-35.99 28.47-7.09 5.48-14.81 6.91-23.41 3.42-7.31-2.96-14.84-5.38-23.08-8.33zm151.84-521.65c-5.88 10.91-11.72 20.22-16.07 30.18-8.89 20.37-16.67 41.23-25.55 61.6-3.35 7.69-3.1 14.02 2.5 20.09 3.14 3.41 5.88 7.65 9.75 9.81 11.56 6.45 23.15 13.34 35.55 17.73 22.2 7.85 45.07 13.77 67.51 20.96 10.41 3.34 20.5 7.69 30.69 11.71 15.46 6.1 24.21 2.94 31.36-12.04 4.15-8.69 7.7-17.67 11.49-26.54 8.74-20.43 17.46-40.87 26.23-61.4-56.32-28.26-116.14-45.67-173.46-72.11zm6.14 160.35c-8.9-2.4-14.32 1.6-17.41 9.33-7.5 18.74-16.23 37.15-21.86 56.45-8.29 28.42-18.77 55.9-29.89 83.23-6 14.74-11.95 29.54-16.95 44.64-3.63 10.95-5.05 22.62-8.56 33.62-6.33 19.88-13.02 39.67-20.43 59.16-6.36 16.74-13.56 33.15-17.2 50.8-1.76 8.54 4.58 14.65 12.67 12 2.16-.7 4.12-2.13 6.04-3.42 13.9-9.35 23.02-22.91 31.29-36.92 11.93-20.22 22.87-41.03 34.67-61.33 16.18-27.85 30.48-56.61 43.19-86.19 5.5-12.79 11.42-25.39 16.83-38.21 7.27-17.25 18.95-32.85 19.71-52.6.1-2.52 1.55-5.07 2.72-7.44 5.99-12.18 12.24-24.24 18.12-36.48 4.59-9.56 2.36-14.4-7.31-18.9-14.6-6.8-30.56-5.11-45.64-7.76z"
          fill="#060504"/>
    <path d="M1444.06 1608.15c.75 18.06 8.37 33.31 14.9 48.9 1.54 3.67 3.26 7.28 4.67 11 2.49 6.58.41 11.3-6.2 14.57-6.46 3.2-13.42 1.61-16.46-4.14-1.69-3.2-2.66-6.78-3.95-10.2-7.37-19.54-14.66-39.12-22.18-58.6-1.39-3.59-3.74-6.82-5.74-10.37-5.4 1.88-7.36 5.17-8.06 9.82-5.43 35.87-11.21 71.71-8.23 108.23.21 2.63.19 5.36-.25 7.96-1.36 7.97-6.74 10.03-12.63 4.36-2.96-2.85-5.4-6.99-6.43-10.97-6.3-24.49-9.12-49.06.58-73.48 2.87-7.24 3.83-14.57 2.21-22.44-2.23-10.79.4-21.17 4.43-31.19 2.24-5.55 4.56-11.08 7.1-16.49 4.38-9.34 3.92-18.5.38-28.05-4.6-12.38-8.88-24.9-12.71-37.54-7.51-24.77-14.22-49.78-22.01-74.46-4.68-14.82-9.53-29.54-16.9-43.55-7.2-13.7-11.71-28.84-17.15-43.43-14.72-39.46-29.59-78.87-43.83-118.5-5.61-15.6-9.8-31.71-14.45-47.64-2.04-7-3.71-14.12-5.38-21.23-.91-3.87-1.9-7.79-2.14-11.73-.3-4.89 3.21-9.4 7.45-10.69 4.84-1.47 7.68 1.22 9.65 5 2.59 4.97 5.28 9.96 7.15 15.22 11.94 33.43 22.07 67.61 35.91 100.23 14.4 33.95 23.54 69.94 39.98 102.88 15.33 30.71 22.67 63.66 31.95 96.19 5.73 20.1 11.8 40.2 19.42 59.63 10.23 26.11 27.64 47.12 51.96 61.39 17.97 10.54 33.55 23.83 49.16 37.37 10.87 9.44 21.47 18.83 29.27 31.09 4.92 7.73 3.59 11.74-5.04 14.89-6.65 2.43-12.77.74-18.08-2.71-4.92-3.2-9.38-7.44-13.23-11.92-12.63-14.7-25.86-28.7-42.49-38.99-6-3.71-6.08-3.59-12.61-.39z"
          fill="#070606"/>
    <path d="M1040.15 1097.09c57.31 26.44 117.14 43.85 173.46 72.11-8.77 20.53-17.49 40.97-26.23 61.4-3.79 8.86-7.34 17.85-11.49 26.54-7.15 14.97-15.9 18.14-31.36 12.04-10.19-4.02-20.28-8.38-30.69-11.71-22.44-7.19-45.31-13.11-67.51-20.96-12.4-4.39-23.98-11.27-35.55-17.73-3.87-2.16-6.61-6.41-9.75-9.81-5.6-6.08-5.85-12.4-2.5-20.09 8.88-20.38 16.66-41.23 25.55-61.6 4.35-9.96 10.19-19.26 16.07-30.18z"
          fill="#cc0101"/>
    <path d="M1046.3 1257.44c15.08 2.64 31.03.95 45.64 7.76 9.66 4.5 11.89 9.34 7.31 18.9-5.88 12.24-12.13 24.3-18.12 36.48-1.17 2.37-2.62 4.92-2.72 7.44-.76 19.75-12.44 35.35-19.71 52.6-5.41 12.82-11.33 25.43-16.83 38.21-12.71 29.58-27.01 58.34-43.19 86.19-11.8 20.3-22.74 41.11-34.67 61.33-8.27 14.01-17.39 27.57-31.29 36.92-1.92 1.29-3.88 2.72-6.04 3.42-8.1 2.64-14.44-3.46-12.67-12 3.64-17.65 10.84-34.06 17.2-50.8 7.41-19.5 14.1-39.29 20.43-59.16 3.5-11 4.93-22.67 8.56-33.62 5-15.1 10.95-29.9 16.95-44.64 11.13-27.33 21.6-54.82 29.89-83.23 5.63-19.3 14.36-37.71 21.86-56.45 3.09-7.73 8.52-11.72 17.41-9.33z"
          fill="#493e01"/>
</svg>