<svg xmlns="http://www.w3.org/2000/svg" width="2351" height="2351">
    <path d="M0 2351V0h2351v2351H0zm1374.77-787.65c-5.31 0-10.63.04-15.94-.02-3.5-.04-6.58.37-8.1 4.26-1.67 4.26.6 7.11 3.33 9.61 1.67 1.53 3.77 2.85 5.92 3.55 17.38 5.69 35.06 8.28 53 3.12 20.14-5.79 40.28-11.63 60.15-18.27 10.02-3.35 19.67-8.07 29.08-12.96 10.64-5.53 11.71-11.36 4.41-20.66-30.65-39.02-61.44-77.93-92.08-116.96-8.02-10.21-15.66-20.71-23.53-31.04-8.86-11.62-16.9-24.02-26.82-34.66-32.93-35.3-66.53-69.96-99.9-104.86-1.38-1.44-2.8-2.9-4.43-4.02-3.61-2.49-7.62-5.16-11.89-2.16-4.54 3.19-2.62 7.68-1.07 11.78 3.74 9.9 10.36 17.64 17.9 24.89 11.75 11.3 23.23 22.89 34.64 34.54 8.85 9.03 17.6 18.18 26.08 27.57 8.67 9.61 17.29 19.31 25.34 29.43 12.64 15.9 24.59 32.34 37.17 48.29 26.58 33.73 54.77 66.22 78.6 102.08 1.66 2.49 3.43 4.91 5.02 7.45 2.65 4.23 1.17 7.69-2.42 10.4-1.56 1.18-3.54 1.84-5.37 2.61-15.04 6.31-30.08 12.58-45.13 18.87-14.09 5.89-28.71 8.31-43.94 7.14zm-378.36 41.06l.18-.89c1.31.21 2.66.74 3.93.59 8.72-1.04 18.46 1.24 25.18-6.65 1.93-2.26 3.69-5.79 3.41-8.53-.39-3.89-4.42-4.15-7.9-4.31-6.64-.3-13.36-.28-19.88-1.38-15.7-2.65-31.76-3.65-46.71-9.93-7.55-3.17-9.1-6.41-5.95-13.79.91-2.13 2.2-4.1 3.48-6.05 6.2-9.47 12.39-18.94 18.68-28.34 25.2-37.59 50.61-75.03 71.84-115.12 9.03-17.04 19.11-33.52 28.45-50.4 8.36-15.12 16.29-30.48 24.54-45.67 4.96-9.12 12.1-15.75 22.33-18.71 5.27-1.52 9.67-4.38 12.56-9.24 7.47-12.59 15.14-25.06 22.3-37.83 1.66-2.97 2.32-6.97 2.11-10.42-.32-5.24-4.32-7.74-9.19-5.84-2.93 1.15-5.69 3.44-7.78 5.86-2.58 2.99-4.3 6.7-6.56 9.99-4.74 6.9-9.55 14.14-18.01 16.56-7.97 2.28-13.18 7.14-17.52 13.78-3.09 4.72-6.85 9-10.32 13.47-6.98 8.98-12.93 18.47-16.33 29.51-1.13 3.68-3.82 6.92-6.01 10.21-7.92 11.89-16.6 23.33-23.77 35.66-18.06 31.06-35.29 62.6-53.22 93.75-5.79 10.06-12.55 19.59-19.13 29.18-9.02 13.14-18.56 25.93-27.41 39.19-9.4 14.08-16.84 29.44-29.03 41.65-5.88 5.89-4.48 14.38 2.72 18.68 3.58 2.14 7.99 3.33 12.17 3.95 15.13 2.25 30.34 3.88 45.47 6.12 8.51 1.26 16.92 3.27 25.37 4.94z"
          fill="transparent"/>
    <path d="M1374.77 1563.35c15.23 1.17 29.86-1.25 43.94-7.14 15.04-6.29 30.09-12.56 45.13-18.87 1.84-.77 3.81-1.43 5.37-2.61 3.59-2.71 5.07-6.17 2.42-10.4-1.59-2.54-3.36-4.96-5.02-7.45-23.83-35.85-52.02-68.34-78.6-102.08-12.57-15.95-24.53-32.39-37.17-48.29-8.05-10.13-16.66-19.83-25.34-29.43-8.48-9.39-17.23-18.54-26.08-27.57-11.41-11.65-22.89-23.24-34.64-34.54-7.54-7.25-14.17-14.99-17.9-24.89-1.55-4.1-3.47-8.59 1.07-11.78 4.27-3 8.28-.33 11.89 2.16 1.63 1.12 3.05 2.58 4.43 4.02 33.36 34.89 66.97 69.56 99.9 104.86 9.92 10.64 17.96 23.03 26.82 34.66 7.87 10.33 15.51 20.83 23.53 31.04 30.64 39.03 61.44 77.93 92.08 116.96 7.31 9.3 6.23 15.12-4.41 20.66-9.41 4.89-19.05 9.61-29.08 12.96-19.87 6.64-40.01 12.49-60.15 18.27-17.94 5.16-35.63 2.57-53-3.12-2.14-.7-4.24-2.03-5.92-3.55-2.74-2.5-5-5.34-3.33-9.61 1.52-3.9 4.6-4.3 8.1-4.26 5.31.06 10.63.02 15.94.02zM996.41 1604.41c-8.45-1.67-16.85-3.67-25.37-4.94-15.13-2.24-30.34-3.88-45.47-6.12-4.18-.62-8.59-1.82-12.17-3.95-7.21-4.3-8.6-12.79-2.72-18.68 12.2-12.22 19.64-27.57 29.03-41.65 8.85-13.26 18.38-26.05 27.41-39.19 6.58-9.59 13.34-19.11 19.13-29.18 17.92-31.14 35.15-62.69 53.22-93.75 7.17-12.33 15.85-23.76 23.77-35.66 2.19-3.3 4.88-6.54 6.01-10.21 3.4-11.04 9.35-20.53 16.33-29.51 3.47-4.47 7.23-8.75 10.32-13.47 4.35-6.64 9.55-11.49 17.52-13.78 8.46-2.42 13.27-9.66 18.01-16.56 2.26-3.29 3.98-7 6.56-9.99 2.09-2.42 4.85-4.71 7.78-5.86 4.87-1.9 8.87.6 9.19 5.84.21 3.45-.44 7.45-2.11 10.42-7.15 12.77-14.82 25.24-22.3 37.83-2.88 4.86-7.29 7.72-12.56 9.24-10.23 2.96-17.37 9.59-22.33 18.71-8.25 15.18-16.18 30.54-24.54 45.67-9.34 16.88-19.42 33.36-28.45 50.4-21.24 40.08-46.65 77.52-71.84 115.12-6.3 9.4-12.49 18.87-18.68 28.34-1.27 1.95-2.57 3.92-3.48 6.05-3.15 7.38-1.59 10.62 5.95 13.79 14.95 6.28 31.01 7.28 46.71 9.93 6.52 1.1 13.24 1.08 19.88 1.38 3.49.16 7.51.42 7.9 4.31.27 2.74-1.49 6.27-3.41 8.53-6.72 7.89-16.46 5.6-25.18 6.65-1.27.15-2.62-.38-3.93-.59l-.18.89z"/>
</svg>