<svg xmlns="http://www.w3.org/2000/svg" width="2351" height="2351">
    <path d="M0 2351V0h2351v2351H0zm1498.63-655.89c0 .08-.01.15-.02.23-13.26-1.14-26.59-1.76-39.76-3.52-25.38-3.38-50.7-7.22-75.99-11.21-19.63-3.1-38.09-9.49-54.13-21.62-5.57-4.21-10.49-9.28-16.14-13.37-27.98-20.25-48.04-46.63-61.61-78.22-6.59-15.35-9.78-30.88-5.94-47.59 1.47-6.4 2.68-13.38 1.68-19.73-2.28-14.58.04-28.43 3.67-42.35 4.7-18 9.61-35.92 9.83-54.82.13-11.26 2.08-22.49 2.91-33.75.83-11.26 1.29-22.55 1.88-33.84.22-4.31-.97-7.85-5.35-9.72-8.76-3.74-17.03-.08-19.75 9.01-1.05 3.5-1.92 7.09-2.39 10.7-2.3 17.45-4.61 34.9-6.58 52.39-2.6 23.11-5.19 46.22-7.23 69.39-1.45 16.56-1.86 33.2-2.95 49.79-1.2 18.09.48 35.8 6.22 53.06 1.15 3.47 2.53 6.9 3.26 10.46 3.31 16.14 10.77 30.31 22.29 41.71 18.43 18.24 37.45 35.93 56.81 53.19 14.22 12.67 31.29 19.77 50.31 22.46 12.17 1.72 24.19 4.55 36.28 6.81 20.26 3.79 40.4 8.79 60.83 10.95 26.09 2.76 52.44 2.91 78.4 7.6 6.42 1.16 13.27.07 19.92-.17 3.58-.13 6.38-1.77 7.62-5.38 1.22-3.55-1.03-5.51-3.34-7.58-6.87-6.2-9.62-14.12-9.6-23.23.02-8.32.53-16.71-.32-24.95-1.44-13.85-3.38-27.67-5.9-41.37-1.51-8.25-6.26-12.21-11.44-11.65-4.1.44-7.94 5.01-8.53 12.12-1.19 14.5-1.85 29.05-2.49 43.59-.3 6.98.19 13.99-.11 20.97-.34 7.81-3.66 10.63-11.41 10.32-3.65-.14-7.3-.44-10.95-.67zm-605.06-140.7c-8.48-2.53-12.6 1.89-14.73 7.09-7.56 18.44-15.53 36.84-21.25 55.88-4.74 15.78-2.22 31.6 7.77 45.63 5.17 7.27 11.58 11.6 20.74 11.8 9.97.21 19.93.83 29.9 1.29 25.57 1.19 51.15 3.88 76.74 1.06 9.86-1.09 19.7-3.06 29.33-5.5 10.76-2.72 19.07-9.06 24.25-19.23 3.28-6.45 8.58-10.94 15.11-14 3.92-1.83 7.9-3.53 11.77-5.45 16.05-7.95 30.23-18.35 40.35-33.32a509.68 509.68 0 0022.03-35.65c7.19-12.81 12.15-26.53 14.66-41.16 2.58-15.06 6-29.98 8.79-45.02 3.04-16.37 5.4-32.79 4.78-49.56-.5-13.62-.23-27.28-.35-40.92-.05-4.98.38-10.09-.54-14.92-1.47-7.73-.52-16.13-5.77-22.93-2.46-3.18-4.73-6.96-9.55-5.72-4.42 1.13-6.29 4.71-6.53 9.02-.43 7.62-1.55 15.33-.83 22.86 1.74 18.02.57 35.86-1.9 53.66-1.96 14.14-5.63 28.15-6.43 42.34-2.63 46.54-19.69 86.56-52.16 119.86-4.5 4.61-10.41 8.56-16.42 10.84-10.86 4.12-18.89 10.63-24.41 20.8-8.76 16.12-22.98 23.33-40.92 24.14-5.97.27-12.1.08-17.87 1.36-25.31 5.64-50.96 4.37-76.56 4.66-13.23.15-23.8-10.26-21.67-23.77.41-2.62.54-5.29 1.02-7.9 3.24-17.66 6.66-35.29 9.74-52.98.82-4.72.65-9.61.92-14.27z"
          fill="transparent"/>
    <path d="M1498.63 1695.11c3.65.23 7.3.53 10.95.67 7.74.31 11.07-2.51 11.41-10.32.31-6.98-.19-13.99.11-20.97.63-14.54 1.29-29.09 2.49-43.59.59-7.11 4.43-11.68 8.53-12.12 5.19-.56 9.93 3.4 11.44 11.65 2.52 13.69 4.46 27.52 5.9 41.37.85 8.24.35 16.63.32 24.95-.02 9.1 2.73 17.03 9.6 23.23 2.3 2.08 4.56 4.03 3.34 7.58-1.24 3.61-4.04 5.25-7.62 5.38-6.65.24-13.5 1.33-19.92.17-25.96-4.69-52.31-4.84-78.4-7.6-20.43-2.16-40.57-7.16-60.83-10.95-12.1-2.26-24.11-5.09-36.28-6.81-19.02-2.69-36.09-9.79-50.31-22.46-19.36-17.25-38.38-34.94-56.81-53.19-11.52-11.4-18.98-25.57-22.29-41.71-.73-3.56-2.11-6.99-3.26-10.46-5.73-17.26-7.41-34.96-6.22-53.06 1.1-16.59 1.5-33.24 2.95-49.79 2.03-23.16 4.62-46.28 7.23-69.39 1.97-17.49 4.28-34.94 6.58-52.39.48-3.61 1.35-7.21 2.39-10.7 2.72-9.08 10.99-12.75 19.75-9.01 4.38 1.87 5.57 5.4 5.35 9.72-.59 11.28-1.05 22.57-1.88 33.84-.83 11.26-2.78 22.49-2.91 33.75-.22 18.9-5.13 36.81-9.83 54.82-3.63 13.92-5.96 27.77-3.67 42.35.99 6.35-.21 13.33-1.68 19.73-3.84 16.71-.65 32.24 5.94 47.59 13.57 31.6 33.63 57.97 61.61 78.22 5.65 4.09 10.57 9.16 16.14 13.37 16.04 12.13 34.51 18.52 54.13 21.62 25.29 3.99 50.61 7.83 75.99 11.21 13.18 1.75 26.5 2.38 39.76 3.52 0-.08.01-.15.02-.23zM893.58 1554.42c-.28 4.67-.1 9.56-.92 14.27-3.08 17.69-6.5 35.32-9.74 52.98-.48 2.61-.6 5.28-1.02 7.9-2.12 13.5 8.44 23.92 21.67 23.77 25.61-.29 51.25.99 76.56-4.66 5.77-1.29 11.9-1.09 17.87-1.36 17.94-.81 32.15-8.02 40.92-24.14 5.52-10.17 13.55-16.68 24.41-20.8 6.01-2.28 11.92-6.23 16.42-10.84 32.47-33.3 49.53-73.32 52.16-119.86.8-14.19 4.47-28.19 6.43-42.34 2.47-17.8 3.64-35.64 1.9-53.66-.73-7.52.4-15.24.83-22.86.24-4.32 2.11-7.89 6.53-9.02 4.82-1.23 7.09 2.54 9.55 5.72 5.25 6.8 4.3 15.2 5.77 22.93.92 4.83.49 9.94.54 14.92.13 13.64-.15 27.29.35 40.92.62 16.77-1.74 33.19-4.78 49.56-2.79 15.03-6.21 29.95-8.79 45.02-2.51 14.63-7.47 28.35-14.66 41.16-6.83 12.17-14.21 24.08-22.03 35.65-10.12 14.97-24.3 25.37-40.35 33.32-3.87 1.92-7.86 3.62-11.77 5.45-6.52 3.05-11.82 7.55-15.11 14-5.18 10.17-13.49 16.52-24.25 19.23-9.63 2.43-19.47 4.41-29.33 5.5-25.59 2.82-51.16.13-76.74-1.06-9.96-.46-19.93-1.08-29.9-1.29-9.16-.19-15.57-4.53-20.74-11.8-9.99-14.03-12.52-29.85-7.77-45.63 5.72-19.04 13.69-37.44 21.25-55.88 2.14-5.21 6.25-9.62 14.73-7.09z"/>
</svg>