<svg xmlns="http://www.w3.org/2000/svg" width="2351" height="2351">
    <path d="M0 2351V0h2351v2351H0zm1340.43-1223.27c-.99-17.64-1.77-36.89-3.23-56.08-1.33-17.54-6.79-33.9-16.56-48.61-6.81-10.25-16.55-15.96-28.92-13.59-15.08 2.89-26.63 11.61-34.6 24.87-2.41 4-2.2 7.64 1.43 10.69 3.46 2.91 7.16 3.27 10.9.33 2.09-1.65 4.33-3.12 6.34-4.86 13.75-11.88 27.22-10.9 32.46 9.85 5.52 21.89 10.17 44.13 8.78 67.01-.36 5.96-2.4 11.95-1.93 17.8 2.02 25.29-6.44 50.23-2.27 75.56.31 1.88-.45 3.93-.71 5.9-2.52 19.42-5.96 38.72-2.97 58.52 3.58 23.65 8.92 46.42 25.16 65.12 28.07 32.33 61.66 56.81 102.46 70.31 37.86 12.53 72.75 30.98 106.83 51.24 9.1 5.41 16.48 12.84 20.15 22.8 4.35 11.8 8.79 23.81 10.95 36.13 3.09 17.63 4.63 35.59 5.76 53.48.35 5.56-1.36 12.42-4.64 16.81-9.72 13.02-11.07 27.49-9.98 42.69.65 9.05 5.32 12.55 14.46 12.15 8.64-.38 17.31-.62 25.95-.29 12.55.48 17.49-3.39 19.04-15.9 1.54-12.42-1.08-23.86-8.34-34.07-7.57-10.64-10.94-22.55-12.08-35.42-1.6-18.21-3.57-36.38-5.58-54.55-3.38-30.49-17.92-53.91-44.64-69.37-27.67-16.01-55.87-30.75-86.67-40.18-30.11-9.22-58.28-22.71-82.92-42.67-14.24-11.54-28.86-23.34-37.58-39.62-13.47-25.13-19.78-52.14-14.56-80.96 1.19-6.54 2.26-13.15 2.68-19.77 1.73-27.86 3.19-55.74 4.85-85.34zm-508.85 503.86c2.91-.17 5.27-.08 7.55-.48 17.61-3.06 24.72-21.41 13.73-35.39-1.64-2.09-3.54-3.98-5.21-6.06-10.73-13.39-15.94-28.18-12.02-45.52 1.24-5.48 1.79-11.15 2.34-16.76 2.54-26.07 13.04-48.13 33.63-64.59 30.57-24.43 62.9-46.04 100.96-57.19 17.9-5.24 33.54-14.4 48.52-25.05 13.98-9.94 24.49-22.42 28.78-39.46.65-2.56 1.67-5.08 2.84-7.45 12.54-25.33 19.79-51.96 22.38-80.22 2.18-23.81 6.65-47.4 9.72-71.14 1.66-12.83 3.27-25.63 1.09-38.73-1.79-10.78-2.81-21.85-2.55-32.76.26-10.87-.76-21.01-5.47-30.95-3.11-6.56-1.42-10.97 4.96-14.02 14.35-6.84 28.35-14.83 45.17-14.3 6.21.2 8.76-4.59 6.17-10.23-.67-1.46-1.72-2.93-2.98-3.89-7.71-5.87-16.02-9.32-26.02-6.61-7.35 1.99-14.85 3.45-22.24 5.34-7.39 1.9-13.7 5.84-17.25 12.64-4.3 8.23-7.97 16.82-11.39 25.46-.85 2.16.28 5.13.6 7.71 1.6 13.18 4.24 26.34 4.63 39.55.76 25.62.39 51.28.2 76.93-.08 11.3.14 22.75-1.53 33.87-3.31 22-7.53 43.88-12 65.68-2.05 10.02-4 20.58-8.71 29.45-16.52 31.15-40.81 53.76-75.29 64.4-40.71 12.55-76.45 34.17-108.41 61.96-18.62 16.2-30.7 36.68-34.14 61.52-1.28 9.21-2.24 18.53-2.46 27.82-.37 15.96-4.66 30.1-16.33 41.51-1.41 1.38-2.55 3.08-3.68 4.72-4.6 6.67-5.05 13.44-.87 20.59 8.04 13.75 19.79 21.15 35.25 21.64z"
          fill="transparent"/>
    <path d="M1340.43 1127.73c-1.66 29.59-3.12 57.47-4.85 85.34-.41 6.62-1.49 13.23-2.68 19.77-5.22 28.82 1.09 55.83 14.56 80.96 8.73 16.28 23.34 28.08 37.58 39.62 24.63 19.96 52.81 33.46 82.92 42.67 30.81 9.43 59.01 24.16 86.67 40.18 26.72 15.46 41.26 38.89 44.64 69.37 2.01 18.17 3.98 36.34 5.58 54.55 1.13 12.87 4.5 24.78 12.08 35.42 7.27 10.2 9.89 21.65 8.34 34.07-1.55 12.51-6.49 16.38-19.04 15.9-8.63-.33-17.31-.09-25.95.29-9.14.4-13.81-3.1-14.46-12.15-1.09-15.2.26-29.66 9.98-42.69 3.28-4.39 4.99-11.26 4.64-16.81-1.12-17.89-2.67-35.85-5.76-53.48-2.15-12.31-6.6-24.32-10.95-36.13-3.67-9.96-11.05-17.39-20.15-22.8-34.07-20.26-68.96-38.71-106.83-51.24-40.81-13.5-74.4-37.98-102.46-70.31-16.23-18.7-21.58-41.46-25.16-65.12-2.99-19.8.45-39.09 2.97-58.52.26-1.97 1.01-4.02.71-5.9-4.17-25.33 4.28-50.27 2.27-75.56-.47-5.84 1.57-11.84 1.93-17.8 1.39-22.88-3.25-45.13-8.78-67.01-5.24-20.75-18.71-21.73-32.46-9.85-2.01 1.74-4.25 3.21-6.34 4.86-3.74 2.94-7.44 2.59-10.9-.33-3.62-3.05-3.83-6.69-1.43-10.69 7.98-13.26 19.52-21.99 34.6-24.87 12.37-2.37 22.11 3.34 28.92 13.59 9.77 14.7 15.23 31.07 16.56 48.61 1.46 19.19 2.24 38.44 3.23 56.08zM831.58 1631.59c-15.45-.49-27.2-7.89-35.25-21.64-4.18-7.15-3.72-13.92.87-20.59 1.13-1.64 2.26-3.34 3.68-4.72 11.67-11.41 15.96-25.56 16.33-41.51.22-9.29 1.18-18.6 2.46-27.82 3.44-24.84 15.52-45.32 34.14-61.52 31.96-27.79 67.7-49.41 108.41-61.96 34.49-10.63 58.78-33.25 75.29-64.4 4.71-8.88 6.66-19.43 8.71-29.45 4.47-21.8 8.69-43.68 12-65.68 1.67-11.12 1.45-22.57 1.53-33.87.19-25.64.55-51.3-.2-76.93-.39-13.22-3.03-26.37-4.63-39.55-.31-2.58-1.45-5.55-.6-7.71 3.41-8.64 7.08-17.23 11.39-25.46 3.55-6.79 9.85-10.74 17.25-12.64 7.38-1.89 14.88-3.35 22.24-5.34 10-2.71 18.31.74 26.02 6.61 1.26.96 2.31 2.43 2.98 3.89 2.59 5.64.03 10.42-6.17 10.23-16.82-.53-30.81 7.46-45.17 14.3-6.39 3.04-8.07 7.46-4.96 14.02 4.71 9.94 5.73 20.08 5.47 30.95-.26 10.9.76 21.98 2.55 32.76 2.18 13.1.57 25.9-1.09 38.73-3.08 23.74-7.55 47.33-9.72 71.14-2.58 28.26-9.84 54.89-22.38 80.22-1.18 2.37-2.2 4.89-2.84 7.45-4.3 17.04-14.8 29.52-28.78 39.46-14.98 10.65-30.63 19.81-48.52 25.05-38.06 11.15-70.39 32.76-100.96 57.19-20.59 16.46-31.09 38.53-33.63 64.59-.55 5.61-1.1 11.28-2.34 16.76-3.93 17.34 1.28 32.13 12.02 45.52 1.66 2.08 3.56 3.97 5.21 6.06 10.98 13.98 3.88 32.32-13.73 35.39-2.28.4-4.65.31-7.55.48z"/>
</svg>