<svg xmlns="http://www.w3.org/2000/svg" width="2351" height="2351">
    <path d="M2351 2351H0V0h2351v2351zm-1154.95-966.39c5.21-1.67 6.6-5.97 6.98-10.29.89-10.17 2.99-19.67 10.3-27.44 1.5-1.59 1.93-4.17 2.87-6.29 12.11-27.11 29.03-50.75 51.23-70.52 2.7-2.4 5.73-5.18 9.05-6.01 18.07-4.5 36.28-9.33 55.1-7.21 9.81 1.11 19.29 5.04 29.09 6.37 13.54 1.84 25.46 7.15 37.06 13.86 10.26 5.93 17.07 14.56 21.52 25.36 4.72 11.47 4.6 23.38 3.53 35.39-2.64 29.47-5.31 58.94-8.01 88.41-1.36 14.9-2.39 29.85-4.29 44.69-5.49 42.9-10.09 85.87-11.04 129.16-.16 7.28-.53 14.78-2.41 21.75-5.53 20.52-6.56 41.32-6 62.37.22 8.34 2.86 15.45 8.04 22 5.14 6.49 10.18 13.2 14.22 20.4 2.92 5.21 6.54 7.63 12.24 8.81 23.99 4.97 48.11 6.17 72.45 3.64 19.28-2.01 38.06-6.06 56.05-13.43 10.42-4.27 19.43-10.82 25.49-20.15 8.14-12.54 15.46-25.64 22.41-38.89 4.67-8.91 4.06-18.55-2.42-26.33-8.61-10.34-18.94-19.2-32.99-20.72-28.25-3.06-56.44-3.7-83.98 5.39a5940.55 5940.55 0 01-59.74 19.39c-7.41 2.36-9.65.47-9.52-7.36.02-1.33.27-2.65.38-3.98 2.17-28.17 4.9-56.31 6.21-84.52.55-11.74 2.43-23.1 4.5-34.53 1.01-5.56 2.47-11.06 3.1-16.66 3.46-30.71 6.93-61.42 10.01-92.17 2.28-22.82 3.21-45.79 6.22-68.5 1.51-11.34.51-21.31-3.48-32-10.49-28.02-30.66-45.24-58.05-54.91-9.37-3.31-19.04-6.03-28.78-7.97-6.74-1.34-13.9-1.66-20.75-1.08-12.9 1.09-25.72 3.15-38.57 4.82-15.6 2.02-29.21 7.86-40.79 19-20.5 19.71-33.97 44.18-48.15 68.26-1.56 2.65-4.19 4.68-6.33 7-2.47-2.44-5-4.82-7.36-7.36-.62-.67-.54-1.95-1.07-2.76-3.65-5.5-7.07-11.19-11.17-16.34-4.95-6.21-10.51-11.95-15.8-17.9-2.43-2.73-4.36-6.23-7.32-8.11-15.69-9.98-30.79-21.54-47.7-28.78-21.23-9.09-43.21-8.26-63.94 4.92-15.01 9.54-28.52 20.49-41.06 33.06-13.39 13.42-21.82 29.74-26.71 47.25-7.34 26.27-11.09 53.38-11.16 80.84-.01 4.27-.61 8.62-1.56 12.79-4.74 20.74-10.15 41.34-14.45 62.17-7.26 35.17-13.75 70.47-26.03 104.43-6.29 17.41-15.19 33.02-26.12 47.92-15.62 21.28-36.79 24.94-60.4 20.47-19.69-3.72-30.69-18.01-36.63-35.93-3.1-9.34-4-19.46-5.37-29.31-1.3-9.28-2.4-11.84-11.4-13.7-7.04-1.46-14.46-1.46-21.7-1.42-6.3.04-12.57 1.3-18.88 1.6-20.72.98-40.92 4.55-60.61 11.19-8.02 2.71-15.31 6.5-21.37 12.4-5.49 5.34-10.93 10.74-16.16 16.34-10.95 11.72-20.46 24.49-28.05 38.68-3.18 5.95-3.4 11.3 1.34 16.45 12.43 13.51 25.22 26.7 41.17 36.05 6.5 3.81 13.73 7.36 21.04 8.58 21.46 3.58 42.98 3.76 64.27-2.28 5.97-1.69 12.45-2.9 18.57-2.48 10.13.69 18.93-1.94 27.52-6.82 5.46-3.11 11.12-5.96 16.94-8.33 14.15-5.77 28.35-11.42 42.71-16.64 6.16-2.24 12.71-4.31 19.16-4.61 8.61-.41 16.25-2.64 23.7-6.69 13.94-7.58 26.36-16.79 35.06-30.38 1.43-2.23 3.61-3.99 4.93-6.27 4.29-7.43 9.68-14.58 12.22-22.61 5.41-17.09 9.68-34.58 13.71-52.07 7.02-30.42 13.47-60.97 20.23-91.45 4.53-20.45 9.7-40.72 10.5-61.86.61-16.25 1.94-32.52 4.02-48.65 1.91-14.79 4.15-29.67 10.86-43.34 14.08-28.7 37.78-46.71 66.31-59.11 8.46-3.68 17.57-3.07 26.52-1.19 36.43 7.66 58.92 33 78.5 61.99 1.27 1.88 1.99 4.23 2.6 6.45 3.48 12.82 7.12 25.6 10.13 38.53 1.09 4.69 2.64 8.09 7.28 9.15z"
          fill="transparent"/>
    <path d="M1196.05 1384.61c-4.64-1.05-6.19-4.45-7.28-9.15-3.01-12.93-6.65-25.71-10.13-38.53-.61-2.23-1.32-4.57-2.6-6.45-19.58-28.98-42.07-54.32-78.5-61.99-8.94-1.88-18.06-2.49-26.52 1.19-28.53 12.4-52.23 30.41-66.31 59.11-6.71 13.67-8.95 28.55-10.86 43.34-2.08 16.12-3.41 32.4-4.02 48.65-.79 21.15-5.96 41.42-10.5 61.86-6.76 30.48-13.21 61.03-20.23 91.45-4.04 17.49-8.31 34.98-13.71 52.07-2.54 8.03-7.92 15.18-12.22 22.61-1.32 2.28-3.5 4.04-4.93 6.27-8.7 13.6-21.12 22.81-35.06 30.38-7.45 4.05-15.09 6.28-23.7 6.69-6.46.31-13 2.38-19.16 4.61-14.36 5.22-28.56 10.87-42.71 16.64-5.82 2.37-11.48 5.23-16.94 8.33-8.59 4.88-17.39 7.51-27.52 6.82-6.12-.42-12.6.79-18.57 2.48-21.29 6.04-42.81 5.86-64.27 2.28-7.31-1.22-14.55-4.77-21.04-8.58-15.95-9.35-28.74-22.54-41.17-36.05-4.74-5.15-4.53-10.5-1.34-16.45 7.59-14.19 17.1-26.96 28.05-38.68 5.23-5.59 10.67-11 16.16-16.34 6.07-5.91 13.35-9.7 21.37-12.4 19.69-6.64 39.89-10.2 60.61-11.19 6.31-.3 12.58-1.56 18.88-1.6 7.25-.05 14.66-.04 21.7 1.42 9 1.86 10.1 4.42 11.4 13.7 1.38 9.84 2.27 19.97 5.37 29.31 5.94 17.92 16.94 32.2 36.63 35.93 23.61 4.47 44.78.81 60.4-20.47 10.94-14.89 19.83-30.51 26.12-47.92 12.27-33.95 18.77-69.25 26.03-104.43 4.3-20.83 9.71-41.43 14.45-62.17.95-4.17 1.55-8.52 1.56-12.79.07-27.46 3.82-54.56 11.16-80.84 4.89-17.51 13.32-33.83 26.71-47.25 12.54-12.57 26.06-23.52 41.06-33.06 20.73-13.18 42.7-14.01 63.94-4.92 16.92 7.24 32.01 18.8 47.7 28.78 2.96 1.88 4.89 5.38 7.32 8.11 5.28 5.95 10.84 11.68 15.8 17.9 4.1 5.15 7.52 10.84 11.17 16.34.54.81.45 2.09 1.07 2.76 2.36 2.54 4.89 4.92 7.36 7.36 2.14-2.32 4.77-4.34 6.33-7 14.18-24.08 27.66-48.55 48.15-68.26 11.58-11.14 25.19-16.97 40.79-19 12.85-1.67 25.67-3.73 38.57-4.82 6.86-.58 14.02-.27 20.75 1.08 9.74 1.94 19.41 4.67 28.78 7.97 27.39 9.66 47.57 26.88 58.05 54.91 4 10.69 4.99 20.66 3.48 32-3.02 22.71-3.94 45.69-6.22 68.5-3.07 30.75-6.54 61.46-10.01 92.17-.63 5.6-2.1 11.1-3.1 16.66-2.07 11.43-3.95 22.79-4.5 34.53-1.32 28.21-4.05 56.35-6.21 84.52-.1 1.33-.36 2.65-.38 3.98-.12 7.83 2.12 9.71 9.52 7.36a5940.55 5940.55 0 0059.74-19.39c27.54-9.09 55.73-8.45 83.98-5.39 14.04 1.52 24.38 10.38 32.99 20.72 6.48 7.78 7.1 17.42 2.42 26.33-6.95 13.24-14.27 26.35-22.41 38.89-6.06 9.34-15.07 15.88-25.49 20.15-17.98 7.38-36.77 11.43-56.05 13.43-24.34 2.54-48.46 1.33-72.45-3.64-5.69-1.18-9.31-3.59-12.24-8.81-4.04-7.2-9.07-13.91-14.22-20.4-5.19-6.55-7.82-13.66-8.04-22-.56-21.05.47-41.85 6-62.37 1.88-6.97 2.25-14.47 2.41-21.75.95-43.29 5.54-86.26 11.04-129.16 1.9-14.84 2.93-29.79 4.29-44.69 2.7-29.47 5.37-58.94 8.01-88.41 1.08-12.01 1.19-23.92-3.53-35.39-4.45-10.8-11.27-19.43-21.52-25.36-11.6-6.71-23.53-12.03-37.06-13.86-9.81-1.33-19.28-5.27-29.09-6.37-18.81-2.12-37.03 2.71-55.1 7.21-3.32.83-6.35 3.61-9.05 6.01-22.2 19.76-39.12 43.4-51.23 70.52-.94 2.12-1.38 4.7-2.87 6.29-7.31 7.77-9.41 17.27-10.3 27.44-.38 4.32-1.77 8.62-6.98 10.29zm282.79 341.22c13.28-1.08 26.32-1.33 39.06-3.39 12.84-2.08 25.81-6.03 34.69-16.11 10.75-12.19 20.42-25.39 29.87-38.65 5.49-7.69 4.05-18.1-2.48-24.79-5.94-6.08-13.16-10.46-21.71-11.37-23.34-2.49-46.29-1.7-68.83 6.52-20.26 7.38-41.06 13.29-61.61 19.9-2.84.91-5.53 2.33-8.38 3.19-5.91 1.79-8.14 5.96-9.02 11.8-3.27 21.71 15.34 46.68 37.94 49.95 10.19 1.48 20.52 2.01 30.47 2.95zm-720.9-120.2c-.51.03-2.22-.11-3.82.22-19.17 3.93-38.23 8.47-57.51 11.74-13.07 2.21-22.64 9.27-30.6 18.83-5.97 7.18-11.59 14.47-19.62 19.58-2.16 1.37-3.88 3.67-5.34 5.86-4.22 6.36-2.23 16.12 4.11 17.54 11.25 2.52 22.47 5.77 34.37 2.9 29.2-7.04 57.02-17.7 83.59-31.57 17.53-9.16 19.13-13.94 12.92-32.76-3.73-11.32-5.25-12.43-18.1-12.35zm-30.2 98.32c6.55-.84 10.91-1.02 15.08-2.01 18.41-4.39 36.78-8.95 55.11-13.64 2.84-.73 5.67-2.09 8.07-3.77 5.87-4.11 5.56-9.66-.86-13.17-4.78-2.61-9.19-5.32-11.61-10.44-2.1-4.45-5.85-5.22-10.07-3.88-5.05 1.61-10.14 3.25-14.93 5.47-15.37 7.14-30.53 14.6-47.25 18.42-4.55 1.04-8.99 4.28-12.55 7.52-4.65 4.23-3.83 8.4 1.98 10.64 6.1 2.35 12.6 3.63 17.04 4.86zm-71.94-4.04c-3 5.38.47 7.21 3.4 9.42 13.37 10.08 28.17 11.4 45.6 8.08-2.48-3-3.53-5.45-5.3-6.22-14.01-6.07-28.65-9.75-43.69-11.28z"
          fill="#080608"/>
    <path d="M1478.83 1725.83c-9.95-.93-20.28-1.47-30.47-2.95-22.6-3.27-41.21-28.24-37.94-49.95.88-5.84 3.11-10 9.02-11.8 2.85-.87 5.54-2.28 8.38-3.19 20.55-6.61 41.35-12.52 61.61-19.9 22.54-8.21 45.48-9 68.83-6.52 8.56.91 15.78 5.29 21.71 11.37 6.53 6.68 7.96 17.1 2.48 24.79-9.45 13.25-19.12 26.45-29.87 38.65-8.88 10.08-21.85 14.03-34.69 16.11-12.74 2.07-25.78 2.32-39.06 3.39z"
          fill="#6c01fd"/>
    <path d="M757.93 1605.63c12.86-.08 14.37 1.02 18.1 12.35 6.2 18.82 4.61 23.61-12.92 32.76-26.56 13.87-54.39 24.53-83.59 31.57-11.9 2.87-23.12-.39-34.37-2.9-6.34-1.42-8.33-11.18-4.11-17.54 1.45-2.19 3.18-4.49 5.34-5.86 8.03-5.1 13.65-12.4 19.62-19.58 7.96-9.57 17.53-16.62 30.6-18.83 19.28-3.26 38.34-7.8 57.51-11.74 1.61-.33 3.31-.19 3.82-.22z"
          fill="#6b01fc"/>
    <path d="M727.73 1703.95c-4.44-1.23-10.94-2.51-17.04-4.86-5.81-2.24-6.63-6.41-1.98-10.64 3.57-3.24 8-6.48 12.55-7.52 16.72-3.82 31.89-11.28 47.25-18.42 4.79-2.23 9.88-3.87 14.93-5.47 4.22-1.34 7.97-.57 10.07 3.88 2.42 5.13 6.84 7.84 11.61 10.44 6.42 3.51 6.73 9.06.86 13.17-2.4 1.68-5.24 3.04-8.07 3.77-18.33 4.69-36.7 9.25-55.11 13.64-4.17.99-8.53 1.17-15.08 2.01z"
          fill="#6a01f9"/>
    <path d="M655.79 1699.92c15.04 1.53 29.68 5.2 43.69 11.28 1.77.77 2.82 3.22 5.3 6.22-17.43 3.32-32.22 2.01-45.6-8.08-2.93-2.21-6.39-4.04-3.4-9.42z"
          fill="#6401ec"/>
</svg>