<svg xmlns="http://www.w3.org/2000/svg" width="2351" height="2351">
    <path d="M0 2351V0h2351v2351H0zm1727.98-774.4c0 5.02-.7 10.27.15 15.26 1.62 9.5 4.11 18.85 6.29 28.25 2.26 9.74 2.02 19.36-2.92 28.17-5.83 10.41-11.63 20.97-18.72 30.52-7.95 10.73-17.64 20.44-30.16 25.63-22.41 9.3-45.08 17.97-69.01 22.99-32.22 6.76-64.26 14.37-96.47 21.21-11.69 2.48-23.58 4.23-35.46 5.47-8.68.9-11.84-1.8-14.92-10.05-.93-2.49-1.61-5.08-2.52-7.58-6.04-16.54-11.93-33.13-18.23-49.57-8.7-22.67-18.64-44.9-26.41-67.88-16.63-49.16-32.34-98.63-48.15-148.06-6.18-19.31-12.08-38.74-17.23-58.35-4.46-16.96-3.29-35.11-10.33-51.63-.63-1.48-.53-3.27-.69-4.93-1.92-19.2-3.91-38.39-5.7-57.6-.64-6.81-2.08-13.23-7.2-18.1-5.3-5.04-12.63-4.32-14.96 1.61-1.17 2.98-1.42 6.5-1.34 9.76.17 6.65.68 13.3 1.37 19.91 2.02 19.5 4.07 39 6.39 58.47.78 6.59 2.42 13.08 3.61 19.62 4.83 26.47 6.8 53.51 16.13 79.08 3.76 10.31 6.99 20.82 10.24 31.3 9.24 29.86 18.26 59.79 27.59 89.62 4.17 13.34 9.46 26.34 13.23 39.78 5.86 20.9 13.67 41 22.37 60.84 11 25.09 20.74 50.52 20.08 78.66-.16 6.8 2.76 9.36 9.7 10.2 2.63.32 5.33.34 7.98.17 11.29-.71 22.67-.85 33.82-2.49 18.39-2.71 36.75-5.88 54.91-9.86 23.05-5.05 45.68-12.23 68.86-16.47 35.31-6.46 67.02-21.33 98.23-37.99 7.28-3.88 12.86-9.18 16.84-16.44 7.04-12.84 14.61-25.39 21.43-38.34 2.09-3.97 2.97-8.79 3.49-13.32 2.55-22.29-5.89-42.56-12.09-63.22-1.32-4.41-4.38-6.47-10.19-4.66zM662.14 1931.98c2.45-1.85 4.63-3.27 6.54-4.98 15.12-13.53 32.07-23.69 51.9-28.71 4.51-1.14 8.89-2.77 13.34-4.17 38.4-12.04 76.66-24.61 116.43-31.6 4.55-.8 9.55-2.16 13.77-1.05 9.25 2.43 16.02-1.94 23.26-6.04 5.02-2.84 6.58-6.59 5.96-12.35-.67-6.18-1.13-12.74.21-18.71 5.32-23.69 10.72-47.4 17.3-70.76 16.16-57.37 36.83-113.23 57.99-168.9 11.58-30.44 21.84-61.55 35.84-90.86 18.05-37.78 38.93-74.23 59.2-110.92 10.61-19.21 22.51-37.7 33.84-56.5 1.03-1.71 2.19-3.33 3.34-4.96 10.93-15.47 21.92-30.9 32.76-46.43 3.38-4.85 2.94-11.39-.57-14.42-3.6-3.11-9.35-2.39-14.07 2.71-6.09 6.58-12.26 13.24-17.24 20.65-11.13 16.57-21.45 33.68-32.26 50.47-9.91 15.38-19.43 31.07-30.28 45.77-6.83 9.24-12.66 18.63-16.23 29.51-2.84 8.63-7.66 16.02-13.49 23.09-5.88 7.13-11.5 14.89-15.31 23.24-14.07 30.84-27.39 62.02-40.85 93.14-1.57 3.63-2.28 7.64-3.41 11.47-1.78 6.01-3.12 12.2-5.44 18-10.28 25.62-21.59 50.86-31.07 76.77-7.87 21.51-13.61 43.8-20.51 65.68-1.69 5.36-4.11 10.52-6.44 15.66-4.7 10.37-7.8 21.04-8.52 32.53-.43 6.86-1.71 13.84-3.79 20.39-4.22 13.3-10.01 26.14-13.7 39.56-2.82 10.29-8.26 15.88-18.56 18.19-23.03 5.17-45.89 11.07-68.89 16.39-31.21 7.23-61.01 18.8-91.06 29.55-4.44 1.59-8.77 5.1-11.73 8.84-4.28 5.43-7.33 11.85-10.79 17.92-2.25 3.94-1.74 7.61 2.52 11.85z"
          fill="transparent"/>
    <path d="M1727.98 1576.6c5.81-1.81 8.87.25 10.19 4.66 6.2 20.66 14.64 40.94 12.09 63.22-.52 4.53-1.4 9.36-3.49 13.32-6.82 12.95-14.39 25.51-21.43 38.34-3.98 7.26-9.57 12.56-16.84 16.44-31.2 16.66-62.92 31.53-98.23 37.99-23.18 4.24-45.81 11.42-68.86 16.47-18.15 3.98-36.52 7.14-54.91 9.86-11.16 1.64-22.54 1.78-33.82 2.49-2.65.17-5.35.15-7.98-.17-6.94-.84-9.86-3.4-9.7-10.2.66-28.14-9.08-53.58-20.08-78.66-8.7-19.84-16.5-39.94-22.37-60.84-3.77-13.44-9.05-26.45-13.23-39.78-9.33-29.83-18.35-59.76-27.59-89.62-3.25-10.49-6.48-21-10.24-31.3-9.33-25.58-11.3-52.61-16.13-79.08-1.19-6.54-2.83-13.03-3.61-19.62-2.32-19.47-4.37-38.97-6.39-58.47-.69-6.62-1.19-13.27-1.37-19.91-.09-3.26.17-6.78 1.34-9.76 2.32-5.93 9.65-6.66 14.96-1.61 5.12 4.87 6.57 11.29 7.2 18.1 1.79 19.21 3.78 38.4 5.7 57.6.17 1.66.07 3.46.69 4.93 7.03 16.52 5.87 34.67 10.33 51.63 5.15 19.61 11.06 39.04 17.23 58.35 15.81 49.43 31.52 98.9 48.15 148.06 7.77 22.97 17.72 45.21 26.41 67.88 6.31 16.44 12.19 33.03 18.23 49.57.91 2.5 1.59 5.09 2.52 7.58 3.08 8.25 6.24 10.95 14.92 10.05 11.88-1.24 23.77-2.99 35.46-5.47 32.21-6.84 64.25-14.45 96.47-21.21 23.93-5.02 46.6-13.69 69.01-22.99 12.52-5.19 22.21-14.9 30.16-25.63 7.08-9.55 12.88-20.11 18.72-30.52 4.94-8.81 5.18-18.43 2.92-28.17-2.18-9.4-4.66-18.75-6.29-28.25-.85-4.99-.15-10.24-.15-15.26zM662.15 1931.98c-4.26-4.24-4.77-7.92-2.52-11.85 3.46-6.06 6.5-12.49 10.79-17.92 2.96-3.75 7.29-7.25 11.73-8.84 30.05-10.76 59.85-22.32 91.06-29.55 22.99-5.33 45.86-11.23 68.89-16.39 10.3-2.31 15.74-7.9 18.56-18.19 3.68-13.43 9.47-26.26 13.7-39.56 2.08-6.55 3.36-13.53 3.79-20.39.71-11.49 3.82-22.16 8.52-32.53 2.33-5.14 4.75-10.29 6.44-15.66 6.9-21.88 12.64-44.17 20.51-65.68 9.48-25.91 20.79-51.14 31.07-76.77 2.32-5.79 3.67-11.98 5.44-18 1.13-3.83 1.84-7.83 3.41-11.47 13.46-31.11 26.78-62.3 40.85-93.14 3.81-8.36 9.43-16.11 15.31-23.24 5.83-7.07 10.65-14.46 13.49-23.09 3.58-10.88 9.4-20.27 16.23-29.51 10.86-14.69 20.37-30.38 30.28-45.77 10.81-16.79 21.13-33.9 32.26-50.47 4.97-7.41 11.15-14.07 17.24-20.65 4.72-5.1 10.47-5.82 14.07-2.71 3.51 3.04 3.96 9.58.57 14.42-10.84 15.53-21.84 30.95-32.76 46.43-1.15 1.63-2.32 3.25-3.34 4.96-11.34 18.8-23.23 37.3-33.84 56.5-20.27 36.69-41.16 73.14-59.2 110.92-14 29.31-24.26 60.42-35.84 90.86-21.17 55.66-41.83 111.53-57.99 168.9-6.58 23.36-11.98 47.07-17.3 70.76-1.34 5.97-.88 12.53-.21 18.71.62 5.76-.95 9.52-5.96 12.35-7.24 4.1-14.01 8.47-23.26 6.04-4.21-1.11-9.22.25-13.77 1.05-39.77 6.99-78.03 19.57-116.43 31.6-4.44 1.39-8.83 3.02-13.34 4.17-19.84 5.02-36.79 15.18-51.9 28.71-1.91 1.71-4.09 3.13-6.54 4.98z"/>
</svg>