<svg xmlns="http://www.w3.org/2000/svg" width="2351" height="2351">
    <path d="M0 2351V0h2351v2351H0zm1353.85-1124.51c-4.06-9.58-6.28-11.85-12.93-11.17-5.12.53-11.1 1.54-14.89 4.59-12.63 10.16-25.61 19.88-34.9 33.87-20.23 30.44-31.87 64.05-40.03 99.3-3.95 17.08-7.01 34.35-3.05 51.39 4.87 20.99 11.33 41.7 18.34 62.1 7.65 22.28 16.36 44.22 25.28 66.04 8.46 20.67 20.22 38.34 41.19 49.39 18.77 9.9 36.29 22.24 54.03 33.99 5.46 3.62 10.62 8.26 14.6 13.45 8.48 11.07 15.91 22.93 24.11 34.23 7.99 11 16.41 21.69 24.62 32.53 2 2.63 4.73 5.04 5.75 8.02 3.66 10.72 6.56 21.73 5.61 33.2-.29 3.5-1.42 7.36-3.37 10.23-10.64 15.68-21.23 31.44-32.7 46.52-8.84 11.62-20.9 19.31-34.92 23.85-10.74 3.48-21.44 7.15-31.98 11.2-4.9 1.88-9.92 4.2-13.95 7.47-10.38 8.45-19.03 18.55-25.83 30.18-8.51 14.54-11.63 30.33-10.86 46.94.15 3.16 1.1 6.78 2.93 9.28 9.78 13.31 21.29 24.85 37.17 30.73 24.42 9.05 48.87 16.06 75.83 12.28 22.7-3.18 42.61-10.52 58.34-27.16 8.41-8.9 15.82-18.78 23.29-28.51 19.44-25.31 38.7-50.76 57.94-76.21 2.6-3.44 4.39-7.52 7.12-10.83 3.77-4.57 7.62-9.31 12.28-12.86 6.05-4.61 12.63-8.79 19.56-11.88 4.94-2.2 11.07-3.82 16.23-2.99 9.75 1.56 19.4 4.51 28.71 7.91 12.77 4.66 25 10.78 37.79 15.38 17.32 6.24 30.81 16.78 40.24 32.54 2.73 4.56 5.26 9.25 7.79 13.93 7.6 14.04 15.27 28.05 22.68 42.2 3.16 6.03 7.61 8.38 14.47 8.29 7.15-.09 12.73-3.07 18.38-6.7 17.31-11.12 29.47-25.69 32.35-46.81 1.71-12.52 4.22-24.96 5.45-37.52.83-8.52.5-17.23-.13-25.79-.58-7.92-2.62-15.73-3.37-23.64-2.1-22.22-8.51-42.42-26.03-57.57-6.79-5.87-13.82-11.48-20.82-17.11-10.47-8.41-21.97-14.27-35.05-18.27-21.85-6.69-44.25-9.12-66.7-11.54-5.8-.62-11.87.81-17.76 1.66-5.25.76-10.41 2.07-15.63 3.03-19.21 3.56-36.77 10.3-47.8 27.59-5.58 8.73-12.63 15.2-21.58 20.13-2.69 1.48-4.86 4.2-6.8 6.71-4.87 6.27-9.04 13.12-14.28 19.05-7.49 8.47-15.66 16.35-23.58 24.43-3.86 3.93-5.77 8.27-2.7 13.44 2.9 4.88 1.28 8.35-2.11 12.43-6.58 7.9-12.4 16.44-18.62 24.64-4.21 5.56-8.16 11.4-12.93 16.44-17.95 18.96-33 40.18-46.19 62.49-9.86 16.69-22.06 30.78-37.06 42.52-4.88 3.82-10.62 8.18-17.37 7.68-15.04-1.12-29.52-4.85-42.89-12.09-7.21-3.91-13.28-9.27-15.66-17.37-3.65-12.45-3.35-25.12 1.72-37.03 3.09-7.26 7.74-13.96 12.36-20.44 7.69-10.79 17.61-18.9 30.35-23.37 10.97-3.85 21.92-7.82 32.68-12.22 5.16-2.11 10.28-4.79 14.7-8.16 14.82-11.33 24.94-26.42 33.69-42.72 3.88-7.23 9.59-13.46 14.23-20.31 2.37-3.49 5.03-7.12 6.14-11.08 5.96-21.13 1.32-39.95-12.76-56.82-9.8-11.75-19.08-23.94-28.36-36.11-5.85-7.67-10.92-15.95-16.93-23.48-19.62-24.61-43.61-43.76-72.46-56.61-9.19-4.1-18.61-8.44-24.06-17.12-6.5-10.36-12.07-21.39-17.15-32.53-4.4-9.65-7.51-19.89-11.27-29.85-6.57-17.41-13.98-34.54-19.62-52.24-10.57-33.22-13.24-67.17-5.74-101.5 7.77-35.57 26.49-65.7 47.8-94.45 1.74-2.35 4.26-4.21 6.67-5.95 9.08-6.54 17.5-14.28 30.38-15.27zm-303.34-12.09c.78.67 1.57 1.34 2.35 2.01 5.42-1.36 10.89-2.55 16.25-4.1 12.46-3.6 24.8-7.62 38.05-7.15 12.42.44 19.37 4.85 23.52 16.32 1.68 4.63 2.96 9.63 3.19 14.53 1 20.79-1.72 41.07-8.13 60.99-8.63 26.85-24.23 50.21-36.88 75.02-5.51 10.8-14.3 19.9-21.28 30-11.68 16.9-26.67 30.74-42.47 43.34-23.68 18.88-49.48 34.79-76.61 48.41-1.16.58-2.49 1.46-3.64 1.33-6.71-.72-11.25 3.41-16.07 6.89-8.36 6.04-16.47 12.47-25.07 18.15-5.48 3.62-11.43 6.83-17.59 9.05-9.11 3.28-16.26 8.51-22.22 16.13-4.88 6.24-10.47 12.05-16.39 17.32-6.95 6.19-14.93 11.22-21.84 17.44-7.38 6.65-14.52 13.7-20.9 21.31-8.22 9.81-12.96 21.63-16.56 33.85-1.17 3.98 2.97 35.68 5.22 39.81 5.13 9.42 11.22 17.99 20.02 24.56 10.74 8.02 21.96 14.76 34.88 18.88 13.94 4.45 27.7 9.75 38.52 20.21 14.18 13.72 16.16 27.53 7.46 45.05-2.93 5.89-6 12.19-6.8 18.57-2.07 16.5-7.06 31.81-15.9 45.77-10.28 16.24-24.63 26.86-44.15 28.83-8.23.83-16.68.76-24.93.02-21.52-1.94-40.09-10.1-52.38-28.72-13.01-19.72-25.98-39.51-37.88-59.9-13.69-23.47-33.01-39.37-58.11-49.33-12.29-4.88-24.61-10.5-35.51-17.87-21.79-14.73-45.15-23.83-71.41-25.34-9.86-.57-19.86.91-27.8 6.31-12.65 8.6-22.31 20.91-25.39 35.91-4.31 21.04-11.55 41.49-11.1 63.68.21 10.68 1.88 20.12 5.8 29.68 3.02 7.36 6.09 14.78 8.12 22.44 1.34 5.07 3.74 8.93 7.02 12.85 14.04 16.8 32.13 27.98 51.76 36.52 30.46 13.26 61.44 25.28 91.97 38.37 19.8 8.49 40.36 12.91 61.67 15.33 21.49 2.44 42.23-4.05 63.46-3.99 1.26 0 2.51-.97 3.8-1.11 9.51-.98 19.04-4.66 28.58-.82 16.24 6.53 29.62-.09 41.2-10.12 20.59-17.83 35.32-39.95 41.7-66.68 4.51-18.92 11.81-36.71 19.77-54.25 7.08-15.62 9.1-31.72 8.19-48.65-1.07-19.78-9.82-34.97-25.74-46.16-5.41-3.8-11.27-7.07-17.22-9.97-12.54-6.12-25.32-11.74-37.91-17.77-11.19-5.36-20.31-13.23-24.36-25.18-5.17-15.23-4.99-30.75.8-45.93 6.65-17.45 18.99-30.26 33.84-40.98 13.26-9.57 25.89-19.81 36.66-32.25 2.79-3.23 6.23-6.12 9.86-8.36 16.42-10.11 32.81-20.31 49.61-29.76 26.63-14.99 54.09-28.57 77.77-48.31 1.27-1.06 2.73-1.91 4.16-2.76 20.6-12.23 37.18-29.07 53.07-46.62 3.75-4.14 6.41-9.28 9.5-14.01 5.62-8.6 11.23-17.21 16.73-25.88 1.59-2.51 2.88-5.22 4.19-7.9 3.18-6.54 5.98-13.3 9.49-19.65 19.08-34.56 31.79-70.85 31.22-110.94-.17-11.73-3.52-22.63-10.57-31.66-7.22-9.24-16.47-17.24-29.39-15.39-13.47 1.92-26.84 4.93-40.02 8.35-5.25 1.36-10.1 4.78-14.68 7.92-1.55 1.07-1.71 4.17-2.51 6.34z"
          fill="transparent"/>
    <path d="M1353.85 1226.49c-12.88.99-21.31 8.73-30.38 15.27-2.41 1.74-4.93 3.6-6.67 5.95-21.31 28.75-40.03 58.88-47.8 94.45-7.5 34.32-4.83 68.28 5.74 101.5 5.63 17.7 13.05 34.83 19.62 52.24 3.75 9.95 6.87 20.19 11.27 29.85 5.08 11.14 10.65 22.17 17.15 32.53 5.45 8.68 14.87 13.03 24.06 17.12 28.85 12.86 52.83 32 72.46 56.61 6.01 7.54 11.08 15.81 16.93 23.48 9.28 12.17 18.56 24.36 28.36 36.11 14.08 16.87 18.72 35.68 12.76 56.82-1.12 3.96-3.78 7.59-6.14 11.08-4.64 6.85-10.35 13.08-14.23 20.31-8.75 16.3-18.87 31.38-33.69 42.72-4.41 3.37-9.54 6.05-14.7 8.16-10.76 4.4-21.7 8.37-32.68 12.22-12.73 4.47-22.66 12.58-30.35 23.37-4.62 6.48-9.27 13.18-12.36 20.44-5.07 11.9-5.37 24.58-1.72 37.03 2.37 8.1 8.44 13.46 15.66 17.37 13.36 7.24 27.84 10.98 42.89 12.09 6.75.5 12.49-3.86 17.37-7.68 15-11.74 27.2-25.83 37.06-42.52 13.18-22.31 28.24-43.52 46.19-62.49 4.77-5.04 8.72-10.88 12.93-16.44 6.22-8.21 12.04-16.74 18.62-24.64 3.4-4.08 5.01-7.55 2.11-12.43-3.07-5.17-1.15-9.51 2.7-13.44 7.93-8.08 16.09-15.96 23.58-24.43 5.24-5.92 9.41-12.78 14.28-19.05 1.95-2.51 4.11-5.23 6.8-6.71 8.95-4.93 16-11.4 21.58-20.13 11.04-17.29 28.6-24.03 47.8-27.59 5.22-.97 10.38-2.28 15.63-3.03 5.89-.85 11.96-2.28 17.76-1.66 22.45 2.41 44.85 4.84 66.7 11.54 13.08 4.01 24.59 9.87 35.05 18.27 7 5.63 14.03 11.24 20.82 17.11 17.53 15.15 23.93 35.35 26.03 57.57.75 7.92 2.79 15.72 3.37 23.64.63 8.56.96 17.27.13 25.79-1.23 12.56-3.74 25-5.45 37.52-2.88 21.12-15.04 35.68-32.35 46.81-5.66 3.63-11.24 6.62-18.38 6.7-6.87.09-11.32-2.26-14.47-8.29-7.41-14.15-15.08-28.16-22.68-42.2-2.53-4.68-5.06-9.37-7.79-13.93-9.42-15.75-22.92-26.3-40.24-32.54-12.78-4.6-25.02-10.72-37.79-15.38-9.31-3.4-18.96-6.35-28.71-7.91-5.16-.83-11.29.79-16.23 2.99-6.92 3.08-13.51 7.27-19.56 11.88-4.66 3.55-8.51 8.29-12.28 12.86-2.73 3.31-4.52 7.39-7.12 10.83-19.25 25.46-38.5 50.91-57.94 76.21-7.48 9.73-14.88 19.61-23.29 28.51-15.73 16.65-35.64 23.98-58.34 27.16-26.96 3.78-51.41-3.23-75.83-12.28-15.87-5.88-27.38-17.42-37.17-30.73-1.83-2.49-2.78-6.12-2.93-9.28-.77-16.61 2.35-32.4 10.86-46.94 6.81-11.63 15.45-21.73 25.83-30.18 4.03-3.28 9.05-5.59 13.95-7.47 10.54-4.05 21.24-7.72 31.98-11.2 14.03-4.54 26.09-12.23 34.92-23.85 11.47-15.08 22.05-30.84 32.7-46.52 1.95-2.87 3.08-6.73 3.37-10.23.95-11.47-1.94-22.48-5.61-33.2-1.02-2.98-3.75-5.39-5.75-8.02-8.21-10.84-16.63-21.53-24.62-32.53-8.2-11.29-15.63-23.16-24.11-34.23-3.97-5.19-9.13-9.83-14.6-13.45-17.75-11.75-35.26-24.1-54.03-33.99-20.97-11.06-32.74-28.73-41.19-49.39-8.92-21.81-17.63-43.76-25.28-66.04-7.01-20.4-13.46-41.1-18.34-62.1-3.96-17.04-.9-34.31 3.05-51.39 8.15-35.25 19.8-68.86 40.03-99.3 9.3-13.99 22.27-23.71 34.9-33.87 3.79-3.05 9.77-4.06 14.89-4.59 6.65-.68 8.87 1.59 12.93 11.17zm62.27 726.51c2.75-.16 4.4.05 5.86-.39 16.72-5.06 32.72-11.45 44.27-25.46 7.2-8.73 14.64-17.29 21.32-26.4 18.11-24.7 35.87-49.66 53.76-74.52 8.6-11.95 18.15-23 29.86-32.04 12.91-9.97 27.46-15.4 43.74-13.08 11.42 1.62 22.95 4.11 33.76 8.04 17.79 6.46 34.98 14.54 52.53 21.69 16.27 6.63 29.41 17.18 38.45 32.08 8.61 14.19 16.05 29.09 24 43.68 1.43 2.62 2.6 5.41 4.27 7.87 4.35 6.42 7.48 6.96 14.05 2.46 7.06-4.83 12.84-11.02 14.92-19.39 3.75-15.13 7.75-30.3 9.86-45.7 3.85-28.19-2.71-55.59-8.83-82.87-.85-3.78-2.67-7.71-5.11-10.7-17.31-21.17-36.72-39.6-64.6-45.9-9.71-2.19-19.49-4.2-29.3-5.86-27.84-4.69-53.44 1.92-77.37 16.07-2.78 1.65-5.05 4.29-7.27 6.73-5.81 6.39-11.31 13.08-17.23 19.36-10.49 11.15-21.3 22.01-31.76 33.2-2.18 2.33-5.23 5.9-4.76 8.27 1.71 8.55-2.88 14.11-7.68 19.59-26.51 30.29-47.48 65.05-75.82 93.86-1.39 1.42-2.64 3.03-3.71 4.7-10.48 16.34-24.75 29.47-37.34 44.01-5.99 6.92-12.68 13.24-19.87 20.68z"
          fill="#0a0907"/>
    <path d="M1050.51 1214.41c.8-2.17.95-5.28 2.51-6.34 4.58-3.14 9.43-6.56 14.68-7.92 13.18-3.42 26.55-6.43 40.02-8.35 12.92-1.84 22.18 6.15 29.39 15.39 7.05 9.03 10.41 19.93 10.57 31.66.57 40.08-12.14 76.38-31.22 110.94-3.51 6.36-6.3 13.11-9.49 19.65-1.3 2.68-2.6 5.39-4.19 7.9-5.5 8.67-11.12 17.28-16.73 25.88-3.09 4.73-5.75 9.87-9.5 14.01-15.89 17.55-32.47 34.39-53.07 46.62-1.43.85-2.89 1.7-4.16 2.76-23.67 19.74-51.14 33.32-77.77 48.31-16.8 9.46-33.19 19.66-49.61 29.76-3.64 2.24-7.07 5.13-9.86 8.36-10.77 12.44-23.4 22.68-36.66 32.25-14.85 10.72-27.19 23.53-33.84 40.98-5.79 15.18-5.96 30.7-.8 45.93 4.05 11.94 13.17 19.82 24.36 25.18 12.59 6.03 25.37 11.64 37.91 17.77 5.95 2.91 11.81 6.17 17.22 9.97 15.93 11.19 24.68 26.38 25.74 46.16.91 16.93-1.11 33.03-8.19 48.65-7.95 17.55-15.25 35.33-19.77 54.25-6.38 26.74-21.12 48.86-41.7 66.68-11.59 10.03-24.96 16.65-41.2 10.12-9.55-3.84-19.07-.16-28.58.82-1.29.13-2.54 1.11-3.8 1.11-21.23-.06-41.97 6.42-63.46 3.99-21.3-2.42-41.87-6.84-61.67-15.33-30.53-13.09-61.52-25.12-91.97-38.37-19.63-8.54-37.72-19.72-51.76-36.52-3.28-3.92-5.68-7.78-7.02-12.85-2.03-7.66-5.1-15.08-8.12-22.44-3.92-9.55-5.59-18.99-5.8-29.68-.44-22.2 6.79-42.64 11.1-63.68 3.08-15 12.74-27.31 25.39-35.91 7.94-5.4 17.94-6.88 27.8-6.31 26.25 1.51 49.62 10.61 71.41 25.34 10.9 7.37 23.22 12.99 35.51 17.87 25.09 9.96 44.41 25.86 58.11 49.33 11.9 20.39 24.87 40.18 37.88 59.9 12.29 18.62 30.86 26.78 52.38 28.72 8.25.74 16.7.81 24.93-.02 19.52-1.97 33.87-12.59 44.15-28.83 8.84-13.97 13.83-29.27 15.9-45.77.8-6.39 3.88-12.68 6.8-18.57 8.7-17.52 6.72-31.33-7.46-45.05-10.82-10.46-24.58-15.76-38.52-20.21-12.92-4.12-24.14-10.86-34.88-18.88-8.8-6.57-14.88-15.14-20.02-24.56-2.25-4.13-6.4-35.83-5.22-39.81 3.6-12.22 8.33-24.03 16.56-33.85 6.37-7.61 13.51-14.66 20.9-21.31 6.91-6.22 14.89-11.25 21.84-17.44 5.92-5.28 11.51-11.08 16.39-17.32 5.96-7.62 13.1-12.85 22.22-16.13 6.16-2.22 12.11-5.43 17.59-9.05 8.6-5.68 16.71-12.1 25.07-18.15 4.82-3.48 9.36-7.62 16.07-6.89 1.16.12 2.48-.75 3.64-1.33 27.13-13.62 52.93-29.53 76.61-48.41 15.79-12.6 30.78-26.44 42.47-43.34 6.98-10.09 15.77-19.19 21.28-30 12.65-24.81 28.24-48.18 36.88-75.02 6.4-19.92 9.13-40.2 8.13-60.99-.24-4.89-1.52-9.89-3.19-14.53-4.15-11.46-11.1-15.87-23.52-16.32-13.26-.47-25.59 3.55-38.05 7.15-5.36 1.55-10.83 2.75-16.25 4.1-.78-.67-1.57-1.34-2.35-2.01zm-185.23 670.98c-.59-.64-1.18-1.28-1.78-1.92-5.9 1.67-11.74 3.68-17.73 4.93-7.78 1.63-15.68 2.73-23.56 3.92-2.28.34-4.69.58-6.94.23-25.78-4.03-51.52-8.29-69.84-29.75-4.91-5.75-9.74-11.63-14.07-17.82-4.94-7.05-9.18-14.59-13.92-21.8-7.84-11.92-16.39-23.42-23.63-35.69-10.73-18.19-24.92-31.39-45.28-38.42-16.97-5.85-33.3-13.62-47.62-24.73-15.3-11.88-32.73-15.7-51.54-14.8-12.08.58-21.72 5.76-28.11 16.27-2.07 3.4-4.16 6.84-5.74 10.48-15.4 35.7-18.64 71.93-3.01 108.34 6.61 15.39 15.72 29.53 30.74 38.24 11.2 6.5 22.74 12.55 34.56 17.81 19.41 8.64 39.42 15.94 58.73 24.79 19.57 8.97 39.74 15.1 61.16 16.89 11.57.97 23.27 2.8 34.72 1.9 12.83-1.01 25.53-4.39 38.15-7.29 6.76-1.55 14.14-2.98 19.64-6.78 8.2-5.67 15.73-5.96 24.35-2.38 9.34 3.88 17.38 1.44 24.56-5.37 11.27-10.69 17.41-24.72 26.14-37.06z"
          fill="#0b0908"/>
    <path d="M1416.12 1953.01c7.19-7.44 13.88-13.76 19.87-20.68 12.6-14.54 26.86-27.67 37.34-44.01 1.07-1.67 2.32-3.28 3.71-4.7 28.34-28.81 49.31-63.57 75.82-93.86 4.8-5.48 9.39-11.04 7.68-19.59-.47-2.37 2.58-5.94 4.76-8.27 10.46-11.19 21.26-22.05 31.76-33.2 5.92-6.29 11.41-12.97 17.23-19.36 2.22-2.44 4.48-5.08 7.27-6.73 23.93-14.16 49.53-20.76 77.37-16.07 9.82 1.66 19.59 3.66 29.3 5.86 27.88 6.3 47.29 24.72 64.6 45.9 2.44 2.99 4.26 6.92 5.11 10.7 6.13 27.28 12.69 54.68 8.83 82.87-2.11 15.4-6.1 30.57-9.86 45.7-2.08 8.37-7.86 14.56-14.92 19.39-6.58 4.5-9.7 3.96-14.05-2.46-1.67-2.46-2.84-5.25-4.27-7.87-7.95-14.59-15.39-29.49-24-43.68-9.04-14.9-22.18-25.44-38.45-32.08-17.54-7.15-34.74-15.23-52.53-21.69-10.81-3.93-22.34-6.42-33.76-8.04-16.28-2.31-30.84 3.11-43.74 13.08-11.7 9.05-21.26 20.1-29.86 32.04-17.89 24.86-35.65 49.82-53.76 74.52-6.68 9.11-14.12 17.67-21.32 26.4-11.56 14.01-27.55 20.4-44.27 25.46-1.45.44-3.1.23-5.86.39z"
          fill="#fcdc02"/>
    <path d="M865.28 1885.39c-8.73 12.34-14.87 26.37-26.14 37.06-7.18 6.81-15.21 9.26-24.56 5.37-8.62-3.58-16.15-3.29-24.35 2.38-5.5 3.8-12.89 5.23-19.64 6.78-12.63 2.9-25.32 6.28-38.15 7.29-11.46.9-23.16-.93-34.72-1.9-21.42-1.8-41.59-7.93-61.16-16.89-19.31-8.85-39.32-16.15-58.73-24.79-11.83-5.26-23.36-11.32-34.56-17.81-15.02-8.71-24.14-22.85-30.74-38.24-15.63-36.41-12.39-72.64 3.01-108.34 1.57-3.64 3.67-7.08 5.74-10.48 6.39-10.51 16.03-15.7 28.11-16.27 18.81-.9 36.24 2.93 51.54 14.8 14.32 11.11 30.65 18.88 47.62 24.73 20.36 7.02 34.55 20.23 45.28 38.42 7.24 12.27 15.79 23.77 23.63 35.69 4.74 7.2 8.98 14.74 13.92 21.8 4.34 6.19 9.16 12.07 14.07 17.82 18.32 21.46 44.07 25.72 69.84 29.75 2.25.35 4.66.11 6.94-.23 7.87-1.19 15.77-2.29 23.56-3.92 5.99-1.26 11.83-3.26 17.73-4.93.59.64 1.18 1.28 1.78 1.92z"
          fill="#fddd01"/>
</svg>