<svg xmlns="http://www.w3.org/2000/svg" width="2351" height="2351">
    <path d="M0 2351V0h2351v2351H0zm1061.61-1019.5l-.25-.44c6.13.02 12.25.03 18.38.05 1.28.84 3.27 1.41 3.72 2.57 4.26 10.87 8.97 21.65 12.11 32.85 2.75 9.84 2.75 10.73 12.96 10.73 9.09-10.36 17.55-20.84 26.95-30.41 5.86-5.96 13.13-10.54 19.77-15.73 5.53.01 11.06.03 16.58.04 5.96 1.2 11.89 2.56 17.89 3.57 13.2 2.22 26.44 4.27 39.66 6.39 7.96 0 15.91.02 23.87.02 8.11.04 16.21.08 24.32.11 5.13.97 10.46 1.35 15.35 3.03 12.88 4.43 25.58 9.41 38.34 14.18 9.61 3.59 19.21 7.18 28.5 10.65 5.89-1.23 7.94-4.48 7.94-10.58 0-6.45-4.43-7.55-8.43-9.06-5.91-2.24-12.23-3.41-18.18-5.56-14.74-5.33-29.19-11.56-44.12-16.26-9.53-3-13.51-10.14-17.44-17.87-6.98-13.74-7.57-29.24-11.8-43.75-1.2-4.13-2.4-7.51-6.92-8.56-4.82-1.12-7.67 1.86-9.71 5.38-9.22 15.9-18.55 31.75-27.2 47.96-4.35 8.16-8.86 11.71-17.38 10.56-9.59-1.29-19.23-2.35-28.72-4.16-3.55-.68-7.29-2.59-10-5-4.81-4.27-9.24-3.84-14.11-.72-3.91.1-7.82.29-11.73.29-12.1 0-24.19-.06-36.29-.1l-14.41 1.35-3.35.48c-4.86.55-9.72 1.11-14.58 1.66-9.64.94-19.28 1.88-29.16 2.84-4.21 7.09-4.16 7.62 1.4 13.61 5.39 2.81 10.74 2.72 16.06-.17z"
          fill="transparent"/>
    <path d="M1155.24 1331.13c-6.64 5.2-13.91 9.77-19.77 15.73-9.4 9.57-17.86 20.05-26.95 30.41-10.21 0-10.2-.9-12.96-10.73-3.14-11.21-7.85-21.98-12.11-32.85-.46-1.16-2.44-1.73-3.72-2.57-6.12-2.7-12.24-2.66-18.38-.05l.25.44c-5.35.06-10.71.11-16.06.17-5.56-5.99-5.6-6.52-1.4-13.61 9.88-.96 19.52-1.9 29.16-2.84 4.86-.55 9.72-1.11 14.58-1.66 1.12-.16 2.23-.32 3.35-.49l14.17.03c13.29.21 26.58.56 39.87.54 2.8 0 5.6-1.37 8.4-2.11 4.87-3.12 9.3-3.55 14.11.72 2.71 2.41 6.45 4.32 10 5 9.49 1.81 19.13 2.87 28.72 4.16 8.52 1.14 13.03-2.4 17.38-10.56 8.64-16.21 17.98-32.06 27.2-47.96 2.04-3.52 4.89-6.5 9.71-5.38 4.52 1.05 5.72 4.43 6.92 8.56 4.22 14.51 4.82 30.01 11.8 43.75 3.93 7.73 7.91 14.87 17.44 17.87 14.93 4.7 29.38 10.93 44.12 16.26 5.95 2.15 12.27 3.32 18.18 5.56 4 1.52 8.43 2.61 8.43 9.06 0 6.1-2.04 9.35-7.94 10.58-9.28-3.47-18.89-7.06-28.5-10.65-12.77-4.77-25.46-9.75-38.34-14.18-4.89-1.68-10.22-2.06-15.35-3.03-7.73-3.92-15.88-1.25-23.84-1.5-8.11.46-16.23.91-24.34 1.37-13.22-2.12-26.46-4.17-39.66-6.39-5.99-1.01-11.93-2.37-17.89-3.57-5.52-1.74-11.05-3.5-16.58-.04zm-47.89-3.51c-4 .89-8 1.78-12.53 2.79 1.58 10.78 5.65 19.13 10.88 29.36 9.54-10.13 20.31-16.67 26.03-28.29 2.17-3.49-.22-3.95-2.78-3.97-7.2-.04-14.4.06-21.6.1zm127.94-6l4.29 1.17c9.83.21 19.66.6 31.2-.39-3.58-15.63-6.3-29.84-12.9-43.86-2.5 1.92-3.95 2.75-5.05 3.92-9.32 9.94-13.56 22.7-18.93 34.79-.46 1.04.89 2.89 1.4 4.36z"
          fill="#050303"/>
    <path d="M1153.67 1311.53c-2.8.74-5.6 2.1-8.4 2.11-13.29.02-26.58-.32-39.87-.54l.24-1.38c12.1.04 24.19.11 36.29.1 3.91 0 7.82-.19 11.73-.29z"
          fill="#9f6363"/>
    <path d="M1229.38 1341.14c8.11-.46 16.23-.91 24.34-1.37-.16.46-.31.93-.47 1.39-7.96 0-15.91-.02-23.87-.02z"
          fill="#397070"/>
    <path d="M1253.25 1341.16c.16-.46.32-.93.47-1.39 7.96.25 16.11-2.41 23.84 1.5-8.11-.04-16.21-.08-24.32-.11z"
          fill="#8ecece"/>
    <path d="M1061.36 1331.06c6.13-2.61 12.26-2.65 18.38.05-6.13-.02-12.25-.03-18.38-.05z" fill="#376c6c"/>
    <path d="M1155.24 1331.13c5.54-3.46 11.06-1.7 16.58.04-5.53-.01-11.05-.03-16.58-.04z" fill="#4d8585"/>
    <path d="M1045.54 1331.67c5.35-.06 10.71-.11 16.06-.17-5.32 2.9-10.68 2.98-16.06.17z" fill="#bef3f3"/>
    <path d="M1105.65 1311.72l-.24 1.38-14.17-.03 14.41-1.35z" fill="#c69393"/>
    <path d="M1087.88 1313.56c-4.86.55-9.72 1.11-14.58 1.66 4.86-.55 9.72-1.11 14.58-1.66z" fill="#bf8e8e"/>
    <path d="M1235.29 1321.62c-.51-1.47-1.86-3.32-1.4-4.36 5.38-12.1 9.61-24.85 18.93-34.79 1.09-1.17 2.54-2 5.05-3.92 6.6 14.02 9.32 28.23 12.9 43.86-11.53.99-21.37.59-31.2.39l-4.29-1.17zM1131.73 1331.48c-5.72 11.62-16.49 18.17-26.03 28.29-5.23-10.24-9.3-18.58-10.88-29.36 4.53-1.01 8.53-1.9 12.53-2.79 5.1.63 10.21 1.16 15.28 1.92 3.06.46 6.07 1.28 9.1 1.94z"
          fill="#d21414"/>
    <path d="M1131.73 1331.48c-3.03-.66-6.04-1.48-9.1-1.94-5.08-.76-10.19-1.3-15.28-1.92 7.2-.04 14.4-.14 21.6-.1 2.56.01 4.95.48 2.78 3.97z"
          fill="#5a1818"/>
    <path d="M1235.29 1321.62l4.29 1.17-4.29-1.17z" fill="#870f0f"/>
</svg>