<svg xmlns="http://www.w3.org/2000/svg" width="2351" height="2351">
    <path d="M0 2351V0h2351v2351H0zm1347.84-1016.19c-7.96 10.29-14.89 19.21-21.77 28.17-1.65 2.15-3.36 4.49-.58 6.97 3.27 2.91 5.28.36 7.47-1.82 17.97-17.89 32.6-38.53 48.13-58.42 1.19-1.52 2.31-3.42 2.56-5.26.18-1.32-.77-3.59-1.86-4.12-1.54-.75-3.88-.82-5.48-.18-1.3.52-2 2.52-3.01 3.83-6.62 8.61-13.26 17.21-20.59 26.72-2.72-2.38-5.33-4.29-7.47-6.62-4.28-4.65-8.59-9.33-12.39-14.36-19.44-25.76-45.72-42.05-74.55-55.24-28.74-13.15-57.73-13.5-87.43-4.26-12.68 3.94-25.53 7.35-38.24 11.2-4.1 1.24-8.59 2.35-11.89 4.85-8.47 6.41-17.19 12.81-24.34 20.56-17.36 18.81-34.12 38.2-50.61 57.79-5.02 5.97-9.47 12.94-12.2 20.2-3.65 9.7-4.69 11.01-13.89 6.93-3.95-1.75-7.76-3.82-11.75-5.49-1.65-.69-3.58-.7-5.81-1.1-.48 5.44 2.14 8.56 5.62 10.39 12.53 6.61 23.49 16.4 38.21 18.65 3.62.55 7.79 2.74 9.39-2.02 1.66-4.91-3.2-5.68-6.41-7.14-10.83-4.92-11.3-5.77-7.4-17.23 1.16-3.41 2.61-7 4.87-9.73 15.46-18.74 31.12-37.31 46.84-55.84 2.04-2.41 4.8-4.21 8.19-7.12 3.89 4.91 7.56 8.72 10.28 13.12 6.98 11.26 16.21 20.14 27.01 27.65 11.01 7.65 23.12 12.87 35.45 18 12.42 5.17 24.8 9.26 38.31 10.21 19.73 1.37 36.79-4.25 47.82-20.88 12.28-18.5 24.28-37.5 27.76-60.25.17-1.12 1.38-2.08 2.59-3.81 24.52 13.26 37.96 37.09 57.17 55.66z"
          fill="transparent"/>
    <path d="M1347.84 1334.81c-19.21-18.56-32.65-42.4-57.17-55.66-1.21 1.73-2.42 2.69-2.59 3.81-3.47 22.75-15.48 41.74-27.76 60.25-11.03 16.62-28.08 22.25-47.82 20.88-13.51-.94-25.89-5.04-38.31-10.21-12.33-5.13-24.44-10.35-35.45-18-10.8-7.51-20.03-16.39-27.01-27.65-2.72-4.4-6.39-8.21-10.28-13.12-3.39 2.91-6.15 4.72-8.19 7.12-15.72 18.52-31.38 37.09-46.84 55.84-2.25 2.73-3.71 6.32-4.87 9.73-3.9 11.46-3.43 12.31 7.4 17.23 3.21 1.46 8.06 2.23 6.41 7.14-1.61 4.76-5.77 2.57-9.39 2.02-14.71-2.24-25.68-12.04-38.21-18.65-3.48-1.83-6.1-4.95-5.62-10.39 2.23.4 4.16.41 5.81 1.1 3.98 1.67 7.8 3.74 11.75 5.49 9.2 4.08 10.24 2.77 13.89-6.93 2.73-7.26 7.17-14.23 12.2-20.2 16.49-19.59 33.25-38.97 50.61-57.79 7.15-7.75 15.87-14.16 24.34-20.56 3.3-2.5 7.79-3.61 11.89-4.85 12.71-3.85 25.56-7.25 38.24-11.2 29.7-9.24 58.7-8.88 87.43 4.26 28.83 13.19 55.11 29.48 74.55 55.24 3.8 5.04 8.11 9.71 12.39 14.36 2.14 2.33 4.75 4.23 7.47 6.62 7.33-9.51 13.97-18.11 20.59-26.72 1.01-1.31 1.71-3.31 3.01-3.83 1.6-.64 3.94-.57 5.48.18 1.09.53 2.04 2.79 1.86 4.12-.25 1.85-1.37 3.74-2.56 5.26-15.53 19.89-30.16 40.53-48.13 58.42-2.19 2.18-4.2 4.73-7.47 1.82-2.78-2.48-1.08-4.81.58-6.97 6.88-8.96 13.81-17.88 21.77-28.17z"/>
</svg>