<svg xmlns="http://www.w3.org/2000/svg" width="2351" height="2351">
    <path d="M0 2351V0h2351v2351H0zm1243.59-1125.89c-6.71-2.6-13.42-2.79-20.1.1-1.1.67-2.15 1.83-3.3 1.95-16.75 1.73-30.67 9.49-43.66 19.68-14.62 11.47-21.98 26.71-24.59 44.67.03 3.02.07 6.04.1 9.07.35 4.3 1.02 8.59.97 12.89-.11 9.94-.39 19.9-.95 29.82-.44 7.84 2.47 13.76 8.3 17.81 13.14-2 25.74-3.93 38.87-5.93.8 6.75 1.06 12.88 2.36 18.79 1.74 7.93 4.05 15.95 10.79 21.28 3.29 2.59 6.34 5.25 12.04 2.88 10.87-4.52 16.24-10.58 17.09-23.37l.02.16 5.52-23.55 4.26-4.05c7.11-.72 14.32-.94 21.32-2.28 7.98-1.52 8.55-2.78 8.85-11.08.06-1.66-.18-3.38.21-4.96 3.21-12.98 7-25.83 9.66-38.91 1.61-7.93 1.1-16.27 2.3-24.31 1.87-12.51-2.57-23.42-12.72-30.44-9.51-6.58-20.53-6.67-31.31-7.95-2.01-.76-4.02-1.52-6.04-2.29z"
          fill="transparent"/>
    <path d="M1247.05 1351.37c-1.84 7.85-3.68 15.7-5.52 23.54-.46-3.37-1.1-6.73-1.33-10.11-.34-5.23-.39-10.48-.57-15.71-2.14-2.59-4.21-1.64-6.27.11-8.96 1.82-17.92 3.63-27.04 5.48-1.69 6.24 4.56 29.84 7.54 33.49 1.2 1.47 3.34 2.16 5.84 3.69.47-4.55.83-7.8 1.14-11.07.3-3.25.55-6.51.82-9.77.96.04 1.91.09 2.87.13l.83 22.07c7.49-3.14 10.9-8.11 12.15-14.66.46-2.38.47-4.81 3.98-3.8-.85 12.78-6.22 18.85-17.09 23.37-5.71 2.37-8.75-.29-12.04-2.88-6.75-5.32-9.05-13.34-10.79-21.28-1.3-5.91-1.55-12.05-2.36-18.79-13.13 2-25.73 3.93-38.87 5.93-5.82-4.06-8.74-9.98-8.3-17.81.56-9.93.83-19.88.95-29.82.05-4.29-.62-8.59-.97-12.89-.03-3.02-.07-6.04-.1-9.07 2.61-17.96 9.97-33.2 24.59-44.67 12.99-10.19 26.91-17.95 43.66-19.68 1.16-.12 2.2-1.27 3.3-1.95 5.33.2 10.65.39 15.98.59 3.39.53 6.77 1.07 10.16 1.6 10.78 1.27 21.8 1.37 31.31 7.95 10.15 7.02 14.58 17.93 12.72 30.44-1.2 8.04-.69 16.38-2.3 24.31-2.66 13.08-6.45 25.94-9.66 38.91-.39 1.57-.15 3.3-.21 4.96-.3 8.3-.87 9.56-8.85 11.08-7 1.33-14.2 1.56-21.32 2.28-3.49-.82-6.41-1.05-4.26 4.05zm-88.07-17.97l.57.07v10.98c.01 4.9 2.39 7.41 7.38 7.22 3.99-.15 8.01-.05 11.96-.54 20.03-2.49 40.05-5.09 60.06-7.73 8.86-1.17 17.68-2.55 26.54-3.76 4.53-.62 7.06-3.06 8.01-7.56 4.5-21.06 9.37-42.03 13.56-63.15 2.42-12.2-3.92-27.56-13.17-30.97-15.37-5.67-31.31-9.06-47.77-5.06-15.3 3.71-29.62 9.62-41.8 19.98-16.61 14.14-26.3 31.18-23.24 53.85.48 3.57.14 7.31-.18 10.93-.47 5.26-1.27 10.5-1.93 15.74z"
          fill="#0a0404"/>
    <path d="M1241.5 1374.75c-3.52-1.01-3.53 1.42-3.98 3.8-1.25 6.56-4.66 11.53-12.15 14.66l-.83-22.07c-.96-.04-1.91-.09-2.87-.13-.27 3.26-.52 6.52-.82 9.77-.31 3.26-.67 6.52-1.14 11.07-2.49-1.52-4.64-2.22-5.84-3.69-2.98-3.65-9.23-27.25-7.54-33.49 9.12-1.85 18.08-3.66 27.04-5.48 2.09-.04 4.18-.07 6.27-.11.17 5.24.22 10.49.57 15.71.22 3.38.87 6.74 1.33 10.11l-.02-.16z"
          fill="#f65d5d"/>
    <path d="M1239.47 1225.8c-5.33-.2-10.66-.39-15.98-.59 6.69-2.89 13.39-2.7 20.1-.1l-4.12.69z" fill="#dbb8b8"/>
    <path d="M1151.93 1291.51c.03 3.02.07 6.04.1 9.07-.03-3.02-.07-6.04-.1-9.07z" fill="#484646"/>
    <path d="M1239.47 1225.8l4.12-.69c2.01.76 4.02 1.52 6.04 2.29-3.39-.53-6.77-1.07-10.16-1.6z" fill="#360909"/>
    <path d="M1247.05 1351.37c-2.16-5.11.77-4.88 4.26-4.05l-4.26 4.05z" fill="#454949"/>
    <path d="M1158.98 1333.4c.66-5.25 1.46-10.48 1.93-15.74.32-3.63.66-7.36.18-10.93-3.06-22.67 6.63-39.71 23.24-53.85 12.17-10.36 26.5-16.27 41.8-19.98 16.46-3.99 32.4-.61 47.77 5.06 9.25 3.41 15.59 18.77 13.17 30.97-4.19 21.12-9.06 42.09-13.56 63.15-.96 4.49-3.49 6.94-8.01 7.56-8.85 1.21-17.68 2.59-26.54 3.76-20.01 2.64-40.03 5.25-60.06 7.73-3.95.49-7.97.39-11.96.54-4.99.19-7.37-2.32-7.38-7.22-.01-3.66 0-7.32 0-10.98l-.57-.07z"
          fill="#690000"/>
    <path d="M1239.63 1349.09c-2.09.04-4.18.07-6.27.11 2.06-1.75 4.13-2.7 6.27-.11z" fill="#682d2d"/>
</svg>