<svg xmlns="http://www.w3.org/2000/svg" width="2351" height="2351">
    <path d="M0 2351V0h2351v2351H0zm1171.08-1100.27c-15.54.57-36.48 1.21-57.4 2.16-10.6.48-13.24 4.22-11.82 14.55.86 6.23 1.35 12.54 1.53 18.83.4 14.32-2.55 27.21-12.8 38.49-7.05 7.76-12.28 17.35-17.39 26.64-2.83 5.13-4.74 10.5-8.8 15.17-7.88 9.08-6.74 20.43 2.09 28.49 2.9 2.65 6.42 4.78 9.96 6.52 15.71 7.74 22.04 6.66 32.44-7.04 8.01-10.55 14.19-22.54 22.59-32.73 9.58-11.62 17.81-23.93 24.81-37.15 2.56-4.83 6.09-7.4 11.82-7.46 34.92-.37 69.84-.98 104.76-1.4 6.03-.07 10.74 2.29 13.87 7.92 2.74 4.92 6.94 9.11 9.22 14.19 8.52 18.98 23.07 33.24 36.84 48.09 8.24 8.89 18.94 12.04 30.83 10.97 7.85-.7 12.81-4.71 13.45-12.23.84-9.89.99-19.76-4.22-29.12-9.63-17.32-21.58-32.69-35.89-46.35-1.99-1.9-4.04-4.77-4.22-7.32-.78-11.19-.92-22.42-1.2-33.64-.1-3.88-.97-7.19-4.74-9.17-4.36-2.29-5.68-5.76-5.16-10.77.31-3.01-.67-6.7-2.34-9.25-4.56-6.94-14.72-10.15-23.01-8.3-9.19 2.06-16.39 7-22.09 14.38-4.53 5.87-10.02 8.76-17.99 8.38-26.56-1.28-53.16-1.83-85.15-2.83z"
          fill="transparent"/>
    <path d="M1171.08 1250.73c31.99 1 58.59 1.55 85.15 2.83 7.97.38 13.46-2.51 17.99-8.38 5.7-7.38 12.89-12.32 22.09-14.38 8.29-1.85 18.44 1.35 23.01 8.3 1.68 2.55 2.66 6.25 2.34 9.25-.52 5.01.8 8.48 5.16 10.77 3.77 1.98 4.64 5.29 4.74 9.17.28 11.22.42 22.45 1.2 33.64.18 2.55 2.23 5.43 4.22 7.32 14.31 13.66 26.26 29.02 35.89 46.35 5.21 9.36 5.06 19.23 4.22 29.12-.64 7.52-5.59 11.53-13.45 12.23-11.9 1.07-22.59-2.09-30.83-10.97-13.77-14.85-28.32-29.11-36.84-48.09-2.28-5.08-6.49-9.27-9.22-14.19-3.13-5.62-7.83-7.99-13.87-7.92-34.92.43-69.84 1.03-104.76 1.4-5.73.06-9.27 2.62-11.82 7.46-7 13.22-15.23 25.53-24.81 37.15-8.4 10.19-14.58 22.18-22.59 32.73-10.4 13.69-16.72 14.77-32.44 7.04-3.54-1.74-7.06-3.87-9.96-6.52-8.83-8.07-9.97-19.41-2.09-28.49 4.06-4.68 5.97-10.04 8.8-15.17 5.11-9.28 10.33-18.88 17.39-26.64 10.25-11.28 13.2-24.16 12.8-38.49-.18-6.29-.67-12.6-1.53-18.83-1.43-10.33 1.22-14.07 11.82-14.55 20.93-.94 41.87-1.59 57.4-2.16zm90.27 14.59c-2.93-.7-5.35-1.73-7.79-1.79-9.32-.23-18.65.11-27.97-.25-6.47-.25-10.76 2.55-13.96 7.78-2.95 4.82-6.02 9.57-8.94 14.42-2.12 3.52-4.17 6.9-9.15 6.3-4.92-.6-7.64-3.9-9.45-7.96-1.76-3.93-2.97-8.11-4.5-12.15-1.73-4.55-3.93-8.3-9.82-8.32-5.44-.02-8.59 2.58-10.91 7.14-3.33 6.51-6.84 12.94-10.41 19.32-5.5 9.81-10.55 9.97-16.44.54-1.05-1.68-1.87-3.53-2.63-5.38-2.15-5.22-4.12-10.53-6.36-15.71-1.38-3.19-3.52-5.97-7.51-5.27-4.37.77-4.32 4.42-4.3 7.83.05 8.58.26 17.16.14 25.74-.07 4.86 1.71 7.41 6.82 7.74 6.95.45 13.88 1.24 20.8 2.02 6.09.69 10.93-1.3 15.25-5.66 5.1-5.14 8.26-11.03 9.82-18.11.73-3.35 1.74-7.72 6.57-7.58 4.98.14 7.74 3.31 8.74 8.09.75 3.58 1.46 7.16 2.29 10.72 1.55 6.69 5.85 10.16 12.64 10.74 12.77 1.08 25.34-.27 37.35-4.58 16.29-5.84 25.75-17.8 29.7-35.62zM1083.52 1398c9.29 1.15 9.56 1.35 13.2-3.56 7.29-9.86 14.29-19.95 21.33-29.99 4.76-6.8 9.47-13.65 14.04-20.58 3.47-5.26 6.95-10.54 9.91-16.09 1.42-2.68 1.64-6 2.8-10.61-9.21 0-16.84.64-24.3-.2-6.05-.68-9.82 1.16-13.82 5.52-14.59 15.89-24.31 34.81-34.35 53.56-1.38 2.58-2.87 5.7-2.61 8.4.23 2.44 2.79 4.65 4.32 6.97 1.75-1.22 4-2.08 5.15-3.71 6.68-9.51 12.96-19.29 19.68-28.77 2.13-3 5.19-5.34 7.83-7.98.7.39 1.41.78 2.11 1.18-.21 1.99.15 4.29-.74 5.91-2.71 4.93-5.94 9.58-8.9 14.37-4.98 8.08-9.91 16.19-15.65 25.58zm278.4-6.72c7.06-9.28 6.55-17.59 3.54-25.9-4.46-12.32-11.8-22.77-20.31-32.84-16.71-19.76-10.57-18.78-40.1-17.94-2.94.08-7.44 1.58-8.28 3.62-.87 2.11 1.44 5.95 3.06 8.6 5.02 8.21 10.73 16.01 15.51 24.34 8.21 14.31 20.97 23.9 34.33 35.79-1.31-12.8-13.5-18.14-13.37-29.38 12.64 7.47 19.52 19.5 25.63 33.69zm-66.94-150.11c-5.53.9-9.23 4.32-11.82 8.42-4.06 6.43-8.41 13-10.73 20.14-3.72 11.45-9.98 20.92-18.06 29.5-1.42 1.51-2.47 3.35-4.05 5.54 25.87.32 31.52-1.39 42.36-15.88 6.31-8.43 11.14-18.16 15.41-27.85 2.28-5.17 4.37-11.34 1.91-18.76-7.21 8.38-12.72 16.11-16.52 25.06-1.68 3.96-3.69 7.84-6.08 11.41-.87 1.3-3.52 2.51-4.86 2.1-1.5-.45-3.16-2.66-3.44-4.32-.36-2.15.01-4.84 1.08-6.73 3.4-6.04 7.1-11.93 11.01-17.66 2.18-3.19 5.63-5.72 3.77-10.99zm23.88 28.47c-9.66 11.2-15.25 22.57-22.67 33.86h23.08c4.05 0 6.09-2.1 6.3-6.1.47-9.1-1.9-17.5-6.72-27.75zm-184.51-5.88c2.02 6.58 3.53 11.52 5.57 18.17 3.77-7.16 6.5-12.37 9.55-18.17h-15.12zm58.06 11.67c6-2.7 8.94-5.71 6.95-11.66h-11.39c1.68 4.42 2.97 7.8 4.44 11.66zm-27.8 27.7c3.72.95 6.02 1.55 8.77 2.25 1.05-4.51-.41-6.6-4.03-7.99-1.45 1.75-2.64 3.2-4.74 5.74z"
          fill="#0c0707"/>
    <path d="M1261.36 1265.32c-3.95 17.82-13.41 29.78-29.7 35.62-12.02 4.31-24.58 5.66-37.35 4.58-6.79-.57-11.09-4.05-12.64-10.74-.82-3.56-1.54-7.14-2.29-10.72-1-4.78-3.76-7.95-8.74-8.09-4.84-.14-5.84 4.23-6.57 7.58-1.55 7.08-4.71 12.97-9.82 18.11-4.32 4.36-9.17 6.35-15.25 5.66-6.92-.79-13.85-1.58-20.8-2.02-5.11-.33-6.89-2.88-6.82-7.74.11-8.58-.09-17.16-.14-25.74-.02-3.4-.08-7.06 4.3-7.83 3.99-.7 6.13 2.08 7.51 5.27 2.24 5.18 4.21 10.49 6.36 15.71.76 1.84 1.58 3.69 2.63 5.38 5.89 9.42 10.94 9.27 16.44-.54 3.58-6.38 7.08-12.81 10.41-19.32 2.33-4.55 5.47-7.15 10.91-7.14 5.88.02 8.09 3.77 9.82 8.32 1.53 4.04 2.74 8.22 4.5 12.15 1.82 4.06 4.53 7.35 9.45 7.96 4.97.61 7.03-2.78 9.15-6.3 2.91-4.84 5.99-9.59 8.94-14.42 3.2-5.23 7.49-8.03 13.96-7.78 9.31.36 18.65.03 27.97.25 2.44.06 4.87 1.09 7.79 1.79z"
          fill="#870000"/>
    <path d="M1083.53 1397.99c5.74-9.39 10.67-17.5 15.65-25.58 2.96-4.8 6.19-9.44 8.9-14.37.89-1.62.53-3.92.74-5.91-.7-.39-1.41-.78-2.11-1.18-2.64 2.64-5.7 4.98-7.83 7.98-6.72 9.48-13.01 19.26-19.68 28.77-1.15 1.64-3.41 2.49-5.15 3.71-1.53-2.31-4.09-4.53-4.32-6.97-.26-2.71 1.23-5.82 2.61-8.4 10.04-18.75 19.76-37.67 34.35-53.56 4-4.36 7.77-6.2 13.82-5.52 7.46.84 15.09.2 24.3.2-1.16 4.61-1.38 7.93-2.8 10.61-2.95 5.55-6.44 10.83-9.91 16.09-4.57 6.93-9.28 13.77-14.04 20.58-7.04 10.05-14.04 20.13-21.33 29.99-3.63 4.91-3.91 4.71-13.2 3.56z"
          fill="#f56969"/>
    <path d="M1361.93 1391.27c-6.1-14.19-12.99-26.22-25.63-33.69-.13 11.23 12.06 16.58 13.37 29.38-13.36-11.9-26.12-21.48-34.33-35.79-4.78-8.34-10.49-16.13-15.51-24.34-1.62-2.65-3.93-6.48-3.06-8.6.84-2.05 5.34-3.54 8.28-3.62 29.54-.84 23.39-1.82 40.1 17.94 8.51 10.06 15.85 20.51 20.31 32.84 3.01 8.31 3.51 16.62-3.54 25.9z"
          fill="#f46868"/>
    <path d="M1294.99 1241.16c1.86 5.27-1.59 7.79-3.77 10.99-3.91 5.73-7.61 11.62-11.01 17.66-1.06 1.89-1.44 4.58-1.08 6.73.28 1.66 1.94 3.86 3.44 4.32 1.34.4 3.99-.8 4.86-2.1 2.38-3.57 4.39-7.45 6.08-11.41 3.8-8.95 9.31-16.68 16.52-25.06 2.46 7.43.37 13.59-1.91 18.76-4.28 9.69-9.1 19.42-15.41 27.85-10.85 14.49-16.5 16.19-42.36 15.88 1.58-2.19 2.64-4.04 4.05-5.54 8.07-8.59 14.34-18.06 18.06-29.5 2.32-7.13 6.66-13.71 10.73-20.14 2.59-4.09 6.29-7.51 11.82-8.42z"
          fill="#e66"/>
    <path d="M1318.87 1269.63c4.81 10.25 7.18 18.64 6.72 27.75-.2 4.01-2.25 6.1-6.3 6.1-7.3.01-14.61 0-23.08 0 7.42-11.29 13.01-22.65 22.67-33.86z"
          fill="#870000"/>
    <path d="M1134.36 1263.75h15.12c-3.05 5.81-5.79 11.01-9.55 18.17-2.04-6.65-3.55-11.59-5.57-18.17z" fill="#e3e8e8"/>
    <path d="M1192.42 1275.41l-4.44-11.66h11.39c1.99 5.95-.96 8.97-6.95 11.66z" fill="#eceded"/>
    <path d="M1164.62 1303.11c2.1-2.54 3.3-3.99 4.74-5.74 3.62 1.39 5.08 3.48 4.03 7.99-2.75-.71-5.05-1.3-8.77-2.25z"
          fill="#d6dcdc"/>
</svg>