<svg xmlns="http://www.w3.org/2000/svg" width="2351" height="2351">
    <path d="M0 2351V0h2351v2351H0zm1250.16-994.06c9.7 4.64 10.54 4.41 15.52-4.52 3.7-6.62 7.23-13.34 11.04-19.89.96-1.65 2.46-3.38 4.14-4.16 8.05-3.75 16.24-7.2 24.42-10.67.38-.16 1.13.55 1.77.89 3.51 20.83-5.2 40.27-6.12 59.08-5.7 4.76-11.03-2.68-15.97 1.86 7.35 9.23 33.83 11.43 46.22 3.87-5.32-4.59-11.82-.36-17.7-2.95-.37-1.5-1.31-3.39-1.17-5.19.38-4.63 1.04-9.27 1.96-13.82 3.51-17.36 6.48-34.89 3-52.48-3.7-18.72 2.19-35.11 10.08-51.33.69-1.41 1.1-2.96 1.57-4.27-6.51-5.29-10.58-5.59-17.23-1.31-4.07 2.62-7.97 5.5-10.7 7.39-15.67-6.64-20.63-16.85-16.07-31.64 1.25-4.05 1.86-8.77-3.34-11.27-5.74-2.76-7.39 2.74-10.39 5.33-3.07 2.64-4.51 7.39-10.09 7.53-1.69-7.48-3.53-14.73-4.92-22.07-1.08-5.69-4.39-7.71-9.52-7.44-2.85 5.54-6.03 10.58-8.09 16.03-2.16 5.7-3.26 11.81-4.86 17.87-7.07-1.08-8.63-6.25-10.31-10.66-2.1-5.49-6.12-8.64-10.97-10.98-5.13-2.49-7.77-1.11-9.74 4.43-2.3 6.49-4.45 13.04-7.04 19.41-1.44 3.54-3.66 6.76-6.14 11.24-3.65-3.12-6.4-5.36-9.01-7.75-2.7-2.47-5.1-5.29-7.93-7.6-4.7-3.85-9.77-5.37-14.8-1.6.75 9.13 1.38 17.7 2.18 26.26.4 4.33-.57 7.69-4.59 10.15-13.26 8.12-20.96 21.53-28.64 33.98-12.67 20.57-23.83 42.27-27.89 66.63-7.12 2.36-13.88 4.59-20.69 6.84 1.33 6.53 4.85 5.41 8.6 4.78 18.98-3.15 37.89-7.26 57.35-5.7 4.14.33 8-.32 12.76-4.3-9.75-1.81-17.47-4.18-25.25-4.41-7.68-.23-15.43 1.68-24.46 2.82.43-5.04-.16-8.94 1.17-12 6.23-14.31 12.66-28.56 19.72-42.48 2.94-5.79 7.63-10.68 12.12-16.77 5.44 4.9 10.02 9.02 14.28 12.86-3.04 7.4-5.98 13.69-8.13 20.24-.68 2.06.75 4.82 1.22 7.25 2.39-.58 5.32-.49 7.05-1.89 4.12-3.33 7.66-7.38 11.46-11.11 2.66-2.61 5.41-3.74 9.2.42-1.67 3.15-3.39 6.58-5.3 9.91-1.64 2.87-3.63 5.53-5.2 8.43-1.84 3.4-.96 7 1.82 8.99 2.12 1.52 5.93 2.53 8.17 1.66 4.22-1.63 8.28-4.32 11.6-7.43 3.08-2.89 4.89-7.09 7.7-10.33 1.81-2.08 4.42-4.85 6.69-4.86 4.13-.02 3.07 4.34 3.42 7.06.6 4.62.8 9.28 1.18 13.93.16 1.99-.33 4.45.67 5.86 1.76 2.5 4.14 5.07 6.84 6.16 1.19.48 4.36-2.21 5.67-4.12 3.38-4.93 5.76-10.58 9.42-15.26 3.4-4.34 7.56-8.35 12.09-11.48 3.86-2.66 6.99-.92 7.81 3.93 1.1 6.52 1.49 13.16 2.28 20.61z"
          fill="transparent"/>
    <path d="M1250.16 1356.94c-.79-7.45-1.19-14.09-2.28-20.61-.81-4.85-3.95-6.59-7.81-3.93-4.53 3.13-8.69 7.13-12.09 11.48-3.66 4.68-6.04 10.33-9.42 15.26-1.31 1.91-4.49 4.6-5.67 4.12-2.7-1.1-5.08-3.66-6.84-6.16-.99-1.41-.51-3.87-.67-5.86-.38-4.65-.58-9.31-1.18-13.93-.35-2.72.7-7.08-3.42-7.06-2.26 0-4.88 2.78-6.69 4.86-2.81 3.24-4.62 7.45-7.7 10.33-3.32 3.11-7.38 5.8-11.6 7.43-2.24.87-6.05-.14-8.17-1.66-2.78-1.99-3.66-5.59-1.82-8.99 1.57-2.9 3.56-5.57 5.2-8.43 1.9-3.33 3.63-6.77 5.3-9.91-3.79-4.16-6.55-3.03-9.2-.42-3.8 3.73-7.34 7.78-11.46 11.11-1.73 1.4-4.66 1.3-7.05 1.89-.47-2.44-1.9-5.19-1.22-7.25 2.15-6.55 5.08-12.84 8.13-20.24-4.26-3.84-8.84-7.96-14.28-12.86-4.48 6.1-9.18 10.99-12.12 16.77-7.06 13.91-13.49 28.16-19.72 42.48-1.33 3.06-.75 6.95-1.17 12 9.03-1.14 16.78-3.06 24.46-2.82 7.78.24 15.5 2.61 25.25 4.41-4.76 3.98-8.62 4.63-12.76 4.3-19.46-1.57-38.36 2.54-57.35 5.7-3.76.62-7.27 1.74-8.6-4.78 6.8-2.25 13.56-4.49 20.69-6.84 4.06-24.36 15.22-46.06 27.89-66.63 7.67-12.45 15.38-25.86 28.64-33.98 4.02-2.46 4.99-5.81 4.59-10.15-.8-8.56-1.43-17.13-2.18-26.26 5.03-3.77 10.09-2.25 14.8 1.6 2.82 2.31 5.23 5.13 7.93 7.6 2.61 2.39 5.36 4.63 9.01 7.75 2.48-4.48 4.7-7.7 6.14-11.24 2.59-6.37 4.73-12.92 7.04-19.41 1.97-5.54 4.6-6.92 9.74-4.43 4.84 2.35 8.87 5.49 10.97 10.98 1.68 4.41 3.24 9.57 10.31 10.66 1.6-6.07 2.7-12.17 4.86-17.87 2.07-5.45 5.24-10.48 8.09-16.03 5.13-.27 8.44 1.75 9.52 7.44 1.39 7.34 3.23 14.59 4.92 22.07 5.58-.14 7.02-4.9 10.09-7.53 3-2.58 4.65-8.09 10.39-5.33 5.2 2.5 4.59 7.23 3.34 11.27-4.55 14.79.41 25 16.07 31.64 2.72-1.89 6.63-4.77 10.7-7.39 6.65-4.29 10.72-3.98 17.23 1.31-.48 1.31-.89 2.86-1.57 4.27-7.89 16.22-13.78 32.61-10.08 51.33 3.48 17.59.52 35.11-3 52.48-.92 4.56-1.58 9.19-1.96 13.82-.15 1.8.8 3.69 1.17 5.19 5.88 2.59 12.38-1.64 17.7 2.95-12.39 7.57-38.87 5.36-46.22-3.87 4.94-4.54 10.26 2.9 15.97-1.86.92-18.81 9.64-38.25 6.12-59.08-.64-.34-1.39-1.05-1.77-.89-8.18 3.47-16.37 6.92-24.42 10.67-1.68.78-3.18 2.51-4.14 4.16-3.81 6.55-7.35 13.27-11.04 19.89-4.98 8.93-5.82 9.15-15.52 4.52zm-43.67-70.46c-9.32-4.35-13.45-10.78-17.66-17.1-4.7-7.07-6.73-7.64-14.69-4.45-8.28 3.31-14.53 9.19-20.6 15.43-8.35 8.58-9.08 10.61.5 18.08 10.32 8.05 22.06 14.3 33.27 21.18 1.56.96 3.69 1 6.33 1.66 6.44-7.26 12.94-14.34 19.13-21.68 2.88-3.41 6.04-5.22 10.42-3.88 4.11 1.25 5.31 4.8 5.89 8.5.36 2.28.15 4.65.27 6.98.17 3.17.41 6.33.66 10.25 7.85-3.03 12.5-7.57 15.72-14.14 1.85-3.78 4.41-7.52 7.51-10.32 3.7-3.33 7.75-1.85 9.19 2.97.84 2.8.63 5.91 1 8.86 1.17 9.38 4.9 12.64 14.04 10.29 6.64-1.71 12.97-4.99 19.1-8.2 7.13-3.73 6.92-4.03 5.69-12.27-.23-1.56-.2-3.31.26-4.81 2.66-8.61-.64-15.46-5.77-21.91-12.56 1.78-16.03 16.12-27.2 18.99-6.84-5.39-7.06-5.82-5.52-12.39.76-3.23 2.43-6.41 2.44-9.62.03-6.36 4.28-12.47 1.72-18.95-5.72-1.11-7.64 3.01-9.83 6.07-3.09 4.31-5.38 9.2-8.42 13.55-3.41 4.87-6.54 5.16-10.49.64-2.55-2.91-4.02-6.77-6.04-10.15-2.03-3.39-3.65-7.21-6.33-9.99-3.97-4.12-7.76-2.93-9.64 2.47-.87 2.5-1.22 5.18-2.05 7.7-2.78 8.4-5.67 16.76-8.89 26.23zm.33-35.94c-5.65 2.92-9.53 4.92-14.1 7.27 2.33 4.39 4.19 7.9 6.29 11.84 6.85-4.75 7.8-10.46 7.81-19.12zm11.75 54.51c-5.07 5.36-10.06 9.13-11.89 16.71 3.59.55 6.62 1.02 9.7 1.49 2.68-5.93 5.33-10.86 2.19-18.2zm-12.61-65.74c5.86-.74 9.89-1.26 14.12-1.79-.46-6.69-2.33-11.48-8.18-14.83-1.92 5.37-3.63 10.17-5.94 16.63zm37.19 20.95c3.69-6.69 5.94-10.75 9.25-16.75-6.84.9-11.69 1.53-17.66 2.31 2.94 5.05 5.12 8.79 8.41 14.44zm46.19 3.1c-2.37-5.59-5.38-7.26-9.81-4.49-3.9 2.43-4.25 6.33-.96 12.14 3.68-2.61 7.29-5.18 10.77-7.65zm-48.19-27.81c4.02-.85 6.93-.59 8.25-1.92 3.23-3.26 2.15-9.8-2.46-16.33-1.85 5.83-3.48 10.99-5.78 18.25zm-67.54 109.61c8.65-5.96 10.33-8.33 12.69-17.15-5.74 1.22-8.82 5.19-12.69 17.15zm40.39-15.07c-.43 4.01-1.86 8.54 2.92 9.16 5.67.74 7.05-4.38 8.46-9.73-4.05.2-7.5.37-11.38.57zm-43.88-72.98c3.98-2.66 6.41-4.29 9.82-6.57-3.65-3.48-6.28-5.99-9.94-9.49-.46 3.66-.9 5.51-.87 7.36.04 2.21.48 4.42.99 8.7zm74.25 65.58c10.82-.2 12.3-2.14 8.01-9.43-2.54 2.99-4.92 5.79-8.01 9.43zm14.12 17.37c3.86-1.52 5.16-3.81 4.27-6.98-.16-.57-2.41-1.23-3.17-.84-3.31 1.7-3.28 4.35-1.1 7.82zm57.47-76.68q-6.63 2.93-5.42 8.47c2.05-3.2 3.74-5.83 5.42-8.47z"
          fill="#0d0a0a"/>
    <path d="M1206.49 1286.49c3.22-9.47 6.11-17.83 8.89-26.23.83-2.52 1.18-5.2 2.05-7.7 1.88-5.41 5.67-6.59 9.64-2.47 2.68 2.78 4.31 6.6 6.33 9.99 2.02 3.39 3.49 7.24 6.04 10.15 3.95 4.52 7.08 4.22 10.49-.64 3.05-4.35 5.33-9.24 8.42-13.55 2.19-3.05 4.11-7.17 9.83-6.07 2.57 6.48-1.68 12.59-1.72 18.95-.02 3.21-1.68 6.39-2.44 9.62-1.54 6.57-1.31 7 5.52 12.39 11.18-2.87 14.65-17.21 27.2-18.99 5.13 6.44 8.42 13.29 5.77 21.91-.46 1.49-.49 3.24-.26 4.81 1.22 8.24 1.43 8.54-5.69 12.27-6.13 3.21-12.46 6.49-19.1 8.2-9.14 2.35-12.87-.91-14.04-10.29-.37-2.96-.16-6.06-1-8.86-1.44-4.82-5.49-6.3-9.19-2.97-3.1 2.8-5.66 6.53-7.51 10.32-3.22 6.57-7.87 11.11-15.72 14.14-.26-3.92-.5-7.09-.66-10.25-.12-2.33.09-4.69-.27-6.98-.58-3.71-1.78-7.25-5.89-8.5-4.38-1.34-7.54.47-10.42 3.88-6.19 7.34-12.69 14.42-19.13 21.68-2.63-.66-4.76-.7-6.33-1.66-11.22-6.88-22.95-13.13-33.27-21.18-9.58-7.47-8.85-9.51-.5-18.08 6.08-6.24 12.32-12.12 20.6-15.43 7.96-3.19 9.99-2.63 14.69 4.45 4.21 6.32 8.34 12.76 17.66 17.1z"
          fill="#800"/>
    <path d="M1206.82 1250.55c0 8.66-.96 14.36-7.81 19.12-2.09-3.95-3.96-7.45-6.29-11.84 4.56-2.35 8.44-4.36 14.1-7.27z"
          fill="#dbdddd"/>
    <path d="M1218.57 1305.05c3.14 7.35.49 12.27-2.19 18.2-3.08-.47-6.11-.94-9.7-1.49 1.83-7.58 6.82-11.35 11.89-16.71z"
          fill="#dedede"/>
    <path d="M1205.96 1239.32c2.31-6.46 4.02-11.26 5.94-16.63 5.85 3.35 7.72 8.15 8.18 14.83-4.23.54-8.26 1.05-14.12 1.79z"
          fill="#e1e1e1"/>
    <path d="M1243.15 1260.27c-3.29-5.65-5.47-9.39-8.41-14.44 5.97-.78 10.83-1.42 17.66-2.31-3.31 6-5.56 10.07-9.25 16.75z"
          fill="#dce1e1"/>
    <path d="M1289.34 1263.37c-3.48 2.47-7.09 5.04-10.77 7.65-3.29-5.81-2.94-9.71.96-12.14 4.43-2.77 7.44-1.1 9.81 4.49z"
          fill="#dfe2e2"/>
    <path d="M1241.15 1235.56c2.3-7.26 3.94-12.42 5.78-18.25 4.61 6.53 5.69 13.07 2.46 16.33-1.31 1.33-4.23 1.07-8.25 1.92z"
          fill="#d7d7d7"/>
    <path d="M1173.61 1345.17c3.87-11.95 6.94-15.92 12.69-17.15-2.36 8.82-4.04 11.19-12.69 17.15z" fill="#d0d5d5"/>
    <path d="M1214 1330.1c3.88-.19 7.33-.36 11.38-.57-1.41 5.35-2.79 10.47-8.46 9.73-4.77-.62-3.35-5.16-2.92-9.16z"
          fill="#d1dada"/>
    <path d="M1170.12 1257.11c-.51-4.28-.95-6.48-.99-8.7-.03-1.85.41-3.7.87-7.36 3.66 3.5 6.29 6 9.94 9.49-3.41 2.28-5.84 3.91-9.82 6.57z"
          fill="#dde1e1"/>
    <path d="M1244.37 1322.69c3.09-3.63 5.47-6.44 8.01-9.43 4.29 7.29 2.81 9.23-8.01 9.43z" fill="#c4caca"/>
    <path d="M1258.49 1340.06c-2.17-3.47-2.21-6.12 1.1-7.82.77-.39 3.01.27 3.17.84.89 3.17-.41 5.45-4.27 6.98z"
          fill="#d0d8d8"/>
    <path d="M1315.96 1263.37c-1.69 2.64-3.38 5.27-5.42 8.47q-1.2-5.54 5.42-8.47z" fill="#cfd7d7"/>
</svg>