<svg xmlns="http://www.w3.org/2000/svg" width="2351" height="2351">
    <path d="M0 2351V0h2351v2351H0zm1055.03-1086.98c3.26 5.55 7.29 7.49 12.78 7.91 9.73.73 12.22 2.74 13.79 12.44 2.7 16.68 11.4 29.58 23.74 40.44 3.24 2.86 6.58 5.63 10.06 8.19 16.92 12.49 36.28 19.25 56.44 24.32 5.72 1.44 11.06 4.36 16.68 6.27 3.99 1.35 8.11 2.63 12.26 3.08 5.92.64 11.97.07 17.89.76 25.69 2.97 49.57-2.34 72.07-14.82 8.43-4.67 17.23-8.68 25.62-13.44 5.75-3.26 11.43-6.86 16.48-11.1 6.08-5.1 11.48-11.02 17.14-16.63 5.05-5.01 9.05-10.71 10.53-17.79 2.37-11.28 8.24-21.78 7.03-33.88-.4-3.98 2.38-5.91 6.45-5.73 1.99.09 4.14.38 5.95-.21 2.29-.74 4.32-2.3 6.46-3.5-1.42-2.07-2.42-4.81-4.37-6.05-2.69-1.7-6.05-3.03-9.2-3.19-11.96-.59-23.97-1.33-35.9-.67-8.4.47-16.58 3.38-23.66 8.22 3.51 7.92 5.88 9.75 13.66 10.74 4.62.59 9.31.64 13.9 1.4 8.76 1.45 11.23 5.08 7.94 13.08-3.41 8.28-7.36 16.43-12.03 24.06-6.48 10.6-11.12 11.34-23.61 8.37-12.58-2.99-25.42-4.91-38.21-6.91-1.76-.27-4.82 1.23-5.55 2.75-.77 1.6.03 4.47 1.05 6.27 1.09 1.94 3.26 3.26 4.92 4.89 5.79 5.72 9.92 12.31 11.22 20.72-1.75 1.49-3.12 2.93-4.75 3.99-9.61 6.25-14.54 4.48-17.08-6.69-1.62-7.11-2.05-14.49-3.42-21.67-.8-4.17-1.61-8.7-3.82-12.17-4.26-6.7-12.34-5.87-15.8 1.26-1.59 3.27-2.99 6.77-3.7 10.32-3.03 15.17-11.45 27.54-20.31 39.65-1.41 1.92-4.57 4.57-5.9 4.08-2.34-.86-4.58-3.58-5.62-6.04-2.75-6.53-1.17-13.03 1.36-19.38 2.71-6.8 5.46-13.59 7.73-20.54 1.83-5.61-.02-9.19-4.78-11.59-4.55-2.29-7.71-.33-10.27 3.21-2.93 4.04-5.72 8.19-8.41 12.39-6.95 10.87-16.33 19.26-26.87 26.42-5.84 3.97-7.46 3.66-14.02-1.66.96-2.65 1.95-5.43 2.98-8.21 4.03-10.92 8.01-21.86 12.15-32.74 1.78-4.67.74-8.58-2.9-11.68-3.76-3.2-8.03-2.76-12.16-.7-1.77.88-3.3 2.23-4.95 3.35-9.59 6.55-19.11 13.22-28.81 19.62-6.25 4.12-10.8 3.27-13.54-3.81-3.32-8.59-5.35-17.72-7.38-26.74-1.03-4.58 1.9-7.56 6.23-8.84 2.86-.85 5.93-1.08 8.71-2.13 1.68-.63 4.22-2.38 4.15-3.48-.13-1.96-1.55-4.89-3.14-5.47-4.25-1.57-8.95-3.15-13.33-2.83-8.93.65-17.84 2.19-26.61 4.06-6.02 1.28-12.42 2.42-17.26 8z"
          fill="transparent"/>
    <path d="M1055.03 1264.02c4.84-5.58 11.24-6.71 17.26-8 8.77-1.87 17.68-3.41 26.61-4.06 4.38-.32 9.08 1.27 13.33 2.83 1.59.59 3.01 3.52 3.14 5.47.07 1.1-2.47 2.84-4.15 3.48-2.77 1.05-5.84 1.28-8.71 2.13-4.33 1.28-7.26 4.26-6.23 8.84 2.03 9.02 4.07 18.15 7.38 26.74 2.74 7.08 7.28 7.93 13.54 3.81 9.7-6.4 19.21-13.06 28.81-19.62 1.65-1.13 3.18-2.47 4.95-3.35 4.13-2.07 8.4-2.5 12.16.7 3.64 3.1 4.68 7 2.9 11.68-4.14 10.88-8.11 21.82-12.15 32.74-1.03 2.77-2.02 5.56-2.98 8.21 6.56 5.33 8.18 5.63 14.02 1.66 10.54-7.17 19.93-15.56 26.87-26.42 2.69-4.2 5.48-8.35 8.41-12.39 2.56-3.53 5.71-5.5 10.27-3.21 4.76 2.4 6.62 5.98 4.78 11.59-2.27 6.95-5.03 13.74-7.73 20.54-2.53 6.36-4.1 12.85-1.36 19.38 1.04 2.47 3.28 5.18 5.62 6.04 1.32.49 4.49-2.16 5.9-4.08 8.87-12.11 17.29-24.48 20.31-39.65.71-3.55 2.11-7.04 3.7-10.32 3.45-7.13 11.54-7.96 15.8-1.26 2.21 3.47 3.02 8 3.82 12.17 1.37 7.18 1.8 14.56 3.42 21.67 2.54 11.16 7.48 12.93 17.08 6.69 1.63-1.06 3-2.51 4.75-3.99-1.3-8.41-5.43-15-11.22-20.72-1.66-1.64-3.83-2.96-4.92-4.89-1.02-1.81-1.82-4.68-1.05-6.27.73-1.52 3.79-3.02 5.55-2.75 12.79 2 25.63 3.92 38.21 6.91 12.49 2.97 17.13 2.23 23.61-8.37 4.66-7.63 8.62-15.79 12.03-24.06 3.29-7.99.82-11.62-7.94-13.08-4.58-.76-9.28-.81-13.9-1.4-7.78-.99-10.15-2.83-13.66-10.74 7.08-4.84 15.26-7.75 23.66-8.22 11.92-.66 23.94.08 35.9.67 3.14.16 6.51 1.49 9.2 3.19 1.95 1.24 2.95 3.98 4.37 6.05-2.14 1.2-4.17 2.76-6.46 3.5-1.82.59-3.96.3-5.95.21-4.07-.18-6.85 1.75-6.45 5.73 1.22 12.1-4.66 22.61-7.03 33.88-1.49 7.08-5.48 12.78-10.53 17.79-5.66 5.61-11.06 11.52-17.14 16.63-5.05 4.24-10.73 7.83-16.48 11.1-8.38 4.76-17.18 8.76-25.62 13.44-22.5 12.47-46.38 17.79-72.07 14.82-5.91-.68-11.97-.11-17.89-.76-4.15-.45-8.28-1.73-12.26-3.08-5.63-1.91-10.96-4.83-16.68-6.27-20.16-5.07-39.52-11.83-56.44-24.32-3.48-2.57-6.81-5.34-10.06-8.19-12.34-10.86-21.04-23.75-23.74-40.44-1.57-9.7-4.06-11.71-13.79-12.44-5.49-.41-9.53-2.36-12.78-7.91zm66.28 55.88c5.41 7.68 8.99 9.77 11.88 6.54 5.33-5.96 10.53-12.31 12.76-22.87-10.15 4.59-17.04 10.33-24.64 16.33zm115.57 33.43c8.48 1.39 12.71.38 14.15-2.54 1.81-3.67-.69-8.82-6.99-13.21-2.29 5.04-4.5 9.9-7.16 15.75zm59.37-36.13c5.61 10.16 6.91 10.24 13.21 2.28-4.11-.71-7.79-1.35-13.21-2.28z"/>
    <path d="M1121.31 1319.89c7.6-6.01 14.48-11.75 24.64-16.33-2.23 10.57-7.43 16.91-12.76 22.87-2.89 3.23-6.47 1.14-11.88-6.54zM1236.87 1353.32c2.66-5.85 4.87-10.71 7.16-15.75 6.29 4.4 8.79 9.54 6.99 13.21-1.44 2.92-5.67 3.93-14.15 2.54z"
          fill="#fff"/>
    <path d="M1296.25 1317.19c5.41.94 9.1 1.57 13.21 2.28-6.3 7.96-7.6 7.87-13.21-2.28z" fill="transparent"/>
</svg>