<svg xmlns="http://www.w3.org/2000/svg" width="2351" height="2351">
    <path d="M0 2351V0h2351v2351H0zm1259.73-1021.24c1.74 4.91 3.89 10.06 5.41 15.4 3.48 12.25 10.1 22.47 19.85 30.46 3.76 3.08 8.31 5.71 12.93 7.11 9.81 2.97 16.04-.5 19.46-10.22 5.37-15.3 6.09-30.59-1.09-45.63-2-4.2-4.2-8.31-6.09-12.56-2.46-5.54-2.16-7.98 3.28-10.66 9.95-4.91 16.89-12.66 22.78-21.61 5.62-8.54 7.55-17.84 3.37-27.41-4.23-9.71-12.75-12.78-22.78-13.15-10.59-.38-21.18-1.93-31.74-1.68-18.28.42-36.53 1.78-54.79 2.85-12.61.74-25.21 1.7-37.83 2.45-5.62.34-11.28.16-16.89.65-23.42 2.06-46.37 8.71-70.17 7.16-4.05-.26-6.2 1.67-6.26 5.88-.28 21.41 5.27 40.21 23.77 53.19 2.99 2.1 6.26 3.78 9.31 5.79 8.27 5.44 17.38 7.66 26.46 9.51 12.55 2.56 24.77 6.72 38.1 10.46-5.35 14.15-10.42 27.4-15.34 40.7-2.28 6.17-4.97 12.32-6.22 18.72-1.79 9.11 3.2 18.74 10.2 21.97 7.05 3.24 14.73 1.56 21.46-5.94 5.76-6.41 11.01-13.37 15.81-20.54 11-16.41 18.28-34.61 23.67-53.5 2.33-8.15 2.13-8.59 13.33-9.39z"
          fill="transparent"/>
    <path d="M1259.73 1329.76c-11.2.8-11 1.24-13.33 9.39-5.4 18.9-12.67 37.09-23.67 53.5-4.81 7.17-10.05 14.13-15.81 20.54-6.73 7.49-14.42 9.18-21.46 5.94-7.01-3.22-11.99-12.85-10.2-21.97 1.26-6.4 3.94-12.55 6.22-18.72 4.92-13.3 10-26.55 15.34-40.7-13.33-3.75-25.55-7.9-38.1-10.46-9.08-1.85-18.19-4.07-26.46-9.51-3.05-2.01-6.33-3.69-9.31-5.79-18.49-12.98-24.05-31.78-23.77-53.19.06-4.21 2.21-6.14 6.26-5.88 23.8 1.55 46.75-5.09 70.17-7.16 5.6-.49 11.27-.32 16.89-.65 12.61-.75 25.21-1.71 37.83-2.45 18.26-1.07 36.52-2.43 54.79-2.85 10.56-.25 21.15 1.3 31.74 1.68 10.04.36 18.55 3.44 22.78 13.15 4.17 9.57 2.25 18.87-3.37 27.41-5.89 8.95-12.83 16.7-22.78 21.61-5.45 2.69-5.74 5.12-3.28 10.66 1.88 4.25 4.08 8.36 6.09 12.56 7.18 15.04 6.46 30.33 1.09 45.63-3.41 9.73-9.65 13.2-19.46 10.22-4.62-1.4-9.18-4.03-12.93-7.11-9.75-7.99-16.36-18.21-19.85-30.46-1.52-5.33-3.66-10.49-5.41-15.4zm-116.67-17.67c.95.53 1.9 1.06 2.86 1.59 2.64-2.22 5.63-4.14 7.85-6.73 4.08-4.77 7.51-10.1 11.62-14.84 1.55-1.79 4.35-3.72 6.42-3.56 3.75.28 3.91 3.97 3.72 7.02-.2 3.29-.47 6.62-1.17 9.83-3.22 14.75-.77 18.6 13.88 21.23 1.3.23 2.63.35 3.95.49 5.86.63 10.08-1.29 13.14-6.74 4.38-7.81 9.4-15.28 14.3-22.78 3.95-6.04 8.77-5.78 11.73.83 2.58 5.74 4.34 11.85 6.7 17.69 2.17 5.37 4.7 6.64 10.1 4.93 9.79-3.11 19.57-6.28 29.2-9.85 3.14-1.16 5.79-3.61 9.38-5.93-5.09-6.53-9.65-11.79-13.47-17.54-1.62-2.45-3.16-6.51-2.22-8.84 4.15-10.31-2.41-16.37-7.83-25.51-2.69 4.6-4.42 7.26-5.86 10.07-2.73 5.32-5.2 10.78-7.97 16.08-2.14 4.1-5.32 6.95-10.37 6.11-4.52-.75-6.6-3.92-7.61-8.16-1.3-5.49-2.54-11.01-4.33-16.35-.95-2.85-2.98-5.33-4.77-8.38-2.23 1.54-3.57 2.05-4.29 3.02-7.12 9.5-14.09 19.12-21.23 28.61-1.99 2.64-4.27 5.11-6.66 7.4-2.68 2.56-6.01 2.15-7.8-.59-1.64-2.51-2.89-6.11-2.47-8.97.8-5.53 3.04-10.84 4.39-16.31.74-3 .9-6.15 1.32-9.24l-1.95-1.14c-2.47 1.92-5.4 3.47-7.32 5.83-4.8 5.91-9.34 12.05-13.61 18.35-4.01 5.91-8.09 11.37-16.71 10.29-1.04 7.91-1.97 14.99-2.9 22.08zm41.1 87.72c.97.22 1.94.43 2.91.65 4.21-8.27 8.27-16.63 12.74-24.77 1.1-2 3.78-4.82 5.3-4.57 3.86.62 3.53 4.44 2.7 7.29-1.19 4.13-2.68 8.25-4.66 12.06-3.88 7.46-8.19 14.69-12.53 22.39 6.88-2.1 7.86-2.5 12.39-8.03 15.37-18.77 25.99-40.08 33.01-63.22.51-1.69.07-3.66.07-7.03-8.64.9-16.45 1.74-24.26 2.52-4.91.49-7.62 3.33-9.26 7.83-5.58 15.31-11.41 30.52-16.93 45.85-1.02 2.82-1.01 6.01-1.48 9.03zm84.56-72.47c3.17 9.43 5.61 17.68 8.72 25.67 3.09 7.95 8.6 14.2 15.77 18.85 9.86 6.39 14.81 4.44 18.06-7.06.63-2.24 1.21-4.52 1.53-6.82 2.41-17.18-3-31.75-14.03-45-10.51 5.02-19.99 9.55-30.04 14.36zm-120.05-66.92c-1.17-.34-2.13-.93-3.02-.83-10.83 1.22-21.65 2.52-32.47 3.86-4.59.57-6.38 3.66-5.56 7.76 1.22 6.12 2.45 12.38 4.81 18.11 3.27 7.94 6.95 8.42 13.56 2.74 5.75-4.94 11.82-9.62 16.97-15.14 4.08-4.37 8.92-9.22 5.71-16.51zm136.57 19.49c4.27 3.12 8.21 5.02 13.3 2.5 0-6.16-6.12-11.63-1.38-18.75 11.07.29 20.44 8.15 31.37 9.02 8.21-11.22 6.51-18.01-5.93-20.19-8.68-1.52-17.81-.88-26.71-.5-1.96.08-4.91 2.79-5.49 4.84-2.15 7.56-3.49 15.34-5.16 23.1zm-49.99-28.26c1.12 7.53-1.32 14.82 5.73 19.54 6.67-8.16 7.61-11.8 5.48-21.53-3.4.6-6.84 1.21-11.21 1.99zm71.08 21.96c2.59 5.86 1.91 12.52 8.09 13.92 4.27.97 6.89-2.84 8.36-7.23-3.78-4.98-8.8-7.05-16.44-6.69zm-90.25 52.79c6.35-.89 10.3-1.44 15.29-2.14-1.79-4.8-3.06-8.2-5.22-14.01-3.85 6.18-6.34 10.16-10.07 16.15zm71.38-35.94q5.04 10.75 15.23 4.38c-5.93-1.71-10.58-3.04-15.23-4.38zm-79.86-33.76c-5.89-3.76-9.82-3.34-11.37 1.05-.53 1.5.03 3.79.91 5.2.39.62 3.24.51 4.27-.24 2.26-1.63 4.07-3.88 6.19-6.01zm-73.13 41.13q-8.4 6.53-2.02 10.22c.57-2.91 1.09-5.51 2.02-10.22zm142.57-39.4c3.05-2.57 4.19-5.12-.85-7.49l.85 7.49z"
          fill="#0b0707"/>
    <path d="M1143.06 1312.08c.93-7.09 1.86-14.17 2.9-22.08 8.63 1.09 12.7-4.37 16.71-10.29 4.27-6.3 8.81-12.45 13.61-18.35 1.92-2.37 4.85-3.91 7.32-5.83l1.95 1.14c-.42 3.08-.57 6.23-1.32 9.24-1.35 5.47-3.59 10.78-4.39 16.31-.41 2.85.83 6.45 2.47 8.97 1.79 2.74 5.13 3.15 7.8.59 2.39-2.29 4.67-4.75 6.66-7.4 7.14-9.49 14.11-19.11 21.23-28.61.73-.97 2.06-1.48 4.29-3.02 1.78 3.05 3.82 5.54 4.77 8.38 1.78 5.34 3.03 10.86 4.33 16.35 1 4.24 3.09 7.42 7.61 8.16 5.04.83 8.22-2.01 10.37-6.11 2.77-5.3 5.24-10.76 7.97-16.08 1.44-2.81 3.17-5.47 5.86-10.07 5.42 9.14 11.98 15.2 7.83 25.51-.93 2.32.6 6.39 2.22 8.84 3.82 5.75 8.38 11.01 13.47 17.54-3.59 2.32-6.24 4.77-9.38 5.93-9.63 3.56-19.41 6.73-29.2 9.85-5.4 1.72-7.93.45-10.1-4.93-2.36-5.85-4.13-11.95-6.7-17.69-2.97-6.62-7.79-6.87-11.73-.83-4.91 7.51-9.92 14.97-14.3 22.78-3.06 5.46-7.28 7.38-13.14 6.74-1.32-.14-2.64-.26-3.95-.49-14.65-2.63-17.1-6.48-13.88-21.23.7-3.21.97-6.54 1.17-9.83.19-3.05.03-6.73-3.72-7.02-2.07-.16-4.87 1.78-6.42 3.56-4.11 4.74-7.54 10.07-11.62 14.84-2.21 2.59-5.21 4.51-7.85 6.73-.95-.53-1.9-1.06-2.86-1.59z"
          fill="#800"/>
    <path d="M1184.16 1399.8c.47-3.02.46-6.21 1.48-9.03 5.52-15.33 11.35-30.54 16.93-45.85 1.64-4.5 4.35-7.34 9.26-7.83 7.81-.78 15.61-1.62 24.26-2.52 0 3.37.44 5.35-.07 7.03-7.01 23.14-17.64 44.45-33.01 63.22-4.53 5.53-5.51 5.93-12.39 8.03 4.34-7.7 8.65-14.93 12.53-22.39 1.98-3.8 3.46-7.93 4.66-12.06.83-2.85 1.16-6.67-2.7-7.29-1.52-.24-4.2 2.57-5.3 4.57-4.47 8.13-8.53 16.49-12.74 24.77-.97-.22-1.94-.43-2.91-.65z"
          fill="#f26767"/>
    <path d="M1268.71 1327.33c10.06-4.81 19.53-9.33 30.04-14.36 11.03 13.25 16.44 27.82 14.03 45-.32 2.3-.89 4.58-1.53 6.82-3.25 11.5-8.2 13.45-18.06 7.06-7.17-4.65-12.68-10.9-15.77-18.85-3.11-7.99-5.55-16.24-8.72-25.67zm11.56 6.39c5.92 11.82 11.45 22.89 17.02 33.94.44.87 1.08 1.66 1.73 2.39.42.48.98.93 1.57 1.14.58.21 1.27.1 1.91.11 2.71-6.48 1.46-13.79-3.91-22.77-5.83-9.77-11.14-14.22-18.32-14.81z"
          fill="#f16767"/>
    <path d="M1148.66 1260.41c3.21 7.29-1.63 12.14-5.71 16.51-5.15 5.52-11.22 10.19-16.97 15.14-6.62 5.69-10.29 5.2-13.56-2.74-2.36-5.73-3.59-11.99-4.81-18.11-.82-4.1.97-7.2 5.56-7.76 10.82-1.34 21.64-2.64 32.47-3.86.88-.1 1.85.49 3.02.83z"
          fill="#870000"/>
    <path d="M1285.23 1279.9c1.66-7.76 3.01-15.54 5.16-23.1.58-2.04 3.53-4.76 5.49-4.84 8.9-.37 18.02-1.02 26.71.5 12.44 2.18 14.15 8.97 5.93 20.19-10.93-.87-20.3-8.72-31.37-9.02-4.73 7.12 1.38 12.6 1.38 18.75-5.09 2.52-9.03.62-13.3-2.5z"
          fill="#850101"/>
    <path d="M1235.24 1251.64c4.37-.78 7.81-1.39 11.21-1.99 2.13 9.73 1.19 13.37-5.48 21.53-7.04-4.71-4.61-12-5.73-19.54z"
          fill="#e2e4e4"/>
    <path d="M1306.32 1273.6c7.64-.36 12.66 1.72 16.44 6.69-1.46 4.39-4.08 8.2-8.36 7.23-6.18-1.41-5.49-8.07-8.09-13.92z"
          fill="#dfe4e4"/>
    <path d="M1216.08 1326.4c3.73-5.99 6.22-9.97 10.07-16.15 2.16 5.81 3.43 9.21 5.22 14.01-4.99.7-8.94 1.25-15.29 2.14z"
          fill="#e1e7e7"/>
    <path d="M1287.46 1290.45c4.65 1.34 9.3 2.68 15.23 4.38q-10.18 6.37-15.23-4.38z" fill="#e4ebeb"/>
    <path d="M1207.6 1256.69c-2.12 2.13-3.93 4.38-6.19 6.01-1.03.75-3.88.86-4.27.24-.88-1.41-1.44-3.7-.91-5.2 1.56-4.38 5.48-4.81 11.37-1.05z"
          fill="#e3ebeb"/>
    <path d="M1134.47 1297.81c-.93 4.72-1.44 7.32-2.02 10.22q-6.38-3.7 2.02-10.22z" fill="#ced4d4"/>
    <path d="M1277.04 1258.42l-.85-7.49c5.04 2.37 3.89 4.92.85 7.49z" fill="#a9b2b2"/>
    <path d="M1280.28 1333.72c7.18.59 12.49 5.04 18.32 14.81 5.36 8.98 6.62 16.29 3.91 22.78-.64-.02-1.33.09-1.91-.12-.59-.21-1.15-.66-1.57-1.14-.65-.73-1.29-1.52-1.73-2.39-5.57-11.05-11.1-22.12-17.02-33.94z"
          fill="#180909"/>
</svg>