<svg xmlns="http://www.w3.org/2000/svg" width="2351" height="2351">
    <path d="M0 2351V0h2351v2351H0zm1108.23-1094.88c-10.66-.78-22.42 4.28-34.49 7.89-11.7 3.5-20.33 11.22-27.16 20.92-1.95 2.78-2.84 6.7-3.12 10.19-1.09 13.25 2.3 25.81 7.57 37.77 1.94 4.4 5.02 8.63 8.51 11.97 15.21 14.58 33.73 21.16 54.61 20 16.24-.9 32.41-3.04 48.62-4.54 28.35-2.62 56.45-3.66 83 9.79 39.38 19.95 80.71 19.49 122.65 10.78 9.07-1.88 15.59-6.67 17.58-16.68 2.14-10.75 5.51-21.25 7.63-32.01.78-3.98.79-9-.98-12.45-10.9-21.13-26.43-38.13-49.95-44.44-21.92-5.88-44.9-8.35-67.14-2.85-20.72 5.13-41.65 8.48-62.57 12.26-9.23 1.67-17.81 1.09-25.77-4.34-2.74-1.87-5.92-3.11-8.59-5.06-20.33-14.8-43.78-18.38-70.4-19.21z"
          fill="transparent"/>
    <path d="M1108.23 1256.12c26.62.83 50.07 4.4 70.4 19.21 2.67 1.95 5.85 3.19 8.59 5.06 7.96 5.44 16.54 6.01 25.77 4.34 20.91-3.78 41.85-7.13 62.57-12.26 22.25-5.51 45.23-3.03 67.14 2.85 23.52 6.31 39.06 23.31 49.95 44.44 1.78 3.45 1.77 8.47.98 12.45-2.12 10.75-5.48 21.26-7.63 32.01-2 10.01-8.51 14.79-17.58 16.68-41.94 8.7-83.28 9.17-122.65-10.78-26.56-13.45-54.65-12.41-83-9.79-16.21 1.5-32.38 3.64-48.62 4.54-20.88 1.16-39.4-5.42-54.61-20-3.49-3.34-6.57-7.57-8.51-11.97-5.27-11.96-8.66-24.52-7.57-37.77.29-3.49 1.17-7.41 3.12-10.19 6.83-9.7 15.45-17.42 27.16-20.92 12.07-3.61 23.84-8.67 34.49-7.89zm205.7 112.72c6.31-.38 12.69-.31 18.92-1.27 7.18-1.1 14.26-2.95 21.3-4.8 4.75-1.25 8.19-4.26 9.8-9.12 2.7-8.19 5.74-16.29 8.12-24.58 2.17-7.55.1-14.53-4.64-20.65-9.14-11.8-19.92-20.63-36.1-19.5-1.96.14-3.96-.46-5.95-.59-18.3-1.18-36.58-1.85-54.76 1.53-13.74 2.56-27.57 4.65-41.2 7.67-19.8 4.38-37.59.36-54.01-11.11-20.03-14-42.56-18.28-66.45-16.54-16.83 1.23-30.65 8.52-40.55 22.44-11.22 15.79-8.1 34.36 7.5 45.7 10.67 7.76 22.98 11.02 35.75 10.59 12.56-.42 25.1-2.49 37.57-4.4 23.96-3.67 47.74-4.38 71.14 3.18 13.92 4.5 27.9 8.85 41.59 13.96 16.85 6.28 34.14 8.37 51.96 7.47z"/>
    <path d="M1313.93 1368.84c-17.81.91-35.1-1.18-51.96-7.47-13.7-5.11-27.68-9.46-41.59-13.96-23.4-7.57-47.18-6.86-71.14-3.18-12.46 1.91-25.01 3.97-37.57 4.4-12.78.43-25.08-2.83-35.75-10.59-15.6-11.34-18.72-29.91-7.5-45.7 9.9-13.93 23.72-21.21 40.55-22.44 23.88-1.75 46.42 2.54 66.45 16.54 16.41 11.47 34.21 15.49 54.01 11.11 13.63-3.02 27.47-5.11 41.2-7.67 18.18-3.38 36.46-2.71 54.76-1.53 1.99.13 3.99.73 5.95.59 16.18-1.13 26.96 7.7 36.1 19.5 4.74 6.12 6.81 13.1 4.64 20.65-2.38 8.29-5.42 16.38-8.12 24.58-1.6 4.86-5.04 7.87-9.8 9.12-7.04 1.85-14.12 3.69-21.3 4.8-6.22.96-12.61.89-18.92 1.27z"
          fill="#fff"/>
</svg>