<svg xmlns="http://www.w3.org/2000/svg" width="2351" height="2351">
    <path d="M0 2351V0h2351v2351H0zm1241.43-1065.35c-7.63-.04-15.26-.25-22.87-.04-3.08.09-6.14 1.11-9.2 1.7-3.94.05-8.66-1.28-11.67.42-10.17 5.74-21.62 2.62-32.02 5.85-15.33.02-30.67.05-46 .07l-16.34 1.57-7.56-.06c-2.09 0-4.18 0-6.27.01l-29.55-5.63c.33 5.83 2.34 9.25 5.87 9.87 8.53 1.5 17.07 2.87 25.61 4.29 2.47.61 4.93 1.74 7.4 1.75 16.76.11 33.52.06 50.28-.12 2.15-.02 4.29-1.07 6.44-1.64l5.94-.06c-.41 9.48-.81 18.96-1.22 28.45-.1 3.08-.2 6.17-.31 9.25-1.02 7.66 4.62 11.83 8.97 16.44 15.97 16.97 43.12 10.47 50.77-11.43 4.27-12.22 4.03-24.46 3.6-36.92-.11-1.97-.23-3.93-.34-5.9.21-1.99.43-3.98.65-5.97l28.07-.2c4.58.12 9.17.23 13.75.35 9.97 3.11 19.94 2.63 29.9-.03 8.64-1.51 17.28-3.02 25.92-4.52l28.32.15c3.59 4.62 7.18 9.24 10.76 13.86l2.74.12 1.92-7.89 1.59-6.05c1.43-.56 2.82-1.47 4.3-1.63 7.36-.82 14.74-1.45 21.92-2.12 1.49-6.17-.87-8.21-5.92-8.16-6.93.07-13.86.02-21.56.02.85-8.27 1.62-15.8 2.4-23.49h-10c0 3.07.07 5.66-.01 8.25-.3 10-4.77 15.56-13.98 17.48-8.79.54-17.59 1.08-26.38 1.63l-19.74 2.25c-10.8.01-21.6.03-32.4.04l-9.62-.3c-4.72-.55-9.44-1.09-14.15-1.64zm-194.48-22.58c-.44.81-.89 1.63-1.33 2.44-.65 4.68-1.31 9.36-1.96 14.03l-1.68 2.19c-.49 7.19-.98 14.37-1.46 21.56-2.3 2.44-.98 4.37.88 6.22 1.79.83 3.58 1.67 6.32 2.95.96-18.67 6.51-35.37 7.94-52.65l-2.02-1.19c-2.23 1.49-4.46 2.97-6.69 4.46z"
          fill="transparent"/>
    <path d="M1297.59 1287.55l19.74-2.25c8.79-.54 17.59-1.08 26.38-1.63 9.21-1.92 13.68-7.48 13.98-17.48.08-2.59.01-5.18.01-8.25h10c-.79 7.69-1.56 15.23-2.4 23.49 7.7 0 14.63.05 21.56-.02 5.05-.05 7.41 1.99 5.92 8.16-7.18.68-14.56 1.3-21.92 2.12-1.47.16-2.87 1.07-4.3 1.63-2.07 1.61-3.77 3.32-1.59 6.05l-1.92 7.89-2.74-.12c-3.59-4.62-7.18-9.24-10.76-13.86-9.43-2.9-18.87-3-28.32-.15-8.64 1.51-17.28 3.02-25.91 4.52-9.97 0-19.93.02-29.9.03-4.58-.12-9.17-.23-13.75-.35-4.71-.76-9.41-1.53-14.12-2.29-3.36-2.37-6.75-2.29-10.16-.12-1.27.87-2.53 1.74-3.8 2.61-.21 1.99-.43 3.98-.64 5.97.11 1.97.23 3.93.34 5.9.43 12.46.67 24.7-3.6 36.92-7.65 21.9-34.8 28.4-50.77 11.43-4.35-4.62-9.99-8.79-8.97-16.44.1-3.08.2-6.17.31-9.25.41-9.48.81-18.96 1.22-28.45-5.23-4.3-10.66-2.01-16.07-.48-3.92-.06-7.84-.11-11.76-.17-6.75-2.38-13.49-2.45-20.23 0-7.33.24-14.66.47-21.99.71-8.54-1.42-17.09-2.79-25.61-4.29-3.52-.62-5.53-4.04-5.87-9.87l29.55 5.63c2.09 0 4.18 0 6.27-.01l7.56.06 15.96-.18c11.59.14 23.18.43 34.76.31 3.88-.04 7.75-1.15 11.62-1.77 10.4-3.22 21.86-.11 32.02-5.85 3.01-1.7 7.73-.36 11.67-.42 10.84-.13 21.68-.25 32.53-.38 4.57.12 9.14.23 13.71.35l9.62.3c10.8 2.84 21.6 3.18 32.39-.04zm-106 68.63c1.26.7 1.79 1.14 2.4 1.29.61.14 1.41.2 1.94-.07 8.18-4.08 14.28-10.18 15.46-19.47 1.25-9.87 1.73-19.86 2.02-29.82.29-10.04-2.74-12.3-12.79-10.26-5.17 1.05-10.29 3.43-15.4 3.33-6.81-.13-9.51 3.19-11.34 8.76-3.5 10.64-2.14 21.57-2.12 32.42 0 1.88.87 4 1.97 5.56 1.03 1.48 3.23 3.56 4.33 3.26 1.86-.52 3.58-2.49 4.73-4.26.82-1.27.67-3.2.84-4.85.37-3.64.65-7.29 1.01-10.93.4-4.1.67-8.38 6.61-7.68 5.93.69 4.97 5.18 4.9 9.12-.05 2.99-.98 6.21-.18 8.93 1.75 5.95 1.04 10.87-4.36 14.68z"
          fill="#060404"/>
    <path d="M1040.51 1303.29c.49-7.19.98-14.37 1.46-21.56l1.68-2.19c.65-4.68 1.31-9.36 1.96-14.03.44-.81.89-1.63 1.33-2.44 2.23-1.49 4.46-2.97 6.69-4.46l2.02 1.19c-1.43 17.28-6.98 33.98-7.94 52.65-2.74-1.28-4.53-2.11-6.32-2.95-.29-2.07-.59-4.14-.88-6.22z"
          fill="#080707"/>
    <path d="M1091.42 1303.7c7.33-.24 14.66-.47 21.99-.71h20.23c3.92.06 7.84.11 11.76.17l10.13.54c-2.14.57-4.28 1.62-6.44 1.64-16.76.18-33.52.24-50.28.12-2.47-.02-4.93-1.14-7.4-1.75z"
          fill="#d3fbfb"/>
    <path d="M1165.66 1293.58c-3.87.62-7.74 1.73-11.62 1.77-11.59.12-23.18-.18-34.76-.31.11-.47.24-.93.38-1.39 15.33-.02 30.67-.05 46-.07z"
          fill="#925353"/>
    <path d="M1241.87 1286.94c-10.84.13-21.68.25-32.53.38 3.07-.6 6.12-1.62 9.2-1.7 7.62-.22 15.25 0 22.87.04.11.45.25.88.45 1.29z"
          fill="#501414"/>
    <path d="M1297.59 1287.55c-10.79 3.22-21.59 2.88-32.39.04 10.8-.01 21.6-.03 32.39-.04z" fill="#9b5c5c"/>
    <path d="M1265.42 1297.69c9.97 0 19.94-.02 29.9-.03-9.97 2.65-19.93 3.13-29.9.03z" fill="#9bdada"/>
    <path d="M1321.23 1293.14c9.46-2.85 18.9-2.74 28.32.15l-28.32-.15z" fill="#386b6b"/>
    <path d="M1237.55 1295.06c4.71.76 9.41 1.53 14.12 2.29-9.36.07-18.71.14-28.07.2 1.27-.87 2.53-1.74 3.8-2.61l10.16.12z"
          fill="#cdfafa"/>
    <path d="M1343.72 1283.67c-8.79.54-17.59 1.08-26.38 1.63 8.8-.54 17.59-1.08 26.38-1.63z" fill="#7e3f3f"/>
    <path d="M1119.66 1293.65c-.15.46-.27.92-.38 1.39l-15.96.18c5.45-.52 10.89-1.05 16.34-1.57z" fill="#cc9e9e"/>
    <path d="M1155.53 1303.69l-10.13-.54c5.41-1.54 10.83-3.82 16.07.48l-5.94.06z" fill="#336262"/>
    <path d="M1160.25 1332.07c-.1 3.08-.2 6.17-.31 9.25.1-3.08.2-6.17.31-9.25z" fill="#2e2e2e"/>
    <path d="M1241.87 1286.94a7.3 7.3 0 01-.45-1.29c4.72.55 9.44 1.09 14.15 1.64-4.57-.12-9.14-.23-13.71-.35z"
          fill="#854646"/>
    <path d="M1223.29 1309.42c-.11-1.97-.23-3.93-.34-5.9.11 1.97.23 3.93.34 5.9z" fill="#565555"/>
    <path d="M1364.99 1299.38c-2.18-2.73-.48-4.44 1.59-6.05l-1.59 6.05z" fill="#3c4242"/>
    <path d="M1095.76 1295.16c-2.09 0-4.18 0-6.27.01 2.09 0 4.18 0 6.27-.01z" fill="#cc9e9e"/>
    <path d="M1040.51 1303.29c.29 2.07.59 4.15.88 6.22-1.86-1.85-3.19-3.78-.88-6.22z" fill="#aeafaf"/>
    <path d="M1360.32 1307.16l2.74.12-2.74-.12z" fill="#3c4242"/>
    <path d="M1046.94 1263.07c-.44.81-.89 1.63-1.33 2.44.44-.81.89-1.63 1.33-2.44zM1043.65 1279.54l-1.68 2.19 1.68-2.19z"
          fill="#827d7d"/>
    <path d="M1191.59 1356.18c5.4-3.81 6.11-8.73 4.36-14.68-.8-2.72.12-5.94.18-8.93.07-3.93 1.03-8.42-4.9-9.12-5.94-.7-6.21 3.58-6.61 7.68-.36 3.64-.63 7.29-1.01 10.93-.17 1.65-.02 3.58-.84 4.85-1.15 1.77-2.87 3.74-4.73 4.26-1.09.31-3.29-1.78-4.33-3.26-1.1-1.57-1.96-3.68-1.97-5.56-.02-10.84-1.38-21.78 2.12-32.42 1.83-5.57 4.53-8.89 11.34-8.76 5.11.1 10.24-2.28 15.4-3.33 10.04-2.04 13.08.22 12.79 10.26-.29 9.96-.77 19.95-2.02 29.82-1.17 9.29-7.28 15.39-15.46 19.47-.53.27-1.32.21-1.94.07-.61-.14-1.14-.59-2.4-1.29z"
          fill="#f86565"/>
    <path d="M1133.64 1302.98h-20.23c6.74-2.46 13.49-2.39 20.23 0z" fill="#254a4a"/>
    <path d="M1237.55 1295.06l-10.16-.12c3.41-2.18 6.8-2.25 10.16.12z" fill="#204040"/>
</svg>