<svg xmlns="http://www.w3.org/2000/svg" width="2351" height="2351">
    <path d="M0 2351V0h2351v2351H0zm1035.21-1050.8c2.68-2.24 5.36-4.49 8.05-6.73 6.99-5.82 10.69-6.59 17.67-.98 7.73 6.21 15.07 13.11 21.58 20.58 5.64 6.47 11.65 12.38 19.84 14.42 12.64 3.14 19.43 11.3 23.51 22.88.97 2.76 2.59 5.56 4.63 7.65 5.54 5.68 10.95 11.7 17.37 16.23 6.94 4.89 15.97 6.49 23.78 4.04 12.54-3.94 19.99-19.15 17.87-32.31-1.28-8-3.57-15.47-8.84-21.92-2.66-3.26-4.53-7.17-7.04-11.25 2.69-2 4.67-3.69 6.85-5.04 7.35-4.54 14.9-8.78 22.16-13.47 24.24-15.67 52.11-14.77 75.18 2.61 7.28 5.48 6.74 5.37 2.4 13.5-4.81 9.03-9.41 18.4-12.34 28.15-3.54 11.76 1.95 22.22 12.73 26.03 7.65 2.7 15.79 2.87 23.32-.94 12.1-6.11 22.73-13.94 28.41-26.86 3.47-7.9 8.1-13.34 17.5-15.57 17.4-4.12 30.34-16.12 42.74-28.32 3.28-3.23 2.9-6.57-2.65-8.6-2.58 2.07-5.3 4.45-8.22 6.57-6.99 5.07-13.97 10.17-21.14 14.97-6.98 4.68-14.21 8.89-22.37.3-6.22 10.54-14.13 8.19-22.18 4.27-3.88-1.89-7.88-3.67-11.45-6.05-9.68-6.47-19.2-13.16-28.69-19.9-7.93-5.62-16.08-11.79-26.01-11.56-19.46.46-38 4.33-54.75 15.81-17.56 12.02-36.61 21.71-56.78 28.75-25.15 8.79-35.51 5.91-53.03-13.7-1.33-1.49-2.48-3.2-3.99-4.47-5.83-4.9-11.36-10.32-17.76-14.34-13.12-8.23-26.06-2.03-28.37 15.27z"
          fill="transparent"/>
    <path d="M1035.21 1300.2c2.31-17.3 15.25-23.5 28.37-15.27 6.4 4.01 11.93 9.44 17.76 14.34 1.51 1.27 2.66 2.98 3.99 4.47 17.51 19.62 27.88 22.49 53.03 13.7 20.17-7.05 39.22-16.73 56.78-28.75 16.76-11.47 35.29-15.35 54.75-15.81 9.93-.23 18.08 5.93 26.01 11.56 9.49 6.73 19.02 13.43 28.69 19.9 3.57 2.39 7.56 4.16 11.45 6.05 8.05 3.92 15.97 6.27 22.18-4.27 8.16 8.59 15.39 4.38 22.37-.3 7.17-4.8 14.15-9.9 21.14-14.97 2.92-2.12 5.64-4.5 8.22-6.57 5.55 2.03 5.93 5.37 2.65 8.6-12.4 12.2-25.33 24.2-42.74 28.32-9.4 2.23-14.02 7.67-17.5 15.57-5.68 12.92-16.32 20.75-28.41 26.86-7.53 3.8-15.68 3.64-23.32.94-10.78-3.81-16.27-14.27-12.73-26.03 2.93-9.75 7.53-19.12 12.34-28.15 4.33-8.13 4.88-8.02-2.4-13.5-23.07-17.37-50.94-18.27-75.18-2.61-7.26 4.69-14.8 8.93-22.16 13.47-2.19 1.35-4.16 3.04-6.85 5.04 2.51 4.08 4.38 7.99 7.04 11.25 5.27 6.46 7.55 13.93 8.84 21.92 2.11 13.16-5.34 28.37-17.87 32.31-7.81 2.46-16.84.85-23.78-4.04-6.42-4.53-11.83-10.56-17.37-16.23-2.04-2.08-3.65-4.88-4.63-7.65-4.08-11.58-10.87-19.73-23.51-22.88-8.19-2.04-14.2-7.94-19.84-14.42-6.51-7.47-13.85-14.38-21.58-20.58-6.98-5.6-10.68-4.84-17.67.98-2.69 2.24-5.37 4.49-8.05 6.73zm110.42 27.27c10.26 2.93 14.11 11.21 16.74 20.35 1.19 4.13 1.55 8.5 2.76 12.62 1.62 5.56 5.1 6.52 9.53 2.72 5.91-5.06 7.05-11.87 5.94-19.07-1.42-9.24-6.97-16.39-12.8-23.26-2.81-3.31-6.38-2.98-10.01-1.38-6.04 2.67-12.1 5.31-18.15 7.96-3.41.85-6.81 1.71-11.04 2.77 2.42 17.04 11.2 28.97 23.73 38.43 1.85 1.4 5.27.71 9.59 1.15-3.92-16.06-9.82-29.28-16.28-42.29zm142.83 30.98c15.73-3.11 26.4-9.97 33.56-21.97 7.16-11.99 5.34-15.41-8.55-17.2-.61-.08-1.27.29-2.34.55-3.31 4.19-6.28 9.42-14.53 11.98 2.53-2.87 3.56-3.97 4.51-5.15 1.03-1.29 2.18-2.54 2.92-3.99 2.57-5.1 1.11-8.91-3.93-11.5-4.52-2.32-7.62-.25-10.41 3-7.88 9.17-11.01 20.3-12.69 31.9-.33 2.27 1.01 4.78 1.85 8.31 4.55-2.27 7.97-3.97 12.03-5.99-.67 2.8-1.24 5.19-2.41 10.06z"
          fill="#120d0d"/>
    <path d="M1288.47 1358.45c1.17-4.88 1.74-7.27 2.41-10.06-4.06 2.02-7.48 3.73-12.03 5.99-.84-3.52-2.18-6.04-1.85-8.31 1.68-11.6 4.81-22.73 12.69-31.9 2.79-3.25 5.88-5.32 10.41-3 5.04 2.58 6.5 6.4 3.93 11.5-.73 1.45-1.88 2.71-2.92 3.99-.94 1.18-1.98 2.27-4.51 5.15 8.24-2.55 11.22-7.78 14.53-11.98 1.07-.27 1.73-.63 2.34-.55 13.89 1.79 15.71 5.21 8.55 17.2-7.16 11.99-17.83 18.86-33.56 21.97z"
          fill="#f45b78"/>
    <path d="M1139.64 1327.43c6.05-2.65 12.11-5.29 18.15-7.96 3.64-1.6 7.2-1.94 10.01 1.38 5.83 6.87 11.38 14.03 12.8 23.26 1.11 7.2-.03 14.01-5.94 19.07-4.43 3.8-7.91 2.83-9.53-2.72-1.2-4.13-1.57-8.49-2.76-12.62-2.63-9.14-6.48-17.42-16.74-20.35-2-.02-4-.03-6-.05z"
          fill="#f15a77"/>
    <path d="M1139.64 1327.43c2 .02 4 .03 6 .05 6.45 13.02 12.36 26.23 16.28 42.29-4.32-.44-7.74.25-9.59-1.15-12.53-9.45-21.31-21.39-23.73-38.43 4.23-1.06 7.64-1.92 11.04-2.77z"
          fill="#f45b79"/>
</svg>