<svg xmlns="http://www.w3.org/2000/svg" width="2351" height="2351">
    <path d="M0 2351V0h2351v2351H0zm1397.96-1050.06c0-1.33.19-2.07-.03-2.65-1.05-2.65-1.58-6.45-3.54-7.49-1.58-.84-4.95 1.67-7.51 2.73-3.23 1.33-6.35 3.23-9.71 3.89-3.87.76-7.95.52-11.95.54-22.1.12-22.51.19-26.88-21.48-2.41-11.94-6.97-22.86-12.39-33.55-1.32-2.61-3.12-5.18-5.29-7.12-4.28-3.83-8.94-3.12-11.49 1.91-1.76 3.48-2.62 7.45-3.57 11.28-3.81 15.45-7.42 30.95-11.26 46.4-1.69 6.82-6.5 9.55-13.33 9.56-16.3.01-32.61-.05-48.9.34-15.27.37-30.55 1.06-45.8 2.03-8.1.51-7.86.46-10.95-7.72-4.69-12.4-9.98-24.59-15.58-36.61-1.91-4.09-5.16-8.21-10.66-7.8-5.83.44-5.59 6.02-6.96 9.75-4.6 12.48-8.75 25.13-13.12 37.69-1.58 4.56-3.69 8.7-9.32 9.13-13.8 1.06-27.31 6.26-41.49 1.99-5.31-1.6-8.97.89-10.39 5.21-1.34 4.05.33 6.75 6.88 8.77 5.27 1.63 8.49 4.78 10.63 9.64 1.88 4.25 4.02 8.41 6.26 12.48 2.56 4.66 4.89 9.59 8.25 13.63 1.82 2.19 5.67 3.9 8.43 3.68 2-.16 4.55-3.6 5.35-6.06 1.31-4.05 1.4-8.49 1.99-12.77.68-4.93.81-10 2.12-14.75 2.51-9.07 5.41-11.18 14.84-11.88 6.64-.49 13.29-.75 19.94-.98 31.58-1.1 63.17-2.13 94.75-3.23 11.29-.39 22.61-.6 33.87-1.44 17.58-1.32 35.14-2.99 52.67-4.8 6.33-.65 11.29 1.27 14.6 6.47 3.55 5.58 6.71 11.43 9.72 17.32 3.16 6.21 5.45 12.91 9.08 18.81 1.89 3.06 5.62 6.32 8.94 6.85 4.56.73 6.08-4.23 7.62-7.93.77-1.84 1.81-3.63 2.22-5.55 3.06-14.22 5.39-28.63 11.47-42.05.65-1.43.4-3.28.5-4.28z"
          fill="transparent"/>
    <path d="M1397.96 1300.94c-.1 1 .16 2.84-.5 4.28-6.08 13.41-8.41 27.82-11.47 42.05-.41 1.92-1.45 3.71-2.22 5.55-1.54 3.7-3.06 8.66-7.62 7.93-3.32-.53-7.05-3.79-8.94-6.85-3.63-5.9-5.92-12.6-9.08-18.81-3-5.9-6.17-11.75-9.72-17.32-3.31-5.2-8.27-7.12-14.6-6.47-17.54 1.81-35.09 3.47-52.67 4.8-11.26.85-22.57 1.05-33.87 1.44-31.58 1.1-63.17 2.13-94.75 3.23-6.65.23-13.31.49-19.94.98-9.43.69-12.33 2.8-14.84 11.88-1.31 4.75-1.44 9.83-2.12 14.75-.59 4.28-.69 8.72-1.99 12.77-.8 2.46-3.35 5.89-5.35 6.06-2.76.23-6.61-1.49-8.43-3.68-3.36-4.04-5.69-8.96-8.25-13.63-2.24-4.08-4.37-8.23-6.26-12.48-2.15-4.86-5.36-8.01-10.63-9.64-6.55-2.03-8.22-4.72-6.88-8.77 1.43-4.32 5.09-6.8 10.39-5.21 14.17 4.27 27.69-.93 41.49-1.99 5.63-.43 7.74-4.57 9.32-9.13 4.37-12.57 8.52-25.21 13.12-37.69 1.38-3.74 1.13-9.32 6.96-9.75 5.5-.41 8.75 3.71 10.66 7.8 5.61 12.01 10.9 24.21 15.58 36.61 3.09 8.17 2.84 8.23 10.95 7.72 15.25-.97 30.52-1.66 45.8-2.03 16.29-.39 32.6-.33 48.9-.34 6.83 0 11.64-2.74 13.33-9.56 3.84-15.45 7.45-30.95 11.26-46.4.94-3.83 1.81-7.81 3.57-11.28 2.55-5.04 7.21-5.74 11.49-1.91 2.16 1.94 3.96 4.51 5.29 7.12 5.42 10.69 9.98 21.61 12.39 33.55 4.38 21.67 4.78 21.61 26.88 21.48 3.99-.02 8.07.22 11.95-.54 3.36-.66 6.48-2.56 9.71-3.89 2.56-1.05 5.93-3.56 7.51-2.73 1.96 1.04 2.49 4.84 3.54 7.49.23.58.03 1.32.03 2.65zm-76.5-31.62c-.95-.06-1.91-.13-2.86-.19-6.32 7.79-8.29 17.24-8.29 27.11 0 1.69 3 4.29 5.05 4.83 2.71.72 5.89.1 8.78-.43 4.4-.8 6.17-3.78 4.89-8.01-2.37-7.81-5.04-15.54-7.58-23.3zm38.05 44.63c3.83 8.65 7.83 16.42 13.6 24.77 5.64-7.7 6.83-15.07 6.72-22.68-.02-1.61-1.56-4.23-2.91-4.63-5.63-1.66-11.55-3.31-17.41 2.54zm-207.77-30.37c-5.77 6.09-7.02 12.75-6.88 19.69.1 4.93 2.8 6.39 9.1 6.13 4.16-.17 7.84-1.78 7.09-6.16-1.19-6.88-1.8-14.43-9.31-19.66zm-49.82 51.08c1.92-3.49 2.67-6.37-1.08-8.55-.78-.45-2.91-.03-3.37.68-2.01 3.11-.62 5.51 2.24 7.3.27.17.63.17 2.21.58z"/>
    <path d="M1321.46 1269.32c2.54 7.76 5.21 15.49 7.58 23.3 1.28 4.23-.48 7.21-4.89 8.01-2.89.53-6.08 1.15-8.78.43-2.05-.54-5.05-3.15-5.05-4.83 0-9.87 1.97-19.32 8.29-27.11.95.06 1.91.13 2.86.19zM1359.5 1313.94c5.86-5.84 11.78-4.2 17.41-2.54 1.35.4 2.89 3.01 2.91 4.63.11 7.61-1.08 14.97-6.72 22.68-5.77-8.35-9.77-16.12-13.6-24.77zM1151.74 1283.58c7.51 5.23 8.13 12.78 9.31 19.66.75 4.37-2.93 5.98-7.09 6.16-6.3.26-9-1.19-9.1-6.13-.15-6.94 1.11-13.6 6.88-19.69zM1101.92 1334.65c-1.58-.41-1.94-.41-2.21-.58-2.86-1.78-4.26-4.19-2.24-7.3.46-.7 2.59-1.13 3.37-.68 3.75 2.18 3 5.06 1.08 8.55z"
          fill="#fff"/>
</svg>