<svg xmlns="http://www.w3.org/2000/svg" width="2351" height="2351">
    <path d="M0 2351V0h2351v2351H0zm1128.23-1087.71c-5.84-4.72-10.82-3.93-14.97-2.65-14.21 4.4-28.23 9.41-42.22 14.48-1.44.52-3.04 2.99-3.01 4.52.03 1.57 1.7 3.95 3.16 4.44 2.3.77 5.18.8 7.55.16 5.12-1.39 10.02-3.6 15.12-5.11 5.69-1.68 7.25-.72 7.77 5.14 1.05 11.79 4.75 22.77 9.73 33.36 1.39 2.95 3.15 6 5.49 8.2 12.19 11.44 24.91 22.78 41.07 27.71 13.91 4.24 19.77 13.17 21.73 26.34.34 2.28.79 4.74 1.92 6.69 3.16 5.42 6.13 11.12 10.25 15.76 5.28 5.96 11.91 4.37 14.67-3.2 1.57-4.31 2.2-9.02 2.8-13.61.69-5.27.58-10.65 1.35-15.91 1.18-8.09 2.59-9.45 10.84-10.26 13.25-1.31 26.53-2.23 39.79-3.44 5.15-.47 8.93 1.7 12.26 5.35 6.05 6.65 12.05 13.37 18.41 19.71 4.22 4.21 8.68 8.39 13.69 11.53 7.5 4.69 11.63 1.94 12.18-6.94.26-4.23-.02-9.32 2.18-12.42 4.57-6.43 2.18-11.15-1.54-16.18-3.33-4.5-6.76-8.91-10.73-14.12 8.06-8.29 15.07-16.86 23.49-23.7 5.93-4.82 10.21-10.13 13.49-16.8 7.35-14.94 9.17-12.16 19.3-6.02 2.68 1.62 5.85 3.97 8.91-1.18-1.75-2.05-3.4-4.51-5.55-6.42-7.71-6.86-15.49-13.66-23.45-20.23-3.32-2.74-7.01-5.11-10.82-7.11-1.51-.79-3.79-.13-7.94-.13 5.05 5.88 8.62 9.73 11.83 13.86 4.21 5.41 3.54 11.66-1.57 18.14-3.88 4.92-5.13 5.18-12.98 1.88-3.68-1.54-7.1-3.74-10.83-5.09-6.23-2.26-12.51-4.63-18.98-5.92-6.92-1.38-10.67 2.41-8.68 9.15 2.53 8.52 6.26 16.72 9.87 24.88 1.85 4.18 4.57 7.97 7.08 12.24-2.69 1.85-5.12 3.06-6.98 4.87-9.74 9.49-21.75 11.94-34.8 12.4-17.63.63-35.23 2.05-52.85 3-6.31.34-12.66.69-18.96.36-8.32-.42-11.2-2.98-12.6-11.36-1.58-9.51-2.52-19.13-3.76-28.7-.38-2.95-.1-6.3-1.44-8.74-1.44-2.63-4.1-5.27-6.84-6.33-3.57-1.37-6.05 1.43-7.8 4.6-3.38 6.12-7.03 12.08-10.35 18.23-5.8 10.74-10.4 11.34-18.61 2.01-10.05-11.44-12.85-25.16-12.7-39.94.05-5.23 1.58-8.91 6.22-11.46 2.76-1.51 5.23-3.57 8.81-6.07z"
          fill="transparent"/>
    <path d="M1128.23 1263.29c-3.58 2.5-6.05 4.56-8.81 6.07-4.65 2.54-6.17 6.23-6.22 11.46-.15 14.78 2.66 28.51 12.7 39.94 8.2 9.34 12.81 8.73 18.61-2.01 3.32-6.15 6.98-12.11 10.35-18.23 1.76-3.18 4.23-5.98 7.8-4.6 2.74 1.05 5.4 3.7 6.84 6.33 1.34 2.44 1.06 5.79 1.44 8.74 1.24 9.57 2.18 19.19 3.76 28.7 1.39 8.37 4.28 10.93 12.6 11.36 6.3.32 12.65-.02 18.96-.36 17.62-.95 35.22-2.37 52.85-3 13.05-.47 25.06-2.92 34.8-12.4 1.86-1.81 4.29-3.02 6.98-4.87-2.51-4.27-5.23-8.06-7.08-12.24-3.61-8.16-7.34-16.36-9.87-24.88-2-6.74 1.76-10.52 8.68-9.15 6.47 1.29 12.75 3.66 18.98 5.92 3.73 1.35 7.15 3.55 10.83 5.09 7.85 3.29 9.1 3.04 12.98-1.88 5.12-6.49 5.78-12.73 1.57-18.14-3.22-4.13-6.79-7.98-11.83-13.86 4.15 0 6.43-.66 7.94.13 3.81 2 7.51 4.37 10.82 7.11 7.96 6.57 15.74 13.37 23.45 20.23 2.15 1.91 3.81 4.37 5.55 6.42-3.06 5.15-6.23 2.8-8.91 1.18-10.13-6.15-11.95-8.92-19.3 6.02-3.28 6.67-7.56 11.98-13.49 16.8-8.41 6.84-15.42 15.41-23.49 23.7 3.97 5.21 7.4 9.62 10.73 14.12 3.73 5.04 6.12 9.75 1.54 16.18-2.21 3.1-1.92 8.19-2.18 12.42-.55 8.87-4.69 11.63-12.18 6.94-5.01-3.14-9.47-7.33-13.69-11.53-6.37-6.34-12.36-13.06-18.41-19.71-3.33-3.66-7.11-5.82-12.26-5.35-13.26 1.2-26.54 2.13-39.79 3.44-8.25.81-9.66 2.18-10.84 10.26-.77 5.26-.66 10.64-1.35 15.91-.6 4.59-1.23 9.3-2.8 13.61-2.76 7.57-9.38 9.15-14.67 3.2-4.12-4.64-7.09-10.34-10.25-15.76-1.14-1.95-1.58-4.4-1.92-6.69-1.97-13.17-7.82-22.1-21.73-26.34-16.16-4.93-28.88-16.26-41.07-27.71-2.34-2.2-4.1-5.24-5.49-8.2-4.99-10.59-8.68-21.57-9.73-33.36-.52-5.86-2.08-6.82-7.77-5.14-5.1 1.51-10 3.72-15.12 5.11-2.37.64-5.25.61-7.55-.16-1.46-.49-3.13-2.87-3.16-4.44-.03-1.53 1.57-4 3.01-4.52 13.99-5.07 28.01-10.09 42.22-14.48 4.15-1.28 9.12-2.07 14.97 2.65zm182.71 59.03c4.09-3.83 7.52-6.46 10.11-9.76 1.02-1.29.91-5.46.02-5.95-6.4-3.52-12.77-7.7-21.54-7.21 1.59 9.07 6.26 15.3 11.41 22.92zm-151.93 1.15c-6.44 4.76-9.92 9.05-8.91 14.3.96 5 5.73 6.42 12.18 5.08-.99-5.85-1.93-11.43-3.27-19.38zm33.93 55.7c.82-.04 1.64-.09 2.46-.13.9-4.16 2.16-8.29 2.57-12.5.34-3.47-1.7-5.65-5.53-5.18-3.7.46-5.35 2.63-4.15 6.21 1.33 3.94 3.08 7.74 4.64 11.59zm94.64-24.48c2.18 3.71 4.03 7.9 10.38 6.53.34-3.82.86-7.59-2.9-9.65-2.94-1.61-5.69-.49-7.47 3.12z"/>
    <path d="M1310.94 1322.32c-5.16-7.62-9.83-13.85-11.41-22.92 8.77-.5 15.14 3.68 21.54 7.21.9.49 1 4.66-.02 5.95-2.59 3.3-6.03 5.93-10.11 9.76zM1159.01 1323.47c1.34 7.95 2.28 13.53 3.27 19.38-6.45 1.34-11.22-.08-12.18-5.08-1.01-5.25 2.47-9.54 8.91-14.3zM1192.94 1379.17c-1.56-3.86-3.31-7.66-4.64-11.59-1.2-3.57.45-5.75 4.15-6.21 3.83-.47 5.86 1.7 5.53 5.18-.41 4.21-1.68 8.33-2.57 12.5-.82.04-1.64.09-2.46.13zM1287.58 1354.7c1.78-3.61 4.53-4.73 7.47-3.12 3.77 2.06 3.25 5.83 2.9 9.65-6.34 1.37-8.2-2.81-10.38-6.53z"
          fill="#fff"/>
</svg>