<svg xmlns="http://www.w3.org/2000/svg" width="2351" height="2351">
    <path d="M0 2351V0h2351v2351H0zm1348.62-1038.01c8.2 11.91 16.24 23.25 23.89 34.84 3.46 5.24 6.12 10.99.89 16.87 12.72 5.53 31.21-2 37.49-15.17-9.85-7.1-14.92 5.86-23.24 5.5-7.49-10.61-15.28-21.3-22.68-32.26-7.37-10.91-7.19-11.02-3.85-23.03-2.16-.55-4.32-1.69-6.4-1.54-9.98.69-18.01-3.28-25.57-9.33-3.85-3.08-8.37-5.36-12.73-7.75-6.97-3.81-7.67-5.51-5.85-13.64 2.39-10.71 4.62-21.46 6.77-32.22.88-4.39 1.17-8.82-4.11-10.96-4.84-1.96-7.25 1.32-9.88 4.51-7.18 8.7-14.99 16.93-21.6 26.03-4 5.5-8.31 5.84-13.82 4.23-1.91-.56-3.85-1.12-5.68-1.89-26.83-11.34-54.44-11.05-82.29-5.2-19.63 4.12-19.36 4.27-28.43-14.18-2.41-4.91-6.11-9.45-10.11-13.22-3.04-2.87-7.59-4.9-11.89-1.86-4.1 2.9-5.49 6.88-4.61 12.21.67 4.06.05 8.51-.85 12.6-1.15 5.17-4.04 10.05-4.56 15.22-.5 5.02 1.05 10.25 1.76 15.93-3.58 3.41-7.25 7.28-11.29 10.68-8.57 7.21-15.25 15.69-19.44 26.15-5.94 14.81-12.11 29.53-18.04 44.35-3.32 8.31-3.19 8.28-12.06 7.88-1.61-.07-3.26.78-6.26 1.57 13.98 10.05 28.15 11.6 43.97 11.06-2.4-6.9-7.63-6.47-11.76-7.78-7.21-2.28-8.14-3.44-5.91-10.74 2.22-7.31 4.9-14.5 7.78-21.57 2.19-5.37 5.01-10.47 7.71-16 3.42 1.93 5.83 3.08 8 4.57 9.08 6.18 18.07 12.48 27.13 18.69 3.16 2.17 6.27 5.44 10.83.7-2.39-5.35-4.08-11.23-7.36-16.03-7.65-11.21-9.45-23.89-11.21-36.78-.55-4.05-.09-7.51 3.27-9.74 9.12-6.04 17.78-13.64 27.83-17.24 15.56-5.57 31.95-9.57 48.32-11.9 14-1.99 28.68-2.19 42.47 2.55 15.38 5.29 30.56 11.23 45.65 17.32 5.19 2.09 9.95 5.34 14.73 8.35 2.12 1.33 3.79 3.38 4.6 4.14-3.66 11.76-6.86 22.21-10.18 32.62-2.19 6.88 4.2 11.79 10.25 10.94 3.54-.5 7.11-1.92 10.28-3.62 9.05-4.86 17.91-10.08 28.04-15.83z"
          fill="transparent"/>
    <path d="M1348.62 1312.99c-10.13 5.75-18.99 10.97-28.04 15.83-3.18 1.71-6.75 3.12-10.28 3.62-6.05.85-12.45-4.06-10.25-10.94 3.32-10.41 6.52-20.86 10.18-32.62-.82-.75-2.49-2.8-4.6-4.14-4.78-3.01-9.53-6.26-14.73-8.35-15.09-6.09-30.27-12.03-45.65-17.32-13.79-4.75-28.47-4.54-42.47-2.55-16.37 2.33-32.76 6.33-48.32 11.9-10.05 3.6-18.71 11.19-27.83 17.24-3.36 2.22-3.82 5.69-3.27 9.74 1.76 12.89 3.56 25.58 11.21 36.78 3.28 4.8 4.97 10.69 7.36 16.03-4.56 4.74-7.67 1.47-10.83-.7-9.05-6.21-18.05-12.51-27.13-18.69-2.18-1.48-4.58-2.63-8-4.57-2.69 5.53-5.52 10.64-7.71 16-2.88 7.08-5.56 14.27-7.78 21.57-2.22 7.3-1.3 8.46 5.91 10.74 4.13 1.31 9.37.89 11.76 7.78-15.82.55-29.99-1.01-43.97-11.06 3-.79 4.65-1.64 6.26-1.57 8.86.4 8.73.42 12.06-7.88 5.93-14.82 12.1-29.53 18.04-44.35 4.19-10.46 10.87-18.94 19.44-26.15 4.05-3.41 7.71-7.27 11.29-10.68-.72-5.68-2.27-10.91-1.76-15.93.52-5.17 3.42-10.05 4.56-15.22.91-4.09 1.52-8.54.85-12.6-.88-5.33.51-9.3 4.61-12.21 4.3-3.05 8.85-1.01 11.89 1.86 3.99 3.77 7.7 8.32 10.11 13.22 9.07 18.45 8.8 18.3 28.43 14.18 27.85-5.85 55.47-6.14 82.29 5.2 1.83.77 3.77 1.33 5.68 1.89 5.51 1.62 9.82 1.28 13.82-4.23 6.61-9.1 14.42-17.33 21.6-26.03 2.63-3.19 5.04-6.47 9.88-4.51 5.28 2.14 4.99 6.58 4.11 10.96-2.15 10.76-4.38 21.51-6.77 32.22-1.82 8.13-1.12 9.83 5.85 13.64 4.36 2.38 8.88 4.67 12.73 7.75 7.56 6.04 15.59 10.01 25.57 9.33 2.08-.14 4.24.99 6.4 1.54-3.35 12.01-3.52 12.12 3.85 23.03 7.4 10.95 15.19 21.64 22.68 32.26 8.32.36 13.39-12.6 23.24-5.5-6.28 13.17-24.76 20.7-37.49 15.17 5.23-5.88 2.57-11.63-.89-16.87-7.65-11.59-15.69-22.93-23.89-34.84zm-212.27-78.3c-2.3 11.48-4.35 21.52-6.26 31.58-.15.78.64 1.75 1.45 3.75 5.35-2.94 10.53-5.6 15.5-8.61 2.73-1.65 2.64-4.24 1.34-7.01-2.67-5.68-5.11-11.47-7.87-17.11-.45-.92-2.01-1.3-4.17-2.6zm-14.02 96.48c-3.19-10.99-5.89-20.28-8.61-29.64-7.1 2.94-9.53 5.91-14.59 17.63 7.18 3.72 14.42 7.47 23.2 12.01zm216.31-27.21c-5.91-3.35-10.51-9.15-16.58-5.66-6.63 3.82-7.23 11.25-5.87 19.63 8.93-1.62 15.26-6.35 22.45-13.97zm-37.52-50.66c-.89-.25-1.77-.49-2.66-.74-2.22 3.24-4.48 6.44-6.64 9.72-1.49 2.26-1.51 4.49 1.1 5.9 3.01 1.63 5.53.22 6.31-2.59 1.1-3.97 1.3-8.18 1.89-12.29z"/>
    <path d="M1136.35 1234.7c2.16 1.3 3.72 1.68 4.17 2.6 2.75 5.64 5.2 11.43 7.87 17.11 1.3 2.76 1.38 5.36-1.34 7.01-4.97 3.01-10.16 5.67-15.5 8.61-.81-2-1.6-2.96-1.45-3.75 1.91-10.06 3.96-20.1 6.26-31.58zM1122.33 1331.18c-8.78-4.54-16.02-8.29-23.2-12.01 5.05-11.72 7.48-14.69 14.59-17.63 2.72 9.36 5.42 18.65 8.61 29.64zM1338.64 1303.97c-7.19 7.62-13.52 12.35-22.45 13.97-1.36-8.37-.76-15.81 5.87-19.63 6.07-3.49 10.67 2.31 16.58 5.66zM1301.12 1253.31c-.59 4.11-.79 8.32-1.89 12.29-.78 2.81-3.3 4.22-6.31 2.59-2.61-1.41-2.59-3.64-1.1-5.9 2.16-3.27 4.42-6.48 6.64-9.72.89.25 1.77.49 2.66.74z"
          fill="#fff"/>
</svg>