<svg xmlns="http://www.w3.org/2000/svg" width="2351" height="2351">
    <path d="M0 2351V0h2351v2351H0zm1390.13-1011.26c2.43-1.83 3.58-3.12 5.02-3.7 7.3-2.96 8.71-8.54 9.06-15.91.6-12.6-1.46-24.49-5.9-36.14-3.23-8.48-5.72-10.21-14.66-10.68-11.63-.61-23.24-1.54-34.87-2.17-9.26-.51-18.55-1.3-27.8-1.04-18.22.51-36.19 3.59-54.55 4.02-21.04.49-41.8-.97-62.64-2.49-5.54-.4-10.94-2.6-16.42-3.89-4.84-1.15-9.66-2.71-14.58-3.17-11.92-1.1-23.93-1.35-35.85-2.48-31.4-2.96-62.46.02-93.42 4.95-4.22.67-8.43 1.92-12.4 3.51-2.34.94-5.08 2.65-6.12 4.77-5.71 11.67-11.62 23.59-8.94 37.1 1.1 5.54-.63 8.88-4.34 12.2-7.89 7.05-12.63 16.31-16.83 25.7-4.5 10.08 1.41 20.42 12.35 20.96 6.02.3 12.97-.88 18.14-3.79 15.63-8.8 31.29-17.94 41.53-33.54 3.99-6.07 9.34-9.02 16.76-8.75 4.62.17 9.27-.85 13.92-.97 11.63-.3 23.31-1.21 34.87-.37 18.89 1.36 37.69 4.04 56.55 5.92 20.52 2.05 41.06 3.87 61.6 5.64 3.29.28 6.87.5 9.91-.48 5.6-1.81 10.2-.22 15.27 1.91 3.82 1.6 8.51 2.69 12.49 2.03 11.36-1.88 22.49-.78 33.81.09 7.27.56 11.59 3.26 14.77 9.57 5.89 11.7 13.81 21.97 23.58 30.73 8.46 7.58 18.27 12.1 29.77 12.18 7.66.05 9.19-1.32 11.44-8.39 3.93-12.34 1.39-23.64-5.35-34.27-1.75-2.77-3.69-5.42-6.17-9.06z"
          fill="transparent"/>
    <path d="M1390.13 1339.74c2.49 3.64 4.42 6.29 6.17 9.06 6.75 10.64 9.28 21.93 5.35 34.27-2.25 7.08-3.78 8.45-11.44 8.39-11.51-.08-21.31-4.6-29.77-12.18-9.78-8.76-17.69-19.04-23.58-30.73-3.18-6.31-7.5-9.02-14.77-9.57-11.32-.87-22.45-1.97-33.81-.09-3.98.66-8.67-.43-12.49-2.03-5.07-2.13-9.67-3.72-15.27-1.91-3.05.98-6.63.77-9.91.48-20.54-1.77-41.08-3.6-61.6-5.64-18.86-1.88-37.66-4.56-56.55-5.92-11.56-.83-23.25.08-34.87.37-4.65.12-9.3 1.14-13.92.97-7.42-.27-12.77 2.68-16.76 8.75-10.24 15.6-25.9 24.74-41.53 33.54-5.18 2.91-12.12 4.09-18.14 3.79-10.95-.54-16.85-10.88-12.35-20.96 4.19-9.39 8.94-18.65 16.83-25.7 3.71-3.32 5.44-6.66 4.34-12.2-2.68-13.51 3.23-25.43 8.94-37.1 1.03-2.11 3.78-3.83 6.12-4.77 3.97-1.59 8.18-2.84 12.4-3.51 30.96-4.94 62.02-7.92 93.42-4.95 11.92 1.12 23.92 1.38 35.85 2.48 4.92.45 9.73 2.02 14.58 3.17 5.48 1.3 10.89 3.49 16.42 3.89 20.84 1.52 41.6 2.98 62.64 2.49 18.36-.42 36.34-3.51 54.55-4.02 9.25-.26 18.54.53 27.8 1.04 11.63.63 23.24 1.57 34.87 2.17 8.94.47 11.42 2.19 14.66 10.68 4.44 11.65 6.5 23.54 5.9 36.14-.35 7.37-1.77 12.96-9.06 15.91-1.44.58-2.58 1.87-5.02 3.7zm-19.25-10.18c3.18.81 6.43 1.4 9.51 2.47 9.54 3.33 17.41-1.38 16.86-11.25-.6-10.53-2.17-21.08-4.3-31.43-1.61-7.82-5.4-9.71-13.72-9.96-6.95-.21-13.95-.43-20.8-1.45-11.78-1.76-13.11-1.15-17.13 10.6-2.57 7.52-4.88 15.16-8.1 22.4-1.14 2.56-4.74 5.75-7.04 5.61-2.34-.14-5.36-3.64-6.5-6.33-3.61-8.53-6.54-17.35-9.63-26.1-2.37-6.72-2.47-6.75-9.07-5.7-6.86 1.1-13.75 2.59-20.65 2.76-6.2.15-8.97 3.08-10.63 8.39-1.28 4.09-2.51 8.31-4.57 12.03-4.17 7.52-9.09 7.9-14.84 1.24-3.46-4.01-5.96-8.9-9.66-12.64-3.38-3.42-7.48-7.58-11.81-8.34-10.4-1.84-21.11-1.9-31.69-2.62-4.21-.28-6.64 1.55-8.03 5.78-1.86 5.67-4.21 11.22-6.87 16.57-3.73 7.49-6.8 7.58-12.43 1.38-4.86-5.36-9.92-10.58-15.18-15.55-4.08-3.86-9.21-6.72-12.8-10.94-5.94-7-12.8-8.74-21.82-6.26-.83 3.49-1.28 7.15-2.58 10.47-2.77 7.04-5.27 14.35-9.23 20.71-3.5 5.63-7.11 5.74-11.07.4-5.7-7.68-10.77-15.95-15.03-24.51-2.15-4.31-4.3-6.29-8.92-5.91-9.59.77-19.26.89-28.75 2.28-15.85 2.32-26.8 23.13-20.21 39.65 2.67-2.42 4.9-4.65 7.35-6.62 3.61-2.91 7.22-5.87 11.12-8.37 2.51-1.61 4.41-.27 5.13 2.57-18.14 9.68-30.97 24.99-42.75 41.18-2.98 4.09-4.24 9.65-5.38 14.74-.45 2.01 1.6 4.58 2.51 6.9 1.93-1.41 4.31-2.47 5.7-4.29 3.75-4.92 7.3-9.88 14.9-12.12-3.16 6.99-10.4 9.92-11.01 18.15 2.34-.71 3.82-1 5.18-1.59 15.5-6.66 29.04-16.4 40.65-28.38 8-8.26 16.53-16.54 20.28-28.06 1.77 3.66 3.54 7.33 5.86 12.12 4.74-.3 10.29-.59 15.82-1.01 8.5-.65 17.16-2.78 25.47-1.82 24.95 2.87 49.7 7.52 74.98 7.05 4.92-.09 9.87.73 14.79 1.28 12.8 1.44 25.59 4.05 38.4 4.13 10.57.07 20.98-1.7 30.7 4.14 1.26.76 3.26.35 4.91.35 16.19 0 32.39-.04 48.58-.06.48 2.58.18 5.71 1.56 7.65 8.65 12.18 17.4 24.32 26.76 35.96 2.73 3.4 6.89 7.22 13.45 4.18-3.09-7.44-6.02-14.49-8.94-21.54 2.94.87 5.04 2.33 6.43 4.3 3.26 4.6 6.21 9.42 9.23 14.18 1.97 3.11 3.76 6.46 9.64 4.24.39-5.12 2.26-11.03.92-16.07-2.56-9.59-6.8-18.62-15.21-25.17-4.04-3.15-6.93-7.78-10.33-11.74zm-196.59-32.59c2.38-8.34 7.51-13.97 6.83-22.69-12.08-3.8-24.51-4.19-38.25-4.95l31.41 27.64zm-88.61-29.1c3.29 12.06 7.94 20.4 14.48 28.46 8.4-6.48 8.8-15.47 10.75-23.6.3-1.25-2.3-4.53-3.73-4.64-6.45-.51-12.97-.22-21.49-.22zm231.49 8.29c2.32 8.71 2.1 17.36 7.78 25.44 5.75-7.91 8.28-15.87 9.1-25.44h-16.88zm-62.67 20.92q5.95-5.75 5.87-14.01c-5.2-.34-10.46-2.8-16.4.93 3.73 4.63 7.11 8.83 10.54 13.08z"
          fill="#130c0c"/>
    <path d="M1047.81 1300.88c-.73-2.84-2.63-4.18-5.14-2.57-3.89 2.5-7.51 5.46-11.12 8.37-2.45 1.97-4.68 4.2-7.35 6.62-6.59-16.52 4.36-37.33 20.21-39.65 9.49-1.39 19.17-1.51 28.75-2.28 4.62-.37 6.77 1.6 8.92 5.91 4.27 8.56 9.33 16.83 15.03 24.51 3.96 5.34 7.57 5.23 11.07-.4 3.96-6.36 6.46-13.67 9.23-20.71 1.3-3.32 1.75-6.97 2.58-10.47 9.02-2.48 15.87-.74 21.82 6.26 3.59 4.22 8.72 7.09 12.8 10.94 5.26 4.97 10.31 10.19 15.18 15.55 5.63 6.2 8.7 6.11 12.43-1.38 2.66-5.34 5.01-10.9 6.87-16.57 1.38-4.23 3.82-6.07 8.03-5.78 10.59.72 21.3.78 31.69 2.62 4.33.76 8.42 4.92 11.81 8.34 3.69 3.74 6.19 8.63 9.66 12.64 5.75 6.66 10.68 6.28 14.84-1.24 2.06-3.72 3.29-7.94 4.57-12.03 1.67-5.32 4.43-8.25 10.63-8.39 6.9-.16 13.79-1.66 20.65-2.76 6.6-1.05 6.7-1.02 9.07 5.7 3.09 8.75 6.01 17.57 9.63 26.1 1.14 2.7 4.16 6.19 6.5 6.33 2.29.14 5.89-3.04 7.04-5.61 3.22-7.23 5.53-14.88 8.1-22.4 4.02-11.75 5.34-12.36 17.13-10.6 6.86 1.02 13.86 1.24 20.8 1.45 8.32.25 12.11 2.14 13.72 9.96 2.13 10.34 3.7 20.9 4.3 31.43.56 9.86-7.31 14.57-16.86 11.25-3.08-1.07-6.34-1.66-9.51-2.47-11.88-4.62-22.77-.95-33.5 4.02-16.19.02-32.39.06-48.58.06-1.66 0-3.66.4-4.91-.35-9.72-5.84-20.13-4.07-30.7-4.14-12.81-.08-25.59-2.69-38.4-4.13-4.92-.55-9.87-1.37-14.79-1.28-25.28.48-50.03-4.18-74.98-7.05-8.31-.96-16.97 1.17-25.47 1.82-5.53.42-11.08.71-15.82 1.01l-5.86-12.12c-2.18-1.24-4.22-2.89-6.56-3.64-4.02-1.29-8.23-2.02-12.36-2.99-2.28-.06-4.56-.12-6.83-.19-1.44.1-2.88.2-4.32.29z"
          fill="#680101"/>
    <path d="M1058.96 1300.77c4.13.97 8.33 1.7 12.36 2.99 2.34.75 4.38 2.4 6.56 3.64-3.75 11.51-12.27 19.8-20.28 28.06-11.61 11.98-25.15 21.72-40.65 28.38-1.36.59-2.85.88-5.18 1.59.61-8.23 7.85-11.16 11.01-18.15-7.59 2.24-11.14 7.2-14.9 12.12-1.39 1.82-3.77 2.88-5.7 4.29-.91-2.32-2.96-4.89-2.51-6.9 1.14-5.09 2.4-10.65 5.38-14.74 11.78-16.19 24.61-31.5 42.76-41.18l4.32-.3c2.28.06 4.56.12 6.84.19z"
          fill="#f66464"/>
    <path d="M1337.39 1333.58c10.73-4.97 21.62-8.63 33.5-4.02 3.41 3.96 6.29 8.6 10.33 11.74 8.42 6.55 12.65 15.58 15.21 25.17 1.35 5.05-.53 10.95-.92 16.07-5.88 2.23-7.67-1.12-9.64-4.24-3.02-4.76-5.97-9.59-9.23-14.18-1.39-1.96-3.49-3.43-6.43-4.3 2.93 7.05 5.85 14.1 8.94 21.54-6.56 3.04-10.72-.78-13.45-4.18-9.36-11.64-18.11-23.78-26.76-35.96-1.38-1.94-1.08-5.07-1.56-7.65z"
          fill="#f35c5c"/>
    <path d="M1174.29 1296.97c-11.1-9.77-20.59-18.12-31.41-27.64 13.74.76 26.17 1.15 38.25 4.95.68 8.73-4.45 14.35-6.83 22.69z"
          fill="#ebefef"/>
    <path d="M1085.68 1267.87c8.52 0 15.04-.29 21.49.22 1.44.11 4.03 3.39 3.73 4.64-1.95 8.13-2.35 17.12-10.75 23.6-6.54-8.06-11.19-16.4-14.48-28.46z"
          fill="#ecefef"/>
    <path d="M1317.17 1276.17h16.88c-.82 9.58-3.36 17.53-9.1 25.44-5.68-8.08-5.46-16.74-7.78-25.44z" fill="#eaeded"/>
    <path d="M1254.5 1297.08c-3.43-4.25-6.81-8.45-10.54-13.08 5.94-3.73 11.2-1.27 16.4-.93q.09 8.26-5.87 14.01z"
          fill="#d7dddd"/>
    <path d="M1058.96 1300.77c-2.28-.06-4.56-.12-6.84-.19 2.28.06 4.56.12 6.84.19z" fill="#130c0c"/>
</svg>