<svg xmlns="http://www.w3.org/2000/svg" width="2351" height="2351">
    <path d="M0 2351V0h2351v2351H0zm1133.5-1067.03c0 7.81-.56 15.47.11 23.04 1.94 22.15 8.45 42.8 25.44 58.07 23.29 20.93 51.48 30.04 82.49 29.86 14.71-.09 27.19-5.97 35.3-19.11 4.71-7.64 9.96-14.98 14.13-22.9 9.44-17.94 18.58-36.05 27.37-54.32 3.89-8.08 4.04-16.53.18-25.12-3.5-7.79-6.05-16.01-9.01-23.99 2.68-1.91 5.2-3.72 9.31-6.65-3.69-1.24-6.07-2.96-7.51-2.37-5.74 2.35-11.26 5.29-16.66 8.35-.84.48-.67 2.74-1.14 5.05 3.54-.71 5.99-1.21 9.46-1.91 2.54 7.33 4.83 14.58 7.55 21.65 3.06 7.96 2.24 15.42-1.01 23.2-11.2 26.84-25.83 51.77-41.33 76.26-5.05 7.97-12.6 12.34-21.21 13.61-35.13 5.16-65.27-4.64-88.25-32.45-11.38-13.77-16.02-30.51-17.35-48.09-.54-7.17-.09-14.42-.09-21.31 3.34-.98 5.6-1.64 9.14-2.67-7.08-5.52-14.01-6.04-20.85-6.07-1.77 0-3.67 2.25-5.26 3.74-.41.38.12 1.76.25 2.9 2.72.38 5.27.74 8.97 1.26z"
          fill="transparent"/>
    <path d="M1133.5 1283.97c-3.7-.52-6.25-.87-8.97-1.26-.12-1.14-.65-2.52-.25-2.9 1.59-1.48 3.49-3.75 5.26-3.74 6.84.04 13.76.55 20.85 6.07-3.53 1.03-5.79 1.69-9.14 2.67 0 6.89-.45 14.14.09 21.31 1.32 17.58 5.97 34.31 17.35 48.09 22.98 27.82 53.12 37.61 88.25 32.45 8.61-1.27 16.17-5.63 21.21-13.61 15.5-24.49 30.13-49.43 41.33-76.26 3.25-7.78 4.07-15.24 1.01-23.2-2.72-7.08-5.01-14.32-7.55-21.65-3.46.7-5.92 1.19-9.46 1.91.48-2.32.31-4.58 1.14-5.05 5.4-3.06 10.92-6 16.66-8.35 1.44-.59 3.83 1.13 7.51 2.37-4.11 2.94-6.64 4.74-9.31 6.65 2.95 7.98 5.51 16.2 9.01 23.99 3.86 8.59 3.71 17.04-.18 25.12-8.79 18.27-17.93 36.38-27.37 54.32-4.16 7.92-9.42 15.27-14.13 22.9-8.11 13.14-20.59 19.03-35.3 19.11-31.01.19-59.21-8.93-82.49-29.86-16.99-15.27-23.5-35.92-25.44-58.07-.66-7.56-.11-15.23-.11-23.04z"/>
</svg>