<?xml version="1.0" encoding="UTF-8"?><svg id="a" xmlns="http://www.w3.org/2000/svg" width="512" height="512" viewBox="0 0 2351 2351">
    <path d="M2351 2351H0V0h2351v2351zm-160.84-1326.13c-9.23 4.84-18.69 9.5-27.87 14.67-16.81 9.47-33.42 19.29-50.16 28.89-7.48 4.29-15.57 5.53-24.1 4.5-7.6-.92-15.21-1.92-22.84-2.36-25.47-1.47-49.68 2.55-71.91 16.09-6.14 3.74-13.44 5.52-19.87 8.85-7.61 3.94-15.74 7.58-22.04 13.16-7.39 6.54-13.24 14.87-19.42 22.69-8.35 10.56-12.03 22.76-12.23 36.23-.18 11.98-.77 23.97-1.45 35.94-.63 11.08-1.49 11.69-12.51 14.5-56.27 14.31-113.36 22.98-171.38 25.57-14.3.64-28.61 1.45-42.85 2.92-23.18 2.38-46.24 6.44-69.46 7.8-23.54 1.37-47.23.51-70.85.26-9.92-.1-17.13-5-20.46-14.64-8.86-25.67-23.08-48.63-36.4-72.03-5.87-10.32-9.5-11.64-21.34-8.9-2.59.6-5.11 1.46-7.67 2.2-12.14 3.5-24.15 7.53-36.44 10.4-25.91 6.06-51.97 11.49-77.95 17.25-39.98 8.86-80.02 17.23-120.75 22.07-10.82 1.28-21.48 4.33-32.03 7.24-3.99 1.1-7.9 3.58-11.06 6.34-5.56 4.87-6.34 11.74-2.81 17.11 2.93 4.46 6.57 4.91 14.3 3.03 11.6-2.83 23.25-5.67 35.02-7.59 16.09-2.62 32.45-3.7 48.46-6.67 33.35-6.18 66.66-12.71 99.8-19.96 25.31-5.54 51.11-9.24 75.55-18.44 1.83-.69 3.91-.8 5.89-1.02 10-1.12 16.78 2.34 21.26 11.3 1.92 3.84 2.98 8.1 4.7 12.06 8.73 20.11 17.01 40.44 26.51 60.17 6.85 14.23 14.49 17.28 30.29 14.06 18.79-3.83 37.77-4.78 56.66-2.65 19.1 2.15 37.64.7 56.56-2.34 50.32-8.08 101-13.47 152-14.64 27.18-.62 53.61-4.47 79.57-12.63 13.97-4.39 28.32-7.26 43.27-5.86 13.92 1.31 20.81-6.18 18.07-20.07-2.05-10.4-4.15-21.15-8.55-30.66-11.98-25.9 2.78-60.78 27.06-71.29 20.72-8.97 41.68-17.47 62.89-25.21 6.95-2.54 15.08-3.06 22.57-2.67 13.95.73 25.24 7.52 34.3 18.19 9.95 11.71 20.56 22.68 34.54 29.83 21.93 11.22 43.72 22.71 65.6 34.03 5.62 2.9 11.2 5.96 17.08 8.23 9.43 3.64 17.27-2.45 15.59-12.35-.87-5.08-3.38-9.99-5.72-14.68-3.35-6.71-2.45-8.74 4.8-9.99 4.87-.84 9.91-1.61 14.41-3.5 6.06-2.55 8.73-7.85 8.7-14.49-.03-6.45-3.38-10.64-8.94-13.22-2.7-1.25-5.6-2.1-8.46-2.98-23.52-7.23-47.08-14.35-70.57-21.68-5.84-1.82-11.67-3.96-16.48-9.2 6.91-5.23 13.18-10.15 19.64-14.82 8.62-6.24 17.65-11.95 26.03-18.49 10.11-7.88 11.3-18.75 3.49-30.54zm-2041.79 55.97c-1.8-3.62-3.05-5.95-4.14-8.36-4.37-9.71-8.57-19.5-13.05-29.16-3.79-8.18-7.47-8.5-12.48-.83-2.31 3.53-3.92 7.64-5.17 11.7-2.97 9.66-.58 19.11 1.9 28.49.76 2.89 2.03 5.72 2.3 8.65.65 7.12-3.3 10.36-9.77 7.53-5.12-2.23-9.73-5.69-14.47-8.74-3.91-2.52-7.4-5.87-11.57-7.76-8.38-3.78-15.96 1.79-14.79 10.82 1.77 13.61 7.59 24.51 20.85 30.7 7.81 3.64 15.2 8.28 22.51 12.89 8.5 5.35 12.82 13.12 12.68 23.42-.15 11.29-.19 22.61.36 33.89.8 16.43-.1 32.36-5.89 48.16-2.88 7.86-3.21 17.02-2.92 25.53.16 4.87 2.75 10.74 6.2 14.22 13.11 13.22 26.55 26.19 43.44 34.84 39.83 20.41 82.36 6.98 102.65-32.57 1.06-2.07 2-4.21 3.12-6.26 4.32-7.88 8.36-15.93 13.12-23.54 5.45-8.72 13.08-11.94 22.24-8.56 15.89 5.86 31.47 12.57 47.15 19 11.66 4.78 23.06 10.27 34.95 14.37 13.77 4.75 28.31 6.8 41.75 13.13 19.83 9.34 40.17 17.62 60.46 25.95 19.68 8.07 39.58 15.6 59.37 23.41 8.04 3.17 15.98 6.62 24.07 9.65 12.93 4.84 19.69 2.95 27.91-7.88 3.82-5.03 7.29-10.35 10.72-15.66 21.69-33.55 43.41-67.09 64.91-100.76 5.4-8.45 12.58-11.86 22.54-11.81 25.3.11 50.61-.84 75.91-.57 31.95.33 63.91 1.21 95.84 2.3 22.94.79 45.84 2.57 68.78 3.44 25.94.98 51.97.47 77.84 2.37 33.52 2.46 66.88 6.94 100.37 9.95 11.56 1.04 23.3.9 34.9.23 12.74-.73 14.77-6.19 15.83-14.41.93-7.27-5.35-12.23-15.73-13.06-11.29-.89-22.59-1.63-33.9-2.16-18.96-.9-38.21.2-56.84-2.74-32.76-5.17-65.57-5.98-98.55-6.53-28.27-.47-56.67-.8-84.75-3.71-28.9-3-57.62-5.46-86.67-3.52-21.93 1.47-43.86 2.65-65.88.65-12.24-1.11-24.6-.99-36.9-1.54-11.39-.51-20.39 3.78-25.68 13.9-19.56 37.44-46.43 70.59-63.84 109.3-4.52 10.04-9.13 12.15-20.01 8.9-10.46-3.12-20.59-7.39-30.72-11.5-11.38-4.62-22.49-9.93-33.94-14.38-9.27-3.61-19.03-5.98-28.29-9.64-43.28-17.1-86.49-34.38-129.67-51.74-20.37-8.19-40.59-16.75-58.71-29.47-1.06-.74-2.33-1.2-3.69-1.88-10.32 8.89-18.77 19.26-24.87 31.11-6.05 11.75-11.52 23.96-15.71 36.48-5.83 17.42-17 27.42-35.15 29.39-6.6.72-13.33 1.16-19.93.75-25.46-1.57-44.47-13.85-58.14-35.64 9.96-16.54 10.37-34.17 7.77-52.4-2.37-16.63-.4-32.89 9.88-46.69 7.22-9.69 10.04-19.91 9.23-31.72-1.11-16.05-.53-31.98 5.89-47.14 1.78-4.2.73-7.71-2.94-11.21-7.23 2.68-14.6 5.41-22.73 8.42z"
          fill="transparent"/>
    <path d="M2190.16 1024.87c7.81 11.79 6.61 22.66-3.49 30.54-8.38 6.54-17.4 12.25-26.03 18.49-6.45 4.67-12.73 9.59-19.64 14.82 4.81 5.24 10.64 7.38 16.48 9.2 23.49 7.33 47.05 14.45 70.57 21.68 2.86.88 5.76 1.72 8.46 2.98 5.56 2.58 8.91 6.77 8.94 13.22.03 6.64-2.64 11.94-8.7 14.49-4.5 1.89-9.54 2.66-14.41 3.5-7.25 1.25-8.15 3.28-4.8 9.99 2.35 4.7 4.86 9.6 5.72 14.68 1.69 9.91-6.15 15.99-15.59 12.35-5.88-2.27-11.47-5.33-17.08-8.23-21.88-11.31-43.67-22.81-65.6-34.03-13.98-7.15-24.59-18.12-34.54-29.83-9.07-10.67-20.35-17.46-34.3-18.19-7.49-.39-15.61.13-22.57 2.67-21.21 7.73-42.16 16.24-62.89 25.21-24.28 10.5-39.04 45.39-27.06 71.29 4.4 9.52 6.5 20.26 8.55 30.66 2.73 13.89-4.16 21.38-18.07 20.07-14.94-1.4-29.3 1.47-43.27 5.86-25.96 8.15-52.39 12-79.57 12.63-51 1.17-101.68 6.57-152 14.64-18.92 3.04-37.46 4.49-56.56 2.34-18.89-2.13-37.87-1.18-56.66 2.65-15.8 3.22-23.43.17-30.29-14.06-9.5-19.74-17.78-40.07-26.51-60.17-1.72-3.96-2.78-8.22-4.7-12.06-4.48-8.96-11.25-12.42-21.26-11.3-1.98.22-4.06.33-5.89 1.02-24.44 9.2-50.23 12.9-75.55 18.44-33.14 7.25-66.44 13.78-99.8 19.96-16.02 2.97-32.37 4.05-48.46 6.67-11.78 1.92-23.42 4.76-35.02 7.59-7.72 1.88-11.37 1.43-14.3-3.03-3.53-5.37-2.75-12.24 2.81-17.11 3.15-2.76 7.07-5.24 11.06-6.34 10.55-2.91 21.21-5.96 32.03-7.24 40.73-4.84 80.78-13.21 120.75-22.07 25.98-5.76 52.04-11.18 77.95-17.25 12.29-2.88 24.3-6.9 36.44-10.4 2.55-.74 5.08-1.6 7.67-2.2 11.84-2.74 15.47-1.41 21.34 8.9 13.31 23.41 27.53 46.36 36.4 72.03 3.33 9.64 10.55 14.53 20.46 14.64 23.62.25 47.31 1.11 70.85-.26 23.22-1.36 46.28-5.41 69.46-7.8 14.23-1.46 28.55-2.28 42.85-2.92 58.02-2.59 115.11-11.26 171.38-25.57 11.03-2.8 11.88-3.41 12.51-14.5.68-11.97 1.27-23.95 1.45-35.94.2-13.46 3.88-25.66 12.23-36.23 6.18-7.82 12.04-16.15 19.42-22.69 6.3-5.58 14.43-9.22 22.04-13.16 6.43-3.33 13.73-5.11 19.87-8.85 22.23-13.54 46.45-17.56 71.91-16.09 7.63.44 15.24 1.44 22.84 2.36 8.54 1.03 16.62-.21 24.1-4.5 16.74-9.6 33.35-19.41 50.16-28.89 9.17-5.17 18.64-9.83 27.87-14.67zm-2041.78 55.97c8.12-3.01 15.5-5.74 22.73-8.42 3.67 3.5 4.71 7.02 2.94 11.21-6.42 15.15-7.01 31.08-5.89 47.14.82 11.82-2.01 22.03-9.23 31.72-10.28 13.8-12.25 30.06-9.88 46.69 2.6 18.23 2.19 35.86-7.77 52.4 13.67 21.79 32.69 34.07 58.14 35.64 6.61.41 13.33-.04 19.93-.75 18.15-1.97 29.32-11.97 35.15-29.39 4.19-12.52 9.65-24.73 15.71-36.48 6.1-11.85 14.55-22.21 24.87-31.11 1.36.68 2.63 1.14 3.69 1.88 18.12 12.71 38.34 21.27 58.71 29.47 43.18 17.36 86.39 34.64 129.67 51.74 9.25 3.66 19.02 6.03 28.29 9.64 11.44 4.46 22.55 9.76 33.94 14.38 10.13 4.11 20.27 8.39 30.72 11.5 10.88 3.24 15.49 1.14 20.01-8.9 17.42-38.71 44.29-71.86 63.84-109.3 5.29-10.13 14.29-14.41 25.68-13.9 12.3.55 24.65.43 36.9 1.54 22.01 2 43.95.81 65.88-.65 29.05-1.94 57.77.52 86.67 3.52 28.08 2.91 56.48 3.24 84.75 3.71 32.98.55 65.8 1.37 98.55 6.53 18.62 2.94 37.88 1.85 56.84 2.74 11.31.53 22.61 1.26 33.9 2.16 10.38.82 16.66 5.78 15.73 13.06-1.06 8.22-3.09 13.69-15.83 14.41-11.6.66-23.35.81-34.9-.23-33.48-3.02-66.85-7.5-100.37-9.95-25.86-1.9-51.9-1.38-77.84-2.37-22.94-.87-45.84-2.65-68.78-3.44-31.94-1.09-63.89-1.97-95.84-2.3-25.3-.26-50.61.69-75.91.57-9.96-.04-17.14 3.36-22.54 11.81-21.5 33.67-43.23 67.2-64.91 100.76-3.43 5.31-6.9 10.63-10.72 15.66-8.22 10.83-14.98 12.72-27.91 7.88-8.09-3.03-16.03-6.47-24.07-9.65-19.79-7.81-39.69-15.34-59.37-23.41-20.29-8.32-40.63-16.61-60.46-25.95-13.45-6.33-27.98-8.38-41.75-13.13-11.89-4.1-23.29-9.59-34.95-14.37-15.68-6.43-31.26-13.14-47.15-19-9.17-3.38-16.79-.16-22.24 8.56-4.75 7.61-8.8 15.66-13.12 23.54-1.12 2.04-2.06 4.18-3.12 6.26-20.29 39.55-62.82 52.97-102.65 32.57-16.89-8.65-30.33-21.63-43.44-34.84-3.45-3.48-6.03-9.35-6.2-14.22-.29-8.51.04-17.67 2.92-25.53 5.79-15.8 6.69-31.73 5.89-48.16-.55-11.28-.51-22.59-.36-33.89.13-10.3-4.19-18.07-12.68-23.42-7.32-4.61-14.7-9.24-22.51-12.89-13.26-6.19-19.09-17.09-20.85-30.7-1.17-9.03 6.42-14.6 14.79-10.82 4.17 1.88 7.66 5.24 11.57 7.76 4.74 3.06 9.35 6.51 14.47 8.74 6.47 2.82 10.42-.41 9.77-7.53-.27-2.93-1.54-5.76-2.3-8.65-2.48-9.38-4.87-18.82-1.9-28.49 1.25-4.06 2.87-8.17 5.17-11.7 5.01-7.67 8.69-7.35 12.48.83 4.47 9.66 8.68 19.44 13.05 29.16 1.08 2.41 2.34 4.74 4.14 8.36z"/>

    <path d="M0 2351V0h2351v2351H0zm1374.77-787.65c-5.31 0-10.63.04-15.94-.02-3.5-.04-6.58.37-8.1 4.26-1.67 4.26.6 7.11 3.33 9.61 1.67 1.53 3.77 2.85 5.92 3.55 17.38 5.69 35.06 8.28 53 3.12 20.14-5.79 40.28-11.63 60.15-18.27 10.02-3.35 19.67-8.07 29.08-12.96 10.64-5.53 11.71-11.36 4.41-20.66-30.65-39.02-61.44-77.93-92.08-116.96-8.02-10.21-15.66-20.71-23.53-31.04-8.86-11.62-16.9-24.02-26.82-34.66-32.93-35.3-66.53-69.96-99.9-104.86-1.38-1.44-2.8-2.9-4.43-4.02-3.61-2.49-7.62-5.16-11.89-2.16-4.54 3.19-2.62 7.68-1.07 11.78 3.74 9.9 10.36 17.64 17.9 24.89 11.75 11.3 23.23 22.89 34.64 34.54 8.85 9.03 17.6 18.18 26.08 27.57 8.67 9.61 17.29 19.31 25.34 29.43 12.64 15.9 24.59 32.34 37.17 48.29 26.58 33.73 54.77 66.22 78.6 102.08 1.66 2.49 3.43 4.91 5.02 7.45 2.65 4.23 1.17 7.69-2.42 10.4-1.56 1.18-3.54 1.84-5.37 2.61-15.04 6.31-30.08 12.58-45.13 18.87-14.09 5.89-28.71 8.31-43.94 7.14zm-378.36 41.06l.18-.89c1.31.21 2.66.74 3.93.59 8.72-1.04 18.46 1.24 25.18-6.65 1.93-2.26 3.69-5.79 3.41-8.53-.39-3.89-4.42-4.15-7.9-4.31-6.64-.3-13.36-.28-19.88-1.38-15.7-2.65-31.76-3.65-46.71-9.93-7.55-3.17-9.1-6.41-5.95-13.79.91-2.13 2.2-4.1 3.48-6.05 6.2-9.47 12.39-18.94 18.68-28.34 25.2-37.59 50.61-75.03 71.84-115.12 9.03-17.04 19.11-33.52 28.45-50.4 8.36-15.12 16.29-30.48 24.54-45.67 4.96-9.12 12.1-15.75 22.33-18.71 5.27-1.52 9.67-4.38 12.56-9.24 7.47-12.59 15.14-25.06 22.3-37.83 1.66-2.97 2.32-6.97 2.11-10.42-.32-5.24-4.32-7.74-9.19-5.84-2.93 1.15-5.69 3.44-7.78 5.86-2.58 2.99-4.3 6.7-6.56 9.99-4.74 6.9-9.55 14.14-18.01 16.56-7.97 2.28-13.18 7.14-17.52 13.78-3.09 4.72-6.85 9-10.32 13.47-6.98 8.98-12.93 18.47-16.33 29.51-1.13 3.68-3.82 6.92-6.01 10.21-7.92 11.89-16.6 23.33-23.77 35.66-18.06 31.06-35.29 62.6-53.22 93.75-5.79 10.06-12.55 19.59-19.13 29.18-9.02 13.14-18.56 25.93-27.41 39.19-9.4 14.08-16.84 29.44-29.03 41.65-5.88 5.89-4.48 14.38 2.72 18.68 3.58 2.14 7.99 3.33 12.17 3.95 15.13 2.25 30.34 3.88 45.47 6.12 8.51 1.26 16.92 3.27 25.37 4.94z"
          fill="transparent"/>
    <path d="M1374.77 1563.35c15.23 1.17 29.86-1.25 43.94-7.14 15.04-6.29 30.09-12.56 45.13-18.87 1.84-.77 3.81-1.43 5.37-2.61 3.59-2.71 5.07-6.17 2.42-10.4-1.59-2.54-3.36-4.96-5.02-7.45-23.83-35.85-52.02-68.34-78.6-102.08-12.57-15.95-24.53-32.39-37.17-48.29-8.05-10.13-16.66-19.83-25.34-29.43-8.48-9.39-17.23-18.54-26.08-27.57-11.41-11.65-22.89-23.24-34.64-34.54-7.54-7.25-14.17-14.99-17.9-24.89-1.55-4.1-3.47-8.59 1.07-11.78 4.27-3 8.28-.33 11.89 2.16 1.63 1.12 3.05 2.58 4.43 4.02 33.36 34.89 66.97 69.56 99.9 104.86 9.92 10.64 17.96 23.03 26.82 34.66 7.87 10.33 15.51 20.83 23.53 31.04 30.64 39.03 61.44 77.93 92.08 116.96 7.31 9.3 6.23 15.12-4.41 20.66-9.41 4.89-19.05 9.61-29.08 12.96-19.87 6.64-40.01 12.49-60.15 18.27-17.94 5.16-35.63 2.57-53-3.12-2.14-.7-4.24-2.03-5.92-3.55-2.74-2.5-5-5.34-3.33-9.61 1.52-3.9 4.6-4.3 8.1-4.26 5.31.06 10.63.02 15.94.02zM996.41 1604.41c-8.45-1.67-16.85-3.67-25.37-4.94-15.13-2.24-30.34-3.88-45.47-6.12-4.18-.62-8.59-1.82-12.17-3.95-7.21-4.3-8.6-12.79-2.72-18.68 12.2-12.22 19.64-27.57 29.03-41.65 8.85-13.26 18.38-26.05 27.41-39.19 6.58-9.59 13.34-19.11 19.13-29.18 17.92-31.14 35.15-62.69 53.22-93.75 7.17-12.33 15.85-23.76 23.77-35.66 2.19-3.3 4.88-6.54 6.01-10.21 3.4-11.04 9.35-20.53 16.33-29.51 3.47-4.47 7.23-8.75 10.32-13.47 4.35-6.64 9.55-11.49 17.52-13.78 8.46-2.42 13.27-9.66 18.01-16.56 2.26-3.29 3.98-7 6.56-9.99 2.09-2.42 4.85-4.71 7.78-5.86 4.87-1.9 8.87.6 9.19 5.84.21 3.45-.44 7.45-2.11 10.42-7.15 12.77-14.82 25.24-22.3 37.83-2.88 4.86-7.29 7.72-12.56 9.24-10.23 2.96-17.37 9.59-22.33 18.71-8.25 15.18-16.18 30.54-24.54 45.67-9.34 16.88-19.42 33.36-28.45 50.4-21.24 40.08-46.65 77.52-71.84 115.12-6.3 9.4-12.49 18.87-18.68 28.34-1.27 1.95-2.57 3.92-3.48 6.05-3.15 7.38-1.59 10.62 5.95 13.79 14.95 6.28 31.01 7.28 46.71 9.93 6.52 1.1 13.24 1.08 19.88 1.38 3.49.16 7.51.42 7.9 4.31.27 2.74-1.49 6.27-3.41 8.53-6.72 7.89-16.46 5.6-25.18 6.65-1.27.15-2.62-.38-3.93-.59l-.18.89z"/>

    <path d="M2351 2351H0V0h2351v2351zM971.77 627.36c-2.99-5.19.02-7.68 2.53-10.3 15.06-15.69 33.9-24.55 54.77-28.95 6.62-1.4 14.15-1.11 20.75.51 17.86 4.37 35.21 10.91 50.07 21.84 36.87 27.11 59.87 62.7 63.36 109.31 1.91 25.58 5.03 50.88 11.07 75.93 3.33 13.8 3.81 28.29 5.36 42.5 1.59 14.53 2.79 29.1 4.41 43.63 1.61 14.52 3.93 28.97 5.17 43.51.98 11.51-5.73 16.24-16.2 11.42-13.28-6.1-26.45-12.55-39.15-19.75-22.65-12.84-45.79-24.33-71.02-31.33-5.01-1.39-9.78-4.11-14.25-6.87-13.88-8.56-27.49-17.56-41.36-26.13-7.34-4.53-15.21-8.11-20.81-15.18-1.94-2.45-5.43-3.69-8.25-5.43-8.2-5.04-16.73-9.6-24.56-15.16-20.63-14.65-41.17-29.44-61.33-44.72-12.44-9.43-24.56-19.4-36.03-29.99-8.42-7.78-17.32-14.32-27.61-19.39-12.22-6.01-24.35-12.37-35.82-19.67-11.22-7.13-11.68-11.91-6.74-24.54 3.24-8.31 5.91-16.9 8.06-25.55 1.99-8-1.31-14.51-8.4-18.54-5.17-2.94-10.64-5.51-16.25-7.46-8.5-2.95-16.38-1.19-23.29 4.72-13.93 11.91-23.14 26.63-25.9 44.86-2.48 16.33 1.71 30.46 15.74 40.47 6.34 4.53 13.15 6.16 20.66 2.49 8.77-4.28 17.82-3.7 25.88 1.15 13.96 8.38 27.76 17.11 41 26.58 18.67 13.36 36.52 27.86 55.17 41.26 15.42 11.08 31.42 21.32 44.8 35 1.61 1.64 3.64 2.89 5.58 4.18 13.03 8.66 25.96 17.48 39.17 25.87 11.79 7.49 23.89 14.5 35.87 21.7 6.83 4.11 13.63 8.28 20.55 12.24 11.25 6.44 22.32 13.26 33.95 18.93 13.14 6.4 26.96 11.36 40.22 17.54 22.6 10.54 44.86 21.83 67.52 32.25 18.43 8.47 37.24 16.12 55.87 24.16 7.02 3.03 12.55 1.62 17.64-4.37 22.42-26.39 45.34-52.36 67.6-78.88 24.62-29.33 48.48-59.28 73.08-88.62 37.01-44.14 75.09-87.39 111.35-132.13 31.89-39.34 63.75-78.58 100.38-113.68.96-.92 2-1.8 2.81-2.84 5.56-7.13 12.85-10.98 21.61-13.27 16.46-4.3 26.31-16.32 32.84-31.19 3.74-8.52.76-18.09-6.44-21.87-10.71-5.63-22.17-9.41-34.33-9.53-9.53-.09-18.85 1.76-23.8 11.52-3.79 7.47-6.55 15.29-5.75 23.92 1.26 13.69-4.23 24.59-13.91 33.81-6.02 5.74-12.19 11.36-17.84 17.45-18.98 20.45-39.18 39.86-54.24 63.68-2.47 3.91-5.79 7.3-8.77 10.89-21.91 26.37-44.09 52.53-65.67 79.16-18.03 22.25-35.34 45.07-53.04 67.58-2.46 3.13-5.38 5.9-8.04 8.88-7.32 8.19-14.92 16.15-21.87 24.65-23.6 28.84-47.01 57.84-70.38 86.87-3.75 4.65-6.87 9.8-10.41 14.62-1.75 2.38-3.51 4.94-5.81 6.69-4.4 3.34-7.88 2.75-10.8-2.07-2.56-4.23-5.47-8.78-6.17-13.5-2.66-17.74-5.04-35.56-6.47-53.44-1.83-22.86-2.37-45.83-3.98-68.71-1.08-15.25-3.6-30.4-4.51-45.65-1.3-21.7 1.75-43.18 4.91-64.6 1.65-11.16 2.56-22.56 5.5-33.38 5.74-21.07 16.72-39.8 28.81-57.84 1.65-2.46 3.66-4.79 5.89-6.74 13.53-11.85 27.07-23.69 40.81-35.29 9.02-7.61 19.54-12.69 30.73-16.23 4.93-1.56 10.42-3.38 14.69 2.6-1.59 6.62-3.68 13.34-4.66 20.21-.63 4.44-.77 9.56.83 13.6 5.67 14.26 26.9 23.73 41.17 18.18 17.28-6.72 29.39-19.26 32.04-37.78 2.29-15.93-1.52-28.65-18.11-34.45-11.44-4-23.06-6.62-35.1-6.77-24.05-.29-46.73 5.91-68.66 15.3-13.7 5.87-25.4 14.42-34.96 25.92-4.47 5.37-9.23 10.5-13.92 15.69-13.41 14.83-26.82 29.64-36.36 47.44-.77 1.44-1.85 2.8-3.06 3.9-2.48 2.24-6.12 1.54-7.34-1.54-.71-1.8-.74-3.91-.86-5.89-1.98-34.11-7.69-67.86-6.43-102.33 1.41-38.56 1.35-76.92 10.09-114.98a856.13 856.13 0 0124.96-87.19c9.35-27.13 26.76-49.73 43.99-72.19 3.25-4.23 8.9-6.78 13.77-9.53 1.93-1.09 4.73-.63 5.98-.76-.78 14.05-1.63 27.24-2.15 40.45-.09 2.18.96 4.56 1.96 6.61 5.39 11.01 13.82 18.98 25.63 22.26 21.87 6.07 42.19 1.67 60.89-10.81 4.35-2.9 7.66-6.91 7.3-12.35-.84-12.91-1.4-25.92-3.5-38.65-1.83-11.13-8.71-19.15-19.71-23.3-4.32-1.63-8.39-4.01-12.4-6.34-23.38-13.57-47.14-19.52-72.19-4.16-2.26 1.38-4.77 2.36-7.17 3.52-21.44 10.4-37.27 26.41-48.17 47.55-3.19 6.19-6.7 12.33-10.92 17.84-5.97 7.8-10.14 16.24-13.16 25.56-5.85 18.04-12.23 35.91-18.46 53.83-.93 2.67-1.19 6.24-6.85 5.6-.37-2.78-1.01-5.85-1.15-8.95-.36-7.98-.41-15.97-.75-23.95-.54-12.6-1.18-25.19-1.86-37.79-.6-11.27-.68-22.61-2.13-33.77-1.62-12.5-4.92-24.78-6.77-37.26-4.76-32.22-2.68-63.68 11.38-93.69 1.68-3.58 2.99-7.47 3.67-11.35 1.52-8.66-.68-13.22-8.7-16.94-5.69-2.64-11.79-4.49-17.84-6.27-13.73-4.05-33 3.7-41.45 19.15-3.34 6.1-3.49 12.16.68 17.85 3.93 5.36 7.78 10.91 12.46 15.58 6.9 6.9 9.8 14.86 8.95 24.39-1.66 18.71 1.3 37.16 2.71 55.73 1.95 25.84 3.4 51.71 1.87 77.73-1.03 17.53.25 35.21.76 52.81.32 11.13 1.57 22.26-1.21 33.69-2.67-3-4.5-6.29-6.18-9.66-4.15-8.33-8.39-16.63-12.3-25.07-5.44-11.73-11.94-23.19-15.62-35.47-6.52-21.8-15.47-42.41-25.16-62.92-13.02-27.53-35.27-41.51-64.04-47.03-10.46-2-20.98-3.63-31.45-5.6-21.67-4.07-42.43-.99-62.39 7.94-9.99 4.47-14.39 11.55-13.19 22.16 1.16 10.23 2.53 20.52 4.97 30.5 4.68 19.17 20.31 30.79 40.15 30.83 3 0 6.01.13 8.99-.11 16.18-1.31 27.41-9.96 33.64-24.51 6.9-16.12-1.58-33.69-18.19-39.58-4.71-1.67-10.57-1.57-13.75-8.55 4.3-.52 7.86-1.67 11.23-1.25 17.54 2.19 34.86 5.52 50.88 13.45 7.96 3.94 14.13 9.94 18.24 17.89 5.04 9.75 10.26 19.43 14.92 29.36 2.67 5.68 4.65 11.73 6.51 17.74 3.83 12.36 6.5 25.14 11.19 37.15 13.92 35.64 28.57 70.99 42.97 106.44 3 7.39 5.78 14.9 9.38 21.99 3.98 7.86 6.65 15.94 7.16 24.72.71 12.28 1.15 24.59 2.21 36.85 1.69 19.53 3.6 39.05 5.82 58.52 1.24 10.87 3.3 21.65 4.95 32.48.32 2.08.43 4.19.66 6.54-1.38-.34-2.14-.31-2.61-.67-25.35-19.42-54.19-32.4-83.13-45.24-9.75-4.32-19.91-6.55-30.14-3.37-25.65 7.98-49.78 19.12-69.4 38.08-14.43 13.95-25.17 30.17-27.58 50.75-2.15 18.33 1.95 34.42 17.17 46.34 9.9 7.75 21.54 10.1 33.72 10.55 4.68.17 8.49-1.85 10.74-6.01 6.01-11.12 12.87-21.92 17.58-33.57 10.1-24.96-9.08-48.55-35.76-44.93-1.3.18-2.62.15-4.26.24z"
          fill="transparent"/>
    <path d="M971.77 627.36c1.64-.09 2.96-.06 4.26-.24 26.68-3.63 45.86 19.97 35.76 44.93-4.72 11.66-11.57 22.45-17.58 33.57-2.25 4.16-6.06 6.19-10.74 6.01-12.17-.45-23.82-2.8-33.72-10.55-15.21-11.91-19.31-28.01-17.17-46.34 2.41-20.57 13.15-36.8 27.58-50.75 19.61-18.96 43.75-30.1 69.4-38.08 10.23-3.18 20.39-.96 30.14 3.37 28.94 12.83 57.78 25.82 83.13 45.24.46.36 1.22.33 2.61.67-.23-2.35-.34-4.46-.66-6.54-1.65-10.83-3.71-21.61-4.95-32.48-2.22-19.48-4.12-38.99-5.82-58.52-1.06-12.25-1.5-24.56-2.21-36.85-.51-8.79-3.18-16.86-7.16-24.72-3.59-7.09-6.37-14.61-9.38-21.99-14.4-35.45-29.05-70.8-42.97-106.44-4.69-12.01-7.36-24.79-11.19-37.15-1.86-6.01-3.84-12.06-6.51-17.74-4.67-9.93-9.88-19.6-14.92-29.36-4.11-7.95-10.28-13.95-18.24-17.89-16.02-7.93-33.34-11.26-50.88-13.45-3.37-.42-6.94.73-11.23 1.25 3.18 6.98 9.04 6.88 13.75 8.55 16.6 5.89 25.09 23.47 18.19 39.58-6.23 14.55-17.46 23.2-33.64 24.51-2.98.24-5.99.12-8.99.11-19.84-.04-35.47-11.66-40.15-30.83-2.43-9.98-3.81-20.27-4.97-30.5-1.2-10.62 3.2-17.69 13.19-22.16 19.97-8.94 40.72-12.02 62.39-7.94 10.46 1.97 20.99 3.6 31.45 5.6 28.78 5.51 51.02 19.5 64.04 47.03 9.7 20.5 18.64 41.11 25.16 62.92 3.68 12.28 10.18 23.74 15.62 35.47 3.92 8.44 8.15 16.74 12.3 25.07 1.68 3.37 3.5 6.66 6.18 9.66 2.78-11.43 1.53-22.56 1.21-33.69-.51-17.6-1.79-35.28-.76-52.81 1.53-26.02.08-51.89-1.87-77.73-1.4-18.57-4.37-37.02-2.71-55.73.85-9.53-2.04-17.49-8.95-24.39-4.68-4.67-8.52-10.22-12.46-15.58-4.17-5.69-4.02-11.75-.68-17.85 8.45-15.44 27.72-23.2 41.45-19.15 6.04 1.78 12.15 3.63 17.84 6.27 8.02 3.73 10.22 8.29 8.7 16.94-.68 3.89-1.99 7.77-3.67 11.35-14.06 30-16.14 61.47-11.38 93.69 1.85 12.48 5.15 24.76 6.77 37.26 1.44 11.16 1.52 22.5 2.13 33.77.67 12.59 1.31 25.19 1.86 37.79.34 7.98.39 15.97.75 23.95.14 3.09.78 6.17 1.15 8.95 5.66.64 5.92-2.93 6.85-5.6 6.23-17.92 12.6-35.79 18.46-53.83 3.02-9.31 7.2-17.76 13.16-25.56 4.22-5.51 7.73-11.66 10.92-17.84 10.91-21.13 26.73-37.15 48.17-47.55 2.4-1.16 4.91-2.13 7.17-3.52 25.05-15.36 48.81-9.41 72.19 4.16 4.01 2.33 8.09 4.7 12.4 6.34 10.99 4.16 17.88 12.17 19.71 23.3 2.09 12.74 2.66 25.74 3.5 38.65.35 5.44-2.95 9.45-7.3 12.35-18.7 12.47-39.02 16.88-60.89 10.81-11.82-3.28-20.25-11.24-25.63-22.26-1-2.05-2.05-4.43-1.96-6.61.52-13.2 1.36-26.39 2.15-40.45-1.25.13-4.06-.34-5.98.76-4.87 2.76-10.52 5.3-13.77 9.53-17.23 22.46-34.64 45.06-43.99 72.19a853.573 853.573 0 00-24.96 87.19c-8.75 38.06-8.68 76.42-10.09 114.98-1.26 34.47 4.45 68.22 6.43 102.33.12 1.98.15 4.1.86 5.89 1.22 3.09 4.86 3.78 7.34 1.54 1.21-1.09 2.29-2.46 3.06-3.9 9.54-17.8 22.96-32.61 36.36-47.44 4.69-5.19 9.45-10.31 13.92-15.69 9.56-11.5 21.26-20.06 34.96-25.92 21.93-9.39 44.61-15.59 68.66-15.3 12.05.15 23.66 2.77 35.1 6.77 16.59 5.8 20.4 18.51 18.11 34.45-2.66 18.52-14.77 31.06-32.04 37.78-14.27 5.55-35.5-3.92-41.17-18.18-1.61-4.03-1.47-9.16-.83-13.6.98-6.87 3.08-13.59 4.66-20.21-4.27-5.99-9.75-4.16-14.69-2.6-11.18 3.53-21.71 8.61-30.73 16.23-13.74 11.6-27.28 23.44-40.81 35.29-2.23 1.95-4.24 4.28-5.89 6.74-12.09 18.04-23.07 36.76-28.81 57.84-2.95 10.83-3.86 22.22-5.5 33.38-3.16 21.41-6.21 42.9-4.91 64.6.91 15.25 3.43 30.4 4.51 45.65 1.61 22.88 2.15 45.85 3.98 68.71 1.43 17.87 3.81 35.7 6.47 53.44.71 4.72 3.61 9.27 6.17 13.5 2.92 4.82 6.4 5.41 10.8 2.07 2.31-1.75 4.06-4.31 5.81-6.69 3.55-4.82 6.67-9.97 10.41-14.62 23.37-29.03 46.78-58.03 70.38-86.87 6.95-8.49 14.55-16.46 21.87-24.65 2.66-2.98 5.58-5.75 8.04-8.88 17.7-22.51 35.01-45.34 53.04-67.58 21.59-26.64 43.76-52.79 65.67-79.16 2.98-3.59 6.29-6.98 8.77-10.89 15.06-23.82 35.27-43.22 54.24-63.68 5.65-6.09 11.81-11.71 17.84-17.45 9.68-9.22 15.17-20.12 13.91-33.81-.8-8.63 1.96-16.45 5.75-23.92 4.95-9.75 14.27-11.61 23.8-11.52 12.16.11 23.62 3.9 34.33 9.53 7.19 3.78 10.18 13.34 6.44 21.87-6.53 14.87-16.38 26.9-32.84 31.19-8.76 2.29-16.06 6.14-21.61 13.27-.81 1.04-1.85 1.92-2.81 2.84-36.64 35.1-68.49 74.34-100.38 113.68-36.26 44.74-74.35 87.99-111.35 132.13-24.6 29.34-48.47 59.29-73.08 88.62-22.26 26.52-45.19 52.49-67.6 78.88-5.09 6-10.61 7.41-17.64 4.37-18.63-8.04-37.44-15.69-55.87-24.16-22.66-10.42-44.91-21.71-67.52-32.25-13.25-6.18-27.08-11.14-40.22-17.54-11.63-5.66-22.7-12.49-33.95-18.93-6.92-3.96-13.72-8.13-20.55-12.24-11.98-7.2-24.07-14.21-35.87-21.7-13.21-8.39-26.14-17.2-39.17-25.87-1.93-1.29-3.97-2.53-5.58-4.18-13.38-13.68-29.38-23.93-44.8-35-18.65-13.39-36.5-27.89-55.17-41.26-13.23-9.47-27.04-18.2-41-26.58-8.06-4.84-17.11-5.43-25.88-1.15-7.51 3.67-14.32 2.04-20.66-2.49-14.04-10.01-18.22-24.14-15.74-40.47 2.76-18.23 11.97-32.95 25.9-44.86 6.9-5.9 14.79-7.67 23.29-4.72 5.61 1.95 11.08 4.52 16.25 7.46 7.08 4.02 10.39 10.53 8.4 18.54-2.16 8.66-4.82 17.25-8.06 25.55-4.94 12.64-4.48 17.41 6.74 24.54 11.48 7.3 23.61 13.65 35.82 19.67 10.29 5.07 19.18 11.61 27.61 19.39 11.47 10.59 23.58 20.56 36.03 29.99 20.16 15.28 40.7 30.08 61.33 44.72 7.83 5.56 16.36 10.12 24.56 15.16 2.82 1.73 6.31 2.98 8.25 5.43 5.6 7.07 13.47 10.64 20.81 15.18 13.87 8.57 27.48 17.57 41.36 26.13 4.48 2.76 9.24 5.48 14.25 6.87 25.23 7 48.36 18.5 71.02 31.33 12.71 7.2 25.88 13.64 39.15 19.75 10.47 4.81 17.19.09 16.2-11.42-1.24-14.54-3.56-28.99-5.17-43.51-1.61-14.53-2.82-29.1-4.41-43.63-1.55-14.2-2.03-28.7-5.36-42.5-6.04-25.04-9.15-50.35-11.07-75.93-3.49-46.61-26.49-82.2-63.36-109.31-14.86-10.93-32.21-17.46-50.07-21.84-6.6-1.62-14.13-1.9-20.75-.51-20.87 4.4-39.71 13.26-54.77 28.95-2.51 2.62-5.53 5.11-2.53 10.3z"/>

    <path d="M0 0h2351v2351H0V0zm733.22 858.61c-12.8.76-28.05 1.86-43.32 2.49-6.39.27-11.05 2.65-13.21 8.63-2.35 6.52-2.78 13.07 2.4 18.72 2.93 3.19 5.94 6.29 8.96 9.4 20.18 20.77 40.85 41.09 60.43 62.42 18.67 20.34 36.26 41.67 54.23 62.64 8.65 10.09 17.48 20.05 25.56 30.59 10.71 13.96 20.11 28.96 31.21 42.58 28.81 35.34 58.45 70 87.34 105.28 14.96 18.27 29.1 37.23 43.41 56.03 2.78 3.66 4.7 8 6.89 12.09 8.15 15.21 16.01 30.59 24.53 45.59 2.74 4.82 7.14 8.71 10.84 12.97 6.97 8.01 14.53 15.59 20.89 24.05 16 21.28 31.33 43.07 47.24 64.42 4.34 5.83 9.67 10.96 14.78 16.17 4.02 4.1 8.61 5.37 14.51 3.21 7.47-2.72 15.41-4.1 22.97-6.6 5.96-1.97 12.22-3.89 17.35-7.32 28.67-19.21 62.13-26.7 93.82-38.3 12.59-4.61 26.79-4.67 40.08-7.59 41.96-9.22 84.49-14.47 127.15-18.93 27.75-2.9 55.43-6.78 83.24-8.83 16.48-1.21 33.22-.51 49.73.77 17.52 1.36 34.86 4.78 52.36 6.64 11.85 1.26 23.82 1.36 35.73 2.05 7.87.46 13.69 3.92 17.65 11.08 4.82 8.73 10.13 17.21 15.63 25.53 2.34 3.54 5.53 6.58 8.66 9.51 3.03 2.84 6.05 1.58 8.87-.84 3.33-2.85 3.25-6.49 2.15-10.08-1.65-5.4-3.72-10.67-5.63-15.99-3.67-10.22-1.38-14.01 9.4-15.52 5.27-.74 10.64-1.11 15.78-2.39 6.48-1.6 12.66-10.21 11.93-15.65-.55-4.1-6.01-7.32-13.64-8.02-.66-.06-1.33-.03-2-.05-8.31-.27-16.63-.9-24.93-.73-13.3.27-22.44-4.9-28.92-17.03-32.33-60.55-70.74-117.38-108.5-174.56-26.77-40.54-54.47-80.46-82.19-120.36-9.09-13.08-18.53-26.21-29.64-37.51-15.14-15.4-32.09-29-48.14-43.5-7.44-6.72-16.12-10.61-25.95-11.66-25.11-2.68-50.26-5.05-75.37-7.7-18.15-1.92-36.65-2.41-54.33-6.45-65.97-15.08-132.61-24.41-200.19-27.87-22.19-1.13-44.55-1.45-66.43-6.49-9.71-2.24-19.49-4.3-29.34-5.83-34.54-5.35-69.38-7.48-104.26-9.02-11.96-.53-24.23.42-35.8-1.97-23.68-4.9-47.59-4.44-73.93-6.03z"
          fill="transparent"/>
    <path d="M733.22 858.61c26.34 1.59 50.25 1.13 73.93 6.03 11.57 2.4 23.84 1.45 35.8 1.97 34.88 1.54 69.72 3.67 104.26 9.02 9.85 1.52 19.63 3.59 29.34 5.83 21.87 5.04 44.23 5.36 66.43 6.49 67.57 3.45 134.21 12.79 200.19 27.87 17.68 4.04 36.19 4.54 54.33 6.45 25.12 2.65 50.26 5.02 75.37 7.7 9.84 1.05 18.51 4.94 25.95 11.66 16.06 14.5 33.01 28.11 48.14 43.5 11.11 11.3 20.55 24.44 29.64 37.51 27.72 39.89 55.42 79.82 82.19 120.36 37.76 57.18 76.17 114.01 108.5 174.56 6.48 12.13 15.62 17.31 28.92 17.03 8.3-.17 16.62.46 24.93.73.67.02 1.34 0 2 .05 7.63.7 13.09 3.92 13.64 8.02.73 5.43-5.46 14.04-11.93 15.65-5.14 1.27-10.51 1.65-15.78 2.39-10.78 1.52-13.07 5.3-9.4 15.52 1.91 5.32 3.98 10.59 5.63 15.99 1.1 3.59 1.18 7.23-2.15 10.08-2.82 2.41-5.83 3.68-8.87.84-3.13-2.93-6.32-5.97-8.66-9.51-5.5-8.32-10.81-16.8-15.63-25.53-3.96-7.16-9.77-10.62-17.65-11.08-11.91-.69-23.88-.79-35.73-2.05-17.49-1.86-34.84-5.28-52.36-6.64-16.51-1.28-33.25-1.99-49.73-.77-27.81 2.05-55.49 5.92-83.24 8.83-42.66 4.46-85.19 9.72-127.15 18.93-13.29 2.92-27.49 2.98-40.08 7.59-31.7 11.6-65.15 19.09-93.82 38.3-5.13 3.44-11.39 5.36-17.35 7.32-7.56 2.5-15.51 3.88-22.97 6.6-5.91 2.15-10.49.89-14.51-3.21-5.12-5.21-10.44-10.34-14.78-16.17-15.91-21.35-31.24-43.13-47.24-64.42-6.37-8.47-13.92-16.04-20.89-24.05-3.71-4.26-8.1-8.15-10.84-12.97-8.52-15-16.37-30.38-24.53-45.59-2.19-4.09-4.11-8.43-6.89-12.09-14.31-18.8-28.44-37.75-43.41-56.03-28.88-35.28-58.53-69.94-87.34-105.28-11.1-13.62-20.51-28.61-31.21-42.58-8.08-10.54-16.91-20.5-25.56-30.59-17.98-20.97-35.56-42.3-54.23-62.64-19.58-21.32-40.24-41.65-60.43-62.42-3.02-3.1-6.03-6.21-8.96-9.4-5.18-5.65-4.75-12.2-2.4-18.72 2.16-5.98 6.81-8.36 13.21-8.63 15.27-.64 30.52-1.73 43.32-2.49zm32.13 27.99c-9.68 1.32-19.29 2.18-28.71 4.04-8.22 1.62-10.25 6.9-5.99 13.87 2.25 3.68 4.65 7.36 7.51 10.57 13.05 14.64 26.68 28.79 39.37 43.73 27.13 31.94 56.11 62.37 79.68 97.24 1.84 2.73 4.21 5.2 6.68 7.4 5.8 5.17 10.3 11.08 13.58 18.23 1.72 3.76 5.32 6.66 8.11 9.91 1.93 2.25 4.59 4.12 5.81 6.69 4.33 9.07 11.52 15.21 19.28 21.15 4.39 3.36 9.01 7.36 11.47 12.13 5.6 10.88 13.28 19.82 21.84 28.31 19.18 19.04 37.02 39.19 51.03 62.51 3.22 5.37 7.79 9.92 11.61 14.93 2.2 2.89 5.18 5.68 6.06 8.98 2.86 10.66 8.41 19.39 16.2 27.03 2.57 2.53 4.73 5.67 6.41 8.88 8.89 16.98 21.58 31.11 33.49 45.88 7.91 9.82 15.96 19.78 22.1 30.72 8.3 14.79 19.33 26.96 31.38 38.47 7.23 6.9 15.44 8.43 24.79 4.3 11.25-4.97 22.86-9.18 33.97-14.43 33.59-15.87 68.7-27.04 105.15-33.73 33.66-6.18 67.46-11.68 101.27-17.03 43.03-6.81 86.16-13.13 129.75-14.85 25.58-1.01 51.14-1.53 76.63 3.34 12.29 2.35 25.16 2.22 37.77 2.16 9.33-.04 12.06-5.09 7.71-13.12-9.67-17.85-19.02-35.93-29.76-53.13-12.87-20.59-27.02-40.37-40.67-60.48-23.36-34.42-46.43-69.05-70.25-103.15-17.73-25.37-36.11-50.3-54.85-74.92-16.58-21.78-35.44-41.51-57.27-58.23-6.43-4.93-13.13-9.39-21.35-10.15-22.5-2.08-45.05-3.63-67.54-5.78-17.19-1.64-34.48-2.95-51.45-6.01-40.54-7.3-80.7-16.36-121.99-19.53-28.81-2.21-57.55-5.18-86.43-6.74-17.9-.97-36.04-1.69-53.52-5.23-43.51-8.79-87.47-12.3-131.64-14.6-19.59-1.02-39.16-2.61-58.69-4.52-9.54-.93-18.94-3.17-28.53-4.84z"
          fill="#040504"/>
    <path d="M765.36 886.6c9.59 1.67 18.99 3.91 28.53 4.84 19.52 1.91 39.1 3.5 58.69 4.52 44.17 2.3 88.13 5.82 131.64 14.6 17.49 3.53 35.63 4.26 53.52 5.23 28.88 1.57 57.62 4.54 86.43 6.74 41.29 3.16 81.45 12.22 121.99 19.53 16.96 3.06 34.26 4.37 51.45 6.01 22.49 2.15 45.04 3.7 67.54 5.78 8.22.76 14.93 5.22 21.35 10.15 21.83 16.73 40.69 36.45 57.27 58.23 18.74 24.62 37.12 49.56 54.85 74.92 23.83 34.1 46.89 68.72 70.25 103.15 13.64 20.1 27.8 39.89 40.67 60.48 10.74 17.2 20.1 35.28 29.76 53.13 4.35 8.03 1.62 13.07-7.71 13.12-12.6.06-25.48.18-37.77-2.16-25.48-4.87-51.05-4.35-76.63-3.34-43.59 1.72-86.72 8.04-129.75 14.85-33.81 5.35-67.61 10.85-101.27 17.03-36.45 6.7-71.56 17.86-105.15 33.73-11.11 5.25-22.72 9.46-33.97 14.43-9.35 4.13-17.57 2.6-24.79-4.3-12.05-11.51-23.07-23.68-31.38-38.47-6.14-10.94-14.18-20.9-22.1-30.72-11.91-14.77-24.59-28.91-33.49-45.88-1.68-3.21-3.84-6.36-6.41-8.88-7.79-7.64-13.35-16.37-16.2-27.03-.89-3.3-3.86-6.1-6.06-8.98-3.83-5.02-8.39-9.57-11.61-14.93-14.01-23.32-31.84-43.46-51.03-62.51-8.55-8.49-16.23-17.43-21.84-28.31-2.46-4.77-7.07-8.77-11.47-12.13-7.76-5.93-14.95-12.08-19.28-21.15-1.23-2.57-3.88-4.44-5.81-6.69-2.8-3.25-6.39-6.16-8.11-9.91-3.28-7.15-7.78-13.06-13.58-18.23-2.47-2.2-4.83-4.67-6.68-7.4-23.57-34.87-52.55-65.3-79.68-97.24-12.69-14.94-26.32-29.08-39.37-43.73-2.86-3.21-5.26-6.89-7.51-10.57-4.26-6.97-2.23-12.25 5.99-13.87 9.42-1.86 19.03-2.72 28.71-4.04z"
          fill="#fe00d2"/>

    <path d="M0 2351V0h2351v2351H0zm1163.46-1283.63c15.51.66 30.09 1.73 44.68 1.77 14.61.04 29.26-.5 43.83-1.6 14.32-1.09 28.94 3.23 44.99-2.07-3.25-1.8-4.75-3.14-6.45-3.49-5.45-1.1-6.71-4.82-6.65-9.58.03-2 .05-4 .22-5.99 2.47-29.86 4.93-59.72 7.47-89.57.8-9.41.33-10.65-8.33-14.11-3.35-1.34-7.02-2.37-10.6-2.54-12.63-.61-25.28-.83-37.92-1.06-1.18-.02-2.38.84-3.37 1.21-1.34 16.98-3.53 33.48-3.63 50-.06 9.88-3.69 15.31-12.01 19.5-7.66 3.86-15.65 7.85-21.9 13.54-9.8 8.93-18.43 19.18-27.21 29.17-3.55 4.04-5.7 8.98-3.13 14.82zm-21.64-56.25c-.63-6.81-.88-13.16-1.88-19.39-1.78-11.04-12.86-20.46-25.32-22.04-12.55-1.59-17.08 1.36-23.1 15.25-1.05 2.43-1.84 5-2.44 7.58-2.02 8.75-3.46 17.66-5.92 26.28-3.98 13.96-2.66 27.66.56 41.45 1.18 5.06 3.84 8.43 9.14 9.23 5.92.9 11.83 2.11 17.78 2.4 3.13.16 7.13-.41 9.36-2.28 6.07-5.12 11.54-10.98 16.92-16.85 1.45-1.58 2.21-4.21 2.4-6.44 1-11.87 1.71-23.77 2.49-35.19z"
          fill="transparent"/>
    <path d="M1163.46 1067.37c-2.57-5.84-.43-10.77 3.13-14.82 8.78-9.99 17.41-20.25 27.21-29.17 6.25-5.69 14.24-9.68 21.9-13.54 8.32-4.19 11.96-9.62 12.01-19.5.1-16.52 2.28-33.02 3.63-50 .99-.37 2.19-1.24 3.37-1.21 12.64.24 25.29.46 37.92 1.06 3.57.17 7.25 1.2 10.6 2.54 8.66 3.46 9.13 4.7 8.33 14.11-2.54 29.85-5 59.71-7.47 89.57-.16 1.99-.19 3.99-.22 5.99-.06 4.76 1.2 8.49 6.65 9.58 1.7.34 3.2 1.68 6.45 3.49-16.05 5.3-30.67.98-44.99 2.07a552.657 552.657 0 01-43.83 1.6c-14.59-.04-29.18-1.11-44.68-1.77zm8.27-7.69l1.2 2.82c17.28 0 34.57.26 51.84-.09 12.22-.25 24.43-1.94 36.64-1.89 11.94.05 12.71-.03 13.79-12.4.96-10.92 1.98-21.84 2.96-32.76 1.81-20.19 3.62-40.38 5.4-60.57.45-5.05-2.26-7.46-6.99-7.71-9.95-.53-19.91-1.04-29.86-1.27-5.47-.13-7.33 3.44-7.69 8.43-1.07 14.91-2.62 29.8-3.32 44.73-.3 6.46-2.61 10.12-8.42 13.16-10.58 5.54-20.91 11.69-30.77 18.43-10.84 7.41-17.84 18.33-24.78 29.12zM1141.82 1011.12c-.78 11.43-1.5 23.32-2.49 35.19-.19 2.22-.95 4.86-2.4 6.44-5.38 5.87-10.85 11.73-16.92 16.85-2.22 1.88-6.23 2.44-9.36 2.28-5.95-.3-11.86-1.5-17.78-2.4-5.3-.81-7.96-4.17-9.14-9.23-3.22-13.79-4.54-27.49-.56-41.45 2.46-8.62 3.9-17.53 5.92-26.28.59-2.58 1.39-5.15 2.44-7.58 6.03-13.89 10.56-16.84 23.1-15.25 12.45 1.58 23.54 10.99 25.32 22.04 1 6.23 1.25 12.58 1.88 19.39zm-10.87-.24h.54c0-3.66.13-7.32-.04-10.96-.17-3.64-.3-7.34-1.07-10.89-1.7-7.92-8.3-13.21-16.31-13.56-7.59-.33-13.05 3.1-15.66 11.22-3.25 10.09-6.43 20.32-8.29 30.73-2.29 12.79-2.13 25.83.78 38.64 2.2 9.73 12.1 14.75 20.43 9.33 6.54-4.26 11.94-10.42 17.36-16.19 1.6-1.7 2.11-4.93 2.17-7.48.24-10.28.1-20.56.1-30.84z"/>
    <path d="M1171.74 1059.69c6.94-10.79 13.94-21.71 24.78-29.12 9.86-6.74 20.19-12.89 30.77-18.43 5.81-3.04 8.12-6.7 8.42-13.16.7-14.93 2.25-29.81 3.32-44.73.36-4.99 2.22-8.56 7.69-8.43 9.96.23 19.91.74 29.86 1.27 4.72.25 7.43 2.66 6.99 7.71-1.79 20.19-3.59 40.38-5.4 60.57-.98 10.92-2 21.84-2.96 32.76-1.09 12.37-1.85 12.45-13.79 12.4-12.21-.06-24.42 1.63-36.64 1.89-17.27.35-34.56.09-51.84.09l-1.2-2.82zm47.81-9.21c10.24 8.29 12.46 8.2 20.56-.33 1.6-1.69 3.22-3.38 4.67-5.2 5.57-7.02 10.56-14.6 16.8-20.94 3.85-3.92 5.86-7.86 6.09-12.99.45-9.97.77-19.94 1.15-29.91.17-4.29-1.12-7.85-4.97-10.19-4.51-2.74-7.68-1.35-8.46 3.84-1.78 11.8-3.63 23.6-5.16 35.44-.67 5.18-2.62 9.33-6.26 13.17-8.22 8.68-16.03 17.75-24.42 27.12zM1130.96 1010.88c0 10.28.14 20.56-.1 30.84-.06 2.55-.57 5.78-2.17 7.48-5.42 5.77-10.82 11.93-17.36 16.19-8.33 5.42-18.22.4-20.43-9.33-2.9-12.8-3.06-25.84-.78-38.64 1.86-10.41 5.04-20.63 8.29-30.73 2.61-8.12 8.08-11.55 15.66-11.22 8.01.35 14.6 5.64 16.31 13.56.76 3.54.89 7.24 1.07 10.89.17 3.65.04 7.31.04 10.96h-.54zm-5.8 26.86c-.69-8.07-1.01-13.73-1.68-19.35-.89-7.52-6.8-10.64-13.67-7.41-5.5 2.59-7.42 7.31-7.61 13.02-.24 7.3-.54 14.6-.63 21.91-.03 2.3.26 4.68.86 6.89.98 3.59 2.49 7.88 6.66 7.65 3.2-.18 7.08-2.27 9.21-4.75 4.89-5.7 6.86-12.81 6.87-17.95z"
          fill="#fff"/>
    <path d="M1219.55 1050.47c8.39-9.37 16.21-18.44 24.42-27.12 3.64-3.84 5.59-7.99 6.26-13.17 1.54-11.84 3.39-23.63 5.16-35.44.78-5.19 3.94-6.58 8.46-3.84 3.85 2.34 5.14 5.9 4.97 10.19-.38 9.97-.7 19.94-1.15 29.91-.23 5.13-2.24 9.08-6.09 12.99-6.24 6.35-11.23 13.93-16.8 20.94-1.45 1.82-3.07 3.51-4.67 5.2-8.1 8.53-10.32 8.62-20.56.33zM1125.16 1037.74c0 5.15-1.97 12.26-6.87 17.95-2.13 2.48-6.01 4.57-9.21 4.75-4.17.23-5.68-4.05-6.66-7.65-.6-2.22-.89-4.59-.86-6.89.09-7.3.39-14.6.63-21.91.19-5.7 2.11-10.43 7.61-13.02 6.87-3.24 12.78-.11 13.67 7.41.67 5.62 1 11.28 1.68 19.35z"/>

    <path d="M0 2351V0h2351v2351H0zm1390.13-1011.26c2.43-1.83 3.58-3.12 5.02-3.7 7.3-2.96 8.71-8.54 9.06-15.91.6-12.6-1.46-24.49-5.9-36.14-3.23-8.48-5.72-10.21-14.66-10.68-11.63-.61-23.24-1.54-34.87-2.17-9.26-.51-18.55-1.3-27.8-1.04-18.22.51-36.19 3.59-54.55 4.02-21.04.49-41.8-.97-62.64-2.49-5.54-.4-10.94-2.6-16.42-3.89-4.84-1.15-9.66-2.71-14.58-3.17-11.92-1.1-23.93-1.35-35.85-2.48-31.4-2.96-62.46.02-93.42 4.95-4.22.67-8.43 1.92-12.4 3.51-2.34.94-5.08 2.65-6.12 4.77-5.71 11.67-11.62 23.59-8.94 37.1 1.1 5.54-.63 8.88-4.34 12.2-7.89 7.05-12.63 16.31-16.83 25.7-4.5 10.08 1.41 20.42 12.35 20.96 6.02.3 12.97-.88 18.14-3.79 15.63-8.8 31.29-17.94 41.53-33.54 3.99-6.07 9.34-9.02 16.76-8.75 4.62.17 9.27-.85 13.92-.97 11.63-.3 23.31-1.21 34.87-.37 18.89 1.36 37.69 4.04 56.55 5.92 20.52 2.05 41.06 3.87 61.6 5.64 3.29.28 6.87.5 9.91-.48 5.6-1.81 10.2-.22 15.27 1.91 3.82 1.6 8.51 2.69 12.49 2.03 11.36-1.88 22.49-.78 33.81.09 7.27.56 11.59 3.26 14.77 9.57 5.89 11.7 13.81 21.97 23.58 30.73 8.46 7.58 18.27 12.1 29.77 12.18 7.66.05 9.19-1.32 11.44-8.39 3.93-12.34 1.39-23.64-5.35-34.27-1.75-2.77-3.69-5.42-6.17-9.06z"
          fill="transparent"/>
    <path d="M1390.13 1339.74c2.49 3.64 4.42 6.29 6.17 9.06 6.75 10.64 9.28 21.93 5.35 34.27-2.25 7.08-3.78 8.45-11.44 8.39-11.51-.08-21.31-4.6-29.77-12.18-9.78-8.76-17.69-19.04-23.58-30.73-3.18-6.31-7.5-9.02-14.77-9.57-11.32-.87-22.45-1.97-33.81-.09-3.98.66-8.67-.43-12.49-2.03-5.07-2.13-9.67-3.72-15.27-1.91-3.05.98-6.63.77-9.91.48-20.54-1.77-41.08-3.6-61.6-5.64-18.86-1.88-37.66-4.56-56.55-5.92-11.56-.83-23.25.08-34.87.37-4.65.12-9.3 1.14-13.92.97-7.42-.27-12.77 2.68-16.76 8.75-10.24 15.6-25.9 24.74-41.53 33.54-5.18 2.91-12.12 4.09-18.14 3.79-10.95-.54-16.85-10.88-12.35-20.96 4.19-9.39 8.94-18.65 16.83-25.7 3.71-3.32 5.44-6.66 4.34-12.2-2.68-13.51 3.23-25.43 8.94-37.1 1.03-2.11 3.78-3.83 6.12-4.77 3.97-1.59 8.18-2.84 12.4-3.51 30.96-4.94 62.02-7.92 93.42-4.95 11.92 1.12 23.92 1.38 35.85 2.48 4.92.45 9.73 2.02 14.58 3.17 5.48 1.3 10.89 3.49 16.42 3.89 20.84 1.52 41.6 2.98 62.64 2.49 18.36-.42 36.34-3.51 54.55-4.02 9.25-.26 18.54.53 27.8 1.04 11.63.63 23.24 1.57 34.87 2.17 8.94.47 11.42 2.19 14.66 10.68 4.44 11.65 6.5 23.54 5.9 36.14-.35 7.37-1.77 12.96-9.06 15.91-1.44.58-2.58 1.87-5.02 3.7zm-19.25-10.18c3.18.81 6.43 1.4 9.51 2.47 9.54 3.33 17.41-1.38 16.86-11.25-.6-10.53-2.17-21.08-4.3-31.43-1.61-7.82-5.4-9.71-13.72-9.96-6.95-.21-13.95-.43-20.8-1.45-11.78-1.76-13.11-1.15-17.13 10.6-2.57 7.52-4.88 15.16-8.1 22.4-1.14 2.56-4.74 5.75-7.04 5.61-2.34-.14-5.36-3.64-6.5-6.33-3.61-8.53-6.54-17.35-9.63-26.1-2.37-6.72-2.47-6.75-9.07-5.7-6.86 1.1-13.75 2.59-20.65 2.76-6.2.15-8.97 3.08-10.63 8.39-1.28 4.09-2.51 8.31-4.57 12.03-4.17 7.52-9.09 7.9-14.84 1.24-3.46-4.01-5.96-8.9-9.66-12.64-3.38-3.42-7.48-7.58-11.81-8.34-10.4-1.84-21.11-1.9-31.69-2.62-4.21-.28-6.64 1.55-8.03 5.78-1.86 5.67-4.21 11.22-6.87 16.57-3.73 7.49-6.8 7.58-12.43 1.38-4.86-5.36-9.92-10.58-15.18-15.55-4.08-3.86-9.21-6.72-12.8-10.94-5.94-7-12.8-8.74-21.82-6.26-.83 3.49-1.28 7.15-2.58 10.47-2.77 7.04-5.27 14.35-9.23 20.71-3.5 5.63-7.11 5.74-11.07.4-5.7-7.68-10.77-15.95-15.03-24.51-2.15-4.31-4.3-6.29-8.92-5.91-9.59.77-19.26.89-28.75 2.28-15.85 2.32-26.8 23.13-20.21 39.65 2.67-2.42 4.9-4.65 7.35-6.62 3.61-2.91 7.22-5.87 11.12-8.37 2.51-1.61 4.41-.27 5.13 2.57-18.14 9.68-30.97 24.99-42.75 41.18-2.98 4.09-4.24 9.65-5.38 14.74-.45 2.01 1.6 4.58 2.51 6.9 1.93-1.41 4.31-2.47 5.7-4.29 3.75-4.92 7.3-9.88 14.9-12.12-3.16 6.99-10.4 9.92-11.01 18.15 2.34-.71 3.82-1 5.18-1.59 15.5-6.66 29.04-16.4 40.65-28.38 8-8.26 16.53-16.54 20.28-28.06 1.77 3.66 3.54 7.33 5.86 12.12 4.74-.3 10.29-.59 15.82-1.01 8.5-.65 17.16-2.78 25.47-1.82 24.95 2.87 49.7 7.52 74.98 7.05 4.92-.09 9.87.73 14.79 1.28 12.8 1.44 25.59 4.05 38.4 4.13 10.57.07 20.98-1.7 30.7 4.14 1.26.76 3.26.35 4.91.35 16.19 0 32.39-.04 48.58-.06.48 2.58.18 5.71 1.56 7.65 8.65 12.18 17.4 24.32 26.76 35.96 2.73 3.4 6.89 7.22 13.45 4.18-3.09-7.44-6.02-14.49-8.94-21.54 2.94.87 5.04 2.33 6.43 4.3 3.26 4.6 6.21 9.42 9.23 14.18 1.97 3.11 3.76 6.46 9.64 4.24.39-5.12 2.26-11.03.92-16.07-2.56-9.59-6.8-18.62-15.21-25.17-4.04-3.15-6.93-7.78-10.33-11.74zm-196.59-32.59c2.38-8.34 7.51-13.97 6.83-22.69-12.08-3.8-24.51-4.19-38.25-4.95l31.41 27.64zm-88.61-29.1c3.29 12.06 7.94 20.4 14.48 28.46 8.4-6.48 8.8-15.47 10.75-23.6.3-1.25-2.3-4.53-3.73-4.64-6.45-.51-12.97-.22-21.49-.22zm231.49 8.29c2.32 8.71 2.1 17.36 7.78 25.44 5.75-7.91 8.28-15.87 9.1-25.44h-16.88zm-62.67 20.92q5.95-5.75 5.87-14.01c-5.2-.34-10.46-2.8-16.4.93 3.73 4.63 7.11 8.83 10.54 13.08z"
          fill="#130c0c"/>
    <path d="M1047.81 1300.88c-.73-2.84-2.63-4.18-5.14-2.57-3.89 2.5-7.51 5.46-11.12 8.37-2.45 1.97-4.68 4.2-7.35 6.62-6.59-16.52 4.36-37.33 20.21-39.65 9.49-1.39 19.17-1.51 28.75-2.28 4.62-.37 6.77 1.6 8.92 5.91 4.27 8.56 9.33 16.83 15.03 24.51 3.96 5.34 7.57 5.23 11.07-.4 3.96-6.36 6.46-13.67 9.23-20.71 1.3-3.32 1.75-6.97 2.58-10.47 9.02-2.48 15.87-.74 21.82 6.26 3.59 4.22 8.72 7.09 12.8 10.94 5.26 4.97 10.31 10.19 15.18 15.55 5.63 6.2 8.7 6.11 12.43-1.38 2.66-5.34 5.01-10.9 6.87-16.57 1.38-4.23 3.82-6.07 8.03-5.78 10.59.72 21.3.78 31.69 2.62 4.33.76 8.42 4.92 11.81 8.34 3.69 3.74 6.19 8.63 9.66 12.64 5.75 6.66 10.68 6.28 14.84-1.24 2.06-3.72 3.29-7.94 4.57-12.03 1.67-5.32 4.43-8.25 10.63-8.39 6.9-.16 13.79-1.66 20.65-2.76 6.6-1.05 6.7-1.02 9.07 5.7 3.09 8.75 6.01 17.57 9.63 26.1 1.14 2.7 4.16 6.19 6.5 6.33 2.29.14 5.89-3.04 7.04-5.61 3.22-7.23 5.53-14.88 8.1-22.4 4.02-11.75 5.34-12.36 17.13-10.6 6.86 1.02 13.86 1.24 20.8 1.45 8.32.25 12.11 2.14 13.72 9.96 2.13 10.34 3.7 20.9 4.3 31.43.56 9.86-7.31 14.57-16.86 11.25-3.08-1.07-6.34-1.66-9.51-2.47-11.88-4.62-22.77-.95-33.5 4.02-16.19.02-32.39.06-48.58.06-1.66 0-3.66.4-4.91-.35-9.72-5.84-20.13-4.07-30.7-4.14-12.81-.08-25.59-2.69-38.4-4.13-4.92-.55-9.87-1.37-14.79-1.28-25.28.48-50.03-4.18-74.98-7.05-8.31-.96-16.97 1.17-25.47 1.82-5.53.42-11.08.71-15.82 1.01l-5.86-12.12c-2.18-1.24-4.22-2.89-6.56-3.64-4.02-1.29-8.23-2.02-12.36-2.99-2.28-.06-4.56-.12-6.83-.19-1.44.1-2.88.2-4.32.29z"
          fill="#680101"/>
    <path d="M1058.96 1300.77c4.13.97 8.33 1.7 12.36 2.99 2.34.75 4.38 2.4 6.56 3.64-3.75 11.51-12.27 19.8-20.28 28.06-11.61 11.98-25.15 21.72-40.65 28.38-1.36.59-2.85.88-5.18 1.59.61-8.23 7.85-11.16 11.01-18.15-7.59 2.24-11.14 7.2-14.9 12.12-1.39 1.82-3.77 2.88-5.7 4.29-.91-2.32-2.96-4.89-2.51-6.9 1.14-5.09 2.4-10.65 5.38-14.74 11.78-16.19 24.61-31.5 42.76-41.18l4.32-.3c2.28.06 4.56.12 6.84.19z"
          fill="#f66464"/>
    <path d="M1337.39 1333.58c10.73-4.97 21.62-8.63 33.5-4.02 3.41 3.96 6.29 8.6 10.33 11.74 8.42 6.55 12.65 15.58 15.21 25.17 1.35 5.05-.53 10.95-.92 16.07-5.88 2.23-7.67-1.12-9.64-4.24-3.02-4.76-5.97-9.59-9.23-14.18-1.39-1.96-3.49-3.43-6.43-4.3 2.93 7.05 5.85 14.1 8.94 21.54-6.56 3.04-10.72-.78-13.45-4.18-9.36-11.64-18.11-23.78-26.76-35.96-1.38-1.94-1.08-5.07-1.56-7.65z"
          fill="#f35c5c"/>
    <path d="M1174.29 1296.97c-11.1-9.77-20.59-18.12-31.41-27.64 13.74.76 26.17 1.15 38.25 4.95.68 8.73-4.45 14.35-6.83 22.69z"
          fill="#ebefef"/>
    <path d="M1085.68 1267.87c8.52 0 15.04-.29 21.49.22 1.44.11 4.03 3.39 3.73 4.64-1.95 8.13-2.35 17.12-10.75 23.6-6.54-8.06-11.19-16.4-14.48-28.46z"
          fill="#ecefef"/>
    <path d="M1317.17 1276.17h16.88c-.82 9.58-3.36 17.53-9.1 25.44-5.68-8.08-5.46-16.74-7.78-25.44z" fill="#eaeded"/>
    <path d="M1254.5 1297.08c-3.43-4.25-6.81-8.45-10.54-13.08 5.94-3.73 11.2-1.27 16.4-.93q.09 8.26-5.87 14.01z"
          fill="#d7dddd"/>
    <path d="M1058.96 1300.77c-2.28-.06-4.56-.12-6.84-.19 2.28.06 4.56.12 6.84.19z" fill="#130c0c"/>
</svg>