<?xml version="1.0" encoding="UTF-8"?><svg id="a" xmlns="http://www.w3.org/2000/svg" width="512" height="512" viewBox="0 0 2351 2351">
    <path d="M2351 2351H0V0h2351v2351zm-317.27-1278.53c1.83-8.84 5.92-15.59 10.52-22.12 11.69-16.56 23.44-33.08 35.03-49.71 5.21-7.48 8.72-15.57 8.59-25.05-.06-4.65-1.88-7.66-5.87-9.46-3.98-1.8-7.85-1.59-10.96 1.85-4.68 5.16-9.69 10.1-13.81 15.69-11.04 15.02-21.49 30.49-32.54 45.5-11.63 15.8-23.04 31.84-35.72 46.78-17.78 20.95-40.07 35.14-67.99 38.16-11.85 1.28-23.9.71-35.85.99-16.3.39-32.8-.74-48.84 1.48-39.33 5.45-78.75 8.51-118.43 8.62-6.65.02-13.3.57-19.94 1.06-13.93 1.03-27.84 2.26-41.77 3.27-13.93 1.01-27.92 1.43-41.81 2.84-47.68 4.85-95.34 9.89-142.97 15.14-26.79 2.95-53.52 6.38-80.26 9.78-14.85 1.89-29.65 4.11-44.46 6.28-16.11 2.36-32.37 4.03-48.26 7.43-24.06 5.16-47.84 11.65-71.78 17.37-11.32 2.7-22.77 4.87-34.13 7.41-9.28 2.07-17.68 6.07-24.43 12.84-7.93 7.97-6.06 20.18 4.05 23.72 3.95 1.38 9.24.62 13.42-.73 8.2-2.65 15.81-7.28 24.09-9.51 17.97-4.84 36.07-9.44 54.36-12.78 32.73-5.97 65.55-11.64 98.51-16.15 38.88-5.32 77.92-9.59 116.95-13.71 31.11-3.29 62.48-4.49 93.44-8.7 57.16-7.78 114.56-11.3 172.14-13.32 64.87-2.28 129.77-4.35 194.34-11.71 3.96-.45 7.98-.49 11.97-.57 15.17-.31 28.38 4.95 38.37 16.13 9.73 10.89 18.36 22.77 27.25 34.38 4.31 5.62 8.43 11.21 15.92 12.79 7.73 1.63 12.04-1.87 10.35-9.65-1.31-6.06-3.72-12.14-6.83-17.52-8.81-15.28-18.28-30.17-27.38-45.28-1.88-3.12-3.79-6.36-4.8-9.81-1.42-4.86 1.22-8.32 6.15-9.1 20.04-3.19 40.12-6.15 60.12-9.62 13.44-2.33 26.8-5.18 40.1-8.21 5.87-1.34 11.74-3.45 12.5-10.98.64-6.38-2.97-11.91-10.72-15.03-4.57-1.84-9.52-3.65-14.34-3.77-9.59-.23-19.25.31-28.81 1.28-11.5 1.17-22.81 5.07-35.48 1.71zm-1787.7 149.87c14.15 13.94 32.94 13.25 44.84-1.66 15.46-19.37 33.5-36 52.53-51.68 2.31-1.9 4.79-3.66 6.77-5.87 6.56-7.33 4.26-14.78-5.17-16.96-5.63-1.3-11.3-2.37-16.96-3.54-.32-.87-.64-1.75-.95-2.62 1.2-.55 2.54-.93 3.59-1.69 9.58-6.89 20.2-5.99 30.75-3.74 18.61 3.97 37.35 6.74 56.39 7.05 16.98.28 33.96.24 50.93.49 14.64.22 29.33 1.56 43.91.77 22.58-1.23 45.08-4 67.64-5.84 51.11-4.18 101.1 1.2 149.32 19.16 26.5 9.87 52.68 20.61 78.98 31 49.11 19.4 100.11 32 151.85 41.76 8.64 1.63 17.89 1.13 26.72.21 6.85-.71 13.24-3.95 16.82-10.69-.76-1.16-1.19-2.08-1.84-2.79-8.29-9.04-19.39-11.03-30.8-12.19-23.59-2.4-46.81-6.68-69.25-14.45-38.37-13.27-76.97-25.96-114.87-40.47-43.52-16.65-87.89-28.76-134.49-31.92-38.95-2.64-77.88-2.24-116.72 1.86-23.84 2.51-47.58 5.43-71.69 2.82-40.05-4.33-80.16-8.17-120.28-11.82-19.2-1.75-19.24-1.33-23.58-19.88-.45-1.94-.83-3.91-1.12-5.89-1.54-10.54-2.25-21.27-4.69-31.6-8.63-36.6-17.73-73.08-26.9-109.55-3.74-14.88-12.49-19.02-27.12-13.6-8.94 3.32-9.48 4.06-9.44 13.8.01 3.66-.12 7.36.36 10.98 2.67 20.46 5.78 40.86 8.23 61.34 3.27 27.46 7.35 54.75 13.88 81.65 2.42 9.95 4.2 20.06 6.21 29.8-6.63 5.97-14.35 6.89-21.61 9.19-15.18 4.82-30.14 10.33-45.23 15.45-4.82 1.64-5.91 5.23-4.93 9.49 1.08 4.71 4.95 4.8 8.79 4.12 12.11-2.14 24.23-4.24 36.31-6.59 9.14-1.78 18.15-4.29 27.33-5.75 5.01-.8 10.47-1.92 15.84 1.6-10.61 16.94-21.6 33.2-36.21 46.45-6.73 6.1-10.68 13.33-14.14 21.8z"
          fill="transparent"/>
    <path d="M2033.73 1072.47c12.67 3.36 23.98-.54 35.48-1.71 9.56-.97 19.22-1.51 28.81-1.28 4.82.12 9.77 1.93 14.34 3.77 7.75 3.12 11.36 8.65 10.72 15.03-.75 7.53-6.63 9.64-12.5 10.98-13.3 3.03-26.66 5.88-40.1 8.21-19.99 3.47-40.07 6.43-60.12 9.62-4.93.78-7.57 4.24-6.15 9.1 1.01 3.45 2.92 6.7 4.8 9.81 9.1 15.11 18.56 30.01 27.38 45.28 3.11 5.39 5.52 11.46 6.83 17.52 1.68 7.77-2.62 11.27-10.35 9.65-7.48-1.58-11.61-7.17-15.92-12.79-8.89-11.61-17.53-23.5-27.25-34.38-9.99-11.18-23.2-16.44-38.37-16.13-3.99.08-8.01.12-11.97.57-64.57 7.36-129.47 9.43-194.34 11.71-57.58 2.03-114.97 5.54-172.14 13.32-30.97 4.22-62.33 5.42-93.44 8.7-39.03 4.12-78.07 8.4-116.95 13.71-32.96 4.51-65.78 10.18-98.51 16.15-18.29 3.34-36.39 7.94-54.36 12.78-8.28 2.23-15.89 6.86-24.09 9.51-4.17 1.35-9.47 2.11-13.42.73-10.11-3.54-11.98-15.75-4.05-23.72 6.74-6.77 15.15-10.77 24.43-12.84 11.36-2.53 22.81-4.7 34.13-7.41 23.95-5.72 47.72-12.21 71.78-17.37 15.89-3.4 32.15-5.08 48.26-7.43 14.81-2.17 29.61-4.39 44.46-6.28 26.73-3.4 53.47-6.83 80.26-9.78 47.63-5.25 95.29-10.29 142.97-15.14 13.89-1.41 27.88-1.83 41.81-2.84 13.93-1.01 27.84-2.24 41.77-3.27 6.64-.49 13.29-1.04 19.94-1.06 39.68-.11 79.09-3.17 118.43-8.62 16.04-2.22 32.55-1.09 48.84-1.48 11.96-.28 24 .29 35.85-.99 27.91-3.03 50.21-17.21 67.99-38.16 12.68-14.94 24.09-30.98 35.72-46.78 11.05-15.02 21.5-30.48 32.54-45.5 4.11-5.59 9.12-10.53 13.81-15.69 3.12-3.44 6.98-3.65 10.96-1.85 3.99 1.8 5.81 4.81 5.87 9.46.13 9.48-3.38 17.57-8.59 25.05-11.59 16.63-23.34 33.15-35.03 49.71-4.61 6.53-8.7 13.28-10.52 22.12zM246.03 1222.34c3.46-8.47 7.41-15.7 14.14-21.8 14.61-13.25 25.6-29.51 36.21-46.45-5.37-3.52-10.83-2.4-15.84-1.6-9.18 1.46-18.19 3.97-27.33 5.75-12.07 2.35-24.19 4.45-36.31 6.59-3.84.68-7.71.59-8.79-4.12-.98-4.26.11-7.86 4.93-9.49 15.09-5.13 30.05-10.64 45.23-15.45 7.26-2.3 14.97-3.22 21.61-9.19-2.01-9.74-3.79-19.84-6.21-29.8-6.54-26.9-10.61-54.19-13.88-81.65-2.44-20.48-5.55-40.89-8.23-61.34-.47-3.61-.34-7.31-.36-10.98-.03-9.74.5-10.49 9.44-13.8 14.63-5.43 23.38-1.28 27.12 13.6 9.18 36.46 18.27 72.95 26.9 109.55 2.44 10.33 3.15 21.06 4.69 31.6.29 1.98.66 3.95 1.12 5.89 4.34 18.55 4.38 18.14 23.58 19.88 40.12 3.65 80.23 7.49 120.28 11.82 24.11 2.61 47.85-.31 71.69-2.82 38.84-4.09 77.77-4.5 116.72-1.86 46.6 3.16 90.97 15.27 134.49 31.92 37.9 14.5 76.5 27.19 114.87 40.47 22.44 7.76 45.66 12.05 69.25 14.45 11.41 1.16 22.51 3.15 30.8 12.19.66.71 1.09 1.63 1.84 2.79-3.59 6.74-9.97 9.98-16.82 10.69-8.83.92-18.08 1.42-26.72-.21-51.73-9.76-102.74-22.37-151.85-41.76-26.31-10.39-52.48-21.13-78.98-31-48.23-17.96-98.21-23.33-149.32-19.16-22.56 1.84-45.05 4.61-67.64 5.84-14.58.79-29.27-.55-43.91-.77-16.98-.25-33.96-.2-50.93-.49-19.04-.32-37.78-3.08-56.39-7.05-10.55-2.25-21.17-3.15-30.75 3.74-1.06.76-2.39 1.13-3.59 1.69.32.87.64 1.75.95 2.62 5.65 1.17 11.33 2.24 16.96 3.54 9.43 2.18 11.73 9.63 5.17 16.96-1.98 2.21-4.46 3.97-6.77 5.87-19.04 15.67-37.08 32.31-52.53 51.68-11.9 14.91-30.7 15.59-44.84 1.66z"/>

    <path d="M0 2351V0h2351v2351H0zm1498.63-655.89c0 .08-.01.15-.02.23-13.26-1.14-26.59-1.76-39.76-3.52-25.38-3.38-50.7-7.22-75.99-11.21-19.63-3.1-38.09-9.49-54.13-21.62-5.57-4.21-10.49-9.28-16.14-13.37-27.98-20.25-48.04-46.63-61.61-78.22-6.59-15.35-9.78-30.88-5.94-47.59 1.47-6.4 2.68-13.38 1.68-19.73-2.28-14.58.04-28.43 3.67-42.35 4.7-18 9.61-35.92 9.83-54.82.13-11.26 2.08-22.49 2.91-33.75.83-11.26 1.29-22.55 1.88-33.84.22-4.31-.97-7.85-5.35-9.72-8.76-3.74-17.03-.08-19.75 9.01-1.05 3.5-1.92 7.09-2.39 10.7-2.3 17.45-4.61 34.9-6.58 52.39-2.6 23.11-5.19 46.22-7.23 69.39-1.45 16.56-1.86 33.2-2.95 49.79-1.2 18.09.48 35.8 6.22 53.06 1.15 3.47 2.53 6.9 3.26 10.46 3.31 16.14 10.77 30.31 22.29 41.71 18.43 18.24 37.45 35.93 56.81 53.19 14.22 12.67 31.29 19.77 50.31 22.46 12.17 1.72 24.19 4.55 36.28 6.81 20.26 3.79 40.4 8.79 60.83 10.95 26.09 2.76 52.44 2.91 78.4 7.6 6.42 1.16 13.27.07 19.92-.17 3.58-.13 6.38-1.77 7.62-5.38 1.22-3.55-1.03-5.51-3.34-7.58-6.87-6.2-9.62-14.12-9.6-23.23.02-8.32.53-16.71-.32-24.95-1.44-13.85-3.38-27.67-5.9-41.37-1.51-8.25-6.26-12.21-11.44-11.65-4.1.44-7.94 5.01-8.53 12.12-1.19 14.5-1.85 29.05-2.49 43.59-.3 6.98.19 13.99-.11 20.97-.34 7.81-3.66 10.63-11.41 10.32-3.65-.14-7.3-.44-10.95-.67zm-605.06-140.7c-8.48-2.53-12.6 1.89-14.73 7.09-7.56 18.44-15.53 36.84-21.25 55.88-4.74 15.78-2.22 31.6 7.77 45.63 5.17 7.27 11.58 11.6 20.74 11.8 9.97.21 19.93.83 29.9 1.29 25.57 1.19 51.15 3.88 76.74 1.06 9.86-1.09 19.7-3.06 29.33-5.5 10.76-2.72 19.07-9.06 24.25-19.23 3.28-6.45 8.58-10.94 15.11-14 3.92-1.83 7.9-3.53 11.77-5.45 16.05-7.95 30.23-18.35 40.35-33.32a509.68 509.68 0 0022.03-35.65c7.19-12.81 12.15-26.53 14.66-41.16 2.58-15.06 6-29.98 8.79-45.02 3.04-16.37 5.4-32.79 4.78-49.56-.5-13.62-.23-27.28-.35-40.92-.05-4.98.38-10.09-.54-14.92-1.47-7.73-.52-16.13-5.77-22.93-2.46-3.18-4.73-6.96-9.55-5.72-4.42 1.13-6.29 4.71-6.53 9.02-.43 7.62-1.55 15.33-.83 22.86 1.74 18.02.57 35.86-1.9 53.66-1.96 14.14-5.63 28.15-6.43 42.34-2.63 46.54-19.69 86.56-52.16 119.86-4.5 4.61-10.41 8.56-16.42 10.84-10.86 4.12-18.89 10.63-24.41 20.8-8.76 16.12-22.98 23.33-40.92 24.14-5.97.27-12.1.08-17.87 1.36-25.31 5.64-50.96 4.37-76.56 4.66-13.23.15-23.8-10.26-21.67-23.77.41-2.62.54-5.29 1.02-7.9 3.24-17.66 6.66-35.29 9.74-52.98.82-4.72.65-9.61.92-14.27z"
          fill="transparent"/>
    <path d="M1498.63 1695.11c3.65.23 7.3.53 10.95.67 7.74.31 11.07-2.51 11.41-10.32.31-6.98-.19-13.99.11-20.97.63-14.54 1.29-29.09 2.49-43.59.59-7.11 4.43-11.68 8.53-12.12 5.19-.56 9.93 3.4 11.44 11.65 2.52 13.69 4.46 27.52 5.9 41.37.85 8.24.35 16.63.32 24.95-.02 9.1 2.73 17.03 9.6 23.23 2.3 2.08 4.56 4.03 3.34 7.58-1.24 3.61-4.04 5.25-7.62 5.38-6.65.24-13.5 1.33-19.92.17-25.96-4.69-52.31-4.84-78.4-7.6-20.43-2.16-40.57-7.16-60.83-10.95-12.1-2.26-24.11-5.09-36.28-6.81-19.02-2.69-36.09-9.79-50.31-22.46-19.36-17.25-38.38-34.94-56.81-53.19-11.52-11.4-18.98-25.57-22.29-41.71-.73-3.56-2.11-6.99-3.26-10.46-5.73-17.26-7.41-34.96-6.22-53.06 1.1-16.59 1.5-33.24 2.95-49.79 2.03-23.16 4.62-46.28 7.23-69.39 1.97-17.49 4.28-34.94 6.58-52.39.48-3.61 1.35-7.21 2.39-10.7 2.72-9.08 10.99-12.75 19.75-9.01 4.38 1.87 5.57 5.4 5.35 9.72-.59 11.28-1.05 22.57-1.88 33.84-.83 11.26-2.78 22.49-2.91 33.75-.22 18.9-5.13 36.81-9.83 54.82-3.63 13.92-5.96 27.77-3.67 42.35.99 6.35-.21 13.33-1.68 19.73-3.84 16.71-.65 32.24 5.94 47.59 13.57 31.6 33.63 57.97 61.61 78.22 5.65 4.09 10.57 9.16 16.14 13.37 16.04 12.13 34.51 18.52 54.13 21.62 25.29 3.99 50.61 7.83 75.99 11.21 13.18 1.75 26.5 2.38 39.76 3.52 0-.08.01-.15.02-.23zM893.58 1554.42c-.28 4.67-.1 9.56-.92 14.27-3.08 17.69-6.5 35.32-9.74 52.98-.48 2.61-.6 5.28-1.02 7.9-2.12 13.5 8.44 23.92 21.67 23.77 25.61-.29 51.25.99 76.56-4.66 5.77-1.29 11.9-1.09 17.87-1.36 17.94-.81 32.15-8.02 40.92-24.14 5.52-10.17 13.55-16.68 24.41-20.8 6.01-2.28 11.92-6.23 16.42-10.84 32.47-33.3 49.53-73.32 52.16-119.86.8-14.19 4.47-28.19 6.43-42.34 2.47-17.8 3.64-35.64 1.9-53.66-.73-7.52.4-15.24.83-22.86.24-4.32 2.11-7.89 6.53-9.02 4.82-1.23 7.09 2.54 9.55 5.72 5.25 6.8 4.3 15.2 5.77 22.93.92 4.83.49 9.94.54 14.92.13 13.64-.15 27.29.35 40.92.62 16.77-1.74 33.19-4.78 49.56-2.79 15.03-6.21 29.95-8.79 45.02-2.51 14.63-7.47 28.35-14.66 41.16-6.83 12.17-14.21 24.08-22.03 35.65-10.12 14.97-24.3 25.37-40.35 33.32-3.87 1.92-7.86 3.62-11.77 5.45-6.52 3.05-11.82 7.55-15.11 14-5.18 10.17-13.49 16.52-24.25 19.23-9.63 2.43-19.47 4.41-29.33 5.5-25.59 2.82-51.16.13-76.74-1.06-9.96-.46-19.93-1.08-29.9-1.29-9.16-.19-15.57-4.53-20.74-11.8-9.99-14.03-12.52-29.85-7.77-45.63 5.72-19.04 13.69-37.44 21.25-55.88 2.14-5.21 6.25-9.62 14.73-7.09z"/>

    <path d="M2351 2351H0V0h2351v2351zM971.77 627.36c-2.99-5.19.02-7.68 2.53-10.3 15.06-15.69 33.9-24.55 54.77-28.95 6.62-1.4 14.15-1.11 20.75.51 17.86 4.37 35.21 10.91 50.07 21.84 36.87 27.11 59.87 62.7 63.36 109.31 1.91 25.58 5.03 50.88 11.07 75.93 3.33 13.8 3.81 28.29 5.36 42.5 1.59 14.53 2.79 29.1 4.41 43.63 1.61 14.52 3.93 28.97 5.17 43.51.98 11.51-5.73 16.24-16.2 11.42-13.28-6.1-26.45-12.55-39.15-19.75-22.65-12.84-45.79-24.33-71.02-31.33-5.01-1.39-9.78-4.11-14.25-6.87-13.88-8.56-27.49-17.56-41.36-26.13-7.34-4.53-15.21-8.11-20.81-15.18-1.94-2.45-5.43-3.69-8.25-5.43-8.2-5.04-16.73-9.6-24.56-15.16-20.63-14.65-41.17-29.44-61.33-44.72-12.44-9.43-24.56-19.4-36.03-29.99-8.42-7.78-17.32-14.32-27.61-19.39-12.22-6.01-24.35-12.37-35.82-19.67-11.22-7.13-11.68-11.91-6.74-24.54 3.24-8.31 5.91-16.9 8.06-25.55 1.99-8-1.31-14.51-8.4-18.54-5.17-2.94-10.64-5.51-16.25-7.46-8.5-2.95-16.38-1.19-23.29 4.72-13.93 11.91-23.14 26.63-25.9 44.86-2.48 16.33 1.71 30.46 15.74 40.47 6.34 4.53 13.15 6.16 20.66 2.49 8.77-4.28 17.82-3.7 25.88 1.15 13.96 8.38 27.76 17.11 41 26.58 18.67 13.36 36.52 27.86 55.17 41.26 15.42 11.08 31.42 21.32 44.8 35 1.61 1.64 3.64 2.89 5.58 4.18 13.03 8.66 25.96 17.48 39.17 25.87 11.79 7.49 23.89 14.5 35.87 21.7 6.83 4.11 13.63 8.28 20.55 12.24 11.25 6.44 22.32 13.26 33.95 18.93 13.14 6.4 26.96 11.36 40.22 17.54 22.6 10.54 44.86 21.83 67.52 32.25 18.43 8.47 37.24 16.12 55.87 24.16 7.02 3.03 12.55 1.62 17.64-4.37 22.42-26.39 45.34-52.36 67.6-78.88 24.62-29.33 48.48-59.28 73.08-88.62 37.01-44.14 75.09-87.39 111.35-132.13 31.89-39.34 63.75-78.58 100.38-113.68.96-.92 2-1.8 2.81-2.84 5.56-7.13 12.85-10.98 21.61-13.27 16.46-4.3 26.31-16.32 32.84-31.19 3.74-8.52.76-18.09-6.44-21.87-10.71-5.63-22.17-9.41-34.33-9.53-9.53-.09-18.85 1.76-23.8 11.52-3.79 7.47-6.55 15.29-5.75 23.92 1.26 13.69-4.23 24.59-13.91 33.81-6.02 5.74-12.19 11.36-17.84 17.45-18.98 20.45-39.18 39.86-54.24 63.68-2.47 3.91-5.79 7.3-8.77 10.89-21.91 26.37-44.09 52.53-65.67 79.16-18.03 22.25-35.34 45.07-53.04 67.58-2.46 3.13-5.38 5.9-8.04 8.88-7.32 8.19-14.92 16.15-21.87 24.65-23.6 28.84-47.01 57.84-70.38 86.87-3.75 4.65-6.87 9.8-10.41 14.62-1.75 2.38-3.51 4.94-5.81 6.69-4.4 3.34-7.88 2.75-10.8-2.07-2.56-4.23-5.47-8.78-6.17-13.5-2.66-17.74-5.04-35.56-6.47-53.44-1.83-22.86-2.37-45.83-3.98-68.71-1.08-15.25-3.6-30.4-4.51-45.65-1.3-21.7 1.75-43.18 4.91-64.6 1.65-11.16 2.56-22.56 5.5-33.38 5.74-21.07 16.72-39.8 28.81-57.84 1.65-2.46 3.66-4.79 5.89-6.74 13.53-11.85 27.07-23.69 40.81-35.29 9.02-7.61 19.54-12.69 30.73-16.23 4.93-1.56 10.42-3.38 14.69 2.6-1.59 6.62-3.68 13.34-4.66 20.21-.63 4.44-.77 9.56.83 13.6 5.67 14.26 26.9 23.73 41.17 18.18 17.28-6.72 29.39-19.26 32.04-37.78 2.29-15.93-1.52-28.65-18.11-34.45-11.44-4-23.06-6.62-35.1-6.77-24.05-.29-46.73 5.91-68.66 15.3-13.7 5.87-25.4 14.42-34.96 25.92-4.47 5.37-9.23 10.5-13.92 15.69-13.41 14.83-26.82 29.64-36.36 47.44-.77 1.44-1.85 2.8-3.06 3.9-2.48 2.24-6.12 1.54-7.34-1.54-.71-1.8-.74-3.91-.86-5.89-1.98-34.11-7.69-67.86-6.43-102.33 1.41-38.56 1.35-76.92 10.09-114.98a856.13 856.13 0 0124.96-87.19c9.35-27.13 26.76-49.73 43.99-72.19 3.25-4.23 8.9-6.78 13.77-9.53 1.93-1.09 4.73-.63 5.98-.76-.78 14.05-1.63 27.24-2.15 40.45-.09 2.18.96 4.56 1.96 6.61 5.39 11.01 13.82 18.98 25.63 22.26 21.87 6.07 42.19 1.67 60.89-10.81 4.35-2.9 7.66-6.91 7.3-12.35-.84-12.91-1.4-25.92-3.5-38.65-1.83-11.13-8.71-19.15-19.71-23.3-4.32-1.63-8.39-4.01-12.4-6.34-23.38-13.57-47.14-19.52-72.19-4.16-2.26 1.38-4.77 2.36-7.17 3.52-21.44 10.4-37.27 26.41-48.17 47.55-3.19 6.19-6.7 12.33-10.92 17.84-5.97 7.8-10.14 16.24-13.16 25.56-5.85 18.04-12.23 35.91-18.46 53.83-.93 2.67-1.19 6.24-6.85 5.6-.37-2.78-1.01-5.85-1.15-8.95-.36-7.98-.41-15.97-.75-23.95-.54-12.6-1.18-25.19-1.86-37.79-.6-11.27-.68-22.61-2.13-33.77-1.62-12.5-4.92-24.78-6.77-37.26-4.76-32.22-2.68-63.68 11.38-93.69 1.68-3.58 2.99-7.47 3.67-11.35 1.52-8.66-.68-13.22-8.7-16.94-5.69-2.64-11.79-4.49-17.84-6.27-13.73-4.05-33 3.7-41.45 19.15-3.34 6.1-3.49 12.16.68 17.85 3.93 5.36 7.78 10.91 12.46 15.58 6.9 6.9 9.8 14.86 8.95 24.39-1.66 18.71 1.3 37.16 2.71 55.73 1.95 25.84 3.4 51.71 1.87 77.73-1.03 17.53.25 35.21.76 52.81.32 11.13 1.57 22.26-1.21 33.69-2.67-3-4.5-6.29-6.18-9.66-4.15-8.33-8.39-16.63-12.3-25.07-5.44-11.73-11.94-23.19-15.62-35.47-6.52-21.8-15.47-42.41-25.16-62.92-13.02-27.53-35.27-41.51-64.04-47.03-10.46-2-20.98-3.63-31.45-5.6-21.67-4.07-42.43-.99-62.39 7.94-9.99 4.47-14.39 11.55-13.19 22.16 1.16 10.23 2.53 20.52 4.97 30.5 4.68 19.17 20.31 30.79 40.15 30.83 3 0 6.01.13 8.99-.11 16.18-1.31 27.41-9.96 33.64-24.51 6.9-16.12-1.58-33.69-18.19-39.58-4.71-1.67-10.57-1.57-13.75-8.55 4.3-.52 7.86-1.67 11.23-1.25 17.54 2.19 34.86 5.52 50.88 13.45 7.96 3.94 14.13 9.94 18.24 17.89 5.04 9.75 10.26 19.43 14.92 29.36 2.67 5.68 4.65 11.73 6.51 17.74 3.83 12.36 6.5 25.14 11.19 37.15 13.92 35.64 28.57 70.99 42.97 106.44 3 7.39 5.78 14.9 9.38 21.99 3.98 7.86 6.65 15.94 7.16 24.72.71 12.28 1.15 24.59 2.21 36.85 1.69 19.53 3.6 39.05 5.82 58.52 1.24 10.87 3.3 21.65 4.95 32.48.32 2.08.43 4.19.66 6.54-1.38-.34-2.14-.31-2.61-.67-25.35-19.42-54.19-32.4-83.13-45.24-9.75-4.32-19.91-6.55-30.14-3.37-25.65 7.98-49.78 19.12-69.4 38.08-14.43 13.95-25.17 30.17-27.58 50.75-2.15 18.33 1.95 34.42 17.17 46.34 9.9 7.75 21.54 10.1 33.72 10.55 4.68.17 8.49-1.85 10.74-6.01 6.01-11.12 12.87-21.92 17.58-33.57 10.1-24.96-9.08-48.55-35.76-44.93-1.3.18-2.62.15-4.26.24z"
          fill="transparent"/>
    <path d="M971.77 627.36c1.64-.09 2.96-.06 4.26-.24 26.68-3.63 45.86 19.97 35.76 44.93-4.72 11.66-11.57 22.45-17.58 33.57-2.25 4.16-6.06 6.19-10.74 6.01-12.17-.45-23.82-2.8-33.72-10.55-15.21-11.91-19.31-28.01-17.17-46.34 2.41-20.57 13.15-36.8 27.58-50.75 19.61-18.96 43.75-30.1 69.4-38.08 10.23-3.18 20.39-.96 30.14 3.37 28.94 12.83 57.78 25.82 83.13 45.24.46.36 1.22.33 2.61.67-.23-2.35-.34-4.46-.66-6.54-1.65-10.83-3.71-21.61-4.95-32.48-2.22-19.48-4.12-38.99-5.82-58.52-1.06-12.25-1.5-24.56-2.21-36.85-.51-8.79-3.18-16.86-7.16-24.72-3.59-7.09-6.37-14.61-9.38-21.99-14.4-35.45-29.05-70.8-42.97-106.44-4.69-12.01-7.36-24.79-11.19-37.15-1.86-6.01-3.84-12.06-6.51-17.74-4.67-9.93-9.88-19.6-14.92-29.36-4.11-7.95-10.28-13.95-18.24-17.89-16.02-7.93-33.34-11.26-50.88-13.45-3.37-.42-6.94.73-11.23 1.25 3.18 6.98 9.04 6.88 13.75 8.55 16.6 5.89 25.09 23.47 18.19 39.58-6.23 14.55-17.46 23.2-33.64 24.51-2.98.24-5.99.12-8.99.11-19.84-.04-35.47-11.66-40.15-30.83-2.43-9.98-3.81-20.27-4.97-30.5-1.2-10.62 3.2-17.69 13.19-22.16 19.97-8.94 40.72-12.02 62.39-7.94 10.46 1.97 20.99 3.6 31.45 5.6 28.78 5.51 51.02 19.5 64.04 47.03 9.7 20.5 18.64 41.11 25.16 62.92 3.68 12.28 10.18 23.74 15.62 35.47 3.92 8.44 8.15 16.74 12.3 25.07 1.68 3.37 3.5 6.66 6.18 9.66 2.78-11.43 1.53-22.56 1.21-33.69-.51-17.6-1.79-35.28-.76-52.81 1.53-26.02.08-51.89-1.87-77.73-1.4-18.57-4.37-37.02-2.71-55.73.85-9.53-2.04-17.49-8.95-24.39-4.68-4.67-8.52-10.22-12.46-15.58-4.17-5.69-4.02-11.75-.68-17.85 8.45-15.44 27.72-23.2 41.45-19.15 6.04 1.78 12.15 3.63 17.84 6.27 8.02 3.73 10.22 8.29 8.7 16.94-.68 3.89-1.99 7.77-3.67 11.35-14.06 30-16.14 61.47-11.38 93.69 1.85 12.48 5.15 24.76 6.77 37.26 1.44 11.16 1.52 22.5 2.13 33.77.67 12.59 1.31 25.19 1.86 37.79.34 7.98.39 15.97.75 23.95.14 3.09.78 6.17 1.15 8.95 5.66.64 5.92-2.93 6.85-5.6 6.23-17.92 12.6-35.79 18.46-53.83 3.02-9.31 7.2-17.76 13.16-25.56 4.22-5.51 7.73-11.66 10.92-17.84 10.91-21.13 26.73-37.15 48.17-47.55 2.4-1.16 4.91-2.13 7.17-3.52 25.05-15.36 48.81-9.41 72.19 4.16 4.01 2.33 8.09 4.7 12.4 6.34 10.99 4.16 17.88 12.17 19.71 23.3 2.09 12.74 2.66 25.74 3.5 38.65.35 5.44-2.95 9.45-7.3 12.35-18.7 12.47-39.02 16.88-60.89 10.81-11.82-3.28-20.25-11.24-25.63-22.26-1-2.05-2.05-4.43-1.96-6.61.52-13.2 1.36-26.39 2.15-40.45-1.25.13-4.06-.34-5.98.76-4.87 2.76-10.52 5.3-13.77 9.53-17.23 22.46-34.64 45.06-43.99 72.19a853.573 853.573 0 00-24.96 87.19c-8.75 38.06-8.68 76.42-10.09 114.98-1.26 34.47 4.45 68.22 6.43 102.33.12 1.98.15 4.1.86 5.89 1.22 3.09 4.86 3.78 7.34 1.54 1.21-1.09 2.29-2.46 3.06-3.9 9.54-17.8 22.96-32.61 36.36-47.44 4.69-5.19 9.45-10.31 13.92-15.69 9.56-11.5 21.26-20.06 34.96-25.92 21.93-9.39 44.61-15.59 68.66-15.3 12.05.15 23.66 2.77 35.1 6.77 16.59 5.8 20.4 18.51 18.11 34.45-2.66 18.52-14.77 31.06-32.04 37.78-14.27 5.55-35.5-3.92-41.17-18.18-1.61-4.03-1.47-9.16-.83-13.6.98-6.87 3.08-13.59 4.66-20.21-4.27-5.99-9.75-4.16-14.69-2.6-11.18 3.53-21.71 8.61-30.73 16.23-13.74 11.6-27.28 23.44-40.81 35.29-2.23 1.95-4.24 4.28-5.89 6.74-12.09 18.04-23.07 36.76-28.81 57.84-2.95 10.83-3.86 22.22-5.5 33.38-3.16 21.41-6.21 42.9-4.91 64.6.91 15.25 3.43 30.4 4.51 45.65 1.61 22.88 2.15 45.85 3.98 68.71 1.43 17.87 3.81 35.7 6.47 53.44.71 4.72 3.61 9.27 6.17 13.5 2.92 4.82 6.4 5.41 10.8 2.07 2.31-1.75 4.06-4.31 5.81-6.69 3.55-4.82 6.67-9.97 10.41-14.62 23.37-29.03 46.78-58.03 70.38-86.87 6.95-8.49 14.55-16.46 21.87-24.65 2.66-2.98 5.58-5.75 8.04-8.88 17.7-22.51 35.01-45.34 53.04-67.58 21.59-26.64 43.76-52.79 65.67-79.16 2.98-3.59 6.29-6.98 8.77-10.89 15.06-23.82 35.27-43.22 54.24-63.68 5.65-6.09 11.81-11.71 17.84-17.45 9.68-9.22 15.17-20.12 13.91-33.81-.8-8.63 1.96-16.45 5.75-23.92 4.95-9.75 14.27-11.61 23.8-11.52 12.16.11 23.62 3.9 34.33 9.53 7.19 3.78 10.18 13.34 6.44 21.87-6.53 14.87-16.38 26.9-32.84 31.19-8.76 2.29-16.06 6.14-21.61 13.27-.81 1.04-1.85 1.92-2.81 2.84-36.64 35.1-68.49 74.34-100.38 113.68-36.26 44.74-74.35 87.99-111.35 132.13-24.6 29.34-48.47 59.29-73.08 88.62-22.26 26.52-45.19 52.49-67.6 78.88-5.09 6-10.61 7.41-17.64 4.37-18.63-8.04-37.44-15.69-55.87-24.16-22.66-10.42-44.91-21.71-67.52-32.25-13.25-6.18-27.08-11.14-40.22-17.54-11.63-5.66-22.7-12.49-33.95-18.93-6.92-3.96-13.72-8.13-20.55-12.24-11.98-7.2-24.07-14.21-35.87-21.7-13.21-8.39-26.14-17.2-39.17-25.87-1.93-1.29-3.97-2.53-5.58-4.18-13.38-13.68-29.38-23.93-44.8-35-18.65-13.39-36.5-27.89-55.17-41.26-13.23-9.47-27.04-18.2-41-26.58-8.06-4.84-17.11-5.43-25.88-1.15-7.51 3.67-14.32 2.04-20.66-2.49-14.04-10.01-18.22-24.14-15.74-40.47 2.76-18.23 11.97-32.95 25.9-44.86 6.9-5.9 14.79-7.67 23.29-4.72 5.61 1.95 11.08 4.52 16.25 7.46 7.08 4.02 10.39 10.53 8.4 18.54-2.16 8.66-4.82 17.25-8.06 25.55-4.94 12.64-4.48 17.41 6.74 24.54 11.48 7.3 23.61 13.65 35.82 19.67 10.29 5.07 19.18 11.61 27.61 19.39 11.47 10.59 23.58 20.56 36.03 29.99 20.16 15.28 40.7 30.08 61.33 44.72 7.83 5.56 16.36 10.12 24.56 15.16 2.82 1.73 6.31 2.98 8.25 5.43 5.6 7.07 13.47 10.64 20.81 15.18 13.87 8.57 27.48 17.57 41.36 26.13 4.48 2.76 9.24 5.48 14.25 6.87 25.23 7 48.36 18.5 71.02 31.33 12.71 7.2 25.88 13.64 39.15 19.75 10.47 4.81 17.19.09 16.2-11.42-1.24-14.54-3.56-28.99-5.17-43.51-1.61-14.53-2.82-29.1-4.41-43.63-1.55-14.2-2.03-28.7-5.36-42.5-6.04-25.04-9.15-50.35-11.07-75.93-3.49-46.61-26.49-82.2-63.36-109.31-14.86-10.93-32.21-17.46-50.07-21.84-6.6-1.62-14.13-1.9-20.75-.51-20.87 4.4-39.71 13.26-54.77 28.95-2.51 2.62-5.53 5.11-2.53 10.3z"/>

    <path d="M2351 2351H0V0h2351v2351zm-757.68-1238.96h-1.02c0-22.29.46-44.6-.13-66.87-.56-21.02-3.2-41.79-12.52-61.14-1.27-2.64-1.64-5.75-2.22-8.68-3.45-17.29-6.71-34.62-10.28-51.88-4.06-19.66-9.69-38.63-22.44-54.88-7.58-9.66-14.39-19.94-21.12-30.23-5-7.64-10.49-14.83-18.53-19.21-12.25-6.69-24.86-12.7-35.63-21.83-1.7-1.44-4.23-1.88-6.29-2.94-9.43-4.88-19.39-9-28.1-14.94-13.7-9.34-28.33-16.26-44.34-19.85-25.63-5.74-51.39-10.9-77.16-15.92-9.11-1.77-18.66-4.26-27.61-3.16-17.49 2.13-34.49-.64-51.66-1.97-27.6-2.13-55.13-3.42-82.68.8-15.77 2.42-31.61 4.91-47.51 5.86-17.53 1.05-32.97 6.44-47.34 16.34-4.42 3.05-10.26 5.55-15.48 5.61-10.97.14-20.97 2.86-30.82 7.18-10.35 4.54-20.82 8.81-31.25 13.17-17.69 7.41-32.36 18.6-42.08 35.31-5.71 9.81-10.95 19.76-19.75 27.32-1.92 1.64-2.92 4.38-4.26 6.66-2.87 4.87-5.3 10.04-8.58 14.62-22.27 31.09-31.67 67.1-39.36 103.65-3.13 14.88-2.5 30.54-9.27 44.7-.41.85-.28 1.96-.39 2.96-3.1 27.74-6.39 55.47-9.23 83.24-1.62 15.85-2.95 31.89-.14 47.66 2.28 12.76 1.31 25-.97 37.57-3.06 16.92-7.07 33.87-3.71 51.36.93 4.86.91 9.94.91 14.92.02 29.73-6.15 58.12-19.59 84.69-3.09 6.12-3.28 11.38-1.38 17.97 2.25 7.84 2.91 16.27 3.3 24.49.48 10.26-.23 20.57-.05 30.85.34 18.93 1.07 37.85 1.36 56.78.05 3.58-.81 7.3-1.93 10.73-1.86 5.65-.04 9.62 4.42 13.04 8.07 6.2 16.81 10.71 27.11 11.72 8.6.85 17.2 1.67 25.78 2.64 35.37 3.97 70.64 9.21 106.42 7.61 6.27-.28 12.6.32 18.88.86 18.55 1.6 37.08 3.47 55.64 5.04 12.63 1.07 25.05 2.68 36.73 8.21 3.84 1.82 8.21 2.96 12.45 3.39 15.18 1.55 30.38 3.01 45.62 3.86 17.27.96 34.59.97 51.86 1.86 16.92.87 33.87 1.81 50.7 3.68 15.18 1.69 30.16 5.17 45.33 6.98 14.5 1.73 29.15 2.14 43.71 3.44 34.14 3.07 67.95 7.75 101.14 17.02 19.4 5.42 39.44 4.68 59.23-.37 10.88-2.77 15.74-9.97 18.16-20.14 1.84-7.73 4.36-15.31 6.69-22.92 3.4-11.09 6.84-22.17 10.38-33.22.9-2.81 2.18-5.52 3.45-8.19 7.7-16.26 15.12-32.66 18.28-50.51 1.38-7.82 1.42-15.86 2.53-23.73 2.52-17.78 5.42-35.51 7.97-53.29 1.08-7.53.52-15.5 2.76-22.63 4.72-15.02 8.17-30.15 9.17-45.85 1.29-20.23 2.82-40.45 3.74-60.7.42-9.28-.7-18.62-.57-27.92.43-30.28 1.11-60.56 1.7-90.84z"
          fill="transparent"/>
    <path d="M1593.32 1112.04c-.59 30.28-1.27 60.56-1.7 90.84-.13 9.3.99 18.64.57 27.92-.92 20.25-2.45 40.47-3.74 60.7-1 15.7-4.45 30.83-9.17 45.85-2.24 7.12-1.67 15.09-2.76 22.63-2.55 17.78-5.45 35.51-7.97 53.29-1.11 7.87-1.15 15.92-2.53 23.73-3.16 17.85-10.58 34.25-18.28 50.51-1.27 2.68-2.54 5.38-3.45 8.19-3.55 11.05-6.99 22.12-10.38 33.22-2.33 7.61-4.85 15.19-6.69 22.92-2.42 10.17-7.28 17.37-18.16 20.14-19.79 5.05-39.83 5.79-59.23.37-33.19-9.27-67-13.96-101.14-17.02-14.56-1.31-29.21-1.72-43.71-3.44-15.17-1.81-30.15-5.29-45.33-6.98-16.83-1.88-33.78-2.81-50.7-3.68-17.27-.89-34.59-.9-51.86-1.86-15.23-.85-30.44-2.3-45.62-3.86-4.23-.43-8.61-1.57-12.45-3.39-11.67-5.53-24.09-7.13-36.73-8.21-18.56-1.58-37.09-3.44-55.64-5.04-6.27-.54-12.61-1.14-18.88-.86-35.78 1.6-71.05-3.64-106.42-7.61-8.58-.96-17.18-1.79-25.78-2.64-10.29-1.02-19.04-5.53-27.11-11.72-4.46-3.42-6.28-7.39-4.42-13.04 1.13-3.43 1.99-7.15 1.93-10.73-.29-18.93-1.02-37.85-1.36-56.78-.18-10.28.53-20.59.05-30.85-.39-8.22-1.04-16.65-3.3-24.49-1.89-6.59-1.71-11.85 1.38-17.97 13.44-26.58 19.61-54.96 19.59-84.69 0-4.98.02-10.07-.91-14.92-3.36-17.49.64-34.44 3.71-51.36 2.28-12.58 3.24-24.81.97-37.57-2.81-15.77-1.48-31.8.14-47.66 2.84-27.77 6.13-55.5 9.23-83.24.11-.99-.02-2.1.39-2.96 6.78-14.16 6.14-29.82 9.27-44.7 7.69-36.55 17.09-72.56 39.36-103.65 3.28-4.57 5.71-9.75 8.58-14.62 1.34-2.28 2.35-5.01 4.26-6.66 8.81-7.56 14.05-17.51 19.75-27.32 9.72-16.71 24.39-27.9 42.08-35.31 10.43-4.36 20.9-8.63 31.25-13.17 9.85-4.32 19.84-7.04 30.82-7.18 5.22-.07 11.06-2.57 15.48-5.61 14.36-9.9 29.81-15.28 47.34-16.34 15.9-.96 31.73-3.45 47.51-5.86 27.55-4.22 55.09-2.94 82.68-.8 17.17 1.33 34.17 4.1 51.66 1.97 8.95-1.09 18.51 1.39 27.61 3.16 25.78 5.02 51.54 10.18 77.16 15.92 16.01 3.59 30.65 10.51 44.34 19.85 8.71 5.94 18.67 10.05 28.1 14.94 2.06 1.07 4.59 1.5 6.29 2.94 10.77 9.13 23.37 15.15 35.63 21.83 8.04 4.39 13.53 11.57 18.53 19.21 6.73 10.28 13.54 20.57 21.12 30.23 12.75 16.25 18.38 35.22 22.44 54.88 3.57 17.26 6.83 34.59 10.28 51.88.58 2.93.95 6.04 2.22 8.68 9.33 19.35 11.96 40.12 12.52 61.14.6 22.28.13 44.58.13 66.87h1.02zm-725.34 39.65v35.63c-.58 8.95-.8 17.94-1.82 26.84-2 17.47-5.8 34.76-4.41 52.51.54 6.93 1.71 13.88 1.51 20.79-.47 16.44-3.21 32.45-13.28 46.14-4.78 6.49-6.54 13.4-6.14 21.47.88 17.91 2.58 35.97 1.15 53.74-1.59 19.68-1.04 39.09.65 58.61.75 8.66 3.9 15.15 13.77 16.42 5.23.67 10.29 2.8 15.52 3.42 20.08 2.39 40.16 5.1 60.33 6.4 16.14 1.04 32.4.19 48.6.21 7.31.01 14.71-.56 21.93.32 16.77 2.05 33.5 4.55 50.17 7.36 15.01 2.54 30.06 5.14 44.8 8.87 8.33 2.1 16.29 4.76 25.06 5.59 29.77 2.81 59.52 5.46 89.44 5.36 21.62-.07 43.33.57 64.45 4.82 26.74 5.38 53.68 8.86 80.75 10.75 31.57 2.2 62.47 8.07 93.48 13.6 11.08 1.98 22.26 3.39 33.43 4.81 7.51.95 12.71-2.29 15.92-9.26 4.57-9.93 10.72-19.26 10.34-30.88-.06-1.86 1.15-3.77 1.8-5.65 9.82-28.57 19.83-57.08 29.37-85.75 2.92-8.77 5.13-17.87 6.59-26.99 1.83-11.45 2.72-23.07 3.68-34.64.41-4.95-.08-9.97-.08-14.96 0-3.55-.48-7.24.31-10.62 2.59-11.05 4.63-22.11 4.14-33.54-.14-3.3.31-6.64.6-9.95 1.11-12.56 3.18-25.11 3.24-37.67.33-65.94.16-131.88.14-197.82 0-7.33.55-14.75-.44-21.96-3.6-26.26-6.66-52.67-11.96-78.6-5.93-28.97-13.55-57.64-31-82.51-4.95-7.06-8.74-14.92-13.31-22.25-5.69-9.13-12.75-17.08-21.92-22.88-12.93-8.18-25.82-16.44-38.99-24.22-32.81-19.38-66.81-34.97-105.34-40.31-28.69-3.97-57.45-4.99-86.19-7.18-11.25-.86-22.54-1.3-33.74-2.62-16.26-1.91-32.37-2.66-48.65.15-9.11 1.57-18.48 1.77-27.75 2.23-15.92.78-31.85 1.34-47.78 1.85-5.04.16-9.26 1.1-10.55 7.59 2.57 2.64 5.73 5.18 7.91 8.39 1.28 1.89 1.84 5.14 1.12 7.23-.51 1.51-3.59 2.76-5.64 2.97-2.54.26-5.26-.46-7.8-1.15-11.75-3.2-23.01-2.36-33.54 4.02-4.89 2.97-9.29 3.83-14.9.99-7.22-3.65-14.88-3.17-21.7 1.81-7.65 5.58-16.13 9.07-25.31 11.29-7.89 1.9-14.34 6.24-20.5 11.73-14.23 12.69-22.17 29.77-32.53 45.11-5.52 8.18-8.17 18.3-13.66 26.5-13.59 20.29-20.91 42.84-26.32 66.28-2.24 9.7-4.24 19.48-7.2 28.96-2.97 9.52-5.6 18.87-6.61 28.97-2.47 24.71-6.27 49.29-9.46 73.93-.77 5.91-1.76 11.85-1.82 17.79-.18 16.65.07 33.3.15 49.96z"
          fill="#050504"/>
    <path d="M867.98 1151.69c-.08-16.65-.33-33.31-.15-49.96.06-5.94 1.05-11.88 1.82-17.79 3.2-24.64 6.99-49.22 9.46-73.93 1.01-10.1 3.64-19.45 6.61-28.97 2.96-9.48 4.97-19.27 7.2-28.96 5.41-23.43 12.73-45.99 26.32-66.28 5.49-8.21 8.14-18.33 13.66-26.5 10.36-15.34 18.3-32.42 32.53-45.11 6.15-5.49 12.6-9.83 20.5-11.73 9.17-2.21 17.66-5.71 25.31-11.29 6.82-4.97 14.47-5.46 21.7-1.81 5.61 2.83 10.01 1.98 14.9-.99 10.53-6.39 21.79-7.22 33.54-4.02 2.54.69 5.26 1.41 7.8 1.15 2.05-.21 5.13-1.46 5.64-2.97.71-2.09.16-5.34-1.12-7.23-2.17-3.21-5.34-5.75-7.91-8.39 1.29-6.49 5.51-7.43 10.55-7.59 15.93-.51 31.86-1.07 47.78-1.85 9.27-.45 18.64-.65 27.75-2.23 16.29-2.81 32.4-2.06 48.65-.15 11.19 1.31 22.49 1.76 33.74 2.62 28.74 2.19 57.51 3.21 86.19 7.18 38.54 5.34 72.54 20.93 105.34 40.31 13.17 7.78 26.06 16.04 38.99 24.22 9.16 5.8 16.23 13.75 21.92 22.88 4.57 7.34 8.36 15.2 13.31 22.25 17.45 24.87 25.07 53.54 31 82.51 5.31 25.93 8.37 52.34 11.96 78.6.99 7.2.44 14.63.44 21.96.02 65.94.19 131.88-.14 197.82-.06 12.56-2.13 25.11-3.24 37.67-.29 3.31-.74 6.65-.6 9.95.49 11.43-1.55 22.48-4.14 33.54-.79 3.38-.31 7.07-.31 10.62 0 4.99.49 10.01.08 14.96-.96 11.57-1.85 23.19-3.68 34.64-1.46 9.12-3.67 18.22-6.59 26.99-9.53 28.67-19.54 57.18-29.37 85.75-.65 1.88-1.86 3.79-1.8 5.65.38 11.63-5.77 20.95-10.34 30.88-3.21 6.97-8.41 10.22-15.92 9.26-11.17-1.42-22.35-2.83-33.43-4.81-31.02-5.53-61.91-11.4-93.48-13.6-27.07-1.89-54.01-5.37-80.75-10.75-21.12-4.25-42.83-4.89-64.45-4.82-29.92.1-59.67-2.55-89.44-5.36-8.78-.83-16.74-3.49-25.06-5.59-14.74-3.73-29.79-6.33-44.8-8.87-16.66-2.81-33.39-5.32-50.17-7.36-7.21-.88-14.61-.3-21.93-.32-16.2-.03-32.46.82-48.6-.21-20.16-1.3-40.25-4.01-60.33-6.4-5.24-.62-10.29-2.75-15.52-3.42-9.88-1.27-13.02-7.76-13.77-16.42-1.69-19.52-2.24-38.93-.65-58.61 1.44-17.77-.27-35.83-1.15-53.74-.4-8.07 1.37-14.98 6.14-21.47 10.07-13.69 12.81-29.7 13.28-46.14.2-6.91-.97-13.86-1.51-20.79-1.38-17.75 2.42-35.05 4.41-52.51 1.02-8.9 1.24-17.89 1.81-26.84.53-1.16 1.55-2.34 1.51-3.49-.4-10.72-.98-21.43-1.51-32.15z"
          fill="#00fe9c"/>

    <path
            d="M0 2351V0h2351v2351H0zm1241.25-1290.6c8.67.35 15.53-3.04 20.46-10.12 3.22-4.63 6.52-9.26 9.12-14.24 1.62-3.1 2.72-6.84 2.81-10.32.23-9.16-.97-17.91-9.83-23.53-10.53-6.69-21.99-10.56-33.89-6.29-7.58 2.72-14.23 8.35-20.86 13.26-4.08 3.02-6.62 7.59-6.25 12.97 1.72 25.44 16.12 37.39 38.46 38.28zm-136.97-18.12c5.9-6.86 10.4-12.08 14.89-17.31 8-9.32 16.19-18.49 23.94-28.02 4.65-5.72 3.42-8.67-3.78-10.25-4.52-.99-9.37-.84-13.69-2.32-11.32-3.89-23-2.79-34.56-3.23-5.33-.2-5.47.47-3.77 7.94 14.94.08 30.01.56 46.4 5.47-8.38 13.76-18.53 23.65-30.11 33.94-3.64-4.37-6.49-7.89-9.44-11.31-3.11-3.62-5-8.41-9.81-11.05-.98 8.37-1.06 8.42 13.12 30.39 1.58 2.44 4.61 3.94 6.82 5.76zm3.63-37.8c-1.37-9.18-2.52-9.5-8.41-3.51 3.1 1.29 5.75 2.4 8.41 3.51z"
            fill="transparent"/>
    <path
            d="M1241.25 1060.4c-22.34-.89-36.73-12.83-38.46-38.28-.36-5.38 2.17-9.95 6.25-12.97 6.64-4.9 13.29-10.54 20.86-13.26 11.91-4.27 23.36-.4 33.89 6.29 8.86 5.63 10.06 14.37 9.83 23.53-.09 3.48-1.19 7.21-2.81 10.32-2.6 4.98-5.9 9.61-9.12 14.24-4.92 7.08-11.79 10.47-20.46 10.12zm-6.25-52.61c-.09.53-.18 1.07-.28 1.6-3.48.28-6.96.52-10.43.84-9.16.85-13.22 5.05-13.32 14.02-.03 2.98.18 6 .65 8.95 2.45 15.35 22.81 25.93 36.59 19.11 10.16-5.03 20.06-26.11 16.96-36.93-.77-2.67-2.6-5.81-4.88-7.13-9.67-5.62-20.2-7.89-31.4-5.92-.4.07-.63 1.05-.96 1.63l7.05 3.84zM1104.28 1042.28c-2.21-1.81-5.24-3.32-6.82-5.76-14.18-21.97-14.1-22.02-13.12-30.39 4.81 2.64 6.7 7.44 9.81 11.05 2.95 3.43 5.8 6.94 9.44 11.31 11.58-10.3 21.72-20.18 30.11-33.94-16.39-4.91-31.46-5.39-46.4-5.47-1.69-7.47-1.56-8.15 3.77-7.94 11.56.44 23.24-.66 34.56 3.23 4.32 1.48 9.17 1.33 13.69 2.32 7.21 1.58 8.43 4.53 3.78 10.25-7.75 9.53-15.93 18.7-23.94 28.02-4.49 5.23-8.99 10.45-14.89 17.31z"/>
    <path d="M1107.91 1004.48c-2.65-1.11-5.31-2.21-8.41-3.51 5.89-6 7.03-5.68 8.41 3.51z"/>
    <path
            d="M1235 1007.79l-7.05-3.84c.32-.58.56-1.56.96-1.63 11.19-1.96 21.73.3 31.4 5.92 2.28 1.32 4.11 4.46 4.88 7.13 3.1 10.82-6.8 31.9-16.96 36.93-13.79 6.83-34.14-3.76-36.59-19.11-.47-2.94-.69-5.96-.65-8.95.1-8.97 4.16-13.17 13.32-14.02 3.47-.32 6.95-.56 10.43-.84.09-.53.18-1.07.28-1.6zm7.96 6.43c-6.66 1.9-10.26 5.33-9.92 9.98.12 1.68 1.27 3.98 2.61 4.65.98.49 3.78-.78 4.52-2.02 2.28-3.77 5.07-7.7 2.78-12.61z"
            fill="#fff"/>
    <path
            d="M1242.96 1014.22c2.29 4.91-.51 8.84-2.78 12.61-.75 1.24-3.54 2.51-4.52 2.02-1.35-.67-2.49-2.97-2.61-4.65-.34-4.64 3.26-8.07 9.92-9.98z"/>

    <path d="M0 2351V0h2351v2351H0zm1128.23-1087.71c-5.84-4.72-10.82-3.93-14.97-2.65-14.21 4.4-28.23 9.41-42.22 14.48-1.44.52-3.04 2.99-3.01 4.52.03 1.57 1.7 3.95 3.16 4.44 2.3.77 5.18.8 7.55.16 5.12-1.39 10.02-3.6 15.12-5.11 5.69-1.68 7.25-.72 7.77 5.14 1.05 11.79 4.75 22.77 9.73 33.36 1.39 2.95 3.15 6 5.49 8.2 12.19 11.44 24.91 22.78 41.07 27.71 13.91 4.24 19.77 13.17 21.73 26.34.34 2.28.79 4.74 1.92 6.69 3.16 5.42 6.13 11.12 10.25 15.76 5.28 5.96 11.91 4.37 14.67-3.2 1.57-4.31 2.2-9.02 2.8-13.61.69-5.27.58-10.65 1.35-15.91 1.18-8.09 2.59-9.45 10.84-10.26 13.25-1.31 26.53-2.23 39.79-3.44 5.15-.47 8.93 1.7 12.26 5.35 6.05 6.65 12.05 13.37 18.41 19.71 4.22 4.21 8.68 8.39 13.69 11.53 7.5 4.69 11.63 1.94 12.18-6.94.26-4.23-.02-9.32 2.18-12.42 4.57-6.43 2.18-11.15-1.54-16.18-3.33-4.5-6.76-8.91-10.73-14.12 8.06-8.29 15.07-16.86 23.49-23.7 5.93-4.82 10.21-10.13 13.49-16.8 7.35-14.94 9.17-12.16 19.3-6.02 2.68 1.62 5.85 3.97 8.91-1.18-1.75-2.05-3.4-4.51-5.55-6.42-7.71-6.86-15.49-13.66-23.45-20.23-3.32-2.74-7.01-5.11-10.82-7.11-1.51-.79-3.79-.13-7.94-.13 5.05 5.88 8.62 9.73 11.83 13.86 4.21 5.41 3.54 11.66-1.57 18.14-3.88 4.92-5.13 5.18-12.98 1.88-3.68-1.54-7.1-3.74-10.83-5.09-6.23-2.26-12.51-4.63-18.98-5.92-6.92-1.38-10.67 2.41-8.68 9.15 2.53 8.52 6.26 16.72 9.87 24.88 1.85 4.18 4.57 7.97 7.08 12.24-2.69 1.85-5.12 3.06-6.98 4.87-9.74 9.49-21.75 11.94-34.8 12.4-17.63.63-35.23 2.05-52.85 3-6.31.34-12.66.69-18.96.36-8.32-.42-11.2-2.98-12.6-11.36-1.58-9.51-2.52-19.13-3.76-28.7-.38-2.95-.1-6.3-1.44-8.74-1.44-2.63-4.1-5.27-6.84-6.33-3.57-1.37-6.05 1.43-7.8 4.6-3.38 6.12-7.03 12.08-10.35 18.23-5.8 10.74-10.4 11.34-18.61 2.01-10.05-11.44-12.85-25.16-12.7-39.94.05-5.23 1.58-8.91 6.22-11.46 2.76-1.51 5.23-3.57 8.81-6.07z"
          fill="transparent"/>
    <path d="M1128.23 1263.29c-3.58 2.5-6.05 4.56-8.81 6.07-4.65 2.54-6.17 6.23-6.22 11.46-.15 14.78 2.66 28.51 12.7 39.94 8.2 9.34 12.81 8.73 18.61-2.01 3.32-6.15 6.98-12.11 10.35-18.23 1.76-3.18 4.23-5.98 7.8-4.6 2.74 1.05 5.4 3.7 6.84 6.33 1.34 2.44 1.06 5.79 1.44 8.74 1.24 9.57 2.18 19.19 3.76 28.7 1.39 8.37 4.28 10.93 12.6 11.36 6.3.32 12.65-.02 18.96-.36 17.62-.95 35.22-2.37 52.85-3 13.05-.47 25.06-2.92 34.8-12.4 1.86-1.81 4.29-3.02 6.98-4.87-2.51-4.27-5.23-8.06-7.08-12.24-3.61-8.16-7.34-16.36-9.87-24.88-2-6.74 1.76-10.52 8.68-9.15 6.47 1.29 12.75 3.66 18.98 5.92 3.73 1.35 7.15 3.55 10.83 5.09 7.85 3.29 9.1 3.04 12.98-1.88 5.12-6.49 5.78-12.73 1.57-18.14-3.22-4.13-6.79-7.98-11.83-13.86 4.15 0 6.43-.66 7.94.13 3.81 2 7.51 4.37 10.82 7.11 7.96 6.57 15.74 13.37 23.45 20.23 2.15 1.91 3.81 4.37 5.55 6.42-3.06 5.15-6.23 2.8-8.91 1.18-10.13-6.15-11.95-8.92-19.3 6.02-3.28 6.67-7.56 11.98-13.49 16.8-8.41 6.84-15.42 15.41-23.49 23.7 3.97 5.21 7.4 9.62 10.73 14.12 3.73 5.04 6.12 9.75 1.54 16.18-2.21 3.1-1.92 8.19-2.18 12.42-.55 8.87-4.69 11.63-12.18 6.94-5.01-3.14-9.47-7.33-13.69-11.53-6.37-6.34-12.36-13.06-18.41-19.71-3.33-3.66-7.11-5.82-12.26-5.35-13.26 1.2-26.54 2.13-39.79 3.44-8.25.81-9.66 2.18-10.84 10.26-.77 5.26-.66 10.64-1.35 15.91-.6 4.59-1.23 9.3-2.8 13.61-2.76 7.57-9.38 9.15-14.67 3.2-4.12-4.64-7.09-10.34-10.25-15.76-1.14-1.95-1.58-4.4-1.92-6.69-1.97-13.17-7.82-22.1-21.73-26.34-16.16-4.93-28.88-16.26-41.07-27.71-2.34-2.2-4.1-5.24-5.49-8.2-4.99-10.59-8.68-21.57-9.73-33.36-.52-5.86-2.08-6.82-7.77-5.14-5.1 1.51-10 3.72-15.12 5.11-2.37.64-5.25.61-7.55-.16-1.46-.49-3.13-2.87-3.16-4.44-.03-1.53 1.57-4 3.01-4.52 13.99-5.07 28.01-10.09 42.22-14.48 4.15-1.28 9.12-2.07 14.97 2.65zm182.71 59.03c4.09-3.83 7.52-6.46 10.11-9.76 1.02-1.29.91-5.46.02-5.95-6.4-3.52-12.77-7.7-21.54-7.21 1.59 9.07 6.26 15.3 11.41 22.92zm-151.93 1.15c-6.44 4.76-9.92 9.05-8.91 14.3.96 5 5.73 6.42 12.18 5.08-.99-5.85-1.93-11.43-3.27-19.38zm33.93 55.7c.82-.04 1.64-.09 2.46-.13.9-4.16 2.16-8.29 2.57-12.5.34-3.47-1.7-5.65-5.53-5.18-3.7.46-5.35 2.63-4.15 6.21 1.33 3.94 3.08 7.74 4.64 11.59zm94.64-24.48c2.18 3.71 4.03 7.9 10.38 6.53.34-3.82.86-7.59-2.9-9.65-2.94-1.61-5.69-.49-7.47 3.12z"/>
    <path d="M1310.94 1322.32c-5.16-7.62-9.83-13.85-11.41-22.92 8.77-.5 15.14 3.68 21.54 7.21.9.49 1 4.66-.02 5.95-2.59 3.3-6.03 5.93-10.11 9.76zM1159.01 1323.47c1.34 7.95 2.28 13.53 3.27 19.38-6.45 1.34-11.22-.08-12.18-5.08-1.01-5.25 2.47-9.54 8.91-14.3zM1192.94 1379.17c-1.56-3.86-3.31-7.66-4.64-11.59-1.2-3.57.45-5.75 4.15-6.21 3.83-.47 5.86 1.7 5.53 5.18-.41 4.21-1.68 8.33-2.57 12.5-.82.04-1.64.09-2.46.13zM1287.58 1354.7c1.78-3.61 4.53-4.73 7.47-3.12 3.77 2.06 3.25 5.83 2.9 9.65-6.34 1.37-8.2-2.81-10.38-6.53z"
          fill="#fff"/>
</svg>